%TF.GenerationSoftware,KiCad,Pcbnew,9.0.0*%
%TF.CreationDate,2025-04-15T08:35:35-04:00*%
%TF.ProjectId,Keypad,4b657970-6164-42e6-9b69-6361645f7063,1.0*%
%TF.SameCoordinates,Original*%
%TF.FileFunction,Legend,Top*%
%TF.FilePolarity,Positive*%
%FSLAX46Y46*%
G04 Gerber Fmt 4.6, Leading zero omitted, Abs format (unit mm)*
G04 Created by KiCad (PCBNEW 9.0.0) date 2025-04-15 08:35:35*
%MOMM*%
%LPD*%
G01*
G04 APERTURE LIST*
%ADD10C,0.300000*%
%ADD11C,0.100000*%
%ADD12C,0.150000*%
%ADD13C,0.152000*%
%ADD14C,0.120000*%
%ADD15C,0.127000*%
%ADD16C,0.200000*%
G04 APERTURE END LIST*
D10*
G36*
X135383292Y-84347017D02*
G01*
X135509640Y-84375983D01*
X135629977Y-84433750D01*
X135717561Y-84507480D01*
X135793714Y-84613386D01*
X135844944Y-84741510D01*
X135869559Y-84874050D01*
X135875097Y-84984975D01*
X135875097Y-86154898D01*
X135869215Y-86280285D01*
X135847485Y-86410128D01*
X135803044Y-86536838D01*
X135737690Y-86640422D01*
X135707791Y-86673304D01*
X135602041Y-86753884D01*
X135488496Y-86803372D01*
X135356558Y-86832023D01*
X135226022Y-86840000D01*
X134736315Y-86840000D01*
X134736315Y-86482794D01*
X135093520Y-86482794D01*
X135251667Y-86482794D01*
X135375773Y-86464323D01*
X135457442Y-86408911D01*
X135507915Y-86291468D01*
X135517892Y-86176880D01*
X135517892Y-84998408D01*
X135503543Y-84870639D01*
X135460495Y-84775537D01*
X135352017Y-84707321D01*
X135251667Y-84696158D01*
X135093520Y-84696158D01*
X135093520Y-86482794D01*
X134736315Y-86482794D01*
X134736315Y-84338953D01*
X135257773Y-84338953D01*
X135383292Y-84347017D01*
G37*
G36*
X136616985Y-86840000D02*
G01*
X136616985Y-84718140D01*
X136265275Y-84981922D01*
X136265275Y-84602124D01*
X136616985Y-84338953D01*
X136974190Y-84338953D01*
X136974190Y-86840000D01*
X136616985Y-86840000D01*
G37*
G36*
X139477069Y-86058422D02*
G01*
X139477069Y-85701217D01*
X140532198Y-85701217D01*
X140532198Y-86058422D01*
X139477069Y-86058422D01*
G37*
G36*
X142134164Y-84347017D02*
G01*
X142260512Y-84375983D01*
X142380849Y-84433750D01*
X142468433Y-84507480D01*
X142544586Y-84613386D01*
X142595816Y-84741510D01*
X142620431Y-84874050D01*
X142625969Y-84984975D01*
X142625969Y-86154898D01*
X142620088Y-86280285D01*
X142598357Y-86410128D01*
X142553917Y-86536838D01*
X142488563Y-86640422D01*
X142458663Y-86673304D01*
X142352913Y-86753884D01*
X142239369Y-86803372D01*
X142107430Y-86832023D01*
X141976894Y-86840000D01*
X141487187Y-86840000D01*
X141487187Y-86482794D01*
X141844392Y-86482794D01*
X142002540Y-86482794D01*
X142126646Y-86464323D01*
X142208314Y-86408911D01*
X142258788Y-86291468D01*
X142268764Y-86176880D01*
X142268764Y-84998408D01*
X142254415Y-84870639D01*
X142211367Y-84775537D01*
X142102889Y-84707321D01*
X142002540Y-84696158D01*
X141844392Y-84696158D01*
X141844392Y-86482794D01*
X141487187Y-86482794D01*
X141487187Y-84338953D01*
X142008646Y-84338953D01*
X142134164Y-84347017D01*
G37*
G36*
X143367857Y-86840000D02*
G01*
X143367857Y-84718140D01*
X143016147Y-84981922D01*
X143016147Y-84602124D01*
X143367857Y-84338953D01*
X143725062Y-84338953D01*
X143725062Y-86840000D01*
X143367857Y-86840000D01*
G37*
G36*
X144766758Y-85378817D02*
G01*
X144774085Y-85386144D01*
X144828429Y-85363551D01*
X144925516Y-85354392D01*
X145050404Y-85376038D01*
X145102592Y-85400188D01*
X145201037Y-85478952D01*
X145229598Y-85516814D01*
X145268066Y-85594972D01*
X145293101Y-85697554D01*
X145300171Y-85822916D01*
X145300429Y-85858143D01*
X145300429Y-85983594D01*
X145300429Y-86103607D01*
X145300429Y-86228651D01*
X145300429Y-86306939D01*
X145294411Y-86429250D01*
X145293101Y-86439441D01*
X145266845Y-86534696D01*
X145226545Y-86616517D01*
X145149677Y-86713743D01*
X145051878Y-86787893D01*
X145037257Y-86796036D01*
X144919629Y-86841617D01*
X144797980Y-86858981D01*
X144770422Y-86859539D01*
X144646251Y-86847150D01*
X144526959Y-86806382D01*
X144504808Y-86794815D01*
X144405533Y-86723670D01*
X144321823Y-86624714D01*
X144317351Y-86617739D01*
X144273387Y-86537138D01*
X144250795Y-86442494D01*
X144239847Y-86320349D01*
X144239804Y-86310603D01*
X144239804Y-86187748D01*
X144239804Y-86108492D01*
X144239804Y-85984931D01*
X144239804Y-85916762D01*
X144243317Y-85848984D01*
X144597009Y-85848984D01*
X144597009Y-86320983D01*
X144636746Y-86439861D01*
X144648911Y-86452875D01*
X144761253Y-86502141D01*
X144769811Y-86502334D01*
X144884765Y-86458864D01*
X144891322Y-86452875D01*
X144942413Y-86340943D01*
X144943224Y-86320983D01*
X144943224Y-85848984D01*
X144903486Y-85730574D01*
X144891322Y-85717704D01*
X144778443Y-85667829D01*
X144769811Y-85667634D01*
X144655465Y-85711640D01*
X144648911Y-85717704D01*
X144597820Y-85829034D01*
X144597009Y-85848984D01*
X144243317Y-85848984D01*
X144246244Y-85792505D01*
X144247131Y-85785481D01*
X144267892Y-85689005D01*
X144300254Y-85595582D01*
X144773475Y-84338953D01*
X145172812Y-84338953D01*
X144766758Y-85378817D01*
G37*
G36*
X145580697Y-86840000D02*
G01*
X145580697Y-86482794D01*
X145937903Y-86482794D01*
X145937903Y-86840000D01*
X145580697Y-86840000D01*
G37*
G36*
X145580697Y-86058422D02*
G01*
X145580697Y-85701217D01*
X145937903Y-85701217D01*
X145937903Y-86058422D01*
X145580697Y-86058422D01*
G37*
G36*
X148743032Y-84338953D02*
G01*
X148372393Y-86840000D01*
X148035949Y-86840000D01*
X147763007Y-85217006D01*
X147756290Y-85217006D01*
X147487013Y-86840000D01*
X147150568Y-86840000D01*
X146779930Y-84338953D01*
X147157896Y-84338953D01*
X147336193Y-85926531D01*
X147343520Y-85926531D01*
X147623178Y-84338953D01*
X147896120Y-84338953D01*
X148186769Y-85965610D01*
X148193485Y-85965610D01*
X148365066Y-84338953D01*
X148743032Y-84338953D01*
G37*
G36*
X150092473Y-85070460D02*
G01*
X149735268Y-85070460D01*
X149735268Y-84990471D01*
X149717880Y-84863710D01*
X149680314Y-84779811D01*
X149582282Y-84703199D01*
X149495300Y-84690662D01*
X149382337Y-84718750D01*
X149312728Y-84788360D01*
X149276092Y-84891552D01*
X149266322Y-85011231D01*
X149271207Y-85133963D01*
X149296852Y-85221280D01*
X149356692Y-85287836D01*
X149462937Y-85342791D01*
X149728551Y-85450868D01*
X149838761Y-85503834D01*
X149915397Y-85557725D01*
X149999198Y-85650630D01*
X150027749Y-85698775D01*
X150066380Y-85818024D01*
X150078429Y-85888674D01*
X150089785Y-86017667D01*
X150092473Y-86131085D01*
X150087334Y-86254463D01*
X150070304Y-86379218D01*
X150061332Y-86421734D01*
X150023685Y-86538951D01*
X149960582Y-86650711D01*
X149869977Y-86742624D01*
X149768852Y-86803974D01*
X149646832Y-86843857D01*
X149522414Y-86858671D01*
X149480645Y-86859539D01*
X149356539Y-86848243D01*
X149240676Y-86814354D01*
X149131389Y-86756046D01*
X149049556Y-86688569D01*
X148970001Y-86589779D01*
X148922550Y-86501723D01*
X148885864Y-86382846D01*
X148875533Y-86269082D01*
X148875533Y-86136580D01*
X149232739Y-86136580D01*
X149232739Y-86247711D01*
X149257194Y-86367786D01*
X149289525Y-86424176D01*
X149397454Y-86493098D01*
X149480645Y-86502334D01*
X149603424Y-86483642D01*
X149619863Y-86476078D01*
X149697411Y-86401584D01*
X149729773Y-86284347D01*
X149735134Y-86158670D01*
X149735268Y-86132916D01*
X149731798Y-86010772D01*
X149728551Y-85972937D01*
X149701685Y-85871577D01*
X149638792Y-85808684D01*
X149534989Y-85756172D01*
X149286472Y-85651758D01*
X149172060Y-85593787D01*
X149072240Y-85518272D01*
X148995635Y-85421707D01*
X148985443Y-85402630D01*
X148941988Y-85286695D01*
X148918136Y-85165147D01*
X148909415Y-85042599D01*
X148909117Y-85013674D01*
X148917301Y-84886108D01*
X148941853Y-84764446D01*
X148946364Y-84748670D01*
X148993686Y-84631586D01*
X149059937Y-84531905D01*
X149147521Y-84446226D01*
X149243119Y-84387801D01*
X149365546Y-84347043D01*
X149490200Y-84333670D01*
X149509344Y-84333457D01*
X149633907Y-84345669D01*
X149747480Y-84382306D01*
X149854041Y-84443169D01*
X149934326Y-84511755D01*
X150010774Y-84609777D01*
X150066373Y-84727867D01*
X150091083Y-84855618D01*
X150092473Y-84895826D01*
X150092473Y-85070460D01*
G37*
G36*
X150333663Y-86840000D02*
G01*
X150333663Y-86503555D01*
X150974801Y-85293942D01*
X151021503Y-85180362D01*
X151029755Y-85135795D01*
X151036732Y-85009186D01*
X151037083Y-84966657D01*
X151037083Y-84870792D01*
X151019375Y-84781643D01*
X150966863Y-84717529D01*
X150865502Y-84690662D01*
X150746996Y-84728274D01*
X150737885Y-84736458D01*
X150691282Y-84852958D01*
X150690868Y-84868960D01*
X150690868Y-85071071D01*
X150333663Y-85071071D01*
X150333663Y-84875676D01*
X150346801Y-84753918D01*
X150375184Y-84665628D01*
X150436194Y-84558007D01*
X150490589Y-84494047D01*
X150588573Y-84414430D01*
X150657896Y-84377421D01*
X150778862Y-84340713D01*
X150867334Y-84333457D01*
X150989568Y-84344593D01*
X151106692Y-84384138D01*
X151208229Y-84452745D01*
X151272777Y-84522135D01*
X151335112Y-84634434D01*
X151364368Y-84721193D01*
X151387714Y-84843709D01*
X151394288Y-84958108D01*
X151394288Y-85081422D01*
X151394288Y-85109539D01*
X151383907Y-85226775D01*
X151348492Y-85338517D01*
X151294509Y-85450267D01*
X151281936Y-85474682D01*
X150753761Y-86482794D01*
X151394288Y-86482794D01*
X151394288Y-86840000D01*
X150333663Y-86840000D01*
G37*
G36*
X152290852Y-84347761D02*
G01*
X152392630Y-84384138D01*
X152499577Y-84453711D01*
X152567264Y-84525188D01*
X152626493Y-84611894D01*
X152668625Y-84705928D01*
X152690607Y-84829270D01*
X152695759Y-84953262D01*
X152696102Y-85002072D01*
X152696102Y-85127914D01*
X152696102Y-85190139D01*
X152681058Y-85314438D01*
X152677784Y-85325694D01*
X152621608Y-85431939D01*
X152534787Y-85517959D01*
X152519026Y-85530858D01*
X152609122Y-85613724D01*
X152621608Y-85629166D01*
X152676657Y-85739855D01*
X152677784Y-85743960D01*
X152695226Y-85866215D01*
X152696102Y-85906992D01*
X152696102Y-86036625D01*
X152696102Y-86142686D01*
X152696102Y-86266032D01*
X152696102Y-86333806D01*
X152686979Y-86457383D01*
X152685722Y-86464476D01*
X152655191Y-86559120D01*
X152607564Y-86639720D01*
X152523222Y-86733272D01*
X152435983Y-86794815D01*
X152321942Y-86841272D01*
X152195651Y-86858970D01*
X152166095Y-86859539D01*
X152043879Y-86848857D01*
X151923398Y-86809984D01*
X151894986Y-86794815D01*
X151791993Y-86718807D01*
X151724016Y-86639720D01*
X151676388Y-86559120D01*
X151645858Y-86464476D01*
X151635488Y-86338444D01*
X151635478Y-86333806D01*
X151635478Y-86211201D01*
X151635478Y-86142686D01*
X151635478Y-86014153D01*
X151635478Y-85906992D01*
X151640495Y-85841657D01*
X151992683Y-85841657D01*
X151992683Y-86328311D01*
X152038299Y-86445841D01*
X152044584Y-86452264D01*
X152156926Y-86502138D01*
X152165484Y-86502334D01*
X152280438Y-86458327D01*
X152286995Y-86452264D01*
X152338694Y-86337382D01*
X152338897Y-86328311D01*
X152338897Y-85841657D01*
X152293280Y-85724664D01*
X152286995Y-85718314D01*
X152174116Y-85667832D01*
X152165484Y-85667634D01*
X152051139Y-85712177D01*
X152044584Y-85718314D01*
X151992885Y-85832588D01*
X151992683Y-85841657D01*
X151640495Y-85841657D01*
X151644941Y-85783764D01*
X151653796Y-85743960D01*
X151707625Y-85632235D01*
X151709972Y-85629166D01*
X151796792Y-85543080D01*
X151812554Y-85530858D01*
X151722458Y-85446751D01*
X151709972Y-85431939D01*
X151653796Y-85325694D01*
X151635639Y-85204300D01*
X151635478Y-85190139D01*
X151635478Y-85062125D01*
X151635478Y-85002072D01*
X151638652Y-84876843D01*
X151639694Y-84862854D01*
X151992683Y-84862854D01*
X151992683Y-85221891D01*
X152038299Y-85338276D01*
X152044584Y-85344623D01*
X152156926Y-85393889D01*
X152165484Y-85394082D01*
X152280438Y-85350612D01*
X152286995Y-85344623D01*
X152338694Y-85230885D01*
X152338897Y-85221891D01*
X152338897Y-84862854D01*
X152293280Y-84747077D01*
X152286995Y-84740732D01*
X152174116Y-84690858D01*
X152165484Y-84690662D01*
X152051139Y-84734669D01*
X152044584Y-84740732D01*
X151992885Y-84853933D01*
X151992683Y-84862854D01*
X151639694Y-84862854D01*
X151642194Y-84829270D01*
X151665559Y-84709191D01*
X151666618Y-84705928D01*
X151706919Y-84611894D01*
X151764316Y-84525188D01*
X151854132Y-84436080D01*
X151938949Y-84384138D01*
X152055363Y-84344593D01*
X152166095Y-84333457D01*
X152290852Y-84347761D01*
G37*
G36*
X153367159Y-86840000D02*
G01*
X153367159Y-84718140D01*
X153015450Y-84981922D01*
X153015450Y-84602124D01*
X153367159Y-84338953D01*
X153724364Y-84338953D01*
X153724364Y-86840000D01*
X153367159Y-86840000D01*
G37*
G36*
X154239106Y-86840000D02*
G01*
X154239106Y-86503555D01*
X154880244Y-85293942D01*
X154926946Y-85180362D01*
X154935198Y-85135795D01*
X154942175Y-85009186D01*
X154942526Y-84966657D01*
X154942526Y-84870792D01*
X154924818Y-84781643D01*
X154872306Y-84717529D01*
X154770945Y-84690662D01*
X154652439Y-84728274D01*
X154643328Y-84736458D01*
X154596725Y-84852958D01*
X154596311Y-84868960D01*
X154596311Y-85071071D01*
X154239106Y-85071071D01*
X154239106Y-84875676D01*
X154252244Y-84753918D01*
X154280628Y-84665628D01*
X154341638Y-84558007D01*
X154396032Y-84494047D01*
X154494016Y-84414430D01*
X154563339Y-84377421D01*
X154684305Y-84340713D01*
X154772777Y-84333457D01*
X154895012Y-84344593D01*
X155012135Y-84384138D01*
X155113672Y-84452745D01*
X155178220Y-84522135D01*
X155240556Y-84634434D01*
X155269811Y-84721193D01*
X155293157Y-84843709D01*
X155299731Y-84958108D01*
X155299731Y-85081422D01*
X155299731Y-85109539D01*
X155289351Y-85226775D01*
X155253935Y-85338517D01*
X155199952Y-85450267D01*
X155187379Y-85474682D01*
X154659204Y-86482794D01*
X155299731Y-86482794D01*
X155299731Y-86840000D01*
X154239106Y-86840000D01*
G37*
G36*
X156232700Y-84346337D02*
G01*
X156358323Y-84373619D01*
X156406151Y-84391465D01*
X156517739Y-84452068D01*
X156607041Y-84530073D01*
X156680371Y-84636419D01*
X156718171Y-84730352D01*
X156744852Y-84852787D01*
X156752365Y-84964825D01*
X156752365Y-85055806D01*
X156744284Y-85179618D01*
X156735268Y-85226165D01*
X156689866Y-85341655D01*
X156685809Y-85348286D01*
X156599381Y-85443686D01*
X156491636Y-85514982D01*
X156601876Y-85583997D01*
X156680721Y-85677699D01*
X156688862Y-85692058D01*
X156732272Y-85810468D01*
X156750133Y-85938009D01*
X156752365Y-86010795D01*
X156752365Y-86153066D01*
X156744622Y-86291207D01*
X156721394Y-86414447D01*
X156675884Y-86537045D01*
X156610149Y-86640181D01*
X156590554Y-86662923D01*
X156484273Y-86748522D01*
X156364174Y-86801091D01*
X156239303Y-86828932D01*
X156117572Y-86839308D01*
X156073981Y-86840000D01*
X155580000Y-86840000D01*
X155580000Y-86482794D01*
X155937205Y-86482794D01*
X156089856Y-86482794D01*
X156211197Y-86468857D01*
X156258384Y-86450432D01*
X156348573Y-86364809D01*
X156350586Y-86361284D01*
X156386364Y-86239699D01*
X156387833Y-86225118D01*
X156394702Y-86099066D01*
X156395160Y-86053538D01*
X156389798Y-85927786D01*
X156384780Y-85885621D01*
X156345184Y-85766687D01*
X156343258Y-85763499D01*
X156249225Y-85690837D01*
X156128575Y-85668450D01*
X156093520Y-85667634D01*
X155937205Y-85667634D01*
X155937205Y-86482794D01*
X155580000Y-86482794D01*
X155580000Y-85355003D01*
X155937205Y-85355003D01*
X156096573Y-85355003D01*
X156221595Y-85340895D01*
X156330817Y-85274777D01*
X156334710Y-85269518D01*
X156381878Y-85155811D01*
X156395101Y-85028786D01*
X156395160Y-85018558D01*
X156382187Y-84893353D01*
X156327383Y-84777369D01*
X156217044Y-84711702D01*
X156094100Y-84696237D01*
X156083140Y-84696158D01*
X155937205Y-84696158D01*
X155937205Y-85355003D01*
X155580000Y-85355003D01*
X155580000Y-84338953D01*
X156109396Y-84338953D01*
X156232700Y-84346337D01*
G37*
G36*
X135383292Y-88547017D02*
G01*
X135509640Y-88575983D01*
X135629977Y-88633750D01*
X135717561Y-88707480D01*
X135793714Y-88813386D01*
X135844944Y-88941510D01*
X135869559Y-89074050D01*
X135875097Y-89184975D01*
X135875097Y-90354898D01*
X135869215Y-90480285D01*
X135847485Y-90610128D01*
X135803044Y-90736838D01*
X135737690Y-90840422D01*
X135707791Y-90873304D01*
X135602041Y-90953884D01*
X135488496Y-91003372D01*
X135356558Y-91032023D01*
X135226022Y-91040000D01*
X134736315Y-91040000D01*
X134736315Y-90682794D01*
X135093520Y-90682794D01*
X135251667Y-90682794D01*
X135375773Y-90664323D01*
X135457442Y-90608911D01*
X135507915Y-90491468D01*
X135517892Y-90376880D01*
X135517892Y-89198408D01*
X135503543Y-89070639D01*
X135460495Y-88975537D01*
X135352017Y-88907321D01*
X135251667Y-88896158D01*
X135093520Y-88896158D01*
X135093520Y-90682794D01*
X134736315Y-90682794D01*
X134736315Y-88538953D01*
X135257773Y-88538953D01*
X135383292Y-88547017D01*
G37*
G36*
X136616985Y-91040000D02*
G01*
X136616985Y-88918140D01*
X136265275Y-89181922D01*
X136265275Y-88802124D01*
X136616985Y-88538953D01*
X136974190Y-88538953D01*
X136974190Y-91040000D01*
X136616985Y-91040000D01*
G37*
G36*
X137568921Y-91040000D02*
G01*
X138189909Y-88896158D01*
X137801563Y-88896158D01*
X137801563Y-89181922D01*
X137488932Y-89181922D01*
X137488932Y-88538953D01*
X138544061Y-88538953D01*
X138544061Y-88916919D01*
X137943834Y-91040000D01*
X137568921Y-91040000D01*
G37*
G36*
X139479511Y-90258422D02*
G01*
X139479511Y-89901217D01*
X140534640Y-89901217D01*
X140534640Y-90258422D01*
X139479511Y-90258422D01*
G37*
G36*
X142136607Y-88547017D02*
G01*
X142262955Y-88575983D01*
X142383291Y-88633750D01*
X142470875Y-88707480D01*
X142547028Y-88813386D01*
X142598258Y-88941510D01*
X142622874Y-89074050D01*
X142628412Y-89184975D01*
X142628412Y-90354898D01*
X142622530Y-90480285D01*
X142600800Y-90610128D01*
X142556359Y-90736838D01*
X142491005Y-90840422D01*
X142461106Y-90873304D01*
X142355355Y-90953884D01*
X142241811Y-91003372D01*
X142109872Y-91032023D01*
X141979337Y-91040000D01*
X141489630Y-91040000D01*
X141489630Y-90682794D01*
X141846835Y-90682794D01*
X142004982Y-90682794D01*
X142129088Y-90664323D01*
X142210757Y-90608911D01*
X142261230Y-90491468D01*
X142271207Y-90376880D01*
X142271207Y-89198408D01*
X142256857Y-89070639D01*
X142213810Y-88975537D01*
X142105332Y-88907321D01*
X142004982Y-88896158D01*
X141846835Y-88896158D01*
X141846835Y-90682794D01*
X141489630Y-90682794D01*
X141489630Y-88538953D01*
X142011088Y-88538953D01*
X142136607Y-88547017D01*
G37*
G36*
X143362972Y-89594082D02*
G01*
X143490645Y-89585764D01*
X143582791Y-89556224D01*
X143640035Y-89443109D01*
X143643852Y-89380369D01*
X143643852Y-89062854D01*
X143602528Y-88945037D01*
X143596835Y-88938900D01*
X143480307Y-88890851D01*
X143470439Y-88890662D01*
X143354099Y-88929763D01*
X143337327Y-88949891D01*
X143297637Y-89062854D01*
X143297637Y-89263133D01*
X142940432Y-89263133D01*
X142940432Y-89058579D01*
X142955070Y-88934112D01*
X142981953Y-88853415D01*
X143042963Y-88747517D01*
X143097358Y-88686720D01*
X143198490Y-88610680D01*
X143268328Y-88575589D01*
X143389295Y-88540411D01*
X143477766Y-88533457D01*
X143604017Y-88546069D01*
X143720177Y-88590854D01*
X143822168Y-88663078D01*
X143865502Y-88706870D01*
X143925952Y-88790523D01*
X143969916Y-88890662D01*
X143991204Y-89012262D01*
X143999567Y-89137484D01*
X144001057Y-89230771D01*
X144001057Y-89353398D01*
X144001057Y-89438988D01*
X143983505Y-89560295D01*
X143979685Y-89570268D01*
X143908244Y-89664302D01*
X143807217Y-89732968D01*
X143783070Y-89746734D01*
X143885382Y-89819312D01*
X143913740Y-89845652D01*
X143979685Y-89950676D01*
X144000535Y-90073922D01*
X144001057Y-90100275D01*
X144001057Y-90225974D01*
X144001057Y-90319483D01*
X144001057Y-90444419D01*
X144001057Y-90523426D01*
X143992531Y-90646445D01*
X143990676Y-90656538D01*
X143962588Y-90751182D01*
X143916793Y-90831172D01*
X143835088Y-90926622D01*
X143745823Y-90994815D01*
X143625533Y-91043358D01*
X143503519Y-91058970D01*
X143472271Y-91059539D01*
X143345464Y-91045344D01*
X143292752Y-91032062D01*
X143180601Y-90983118D01*
X143119951Y-90940471D01*
X143033273Y-90846065D01*
X142991113Y-90774996D01*
X142951568Y-90653899D01*
X142940432Y-90525868D01*
X142940432Y-90321926D01*
X143297637Y-90321926D01*
X143297637Y-90508771D01*
X143330675Y-90630101D01*
X143344043Y-90647990D01*
X143455736Y-90701856D01*
X143470439Y-90702334D01*
X143587838Y-90657702D01*
X143596835Y-90647990D01*
X143642199Y-90534503D01*
X143643852Y-90501444D01*
X143643852Y-90143018D01*
X143629960Y-90020591D01*
X143588286Y-89948845D01*
X143503412Y-89914040D01*
X143378940Y-89906777D01*
X143362972Y-89906713D01*
X143362972Y-89594082D01*
G37*
G36*
X144242247Y-91040000D02*
G01*
X144242247Y-90703555D01*
X144883384Y-89493942D01*
X144930086Y-89380362D01*
X144938339Y-89335795D01*
X144945315Y-89209186D01*
X144945666Y-89166657D01*
X144945666Y-89070792D01*
X144927958Y-88981643D01*
X144875446Y-88917529D01*
X144774085Y-88890662D01*
X144655579Y-88928274D01*
X144646468Y-88936458D01*
X144599865Y-89052958D01*
X144599452Y-89068960D01*
X144599452Y-89271071D01*
X144242247Y-89271071D01*
X144242247Y-89075676D01*
X144255384Y-88953918D01*
X144283768Y-88865628D01*
X144344778Y-88758007D01*
X144399173Y-88694047D01*
X144497156Y-88614430D01*
X144566479Y-88577421D01*
X144687445Y-88540713D01*
X144775917Y-88533457D01*
X144898152Y-88544593D01*
X145015275Y-88584138D01*
X145116812Y-88652745D01*
X145181360Y-88722135D01*
X145243696Y-88834434D01*
X145272951Y-88921193D01*
X145296297Y-89043709D01*
X145302871Y-89158108D01*
X145302871Y-89281422D01*
X145302871Y-89309539D01*
X145292491Y-89426775D01*
X145257076Y-89538517D01*
X145203092Y-89650267D01*
X145190519Y-89674682D01*
X144662344Y-90682794D01*
X145302871Y-90682794D01*
X145302871Y-91040000D01*
X144242247Y-91040000D01*
G37*
G36*
X145583140Y-91040000D02*
G01*
X145583140Y-90682794D01*
X145940345Y-90682794D01*
X145940345Y-91040000D01*
X145583140Y-91040000D01*
G37*
G36*
X145583140Y-90258422D02*
G01*
X145583140Y-89901217D01*
X145940345Y-89901217D01*
X145940345Y-90258422D01*
X145583140Y-90258422D01*
G37*
G36*
X148745474Y-88538953D02*
G01*
X148374836Y-91040000D01*
X148038391Y-91040000D01*
X147765450Y-89417006D01*
X147758733Y-89417006D01*
X147489455Y-91040000D01*
X147153011Y-91040000D01*
X146782372Y-88538953D01*
X147160338Y-88538953D01*
X147338635Y-90126531D01*
X147345963Y-90126531D01*
X147625621Y-88538953D01*
X147898562Y-88538953D01*
X148189211Y-90165610D01*
X148195928Y-90165610D01*
X148367508Y-88538953D01*
X148745474Y-88538953D01*
G37*
G36*
X150094916Y-89270460D02*
G01*
X149737711Y-89270460D01*
X149737711Y-89190471D01*
X149720323Y-89063710D01*
X149682756Y-88979811D01*
X149584725Y-88903199D01*
X149497742Y-88890662D01*
X149384780Y-88918750D01*
X149315170Y-88988360D01*
X149278534Y-89091552D01*
X149268764Y-89211231D01*
X149273649Y-89333963D01*
X149299295Y-89421280D01*
X149359134Y-89487836D01*
X149465380Y-89542791D01*
X149730994Y-89650868D01*
X149841204Y-89703834D01*
X149917840Y-89757725D01*
X150001641Y-89850630D01*
X150030191Y-89898775D01*
X150068822Y-90018024D01*
X150080872Y-90088674D01*
X150092228Y-90217667D01*
X150094916Y-90331085D01*
X150089776Y-90454463D01*
X150072746Y-90579218D01*
X150063775Y-90621734D01*
X150026128Y-90738951D01*
X149963025Y-90850711D01*
X149872420Y-90942624D01*
X149771294Y-91003974D01*
X149649274Y-91043857D01*
X149524857Y-91058671D01*
X149483087Y-91059539D01*
X149358982Y-91048243D01*
X149243119Y-91014354D01*
X149133831Y-90956046D01*
X149051999Y-90888569D01*
X148972443Y-90789779D01*
X148924993Y-90701723D01*
X148888307Y-90582846D01*
X148877976Y-90469082D01*
X148877976Y-90336580D01*
X149235181Y-90336580D01*
X149235181Y-90447711D01*
X149259637Y-90567786D01*
X149291967Y-90624176D01*
X149399896Y-90693098D01*
X149483087Y-90702334D01*
X149605866Y-90683642D01*
X149622306Y-90676078D01*
X149699853Y-90601584D01*
X149732215Y-90484347D01*
X149737576Y-90358670D01*
X149737711Y-90332916D01*
X149734241Y-90210772D01*
X149730994Y-90172937D01*
X149704127Y-90071577D01*
X149641235Y-90008684D01*
X149537431Y-89956172D01*
X149288914Y-89851758D01*
X149174502Y-89793787D01*
X149074682Y-89718272D01*
X148998077Y-89621707D01*
X148987885Y-89602630D01*
X148944430Y-89486695D01*
X148920578Y-89365147D01*
X148911857Y-89242599D01*
X148911559Y-89213674D01*
X148919743Y-89086108D01*
X148944296Y-88964446D01*
X148948806Y-88948670D01*
X148996128Y-88831586D01*
X149062379Y-88731905D01*
X149149963Y-88646226D01*
X149245561Y-88587801D01*
X149367988Y-88547043D01*
X149492642Y-88533670D01*
X149511786Y-88533457D01*
X149636350Y-88545669D01*
X149749923Y-88582306D01*
X149856483Y-88643169D01*
X149936769Y-88711755D01*
X150013217Y-88809777D01*
X150068815Y-88927867D01*
X150093526Y-89055618D01*
X150094916Y-89095826D01*
X150094916Y-89270460D01*
G37*
G36*
X150336106Y-91040000D02*
G01*
X150336106Y-90703555D01*
X150977243Y-89493942D01*
X151023945Y-89380362D01*
X151032198Y-89335795D01*
X151039174Y-89209186D01*
X151039525Y-89166657D01*
X151039525Y-89070792D01*
X151021817Y-88981643D01*
X150969305Y-88917529D01*
X150867944Y-88890662D01*
X150749438Y-88928274D01*
X150740327Y-88936458D01*
X150693724Y-89052958D01*
X150693311Y-89068960D01*
X150693311Y-89271071D01*
X150336106Y-89271071D01*
X150336106Y-89075676D01*
X150349243Y-88953918D01*
X150377627Y-88865628D01*
X150438637Y-88758007D01*
X150493032Y-88694047D01*
X150591015Y-88614430D01*
X150660338Y-88577421D01*
X150781304Y-88540713D01*
X150869776Y-88533457D01*
X150992011Y-88544593D01*
X151109134Y-88584138D01*
X151210671Y-88652745D01*
X151275219Y-88722135D01*
X151337555Y-88834434D01*
X151366810Y-88921193D01*
X151390156Y-89043709D01*
X151396730Y-89158108D01*
X151396730Y-89281422D01*
X151396730Y-89309539D01*
X151386350Y-89426775D01*
X151350935Y-89538517D01*
X151296951Y-89650267D01*
X151284378Y-89674682D01*
X150756203Y-90682794D01*
X151396730Y-90682794D01*
X151396730Y-91040000D01*
X150336106Y-91040000D01*
G37*
G36*
X152293294Y-88547761D02*
G01*
X152395073Y-88584138D01*
X152502020Y-88653711D01*
X152569706Y-88725188D01*
X152628935Y-88811894D01*
X152671067Y-88905928D01*
X152693049Y-89029270D01*
X152698201Y-89153262D01*
X152698545Y-89202072D01*
X152698545Y-89327914D01*
X152698545Y-89390139D01*
X152683500Y-89514438D01*
X152680226Y-89525694D01*
X152624050Y-89631939D01*
X152537230Y-89717959D01*
X152521468Y-89730858D01*
X152611564Y-89813724D01*
X152624050Y-89829166D01*
X152679099Y-89939855D01*
X152680226Y-89943960D01*
X152697668Y-90066215D01*
X152698545Y-90106992D01*
X152698545Y-90236625D01*
X152698545Y-90342686D01*
X152698545Y-90466032D01*
X152698545Y-90533806D01*
X152689421Y-90657383D01*
X152688164Y-90664476D01*
X152657634Y-90759120D01*
X152610006Y-90839720D01*
X152525664Y-90933272D01*
X152438426Y-90994815D01*
X152324384Y-91041272D01*
X152198094Y-91058970D01*
X152168538Y-91059539D01*
X152046322Y-91048857D01*
X151925840Y-91009984D01*
X151897428Y-90994815D01*
X151794436Y-90918807D01*
X151726458Y-90839720D01*
X151678831Y-90759120D01*
X151648300Y-90664476D01*
X151637930Y-90538444D01*
X151637920Y-90533806D01*
X151637920Y-90411201D01*
X151637920Y-90342686D01*
X151637920Y-90214153D01*
X151637920Y-90106992D01*
X151642937Y-90041657D01*
X151995125Y-90041657D01*
X151995125Y-90528311D01*
X152040742Y-90645841D01*
X152047027Y-90652264D01*
X152159369Y-90702138D01*
X152167927Y-90702334D01*
X152282881Y-90658327D01*
X152289438Y-90652264D01*
X152341137Y-90537382D01*
X152341339Y-90528311D01*
X152341339Y-90041657D01*
X152295723Y-89924664D01*
X152289438Y-89918314D01*
X152176559Y-89867832D01*
X152167927Y-89867634D01*
X152053581Y-89912177D01*
X152047027Y-89918314D01*
X151995328Y-90032588D01*
X151995125Y-90041657D01*
X151642937Y-90041657D01*
X151647383Y-89983764D01*
X151656238Y-89943960D01*
X151710067Y-89832235D01*
X151712414Y-89829166D01*
X151799235Y-89743080D01*
X151814996Y-89730858D01*
X151724900Y-89646751D01*
X151712414Y-89631939D01*
X151656238Y-89525694D01*
X151638081Y-89404300D01*
X151637920Y-89390139D01*
X151637920Y-89262125D01*
X151637920Y-89202072D01*
X151641095Y-89076843D01*
X151642137Y-89062854D01*
X151995125Y-89062854D01*
X151995125Y-89421891D01*
X152040742Y-89538276D01*
X152047027Y-89544623D01*
X152159369Y-89593889D01*
X152167927Y-89594082D01*
X152282881Y-89550612D01*
X152289438Y-89544623D01*
X152341137Y-89430885D01*
X152341339Y-89421891D01*
X152341339Y-89062854D01*
X152295723Y-88947077D01*
X152289438Y-88940732D01*
X152176559Y-88890858D01*
X152167927Y-88890662D01*
X152053581Y-88934669D01*
X152047027Y-88940732D01*
X151995328Y-89053933D01*
X151995125Y-89062854D01*
X151642137Y-89062854D01*
X151644637Y-89029270D01*
X151668002Y-88909191D01*
X151669061Y-88905928D01*
X151709361Y-88811894D01*
X151766758Y-88725188D01*
X151856575Y-88636080D01*
X151941392Y-88584138D01*
X152057805Y-88544593D01*
X152168538Y-88533457D01*
X152293294Y-88547761D01*
G37*
G36*
X153369602Y-91040000D02*
G01*
X153369602Y-88918140D01*
X153017892Y-89181922D01*
X153017892Y-88802124D01*
X153369602Y-88538953D01*
X153726807Y-88538953D01*
X153726807Y-91040000D01*
X153369602Y-91040000D01*
G37*
G36*
X154241549Y-91040000D02*
G01*
X154241549Y-90703555D01*
X154882686Y-89493942D01*
X154929388Y-89380362D01*
X154937641Y-89335795D01*
X154944617Y-89209186D01*
X154944968Y-89166657D01*
X154944968Y-89070792D01*
X154927260Y-88981643D01*
X154874748Y-88917529D01*
X154773387Y-88890662D01*
X154654881Y-88928274D01*
X154645771Y-88936458D01*
X154599167Y-89052958D01*
X154598754Y-89068960D01*
X154598754Y-89271071D01*
X154241549Y-89271071D01*
X154241549Y-89075676D01*
X154254686Y-88953918D01*
X154283070Y-88865628D01*
X154344080Y-88758007D01*
X154398475Y-88694047D01*
X154496458Y-88614430D01*
X154565781Y-88577421D01*
X154686747Y-88540713D01*
X154775219Y-88533457D01*
X154897454Y-88544593D01*
X155014577Y-88584138D01*
X155116115Y-88652745D01*
X155180662Y-88722135D01*
X155242998Y-88834434D01*
X155272254Y-88921193D01*
X155295599Y-89043709D01*
X155302173Y-89158108D01*
X155302173Y-89281422D01*
X155302173Y-89309539D01*
X155291793Y-89426775D01*
X155256378Y-89538517D01*
X155202394Y-89650267D01*
X155189822Y-89674682D01*
X154661646Y-90682794D01*
X155302173Y-90682794D01*
X155302173Y-91040000D01*
X154241549Y-91040000D01*
G37*
G36*
X156235143Y-88546337D02*
G01*
X156360766Y-88573619D01*
X156408593Y-88591465D01*
X156520182Y-88652068D01*
X156609483Y-88730073D01*
X156682813Y-88836419D01*
X156720614Y-88930352D01*
X156747294Y-89052787D01*
X156754808Y-89164825D01*
X156754808Y-89255806D01*
X156746727Y-89379618D01*
X156737711Y-89426165D01*
X156692309Y-89541655D01*
X156688251Y-89548286D01*
X156601823Y-89643686D01*
X156494078Y-89714982D01*
X156604319Y-89783997D01*
X156683164Y-89877699D01*
X156691304Y-89892058D01*
X156734715Y-90010468D01*
X156752575Y-90138009D01*
X156754808Y-90210795D01*
X156754808Y-90353066D01*
X156747065Y-90491207D01*
X156723836Y-90614447D01*
X156678327Y-90737045D01*
X156612591Y-90840181D01*
X156592997Y-90862923D01*
X156486715Y-90948522D01*
X156366617Y-91001091D01*
X156241745Y-91028932D01*
X156120015Y-91039308D01*
X156076423Y-91040000D01*
X155582442Y-91040000D01*
X155582442Y-90682794D01*
X155939647Y-90682794D01*
X156092299Y-90682794D01*
X156213639Y-90668857D01*
X156260826Y-90650432D01*
X156351016Y-90564809D01*
X156353028Y-90561284D01*
X156388806Y-90439699D01*
X156390275Y-90425118D01*
X156397144Y-90299066D01*
X156397602Y-90253538D01*
X156392240Y-90127786D01*
X156387222Y-90085621D01*
X156347627Y-89966687D01*
X156345701Y-89963499D01*
X156251667Y-89890837D01*
X156131018Y-89868450D01*
X156095963Y-89867634D01*
X155939647Y-89867634D01*
X155939647Y-90682794D01*
X155582442Y-90682794D01*
X155582442Y-89555003D01*
X155939647Y-89555003D01*
X156099016Y-89555003D01*
X156224037Y-89540895D01*
X156333260Y-89474777D01*
X156337152Y-89469518D01*
X156384320Y-89355811D01*
X156397543Y-89228786D01*
X156397602Y-89218558D01*
X156384629Y-89093353D01*
X156329825Y-88977369D01*
X156219486Y-88911702D01*
X156096542Y-88896237D01*
X156085582Y-88896158D01*
X155939647Y-88896158D01*
X155939647Y-89555003D01*
X155582442Y-89555003D01*
X155582442Y-88538953D01*
X156111838Y-88538953D01*
X156235143Y-88546337D01*
G37*
G36*
X157682930Y-91040000D02*
G01*
X157682930Y-90703555D01*
X158324068Y-89493942D01*
X158370770Y-89380362D01*
X158379023Y-89335795D01*
X158385999Y-89209186D01*
X158386350Y-89166657D01*
X158386350Y-89070792D01*
X158368642Y-88981643D01*
X158316130Y-88917529D01*
X158214769Y-88890662D01*
X158096263Y-88928274D01*
X158087152Y-88936458D01*
X158040549Y-89052958D01*
X158040136Y-89068960D01*
X158040136Y-89271071D01*
X157682930Y-89271071D01*
X157682930Y-89075676D01*
X157696068Y-88953918D01*
X157724452Y-88865628D01*
X157785462Y-88758007D01*
X157839856Y-88694047D01*
X157937840Y-88614430D01*
X158007163Y-88577421D01*
X158128129Y-88540713D01*
X158216601Y-88533457D01*
X158338836Y-88544593D01*
X158455959Y-88584138D01*
X158557496Y-88652745D01*
X158622044Y-88722135D01*
X158684380Y-88834434D01*
X158713635Y-88921193D01*
X158736981Y-89043709D01*
X158743555Y-89158108D01*
X158743555Y-89281422D01*
X158743555Y-89309539D01*
X158733175Y-89426775D01*
X158697759Y-89538517D01*
X158643776Y-89650267D01*
X158631203Y-89674682D01*
X158103028Y-90682794D01*
X158743555Y-90682794D01*
X158743555Y-91040000D01*
X157682930Y-91040000D01*
G37*
G36*
X159642540Y-88547768D02*
G01*
X159715642Y-88570094D01*
X159826886Y-88628769D01*
X159885390Y-88676339D01*
X159964769Y-88774847D01*
X160001406Y-88844256D01*
X160036954Y-88962860D01*
X160045369Y-89067128D01*
X160045369Y-90526479D01*
X160032962Y-90651722D01*
X160001406Y-90749351D01*
X159939591Y-90855169D01*
X159885390Y-90916657D01*
X159784449Y-90990788D01*
X159715642Y-91022903D01*
X159592471Y-91054387D01*
X159515362Y-91059539D01*
X159393875Y-91046623D01*
X159314473Y-91022903D01*
X159203466Y-90964227D01*
X159145334Y-90916657D01*
X159065192Y-90818387D01*
X159028098Y-90749351D01*
X158993043Y-90630747D01*
X158984745Y-90526479D01*
X158984745Y-89068349D01*
X159341950Y-89068349D01*
X159341950Y-90525258D01*
X159381567Y-90642536D01*
X159390188Y-90652264D01*
X159505321Y-90702138D01*
X159514752Y-90702334D01*
X159630024Y-90661212D01*
X159639316Y-90652264D01*
X159687735Y-90539343D01*
X159688164Y-90525258D01*
X159688164Y-89068349D01*
X159648045Y-88951071D01*
X159639316Y-88941343D01*
X159524183Y-88890860D01*
X159514752Y-88890662D01*
X159399479Y-88932286D01*
X159390188Y-88941343D01*
X159342374Y-89054263D01*
X159341950Y-89068349D01*
X158984745Y-89068349D01*
X158984745Y-89067128D01*
X158996980Y-88941885D01*
X159028098Y-88844256D01*
X159090637Y-88737928D01*
X159145334Y-88676339D01*
X159245751Y-88602208D01*
X159314473Y-88570094D01*
X159437882Y-88538609D01*
X159515362Y-88533457D01*
X159642540Y-88547768D01*
G37*
G36*
X160286559Y-91040000D02*
G01*
X160286559Y-90703555D01*
X160927697Y-89493942D01*
X160974399Y-89380362D01*
X160982651Y-89335795D01*
X160989628Y-89209186D01*
X160989979Y-89166657D01*
X160989979Y-89070792D01*
X160972271Y-88981643D01*
X160919759Y-88917529D01*
X160818398Y-88890662D01*
X160699892Y-88928274D01*
X160690781Y-88936458D01*
X160644178Y-89052958D01*
X160643764Y-89068960D01*
X160643764Y-89271071D01*
X160286559Y-89271071D01*
X160286559Y-89075676D01*
X160299697Y-88953918D01*
X160328080Y-88865628D01*
X160389090Y-88758007D01*
X160443485Y-88694047D01*
X160541469Y-88614430D01*
X160610792Y-88577421D01*
X160731758Y-88540713D01*
X160820230Y-88533457D01*
X160942465Y-88544593D01*
X161059588Y-88584138D01*
X161161125Y-88652745D01*
X161225673Y-88722135D01*
X161288009Y-88834434D01*
X161317264Y-88921193D01*
X161340610Y-89043709D01*
X161347184Y-89158108D01*
X161347184Y-89281422D01*
X161347184Y-89309539D01*
X161336803Y-89426775D01*
X161301388Y-89538517D01*
X161247405Y-89650267D01*
X161234832Y-89674682D01*
X160706657Y-90682794D01*
X161347184Y-90682794D01*
X161347184Y-91040000D01*
X160286559Y-91040000D01*
G37*
G36*
X162246169Y-88547768D02*
G01*
X162319270Y-88570094D01*
X162430515Y-88628769D01*
X162489019Y-88676339D01*
X162568398Y-88774847D01*
X162605034Y-88844256D01*
X162640583Y-88962860D01*
X162648998Y-89067128D01*
X162648998Y-90526479D01*
X162636590Y-90651722D01*
X162605034Y-90749351D01*
X162543220Y-90855169D01*
X162489019Y-90916657D01*
X162388078Y-90990788D01*
X162319270Y-91022903D01*
X162196099Y-91054387D01*
X162118991Y-91059539D01*
X161997504Y-91046623D01*
X161918101Y-91022903D01*
X161807095Y-90964227D01*
X161748963Y-90916657D01*
X161668821Y-90818387D01*
X161631727Y-90749351D01*
X161596672Y-90630747D01*
X161588374Y-90526479D01*
X161588374Y-89068349D01*
X161945579Y-89068349D01*
X161945579Y-90525258D01*
X161985196Y-90642536D01*
X161993817Y-90652264D01*
X162108950Y-90702138D01*
X162118381Y-90702334D01*
X162233653Y-90661212D01*
X162242944Y-90652264D01*
X162291364Y-90539343D01*
X162291793Y-90525258D01*
X162291793Y-89068349D01*
X162251674Y-88951071D01*
X162242944Y-88941343D01*
X162127812Y-88890860D01*
X162118381Y-88890662D01*
X162003108Y-88932286D01*
X161993817Y-88941343D01*
X161946003Y-89054263D01*
X161945579Y-89068349D01*
X161588374Y-89068349D01*
X161588374Y-89067128D01*
X161600609Y-88941885D01*
X161631727Y-88844256D01*
X161694266Y-88737928D01*
X161748963Y-88676339D01*
X161849379Y-88602208D01*
X161918101Y-88570094D01*
X162041511Y-88538609D01*
X162118991Y-88533457D01*
X162246169Y-88547768D01*
G37*
D11*
G36*
X244460900Y-92456537D02*
G01*
X244561352Y-92483162D01*
X244643740Y-92524902D01*
X244711200Y-92581434D01*
X244764634Y-92651838D01*
X244804209Y-92736669D01*
X244829427Y-92838844D01*
X244838451Y-92962086D01*
X244838451Y-93894239D01*
X244828436Y-94035489D01*
X244800973Y-94147878D01*
X244758786Y-94236936D01*
X244702896Y-94307009D01*
X244631598Y-94362806D01*
X244545083Y-94404148D01*
X244440217Y-94430537D01*
X244312962Y-94440000D01*
X243916190Y-94440000D01*
X243916190Y-94174263D01*
X244201832Y-94174263D01*
X244332746Y-94174263D01*
X244410188Y-94166378D01*
X244464795Y-94145528D01*
X244502617Y-94113813D01*
X244528599Y-94070461D01*
X244546146Y-94009183D01*
X244552809Y-93924159D01*
X244552809Y-92960010D01*
X244539725Y-92850672D01*
X244505425Y-92777316D01*
X244468752Y-92743558D01*
X244413584Y-92721247D01*
X244332746Y-92712714D01*
X244201832Y-92712714D01*
X244201832Y-94174263D01*
X243916190Y-94174263D01*
X243916190Y-92446978D01*
X244338241Y-92446978D01*
X244460900Y-92456537D01*
G37*
G36*
X245595712Y-92437084D02*
G01*
X245682310Y-92467372D01*
X245759218Y-92516078D01*
X245821894Y-92580701D01*
X245869400Y-92650554D01*
X245902861Y-92726025D01*
X245920935Y-92825432D01*
X245925209Y-92963796D01*
X245925209Y-93114738D01*
X245921375Y-93174167D01*
X245910677Y-93223670D01*
X245892169Y-93268953D01*
X245865736Y-93309033D01*
X245783060Y-93388778D01*
X245829843Y-93429371D01*
X245863294Y-93467302D01*
X245888632Y-93509484D01*
X245906769Y-93559993D01*
X245917071Y-93616443D01*
X245920935Y-93690662D01*
X245920935Y-93880073D01*
X245920935Y-94033091D01*
X245912386Y-94138360D01*
X245888328Y-94214197D01*
X245850104Y-94278799D01*
X245793360Y-94345263D01*
X245714061Y-94403729D01*
X245619405Y-94441917D01*
X245499005Y-94455631D01*
X245378374Y-94441914D01*
X245283583Y-94403729D01*
X245204411Y-94345265D01*
X245147784Y-94278799D01*
X245109438Y-94214197D01*
X245085380Y-94138360D01*
X245076832Y-94033091D01*
X245076832Y-93880073D01*
X245076832Y-93690662D01*
X245079774Y-93635097D01*
X245362474Y-93635097D01*
X245362474Y-94029061D01*
X245372895Y-94083687D01*
X245403995Y-94128956D01*
X245449402Y-94159679D01*
X245501081Y-94169745D01*
X245552635Y-94159681D01*
X245597924Y-94128956D01*
X245629119Y-94083678D01*
X245639567Y-94029061D01*
X245639567Y-93635097D01*
X245629119Y-93580480D01*
X245597924Y-93535202D01*
X245552626Y-93504382D01*
X245501081Y-93494291D01*
X245449411Y-93504383D01*
X245403995Y-93535202D01*
X245372895Y-93580471D01*
X245362474Y-93635097D01*
X245079774Y-93635097D01*
X245080761Y-93616454D01*
X245091242Y-93559993D01*
X245110012Y-93509520D01*
X245136061Y-93467302D01*
X245170298Y-93429404D01*
X245218248Y-93388778D01*
X245136061Y-93309033D01*
X245109791Y-93268973D01*
X245091242Y-93223670D01*
X245080634Y-93174173D01*
X245076832Y-93114738D01*
X245076832Y-92963796D01*
X245081250Y-92852543D01*
X245362474Y-92852543D01*
X245362474Y-93143436D01*
X245372886Y-93197705D01*
X245403995Y-93242721D01*
X245449383Y-93273252D01*
X245501081Y-93283265D01*
X245552654Y-93273254D01*
X245597924Y-93242721D01*
X245629128Y-93197696D01*
X245639567Y-93143436D01*
X245639567Y-92852543D01*
X245629128Y-92798284D01*
X245597924Y-92753258D01*
X245552654Y-92722726D01*
X245501081Y-92712714D01*
X245449383Y-92722727D01*
X245403995Y-92753258D01*
X245372886Y-92798274D01*
X245362474Y-92852543D01*
X245081250Y-92852543D01*
X245082327Y-92825432D01*
X245101867Y-92726025D01*
X245133984Y-92650554D01*
X245180024Y-92580701D01*
X245242680Y-92516070D01*
X245319487Y-92467372D01*
X245406221Y-92437088D01*
X245501081Y-92426828D01*
X245595712Y-92437084D01*
G37*
G36*
X202620174Y-113256537D02*
G01*
X202720626Y-113283162D01*
X202803014Y-113324902D01*
X202870474Y-113381434D01*
X202923908Y-113451838D01*
X202963483Y-113536669D01*
X202988701Y-113638844D01*
X202997725Y-113762086D01*
X202997725Y-114694239D01*
X202987710Y-114835489D01*
X202960247Y-114947878D01*
X202918060Y-115036936D01*
X202862170Y-115107009D01*
X202790872Y-115162806D01*
X202704357Y-115204148D01*
X202599491Y-115230537D01*
X202472236Y-115240000D01*
X202075464Y-115240000D01*
X202075464Y-114974263D01*
X202361106Y-114974263D01*
X202492020Y-114974263D01*
X202569462Y-114966378D01*
X202624069Y-114945528D01*
X202661891Y-114913813D01*
X202687873Y-114870461D01*
X202705420Y-114809183D01*
X202712083Y-114724159D01*
X202712083Y-113760010D01*
X202698999Y-113650672D01*
X202664699Y-113577316D01*
X202628026Y-113543558D01*
X202572858Y-113521247D01*
X202492020Y-113512714D01*
X202361106Y-113512714D01*
X202361106Y-114974263D01*
X202075464Y-114974263D01*
X202075464Y-113246978D01*
X202497515Y-113246978D01*
X202620174Y-113256537D01*
G37*
G36*
X203564368Y-115240000D02*
G01*
X203564368Y-113549351D01*
X203279092Y-113759277D01*
X203279092Y-113456905D01*
X203564368Y-113246978D01*
X203850010Y-113246978D01*
X203850010Y-115240000D01*
X203564368Y-115240000D01*
G37*
G36*
X204769951Y-115240000D02*
G01*
X204769951Y-114943000D01*
X204199399Y-114943000D01*
X204199399Y-114677264D01*
X204612536Y-113246978D01*
X204915519Y-113246978D01*
X204486141Y-114677264D01*
X204769951Y-114677264D01*
X204769951Y-114106713D01*
X205055593Y-114106713D01*
X205055593Y-114677264D01*
X205192002Y-114677264D01*
X205192002Y-114943000D01*
X205055593Y-114943000D01*
X205055593Y-115240000D01*
X204769951Y-115240000D01*
G37*
G36*
X179770174Y-113256537D02*
G01*
X179870626Y-113283162D01*
X179953014Y-113324902D01*
X180020474Y-113381434D01*
X180073908Y-113451838D01*
X180113483Y-113536669D01*
X180138701Y-113638844D01*
X180147725Y-113762086D01*
X180147725Y-114694239D01*
X180137710Y-114835489D01*
X180110247Y-114947878D01*
X180068060Y-115036936D01*
X180012170Y-115107009D01*
X179940872Y-115162806D01*
X179854357Y-115204148D01*
X179749491Y-115230537D01*
X179622236Y-115240000D01*
X179225464Y-115240000D01*
X179225464Y-114974263D01*
X179511106Y-114974263D01*
X179642020Y-114974263D01*
X179719462Y-114966378D01*
X179774069Y-114945528D01*
X179811891Y-114913813D01*
X179837873Y-114870461D01*
X179855420Y-114809183D01*
X179862083Y-114724159D01*
X179862083Y-113760010D01*
X179848999Y-113650672D01*
X179814699Y-113577316D01*
X179778026Y-113543558D01*
X179722858Y-113521247D01*
X179642020Y-113512714D01*
X179511106Y-113512714D01*
X179511106Y-114974263D01*
X179225464Y-114974263D01*
X179225464Y-113246978D01*
X179647515Y-113246978D01*
X179770174Y-113256537D01*
G37*
G36*
X180714368Y-115240000D02*
G01*
X180714368Y-113549351D01*
X180429092Y-113759277D01*
X180429092Y-113456905D01*
X180714368Y-113246978D01*
X181000010Y-113246978D01*
X181000010Y-115240000D01*
X180714368Y-115240000D01*
G37*
G36*
X181758018Y-114083265D02*
G01*
X181874887Y-114073850D01*
X181933995Y-114052491D01*
X181958408Y-114027232D01*
X181975554Y-113982815D01*
X181982477Y-113909853D01*
X181982477Y-113652543D01*
X181972792Y-113595782D01*
X181944986Y-113551915D01*
X181902111Y-113522931D01*
X181843991Y-113512714D01*
X181777935Y-113525478D01*
X181737257Y-113560219D01*
X181712862Y-113608493D01*
X181705383Y-113652543D01*
X181705383Y-113814842D01*
X181419741Y-113814842D01*
X181419741Y-113649612D01*
X181428082Y-113564801D01*
X181452958Y-113484504D01*
X181492832Y-113411180D01*
X181544549Y-113350048D01*
X181607400Y-113299861D01*
X181680715Y-113260411D01*
X181760781Y-113235319D01*
X181847288Y-113226828D01*
X181957143Y-113239175D01*
X182040240Y-113272990D01*
X182110018Y-113321805D01*
X182155401Y-113366657D01*
X182204127Y-113433702D01*
X182238810Y-113514790D01*
X182256507Y-113618304D01*
X182263845Y-113788953D01*
X182263845Y-113956625D01*
X182259137Y-114017820D01*
X182246626Y-114062993D01*
X182222628Y-114104375D01*
X182190938Y-114138464D01*
X182092264Y-114205509D01*
X182154625Y-114248656D01*
X182194846Y-114284277D01*
X182225505Y-114323519D01*
X182246870Y-114368419D01*
X182259317Y-114421569D01*
X182263845Y-114487732D01*
X182263845Y-114663220D01*
X182263845Y-114826130D01*
X182255418Y-114932742D01*
X182232948Y-115008579D01*
X182196556Y-115073182D01*
X182136075Y-115144847D01*
X182060390Y-115203729D01*
X182002976Y-115231341D01*
X181931639Y-115249170D01*
X181843136Y-115255631D01*
X181775183Y-115250238D01*
X181700132Y-115233161D01*
X181628005Y-115203618D01*
X181562746Y-115160010D01*
X181507074Y-115102897D01*
X181460286Y-115028119D01*
X181430562Y-114940839D01*
X181419741Y-114828695D01*
X181419741Y-114665662D01*
X181705383Y-114665662D01*
X181705383Y-114814895D01*
X181715123Y-114877702D01*
X181742753Y-114926147D01*
X181786123Y-114958548D01*
X181843991Y-114969745D01*
X181901732Y-114958549D01*
X181944986Y-114926147D01*
X181972507Y-114876957D01*
X181982477Y-114809277D01*
X181982477Y-114522048D01*
X181976086Y-114444039D01*
X181960257Y-114395552D01*
X181938147Y-114367198D01*
X181909816Y-114349313D01*
X181870247Y-114338988D01*
X181758018Y-114333370D01*
X181758018Y-114083265D01*
G37*
D12*
G36*
X68161057Y-118487733D02*
G01*
X68161057Y-119631706D01*
X68154719Y-119707055D01*
X68136402Y-119773971D01*
X68106497Y-119833990D01*
X68064520Y-119888252D01*
X68011962Y-119933304D01*
X67950031Y-119968211D01*
X67880294Y-119989889D01*
X67795608Y-119997612D01*
X67728330Y-119992166D01*
X67671933Y-119976827D01*
X67624425Y-119952458D01*
X67561013Y-119905595D01*
X67516347Y-119863065D01*
X67684325Y-119728517D01*
X67737814Y-119767444D01*
X67769175Y-119779279D01*
X67801928Y-119783197D01*
X67845983Y-119775870D01*
X67870130Y-119765422D01*
X67894343Y-119747477D01*
X67914765Y-119725381D01*
X67932079Y-119693896D01*
X67942727Y-119656113D01*
X67946825Y-119602305D01*
X67946825Y-118487733D01*
X68161057Y-118487733D01*
G37*
G36*
X68329309Y-119982500D02*
G01*
X68329309Y-119780724D01*
X68713717Y-119050927D01*
X68737574Y-118997021D01*
X68747148Y-118955214D01*
X68751361Y-118853182D01*
X68751361Y-118795388D01*
X68748605Y-118766032D01*
X68740828Y-118741624D01*
X68727803Y-118720464D01*
X68709321Y-118702789D01*
X68685292Y-118691420D01*
X68648504Y-118687035D01*
X68604195Y-118694224D01*
X68571843Y-118714330D01*
X68551169Y-118746422D01*
X68543541Y-118794197D01*
X68543541Y-118916288D01*
X68329309Y-118916288D01*
X68329309Y-118798502D01*
X68335658Y-118732982D01*
X68354405Y-118672381D01*
X68384332Y-118617005D01*
X68423465Y-118569341D01*
X68469180Y-118529893D01*
X68523940Y-118498907D01*
X68584327Y-118479259D01*
X68649512Y-118472621D01*
X68729226Y-118480683D01*
X68792852Y-118503121D01*
X68847682Y-118539226D01*
X68892320Y-118586194D01*
X68924745Y-118641914D01*
X68947732Y-118706086D01*
X68961037Y-118774768D01*
X68965593Y-118849060D01*
X68965593Y-118940560D01*
X68959273Y-119010993D01*
X68938115Y-119078312D01*
X68897998Y-119160286D01*
X68581368Y-119768085D01*
X68968249Y-119768085D01*
X68968249Y-119982500D01*
X68329309Y-119982500D01*
G37*
G36*
X102291898Y-95844952D02*
G01*
X102291898Y-95937459D01*
X102285302Y-96005198D01*
X102265703Y-96068801D01*
X102234501Y-96127432D01*
X102193437Y-96179077D01*
X102143459Y-96222358D01*
X102085360Y-96255830D01*
X102021565Y-96277047D01*
X101952370Y-96284223D01*
X101891542Y-96280080D01*
X101828630Y-96267370D01*
X101768987Y-96244248D01*
X101715515Y-96208477D01*
X101670283Y-96161255D01*
X101632717Y-96100308D01*
X101609051Y-96028558D01*
X101600202Y-95931140D01*
X101600202Y-95107278D01*
X101606601Y-95035689D01*
X101625298Y-94970716D01*
X101655903Y-94911580D01*
X101696647Y-94861448D01*
X101746800Y-94820438D01*
X101806648Y-94788907D01*
X101873053Y-94769376D01*
X101948156Y-94762621D01*
X102022112Y-94769169D01*
X102086534Y-94787972D01*
X102143216Y-94818543D01*
X102193437Y-94861448D01*
X102234252Y-94913751D01*
X102265703Y-94975936D01*
X102285207Y-95044268D01*
X102291898Y-95119918D01*
X102291898Y-95203998D01*
X102077666Y-95203998D01*
X102077666Y-95132465D01*
X102068611Y-95073189D01*
X102042129Y-95023289D01*
X102015618Y-94997564D01*
X101984138Y-94982325D01*
X101946050Y-94977035D01*
X101895896Y-94983400D01*
X101862305Y-95000174D01*
X101840537Y-95026403D01*
X101821486Y-95079832D01*
X101814433Y-95151425D01*
X101814433Y-95916485D01*
X101821878Y-95977789D01*
X101842643Y-96025662D01*
X101864985Y-96049176D01*
X101897491Y-96064186D01*
X101943943Y-96069808D01*
X101988823Y-96062481D01*
X102033794Y-96038301D01*
X102050467Y-96019014D01*
X102065027Y-95992048D01*
X102074238Y-95960506D01*
X102077666Y-95918592D01*
X102077666Y-95844952D01*
X102291898Y-95844952D01*
G37*
G36*
X102436978Y-96272500D02*
G01*
X102436978Y-96070724D01*
X102821386Y-95340927D01*
X102845242Y-95287021D01*
X102854816Y-95245214D01*
X102859030Y-95143182D01*
X102859030Y-95085388D01*
X102856273Y-95056032D01*
X102848497Y-95031624D01*
X102835472Y-95010464D01*
X102816989Y-94992789D01*
X102792960Y-94981420D01*
X102756173Y-94977035D01*
X102711864Y-94984224D01*
X102679511Y-95004330D01*
X102658838Y-95036422D01*
X102651209Y-95084197D01*
X102651209Y-95206288D01*
X102436978Y-95206288D01*
X102436978Y-95088502D01*
X102443327Y-95022982D01*
X102462074Y-94962381D01*
X102492000Y-94907005D01*
X102531134Y-94859341D01*
X102576848Y-94819893D01*
X102631609Y-94788907D01*
X102691995Y-94769259D01*
X102757180Y-94762621D01*
X102836895Y-94770683D01*
X102900520Y-94793121D01*
X102955350Y-94829226D01*
X102999988Y-94876194D01*
X103032413Y-94931914D01*
X103055401Y-94996086D01*
X103068705Y-95064768D01*
X103073261Y-95139060D01*
X103073261Y-95230560D01*
X103066941Y-95300993D01*
X103045784Y-95368312D01*
X103005667Y-95450286D01*
X102689037Y-96058085D01*
X103075917Y-96058085D01*
X103075917Y-96272500D01*
X102436978Y-96272500D01*
G37*
G36*
X79441898Y-95854952D02*
G01*
X79441898Y-95947459D01*
X79435302Y-96015198D01*
X79415703Y-96078801D01*
X79384501Y-96137432D01*
X79343437Y-96189077D01*
X79293459Y-96232358D01*
X79235360Y-96265830D01*
X79171565Y-96287047D01*
X79102370Y-96294223D01*
X79041542Y-96290080D01*
X78978630Y-96277370D01*
X78918987Y-96254248D01*
X78865515Y-96218477D01*
X78820283Y-96171255D01*
X78782717Y-96110308D01*
X78759051Y-96038558D01*
X78750202Y-95941140D01*
X78750202Y-95117278D01*
X78756601Y-95045689D01*
X78775298Y-94980716D01*
X78805903Y-94921580D01*
X78846647Y-94871448D01*
X78896800Y-94830438D01*
X78956648Y-94798907D01*
X79023053Y-94779376D01*
X79098156Y-94772621D01*
X79172112Y-94779169D01*
X79236534Y-94797972D01*
X79293216Y-94828543D01*
X79343437Y-94871448D01*
X79384252Y-94923751D01*
X79415703Y-94985936D01*
X79435207Y-95054268D01*
X79441898Y-95129918D01*
X79441898Y-95213998D01*
X79227666Y-95213998D01*
X79227666Y-95142465D01*
X79218611Y-95083189D01*
X79192129Y-95033289D01*
X79165618Y-95007564D01*
X79134138Y-94992325D01*
X79096050Y-94987035D01*
X79045896Y-94993400D01*
X79012305Y-95010174D01*
X78990537Y-95036403D01*
X78971486Y-95089832D01*
X78964433Y-95161425D01*
X78964433Y-95926485D01*
X78971878Y-95987789D01*
X78992643Y-96035662D01*
X79014985Y-96059176D01*
X79047491Y-96074186D01*
X79093943Y-96079808D01*
X79138823Y-96072481D01*
X79183794Y-96048301D01*
X79200467Y-96029014D01*
X79215027Y-96002048D01*
X79224238Y-95970506D01*
X79227666Y-95928592D01*
X79227666Y-95854952D01*
X79441898Y-95854952D01*
G37*
G36*
X79839037Y-96282500D02*
G01*
X79839037Y-95014513D01*
X79625080Y-95171958D01*
X79625080Y-94945178D01*
X79839037Y-94787733D01*
X80053268Y-94787733D01*
X80053268Y-96282500D01*
X79839037Y-96282500D01*
G37*
D11*
G36*
X156920174Y-113256537D02*
G01*
X157020626Y-113283162D01*
X157103014Y-113324902D01*
X157170474Y-113381434D01*
X157223908Y-113451838D01*
X157263483Y-113536669D01*
X157288701Y-113638844D01*
X157297725Y-113762086D01*
X157297725Y-114694239D01*
X157287710Y-114835489D01*
X157260247Y-114947878D01*
X157218060Y-115036936D01*
X157162170Y-115107009D01*
X157090872Y-115162806D01*
X157004357Y-115204148D01*
X156899491Y-115230537D01*
X156772236Y-115240000D01*
X156375464Y-115240000D01*
X156375464Y-114974263D01*
X156661106Y-114974263D01*
X156792020Y-114974263D01*
X156869462Y-114966378D01*
X156924069Y-114945528D01*
X156961891Y-114913813D01*
X156987873Y-114870461D01*
X157005420Y-114809183D01*
X157012083Y-114724159D01*
X157012083Y-113760010D01*
X156998999Y-113650672D01*
X156964699Y-113577316D01*
X156928026Y-113543558D01*
X156872858Y-113521247D01*
X156792020Y-113512714D01*
X156661106Y-113512714D01*
X156661106Y-114974263D01*
X156375464Y-114974263D01*
X156375464Y-113246978D01*
X156797515Y-113246978D01*
X156920174Y-113256537D01*
G37*
G36*
X157864368Y-115240000D02*
G01*
X157864368Y-113549351D01*
X157579092Y-113759277D01*
X157579092Y-113456905D01*
X157864368Y-113246978D01*
X158150010Y-113246978D01*
X158150010Y-115240000D01*
X157864368Y-115240000D01*
G37*
G36*
X158569741Y-115240000D02*
G01*
X158569741Y-114970966D01*
X159082285Y-113997903D01*
X159114094Y-113926028D01*
X159126859Y-113870286D01*
X159132477Y-113734242D01*
X159132477Y-113657184D01*
X159128802Y-113618042D01*
X159118433Y-113585498D01*
X159101067Y-113557286D01*
X159076423Y-113533719D01*
X159044385Y-113518560D01*
X158995335Y-113512714D01*
X158936255Y-113522299D01*
X158893119Y-113549106D01*
X158865554Y-113591896D01*
X158855383Y-113655596D01*
X158855383Y-113818384D01*
X158569741Y-113818384D01*
X158569741Y-113661336D01*
X158578207Y-113573977D01*
X158603203Y-113493175D01*
X158643104Y-113419340D01*
X158695282Y-113355788D01*
X158756235Y-113303190D01*
X158829249Y-113261877D01*
X158909764Y-113235678D01*
X158996678Y-113226828D01*
X159102964Y-113237578D01*
X159187798Y-113267494D01*
X159260905Y-113315635D01*
X159320422Y-113378258D01*
X159363655Y-113452552D01*
X159394305Y-113538115D01*
X159412045Y-113629691D01*
X159418119Y-113728747D01*
X159418119Y-113850746D01*
X159409692Y-113944658D01*
X159381482Y-114034417D01*
X159327993Y-114143715D01*
X158905820Y-114954113D01*
X159421660Y-114954113D01*
X159421660Y-115240000D01*
X158569741Y-115240000D01*
G37*
D12*
G36*
X216541898Y-95852452D02*
G01*
X216541898Y-95944959D01*
X216535302Y-96012698D01*
X216515703Y-96076301D01*
X216484501Y-96134932D01*
X216443437Y-96186577D01*
X216393459Y-96229858D01*
X216335360Y-96263330D01*
X216271565Y-96284547D01*
X216202370Y-96291723D01*
X216141542Y-96287580D01*
X216078630Y-96274870D01*
X216018987Y-96251748D01*
X215965515Y-96215977D01*
X215920283Y-96168755D01*
X215882717Y-96107808D01*
X215859051Y-96036058D01*
X215850202Y-95938640D01*
X215850202Y-95114778D01*
X215856601Y-95043189D01*
X215875298Y-94978216D01*
X215905903Y-94919080D01*
X215946647Y-94868948D01*
X215996800Y-94827938D01*
X216056648Y-94796407D01*
X216123053Y-94776876D01*
X216198156Y-94770121D01*
X216272112Y-94776669D01*
X216336534Y-94795472D01*
X216393216Y-94826043D01*
X216443437Y-94868948D01*
X216484252Y-94921251D01*
X216515703Y-94983436D01*
X216535207Y-95051768D01*
X216541898Y-95127418D01*
X216541898Y-95211498D01*
X216327666Y-95211498D01*
X216327666Y-95139965D01*
X216318611Y-95080689D01*
X216292129Y-95030789D01*
X216265618Y-95005064D01*
X216234138Y-94989825D01*
X216196050Y-94984535D01*
X216145896Y-94990900D01*
X216112305Y-95007674D01*
X216090537Y-95033903D01*
X216071486Y-95087332D01*
X216064433Y-95158925D01*
X216064433Y-95923985D01*
X216071878Y-95985289D01*
X216092643Y-96033162D01*
X216114985Y-96056676D01*
X216147491Y-96071686D01*
X216193943Y-96077308D01*
X216238823Y-96069981D01*
X216283794Y-96045801D01*
X216300467Y-96026514D01*
X216315027Y-95999548D01*
X216324238Y-95968006D01*
X216327666Y-95926092D01*
X216327666Y-95852452D01*
X216541898Y-95852452D01*
G37*
G36*
X216734880Y-96280000D02*
G01*
X217110770Y-94984535D01*
X216874556Y-94984535D01*
X216874556Y-95157001D01*
X216686978Y-95157001D01*
X216686978Y-94785233D01*
X217325917Y-94785233D01*
X217325917Y-94997175D01*
X216961018Y-96280000D01*
X216734880Y-96280000D01*
G37*
D13*
G36*
X103730087Y-113833267D02*
G01*
X103780313Y-113846580D01*
X103821507Y-113867450D01*
X103855237Y-113895716D01*
X103881954Y-113930918D01*
X103901741Y-113973333D01*
X103914350Y-114024421D01*
X103918862Y-114086042D01*
X103918862Y-114552118D01*
X103913855Y-114622743D01*
X103900123Y-114678938D01*
X103879030Y-114723467D01*
X103851085Y-114758503D01*
X103815436Y-114786402D01*
X103772178Y-114807073D01*
X103719745Y-114820267D01*
X103656118Y-114824999D01*
X103457732Y-114824999D01*
X103457732Y-114692130D01*
X103600553Y-114692130D01*
X103666010Y-114692130D01*
X103704731Y-114688188D01*
X103732034Y-114677763D01*
X103750945Y-114661905D01*
X103763936Y-114640229D01*
X103772710Y-114609590D01*
X103776041Y-114567078D01*
X103776041Y-114085004D01*
X103769499Y-114030335D01*
X103752349Y-113993657D01*
X103734013Y-113976778D01*
X103706429Y-113965622D01*
X103666010Y-113961356D01*
X103600553Y-113961356D01*
X103600553Y-114692130D01*
X103457732Y-114692130D01*
X103457732Y-113828488D01*
X103668757Y-113828488D01*
X103730087Y-113833267D01*
G37*
G36*
X104034145Y-114824999D02*
G01*
X104034145Y-114690482D01*
X104290416Y-114203950D01*
X104306321Y-114168013D01*
X104312704Y-114140142D01*
X104315512Y-114072120D01*
X104315512Y-114033591D01*
X104313675Y-114014020D01*
X104308490Y-113997748D01*
X104299807Y-113983642D01*
X104287486Y-113971858D01*
X104271466Y-113964279D01*
X104246941Y-113961356D01*
X104217402Y-113966148D01*
X104195833Y-113979552D01*
X104182051Y-114000947D01*
X104176966Y-114032797D01*
X104176966Y-114114191D01*
X104034145Y-114114191D01*
X104034145Y-114035667D01*
X104038377Y-113991987D01*
X104050875Y-113951586D01*
X104070826Y-113914669D01*
X104096915Y-113882893D01*
X104127392Y-113856594D01*
X104163899Y-113835937D01*
X104204156Y-113822838D01*
X104247613Y-113818413D01*
X104300756Y-113823788D01*
X104343173Y-113838746D01*
X104379726Y-113862816D01*
X104409485Y-113894128D01*
X104431102Y-113931275D01*
X104446427Y-113974056D01*
X104455296Y-114019844D01*
X104458333Y-114069372D01*
X104458333Y-114130372D01*
X104454120Y-114177328D01*
X104440015Y-114222207D01*
X104413271Y-114276856D01*
X104202184Y-114682055D01*
X104460104Y-114682055D01*
X104460104Y-114824999D01*
X104034145Y-114824999D01*
G37*
G36*
X104769499Y-114247547D02*
G01*
X104772308Y-114250356D01*
X104794228Y-114241258D01*
X104833063Y-114237717D01*
X104869919Y-114242306D01*
X104903771Y-114255974D01*
X104933110Y-114276932D01*
X104954696Y-114302197D01*
X104970205Y-114333093D01*
X104980158Y-114373699D01*
X104982967Y-114437568D01*
X104982967Y-114534960D01*
X104982967Y-114615621D01*
X104980158Y-114668195D01*
X104969534Y-114706052D01*
X104953231Y-114738292D01*
X104920184Y-114779366D01*
X104877637Y-114809855D01*
X104827969Y-114828608D01*
X104770903Y-114835074D01*
X104713979Y-114828413D01*
X104664841Y-114809123D01*
X104622751Y-114778423D01*
X104589919Y-114738353D01*
X104572212Y-114706113D01*
X104563053Y-114668195D01*
X104558778Y-114615682D01*
X104558778Y-114535021D01*
X104558778Y-114458695D01*
X104560023Y-114435370D01*
X104701599Y-114435370D01*
X104701599Y-114620628D01*
X104706953Y-114650129D01*
X104722360Y-114672530D01*
X104745003Y-114687269D01*
X104770903Y-114692130D01*
X104796740Y-114687270D01*
X104819324Y-114672530D01*
X104834779Y-114650123D01*
X104840146Y-114620628D01*
X104840146Y-114435370D01*
X104834781Y-114405928D01*
X104819324Y-114383530D01*
X104796736Y-114368742D01*
X104770903Y-114363868D01*
X104745008Y-114368742D01*
X104722360Y-114383530D01*
X104706950Y-114405923D01*
X104701599Y-114435370D01*
X104560023Y-114435370D01*
X104561587Y-114406061D01*
X104570136Y-114367532D01*
X104582836Y-114330346D01*
X104772247Y-113828488D01*
X104932042Y-113828488D01*
X104769499Y-114247547D01*
G37*
G36*
X221570087Y-99903267D02*
G01*
X221620313Y-99916580D01*
X221661507Y-99937450D01*
X221695237Y-99965716D01*
X221721954Y-100000918D01*
X221741741Y-100043333D01*
X221754350Y-100094421D01*
X221758862Y-100156042D01*
X221758862Y-100622118D01*
X221753855Y-100692743D01*
X221740123Y-100748938D01*
X221719030Y-100793467D01*
X221691085Y-100828503D01*
X221655436Y-100856402D01*
X221612178Y-100877073D01*
X221559745Y-100890267D01*
X221496118Y-100894999D01*
X221297732Y-100894999D01*
X221297732Y-100762130D01*
X221440553Y-100762130D01*
X221506010Y-100762130D01*
X221544731Y-100758188D01*
X221572034Y-100747763D01*
X221590945Y-100731905D01*
X221603936Y-100710229D01*
X221612710Y-100679590D01*
X221616041Y-100637078D01*
X221616041Y-100155004D01*
X221609499Y-100100335D01*
X221592349Y-100063657D01*
X221574013Y-100046778D01*
X221546429Y-100035622D01*
X221506010Y-100031356D01*
X221440553Y-100031356D01*
X221440553Y-100762130D01*
X221297732Y-100762130D01*
X221297732Y-99898488D01*
X221508757Y-99898488D01*
X221570087Y-99903267D01*
G37*
G36*
X221874145Y-100894999D02*
G01*
X221874145Y-100760482D01*
X222130416Y-100273950D01*
X222146321Y-100238013D01*
X222152704Y-100210142D01*
X222155512Y-100142120D01*
X222155512Y-100103591D01*
X222153675Y-100084020D01*
X222148490Y-100067748D01*
X222139807Y-100053642D01*
X222127486Y-100041858D01*
X222111466Y-100034279D01*
X222086941Y-100031356D01*
X222057402Y-100036148D01*
X222035833Y-100049552D01*
X222022051Y-100070947D01*
X222016966Y-100102797D01*
X222016966Y-100184191D01*
X221874145Y-100184191D01*
X221874145Y-100105667D01*
X221878377Y-100061987D01*
X221890875Y-100021586D01*
X221910826Y-99984669D01*
X221936915Y-99952893D01*
X221967392Y-99926594D01*
X222003899Y-99905937D01*
X222044156Y-99892838D01*
X222087613Y-99888413D01*
X222140756Y-99893788D01*
X222183173Y-99908746D01*
X222219726Y-99932816D01*
X222249485Y-99964128D01*
X222271102Y-100001275D01*
X222286427Y-100044056D01*
X222295296Y-100089844D01*
X222298333Y-100139372D01*
X222298333Y-100200372D01*
X222294120Y-100247328D01*
X222280015Y-100292207D01*
X222253271Y-100346856D01*
X222042184Y-100752055D01*
X222300104Y-100752055D01*
X222300104Y-100894999D01*
X221874145Y-100894999D01*
G37*
G36*
X222564009Y-100316631D02*
G01*
X222622443Y-100311924D01*
X222651997Y-100301244D01*
X222664204Y-100288615D01*
X222672777Y-100266406D01*
X222676238Y-100229925D01*
X222676238Y-100101270D01*
X222671396Y-100072890D01*
X222657493Y-100050956D01*
X222636055Y-100036464D01*
X222606995Y-100031356D01*
X222573967Y-100037738D01*
X222553628Y-100055108D01*
X222541431Y-100079245D01*
X222537691Y-100101270D01*
X222537691Y-100182420D01*
X222394870Y-100182420D01*
X222394870Y-100099805D01*
X222399041Y-100057399D01*
X222411479Y-100017251D01*
X222431416Y-99980589D01*
X222457274Y-99950023D01*
X222488700Y-99924929D01*
X222525357Y-99905204D01*
X222565390Y-99892658D01*
X222608644Y-99888413D01*
X222663571Y-99894586D01*
X222705120Y-99911494D01*
X222740009Y-99935901D01*
X222762700Y-99958327D01*
X222787063Y-99991850D01*
X222804405Y-100032394D01*
X222813253Y-100084151D01*
X222816922Y-100169475D01*
X222816922Y-100253311D01*
X222814568Y-100283909D01*
X222808313Y-100306495D01*
X222796314Y-100327186D01*
X222780469Y-100344231D01*
X222731132Y-100377753D01*
X222762312Y-100399327D01*
X222782423Y-100417137D01*
X222797752Y-100436758D01*
X222808435Y-100459208D01*
X222814658Y-100485783D01*
X222816922Y-100518865D01*
X222816922Y-100606609D01*
X222816922Y-100688064D01*
X222812709Y-100741370D01*
X222801474Y-100779288D01*
X222783278Y-100811590D01*
X222753037Y-100847422D01*
X222715195Y-100876863D01*
X222686488Y-100890669D01*
X222650819Y-100899584D01*
X222606568Y-100902814D01*
X222572591Y-100900118D01*
X222535066Y-100891579D01*
X222499002Y-100876808D01*
X222466373Y-100855004D01*
X222438537Y-100826447D01*
X222415143Y-100789058D01*
X222400281Y-100745418D01*
X222394870Y-100689346D01*
X222394870Y-100607830D01*
X222537691Y-100607830D01*
X222537691Y-100682446D01*
X222542561Y-100713850D01*
X222556376Y-100738072D01*
X222578061Y-100754273D01*
X222606995Y-100759871D01*
X222635866Y-100754273D01*
X222657493Y-100738072D01*
X222671253Y-100713477D01*
X222676238Y-100679637D01*
X222676238Y-100536023D01*
X222673043Y-100497018D01*
X222665128Y-100472775D01*
X222654073Y-100458598D01*
X222639908Y-100449655D01*
X222620123Y-100444493D01*
X222564009Y-100441684D01*
X222564009Y-100316631D01*
G37*
D12*
G36*
X129371354Y-119774952D02*
G01*
X129371354Y-119867459D01*
X129364758Y-119935198D01*
X129345159Y-119998801D01*
X129313957Y-120057432D01*
X129272893Y-120109077D01*
X129222915Y-120152358D01*
X129164816Y-120185830D01*
X129101021Y-120207047D01*
X129031826Y-120214223D01*
X128970998Y-120210080D01*
X128908086Y-120197370D01*
X128848443Y-120174248D01*
X128794971Y-120138477D01*
X128749739Y-120091255D01*
X128712173Y-120030308D01*
X128688507Y-119958558D01*
X128679658Y-119861140D01*
X128679658Y-119037278D01*
X128686057Y-118965689D01*
X128704754Y-118900716D01*
X128735359Y-118841580D01*
X128776103Y-118791448D01*
X128826256Y-118750438D01*
X128886104Y-118718907D01*
X128952509Y-118699376D01*
X129027612Y-118692621D01*
X129101568Y-118699169D01*
X129165990Y-118717972D01*
X129222672Y-118748543D01*
X129272893Y-118791448D01*
X129313708Y-118843751D01*
X129345159Y-118905936D01*
X129364663Y-118974268D01*
X129371354Y-119049918D01*
X129371354Y-119133998D01*
X129157122Y-119133998D01*
X129157122Y-119062465D01*
X129148067Y-119003189D01*
X129121585Y-118953289D01*
X129095074Y-118927564D01*
X129063594Y-118912325D01*
X129025506Y-118907035D01*
X128975352Y-118913400D01*
X128941761Y-118930174D01*
X128919993Y-118956403D01*
X128900942Y-119009832D01*
X128893889Y-119081425D01*
X128893889Y-119846485D01*
X128901334Y-119907789D01*
X128922099Y-119955662D01*
X128944441Y-119979176D01*
X128976947Y-119994186D01*
X129023399Y-119999808D01*
X129068279Y-119992481D01*
X129113250Y-119968301D01*
X129129923Y-119949014D01*
X129144483Y-119922048D01*
X129153694Y-119890506D01*
X129157122Y-119848592D01*
X129157122Y-119774952D01*
X129371354Y-119774952D01*
G37*
G36*
X129768493Y-120202500D02*
G01*
X129768493Y-118934513D01*
X129554536Y-119091958D01*
X129554536Y-118865178D01*
X129768493Y-118707733D01*
X129982724Y-118707733D01*
X129982724Y-120202500D01*
X129768493Y-120202500D01*
G37*
G36*
X130549581Y-120202500D02*
G01*
X130549581Y-118934513D01*
X130335624Y-119091958D01*
X130335624Y-118865178D01*
X130549581Y-118707733D01*
X130763813Y-118707733D01*
X130763813Y-120202500D01*
X130549581Y-120202500D01*
G37*
D11*
G36*
X153060900Y-92456537D02*
G01*
X153161352Y-92483162D01*
X153243740Y-92524902D01*
X153311200Y-92581434D01*
X153364634Y-92651838D01*
X153404209Y-92736669D01*
X153429427Y-92838844D01*
X153438451Y-92962086D01*
X153438451Y-93894239D01*
X153428436Y-94035489D01*
X153400973Y-94147878D01*
X153358786Y-94236936D01*
X153302896Y-94307009D01*
X153231598Y-94362806D01*
X153145083Y-94404148D01*
X153040217Y-94430537D01*
X152912962Y-94440000D01*
X152516190Y-94440000D01*
X152516190Y-94174263D01*
X152801832Y-94174263D01*
X152932746Y-94174263D01*
X153010188Y-94166378D01*
X153064795Y-94145528D01*
X153102617Y-94113813D01*
X153128599Y-94070461D01*
X153146146Y-94009183D01*
X153152809Y-93924159D01*
X153152809Y-92960010D01*
X153139725Y-92850672D01*
X153105425Y-92777316D01*
X153068752Y-92743558D01*
X153013584Y-92721247D01*
X152932746Y-92712714D01*
X152801832Y-92712714D01*
X152801832Y-94174263D01*
X152516190Y-94174263D01*
X152516190Y-92446978D01*
X152938241Y-92446978D01*
X153060900Y-92456537D01*
G37*
G36*
X154169225Y-94440000D02*
G01*
X154169225Y-94143000D01*
X153598674Y-94143000D01*
X153598674Y-93877264D01*
X154011811Y-92446978D01*
X154314794Y-92446978D01*
X153885415Y-93877264D01*
X154169225Y-93877264D01*
X154169225Y-93306713D01*
X154454867Y-93306713D01*
X154454867Y-93877264D01*
X154591277Y-93877264D01*
X154591277Y-94143000D01*
X154454867Y-94143000D01*
X154454867Y-94440000D01*
X154169225Y-94440000D01*
G37*
G36*
X221610900Y-92456537D02*
G01*
X221711352Y-92483162D01*
X221793740Y-92524902D01*
X221861200Y-92581434D01*
X221914634Y-92651838D01*
X221954209Y-92736669D01*
X221979427Y-92838844D01*
X221988451Y-92962086D01*
X221988451Y-93894239D01*
X221978436Y-94035489D01*
X221950973Y-94147878D01*
X221908786Y-94236936D01*
X221852896Y-94307009D01*
X221781598Y-94362806D01*
X221695083Y-94404148D01*
X221590217Y-94430537D01*
X221462962Y-94440000D01*
X221066190Y-94440000D01*
X221066190Y-94174263D01*
X221351832Y-94174263D01*
X221482746Y-94174263D01*
X221560188Y-94166378D01*
X221614795Y-94145528D01*
X221652617Y-94113813D01*
X221678599Y-94070461D01*
X221696146Y-94009183D01*
X221702809Y-93924159D01*
X221702809Y-92960010D01*
X221689725Y-92850672D01*
X221655425Y-92777316D01*
X221618752Y-92743558D01*
X221563584Y-92721247D01*
X221482746Y-92712714D01*
X221351832Y-92712714D01*
X221351832Y-94174263D01*
X221066190Y-94174263D01*
X221066190Y-92446978D01*
X221488241Y-92446978D01*
X221610900Y-92456537D01*
G37*
G36*
X222282885Y-94440000D02*
G01*
X222784072Y-92712714D01*
X222469121Y-92712714D01*
X222469121Y-92942669D01*
X222219016Y-92942669D01*
X222219016Y-92446978D01*
X223070935Y-92446978D01*
X223070935Y-92729567D01*
X222584403Y-94440000D01*
X222282885Y-94440000D01*
G37*
D12*
G36*
X152221354Y-119774952D02*
G01*
X152221354Y-119867459D01*
X152214758Y-119935198D01*
X152195159Y-119998801D01*
X152163957Y-120057432D01*
X152122893Y-120109077D01*
X152072915Y-120152358D01*
X152014816Y-120185830D01*
X151951021Y-120207047D01*
X151881826Y-120214223D01*
X151820998Y-120210080D01*
X151758086Y-120197370D01*
X151698443Y-120174248D01*
X151644971Y-120138477D01*
X151599739Y-120091255D01*
X151562173Y-120030308D01*
X151538507Y-119958558D01*
X151529658Y-119861140D01*
X151529658Y-119037278D01*
X151536057Y-118965689D01*
X151554754Y-118900716D01*
X151585359Y-118841580D01*
X151626103Y-118791448D01*
X151676256Y-118750438D01*
X151736104Y-118718907D01*
X151802509Y-118699376D01*
X151877612Y-118692621D01*
X151951568Y-118699169D01*
X152015990Y-118717972D01*
X152072672Y-118748543D01*
X152122893Y-118791448D01*
X152163708Y-118843751D01*
X152195159Y-118905936D01*
X152214663Y-118974268D01*
X152221354Y-119049918D01*
X152221354Y-119133998D01*
X152007122Y-119133998D01*
X152007122Y-119062465D01*
X151998067Y-119003189D01*
X151971585Y-118953289D01*
X151945074Y-118927564D01*
X151913594Y-118912325D01*
X151875506Y-118907035D01*
X151825352Y-118913400D01*
X151791761Y-118930174D01*
X151769993Y-118956403D01*
X151750942Y-119009832D01*
X151743889Y-119081425D01*
X151743889Y-119846485D01*
X151751334Y-119907789D01*
X151772099Y-119955662D01*
X151794441Y-119979176D01*
X151826947Y-119994186D01*
X151873399Y-119999808D01*
X151918279Y-119992481D01*
X151963250Y-119968301D01*
X151979923Y-119949014D01*
X151994483Y-119922048D01*
X152003694Y-119890506D01*
X152007122Y-119848592D01*
X152007122Y-119774952D01*
X152221354Y-119774952D01*
G37*
G36*
X152618493Y-120202500D02*
G01*
X152618493Y-118934513D01*
X152404536Y-119091958D01*
X152404536Y-118865178D01*
X152618493Y-118707733D01*
X152832724Y-118707733D01*
X152832724Y-120202500D01*
X152618493Y-120202500D01*
G37*
G36*
X153147523Y-120202500D02*
G01*
X153147523Y-120000724D01*
X153531930Y-119270927D01*
X153555787Y-119217021D01*
X153565361Y-119175214D01*
X153569574Y-119073182D01*
X153569574Y-119015388D01*
X153566818Y-118986032D01*
X153559041Y-118961624D01*
X153546017Y-118940464D01*
X153527534Y-118922789D01*
X153503505Y-118911420D01*
X153466717Y-118907035D01*
X153422408Y-118914224D01*
X153390056Y-118934330D01*
X153369382Y-118966422D01*
X153361754Y-119014197D01*
X153361754Y-119136288D01*
X153147523Y-119136288D01*
X153147523Y-119018502D01*
X153153871Y-118952982D01*
X153172618Y-118892381D01*
X153202545Y-118837005D01*
X153241678Y-118789341D01*
X153287393Y-118749893D01*
X153342154Y-118718907D01*
X153402540Y-118699259D01*
X153467725Y-118692621D01*
X153547440Y-118700683D01*
X153611065Y-118723121D01*
X153665895Y-118759226D01*
X153710533Y-118806194D01*
X153742958Y-118861914D01*
X153765945Y-118926086D01*
X153779250Y-118994768D01*
X153783806Y-119069060D01*
X153783806Y-119160560D01*
X153777486Y-119230993D01*
X153756328Y-119298312D01*
X153716211Y-119380286D01*
X153399581Y-119988085D01*
X153786462Y-119988085D01*
X153786462Y-120202500D01*
X153147523Y-120202500D01*
G37*
D11*
G36*
X130210900Y-92466537D02*
G01*
X130311352Y-92493162D01*
X130393740Y-92534902D01*
X130461200Y-92591434D01*
X130514634Y-92661838D01*
X130554209Y-92746669D01*
X130579427Y-92848844D01*
X130588451Y-92972086D01*
X130588451Y-93904239D01*
X130578436Y-94045489D01*
X130550973Y-94157878D01*
X130508786Y-94246936D01*
X130452896Y-94317009D01*
X130381598Y-94372806D01*
X130295083Y-94414148D01*
X130190217Y-94440537D01*
X130062962Y-94450000D01*
X129666190Y-94450000D01*
X129666190Y-94184263D01*
X129951832Y-94184263D01*
X130082746Y-94184263D01*
X130160188Y-94176378D01*
X130214795Y-94155528D01*
X130252617Y-94123813D01*
X130278599Y-94080461D01*
X130296146Y-94019183D01*
X130302809Y-93934159D01*
X130302809Y-92970010D01*
X130289725Y-92860672D01*
X130255425Y-92787316D01*
X130218752Y-92753558D01*
X130163584Y-92731247D01*
X130082746Y-92722714D01*
X129951832Y-92722714D01*
X129951832Y-94184263D01*
X129666190Y-94184263D01*
X129666190Y-92456978D01*
X130088241Y-92456978D01*
X130210900Y-92466537D01*
G37*
G36*
X131157292Y-93293265D02*
G01*
X131274161Y-93283850D01*
X131333269Y-93262491D01*
X131357683Y-93237232D01*
X131374829Y-93192815D01*
X131381751Y-93119853D01*
X131381751Y-92862543D01*
X131372066Y-92805782D01*
X131344260Y-92761915D01*
X131301386Y-92732931D01*
X131243266Y-92722714D01*
X131177209Y-92735478D01*
X131136532Y-92770219D01*
X131112137Y-92818493D01*
X131104658Y-92862543D01*
X131104658Y-93024842D01*
X130819016Y-93024842D01*
X130819016Y-92859612D01*
X130827357Y-92774801D01*
X130852233Y-92694504D01*
X130892106Y-92621180D01*
X130943824Y-92560048D01*
X131006674Y-92509861D01*
X131079989Y-92470411D01*
X131160055Y-92445319D01*
X131246563Y-92436828D01*
X131356418Y-92449175D01*
X131439515Y-92482990D01*
X131509293Y-92531805D01*
X131554675Y-92576657D01*
X131603402Y-92643702D01*
X131638084Y-92724790D01*
X131655782Y-92828304D01*
X131663119Y-92998953D01*
X131663119Y-93166625D01*
X131658411Y-93227820D01*
X131645900Y-93272993D01*
X131621903Y-93314375D01*
X131590213Y-93348464D01*
X131491539Y-93415509D01*
X131553900Y-93458656D01*
X131594121Y-93494277D01*
X131624779Y-93533519D01*
X131646144Y-93578419D01*
X131658592Y-93631569D01*
X131663119Y-93697732D01*
X131663119Y-93873220D01*
X131663119Y-94036130D01*
X131654693Y-94142742D01*
X131632222Y-94218579D01*
X131595830Y-94283182D01*
X131535349Y-94354847D01*
X131459665Y-94413729D01*
X131402251Y-94441341D01*
X131330914Y-94459170D01*
X131242411Y-94465631D01*
X131174457Y-94460238D01*
X131099407Y-94443161D01*
X131027279Y-94413618D01*
X130962020Y-94370010D01*
X130906349Y-94312897D01*
X130859560Y-94238119D01*
X130829837Y-94150839D01*
X130819016Y-94038695D01*
X130819016Y-93875662D01*
X131104658Y-93875662D01*
X131104658Y-94024895D01*
X131114397Y-94087702D01*
X131142027Y-94136147D01*
X131185397Y-94168548D01*
X131243266Y-94179745D01*
X131301007Y-94168549D01*
X131344260Y-94136147D01*
X131371781Y-94086957D01*
X131381751Y-94019277D01*
X131381751Y-93732048D01*
X131375361Y-93654039D01*
X131359532Y-93605552D01*
X131337421Y-93577198D01*
X131309091Y-93559313D01*
X131269522Y-93548988D01*
X131157292Y-93543370D01*
X131157292Y-93293265D01*
G37*
D13*
G36*
X149430087Y-113833267D02*
G01*
X149480313Y-113846580D01*
X149521507Y-113867450D01*
X149555237Y-113895716D01*
X149581954Y-113930918D01*
X149601741Y-113973333D01*
X149614350Y-114024421D01*
X149618862Y-114086042D01*
X149618862Y-114552118D01*
X149613855Y-114622743D01*
X149600123Y-114678938D01*
X149579030Y-114723467D01*
X149551085Y-114758503D01*
X149515436Y-114786402D01*
X149472178Y-114807073D01*
X149419745Y-114820267D01*
X149356118Y-114824999D01*
X149157732Y-114824999D01*
X149157732Y-114692130D01*
X149300553Y-114692130D01*
X149366010Y-114692130D01*
X149404731Y-114688188D01*
X149432034Y-114677763D01*
X149450945Y-114661905D01*
X149463936Y-114640229D01*
X149472710Y-114609590D01*
X149476041Y-114567078D01*
X149476041Y-114085004D01*
X149469499Y-114030335D01*
X149452349Y-113993657D01*
X149434013Y-113976778D01*
X149406429Y-113965622D01*
X149366010Y-113961356D01*
X149300553Y-113961356D01*
X149300553Y-114692130D01*
X149157732Y-114692130D01*
X149157732Y-113828488D01*
X149368757Y-113828488D01*
X149430087Y-113833267D01*
G37*
G36*
X149734145Y-114824999D02*
G01*
X149734145Y-114690482D01*
X149990416Y-114203950D01*
X150006321Y-114168013D01*
X150012704Y-114140142D01*
X150015512Y-114072120D01*
X150015512Y-114033591D01*
X150013675Y-114014020D01*
X150008490Y-113997748D01*
X149999807Y-113983642D01*
X149987486Y-113971858D01*
X149971466Y-113964279D01*
X149946941Y-113961356D01*
X149917402Y-113966148D01*
X149895833Y-113979552D01*
X149882051Y-114000947D01*
X149876966Y-114032797D01*
X149876966Y-114114191D01*
X149734145Y-114114191D01*
X149734145Y-114035667D01*
X149738377Y-113991987D01*
X149750875Y-113951586D01*
X149770826Y-113914669D01*
X149796915Y-113882893D01*
X149827392Y-113856594D01*
X149863899Y-113835937D01*
X149904156Y-113822838D01*
X149947613Y-113818413D01*
X150000756Y-113823788D01*
X150043173Y-113838746D01*
X150079726Y-113862816D01*
X150109485Y-113894128D01*
X150131102Y-113931275D01*
X150146427Y-113974056D01*
X150155296Y-114019844D01*
X150158333Y-114069372D01*
X150158333Y-114130372D01*
X150154120Y-114177328D01*
X150140015Y-114222207D01*
X150113271Y-114276856D01*
X149902184Y-114682055D01*
X150160104Y-114682055D01*
X150160104Y-114824999D01*
X149734145Y-114824999D01*
G37*
G36*
X150518219Y-113823541D02*
G01*
X150561517Y-113838685D01*
X150599972Y-113863038D01*
X150631310Y-113895349D01*
X150655062Y-113930276D01*
X150671793Y-113968011D01*
X150680830Y-114017715D01*
X150682967Y-114086897D01*
X150682967Y-114162368D01*
X150681050Y-114192082D01*
X150675701Y-114216834D01*
X150666447Y-114239475D01*
X150653231Y-114259515D01*
X150611892Y-114299388D01*
X150635284Y-114319684D01*
X150652009Y-114338650D01*
X150664679Y-114359741D01*
X150673747Y-114384995D01*
X150678898Y-114413220D01*
X150680830Y-114450330D01*
X150680830Y-114545035D01*
X150680830Y-114621544D01*
X150676556Y-114674179D01*
X150664527Y-114712097D01*
X150645415Y-114744398D01*
X150617043Y-114777630D01*
X150577393Y-114806863D01*
X150530065Y-114825957D01*
X150469865Y-114832814D01*
X150409550Y-114825956D01*
X150362154Y-114806863D01*
X150322568Y-114777631D01*
X150294255Y-114744398D01*
X150275082Y-114712097D01*
X150263053Y-114674179D01*
X150258778Y-114621544D01*
X150258778Y-114545035D01*
X150258778Y-114450330D01*
X150260249Y-114422547D01*
X150401599Y-114422547D01*
X150401599Y-114619529D01*
X150406810Y-114646842D01*
X150422360Y-114669477D01*
X150445063Y-114684838D01*
X150470903Y-114689871D01*
X150496680Y-114684839D01*
X150519324Y-114669477D01*
X150534922Y-114646838D01*
X150540146Y-114619529D01*
X150540146Y-114422547D01*
X150534922Y-114395239D01*
X150519324Y-114372600D01*
X150496676Y-114357190D01*
X150470903Y-114352144D01*
X150445068Y-114357190D01*
X150422360Y-114372600D01*
X150406810Y-114395234D01*
X150401599Y-114422547D01*
X150260249Y-114422547D01*
X150260743Y-114413226D01*
X150265983Y-114384995D01*
X150275368Y-114359759D01*
X150288393Y-114338650D01*
X150305512Y-114319701D01*
X150329487Y-114299388D01*
X150288393Y-114259515D01*
X150275258Y-114239485D01*
X150265983Y-114216834D01*
X150260680Y-114192085D01*
X150258778Y-114162368D01*
X150258778Y-114086897D01*
X150260988Y-114031270D01*
X150401599Y-114031270D01*
X150401599Y-114176717D01*
X150406806Y-114203851D01*
X150422360Y-114226359D01*
X150445054Y-114241625D01*
X150470903Y-114246631D01*
X150496690Y-114241626D01*
X150519324Y-114226359D01*
X150534926Y-114203847D01*
X150540146Y-114176717D01*
X150540146Y-114031270D01*
X150534926Y-114004141D01*
X150519324Y-113981628D01*
X150496690Y-113966362D01*
X150470903Y-113961356D01*
X150445054Y-113966362D01*
X150422360Y-113981628D01*
X150406806Y-114004136D01*
X150401599Y-114031270D01*
X150260988Y-114031270D01*
X150261526Y-114017715D01*
X150271296Y-113968011D01*
X150287355Y-113930276D01*
X150310375Y-113895349D01*
X150341703Y-113863034D01*
X150380106Y-113838685D01*
X150423473Y-113823543D01*
X150470903Y-113818413D01*
X150518219Y-113823541D01*
G37*
G36*
X126580087Y-113833267D02*
G01*
X126630313Y-113846580D01*
X126671507Y-113867450D01*
X126705237Y-113895716D01*
X126731954Y-113930918D01*
X126751741Y-113973333D01*
X126764350Y-114024421D01*
X126768862Y-114086042D01*
X126768862Y-114552118D01*
X126763855Y-114622743D01*
X126750123Y-114678938D01*
X126729030Y-114723467D01*
X126701085Y-114758503D01*
X126665436Y-114786402D01*
X126622178Y-114807073D01*
X126569745Y-114820267D01*
X126506118Y-114824999D01*
X126307732Y-114824999D01*
X126307732Y-114692130D01*
X126450553Y-114692130D01*
X126516010Y-114692130D01*
X126554731Y-114688188D01*
X126582034Y-114677763D01*
X126600945Y-114661905D01*
X126613936Y-114640229D01*
X126622710Y-114609590D01*
X126626041Y-114567078D01*
X126626041Y-114085004D01*
X126619499Y-114030335D01*
X126602349Y-113993657D01*
X126584013Y-113976778D01*
X126556429Y-113965622D01*
X126516010Y-113961356D01*
X126450553Y-113961356D01*
X126450553Y-114692130D01*
X126307732Y-114692130D01*
X126307732Y-113828488D01*
X126518757Y-113828488D01*
X126580087Y-113833267D01*
G37*
G36*
X126884145Y-114824999D02*
G01*
X126884145Y-114690482D01*
X127140416Y-114203950D01*
X127156321Y-114168013D01*
X127162704Y-114140142D01*
X127165512Y-114072120D01*
X127165512Y-114033591D01*
X127163675Y-114014020D01*
X127158490Y-113997748D01*
X127149807Y-113983642D01*
X127137486Y-113971858D01*
X127121466Y-113964279D01*
X127096941Y-113961356D01*
X127067402Y-113966148D01*
X127045833Y-113979552D01*
X127032051Y-114000947D01*
X127026966Y-114032797D01*
X127026966Y-114114191D01*
X126884145Y-114114191D01*
X126884145Y-114035667D01*
X126888377Y-113991987D01*
X126900875Y-113951586D01*
X126920826Y-113914669D01*
X126946915Y-113882893D01*
X126977392Y-113856594D01*
X127013899Y-113835937D01*
X127054156Y-113822838D01*
X127097613Y-113818413D01*
X127150756Y-113823788D01*
X127193173Y-113838746D01*
X127229726Y-113862816D01*
X127259485Y-113894128D01*
X127281102Y-113931275D01*
X127296427Y-113974056D01*
X127305296Y-114019844D01*
X127308333Y-114069372D01*
X127308333Y-114130372D01*
X127304120Y-114177328D01*
X127290015Y-114222207D01*
X127263271Y-114276856D01*
X127052184Y-114682055D01*
X127310104Y-114682055D01*
X127310104Y-114824999D01*
X126884145Y-114824999D01*
G37*
G36*
X127436805Y-114824999D02*
G01*
X127687398Y-113961356D01*
X127529923Y-113961356D01*
X127529923Y-114076333D01*
X127404870Y-114076333D01*
X127404870Y-113828488D01*
X127830830Y-113828488D01*
X127830830Y-113969782D01*
X127587564Y-114824999D01*
X127436805Y-114824999D01*
G37*
G36*
X153020087Y-99903268D02*
G01*
X153070313Y-99916581D01*
X153111507Y-99937451D01*
X153145237Y-99965717D01*
X153171954Y-100000919D01*
X153191741Y-100043334D01*
X153204350Y-100094422D01*
X153208862Y-100156043D01*
X153208862Y-100622119D01*
X153203855Y-100692744D01*
X153190123Y-100748939D01*
X153169030Y-100793468D01*
X153141085Y-100828504D01*
X153105436Y-100856403D01*
X153062178Y-100877074D01*
X153009745Y-100890268D01*
X152946118Y-100895000D01*
X152747732Y-100895000D01*
X152747732Y-100762131D01*
X152890553Y-100762131D01*
X152956010Y-100762131D01*
X152994731Y-100758189D01*
X153022034Y-100747764D01*
X153040945Y-100731906D01*
X153053936Y-100710230D01*
X153062710Y-100679591D01*
X153066041Y-100637079D01*
X153066041Y-100155005D01*
X153059499Y-100100336D01*
X153042349Y-100063658D01*
X153024013Y-100046779D01*
X152996429Y-100035623D01*
X152956010Y-100031357D01*
X152890553Y-100031357D01*
X152890553Y-100762131D01*
X152747732Y-100762131D01*
X152747732Y-99898489D01*
X152958757Y-99898489D01*
X153020087Y-99903268D01*
G37*
G36*
X153324145Y-100895000D02*
G01*
X153324145Y-100760483D01*
X153580416Y-100273951D01*
X153596321Y-100238014D01*
X153602704Y-100210143D01*
X153605512Y-100142121D01*
X153605512Y-100103592D01*
X153603675Y-100084021D01*
X153598490Y-100067749D01*
X153589807Y-100053643D01*
X153577486Y-100041859D01*
X153561466Y-100034280D01*
X153536941Y-100031357D01*
X153507402Y-100036149D01*
X153485833Y-100049553D01*
X153472051Y-100070948D01*
X153466966Y-100102798D01*
X153466966Y-100184192D01*
X153324145Y-100184192D01*
X153324145Y-100105668D01*
X153328377Y-100061988D01*
X153340875Y-100021587D01*
X153360826Y-99984670D01*
X153386915Y-99952894D01*
X153417392Y-99926595D01*
X153453899Y-99905938D01*
X153494156Y-99892839D01*
X153537613Y-99888414D01*
X153590756Y-99893789D01*
X153633173Y-99908747D01*
X153669726Y-99932817D01*
X153699485Y-99964129D01*
X153721102Y-100001276D01*
X153736427Y-100044057D01*
X153745296Y-100089845D01*
X153748333Y-100139373D01*
X153748333Y-100200373D01*
X153744120Y-100247329D01*
X153730015Y-100292208D01*
X153703271Y-100346857D01*
X153492184Y-100752056D01*
X153750104Y-100752056D01*
X153750104Y-100895000D01*
X153324145Y-100895000D01*
G37*
G36*
X154099079Y-99892109D02*
G01*
X154138389Y-99903129D01*
X154174705Y-99921211D01*
X154206350Y-99945872D01*
X154232595Y-99976473D01*
X154253244Y-100013161D01*
X154266256Y-100054275D01*
X154270830Y-100102798D01*
X154270830Y-100688492D01*
X154266259Y-100736969D01*
X154253244Y-100778129D01*
X154232599Y-100814766D01*
X154206350Y-100845357D01*
X154174705Y-100870018D01*
X154138389Y-100888100D01*
X154099079Y-100899120D01*
X154057850Y-100902815D01*
X154016568Y-100899119D01*
X153977250Y-100888100D01*
X153940935Y-100870018D01*
X153909289Y-100845357D01*
X153882992Y-100814761D01*
X153862334Y-100778129D01*
X153849411Y-100736976D01*
X153844870Y-100688492D01*
X153844870Y-100102798D01*
X153844876Y-100102737D01*
X153987691Y-100102737D01*
X153987691Y-100688431D01*
X153992703Y-100716930D01*
X154007292Y-100739600D01*
X154029476Y-100754683D01*
X154057911Y-100759872D01*
X154086230Y-100754686D01*
X154108347Y-100739600D01*
X154122984Y-100716925D01*
X154128009Y-100688431D01*
X154128009Y-100102737D01*
X154122984Y-100074306D01*
X154108347Y-100051690D01*
X154086225Y-100036557D01*
X154057911Y-100031357D01*
X154029481Y-100036560D01*
X154007292Y-100051690D01*
X153992703Y-100074301D01*
X153987691Y-100102737D01*
X153844876Y-100102737D01*
X153849414Y-100054269D01*
X153862334Y-100013161D01*
X153882996Y-99976477D01*
X153909289Y-99945872D01*
X153940935Y-99921211D01*
X153977250Y-99903129D01*
X154016568Y-99892110D01*
X154057850Y-99888414D01*
X154099079Y-99892109D01*
G37*
D12*
G36*
X197921354Y-119774952D02*
G01*
X197921354Y-119867459D01*
X197914758Y-119935198D01*
X197895159Y-119998801D01*
X197863957Y-120057432D01*
X197822893Y-120109077D01*
X197772915Y-120152358D01*
X197714816Y-120185830D01*
X197651021Y-120207047D01*
X197581826Y-120214223D01*
X197520998Y-120210080D01*
X197458086Y-120197370D01*
X197398443Y-120174248D01*
X197344971Y-120138477D01*
X197299739Y-120091255D01*
X197262173Y-120030308D01*
X197238507Y-119958558D01*
X197229658Y-119861140D01*
X197229658Y-119037278D01*
X197236057Y-118965689D01*
X197254754Y-118900716D01*
X197285359Y-118841580D01*
X197326103Y-118791448D01*
X197376256Y-118750438D01*
X197436104Y-118718907D01*
X197502509Y-118699376D01*
X197577612Y-118692621D01*
X197651568Y-118699169D01*
X197715990Y-118717972D01*
X197772672Y-118748543D01*
X197822893Y-118791448D01*
X197863708Y-118843751D01*
X197895159Y-118905936D01*
X197914663Y-118974268D01*
X197921354Y-119049918D01*
X197921354Y-119133998D01*
X197707122Y-119133998D01*
X197707122Y-119062465D01*
X197698067Y-119003189D01*
X197671585Y-118953289D01*
X197645074Y-118927564D01*
X197613594Y-118912325D01*
X197575506Y-118907035D01*
X197525352Y-118913400D01*
X197491761Y-118930174D01*
X197469993Y-118956403D01*
X197450942Y-119009832D01*
X197443889Y-119081425D01*
X197443889Y-119846485D01*
X197451334Y-119907789D01*
X197472099Y-119955662D01*
X197494441Y-119979176D01*
X197526947Y-119994186D01*
X197573399Y-119999808D01*
X197618279Y-119992481D01*
X197663250Y-119968301D01*
X197679923Y-119949014D01*
X197694483Y-119922048D01*
X197703694Y-119890506D01*
X197707122Y-119848592D01*
X197707122Y-119774952D01*
X197921354Y-119774952D01*
G37*
G36*
X198318493Y-120202500D02*
G01*
X198318493Y-118934513D01*
X198104536Y-119091958D01*
X198104536Y-118865178D01*
X198318493Y-118707733D01*
X198532724Y-118707733D01*
X198532724Y-120202500D01*
X198318493Y-120202500D01*
G37*
G36*
X199222680Y-120202500D02*
G01*
X199222680Y-119979750D01*
X198794766Y-119979750D01*
X198794766Y-119780448D01*
X199104619Y-118707733D01*
X199331856Y-118707733D01*
X199009822Y-119780448D01*
X199222680Y-119780448D01*
X199222680Y-119352534D01*
X199436911Y-119352534D01*
X199436911Y-119780448D01*
X199539218Y-119780448D01*
X199539218Y-119979750D01*
X199436911Y-119979750D01*
X199436911Y-120202500D01*
X199222680Y-120202500D01*
G37*
D11*
G36*
X248320174Y-113256537D02*
G01*
X248420626Y-113283162D01*
X248503014Y-113324902D01*
X248570474Y-113381434D01*
X248623908Y-113451838D01*
X248663483Y-113536669D01*
X248688701Y-113638844D01*
X248697725Y-113762086D01*
X248697725Y-114694239D01*
X248687710Y-114835489D01*
X248660247Y-114947878D01*
X248618060Y-115036936D01*
X248562170Y-115107009D01*
X248490872Y-115162806D01*
X248404357Y-115204148D01*
X248299491Y-115230537D01*
X248172236Y-115240000D01*
X247775464Y-115240000D01*
X247775464Y-114974263D01*
X248061106Y-114974263D01*
X248192020Y-114974263D01*
X248269462Y-114966378D01*
X248324069Y-114945528D01*
X248361891Y-114913813D01*
X248387873Y-114870461D01*
X248405420Y-114809183D01*
X248412083Y-114724159D01*
X248412083Y-113760010D01*
X248398999Y-113650672D01*
X248364699Y-113577316D01*
X248328026Y-113543558D01*
X248272858Y-113521247D01*
X248192020Y-113512714D01*
X248061106Y-113512714D01*
X248061106Y-114974263D01*
X247775464Y-114974263D01*
X247775464Y-113246978D01*
X248197515Y-113246978D01*
X248320174Y-113256537D01*
G37*
G36*
X249264368Y-115240000D02*
G01*
X249264368Y-113549351D01*
X248979092Y-113759277D01*
X248979092Y-113456905D01*
X249264368Y-113246978D01*
X249550010Y-113246978D01*
X249550010Y-115240000D01*
X249264368Y-115240000D01*
G37*
G36*
X250398998Y-114085097D02*
G01*
X250404616Y-114090715D01*
X250448457Y-114072519D01*
X250526127Y-114065436D01*
X250599839Y-114074615D01*
X250667543Y-114101950D01*
X250726221Y-114143867D01*
X250769392Y-114194396D01*
X250800411Y-114256189D01*
X250820317Y-114337400D01*
X250825935Y-114465139D01*
X250825935Y-114659923D01*
X250825935Y-114821245D01*
X250820317Y-114926392D01*
X250799068Y-115002107D01*
X250766462Y-115066587D01*
X250700369Y-115148734D01*
X250615275Y-115209713D01*
X250515938Y-115247219D01*
X250401807Y-115260150D01*
X250287958Y-115246828D01*
X250189682Y-115208248D01*
X250105503Y-115146848D01*
X250039839Y-115066709D01*
X250004424Y-115002229D01*
X249986106Y-114926392D01*
X249977557Y-114821367D01*
X249977557Y-114660045D01*
X249977557Y-114507393D01*
X249980047Y-114460743D01*
X250263199Y-114460743D01*
X250263199Y-114831259D01*
X250273906Y-114890260D01*
X250304720Y-114935062D01*
X250350007Y-114964541D01*
X250401807Y-114974263D01*
X250453481Y-114964543D01*
X250498649Y-114935062D01*
X250529558Y-114890249D01*
X250540293Y-114831259D01*
X250540293Y-114460743D01*
X250529563Y-114401858D01*
X250498649Y-114357062D01*
X250453472Y-114327486D01*
X250401807Y-114317739D01*
X250350016Y-114327487D01*
X250304720Y-114357062D01*
X250273901Y-114401848D01*
X250263199Y-114460743D01*
X249980047Y-114460743D01*
X249983175Y-114402124D01*
X250000272Y-114325066D01*
X250025673Y-114250694D01*
X250404494Y-113246978D01*
X250724085Y-113246978D01*
X250398998Y-114085097D01*
G37*
G36*
X88890900Y-113256537D02*
G01*
X88991352Y-113283162D01*
X89073740Y-113324902D01*
X89141200Y-113381434D01*
X89194634Y-113451838D01*
X89234209Y-113536669D01*
X89259427Y-113638844D01*
X89268451Y-113762086D01*
X89268451Y-114694239D01*
X89258436Y-114835489D01*
X89230973Y-114947878D01*
X89188786Y-115036936D01*
X89132896Y-115107009D01*
X89061598Y-115162806D01*
X88975083Y-115204148D01*
X88870217Y-115230537D01*
X88742962Y-115240000D01*
X88346190Y-115240000D01*
X88346190Y-114974263D01*
X88631832Y-114974263D01*
X88762746Y-114974263D01*
X88840188Y-114966378D01*
X88894795Y-114945528D01*
X88932617Y-114913813D01*
X88958599Y-114870461D01*
X88976146Y-114809183D01*
X88982809Y-114724159D01*
X88982809Y-113760010D01*
X88969725Y-113650672D01*
X88935425Y-113577316D01*
X88898752Y-113543558D01*
X88843584Y-113521247D01*
X88762746Y-113512714D01*
X88631832Y-113512714D01*
X88631832Y-114974263D01*
X88346190Y-114974263D01*
X88346190Y-113246978D01*
X88768241Y-113246978D01*
X88890900Y-113256537D01*
G37*
G36*
X90044912Y-113240153D02*
G01*
X90143084Y-113278729D01*
X90227249Y-113340055D01*
X90292927Y-113420268D01*
X90326877Y-113484748D01*
X90349592Y-113557655D01*
X90355209Y-113665732D01*
X90355209Y-113826933D01*
X90355209Y-113979706D01*
X90349592Y-114081922D01*
X90331151Y-114161912D01*
X90307093Y-114236161D01*
X89928273Y-115240000D01*
X89608681Y-115240000D01*
X89933768Y-114401880D01*
X89928151Y-114396263D01*
X89884187Y-114414581D01*
X89806518Y-114421542D01*
X89732799Y-114412392D01*
X89665101Y-114385150D01*
X89606520Y-114343143D01*
X89563374Y-114292581D01*
X89532233Y-114232254D01*
X89515380Y-114149455D01*
X89506832Y-114021960D01*
X89506832Y-113827055D01*
X89506832Y-113665732D01*
X89507625Y-113655718D01*
X89792474Y-113655718D01*
X89792474Y-114026113D01*
X89803181Y-114085113D01*
X89833995Y-114129916D01*
X89879291Y-114159490D01*
X89931081Y-114169239D01*
X89982746Y-114159492D01*
X90027924Y-114129916D01*
X90058833Y-114085103D01*
X90069567Y-114026113D01*
X90069567Y-113655718D01*
X90058828Y-113596749D01*
X90027924Y-113552037D01*
X89982746Y-113522461D01*
X89931081Y-113512714D01*
X89879291Y-113522463D01*
X89833995Y-113552037D01*
X89803185Y-113596739D01*
X89792474Y-113655718D01*
X89507625Y-113655718D01*
X89515380Y-113557777D01*
X89533698Y-113484870D01*
X89566305Y-113420390D01*
X89632412Y-113338169D01*
X89717491Y-113277264D01*
X89816933Y-113239755D01*
X89931081Y-113226828D01*
X90044912Y-113240153D01*
G37*
D12*
G36*
X84061898Y-119774952D02*
G01*
X84061898Y-119867459D01*
X84055302Y-119935198D01*
X84035703Y-119998801D01*
X84004501Y-120057432D01*
X83963437Y-120109077D01*
X83913459Y-120152358D01*
X83855360Y-120185830D01*
X83791565Y-120207047D01*
X83722370Y-120214223D01*
X83661542Y-120210080D01*
X83598630Y-120197370D01*
X83538987Y-120174248D01*
X83485515Y-120138477D01*
X83440283Y-120091255D01*
X83402717Y-120030308D01*
X83379051Y-119958558D01*
X83370202Y-119861140D01*
X83370202Y-119037278D01*
X83376601Y-118965689D01*
X83395298Y-118900716D01*
X83425903Y-118841580D01*
X83466647Y-118791448D01*
X83516800Y-118750438D01*
X83576648Y-118718907D01*
X83643053Y-118699376D01*
X83718156Y-118692621D01*
X83792112Y-118699169D01*
X83856534Y-118717972D01*
X83913216Y-118748543D01*
X83963437Y-118791448D01*
X84004252Y-118843751D01*
X84035703Y-118905936D01*
X84055207Y-118974268D01*
X84061898Y-119049918D01*
X84061898Y-119133998D01*
X83847666Y-119133998D01*
X83847666Y-119062465D01*
X83838611Y-119003189D01*
X83812129Y-118953289D01*
X83785618Y-118927564D01*
X83754138Y-118912325D01*
X83716050Y-118907035D01*
X83665896Y-118913400D01*
X83632305Y-118930174D01*
X83610537Y-118956403D01*
X83591486Y-119009832D01*
X83584433Y-119081425D01*
X83584433Y-119846485D01*
X83591878Y-119907789D01*
X83612643Y-119955662D01*
X83634985Y-119979176D01*
X83667491Y-119994186D01*
X83713943Y-119999808D01*
X83758823Y-119992481D01*
X83803794Y-119968301D01*
X83820467Y-119949014D01*
X83835027Y-119922048D01*
X83844238Y-119890506D01*
X83847666Y-119848592D01*
X83847666Y-119774952D01*
X84061898Y-119774952D01*
G37*
G36*
X84616400Y-118702615D02*
G01*
X84690029Y-118731547D01*
X84753153Y-118777541D01*
X84802411Y-118837701D01*
X84827874Y-118886061D01*
X84844910Y-118940741D01*
X84849123Y-119021799D01*
X84849123Y-119142699D01*
X84849123Y-119257280D01*
X84844910Y-119333941D01*
X84831079Y-119393934D01*
X84813036Y-119449621D01*
X84528921Y-120202500D01*
X84289227Y-120202500D01*
X84533042Y-119573910D01*
X84528829Y-119569697D01*
X84495856Y-119583435D01*
X84437604Y-119588656D01*
X84382315Y-119581794D01*
X84331542Y-119561362D01*
X84287606Y-119529857D01*
X84255246Y-119491936D01*
X84231891Y-119446690D01*
X84219251Y-119384591D01*
X84212840Y-119288970D01*
X84212840Y-119142791D01*
X84212840Y-119021799D01*
X84213435Y-119014289D01*
X84427071Y-119014289D01*
X84427071Y-119292084D01*
X84435102Y-119336335D01*
X84458212Y-119369937D01*
X84492184Y-119392117D01*
X84531027Y-119399429D01*
X84569776Y-119392119D01*
X84603659Y-119369937D01*
X84626840Y-119336327D01*
X84634891Y-119292084D01*
X84634891Y-119014289D01*
X84626837Y-118970062D01*
X84603659Y-118936528D01*
X84569776Y-118914346D01*
X84531027Y-118907035D01*
X84492184Y-118914347D01*
X84458212Y-118936528D01*
X84435105Y-118970054D01*
X84427071Y-119014289D01*
X84213435Y-119014289D01*
X84219251Y-118940833D01*
X84232990Y-118886153D01*
X84257445Y-118837793D01*
X84307025Y-118776127D01*
X84370834Y-118730448D01*
X84445416Y-118702316D01*
X84531027Y-118692621D01*
X84616400Y-118702615D01*
G37*
D13*
G36*
X195130087Y-113833267D02*
G01*
X195180313Y-113846580D01*
X195221507Y-113867450D01*
X195255237Y-113895716D01*
X195281954Y-113930918D01*
X195301741Y-113973333D01*
X195314350Y-114024421D01*
X195318862Y-114086042D01*
X195318862Y-114552118D01*
X195313855Y-114622743D01*
X195300123Y-114678938D01*
X195279030Y-114723467D01*
X195251085Y-114758503D01*
X195215436Y-114786402D01*
X195172178Y-114807073D01*
X195119745Y-114820267D01*
X195056118Y-114824999D01*
X194857732Y-114824999D01*
X194857732Y-114692130D01*
X195000553Y-114692130D01*
X195066010Y-114692130D01*
X195104731Y-114688188D01*
X195132034Y-114677763D01*
X195150945Y-114661905D01*
X195163936Y-114640229D01*
X195172710Y-114609590D01*
X195176041Y-114567078D01*
X195176041Y-114085004D01*
X195169499Y-114030335D01*
X195152349Y-113993657D01*
X195134013Y-113976778D01*
X195106429Y-113965622D01*
X195066010Y-113961356D01*
X195000553Y-113961356D01*
X195000553Y-114692130D01*
X194857732Y-114692130D01*
X194857732Y-113828488D01*
X195068757Y-113828488D01*
X195130087Y-113833267D01*
G37*
G36*
X195603283Y-114246631D02*
G01*
X195661717Y-114241924D01*
X195691271Y-114231244D01*
X195703478Y-114218615D01*
X195712051Y-114196406D01*
X195715512Y-114159925D01*
X195715512Y-114031270D01*
X195710670Y-114002890D01*
X195696767Y-113980956D01*
X195675330Y-113966464D01*
X195646270Y-113961356D01*
X195613241Y-113967738D01*
X195592903Y-113985108D01*
X195580705Y-114009245D01*
X195576966Y-114031270D01*
X195576966Y-114112420D01*
X195434145Y-114112420D01*
X195434145Y-114029805D01*
X195438315Y-113987399D01*
X195450753Y-113947251D01*
X195470690Y-113910589D01*
X195496549Y-113880023D01*
X195527974Y-113854929D01*
X195564631Y-113835204D01*
X195604664Y-113822658D01*
X195647918Y-113818413D01*
X195702846Y-113824586D01*
X195744394Y-113841494D01*
X195779283Y-113865901D01*
X195801974Y-113888327D01*
X195826338Y-113921850D01*
X195843679Y-113962394D01*
X195852528Y-114014151D01*
X195856196Y-114099475D01*
X195856196Y-114183311D01*
X195853842Y-114213909D01*
X195847587Y-114236495D01*
X195835588Y-114257186D01*
X195819743Y-114274231D01*
X195770406Y-114307753D01*
X195801587Y-114329327D01*
X195821697Y-114347137D01*
X195837026Y-114366758D01*
X195847709Y-114389208D01*
X195853933Y-114415783D01*
X195856196Y-114448865D01*
X195856196Y-114536609D01*
X195856196Y-114618064D01*
X195851983Y-114671370D01*
X195840748Y-114709288D01*
X195822552Y-114741590D01*
X195792311Y-114777422D01*
X195754469Y-114806863D01*
X195725762Y-114820669D01*
X195690094Y-114829584D01*
X195645842Y-114832814D01*
X195611865Y-114830118D01*
X195574340Y-114821579D01*
X195538276Y-114806808D01*
X195505647Y-114785004D01*
X195477811Y-114756447D01*
X195454417Y-114719058D01*
X195439555Y-114675418D01*
X195434145Y-114619346D01*
X195434145Y-114537830D01*
X195576966Y-114537830D01*
X195576966Y-114612446D01*
X195581835Y-114643850D01*
X195595650Y-114668072D01*
X195617335Y-114684273D01*
X195646270Y-114689871D01*
X195675140Y-114684273D01*
X195696767Y-114668072D01*
X195710527Y-114643477D01*
X195715512Y-114609637D01*
X195715512Y-114466023D01*
X195712317Y-114427018D01*
X195704403Y-114402775D01*
X195693347Y-114388598D01*
X195679182Y-114379655D01*
X195659398Y-114374493D01*
X195603283Y-114371684D01*
X195603283Y-114246631D01*
G37*
G36*
X196209079Y-113822108D02*
G01*
X196248389Y-113833128D01*
X196284705Y-113851210D01*
X196316350Y-113875871D01*
X196342595Y-113906472D01*
X196363244Y-113943160D01*
X196376256Y-113984274D01*
X196380830Y-114032797D01*
X196380830Y-114618491D01*
X196376259Y-114666968D01*
X196363244Y-114708128D01*
X196342599Y-114744765D01*
X196316350Y-114775356D01*
X196284705Y-114800017D01*
X196248389Y-114818099D01*
X196209079Y-114829119D01*
X196167850Y-114832814D01*
X196126568Y-114829118D01*
X196087250Y-114818099D01*
X196050935Y-114800017D01*
X196019289Y-114775356D01*
X195992992Y-114744760D01*
X195972334Y-114708128D01*
X195959411Y-114666975D01*
X195954870Y-114618491D01*
X195954870Y-114032797D01*
X195954876Y-114032736D01*
X196097691Y-114032736D01*
X196097691Y-114618430D01*
X196102703Y-114646929D01*
X196117292Y-114669599D01*
X196139476Y-114684682D01*
X196167911Y-114689871D01*
X196196230Y-114684685D01*
X196218347Y-114669599D01*
X196232984Y-114646924D01*
X196238009Y-114618430D01*
X196238009Y-114032736D01*
X196232984Y-114004305D01*
X196218347Y-113981689D01*
X196196225Y-113966556D01*
X196167911Y-113961356D01*
X196139481Y-113966559D01*
X196117292Y-113981689D01*
X196102703Y-114004300D01*
X196097691Y-114032736D01*
X195954876Y-114032736D01*
X195959414Y-113984268D01*
X195972334Y-113943160D01*
X195992996Y-113906476D01*
X196019289Y-113875871D01*
X196050935Y-113851210D01*
X196087250Y-113833128D01*
X196126568Y-113822109D01*
X196167850Y-113818413D01*
X196209079Y-113822108D01*
G37*
D11*
G36*
X198760900Y-92456537D02*
G01*
X198861352Y-92483162D01*
X198943740Y-92524902D01*
X199011200Y-92581434D01*
X199064634Y-92651838D01*
X199104209Y-92736669D01*
X199129427Y-92838844D01*
X199138451Y-92962086D01*
X199138451Y-93894239D01*
X199128436Y-94035489D01*
X199100973Y-94147878D01*
X199058786Y-94236936D01*
X199002896Y-94307009D01*
X198931598Y-94362806D01*
X198845083Y-94404148D01*
X198740217Y-94430537D01*
X198612962Y-94440000D01*
X198216190Y-94440000D01*
X198216190Y-94174263D01*
X198501832Y-94174263D01*
X198632746Y-94174263D01*
X198710188Y-94166378D01*
X198764795Y-94145528D01*
X198802617Y-94113813D01*
X198828599Y-94070461D01*
X198846146Y-94009183D01*
X198852809Y-93924159D01*
X198852809Y-92960010D01*
X198839725Y-92850672D01*
X198805425Y-92777316D01*
X198768752Y-92743558D01*
X198713584Y-92721247D01*
X198632746Y-92712714D01*
X198501832Y-92712714D01*
X198501832Y-94174263D01*
X198216190Y-94174263D01*
X198216190Y-92446978D01*
X198638241Y-92446978D01*
X198760900Y-92456537D01*
G37*
G36*
X199798273Y-93285097D02*
G01*
X199803890Y-93290715D01*
X199847732Y-93272519D01*
X199925401Y-93265436D01*
X199999113Y-93274615D01*
X200066818Y-93301950D01*
X200125495Y-93343867D01*
X200168667Y-93394396D01*
X200199686Y-93456189D01*
X200219592Y-93537400D01*
X200225209Y-93665139D01*
X200225209Y-93859923D01*
X200225209Y-94021245D01*
X200219592Y-94126392D01*
X200198342Y-94202107D01*
X200165736Y-94266587D01*
X200099643Y-94348734D01*
X200014550Y-94409713D01*
X199915212Y-94447219D01*
X199801081Y-94460150D01*
X199687233Y-94446828D01*
X199588957Y-94408248D01*
X199504778Y-94346848D01*
X199439114Y-94266709D01*
X199403698Y-94202229D01*
X199385380Y-94126392D01*
X199376832Y-94021367D01*
X199376832Y-93860045D01*
X199376832Y-93707393D01*
X199379321Y-93660743D01*
X199662474Y-93660743D01*
X199662474Y-94031259D01*
X199673181Y-94090260D01*
X199703995Y-94135062D01*
X199749282Y-94164541D01*
X199801081Y-94174263D01*
X199852756Y-94164543D01*
X199897924Y-94135062D01*
X199928833Y-94090249D01*
X199939567Y-94031259D01*
X199939567Y-93660743D01*
X199928838Y-93601858D01*
X199897924Y-93557062D01*
X199852746Y-93527486D01*
X199801081Y-93517739D01*
X199749291Y-93527487D01*
X199703995Y-93557062D01*
X199673176Y-93601848D01*
X199662474Y-93660743D01*
X199379321Y-93660743D01*
X199382449Y-93602124D01*
X199399546Y-93525066D01*
X199424947Y-93450694D01*
X199803768Y-92446978D01*
X200123360Y-92446978D01*
X199798273Y-93285097D01*
G37*
D13*
G36*
X198720087Y-99903268D02*
G01*
X198770313Y-99916581D01*
X198811507Y-99937451D01*
X198845237Y-99965717D01*
X198871954Y-100000919D01*
X198891741Y-100043334D01*
X198904350Y-100094422D01*
X198908862Y-100156043D01*
X198908862Y-100622119D01*
X198903855Y-100692744D01*
X198890123Y-100748939D01*
X198869030Y-100793468D01*
X198841085Y-100828504D01*
X198805436Y-100856403D01*
X198762178Y-100877074D01*
X198709745Y-100890268D01*
X198646118Y-100895000D01*
X198447732Y-100895000D01*
X198447732Y-100762131D01*
X198590553Y-100762131D01*
X198656010Y-100762131D01*
X198694731Y-100758189D01*
X198722034Y-100747764D01*
X198740945Y-100731906D01*
X198753936Y-100710230D01*
X198762710Y-100679591D01*
X198766041Y-100637079D01*
X198766041Y-100155005D01*
X198759499Y-100100336D01*
X198742349Y-100063658D01*
X198724013Y-100046779D01*
X198696429Y-100035623D01*
X198656010Y-100031357D01*
X198590553Y-100031357D01*
X198590553Y-100762131D01*
X198447732Y-100762131D01*
X198447732Y-99898489D01*
X198658757Y-99898489D01*
X198720087Y-99903268D01*
G37*
G36*
X199024145Y-100895000D02*
G01*
X199024145Y-100760483D01*
X199280416Y-100273951D01*
X199296321Y-100238014D01*
X199302704Y-100210143D01*
X199305512Y-100142121D01*
X199305512Y-100103592D01*
X199303675Y-100084021D01*
X199298490Y-100067749D01*
X199289807Y-100053643D01*
X199277486Y-100041859D01*
X199261466Y-100034280D01*
X199236941Y-100031357D01*
X199207402Y-100036149D01*
X199185833Y-100049553D01*
X199172051Y-100070948D01*
X199166966Y-100102798D01*
X199166966Y-100184192D01*
X199024145Y-100184192D01*
X199024145Y-100105668D01*
X199028377Y-100061988D01*
X199040875Y-100021587D01*
X199060826Y-99984670D01*
X199086915Y-99952894D01*
X199117392Y-99926595D01*
X199153899Y-99905938D01*
X199194156Y-99892839D01*
X199237613Y-99888414D01*
X199290756Y-99893789D01*
X199333173Y-99908747D01*
X199369726Y-99932817D01*
X199399485Y-99964129D01*
X199421102Y-100001276D01*
X199436427Y-100044057D01*
X199445296Y-100089845D01*
X199448333Y-100139373D01*
X199448333Y-100200373D01*
X199444120Y-100247329D01*
X199430015Y-100292208D01*
X199403271Y-100346857D01*
X199192184Y-100752056D01*
X199450104Y-100752056D01*
X199450104Y-100895000D01*
X199024145Y-100895000D01*
G37*
G36*
X199544870Y-100895000D02*
G01*
X199544870Y-100760483D01*
X199801142Y-100273951D01*
X199817047Y-100238014D01*
X199823429Y-100210143D01*
X199826238Y-100142121D01*
X199826238Y-100103592D01*
X199824401Y-100084021D01*
X199819216Y-100067749D01*
X199810533Y-100053643D01*
X199798211Y-100041859D01*
X199782192Y-100034280D01*
X199757667Y-100031357D01*
X199728127Y-100036149D01*
X199706559Y-100049553D01*
X199692777Y-100070948D01*
X199687691Y-100102798D01*
X199687691Y-100184192D01*
X199544870Y-100184192D01*
X199544870Y-100105668D01*
X199549103Y-100061988D01*
X199561601Y-100021587D01*
X199581552Y-99984670D01*
X199607641Y-99952894D01*
X199638117Y-99926595D01*
X199674624Y-99905938D01*
X199714882Y-99892839D01*
X199758339Y-99888414D01*
X199811482Y-99893789D01*
X199853899Y-99908747D01*
X199890452Y-99932817D01*
X199920211Y-99964129D01*
X199941827Y-100001276D01*
X199957152Y-100044057D01*
X199966022Y-100089845D01*
X199969059Y-100139373D01*
X199969059Y-100200373D01*
X199964846Y-100247329D01*
X199950741Y-100292208D01*
X199923996Y-100346857D01*
X199712910Y-100752056D01*
X199970830Y-100752056D01*
X199970830Y-100895000D01*
X199544870Y-100895000D01*
G37*
G36*
X107320087Y-99903268D02*
G01*
X107370313Y-99916581D01*
X107411507Y-99937451D01*
X107445237Y-99965717D01*
X107471954Y-100000919D01*
X107491741Y-100043334D01*
X107504350Y-100094422D01*
X107508862Y-100156043D01*
X107508862Y-100622119D01*
X107503855Y-100692744D01*
X107490123Y-100748939D01*
X107469030Y-100793468D01*
X107441085Y-100828504D01*
X107405436Y-100856403D01*
X107362178Y-100877074D01*
X107309745Y-100890268D01*
X107246118Y-100895000D01*
X107047732Y-100895000D01*
X107047732Y-100762131D01*
X107190553Y-100762131D01*
X107256010Y-100762131D01*
X107294731Y-100758189D01*
X107322034Y-100747764D01*
X107340945Y-100731906D01*
X107353936Y-100710230D01*
X107362710Y-100679591D01*
X107366041Y-100637079D01*
X107366041Y-100155005D01*
X107359499Y-100100336D01*
X107342349Y-100063658D01*
X107324013Y-100046779D01*
X107296429Y-100035623D01*
X107256010Y-100031357D01*
X107190553Y-100031357D01*
X107190553Y-100762131D01*
X107047732Y-100762131D01*
X107047732Y-99898489D01*
X107258757Y-99898489D01*
X107320087Y-99903268D01*
G37*
G36*
X107792184Y-100895000D02*
G01*
X107792184Y-100049675D01*
X107649546Y-100154638D01*
X107649546Y-100003452D01*
X107792184Y-99898489D01*
X107935005Y-99898489D01*
X107935005Y-100895000D01*
X107792184Y-100895000D01*
G37*
G36*
X108408219Y-99893542D02*
G01*
X108451517Y-99908686D01*
X108489972Y-99933039D01*
X108521310Y-99965350D01*
X108545062Y-100000277D01*
X108561793Y-100038012D01*
X108570830Y-100087716D01*
X108572967Y-100156898D01*
X108572967Y-100232369D01*
X108571050Y-100262083D01*
X108565701Y-100286835D01*
X108556447Y-100309476D01*
X108543231Y-100329516D01*
X108501892Y-100369389D01*
X108525284Y-100389685D01*
X108542009Y-100408651D01*
X108554679Y-100429742D01*
X108563747Y-100454996D01*
X108568898Y-100483221D01*
X108570830Y-100520331D01*
X108570830Y-100615036D01*
X108570830Y-100691545D01*
X108566556Y-100744180D01*
X108554527Y-100782098D01*
X108535415Y-100814399D01*
X108507043Y-100847631D01*
X108467393Y-100876864D01*
X108420065Y-100895958D01*
X108359865Y-100902815D01*
X108299550Y-100895957D01*
X108252154Y-100876864D01*
X108212568Y-100847632D01*
X108184255Y-100814399D01*
X108165082Y-100782098D01*
X108153053Y-100744180D01*
X108148778Y-100691545D01*
X108148778Y-100615036D01*
X108148778Y-100520331D01*
X108150249Y-100492548D01*
X108291599Y-100492548D01*
X108291599Y-100689530D01*
X108296810Y-100716843D01*
X108312360Y-100739478D01*
X108335063Y-100754839D01*
X108360903Y-100759872D01*
X108386680Y-100754840D01*
X108409324Y-100739478D01*
X108424922Y-100716839D01*
X108430146Y-100689530D01*
X108430146Y-100492548D01*
X108424922Y-100465240D01*
X108409324Y-100442601D01*
X108386676Y-100427191D01*
X108360903Y-100422145D01*
X108335068Y-100427191D01*
X108312360Y-100442601D01*
X108296810Y-100465235D01*
X108291599Y-100492548D01*
X108150249Y-100492548D01*
X108150743Y-100483227D01*
X108155983Y-100454996D01*
X108165368Y-100429760D01*
X108178393Y-100408651D01*
X108195512Y-100389702D01*
X108219487Y-100369389D01*
X108178393Y-100329516D01*
X108165258Y-100309486D01*
X108155983Y-100286835D01*
X108150680Y-100262086D01*
X108148778Y-100232369D01*
X108148778Y-100156898D01*
X108150988Y-100101271D01*
X108291599Y-100101271D01*
X108291599Y-100246718D01*
X108296806Y-100273852D01*
X108312360Y-100296360D01*
X108335054Y-100311626D01*
X108360903Y-100316632D01*
X108386690Y-100311627D01*
X108409324Y-100296360D01*
X108424926Y-100273848D01*
X108430146Y-100246718D01*
X108430146Y-100101271D01*
X108424926Y-100074142D01*
X108409324Y-100051629D01*
X108386690Y-100036363D01*
X108360903Y-100031357D01*
X108335054Y-100036363D01*
X108312360Y-100051629D01*
X108296806Y-100074137D01*
X108291599Y-100101271D01*
X108150988Y-100101271D01*
X108151526Y-100087716D01*
X108161296Y-100038012D01*
X108177355Y-100000277D01*
X108200375Y-99965350D01*
X108231703Y-99933035D01*
X108270106Y-99908686D01*
X108313473Y-99893544D01*
X108360903Y-99888414D01*
X108408219Y-99893542D01*
G37*
D12*
G36*
X239391898Y-95854952D02*
G01*
X239391898Y-95947459D01*
X239385302Y-96015198D01*
X239365703Y-96078801D01*
X239334501Y-96137432D01*
X239293437Y-96189077D01*
X239243459Y-96232358D01*
X239185360Y-96265830D01*
X239121565Y-96287047D01*
X239052370Y-96294223D01*
X238991542Y-96290080D01*
X238928630Y-96277370D01*
X238868987Y-96254248D01*
X238815515Y-96218477D01*
X238770283Y-96171255D01*
X238732717Y-96110308D01*
X238709051Y-96038558D01*
X238700202Y-95941140D01*
X238700202Y-95117278D01*
X238706601Y-95045689D01*
X238725298Y-94980716D01*
X238755903Y-94921580D01*
X238796647Y-94871448D01*
X238846800Y-94830438D01*
X238906648Y-94798907D01*
X238973053Y-94779376D01*
X239048156Y-94772621D01*
X239122112Y-94779169D01*
X239186534Y-94797972D01*
X239243216Y-94828543D01*
X239293437Y-94871448D01*
X239334252Y-94923751D01*
X239365703Y-94985936D01*
X239385207Y-95054268D01*
X239391898Y-95129918D01*
X239391898Y-95213998D01*
X239177666Y-95213998D01*
X239177666Y-95142465D01*
X239168611Y-95083189D01*
X239142129Y-95033289D01*
X239115618Y-95007564D01*
X239084138Y-94992325D01*
X239046050Y-94987035D01*
X238995896Y-94993400D01*
X238962305Y-95010174D01*
X238940537Y-95036403D01*
X238921486Y-95089832D01*
X238914433Y-95161425D01*
X238914433Y-95926485D01*
X238921878Y-95987789D01*
X238942643Y-96035662D01*
X238964985Y-96059176D01*
X238997491Y-96074186D01*
X239043943Y-96079808D01*
X239088823Y-96072481D01*
X239133794Y-96048301D01*
X239150467Y-96029014D01*
X239165027Y-96002048D01*
X239174238Y-95970506D01*
X239177666Y-95928592D01*
X239177666Y-95854952D01*
X239391898Y-95854952D01*
G37*
G36*
X239932000Y-94780313D02*
G01*
X239996948Y-94803029D01*
X240054630Y-94839558D01*
X240101637Y-94888025D01*
X240137266Y-94940416D01*
X240162362Y-94997019D01*
X240175917Y-95071574D01*
X240179123Y-95175347D01*
X240179123Y-95288553D01*
X240176247Y-95333125D01*
X240168224Y-95370252D01*
X240154343Y-95404215D01*
X240134518Y-95434275D01*
X240072511Y-95494084D01*
X240107598Y-95524528D01*
X240132686Y-95552977D01*
X240151690Y-95584613D01*
X240165293Y-95622494D01*
X240173019Y-95664832D01*
X240175917Y-95720497D01*
X240175917Y-95862554D01*
X240175917Y-95977318D01*
X240169506Y-96056270D01*
X240151462Y-96113148D01*
X240122794Y-96161599D01*
X240080236Y-96211447D01*
X240020762Y-96255297D01*
X239949770Y-96283938D01*
X239859470Y-96294223D01*
X239768997Y-96283935D01*
X239697903Y-96255297D01*
X239638524Y-96211449D01*
X239596054Y-96161599D01*
X239567295Y-96113148D01*
X239549251Y-96056270D01*
X239542840Y-95977318D01*
X239542840Y-95862554D01*
X239542840Y-95720497D01*
X239545047Y-95678823D01*
X239757071Y-95678823D01*
X239757071Y-95974296D01*
X239764887Y-96015265D01*
X239788212Y-96049217D01*
X239822267Y-96072259D01*
X239861027Y-96079808D01*
X239899693Y-96072260D01*
X239933659Y-96049217D01*
X239957055Y-96015258D01*
X239964891Y-95974296D01*
X239964891Y-95678823D01*
X239957055Y-95637860D01*
X239933659Y-95603901D01*
X239899686Y-95580786D01*
X239861027Y-95573218D01*
X239822274Y-95580787D01*
X239788212Y-95603901D01*
X239764887Y-95637853D01*
X239757071Y-95678823D01*
X239545047Y-95678823D01*
X239545787Y-95664840D01*
X239553647Y-95622494D01*
X239567725Y-95584640D01*
X239587261Y-95552977D01*
X239612940Y-95524553D01*
X239648902Y-95494084D01*
X239587261Y-95434275D01*
X239567559Y-95404229D01*
X239553647Y-95370252D01*
X239545692Y-95333129D01*
X239542840Y-95288553D01*
X239542840Y-95175347D01*
X239546154Y-95091907D01*
X239757071Y-95091907D01*
X239757071Y-95310077D01*
X239764881Y-95350779D01*
X239788212Y-95384541D01*
X239822253Y-95407439D01*
X239861027Y-95414949D01*
X239899707Y-95407440D01*
X239933659Y-95384541D01*
X239957062Y-95350772D01*
X239964891Y-95310077D01*
X239964891Y-95091907D01*
X239957062Y-95051213D01*
X239933659Y-95017444D01*
X239899707Y-94994544D01*
X239861027Y-94987035D01*
X239822253Y-94994545D01*
X239788212Y-95017444D01*
X239764881Y-95051205D01*
X239757071Y-95091907D01*
X239546154Y-95091907D01*
X239546961Y-95071574D01*
X239561616Y-94997019D01*
X239585704Y-94940416D01*
X239620234Y-94888025D01*
X239667226Y-94839552D01*
X239724831Y-94803029D01*
X239789882Y-94780316D01*
X239861027Y-94772621D01*
X239932000Y-94780313D01*
G37*
D13*
G36*
X84470087Y-99903268D02*
G01*
X84520313Y-99916581D01*
X84561507Y-99937451D01*
X84595237Y-99965717D01*
X84621954Y-100000919D01*
X84641741Y-100043334D01*
X84654350Y-100094422D01*
X84658862Y-100156043D01*
X84658862Y-100622119D01*
X84653855Y-100692744D01*
X84640123Y-100748939D01*
X84619030Y-100793468D01*
X84591085Y-100828504D01*
X84555436Y-100856403D01*
X84512178Y-100877074D01*
X84459745Y-100890268D01*
X84396118Y-100895000D01*
X84197732Y-100895000D01*
X84197732Y-100762131D01*
X84340553Y-100762131D01*
X84406010Y-100762131D01*
X84444731Y-100758189D01*
X84472034Y-100747764D01*
X84490945Y-100731906D01*
X84503936Y-100710230D01*
X84512710Y-100679591D01*
X84516041Y-100637079D01*
X84516041Y-100155005D01*
X84509499Y-100100336D01*
X84492349Y-100063658D01*
X84474013Y-100046779D01*
X84446429Y-100035623D01*
X84406010Y-100031357D01*
X84340553Y-100031357D01*
X84340553Y-100762131D01*
X84197732Y-100762131D01*
X84197732Y-99898489D01*
X84408757Y-99898489D01*
X84470087Y-99903268D01*
G37*
G36*
X84942184Y-100895000D02*
G01*
X84942184Y-100049675D01*
X84799546Y-100154638D01*
X84799546Y-100003452D01*
X84942184Y-99898489D01*
X85085005Y-99898489D01*
X85085005Y-100895000D01*
X84942184Y-100895000D01*
G37*
G36*
X85326805Y-100895000D02*
G01*
X85577398Y-100031357D01*
X85419923Y-100031357D01*
X85419923Y-100146334D01*
X85294870Y-100146334D01*
X85294870Y-99898489D01*
X85720830Y-99898489D01*
X85720830Y-100039783D01*
X85477564Y-100895000D01*
X85326805Y-100895000D01*
G37*
G36*
X172280087Y-113833267D02*
G01*
X172330313Y-113846580D01*
X172371507Y-113867450D01*
X172405237Y-113895716D01*
X172431954Y-113930918D01*
X172451741Y-113973333D01*
X172464350Y-114024421D01*
X172468862Y-114086042D01*
X172468862Y-114552118D01*
X172463855Y-114622743D01*
X172450123Y-114678938D01*
X172429030Y-114723467D01*
X172401085Y-114758503D01*
X172365436Y-114786402D01*
X172322178Y-114807073D01*
X172269745Y-114820267D01*
X172206118Y-114824999D01*
X172007732Y-114824999D01*
X172007732Y-114692130D01*
X172150553Y-114692130D01*
X172216010Y-114692130D01*
X172254731Y-114688188D01*
X172282034Y-114677763D01*
X172300945Y-114661905D01*
X172313936Y-114640229D01*
X172322710Y-114609590D01*
X172326041Y-114567078D01*
X172326041Y-114085004D01*
X172319499Y-114030335D01*
X172302349Y-113993657D01*
X172284013Y-113976778D01*
X172256429Y-113965622D01*
X172216010Y-113961356D01*
X172150553Y-113961356D01*
X172150553Y-114692130D01*
X172007732Y-114692130D01*
X172007732Y-113828488D01*
X172218757Y-113828488D01*
X172280087Y-113833267D01*
G37*
G36*
X172584145Y-114824999D02*
G01*
X172584145Y-114690482D01*
X172840416Y-114203950D01*
X172856321Y-114168013D01*
X172862704Y-114140142D01*
X172865512Y-114072120D01*
X172865512Y-114033591D01*
X172863675Y-114014020D01*
X172858490Y-113997748D01*
X172849807Y-113983642D01*
X172837486Y-113971858D01*
X172821466Y-113964279D01*
X172796941Y-113961356D01*
X172767402Y-113966148D01*
X172745833Y-113979552D01*
X172732051Y-114000947D01*
X172726966Y-114032797D01*
X172726966Y-114114191D01*
X172584145Y-114114191D01*
X172584145Y-114035667D01*
X172588377Y-113991987D01*
X172600875Y-113951586D01*
X172620826Y-113914669D01*
X172646915Y-113882893D01*
X172677392Y-113856594D01*
X172713899Y-113835937D01*
X172754156Y-113822838D01*
X172797613Y-113818413D01*
X172850756Y-113823788D01*
X172893173Y-113838746D01*
X172929726Y-113862816D01*
X172959485Y-113894128D01*
X172981102Y-113931275D01*
X172996427Y-113974056D01*
X173005296Y-114019844D01*
X173008333Y-114069372D01*
X173008333Y-114130372D01*
X173004120Y-114177328D01*
X172990015Y-114222207D01*
X172963271Y-114276856D01*
X172752184Y-114682055D01*
X173010104Y-114682055D01*
X173010104Y-114824999D01*
X172584145Y-114824999D01*
G37*
G36*
X173377818Y-113825075D02*
G01*
X173426905Y-113844363D01*
X173468987Y-113875026D01*
X173501826Y-113915133D01*
X173518801Y-113947373D01*
X173530158Y-113983826D01*
X173532967Y-114037865D01*
X173532967Y-114118465D01*
X173532967Y-114194852D01*
X173530158Y-114245960D01*
X173520938Y-114285955D01*
X173508909Y-114323079D01*
X173319499Y-114824999D01*
X173159703Y-114824999D01*
X173322247Y-114405939D01*
X173319438Y-114403130D01*
X173297456Y-114412289D01*
X173258621Y-114415770D01*
X173221762Y-114411195D01*
X173187913Y-114397574D01*
X173158623Y-114376570D01*
X173137049Y-114351289D01*
X173121479Y-114321126D01*
X173113053Y-114279726D01*
X173108778Y-114215979D01*
X173108778Y-114118526D01*
X173108778Y-114037865D01*
X173109175Y-114032858D01*
X173251599Y-114032858D01*
X173251599Y-114218055D01*
X173256953Y-114247555D01*
X173272360Y-114269957D01*
X173295008Y-114284744D01*
X173320903Y-114289618D01*
X173346736Y-114284745D01*
X173369324Y-114269957D01*
X173384779Y-114247550D01*
X173390146Y-114218055D01*
X173390146Y-114032858D01*
X173384777Y-114003373D01*
X173369324Y-113981017D01*
X173346736Y-113966229D01*
X173320903Y-113961356D01*
X173295008Y-113966230D01*
X173272360Y-113981017D01*
X173256955Y-114003368D01*
X173251599Y-114032858D01*
X173109175Y-114032858D01*
X173113053Y-113983887D01*
X173122212Y-113947434D01*
X173138515Y-113915194D01*
X173171568Y-113874083D01*
X173214108Y-113843631D01*
X173263829Y-113824876D01*
X173320903Y-113818413D01*
X173377818Y-113825075D01*
G37*
D12*
G36*
X106521354Y-119774952D02*
G01*
X106521354Y-119867459D01*
X106514758Y-119935198D01*
X106495159Y-119998801D01*
X106463957Y-120057432D01*
X106422893Y-120109077D01*
X106372915Y-120152358D01*
X106314816Y-120185830D01*
X106251021Y-120207047D01*
X106181826Y-120214223D01*
X106120998Y-120210080D01*
X106058086Y-120197370D01*
X105998443Y-120174248D01*
X105944971Y-120138477D01*
X105899739Y-120091255D01*
X105862173Y-120030308D01*
X105838507Y-119958558D01*
X105829658Y-119861140D01*
X105829658Y-119037278D01*
X105836057Y-118965689D01*
X105854754Y-118900716D01*
X105885359Y-118841580D01*
X105926103Y-118791448D01*
X105976256Y-118750438D01*
X106036104Y-118718907D01*
X106102509Y-118699376D01*
X106177612Y-118692621D01*
X106251568Y-118699169D01*
X106315990Y-118717972D01*
X106372672Y-118748543D01*
X106422893Y-118791448D01*
X106463708Y-118843751D01*
X106495159Y-118905936D01*
X106514663Y-118974268D01*
X106521354Y-119049918D01*
X106521354Y-119133998D01*
X106307122Y-119133998D01*
X106307122Y-119062465D01*
X106298067Y-119003189D01*
X106271585Y-118953289D01*
X106245074Y-118927564D01*
X106213594Y-118912325D01*
X106175506Y-118907035D01*
X106125352Y-118913400D01*
X106091761Y-118930174D01*
X106069993Y-118956403D01*
X106050942Y-119009832D01*
X106043889Y-119081425D01*
X106043889Y-119846485D01*
X106051334Y-119907789D01*
X106072099Y-119955662D01*
X106094441Y-119979176D01*
X106126947Y-119994186D01*
X106173399Y-119999808D01*
X106218279Y-119992481D01*
X106263250Y-119968301D01*
X106279923Y-119949014D01*
X106294483Y-119922048D01*
X106303694Y-119890506D01*
X106307122Y-119848592D01*
X106307122Y-119774952D01*
X106521354Y-119774952D01*
G37*
G36*
X106918493Y-120202500D02*
G01*
X106918493Y-118934513D01*
X106704536Y-119091958D01*
X106704536Y-118865178D01*
X106918493Y-118707733D01*
X107132724Y-118707733D01*
X107132724Y-120202500D01*
X106918493Y-120202500D01*
G37*
G36*
X107828836Y-118698164D02*
G01*
X107887801Y-118714694D01*
X107942274Y-118741817D01*
X107989742Y-118778808D01*
X108029109Y-118824709D01*
X108060084Y-118879741D01*
X108079601Y-118941413D01*
X108086462Y-119014197D01*
X108086462Y-119892739D01*
X108079605Y-119965454D01*
X108060084Y-120027194D01*
X108029115Y-120082149D01*
X107989742Y-120128036D01*
X107942274Y-120165027D01*
X107887801Y-120192150D01*
X107828836Y-120208680D01*
X107766992Y-120214223D01*
X107705069Y-120208678D01*
X107646092Y-120192150D01*
X107591619Y-120165027D01*
X107544151Y-120128036D01*
X107504705Y-120082142D01*
X107473718Y-120027194D01*
X107454333Y-119965465D01*
X107447523Y-119892739D01*
X107447523Y-119014197D01*
X107447532Y-119014105D01*
X107661754Y-119014105D01*
X107661754Y-119892647D01*
X107669271Y-119935396D01*
X107691155Y-119969400D01*
X107724432Y-119992024D01*
X107767084Y-119999808D01*
X107809562Y-119992029D01*
X107842738Y-119969400D01*
X107864692Y-119935388D01*
X107872230Y-119892647D01*
X107872230Y-119014105D01*
X107864693Y-118971459D01*
X107842738Y-118937535D01*
X107809555Y-118914835D01*
X107767084Y-118907035D01*
X107724439Y-118914840D01*
X107691155Y-118937535D01*
X107669271Y-118971451D01*
X107661754Y-119014105D01*
X107447532Y-119014105D01*
X107454338Y-118941403D01*
X107473718Y-118879741D01*
X107504711Y-118824716D01*
X107544151Y-118778808D01*
X107591619Y-118741817D01*
X107646092Y-118714694D01*
X107705069Y-118698166D01*
X107766992Y-118692621D01*
X107828836Y-118698164D01*
G37*
D13*
G36*
X240830087Y-113833268D02*
G01*
X240880313Y-113846581D01*
X240921507Y-113867451D01*
X240955237Y-113895717D01*
X240981954Y-113930919D01*
X241001741Y-113973334D01*
X241014350Y-114024422D01*
X241018862Y-114086043D01*
X241018862Y-114552119D01*
X241013855Y-114622744D01*
X241000123Y-114678939D01*
X240979030Y-114723468D01*
X240951085Y-114758504D01*
X240915436Y-114786403D01*
X240872178Y-114807074D01*
X240819745Y-114820268D01*
X240756118Y-114825000D01*
X240557732Y-114825000D01*
X240557732Y-114692131D01*
X240700553Y-114692131D01*
X240766010Y-114692131D01*
X240804731Y-114688189D01*
X240832034Y-114677764D01*
X240850945Y-114661906D01*
X240863936Y-114640230D01*
X240872710Y-114609591D01*
X240876041Y-114567079D01*
X240876041Y-114085005D01*
X240869499Y-114030336D01*
X240852349Y-113993658D01*
X240834013Y-113976779D01*
X240806429Y-113965623D01*
X240766010Y-113961357D01*
X240700553Y-113961357D01*
X240700553Y-114692131D01*
X240557732Y-114692131D01*
X240557732Y-113828489D01*
X240768757Y-113828489D01*
X240830087Y-113833268D01*
G37*
G36*
X241303283Y-114246632D02*
G01*
X241361717Y-114241925D01*
X241391271Y-114231245D01*
X241403478Y-114218616D01*
X241412051Y-114196407D01*
X241415512Y-114159926D01*
X241415512Y-114031271D01*
X241410670Y-114002891D01*
X241396767Y-113980957D01*
X241375330Y-113966465D01*
X241346270Y-113961357D01*
X241313241Y-113967739D01*
X241292903Y-113985109D01*
X241280705Y-114009246D01*
X241276966Y-114031271D01*
X241276966Y-114112421D01*
X241134145Y-114112421D01*
X241134145Y-114029806D01*
X241138315Y-113987400D01*
X241150753Y-113947252D01*
X241170690Y-113910590D01*
X241196549Y-113880024D01*
X241227974Y-113854930D01*
X241264631Y-113835205D01*
X241304664Y-113822659D01*
X241347918Y-113818414D01*
X241402846Y-113824587D01*
X241444394Y-113841495D01*
X241479283Y-113865902D01*
X241501974Y-113888328D01*
X241526338Y-113921851D01*
X241543679Y-113962395D01*
X241552528Y-114014152D01*
X241556196Y-114099476D01*
X241556196Y-114183312D01*
X241553842Y-114213910D01*
X241547587Y-114236496D01*
X241535588Y-114257187D01*
X241519743Y-114274232D01*
X241470406Y-114307754D01*
X241501587Y-114329328D01*
X241521697Y-114347138D01*
X241537026Y-114366759D01*
X241547709Y-114389209D01*
X241553933Y-114415784D01*
X241556196Y-114448866D01*
X241556196Y-114536610D01*
X241556196Y-114618065D01*
X241551983Y-114671371D01*
X241540748Y-114709289D01*
X241522552Y-114741591D01*
X241492311Y-114777423D01*
X241454469Y-114806864D01*
X241425762Y-114820670D01*
X241390094Y-114829585D01*
X241345842Y-114832815D01*
X241311865Y-114830119D01*
X241274340Y-114821580D01*
X241238276Y-114806809D01*
X241205647Y-114785005D01*
X241177811Y-114756448D01*
X241154417Y-114719059D01*
X241139555Y-114675419D01*
X241134145Y-114619347D01*
X241134145Y-114537831D01*
X241276966Y-114537831D01*
X241276966Y-114612447D01*
X241281835Y-114643851D01*
X241295650Y-114668073D01*
X241317335Y-114684274D01*
X241346270Y-114689872D01*
X241375140Y-114684274D01*
X241396767Y-114668073D01*
X241410527Y-114643478D01*
X241415512Y-114609638D01*
X241415512Y-114466024D01*
X241412317Y-114427019D01*
X241404403Y-114402776D01*
X241393347Y-114388599D01*
X241379182Y-114379656D01*
X241359398Y-114374494D01*
X241303283Y-114371685D01*
X241303283Y-114246632D01*
G37*
G36*
X241654870Y-114825000D02*
G01*
X241654870Y-114690483D01*
X241911142Y-114203951D01*
X241927047Y-114168014D01*
X241933429Y-114140143D01*
X241936238Y-114072121D01*
X241936238Y-114033592D01*
X241934401Y-114014021D01*
X241929216Y-113997749D01*
X241920533Y-113983643D01*
X241908211Y-113971859D01*
X241892192Y-113964280D01*
X241867667Y-113961357D01*
X241838127Y-113966149D01*
X241816559Y-113979553D01*
X241802777Y-114000948D01*
X241797691Y-114032798D01*
X241797691Y-114114192D01*
X241654870Y-114114192D01*
X241654870Y-114035668D01*
X241659103Y-113991988D01*
X241671601Y-113951587D01*
X241691552Y-113914670D01*
X241717641Y-113882894D01*
X241748117Y-113856595D01*
X241784624Y-113835938D01*
X241824882Y-113822839D01*
X241868339Y-113818414D01*
X241921482Y-113823789D01*
X241963899Y-113838747D01*
X242000452Y-113862817D01*
X242030211Y-113894129D01*
X242051827Y-113931276D01*
X242067152Y-113974057D01*
X242076022Y-114019845D01*
X242079059Y-114069373D01*
X242079059Y-114130373D01*
X242074846Y-114177329D01*
X242060741Y-114222208D01*
X242033996Y-114276857D01*
X241822910Y-114682056D01*
X242080830Y-114682056D01*
X242080830Y-114825000D01*
X241654870Y-114825000D01*
G37*
D12*
G36*
X220771354Y-119774952D02*
G01*
X220771354Y-119867459D01*
X220764758Y-119935198D01*
X220745159Y-119998801D01*
X220713957Y-120057432D01*
X220672893Y-120109077D01*
X220622915Y-120152358D01*
X220564816Y-120185830D01*
X220501021Y-120207047D01*
X220431826Y-120214223D01*
X220370998Y-120210080D01*
X220308086Y-120197370D01*
X220248443Y-120174248D01*
X220194971Y-120138477D01*
X220149739Y-120091255D01*
X220112173Y-120030308D01*
X220088507Y-119958558D01*
X220079658Y-119861140D01*
X220079658Y-119037278D01*
X220086057Y-118965689D01*
X220104754Y-118900716D01*
X220135359Y-118841580D01*
X220176103Y-118791448D01*
X220226256Y-118750438D01*
X220286104Y-118718907D01*
X220352509Y-118699376D01*
X220427612Y-118692621D01*
X220501568Y-118699169D01*
X220565990Y-118717972D01*
X220622672Y-118748543D01*
X220672893Y-118791448D01*
X220713708Y-118843751D01*
X220745159Y-118905936D01*
X220764663Y-118974268D01*
X220771354Y-119049918D01*
X220771354Y-119133998D01*
X220557122Y-119133998D01*
X220557122Y-119062465D01*
X220548067Y-119003189D01*
X220521585Y-118953289D01*
X220495074Y-118927564D01*
X220463594Y-118912325D01*
X220425506Y-118907035D01*
X220375352Y-118913400D01*
X220341761Y-118930174D01*
X220319993Y-118956403D01*
X220300942Y-119009832D01*
X220293889Y-119081425D01*
X220293889Y-119846485D01*
X220301334Y-119907789D01*
X220322099Y-119955662D01*
X220344441Y-119979176D01*
X220376947Y-119994186D01*
X220423399Y-119999808D01*
X220468279Y-119992481D01*
X220513250Y-119968301D01*
X220529923Y-119949014D01*
X220544483Y-119922048D01*
X220553694Y-119890506D01*
X220557122Y-119848592D01*
X220557122Y-119774952D01*
X220771354Y-119774952D01*
G37*
G36*
X221168493Y-120202500D02*
G01*
X221168493Y-118934513D01*
X220954536Y-119091958D01*
X220954536Y-118865178D01*
X221168493Y-118707733D01*
X221382724Y-118707733D01*
X221382724Y-120202500D01*
X221168493Y-120202500D01*
G37*
G36*
X222336462Y-118707733D02*
G01*
X222336462Y-118907035D01*
X221908548Y-118907035D01*
X221908548Y-119309945D01*
X221941499Y-119283759D01*
X221984752Y-119261035D01*
X222033248Y-119246279D01*
X222088616Y-119241160D01*
X222159344Y-119248963D01*
X222218124Y-119271148D01*
X222267585Y-119307380D01*
X222304262Y-119355889D01*
X222327802Y-119420443D01*
X222336462Y-119506041D01*
X222336462Y-119892739D01*
X222329605Y-119965454D01*
X222310084Y-120027194D01*
X222279115Y-120082149D01*
X222239742Y-120128036D01*
X222192274Y-120165027D01*
X222137801Y-120192150D01*
X222078836Y-120208680D01*
X222016992Y-120214223D01*
X221955069Y-120208678D01*
X221896092Y-120192150D01*
X221841625Y-120165008D01*
X221794151Y-120127944D01*
X221754706Y-120081961D01*
X221723718Y-120026919D01*
X221704338Y-119965167D01*
X221697523Y-119892281D01*
X221697523Y-119829174D01*
X221908548Y-119829174D01*
X221908548Y-119883946D01*
X221916767Y-119934015D01*
X221939506Y-119969309D01*
X221974444Y-119991944D01*
X222019648Y-119999808D01*
X222064267Y-119992037D01*
X222095486Y-119970408D01*
X222115044Y-119936603D01*
X222122230Y-119888159D01*
X222122230Y-119536266D01*
X222115017Y-119495005D01*
X222093654Y-119460429D01*
X222061396Y-119436743D01*
X222020839Y-119428738D01*
X221994744Y-119431349D01*
X221974402Y-119438538D01*
X221942712Y-119461253D01*
X221923752Y-119489371D01*
X221911021Y-119508880D01*
X221720970Y-119508880D01*
X221720970Y-118707733D01*
X222336462Y-118707733D01*
G37*
G36*
X193691898Y-95854952D02*
G01*
X193691898Y-95947459D01*
X193685302Y-96015198D01*
X193665703Y-96078801D01*
X193634501Y-96137432D01*
X193593437Y-96189077D01*
X193543459Y-96232358D01*
X193485360Y-96265830D01*
X193421565Y-96287047D01*
X193352370Y-96294223D01*
X193291542Y-96290080D01*
X193228630Y-96277370D01*
X193168987Y-96254248D01*
X193115515Y-96218477D01*
X193070283Y-96171255D01*
X193032717Y-96110308D01*
X193009051Y-96038558D01*
X193000202Y-95941140D01*
X193000202Y-95117278D01*
X193006601Y-95045689D01*
X193025298Y-94980716D01*
X193055903Y-94921580D01*
X193096647Y-94871448D01*
X193146800Y-94830438D01*
X193206648Y-94798907D01*
X193273053Y-94779376D01*
X193348156Y-94772621D01*
X193422112Y-94779169D01*
X193486534Y-94797972D01*
X193543216Y-94828543D01*
X193593437Y-94871448D01*
X193634252Y-94923751D01*
X193665703Y-94985936D01*
X193685207Y-95054268D01*
X193691898Y-95129918D01*
X193691898Y-95213998D01*
X193477666Y-95213998D01*
X193477666Y-95142465D01*
X193468611Y-95083189D01*
X193442129Y-95033289D01*
X193415618Y-95007564D01*
X193384138Y-94992325D01*
X193346050Y-94987035D01*
X193295896Y-94993400D01*
X193262305Y-95010174D01*
X193240537Y-95036403D01*
X193221486Y-95089832D01*
X193214433Y-95161425D01*
X193214433Y-95926485D01*
X193221878Y-95987789D01*
X193242643Y-96035662D01*
X193264985Y-96059176D01*
X193297491Y-96074186D01*
X193343943Y-96079808D01*
X193388823Y-96072481D01*
X193433794Y-96048301D01*
X193450467Y-96029014D01*
X193465027Y-96002048D01*
X193474238Y-95970506D01*
X193477666Y-95928592D01*
X193477666Y-95854952D01*
X193691898Y-95854952D01*
G37*
G36*
X194158921Y-95416323D02*
G01*
X194163134Y-95420536D01*
X194196015Y-95406889D01*
X194254267Y-95401577D01*
X194309551Y-95408461D01*
X194360329Y-95428962D01*
X194404337Y-95460400D01*
X194436716Y-95498297D01*
X194459980Y-95544642D01*
X194474910Y-95605550D01*
X194479123Y-95701354D01*
X194479123Y-95847442D01*
X194479123Y-95968434D01*
X194474910Y-96047294D01*
X194458973Y-96104080D01*
X194434518Y-96152440D01*
X194384948Y-96214051D01*
X194321128Y-96259785D01*
X194246625Y-96287914D01*
X194161027Y-96297612D01*
X194075641Y-96287621D01*
X194001933Y-96258686D01*
X193938799Y-96212636D01*
X193889551Y-96152532D01*
X193862990Y-96104172D01*
X193849251Y-96047294D01*
X193842840Y-95968525D01*
X193842840Y-95847534D01*
X193842840Y-95733045D01*
X193844707Y-95698057D01*
X194057071Y-95698057D01*
X194057071Y-95975944D01*
X194065102Y-96020195D01*
X194088212Y-96053797D01*
X194122177Y-96075906D01*
X194161027Y-96083197D01*
X194199783Y-96075907D01*
X194233659Y-96053797D01*
X194256840Y-96020187D01*
X194264891Y-95975944D01*
X194264891Y-95698057D01*
X194256844Y-95653893D01*
X194233659Y-95620296D01*
X194199776Y-95598114D01*
X194161027Y-95590804D01*
X194122184Y-95598115D01*
X194088212Y-95620296D01*
X194065098Y-95653886D01*
X194057071Y-95698057D01*
X193844707Y-95698057D01*
X193847053Y-95654093D01*
X193859876Y-95596299D01*
X193878927Y-95540520D01*
X194163042Y-94787733D01*
X194402736Y-94787733D01*
X194158921Y-95416323D01*
G37*
D13*
G36*
X130170087Y-99913268D02*
G01*
X130220313Y-99926581D01*
X130261507Y-99947451D01*
X130295237Y-99975717D01*
X130321954Y-100010919D01*
X130341741Y-100053334D01*
X130354350Y-100104422D01*
X130358862Y-100166043D01*
X130358862Y-100632119D01*
X130353855Y-100702744D01*
X130340123Y-100758939D01*
X130319030Y-100803468D01*
X130291085Y-100838504D01*
X130255436Y-100866403D01*
X130212178Y-100887074D01*
X130159745Y-100900268D01*
X130096118Y-100905000D01*
X129897732Y-100905000D01*
X129897732Y-100772131D01*
X130040553Y-100772131D01*
X130106010Y-100772131D01*
X130144731Y-100768189D01*
X130172034Y-100757764D01*
X130190945Y-100741906D01*
X130203936Y-100720230D01*
X130212710Y-100689591D01*
X130216041Y-100647079D01*
X130216041Y-100165005D01*
X130209499Y-100110336D01*
X130192349Y-100073658D01*
X130174013Y-100056779D01*
X130146429Y-100045623D01*
X130106010Y-100041357D01*
X130040553Y-100041357D01*
X130040553Y-100772131D01*
X129897732Y-100772131D01*
X129897732Y-99908489D01*
X130108757Y-99908489D01*
X130170087Y-99913268D01*
G37*
G36*
X130642184Y-100905000D02*
G01*
X130642184Y-100059675D01*
X130499546Y-100164638D01*
X130499546Y-100013452D01*
X130642184Y-99908489D01*
X130785005Y-99908489D01*
X130785005Y-100905000D01*
X130642184Y-100905000D01*
G37*
G36*
X131267818Y-99905076D02*
G01*
X131316905Y-99924364D01*
X131358987Y-99955027D01*
X131391826Y-99995134D01*
X131408801Y-100027374D01*
X131420158Y-100063827D01*
X131422967Y-100117866D01*
X131422967Y-100198466D01*
X131422967Y-100274853D01*
X131420158Y-100325961D01*
X131410938Y-100365956D01*
X131398909Y-100403080D01*
X131209499Y-100905000D01*
X131049703Y-100905000D01*
X131212247Y-100485940D01*
X131209438Y-100483131D01*
X131187456Y-100492290D01*
X131148621Y-100495771D01*
X131111762Y-100491196D01*
X131077913Y-100477575D01*
X131048623Y-100456571D01*
X131027049Y-100431290D01*
X131011479Y-100401127D01*
X131003053Y-100359727D01*
X130998778Y-100295980D01*
X130998778Y-100198527D01*
X130998778Y-100117866D01*
X130999175Y-100112859D01*
X131141599Y-100112859D01*
X131141599Y-100298056D01*
X131146953Y-100327556D01*
X131162360Y-100349958D01*
X131185008Y-100364745D01*
X131210903Y-100369619D01*
X131236736Y-100364746D01*
X131259324Y-100349958D01*
X131274779Y-100327551D01*
X131280146Y-100298056D01*
X131280146Y-100112859D01*
X131274777Y-100083374D01*
X131259324Y-100061018D01*
X131236736Y-100046230D01*
X131210903Y-100041357D01*
X131185008Y-100046231D01*
X131162360Y-100061018D01*
X131146955Y-100083369D01*
X131141599Y-100112859D01*
X130999175Y-100112859D01*
X131003053Y-100063888D01*
X131012212Y-100027435D01*
X131028515Y-99995195D01*
X131061568Y-99954084D01*
X131104108Y-99923632D01*
X131153829Y-99904877D01*
X131210903Y-99898414D01*
X131267818Y-99905076D01*
G37*
D11*
G36*
X107360900Y-92456537D02*
G01*
X107461352Y-92483162D01*
X107543740Y-92524902D01*
X107611200Y-92581434D01*
X107664634Y-92651838D01*
X107704209Y-92736669D01*
X107729427Y-92838844D01*
X107738451Y-92962086D01*
X107738451Y-93894239D01*
X107728436Y-94035489D01*
X107700973Y-94147878D01*
X107658786Y-94236936D01*
X107602896Y-94307009D01*
X107531598Y-94362806D01*
X107445083Y-94404148D01*
X107340217Y-94430537D01*
X107212962Y-94440000D01*
X106816190Y-94440000D01*
X106816190Y-94174263D01*
X107101832Y-94174263D01*
X107232746Y-94174263D01*
X107310188Y-94166378D01*
X107364795Y-94145528D01*
X107402617Y-94113813D01*
X107428599Y-94070461D01*
X107446146Y-94009183D01*
X107452809Y-93924159D01*
X107452809Y-92960010D01*
X107439725Y-92850672D01*
X107405425Y-92777316D01*
X107368752Y-92743558D01*
X107313584Y-92721247D01*
X107232746Y-92712714D01*
X107101832Y-92712714D01*
X107101832Y-94174263D01*
X106816190Y-94174263D01*
X106816190Y-92446978D01*
X107238241Y-92446978D01*
X107360900Y-92456537D01*
G37*
G36*
X107969016Y-94440000D02*
G01*
X107969016Y-94170966D01*
X108481559Y-93197903D01*
X108513369Y-93126028D01*
X108526134Y-93070286D01*
X108531751Y-92934242D01*
X108531751Y-92857184D01*
X108528076Y-92818042D01*
X108517707Y-92785498D01*
X108500341Y-92757286D01*
X108475698Y-92733719D01*
X108443659Y-92718560D01*
X108394609Y-92712714D01*
X108335530Y-92722299D01*
X108292393Y-92749106D01*
X108264829Y-92791896D01*
X108254658Y-92855596D01*
X108254658Y-93018384D01*
X107969016Y-93018384D01*
X107969016Y-92861336D01*
X107977481Y-92773977D01*
X108002477Y-92693175D01*
X108042379Y-92619340D01*
X108094557Y-92555788D01*
X108155510Y-92503190D01*
X108228524Y-92461877D01*
X108309039Y-92435678D01*
X108395952Y-92426828D01*
X108502238Y-92437578D01*
X108587072Y-92467494D01*
X108660179Y-92515635D01*
X108719696Y-92578258D01*
X108762930Y-92652552D01*
X108793580Y-92738115D01*
X108811319Y-92829691D01*
X108817393Y-92928747D01*
X108817393Y-93050746D01*
X108808967Y-93144658D01*
X108780757Y-93234417D01*
X108727268Y-93343715D01*
X108305094Y-94154113D01*
X108820935Y-94154113D01*
X108820935Y-94440000D01*
X107969016Y-94440000D01*
G37*
D12*
G36*
X125141898Y-95854952D02*
G01*
X125141898Y-95947459D01*
X125135302Y-96015198D01*
X125115703Y-96078801D01*
X125084501Y-96137432D01*
X125043437Y-96189077D01*
X124993459Y-96232358D01*
X124935360Y-96265830D01*
X124871565Y-96287047D01*
X124802370Y-96294223D01*
X124741542Y-96290080D01*
X124678630Y-96277370D01*
X124618987Y-96254248D01*
X124565515Y-96218477D01*
X124520283Y-96171255D01*
X124482717Y-96110308D01*
X124459051Y-96038558D01*
X124450202Y-95941140D01*
X124450202Y-95117278D01*
X124456601Y-95045689D01*
X124475298Y-94980716D01*
X124505903Y-94921580D01*
X124546647Y-94871448D01*
X124596800Y-94830438D01*
X124656648Y-94798907D01*
X124723053Y-94779376D01*
X124798156Y-94772621D01*
X124872112Y-94779169D01*
X124936534Y-94797972D01*
X124993216Y-94828543D01*
X125043437Y-94871448D01*
X125084252Y-94923751D01*
X125115703Y-94985936D01*
X125135207Y-95054268D01*
X125141898Y-95129918D01*
X125141898Y-95213998D01*
X124927666Y-95213998D01*
X124927666Y-95142465D01*
X124918611Y-95083189D01*
X124892129Y-95033289D01*
X124865618Y-95007564D01*
X124834138Y-94992325D01*
X124796050Y-94987035D01*
X124745896Y-94993400D01*
X124712305Y-95010174D01*
X124690537Y-95036403D01*
X124671486Y-95089832D01*
X124664433Y-95161425D01*
X124664433Y-95926485D01*
X124671878Y-95987789D01*
X124692643Y-96035662D01*
X124714985Y-96059176D01*
X124747491Y-96074186D01*
X124793943Y-96079808D01*
X124838823Y-96072481D01*
X124883794Y-96048301D01*
X124900467Y-96029014D01*
X124915027Y-96002048D01*
X124924238Y-95970506D01*
X124927666Y-95928592D01*
X124927666Y-95854952D01*
X125141898Y-95854952D01*
G37*
G36*
X125540685Y-95414949D02*
G01*
X125628337Y-95407887D01*
X125672668Y-95391868D01*
X125690978Y-95372924D01*
X125703837Y-95339611D01*
X125709030Y-95284890D01*
X125709030Y-95091907D01*
X125701766Y-95049336D01*
X125680911Y-95016436D01*
X125648755Y-94994698D01*
X125605165Y-94987035D01*
X125555623Y-94996608D01*
X125525115Y-95022664D01*
X125506819Y-95058870D01*
X125501209Y-95091907D01*
X125501209Y-95213632D01*
X125286978Y-95213632D01*
X125286978Y-95089709D01*
X125293234Y-95026100D01*
X125311891Y-94965878D01*
X125341796Y-94910885D01*
X125380584Y-94865036D01*
X125427722Y-94827396D01*
X125482708Y-94797808D01*
X125542758Y-94778989D01*
X125607638Y-94772621D01*
X125690029Y-94781881D01*
X125752352Y-94807242D01*
X125804686Y-94843853D01*
X125838723Y-94877493D01*
X125875267Y-94927776D01*
X125901279Y-94988592D01*
X125914552Y-95066228D01*
X125920055Y-95194214D01*
X125920055Y-95319969D01*
X125916524Y-95365865D01*
X125907141Y-95399745D01*
X125889143Y-95430781D01*
X125865376Y-95456348D01*
X125791370Y-95506632D01*
X125838141Y-95538992D01*
X125868306Y-95565708D01*
X125891300Y-95595139D01*
X125907324Y-95628814D01*
X125916660Y-95668676D01*
X125920055Y-95718299D01*
X125920055Y-95849915D01*
X125920055Y-95972097D01*
X125913736Y-96052056D01*
X125896883Y-96108934D01*
X125869589Y-96157386D01*
X125824228Y-96211135D01*
X125767465Y-96255297D01*
X125724404Y-96276006D01*
X125670901Y-96289378D01*
X125604524Y-96294223D01*
X125553559Y-96290178D01*
X125497271Y-96277370D01*
X125443175Y-96255213D01*
X125394231Y-96222507D01*
X125352477Y-96179672D01*
X125317386Y-96123589D01*
X125295094Y-96058129D01*
X125286978Y-95974021D01*
X125286978Y-95851747D01*
X125501209Y-95851747D01*
X125501209Y-95963671D01*
X125508514Y-96010777D01*
X125529236Y-96047110D01*
X125561764Y-96071411D01*
X125605165Y-96079808D01*
X125648471Y-96071412D01*
X125680911Y-96047110D01*
X125701552Y-96010218D01*
X125709030Y-95959458D01*
X125709030Y-95744036D01*
X125704236Y-95685529D01*
X125692365Y-95649164D01*
X125675782Y-95627898D01*
X125654534Y-95614484D01*
X125624857Y-95606741D01*
X125540685Y-95602527D01*
X125540685Y-95414949D01*
G37*
G36*
X147991898Y-95854952D02*
G01*
X147991898Y-95947459D01*
X147985302Y-96015198D01*
X147965703Y-96078801D01*
X147934501Y-96137432D01*
X147893437Y-96189077D01*
X147843459Y-96232358D01*
X147785360Y-96265830D01*
X147721565Y-96287047D01*
X147652370Y-96294223D01*
X147591542Y-96290080D01*
X147528630Y-96277370D01*
X147468987Y-96254248D01*
X147415515Y-96218477D01*
X147370283Y-96171255D01*
X147332717Y-96110308D01*
X147309051Y-96038558D01*
X147300202Y-95941140D01*
X147300202Y-95117278D01*
X147306601Y-95045689D01*
X147325298Y-94980716D01*
X147355903Y-94921580D01*
X147396647Y-94871448D01*
X147446800Y-94830438D01*
X147506648Y-94798907D01*
X147573053Y-94779376D01*
X147648156Y-94772621D01*
X147722112Y-94779169D01*
X147786534Y-94797972D01*
X147843216Y-94828543D01*
X147893437Y-94871448D01*
X147934252Y-94923751D01*
X147965703Y-94985936D01*
X147985207Y-95054268D01*
X147991898Y-95129918D01*
X147991898Y-95213998D01*
X147777666Y-95213998D01*
X147777666Y-95142465D01*
X147768611Y-95083189D01*
X147742129Y-95033289D01*
X147715618Y-95007564D01*
X147684138Y-94992325D01*
X147646050Y-94987035D01*
X147595896Y-94993400D01*
X147562305Y-95010174D01*
X147540537Y-95036403D01*
X147521486Y-95089832D01*
X147514433Y-95161425D01*
X147514433Y-95926485D01*
X147521878Y-95987789D01*
X147542643Y-96035662D01*
X147564985Y-96059176D01*
X147597491Y-96074186D01*
X147643943Y-96079808D01*
X147688823Y-96072481D01*
X147733794Y-96048301D01*
X147750467Y-96029014D01*
X147765027Y-96002048D01*
X147774238Y-95970506D01*
X147777666Y-95928592D01*
X147777666Y-95854952D01*
X147991898Y-95854952D01*
G37*
G36*
X148512135Y-96282500D02*
G01*
X148512135Y-96059750D01*
X148084221Y-96059750D01*
X148084221Y-95860448D01*
X148394074Y-94787733D01*
X148621311Y-94787733D01*
X148299277Y-95860448D01*
X148512135Y-95860448D01*
X148512135Y-95432534D01*
X148726366Y-95432534D01*
X148726366Y-95860448D01*
X148828674Y-95860448D01*
X148828674Y-96059750D01*
X148726366Y-96059750D01*
X148726366Y-96282500D01*
X148512135Y-96282500D01*
G37*
D11*
G36*
X175910900Y-92456537D02*
G01*
X176011352Y-92483162D01*
X176093740Y-92524902D01*
X176161200Y-92581434D01*
X176214634Y-92651838D01*
X176254209Y-92736669D01*
X176279427Y-92838844D01*
X176288451Y-92962086D01*
X176288451Y-93894239D01*
X176278436Y-94035489D01*
X176250973Y-94147878D01*
X176208786Y-94236936D01*
X176152896Y-94307009D01*
X176081598Y-94362806D01*
X175995083Y-94404148D01*
X175890217Y-94430537D01*
X175762962Y-94440000D01*
X175366190Y-94440000D01*
X175366190Y-94174263D01*
X175651832Y-94174263D01*
X175782746Y-94174263D01*
X175860188Y-94166378D01*
X175914795Y-94145528D01*
X175952617Y-94113813D01*
X175978599Y-94070461D01*
X175996146Y-94009183D01*
X176002809Y-93924159D01*
X176002809Y-92960010D01*
X175989725Y-92850672D01*
X175955425Y-92777316D01*
X175918752Y-92743558D01*
X175863584Y-92721247D01*
X175782746Y-92712714D01*
X175651832Y-92712714D01*
X175651832Y-94174263D01*
X175366190Y-94174263D01*
X175366190Y-92446978D01*
X175788241Y-92446978D01*
X175910900Y-92456537D01*
G37*
G36*
X177370935Y-92446978D02*
G01*
X177370935Y-92712714D01*
X176800384Y-92712714D01*
X176800384Y-93249926D01*
X176844317Y-93215013D01*
X176901989Y-93184713D01*
X176966650Y-93165039D01*
X177040474Y-93158213D01*
X177134778Y-93168618D01*
X177213152Y-93198198D01*
X177279100Y-93246507D01*
X177328002Y-93311185D01*
X177359388Y-93397257D01*
X177370935Y-93511388D01*
X177370935Y-94026985D01*
X177361793Y-94123939D01*
X177335764Y-94206259D01*
X177294472Y-94279532D01*
X177241975Y-94340715D01*
X177178684Y-94390037D01*
X177106054Y-94426200D01*
X177027434Y-94448240D01*
X176944975Y-94455631D01*
X176862411Y-94448238D01*
X176783775Y-94426200D01*
X176711153Y-94390011D01*
X176647854Y-94340593D01*
X176595261Y-94279282D01*
X176553943Y-94205893D01*
X176528103Y-94123556D01*
X176519016Y-94026374D01*
X176519016Y-93942233D01*
X176800384Y-93942233D01*
X176800384Y-94015261D01*
X176811342Y-94082020D01*
X176841661Y-94129078D01*
X176888244Y-94159259D01*
X176948517Y-94169745D01*
X177008009Y-94159383D01*
X177049633Y-94130544D01*
X177075711Y-94085471D01*
X177085293Y-94020879D01*
X177085293Y-93551688D01*
X177075676Y-93496674D01*
X177047191Y-93450572D01*
X177004180Y-93418991D01*
X176950104Y-93408318D01*
X176915311Y-93411799D01*
X176888189Y-93421385D01*
X176845935Y-93451671D01*
X176820656Y-93489162D01*
X176803681Y-93515174D01*
X176550279Y-93515174D01*
X176550279Y-92446978D01*
X177370935Y-92446978D01*
G37*
G36*
X225470174Y-113256537D02*
G01*
X225570626Y-113283162D01*
X225653014Y-113324902D01*
X225720474Y-113381434D01*
X225773908Y-113451838D01*
X225813483Y-113536669D01*
X225838701Y-113638844D01*
X225847725Y-113762086D01*
X225847725Y-114694239D01*
X225837710Y-114835489D01*
X225810247Y-114947878D01*
X225768060Y-115036936D01*
X225712170Y-115107009D01*
X225640872Y-115162806D01*
X225554357Y-115204148D01*
X225449491Y-115230537D01*
X225322236Y-115240000D01*
X224925464Y-115240000D01*
X224925464Y-114974263D01*
X225211106Y-114974263D01*
X225342020Y-114974263D01*
X225419462Y-114966378D01*
X225474069Y-114945528D01*
X225511891Y-114913813D01*
X225537873Y-114870461D01*
X225555420Y-114809183D01*
X225562083Y-114724159D01*
X225562083Y-113760010D01*
X225548999Y-113650672D01*
X225514699Y-113577316D01*
X225478026Y-113543558D01*
X225422858Y-113521247D01*
X225342020Y-113512714D01*
X225211106Y-113512714D01*
X225211106Y-114974263D01*
X224925464Y-114974263D01*
X224925464Y-113246978D01*
X225347515Y-113246978D01*
X225470174Y-113256537D01*
G37*
G36*
X226414368Y-115240000D02*
G01*
X226414368Y-113549351D01*
X226129092Y-113759277D01*
X226129092Y-113456905D01*
X226414368Y-113246978D01*
X226700010Y-113246978D01*
X226700010Y-115240000D01*
X226414368Y-115240000D01*
G37*
G36*
X227971660Y-113246978D02*
G01*
X227971660Y-113512714D01*
X227401109Y-113512714D01*
X227401109Y-114049926D01*
X227445043Y-114015013D01*
X227502714Y-113984713D01*
X227567376Y-113965039D01*
X227641200Y-113958213D01*
X227735504Y-113968618D01*
X227813877Y-113998198D01*
X227879825Y-114046507D01*
X227928727Y-114111185D01*
X227960114Y-114197257D01*
X227971660Y-114311388D01*
X227971660Y-114826985D01*
X227962518Y-114923939D01*
X227936489Y-115006259D01*
X227895198Y-115079532D01*
X227842700Y-115140715D01*
X227779410Y-115190037D01*
X227706779Y-115226200D01*
X227628159Y-115248240D01*
X227545701Y-115255631D01*
X227463137Y-115248238D01*
X227384501Y-115226200D01*
X227311878Y-115190011D01*
X227248579Y-115140593D01*
X227195986Y-115079282D01*
X227154668Y-115005893D01*
X227128828Y-114923556D01*
X227119741Y-114826374D01*
X227119741Y-114742233D01*
X227401109Y-114742233D01*
X227401109Y-114815261D01*
X227412068Y-114882020D01*
X227442386Y-114929078D01*
X227488970Y-114959259D01*
X227549242Y-114969745D01*
X227608734Y-114959383D01*
X227650359Y-114930544D01*
X227676436Y-114885471D01*
X227686018Y-114820879D01*
X227686018Y-114351688D01*
X227676401Y-114296674D01*
X227647917Y-114250572D01*
X227604906Y-114218991D01*
X227550830Y-114208318D01*
X227516037Y-114211799D01*
X227488914Y-114221385D01*
X227446660Y-114251671D01*
X227421381Y-114289162D01*
X227404406Y-114315174D01*
X227151004Y-114315174D01*
X227151004Y-113246978D01*
X227971660Y-113246978D01*
G37*
D13*
G36*
X175870087Y-99903268D02*
G01*
X175920313Y-99916581D01*
X175961507Y-99937451D01*
X175995237Y-99965717D01*
X176021954Y-100000919D01*
X176041741Y-100043334D01*
X176054350Y-100094422D01*
X176058862Y-100156043D01*
X176058862Y-100622119D01*
X176053855Y-100692744D01*
X176040123Y-100748939D01*
X176019030Y-100793468D01*
X175991085Y-100828504D01*
X175955436Y-100856403D01*
X175912178Y-100877074D01*
X175859745Y-100890268D01*
X175796118Y-100895000D01*
X175597732Y-100895000D01*
X175597732Y-100762131D01*
X175740553Y-100762131D01*
X175806010Y-100762131D01*
X175844731Y-100758189D01*
X175872034Y-100747764D01*
X175890945Y-100731906D01*
X175903936Y-100710230D01*
X175912710Y-100679591D01*
X175916041Y-100637079D01*
X175916041Y-100155005D01*
X175909499Y-100100336D01*
X175892349Y-100063658D01*
X175874013Y-100046779D01*
X175846429Y-100035623D01*
X175806010Y-100031357D01*
X175740553Y-100031357D01*
X175740553Y-100762131D01*
X175597732Y-100762131D01*
X175597732Y-99898489D01*
X175808757Y-99898489D01*
X175870087Y-99903268D01*
G37*
G36*
X176174145Y-100895000D02*
G01*
X176174145Y-100760483D01*
X176430416Y-100273951D01*
X176446321Y-100238014D01*
X176452704Y-100210143D01*
X176455512Y-100142121D01*
X176455512Y-100103592D01*
X176453675Y-100084021D01*
X176448490Y-100067749D01*
X176439807Y-100053643D01*
X176427486Y-100041859D01*
X176411466Y-100034280D01*
X176386941Y-100031357D01*
X176357402Y-100036149D01*
X176335833Y-100049553D01*
X176322051Y-100070948D01*
X176316966Y-100102798D01*
X176316966Y-100184192D01*
X176174145Y-100184192D01*
X176174145Y-100105668D01*
X176178377Y-100061988D01*
X176190875Y-100021587D01*
X176210826Y-99984670D01*
X176236915Y-99952894D01*
X176267392Y-99926595D01*
X176303899Y-99905938D01*
X176344156Y-99892839D01*
X176387613Y-99888414D01*
X176440756Y-99893789D01*
X176483173Y-99908747D01*
X176519726Y-99932817D01*
X176549485Y-99964129D01*
X176571102Y-100001276D01*
X176586427Y-100044057D01*
X176595296Y-100089845D01*
X176598333Y-100139373D01*
X176598333Y-100200373D01*
X176594120Y-100247329D01*
X176580015Y-100292208D01*
X176553271Y-100346857D01*
X176342184Y-100752056D01*
X176600104Y-100752056D01*
X176600104Y-100895000D01*
X176174145Y-100895000D01*
G37*
G36*
X176862910Y-100895000D02*
G01*
X176862910Y-100049675D01*
X176720272Y-100154638D01*
X176720272Y-100003452D01*
X176862910Y-99898489D01*
X177005731Y-99898489D01*
X177005731Y-100895000D01*
X176862910Y-100895000D01*
G37*
G36*
X80880087Y-113833267D02*
G01*
X80930313Y-113846580D01*
X80971507Y-113867450D01*
X81005237Y-113895716D01*
X81031954Y-113930918D01*
X81051741Y-113973333D01*
X81064350Y-114024421D01*
X81068862Y-114086042D01*
X81068862Y-114552118D01*
X81063855Y-114622743D01*
X81050123Y-114678938D01*
X81029030Y-114723467D01*
X81001085Y-114758503D01*
X80965436Y-114786402D01*
X80922178Y-114807073D01*
X80869745Y-114820267D01*
X80806118Y-114824999D01*
X80607732Y-114824999D01*
X80607732Y-114692130D01*
X80750553Y-114692130D01*
X80816010Y-114692130D01*
X80854731Y-114688188D01*
X80882034Y-114677763D01*
X80900945Y-114661905D01*
X80913936Y-114640229D01*
X80922710Y-114609590D01*
X80926041Y-114567078D01*
X80926041Y-114085004D01*
X80919499Y-114030335D01*
X80902349Y-113993657D01*
X80884013Y-113976778D01*
X80856429Y-113965622D01*
X80816010Y-113961356D01*
X80750553Y-113961356D01*
X80750553Y-114692130D01*
X80607732Y-114692130D01*
X80607732Y-113828488D01*
X80818757Y-113828488D01*
X80880087Y-113833267D01*
G37*
G36*
X81184145Y-114824999D02*
G01*
X81184145Y-114690482D01*
X81440416Y-114203950D01*
X81456321Y-114168013D01*
X81462704Y-114140142D01*
X81465512Y-114072120D01*
X81465512Y-114033591D01*
X81463675Y-114014020D01*
X81458490Y-113997748D01*
X81449807Y-113983642D01*
X81437486Y-113971858D01*
X81421466Y-113964279D01*
X81396941Y-113961356D01*
X81367402Y-113966148D01*
X81345833Y-113979552D01*
X81332051Y-114000947D01*
X81326966Y-114032797D01*
X81326966Y-114114191D01*
X81184145Y-114114191D01*
X81184145Y-114035667D01*
X81188377Y-113991987D01*
X81200875Y-113951586D01*
X81220826Y-113914669D01*
X81246915Y-113882893D01*
X81277392Y-113856594D01*
X81313899Y-113835937D01*
X81354156Y-113822838D01*
X81397613Y-113818413D01*
X81450756Y-113823788D01*
X81493173Y-113838746D01*
X81529726Y-113862816D01*
X81559485Y-113894128D01*
X81581102Y-113931275D01*
X81596427Y-113974056D01*
X81605296Y-114019844D01*
X81608333Y-114069372D01*
X81608333Y-114130372D01*
X81604120Y-114177328D01*
X81590015Y-114222207D01*
X81563271Y-114276856D01*
X81352184Y-114682055D01*
X81610104Y-114682055D01*
X81610104Y-114824999D01*
X81184145Y-114824999D01*
G37*
G36*
X82130830Y-113828488D02*
G01*
X82130830Y-113961356D01*
X81845554Y-113961356D01*
X81845554Y-114229962D01*
X81867521Y-114212505D01*
X81896357Y-114197355D01*
X81928688Y-114187518D01*
X81965600Y-114184105D01*
X82012752Y-114189308D01*
X82051938Y-114204098D01*
X82084912Y-114228252D01*
X82109363Y-114260591D01*
X82125057Y-114303627D01*
X82130830Y-114360693D01*
X82130830Y-114618491D01*
X82126259Y-114666968D01*
X82113244Y-114708128D01*
X82092599Y-114744765D01*
X82066350Y-114775356D01*
X82034705Y-114800017D01*
X81998389Y-114818099D01*
X81959079Y-114829119D01*
X81917850Y-114832814D01*
X81876568Y-114829118D01*
X81837250Y-114818099D01*
X81800939Y-114800004D01*
X81769289Y-114775295D01*
X81742993Y-114744640D01*
X81722334Y-114707945D01*
X81709414Y-114666777D01*
X81704870Y-114618186D01*
X81704870Y-114576115D01*
X81845554Y-114576115D01*
X81845554Y-114612629D01*
X81851034Y-114646009D01*
X81866193Y-114669538D01*
X81889485Y-114684628D01*
X81919621Y-114689871D01*
X81949367Y-114684690D01*
X81970179Y-114670271D01*
X81983218Y-114647734D01*
X81988009Y-114615438D01*
X81988009Y-114380843D01*
X81983200Y-114353336D01*
X81968958Y-114330285D01*
X81947453Y-114314494D01*
X81920415Y-114309158D01*
X81903018Y-114310898D01*
X81889457Y-114315691D01*
X81868330Y-114330834D01*
X81855690Y-114349580D01*
X81847203Y-114362586D01*
X81720502Y-114362586D01*
X81720502Y-113828488D01*
X82130830Y-113828488D01*
G37*
D12*
G36*
X60501057Y-106627733D02*
G01*
X60501057Y-107771706D01*
X60494719Y-107847055D01*
X60476402Y-107913971D01*
X60446497Y-107973990D01*
X60404520Y-108028252D01*
X60351962Y-108073304D01*
X60290031Y-108108211D01*
X60220294Y-108129889D01*
X60135608Y-108137612D01*
X60068330Y-108132166D01*
X60011933Y-108116827D01*
X59964425Y-108092458D01*
X59901013Y-108045595D01*
X59856347Y-108003065D01*
X60024325Y-107868517D01*
X60077814Y-107907444D01*
X60109175Y-107919279D01*
X60141928Y-107923197D01*
X60185983Y-107915870D01*
X60210130Y-107905422D01*
X60234343Y-107887477D01*
X60254765Y-107865381D01*
X60272079Y-107833896D01*
X60282727Y-107796113D01*
X60286825Y-107742305D01*
X60286825Y-106627733D01*
X60501057Y-106627733D01*
G37*
G36*
X60921368Y-108122500D02*
G01*
X60921368Y-106854513D01*
X60707411Y-107011958D01*
X60707411Y-106785178D01*
X60921368Y-106627733D01*
X61135600Y-106627733D01*
X61135600Y-108122500D01*
X60921368Y-108122500D01*
G37*
G36*
X175071354Y-119774952D02*
G01*
X175071354Y-119867459D01*
X175064758Y-119935198D01*
X175045159Y-119998801D01*
X175013957Y-120057432D01*
X174972893Y-120109077D01*
X174922915Y-120152358D01*
X174864816Y-120185830D01*
X174801021Y-120207047D01*
X174731826Y-120214223D01*
X174670998Y-120210080D01*
X174608086Y-120197370D01*
X174548443Y-120174248D01*
X174494971Y-120138477D01*
X174449739Y-120091255D01*
X174412173Y-120030308D01*
X174388507Y-119958558D01*
X174379658Y-119861140D01*
X174379658Y-119037278D01*
X174386057Y-118965689D01*
X174404754Y-118900716D01*
X174435359Y-118841580D01*
X174476103Y-118791448D01*
X174526256Y-118750438D01*
X174586104Y-118718907D01*
X174652509Y-118699376D01*
X174727612Y-118692621D01*
X174801568Y-118699169D01*
X174865990Y-118717972D01*
X174922672Y-118748543D01*
X174972893Y-118791448D01*
X175013708Y-118843751D01*
X175045159Y-118905936D01*
X175064663Y-118974268D01*
X175071354Y-119049918D01*
X175071354Y-119133998D01*
X174857122Y-119133998D01*
X174857122Y-119062465D01*
X174848067Y-119003189D01*
X174821585Y-118953289D01*
X174795074Y-118927564D01*
X174763594Y-118912325D01*
X174725506Y-118907035D01*
X174675352Y-118913400D01*
X174641761Y-118930174D01*
X174619993Y-118956403D01*
X174600942Y-119009832D01*
X174593889Y-119081425D01*
X174593889Y-119846485D01*
X174601334Y-119907789D01*
X174622099Y-119955662D01*
X174644441Y-119979176D01*
X174676947Y-119994186D01*
X174723399Y-119999808D01*
X174768279Y-119992481D01*
X174813250Y-119968301D01*
X174829923Y-119949014D01*
X174844483Y-119922048D01*
X174853694Y-119890506D01*
X174857122Y-119848592D01*
X174857122Y-119774952D01*
X175071354Y-119774952D01*
G37*
G36*
X175468493Y-120202500D02*
G01*
X175468493Y-118934513D01*
X175254536Y-119091958D01*
X175254536Y-118865178D01*
X175468493Y-118707733D01*
X175682724Y-118707733D01*
X175682724Y-120202500D01*
X175468493Y-120202500D01*
G37*
G36*
X176251230Y-119334949D02*
G01*
X176338882Y-119327887D01*
X176383213Y-119311868D01*
X176401523Y-119292924D01*
X176414382Y-119259611D01*
X176419574Y-119204890D01*
X176419574Y-119011907D01*
X176412310Y-118969336D01*
X176391456Y-118936436D01*
X176359300Y-118914698D01*
X176315710Y-118907035D01*
X176266167Y-118916608D01*
X176235659Y-118942664D01*
X176217363Y-118978870D01*
X176211754Y-119011907D01*
X176211754Y-119133632D01*
X175997523Y-119133632D01*
X175997523Y-119009709D01*
X176003778Y-118946100D01*
X176022435Y-118885878D01*
X176052340Y-118830885D01*
X176091129Y-118785036D01*
X176138266Y-118747396D01*
X176193253Y-118717808D01*
X176253302Y-118698989D01*
X176318183Y-118692621D01*
X176400574Y-118701881D01*
X176462897Y-118727242D01*
X176515230Y-118763853D01*
X176549267Y-118797493D01*
X176585812Y-118847776D01*
X176611824Y-118908592D01*
X176625097Y-118986228D01*
X176630600Y-119114214D01*
X176630600Y-119239969D01*
X176627069Y-119285865D01*
X176617686Y-119319745D01*
X176599688Y-119350781D01*
X176575920Y-119376348D01*
X176501915Y-119426632D01*
X176548685Y-119458992D01*
X176578851Y-119485708D01*
X176601845Y-119515139D01*
X176617869Y-119548814D01*
X176627204Y-119588676D01*
X176630600Y-119638299D01*
X176630600Y-119769915D01*
X176630600Y-119892097D01*
X176624280Y-119972056D01*
X176607427Y-120028934D01*
X176580133Y-120077386D01*
X176534773Y-120131135D01*
X176478009Y-120175297D01*
X176434949Y-120196006D01*
X176381446Y-120209378D01*
X176315069Y-120214223D01*
X176264104Y-120210178D01*
X176207816Y-120197370D01*
X176153720Y-120175213D01*
X176104776Y-120142507D01*
X176063022Y-120099672D01*
X176027931Y-120043589D01*
X176005638Y-119978129D01*
X175997523Y-119894021D01*
X175997523Y-119771747D01*
X176211754Y-119771747D01*
X176211754Y-119883671D01*
X176219058Y-119930777D01*
X176239781Y-119967110D01*
X176272309Y-119991411D01*
X176315710Y-119999808D01*
X176359016Y-119991412D01*
X176391456Y-119967110D01*
X176412097Y-119930218D01*
X176419574Y-119879458D01*
X176419574Y-119664036D01*
X176414781Y-119605529D01*
X176402910Y-119569164D01*
X176386327Y-119547898D01*
X176365079Y-119534484D01*
X176335402Y-119526741D01*
X176251230Y-119522527D01*
X176251230Y-119334949D01*
G37*
D11*
G36*
X111220174Y-113256537D02*
G01*
X111320626Y-113283162D01*
X111403014Y-113324902D01*
X111470474Y-113381434D01*
X111523908Y-113451838D01*
X111563483Y-113536669D01*
X111588701Y-113638844D01*
X111597725Y-113762086D01*
X111597725Y-114694239D01*
X111587710Y-114835489D01*
X111560247Y-114947878D01*
X111518060Y-115036936D01*
X111462170Y-115107009D01*
X111390872Y-115162806D01*
X111304357Y-115204148D01*
X111199491Y-115230537D01*
X111072236Y-115240000D01*
X110675464Y-115240000D01*
X110675464Y-114974263D01*
X110961106Y-114974263D01*
X111092020Y-114974263D01*
X111169462Y-114966378D01*
X111224069Y-114945528D01*
X111261891Y-114913813D01*
X111287873Y-114870461D01*
X111305420Y-114809183D01*
X111312083Y-114724159D01*
X111312083Y-113760010D01*
X111298999Y-113650672D01*
X111264699Y-113577316D01*
X111228026Y-113543558D01*
X111172858Y-113521247D01*
X111092020Y-113512714D01*
X110961106Y-113512714D01*
X110961106Y-114974263D01*
X110675464Y-114974263D01*
X110675464Y-113246978D01*
X111097515Y-113246978D01*
X111220174Y-113256537D01*
G37*
G36*
X112164368Y-115240000D02*
G01*
X112164368Y-113549351D01*
X111879092Y-113759277D01*
X111879092Y-113456905D01*
X112164368Y-113246978D01*
X112450010Y-113246978D01*
X112450010Y-115240000D01*
X112164368Y-115240000D01*
G37*
G36*
X113378159Y-113234218D02*
G01*
X113456779Y-113256259D01*
X113529410Y-113292422D01*
X113592700Y-113341744D01*
X113645190Y-113402946D01*
X113686489Y-113476322D01*
X113712513Y-113558551D01*
X113721660Y-113655596D01*
X113721660Y-114826985D01*
X113712518Y-114923939D01*
X113686489Y-115006259D01*
X113645198Y-115079532D01*
X113592700Y-115140715D01*
X113529410Y-115190037D01*
X113456779Y-115226200D01*
X113378159Y-115248240D01*
X113295701Y-115255631D01*
X113213137Y-115248238D01*
X113134501Y-115226200D01*
X113061870Y-115190037D01*
X112998579Y-115140715D01*
X112945985Y-115079523D01*
X112904668Y-115006259D01*
X112878823Y-114923953D01*
X112869741Y-114826985D01*
X112869741Y-113655596D01*
X112869752Y-113655474D01*
X113155383Y-113655474D01*
X113155383Y-114826863D01*
X113165407Y-114883861D01*
X113194584Y-114929200D01*
X113238953Y-114959366D01*
X113295823Y-114969745D01*
X113352461Y-114959372D01*
X113396695Y-114929200D01*
X113425968Y-114883851D01*
X113436018Y-114826863D01*
X113436018Y-113655474D01*
X113425969Y-113598612D01*
X113396695Y-113553381D01*
X113352451Y-113523114D01*
X113295823Y-113512714D01*
X113238963Y-113523120D01*
X113194584Y-113553381D01*
X113165406Y-113598602D01*
X113155383Y-113655474D01*
X112869752Y-113655474D01*
X112878828Y-113558538D01*
X112904668Y-113476322D01*
X112945992Y-113402955D01*
X112998579Y-113341744D01*
X113061870Y-113292422D01*
X113134501Y-113256259D01*
X113213137Y-113234221D01*
X113295701Y-113226828D01*
X113378159Y-113234218D01*
G37*
G36*
X84530255Y-92489485D02*
G01*
X84630707Y-92516110D01*
X84713095Y-92557850D01*
X84780555Y-92614382D01*
X84833989Y-92684786D01*
X84873564Y-92769617D01*
X84898782Y-92871792D01*
X84907806Y-92995034D01*
X84907806Y-93927187D01*
X84897791Y-94068437D01*
X84870328Y-94180826D01*
X84828141Y-94269884D01*
X84772251Y-94339957D01*
X84700953Y-94395754D01*
X84614438Y-94437096D01*
X84509572Y-94463485D01*
X84382317Y-94472948D01*
X83985545Y-94472948D01*
X83985545Y-94207211D01*
X84271187Y-94207211D01*
X84402101Y-94207211D01*
X84479543Y-94199326D01*
X84534150Y-94178476D01*
X84571972Y-94146761D01*
X84597954Y-94103409D01*
X84615501Y-94042131D01*
X84622164Y-93957107D01*
X84622164Y-92992958D01*
X84609080Y-92883620D01*
X84574780Y-92810264D01*
X84538107Y-92776506D01*
X84482939Y-92754195D01*
X84402101Y-92745662D01*
X84271187Y-92745662D01*
X84271187Y-94207211D01*
X83985545Y-94207211D01*
X83985545Y-92479926D01*
X84407596Y-92479926D01*
X84530255Y-92489485D01*
G37*
G36*
X85474449Y-94472948D02*
G01*
X85474449Y-92782299D01*
X85189173Y-92992225D01*
X85189173Y-92689853D01*
X85474449Y-92479926D01*
X85760091Y-92479926D01*
X85760091Y-94472948D01*
X85474449Y-94472948D01*
G37*
D13*
G36*
X244420087Y-99903268D02*
G01*
X244470313Y-99916581D01*
X244511507Y-99937451D01*
X244545237Y-99965717D01*
X244571954Y-100000919D01*
X244591741Y-100043334D01*
X244604350Y-100094422D01*
X244608862Y-100156043D01*
X244608862Y-100622119D01*
X244603855Y-100692744D01*
X244590123Y-100748939D01*
X244569030Y-100793468D01*
X244541085Y-100828504D01*
X244505436Y-100856403D01*
X244462178Y-100877074D01*
X244409745Y-100890268D01*
X244346118Y-100895000D01*
X244147732Y-100895000D01*
X244147732Y-100762131D01*
X244290553Y-100762131D01*
X244356010Y-100762131D01*
X244394731Y-100758189D01*
X244422034Y-100747764D01*
X244440945Y-100731906D01*
X244453936Y-100710230D01*
X244462710Y-100679591D01*
X244466041Y-100637079D01*
X244466041Y-100155005D01*
X244459499Y-100100336D01*
X244442349Y-100063658D01*
X244424013Y-100046779D01*
X244396429Y-100035623D01*
X244356010Y-100031357D01*
X244290553Y-100031357D01*
X244290553Y-100762131D01*
X244147732Y-100762131D01*
X244147732Y-99898489D01*
X244358757Y-99898489D01*
X244420087Y-99903268D01*
G37*
G36*
X244724145Y-100895000D02*
G01*
X244724145Y-100760483D01*
X244980416Y-100273951D01*
X244996321Y-100238014D01*
X245002704Y-100210143D01*
X245005512Y-100142121D01*
X245005512Y-100103592D01*
X245003675Y-100084021D01*
X244998490Y-100067749D01*
X244989807Y-100053643D01*
X244977486Y-100041859D01*
X244961466Y-100034280D01*
X244936941Y-100031357D01*
X244907402Y-100036149D01*
X244885833Y-100049553D01*
X244872051Y-100070948D01*
X244866966Y-100102798D01*
X244866966Y-100184192D01*
X244724145Y-100184192D01*
X244724145Y-100105668D01*
X244728377Y-100061988D01*
X244740875Y-100021587D01*
X244760826Y-99984670D01*
X244786915Y-99952894D01*
X244817392Y-99926595D01*
X244853899Y-99905938D01*
X244894156Y-99892839D01*
X244937613Y-99888414D01*
X244990756Y-99893789D01*
X245033173Y-99908747D01*
X245069726Y-99932817D01*
X245099485Y-99964129D01*
X245121102Y-100001276D01*
X245136427Y-100044057D01*
X245145296Y-100089845D01*
X245148333Y-100139373D01*
X245148333Y-100200373D01*
X245144120Y-100247329D01*
X245130015Y-100292208D01*
X245103271Y-100346857D01*
X244892184Y-100752056D01*
X245150104Y-100752056D01*
X245150104Y-100895000D01*
X244724145Y-100895000D01*
G37*
G36*
X245494975Y-100895000D02*
G01*
X245494975Y-100746500D01*
X245209699Y-100746500D01*
X245209699Y-100613632D01*
X245416268Y-99898489D01*
X245567759Y-99898489D01*
X245353070Y-100613632D01*
X245494975Y-100613632D01*
X245494975Y-100328356D01*
X245637796Y-100328356D01*
X245637796Y-100613632D01*
X245706001Y-100613632D01*
X245706001Y-100746500D01*
X245637796Y-100746500D01*
X245637796Y-100895000D01*
X245494975Y-100895000D01*
G37*
D12*
G36*
X170841898Y-95854952D02*
G01*
X170841898Y-95947459D01*
X170835302Y-96015198D01*
X170815703Y-96078801D01*
X170784501Y-96137432D01*
X170743437Y-96189077D01*
X170693459Y-96232358D01*
X170635360Y-96265830D01*
X170571565Y-96287047D01*
X170502370Y-96294223D01*
X170441542Y-96290080D01*
X170378630Y-96277370D01*
X170318987Y-96254248D01*
X170265515Y-96218477D01*
X170220283Y-96171255D01*
X170182717Y-96110308D01*
X170159051Y-96038558D01*
X170150202Y-95941140D01*
X170150202Y-95117278D01*
X170156601Y-95045689D01*
X170175298Y-94980716D01*
X170205903Y-94921580D01*
X170246647Y-94871448D01*
X170296800Y-94830438D01*
X170356648Y-94798907D01*
X170423053Y-94779376D01*
X170498156Y-94772621D01*
X170572112Y-94779169D01*
X170636534Y-94797972D01*
X170693216Y-94828543D01*
X170743437Y-94871448D01*
X170784252Y-94923751D01*
X170815703Y-94985936D01*
X170835207Y-95054268D01*
X170841898Y-95129918D01*
X170841898Y-95213998D01*
X170627666Y-95213998D01*
X170627666Y-95142465D01*
X170618611Y-95083189D01*
X170592129Y-95033289D01*
X170565618Y-95007564D01*
X170534138Y-94992325D01*
X170496050Y-94987035D01*
X170445896Y-94993400D01*
X170412305Y-95010174D01*
X170390537Y-95036403D01*
X170371486Y-95089832D01*
X170364433Y-95161425D01*
X170364433Y-95926485D01*
X170371878Y-95987789D01*
X170392643Y-96035662D01*
X170414985Y-96059176D01*
X170447491Y-96074186D01*
X170493943Y-96079808D01*
X170538823Y-96072481D01*
X170583794Y-96048301D01*
X170600467Y-96029014D01*
X170615027Y-96002048D01*
X170624238Y-95970506D01*
X170627666Y-95928592D01*
X170627666Y-95854952D01*
X170841898Y-95854952D01*
G37*
G36*
X171625917Y-94787733D02*
G01*
X171625917Y-94987035D01*
X171198004Y-94987035D01*
X171198004Y-95389945D01*
X171230954Y-95363759D01*
X171274208Y-95341035D01*
X171322704Y-95326279D01*
X171378072Y-95321160D01*
X171448800Y-95328963D01*
X171507580Y-95351148D01*
X171557041Y-95387380D01*
X171593717Y-95435889D01*
X171617257Y-95500443D01*
X171625917Y-95586041D01*
X171625917Y-95972739D01*
X171619061Y-96045454D01*
X171599539Y-96107194D01*
X171568570Y-96162149D01*
X171529197Y-96208036D01*
X171481729Y-96245027D01*
X171427256Y-96272150D01*
X171368291Y-96288680D01*
X171306448Y-96294223D01*
X171244524Y-96288678D01*
X171185547Y-96272150D01*
X171131081Y-96245008D01*
X171083606Y-96207944D01*
X171044162Y-96161961D01*
X171013173Y-96106919D01*
X170993793Y-96045167D01*
X170986978Y-95972281D01*
X170986978Y-95909174D01*
X171198004Y-95909174D01*
X171198004Y-95963946D01*
X171206223Y-96014015D01*
X171228962Y-96049309D01*
X171263899Y-96071944D01*
X171309104Y-96079808D01*
X171353723Y-96072037D01*
X171384941Y-96050408D01*
X171404499Y-96016603D01*
X171411686Y-95968159D01*
X171411686Y-95616266D01*
X171404473Y-95575005D01*
X171383109Y-95540429D01*
X171350851Y-95516743D01*
X171310294Y-95508738D01*
X171284200Y-95511349D01*
X171263858Y-95518538D01*
X171232167Y-95541253D01*
X171213208Y-95569371D01*
X171200477Y-95588880D01*
X171010425Y-95588880D01*
X171010425Y-94787733D01*
X171625917Y-94787733D01*
G37*
D13*
G36*
X217980087Y-113833268D02*
G01*
X218030313Y-113846581D01*
X218071507Y-113867451D01*
X218105237Y-113895717D01*
X218131954Y-113930919D01*
X218151741Y-113973334D01*
X218164350Y-114024422D01*
X218168862Y-114086043D01*
X218168862Y-114552119D01*
X218163855Y-114622744D01*
X218150123Y-114678939D01*
X218129030Y-114723468D01*
X218101085Y-114758504D01*
X218065436Y-114786403D01*
X218022178Y-114807074D01*
X217969745Y-114820268D01*
X217906118Y-114825000D01*
X217707732Y-114825000D01*
X217707732Y-114692131D01*
X217850553Y-114692131D01*
X217916010Y-114692131D01*
X217954731Y-114688189D01*
X217982034Y-114677764D01*
X218000945Y-114661906D01*
X218013936Y-114640230D01*
X218022710Y-114609591D01*
X218026041Y-114567079D01*
X218026041Y-114085005D01*
X218019499Y-114030336D01*
X218002349Y-113993658D01*
X217984013Y-113976779D01*
X217956429Y-113965623D01*
X217916010Y-113961357D01*
X217850553Y-113961357D01*
X217850553Y-114692131D01*
X217707732Y-114692131D01*
X217707732Y-113828489D01*
X217918757Y-113828489D01*
X217980087Y-113833268D01*
G37*
G36*
X218453283Y-114246632D02*
G01*
X218511717Y-114241925D01*
X218541271Y-114231245D01*
X218553478Y-114218616D01*
X218562051Y-114196407D01*
X218565512Y-114159926D01*
X218565512Y-114031271D01*
X218560670Y-114002891D01*
X218546767Y-113980957D01*
X218525330Y-113966465D01*
X218496270Y-113961357D01*
X218463241Y-113967739D01*
X218442903Y-113985109D01*
X218430705Y-114009246D01*
X218426966Y-114031271D01*
X218426966Y-114112421D01*
X218284145Y-114112421D01*
X218284145Y-114029806D01*
X218288315Y-113987400D01*
X218300753Y-113947252D01*
X218320690Y-113910590D01*
X218346549Y-113880024D01*
X218377974Y-113854930D01*
X218414631Y-113835205D01*
X218454664Y-113822659D01*
X218497918Y-113818414D01*
X218552846Y-113824587D01*
X218594394Y-113841495D01*
X218629283Y-113865902D01*
X218651974Y-113888328D01*
X218676338Y-113921851D01*
X218693679Y-113962395D01*
X218702528Y-114014152D01*
X218706196Y-114099476D01*
X218706196Y-114183312D01*
X218703842Y-114213910D01*
X218697587Y-114236496D01*
X218685588Y-114257187D01*
X218669743Y-114274232D01*
X218620406Y-114307754D01*
X218651587Y-114329328D01*
X218671697Y-114347138D01*
X218687026Y-114366759D01*
X218697709Y-114389209D01*
X218703933Y-114415784D01*
X218706196Y-114448866D01*
X218706196Y-114536610D01*
X218706196Y-114618065D01*
X218701983Y-114671371D01*
X218690748Y-114709289D01*
X218672552Y-114741591D01*
X218642311Y-114777423D01*
X218604469Y-114806864D01*
X218575762Y-114820670D01*
X218540094Y-114829585D01*
X218495842Y-114832815D01*
X218461865Y-114830119D01*
X218424340Y-114821580D01*
X218388276Y-114806809D01*
X218355647Y-114785005D01*
X218327811Y-114756448D01*
X218304417Y-114719059D01*
X218289555Y-114675419D01*
X218284145Y-114619347D01*
X218284145Y-114537831D01*
X218426966Y-114537831D01*
X218426966Y-114612447D01*
X218431835Y-114643851D01*
X218445650Y-114668073D01*
X218467335Y-114684274D01*
X218496270Y-114689872D01*
X218525140Y-114684274D01*
X218546767Y-114668073D01*
X218560527Y-114643478D01*
X218565512Y-114609638D01*
X218565512Y-114466024D01*
X218562317Y-114427019D01*
X218554403Y-114402776D01*
X218543347Y-114388599D01*
X218529182Y-114379656D01*
X218509398Y-114374494D01*
X218453283Y-114371685D01*
X218453283Y-114246632D01*
G37*
G36*
X218972910Y-114825000D02*
G01*
X218972910Y-113979675D01*
X218830272Y-114084638D01*
X218830272Y-113933452D01*
X218972910Y-113828489D01*
X219115731Y-113828489D01*
X219115731Y-114825000D01*
X218972910Y-114825000D01*
G37*
D12*
G36*
X243621354Y-119774952D02*
G01*
X243621354Y-119867459D01*
X243614758Y-119935198D01*
X243595159Y-119998801D01*
X243563957Y-120057432D01*
X243522893Y-120109077D01*
X243472915Y-120152358D01*
X243414816Y-120185830D01*
X243351021Y-120207047D01*
X243281826Y-120214223D01*
X243220998Y-120210080D01*
X243158086Y-120197370D01*
X243098443Y-120174248D01*
X243044971Y-120138477D01*
X242999739Y-120091255D01*
X242962173Y-120030308D01*
X242938507Y-119958558D01*
X242929658Y-119861140D01*
X242929658Y-119037278D01*
X242936057Y-118965689D01*
X242954754Y-118900716D01*
X242985359Y-118841580D01*
X243026103Y-118791448D01*
X243076256Y-118750438D01*
X243136104Y-118718907D01*
X243202509Y-118699376D01*
X243277612Y-118692621D01*
X243351568Y-118699169D01*
X243415990Y-118717972D01*
X243472672Y-118748543D01*
X243522893Y-118791448D01*
X243563708Y-118843751D01*
X243595159Y-118905936D01*
X243614663Y-118974268D01*
X243621354Y-119049918D01*
X243621354Y-119133998D01*
X243407122Y-119133998D01*
X243407122Y-119062465D01*
X243398067Y-119003189D01*
X243371585Y-118953289D01*
X243345074Y-118927564D01*
X243313594Y-118912325D01*
X243275506Y-118907035D01*
X243225352Y-118913400D01*
X243191761Y-118930174D01*
X243169993Y-118956403D01*
X243150942Y-119009832D01*
X243143889Y-119081425D01*
X243143889Y-119846485D01*
X243151334Y-119907789D01*
X243172099Y-119955662D01*
X243194441Y-119979176D01*
X243226947Y-119994186D01*
X243273399Y-119999808D01*
X243318279Y-119992481D01*
X243363250Y-119968301D01*
X243379923Y-119949014D01*
X243394483Y-119922048D01*
X243403694Y-119890506D01*
X243407122Y-119848592D01*
X243407122Y-119774952D01*
X243621354Y-119774952D01*
G37*
G36*
X244018493Y-120202500D02*
G01*
X244018493Y-118934513D01*
X243804536Y-119091958D01*
X243804536Y-118865178D01*
X244018493Y-118707733D01*
X244232724Y-118707733D01*
X244232724Y-120202500D01*
X244018493Y-120202500D01*
G37*
G36*
X244869465Y-119336323D02*
G01*
X244873678Y-119340536D01*
X244906560Y-119326889D01*
X244964811Y-119321577D01*
X245020095Y-119328461D01*
X245070874Y-119348962D01*
X245114882Y-119380400D01*
X245147261Y-119418297D01*
X245170525Y-119464642D01*
X245185454Y-119525550D01*
X245189668Y-119621354D01*
X245189668Y-119767442D01*
X245189668Y-119888434D01*
X245185454Y-119967294D01*
X245169517Y-120024080D01*
X245145063Y-120072440D01*
X245095493Y-120134051D01*
X245031673Y-120179785D01*
X244957170Y-120207914D01*
X244871572Y-120217612D01*
X244786185Y-120207621D01*
X244712478Y-120178686D01*
X244649344Y-120132636D01*
X244600096Y-120072532D01*
X244573534Y-120024172D01*
X244559796Y-119967294D01*
X244553384Y-119888525D01*
X244553384Y-119767534D01*
X244553384Y-119653045D01*
X244555251Y-119618057D01*
X244767616Y-119618057D01*
X244767616Y-119895944D01*
X244775646Y-119940195D01*
X244798757Y-119973797D01*
X244832722Y-119995906D01*
X244871572Y-120003197D01*
X244910327Y-119995907D01*
X244944203Y-119973797D01*
X244967385Y-119940187D01*
X244975436Y-119895944D01*
X244975436Y-119618057D01*
X244967389Y-119573893D01*
X244944203Y-119540296D01*
X244910320Y-119518114D01*
X244871572Y-119510804D01*
X244832729Y-119518115D01*
X244798757Y-119540296D01*
X244775642Y-119573886D01*
X244767616Y-119618057D01*
X244555251Y-119618057D01*
X244557598Y-119574093D01*
X244570420Y-119516299D01*
X244589471Y-119460520D01*
X244873587Y-118707733D01*
X245113281Y-118707733D01*
X244869465Y-119336323D01*
G37*
D11*
G36*
X134070174Y-113256537D02*
G01*
X134170626Y-113283162D01*
X134253014Y-113324902D01*
X134320474Y-113381434D01*
X134373908Y-113451838D01*
X134413483Y-113536669D01*
X134438701Y-113638844D01*
X134447725Y-113762086D01*
X134447725Y-114694239D01*
X134437710Y-114835489D01*
X134410247Y-114947878D01*
X134368060Y-115036936D01*
X134312170Y-115107009D01*
X134240872Y-115162806D01*
X134154357Y-115204148D01*
X134049491Y-115230537D01*
X133922236Y-115240000D01*
X133525464Y-115240000D01*
X133525464Y-114974263D01*
X133811106Y-114974263D01*
X133942020Y-114974263D01*
X134019462Y-114966378D01*
X134074069Y-114945528D01*
X134111891Y-114913813D01*
X134137873Y-114870461D01*
X134155420Y-114809183D01*
X134162083Y-114724159D01*
X134162083Y-113760010D01*
X134148999Y-113650672D01*
X134114699Y-113577316D01*
X134078026Y-113543558D01*
X134022858Y-113521247D01*
X133942020Y-113512714D01*
X133811106Y-113512714D01*
X133811106Y-114974263D01*
X133525464Y-114974263D01*
X133525464Y-113246978D01*
X133947515Y-113246978D01*
X134070174Y-113256537D01*
G37*
G36*
X135014368Y-115240000D02*
G01*
X135014368Y-113549351D01*
X134729092Y-113759277D01*
X134729092Y-113456905D01*
X135014368Y-113246978D01*
X135300010Y-113246978D01*
X135300010Y-115240000D01*
X135014368Y-115240000D01*
G37*
G36*
X136055820Y-115240000D02*
G01*
X136055820Y-113549351D01*
X135770544Y-113759277D01*
X135770544Y-113456905D01*
X136055820Y-113246978D01*
X136341462Y-113246978D01*
X136341462Y-115240000D01*
X136055820Y-115240000D01*
G37*
%TO.C,D8*%
X242400000Y-94670000D02*
X242540000Y-94670000D01*
X242400000Y-99670000D02*
X242400000Y-94670000D01*
X242400000Y-99670000D02*
X242540000Y-99670000D01*
X243880000Y-94670000D02*
X245920000Y-94670000D01*
X243890000Y-99670000D02*
X245930000Y-99670000D01*
X244930192Y-94670192D02*
X247400287Y-97140287D01*
X247260000Y-94670000D02*
X247400000Y-94670000D01*
X247260000Y-99670000D02*
X247400000Y-99670000D01*
X247400000Y-99670000D02*
X247400000Y-94670000D01*
X246691178Y-97170000D02*
G75*
G02*
X243108822Y-97170000I-1791178J0D01*
G01*
X243108822Y-97170000D02*
G75*
G02*
X246691178Y-97170000I1791178J0D01*
G01*
%TO.C,D14*%
X196700000Y-111910000D02*
X196840000Y-111910000D01*
X196700000Y-116910000D02*
X196700000Y-111910000D01*
X196700000Y-116910000D02*
X196840000Y-116910000D01*
X198180000Y-111910000D02*
X200220000Y-111910000D01*
X198190000Y-116910000D02*
X200230000Y-116910000D01*
X199230192Y-111910192D02*
X201700287Y-114380287D01*
X201560000Y-111910000D02*
X201700000Y-111910000D01*
X201560000Y-116910000D02*
X201700000Y-116910000D01*
X201700000Y-116910000D02*
X201700000Y-111910000D01*
X200991178Y-114410000D02*
G75*
G02*
X197408822Y-114410000I-1791178J0D01*
G01*
X197408822Y-114410000D02*
G75*
G02*
X200991178Y-114410000I1791178J0D01*
G01*
%TO.C,D13*%
X173850000Y-111910000D02*
X173990000Y-111910000D01*
X173850000Y-116910000D02*
X173850000Y-111910000D01*
X173850000Y-116910000D02*
X173990000Y-116910000D01*
X175330000Y-111910000D02*
X177370000Y-111910000D01*
X175340000Y-116910000D02*
X177380000Y-116910000D01*
X176380192Y-111910192D02*
X178850287Y-114380287D01*
X178710000Y-111910000D02*
X178850000Y-111910000D01*
X178710000Y-116910000D02*
X178850000Y-116910000D01*
X178850000Y-116910000D02*
X178850000Y-111910000D01*
X178141178Y-114410000D02*
G75*
G02*
X174558822Y-114410000I-1791178J0D01*
G01*
X174558822Y-114410000D02*
G75*
G02*
X178141178Y-114410000I1791178J0D01*
G01*
D14*
%TO.C,J2*%
X56250000Y-118030000D02*
X56250000Y-120690000D01*
X63930000Y-118030000D02*
X56250000Y-118030000D01*
X63930000Y-118030000D02*
X63930000Y-120690000D01*
X63930000Y-120690000D02*
X56250000Y-120690000D01*
X65200000Y-118030000D02*
X66530000Y-118030000D01*
X66530000Y-118030000D02*
X66530000Y-119360000D01*
%TO.C,C2*%
X103677500Y-97414724D02*
X103677500Y-96905276D01*
X104722500Y-97414724D02*
X104722500Y-96905276D01*
%TO.C,C1*%
X80827500Y-97424724D02*
X80827500Y-96915276D01*
X81872500Y-97424724D02*
X81872500Y-96915276D01*
D11*
%TO.C,D12*%
X151000000Y-111910000D02*
X151140000Y-111910000D01*
X151000000Y-116910000D02*
X151000000Y-111910000D01*
X151000000Y-116910000D02*
X151140000Y-116910000D01*
X152480000Y-111910000D02*
X154520000Y-111910000D01*
X152490000Y-116910000D02*
X154530000Y-116910000D01*
X153530192Y-111910192D02*
X156000287Y-114380287D01*
X155860000Y-111910000D02*
X156000000Y-111910000D01*
X155860000Y-116910000D02*
X156000000Y-116910000D01*
X156000000Y-116910000D02*
X156000000Y-111910000D01*
X155291178Y-114410000D02*
G75*
G02*
X151708822Y-114410000I-1791178J0D01*
G01*
X151708822Y-114410000D02*
G75*
G02*
X155291178Y-114410000I1791178J0D01*
G01*
D14*
%TO.C,SW8*%
X237865000Y-96845000D02*
X239200000Y-96845000D01*
X237865000Y-110815000D02*
X237865000Y-96845000D01*
X250500000Y-96845000D02*
X251835000Y-96845000D01*
X251835000Y-96845000D02*
X251835000Y-110815000D01*
X251835000Y-110815000D02*
X237865000Y-110815000D01*
%TO.C,C7*%
X217927500Y-97422224D02*
X217927500Y-96912776D01*
X218972500Y-97422224D02*
X218972500Y-96912776D01*
%TO.C,JP1*%
X87680000Y-95670000D02*
X87680000Y-96270000D01*
X87980000Y-95970000D02*
X87680000Y-95670000D01*
X87980000Y-95970000D02*
X87680000Y-96270000D01*
X88180000Y-98570000D02*
X88180000Y-95770000D01*
X88880000Y-95120000D02*
X89480000Y-95120000D01*
X89480000Y-99220000D02*
X88880000Y-99220000D01*
X90180000Y-95770000D02*
X90180000Y-98570000D01*
X88180000Y-95820000D02*
G75*
G02*
X88880000Y-95120000I699999J1D01*
G01*
X88880000Y-99220000D02*
G75*
G02*
X88180000Y-98520000I0J700000D01*
G01*
X89480000Y-95120000D02*
G75*
G02*
X90180000Y-95820000I1J-699999D01*
G01*
X90180000Y-98520000D02*
G75*
G02*
X89480000Y-99220000I-700000J0D01*
G01*
D12*
%TO.C,D26*%
X106815000Y-113370000D02*
X108815000Y-113370000D01*
X106815000Y-115450000D02*
X108815000Y-115450000D01*
X107995000Y-113650000D02*
X108195000Y-113650000D01*
X108195000Y-115170000D01*
X107995000Y-115170000D01*
X107995000Y-113650000D01*
G36*
X107995000Y-113650000D02*
G01*
X108195000Y-113650000D01*
X108195000Y-115170000D01*
X107995000Y-115170000D01*
X107995000Y-113650000D01*
G37*
%TO.C,D23*%
X221065000Y-96130000D02*
X223065000Y-96130000D01*
X221065000Y-98210000D02*
X223065000Y-98210000D01*
X222245000Y-96410000D02*
X222445000Y-96410000D01*
X222445000Y-97930000D01*
X222245000Y-97930000D01*
X222245000Y-96410000D01*
G36*
X222245000Y-96410000D02*
G01*
X222445000Y-96410000D01*
X222445000Y-97930000D01*
X222245000Y-97930000D01*
X222245000Y-96410000D01*
G37*
D14*
%TO.C,C11*%
X129545276Y-117297500D02*
X130054724Y-117297500D01*
X129545276Y-118342500D02*
X130054724Y-118342500D01*
D11*
%TO.C,D4*%
X151000000Y-94670000D02*
X151140000Y-94670000D01*
X151000000Y-99670000D02*
X151000000Y-94670000D01*
X151000000Y-99670000D02*
X151140000Y-99670000D01*
X152480000Y-94670000D02*
X154520000Y-94670000D01*
X152490000Y-99670000D02*
X154530000Y-99670000D01*
X153530192Y-94670192D02*
X156000287Y-97140287D01*
X155860000Y-94670000D02*
X156000000Y-94670000D01*
X155860000Y-99670000D02*
X156000000Y-99670000D01*
X156000000Y-99670000D02*
X156000000Y-94670000D01*
X155291178Y-97170000D02*
G75*
G02*
X151708822Y-97170000I-1791178J0D01*
G01*
X151708822Y-97170000D02*
G75*
G02*
X155291178Y-97170000I1791178J0D01*
G01*
%TO.C,D7*%
X219550000Y-94670000D02*
X219690000Y-94670000D01*
X219550000Y-99670000D02*
X219550000Y-94670000D01*
X219550000Y-99670000D02*
X219690000Y-99670000D01*
X221030000Y-94670000D02*
X223070000Y-94670000D01*
X221040000Y-99670000D02*
X223080000Y-99670000D01*
X222080192Y-94670192D02*
X224550287Y-97140287D01*
X224410000Y-94670000D02*
X224550000Y-94670000D01*
X224410000Y-99670000D02*
X224550000Y-99670000D01*
X224550000Y-99670000D02*
X224550000Y-94670000D01*
X223841178Y-97170000D02*
G75*
G02*
X220258822Y-97170000I-1791178J0D01*
G01*
X220258822Y-97170000D02*
G75*
G02*
X223841178Y-97170000I1791178J0D01*
G01*
D14*
%TO.C,SW4*%
X146465000Y-96845000D02*
X147800000Y-96845000D01*
X146465000Y-110815000D02*
X146465000Y-96845000D01*
X159100000Y-96845000D02*
X160435000Y-96845000D01*
X160435000Y-96845000D02*
X160435000Y-110815000D01*
X160435000Y-110815000D02*
X146465000Y-110815000D01*
%TO.C,C12*%
X152395276Y-117297500D02*
X152904724Y-117297500D01*
X152395276Y-118342500D02*
X152904724Y-118342500D01*
D11*
%TO.C,D3*%
X128150000Y-94680000D02*
X128290000Y-94680000D01*
X128150000Y-99680000D02*
X128150000Y-94680000D01*
X128150000Y-99680000D02*
X128290000Y-99680000D01*
X129630000Y-94680000D02*
X131670000Y-94680000D01*
X129640000Y-99680000D02*
X131680000Y-99680000D01*
X130680192Y-94680192D02*
X133150287Y-97150287D01*
X133010000Y-94680000D02*
X133150000Y-94680000D01*
X133010000Y-99680000D02*
X133150000Y-99680000D01*
X133150000Y-99680000D02*
X133150000Y-94680000D01*
X132441178Y-97180000D02*
G75*
G02*
X128858822Y-97180000I-1791178J0D01*
G01*
X128858822Y-97180000D02*
G75*
G02*
X132441178Y-97180000I1791178J0D01*
G01*
D12*
%TO.C,D28*%
X152515000Y-113370000D02*
X154515000Y-113370000D01*
X152515000Y-115450000D02*
X154515000Y-115450000D01*
X153695000Y-113650000D02*
X153895000Y-113650000D01*
X153895000Y-115170000D01*
X153695000Y-115170000D01*
X153695000Y-113650000D01*
G36*
X153695000Y-113650000D02*
G01*
X153895000Y-113650000D01*
X153895000Y-115170000D01*
X153695000Y-115170000D01*
X153695000Y-113650000D01*
G37*
%TO.C,D27*%
X129665000Y-113370000D02*
X131665000Y-113370000D01*
X129665000Y-115450000D02*
X131665000Y-115450000D01*
X130845000Y-113650000D02*
X131045000Y-113650000D01*
X131045000Y-115170000D01*
X130845000Y-115170000D01*
X130845000Y-113650000D01*
G36*
X130845000Y-113650000D02*
G01*
X131045000Y-113650000D01*
X131045000Y-115170000D01*
X130845000Y-115170000D01*
X130845000Y-113650000D01*
G37*
%TO.C,D20*%
X152515000Y-96130001D02*
X154515000Y-96130001D01*
X152515000Y-98210001D02*
X154515000Y-98210001D01*
X153695000Y-96410001D02*
X153895000Y-96410001D01*
X153895000Y-97930001D01*
X153695000Y-97930001D01*
X153695000Y-96410001D01*
G36*
X153695000Y-96410001D02*
G01*
X153895000Y-96410001D01*
X153895000Y-97930001D01*
X153695000Y-97930001D01*
X153695000Y-96410001D01*
G37*
D14*
%TO.C,C14*%
X198095276Y-117297500D02*
X198604724Y-117297500D01*
X198095276Y-118342500D02*
X198604724Y-118342500D01*
D11*
%TO.C,D16*%
X242400000Y-111910000D02*
X242540000Y-111910000D01*
X242400000Y-116910000D02*
X242400000Y-111910000D01*
X242400000Y-116910000D02*
X242540000Y-116910000D01*
X243880000Y-111910000D02*
X245920000Y-111910000D01*
X243890000Y-116910000D02*
X245930000Y-116910000D01*
X244930192Y-111910192D02*
X247400287Y-114380287D01*
X247260000Y-111910000D02*
X247400000Y-111910000D01*
X247260000Y-116910000D02*
X247400000Y-116910000D01*
X247400000Y-116910000D02*
X247400000Y-111910000D01*
X246691178Y-114410000D02*
G75*
G02*
X243108822Y-114410000I-1791178J0D01*
G01*
X243108822Y-114410000D02*
G75*
G02*
X246691178Y-114410000I1791178J0D01*
G01*
%TO.C,D9*%
X82450000Y-111910000D02*
X82590000Y-111910000D01*
X82450000Y-116910000D02*
X82450000Y-111910000D01*
X82450000Y-116910000D02*
X82590000Y-116910000D01*
X83930000Y-111910000D02*
X85970000Y-111910000D01*
X83940000Y-116910000D02*
X85980000Y-116910000D01*
X84980192Y-111910192D02*
X87450287Y-114380287D01*
X87310000Y-111910000D02*
X87450000Y-111910000D01*
X87310000Y-116910000D02*
X87450000Y-116910000D01*
X87450000Y-116910000D02*
X87450000Y-111910000D01*
X86741178Y-114410000D02*
G75*
G02*
X83158822Y-114410000I-1791178J0D01*
G01*
X83158822Y-114410000D02*
G75*
G02*
X86741178Y-114410000I1791178J0D01*
G01*
D14*
%TO.C,SW6*%
X192165000Y-96845000D02*
X193500000Y-96845000D01*
X192165000Y-110815000D02*
X192165000Y-96845000D01*
X204800000Y-96845000D02*
X206135000Y-96845000D01*
X206135000Y-96845000D02*
X206135000Y-110815000D01*
X206135000Y-110815000D02*
X192165000Y-110815000D01*
%TO.C,C9*%
X83845276Y-117297500D02*
X84354724Y-117297500D01*
X83845276Y-118342500D02*
X84354724Y-118342500D01*
D12*
%TO.C,D30*%
X198215000Y-113370000D02*
X200215000Y-113370000D01*
X198215000Y-115450000D02*
X200215000Y-115450000D01*
X199395000Y-113650000D02*
X199595000Y-113650000D01*
X199595000Y-115170000D01*
X199395000Y-115170000D01*
X199395000Y-113650000D01*
G36*
X199395000Y-113650000D02*
G01*
X199595000Y-113650000D01*
X199595000Y-115170000D01*
X199395000Y-115170000D01*
X199395000Y-113650000D01*
G37*
D11*
%TO.C,D6*%
X196700000Y-94670000D02*
X196840000Y-94670000D01*
X196700000Y-99670000D02*
X196700000Y-94670000D01*
X196700000Y-99670000D02*
X196840000Y-99670000D01*
X198180000Y-94670000D02*
X200220000Y-94670000D01*
X198190000Y-99670000D02*
X200230000Y-99670000D01*
X199230192Y-94670192D02*
X201700287Y-97140287D01*
X201560000Y-94670000D02*
X201700000Y-94670000D01*
X201560000Y-99670000D02*
X201700000Y-99670000D01*
X201700000Y-99670000D02*
X201700000Y-94670000D01*
X200991178Y-97170000D02*
G75*
G02*
X197408822Y-97170000I-1791178J0D01*
G01*
X197408822Y-97170000D02*
G75*
G02*
X200991178Y-97170000I1791178J0D01*
G01*
D14*
%TO.C,SW2*%
X100765000Y-96845000D02*
X102100000Y-96845000D01*
X100765000Y-110815000D02*
X100765000Y-96845000D01*
X113400000Y-96845000D02*
X114735000Y-96845000D01*
X114735000Y-96845000D02*
X114735000Y-110815000D01*
X114735000Y-110815000D02*
X100765000Y-110815000D01*
D12*
%TO.C,D22*%
X198215000Y-96130001D02*
X200215000Y-96130001D01*
X198215000Y-98210001D02*
X200215000Y-98210001D01*
X199395000Y-96410001D02*
X199595000Y-96410001D01*
X199595000Y-97930001D01*
X199395000Y-97930001D01*
X199395000Y-96410001D01*
G36*
X199395000Y-96410001D02*
G01*
X199595000Y-96410001D01*
X199595000Y-97930001D01*
X199395000Y-97930001D01*
X199395000Y-96410001D01*
G37*
%TO.C,D18*%
X106815000Y-96130001D02*
X108815000Y-96130001D01*
X106815000Y-98210001D02*
X108815000Y-98210001D01*
X107995000Y-96410001D02*
X108195000Y-96410001D01*
X108195000Y-97930001D01*
X107995000Y-97930001D01*
X107995000Y-96410001D01*
G36*
X107995000Y-96410001D02*
G01*
X108195000Y-96410001D01*
X108195000Y-97930001D01*
X107995000Y-97930001D01*
X107995000Y-96410001D01*
G37*
D14*
%TO.C,SW5*%
X169315000Y-96845000D02*
X170650000Y-96845000D01*
X169315000Y-110815000D02*
X169315000Y-96845000D01*
X181950000Y-96845000D02*
X183285000Y-96845000D01*
X183285000Y-96845000D02*
X183285000Y-110815000D01*
X183285000Y-110815000D02*
X169315000Y-110815000D01*
%TO.C,C8*%
X240777500Y-97424724D02*
X240777500Y-96915276D01*
X241822500Y-97424724D02*
X241822500Y-96915276D01*
D12*
%TO.C,D17*%
X83965000Y-96130001D02*
X85965000Y-96130001D01*
X83965000Y-98210001D02*
X85965000Y-98210001D01*
X85145000Y-96410001D02*
X85345000Y-96410001D01*
X85345000Y-97930001D01*
X85145000Y-97930001D01*
X85145000Y-96410001D01*
G36*
X85145000Y-96410001D02*
G01*
X85345000Y-96410001D01*
X85345000Y-97930001D01*
X85145000Y-97930001D01*
X85145000Y-96410001D01*
G37*
%TO.C,D29*%
X175365000Y-113370000D02*
X177365000Y-113370000D01*
X175365000Y-115450000D02*
X177365000Y-115450000D01*
X176545000Y-113650000D02*
X176745000Y-113650000D01*
X176745000Y-115170000D01*
X176545000Y-115170000D01*
X176545000Y-113650000D01*
G36*
X176545000Y-113650000D02*
G01*
X176745000Y-113650000D01*
X176745000Y-115170000D01*
X176545000Y-115170000D01*
X176545000Y-113650000D01*
G37*
D14*
%TO.C,C10*%
X106695276Y-117297500D02*
X107204724Y-117297500D01*
X106695276Y-118342500D02*
X107204724Y-118342500D01*
D12*
%TO.C,D32*%
X243915000Y-113370001D02*
X245915000Y-113370001D01*
X243915000Y-115450001D02*
X245915000Y-115450001D01*
X245095000Y-113650001D02*
X245295000Y-113650001D01*
X245295000Y-115170001D01*
X245095000Y-115170001D01*
X245095000Y-113650001D01*
G36*
X245095000Y-113650001D02*
G01*
X245295000Y-113650001D01*
X245295000Y-115170001D01*
X245095000Y-115170001D01*
X245095000Y-113650001D01*
G37*
D14*
%TO.C,C15*%
X220945276Y-117297500D02*
X221454724Y-117297500D01*
X220945276Y-118342500D02*
X221454724Y-118342500D01*
%TO.C,C6*%
X195077500Y-97424724D02*
X195077500Y-96915276D01*
X196122500Y-97424724D02*
X196122500Y-96915276D01*
%TO.C,SW3*%
X123615000Y-96845000D02*
X124950000Y-96845000D01*
X123615000Y-110815000D02*
X123615000Y-96845000D01*
X136250000Y-96845000D02*
X137585000Y-96845000D01*
X137585000Y-96845000D02*
X137585000Y-110815000D01*
X137585000Y-110815000D02*
X123615000Y-110815000D01*
D12*
%TO.C,D19*%
X129665000Y-96140001D02*
X131665000Y-96140001D01*
X129665000Y-98220001D02*
X131665000Y-98220001D01*
X130845000Y-96420001D02*
X131045000Y-96420001D01*
X131045000Y-97940001D01*
X130845000Y-97940001D01*
X130845000Y-96420001D01*
G36*
X130845000Y-96420001D02*
G01*
X131045000Y-96420001D01*
X131045000Y-97940001D01*
X130845000Y-97940001D01*
X130845000Y-96420001D01*
G37*
D11*
%TO.C,D2*%
X105300000Y-94670000D02*
X105440000Y-94670000D01*
X105300000Y-99670000D02*
X105300000Y-94670000D01*
X105300000Y-99670000D02*
X105440000Y-99670000D01*
X106780000Y-94670000D02*
X108820000Y-94670000D01*
X106790000Y-99670000D02*
X108830000Y-99670000D01*
X107830192Y-94670192D02*
X110300287Y-97140287D01*
X110160000Y-94670000D02*
X110300000Y-94670000D01*
X110160000Y-99670000D02*
X110300000Y-99670000D01*
X110300000Y-99670000D02*
X110300000Y-94670000D01*
X109591178Y-97170000D02*
G75*
G02*
X106008822Y-97170000I-1791178J0D01*
G01*
X106008822Y-97170000D02*
G75*
G02*
X109591178Y-97170000I1791178J0D01*
G01*
D14*
%TO.C,C3*%
X126527500Y-97424724D02*
X126527500Y-96915276D01*
X127572500Y-97424724D02*
X127572500Y-96915276D01*
%TO.C,C4*%
X149377500Y-97424724D02*
X149377500Y-96915276D01*
X150422500Y-97424724D02*
X150422500Y-96915276D01*
D11*
%TO.C,D5*%
X173850000Y-94670000D02*
X173990000Y-94670000D01*
X173850000Y-99670000D02*
X173850000Y-94670000D01*
X173850000Y-99670000D02*
X173990000Y-99670000D01*
X175330000Y-94670000D02*
X177370000Y-94670000D01*
X175340000Y-99670000D02*
X177380000Y-99670000D01*
X176380192Y-94670192D02*
X178850287Y-97140287D01*
X178710000Y-94670000D02*
X178850000Y-94670000D01*
X178710000Y-99670000D02*
X178850000Y-99670000D01*
X178850000Y-99670000D02*
X178850000Y-94670000D01*
X178141178Y-97170000D02*
G75*
G02*
X174558822Y-97170000I-1791178J0D01*
G01*
X174558822Y-97170000D02*
G75*
G02*
X178141178Y-97170000I1791178J0D01*
G01*
%TO.C,D15*%
X219550000Y-111910000D02*
X219690000Y-111910000D01*
X219550000Y-116910000D02*
X219550000Y-111910000D01*
X219550000Y-116910000D02*
X219690000Y-116910000D01*
X221030000Y-111910000D02*
X223070000Y-111910000D01*
X221040000Y-116910000D02*
X223080000Y-116910000D01*
X222080192Y-111910192D02*
X224550287Y-114380287D01*
X224410000Y-111910000D02*
X224550000Y-111910000D01*
X224410000Y-116910000D02*
X224550000Y-116910000D01*
X224550000Y-116910000D02*
X224550000Y-111910000D01*
X223841178Y-114410000D02*
G75*
G02*
X220258822Y-114410000I-1791178J0D01*
G01*
X220258822Y-114410000D02*
G75*
G02*
X223841178Y-114410000I1791178J0D01*
G01*
D12*
%TO.C,D21*%
X175365000Y-96130001D02*
X177365000Y-96130001D01*
X175365000Y-98210001D02*
X177365000Y-98210001D01*
X176545000Y-96410001D02*
X176745000Y-96410001D01*
X176745000Y-97930001D01*
X176545000Y-97930001D01*
X176545000Y-96410001D01*
G36*
X176545000Y-96410001D02*
G01*
X176745000Y-96410001D01*
X176745000Y-97930001D01*
X176545000Y-97930001D01*
X176545000Y-96410001D01*
G37*
%TO.C,D25*%
X83965000Y-113370000D02*
X85965000Y-113370000D01*
X83965000Y-115450000D02*
X85965000Y-115450000D01*
X85145000Y-113650000D02*
X85345000Y-113650000D01*
X85345000Y-115170000D01*
X85145000Y-115170000D01*
X85145000Y-113650000D01*
G36*
X85145000Y-113650000D02*
G01*
X85345000Y-113650000D01*
X85345000Y-115170000D01*
X85145000Y-115170000D01*
X85145000Y-113650000D01*
G37*
D15*
%TO.C,J1*%
X48000000Y-102660000D02*
X73280000Y-102660000D01*
X48000000Y-111760000D02*
X48000000Y-102660000D01*
X73280000Y-102660000D02*
X73280000Y-111760000D01*
X73280000Y-111760000D02*
X48000000Y-111760000D01*
D16*
X51470000Y-115950000D02*
G75*
G02*
X51270000Y-115950000I-100000J0D01*
G01*
X51270000Y-115950000D02*
G75*
G02*
X51470000Y-115950000I100000J0D01*
G01*
D14*
%TO.C,C13*%
X175245276Y-117297500D02*
X175754724Y-117297500D01*
X175245276Y-118342500D02*
X175754724Y-118342500D01*
D11*
%TO.C,D10*%
X105300000Y-111910000D02*
X105440000Y-111910000D01*
X105300000Y-116910000D02*
X105300000Y-111910000D01*
X105300000Y-116910000D02*
X105440000Y-116910000D01*
X106780000Y-111910000D02*
X108820000Y-111910000D01*
X106790000Y-116910000D02*
X108830000Y-116910000D01*
X107830192Y-111910192D02*
X110300287Y-114380287D01*
X110160000Y-111910000D02*
X110300000Y-111910000D01*
X110160000Y-116910000D02*
X110300000Y-116910000D01*
X110300000Y-116910000D02*
X110300000Y-111910000D01*
X109591178Y-114410000D02*
G75*
G02*
X106008822Y-114410000I-1791178J0D01*
G01*
X106008822Y-114410000D02*
G75*
G02*
X109591178Y-114410000I1791178J0D01*
G01*
%TO.C,D1*%
X82450000Y-94670000D02*
X82590000Y-94670000D01*
X82450000Y-99670000D02*
X82450000Y-94670000D01*
X82450000Y-99670000D02*
X82590000Y-99670000D01*
X83930000Y-94670000D02*
X85970000Y-94670000D01*
X83940000Y-99670000D02*
X85980000Y-99670000D01*
X84980192Y-94670192D02*
X87450287Y-97140287D01*
X87310000Y-94670000D02*
X87450000Y-94670000D01*
X87310000Y-99670000D02*
X87450000Y-99670000D01*
X87450000Y-99670000D02*
X87450000Y-94670000D01*
X86741178Y-97170000D02*
G75*
G02*
X83158822Y-97170000I-1791178J0D01*
G01*
X83158822Y-97170000D02*
G75*
G02*
X86741178Y-97170000I1791178J0D01*
G01*
D14*
%TO.C,SW7*%
X215015000Y-96845000D02*
X216350000Y-96845000D01*
X215015000Y-110815000D02*
X215015000Y-96845000D01*
X227650000Y-96845000D02*
X228985000Y-96845000D01*
X228985000Y-96845000D02*
X228985000Y-110815000D01*
X228985000Y-110815000D02*
X215015000Y-110815000D01*
%TO.C,SW1*%
X77915000Y-96845000D02*
X79250000Y-96845000D01*
X77915000Y-110815000D02*
X77915000Y-96845000D01*
X90550000Y-96845000D02*
X91885000Y-96845000D01*
X91885000Y-96845000D02*
X91885000Y-110815000D01*
X91885000Y-110815000D02*
X77915000Y-110815000D01*
D12*
%TO.C,D24*%
X243915000Y-96130001D02*
X245915000Y-96130001D01*
X243915000Y-98210001D02*
X245915000Y-98210001D01*
X245095000Y-96410001D02*
X245295000Y-96410001D01*
X245295000Y-97930001D01*
X245095000Y-97930001D01*
X245095000Y-96410001D01*
G36*
X245095000Y-96410001D02*
G01*
X245295000Y-96410001D01*
X245295000Y-97930001D01*
X245095000Y-97930001D01*
X245095000Y-96410001D01*
G37*
D14*
%TO.C,C5*%
X172227500Y-97424724D02*
X172227500Y-96915276D01*
X173272500Y-97424724D02*
X173272500Y-96915276D01*
D12*
%TO.C,D31*%
X221065000Y-113370001D02*
X223065000Y-113370001D01*
X221065000Y-115450001D02*
X223065000Y-115450001D01*
X222245000Y-113650001D02*
X222445000Y-113650001D01*
X222445000Y-115170001D01*
X222245000Y-115170001D01*
X222245000Y-113650001D01*
G36*
X222245000Y-113650001D02*
G01*
X222445000Y-113650001D01*
X222445000Y-115170001D01*
X222245000Y-115170001D01*
X222245000Y-113650001D01*
G37*
D14*
%TO.C,C16*%
X243795276Y-117297500D02*
X244304724Y-117297500D01*
X243795276Y-118342500D02*
X244304724Y-118342500D01*
D11*
%TO.C,D11*%
X128150000Y-111910000D02*
X128290000Y-111910000D01*
X128150000Y-116910000D02*
X128150000Y-111910000D01*
X128150000Y-116910000D02*
X128290000Y-116910000D01*
X129630000Y-111910000D02*
X131670000Y-111910000D01*
X129640000Y-116910000D02*
X131680000Y-116910000D01*
X130680192Y-111910192D02*
X133150287Y-114380287D01*
X133010000Y-111910000D02*
X133150000Y-111910000D01*
X133010000Y-116910000D02*
X133150000Y-116910000D01*
X133150000Y-116910000D02*
X133150000Y-111910000D01*
X132441178Y-114410000D02*
G75*
G02*
X128858822Y-114410000I-1791178J0D01*
G01*
X128858822Y-114410000D02*
G75*
G02*
X132441178Y-114410000I1791178J0D01*
G01*
%TD*%
M02*
