%TF.GenerationSoftware,KiCad,Pcbnew,9.0.0*%
%TF.CreationDate,2025-04-15T08:35:35-04:00*%
%TF.ProjectId,Keypad,4b657970-6164-42e6-9b69-6361645f7063,1.0*%
%TF.SameCoordinates,Original*%
%TF.FileFunction,Paste,Top*%
%TF.FilePolarity,Positive*%
%FSLAX46Y46*%
G04 Gerber Fmt 4.6, Leading zero omitted, Abs format (unit mm)*
G04 Created by KiCad (PCBNEW 9.0.0) date 2025-04-15 08:35:35*
%MOMM*%
%LPD*%
G01*
G04 APERTURE LIST*
G04 Aperture macros list*
%AMRoundRect*
0 Rectangle with rounded corners*
0 $1 Rounding radius*
0 $2 $3 $4 $5 $6 $7 $8 $9 X,Y pos of 4 corners*
0 Add a 4 corners polygon primitive as box body*
4,1,4,$2,$3,$4,$5,$6,$7,$8,$9,$2,$3,0*
0 Add four circle primitives for the rounded corners*
1,1,$1+$1,$2,$3*
1,1,$1+$1,$4,$5*
1,1,$1+$1,$6,$7*
1,1,$1+$1,$8,$9*
0 Add four rect primitives between the rounded corners*
20,1,$1+$1,$2,$3,$4,$5,0*
20,1,$1+$1,$4,$5,$6,$7,0*
20,1,$1+$1,$6,$7,$8,$9,0*
20,1,$1+$1,$8,$9,$2,$3,0*%
G04 Aperture macros list end*
%ADD10RoundRect,0.225000X0.225000X-0.525000X0.225000X0.525000X-0.225000X0.525000X-0.225000X-0.525000X0*%
%ADD11RoundRect,0.237500X0.237500X-0.250000X0.237500X0.250000X-0.237500X0.250000X-0.237500X-0.250000X0*%
%ADD12RoundRect,0.175000X-0.175000X-0.175000X0.175000X-0.175000X0.175000X0.175000X-0.175000X0.175000X0*%
%ADD13RoundRect,0.237500X-0.250000X-0.237500X0.250000X-0.237500X0.250000X0.237500X-0.250000X0.237500X0*%
G04 APERTURE END LIST*
D10*
%TO.C,D8*%
X243230000Y-99670000D03*
X246530000Y-99670000D03*
X246530000Y-94770000D03*
X243230000Y-94770000D03*
%TD*%
%TO.C,D14*%
X197530000Y-116910000D03*
X200830000Y-116910000D03*
X200830000Y-112010000D03*
X197530000Y-112010000D03*
%TD*%
%TO.C,D13*%
X174680000Y-116910000D03*
X177980000Y-116910000D03*
X177980000Y-112010000D03*
X174680000Y-112010000D03*
%TD*%
D11*
%TO.C,C2*%
X104200000Y-98072500D03*
X104200000Y-96247500D03*
%TD*%
%TO.C,C1*%
X81350000Y-98082500D03*
X81350000Y-96257500D03*
%TD*%
D10*
%TO.C,D12*%
X151830000Y-116910000D03*
X155130000Y-116910000D03*
X155130000Y-112010000D03*
X151830000Y-112010000D03*
%TD*%
D11*
%TO.C,C7*%
X218450000Y-98080000D03*
X218450000Y-96255000D03*
%TD*%
D12*
%TO.C,D26*%
X108715000Y-114960000D03*
X108715000Y-113860000D03*
X106885000Y-113860000D03*
X106885000Y-114960000D03*
%TD*%
%TO.C,D23*%
X222965000Y-97720000D03*
X222965000Y-96620000D03*
X221135000Y-96620000D03*
X221135000Y-97720000D03*
%TD*%
D13*
%TO.C,C11*%
X128887500Y-117820000D03*
X130712500Y-117820000D03*
%TD*%
D10*
%TO.C,D4*%
X151830000Y-99670000D03*
X155130000Y-99670000D03*
X155130000Y-94770000D03*
X151830000Y-94770000D03*
%TD*%
%TO.C,D7*%
X220380000Y-99670000D03*
X223680000Y-99670000D03*
X223680000Y-94770000D03*
X220380000Y-94770000D03*
%TD*%
D13*
%TO.C,C12*%
X151737500Y-117820000D03*
X153562500Y-117820000D03*
%TD*%
D10*
%TO.C,D3*%
X128980000Y-99680000D03*
X132280000Y-99680000D03*
X132280000Y-94780000D03*
X128980000Y-94780000D03*
%TD*%
D12*
%TO.C,D28*%
X154415000Y-114960000D03*
X154415000Y-113860000D03*
X152585000Y-113860000D03*
X152585000Y-114960000D03*
%TD*%
%TO.C,D27*%
X131565000Y-114960000D03*
X131565000Y-113860000D03*
X129735000Y-113860000D03*
X129735000Y-114960000D03*
%TD*%
%TO.C,D20*%
X154415000Y-97720001D03*
X154415000Y-96620001D03*
X152585000Y-96620001D03*
X152585000Y-97720001D03*
%TD*%
D13*
%TO.C,C14*%
X197437500Y-117820000D03*
X199262500Y-117820000D03*
%TD*%
D10*
%TO.C,D16*%
X243230000Y-116910000D03*
X246530000Y-116910000D03*
X246530000Y-112010000D03*
X243230000Y-112010000D03*
%TD*%
%TO.C,D9*%
X83280000Y-116910000D03*
X86580000Y-116910000D03*
X86580000Y-112010000D03*
X83280000Y-112010000D03*
%TD*%
D13*
%TO.C,C9*%
X83187500Y-117820000D03*
X85012500Y-117820000D03*
%TD*%
D12*
%TO.C,D30*%
X200115000Y-114960000D03*
X200115000Y-113860000D03*
X198285000Y-113860000D03*
X198285000Y-114960000D03*
%TD*%
D10*
%TO.C,D6*%
X197530000Y-99670000D03*
X200830000Y-99670000D03*
X200830000Y-94770000D03*
X197530000Y-94770000D03*
%TD*%
D12*
%TO.C,D22*%
X200115000Y-97720001D03*
X200115000Y-96620001D03*
X198285000Y-96620001D03*
X198285000Y-97720001D03*
%TD*%
%TO.C,D18*%
X108715000Y-97720001D03*
X108715000Y-96620001D03*
X106885000Y-96620001D03*
X106885000Y-97720001D03*
%TD*%
D11*
%TO.C,C8*%
X241300000Y-98082500D03*
X241300000Y-96257500D03*
%TD*%
D12*
%TO.C,D17*%
X85865000Y-97720001D03*
X85865000Y-96620001D03*
X84035000Y-96620001D03*
X84035000Y-97720001D03*
%TD*%
%TO.C,D29*%
X177265000Y-114960000D03*
X177265000Y-113860000D03*
X175435000Y-113860000D03*
X175435000Y-114960000D03*
%TD*%
D13*
%TO.C,C10*%
X106037500Y-117820000D03*
X107862500Y-117820000D03*
%TD*%
D12*
%TO.C,D32*%
X245815000Y-114960001D03*
X245815000Y-113860001D03*
X243985000Y-113860001D03*
X243985000Y-114960001D03*
%TD*%
D13*
%TO.C,C15*%
X220287500Y-117820000D03*
X222112500Y-117820000D03*
%TD*%
D11*
%TO.C,C6*%
X195600000Y-98082500D03*
X195600000Y-96257500D03*
%TD*%
D12*
%TO.C,D19*%
X131565000Y-97730001D03*
X131565000Y-96630001D03*
X129735000Y-96630001D03*
X129735000Y-97730001D03*
%TD*%
D10*
%TO.C,D2*%
X106130000Y-99670000D03*
X109430000Y-99670000D03*
X109430000Y-94770000D03*
X106130000Y-94770000D03*
%TD*%
D11*
%TO.C,C3*%
X127050000Y-98082500D03*
X127050000Y-96257500D03*
%TD*%
%TO.C,C4*%
X149900000Y-98082500D03*
X149900000Y-96257500D03*
%TD*%
D10*
%TO.C,D5*%
X174680000Y-99670000D03*
X177980000Y-99670000D03*
X177980000Y-94770000D03*
X174680000Y-94770000D03*
%TD*%
%TO.C,D15*%
X220380000Y-116910000D03*
X223680000Y-116910000D03*
X223680000Y-112010000D03*
X220380000Y-112010000D03*
%TD*%
D12*
%TO.C,D21*%
X177265000Y-97720001D03*
X177265000Y-96620001D03*
X175435000Y-96620001D03*
X175435000Y-97720001D03*
%TD*%
%TO.C,D25*%
X85865000Y-114960000D03*
X85865000Y-113860000D03*
X84035000Y-113860000D03*
X84035000Y-114960000D03*
%TD*%
D13*
%TO.C,C13*%
X174587500Y-117820000D03*
X176412500Y-117820000D03*
%TD*%
D10*
%TO.C,D10*%
X106130000Y-116910000D03*
X109430000Y-116910000D03*
X109430000Y-112010000D03*
X106130000Y-112010000D03*
%TD*%
%TO.C,D1*%
X83280000Y-99670000D03*
X86580000Y-99670000D03*
X86580000Y-94770000D03*
X83280000Y-94770000D03*
%TD*%
D12*
%TO.C,D24*%
X245815000Y-97720001D03*
X245815000Y-96620001D03*
X243985000Y-96620001D03*
X243985000Y-97720001D03*
%TD*%
D11*
%TO.C,C5*%
X172750000Y-98082500D03*
X172750000Y-96257500D03*
%TD*%
D12*
%TO.C,D31*%
X222965000Y-114960001D03*
X222965000Y-113860001D03*
X221135000Y-113860001D03*
X221135000Y-114960001D03*
%TD*%
D13*
%TO.C,C16*%
X243137500Y-117820000D03*
X244962500Y-117820000D03*
%TD*%
D10*
%TO.C,D11*%
X128980000Y-116910000D03*
X132280000Y-116910000D03*
X132280000Y-112010000D03*
X128980000Y-112010000D03*
%TD*%
M02*
