%TF.GenerationSoftware,KiCad,Pcbnew,9.0.0*%
%TF.CreationDate,2025-04-15T08:35:35-04:00*%
%TF.ProjectId,Keypad,4b657970-6164-42e6-9b69-6361645f7063,1.0*%
%TF.SameCoordinates,Original*%
%TF.FileFunction,Copper,L2,Bot*%
%TF.FilePolarity,Positive*%
%FSLAX46Y46*%
G04 Gerber Fmt 4.6, Leading zero omitted, Abs format (unit mm)*
G04 Created by KiCad (PCBNEW 9.0.0) date 2025-04-15 08:35:35*
%MOMM*%
%LPD*%
G01*
G04 APERTURE LIST*
%TA.AperFunction,ComponentPad*%
%ADD10R,1.700000X1.700000*%
%TD*%
%TA.AperFunction,ComponentPad*%
%ADD11O,1.700000X1.700000*%
%TD*%
%TA.AperFunction,ComponentPad*%
%ADD12C,1.800000*%
%TD*%
%TA.AperFunction,ComponentPad*%
%ADD13R,1.508000X1.508000*%
%TD*%
%TA.AperFunction,ComponentPad*%
%ADD14C,1.508000*%
%TD*%
%TA.AperFunction,ViaPad*%
%ADD15C,0.400000*%
%TD*%
%TA.AperFunction,Conductor*%
%ADD16C,0.200000*%
%TD*%
%TA.AperFunction,Conductor*%
%ADD17C,0.800000*%
%TD*%
G04 APERTURE END LIST*
D10*
%TO.P,J2,1,Pin_1*%
%TO.N,GND*%
X65200000Y-119360000D03*
D11*
%TO.P,J2,2,Pin_2*%
%TO.N,3V3*%
X62660000Y-119360000D03*
%TO.P,J2,3,Pin_3*%
%TO.N,SCREEN_SCL*%
X60120000Y-119360000D03*
%TO.P,J2,4,Pin_4*%
%TO.N,SCREEN_SDA*%
X57580000Y-119360000D03*
%TD*%
D12*
%TO.P,SW8,1*%
%TO.N,BUTTON_8*%
X242310000Y-108910000D03*
%TO.P,SW8,2*%
%TO.N,GND*%
X248660000Y-106370000D03*
%TD*%
%TO.P,SW4,1*%
%TO.N,BUTTON_4*%
X150910000Y-108910000D03*
%TO.P,SW4,2*%
%TO.N,GND*%
X157260000Y-106370000D03*
%TD*%
%TO.P,SW6,1*%
%TO.N,BUTTON_6*%
X196610000Y-108910000D03*
%TO.P,SW6,2*%
%TO.N,GND*%
X202960000Y-106370000D03*
%TD*%
%TO.P,SW2,1*%
%TO.N,BUTTON_2*%
X105210000Y-108910000D03*
%TO.P,SW2,2*%
%TO.N,GND*%
X111560000Y-106370000D03*
%TD*%
%TO.P,SW5,1*%
%TO.N,BUTTON_5*%
X173760000Y-108910000D03*
%TO.P,SW5,2*%
%TO.N,GND*%
X180110000Y-106370000D03*
%TD*%
%TO.P,SW3,1*%
%TO.N,BUTTON_3*%
X128060000Y-108910000D03*
%TO.P,SW3,2*%
%TO.N,GND*%
X134410000Y-106370000D03*
%TD*%
D13*
%TO.P,J1,1,1*%
%TO.N,BUTTON_1*%
X53020000Y-115940000D03*
D14*
%TO.P,J1,2,2*%
%TO.N,BUTTON_2*%
X53020000Y-113400000D03*
%TO.P,J1,3,3*%
%TO.N,BUTTON_3*%
X55560000Y-115940000D03*
%TO.P,J1,4,4*%
%TO.N,BUTTON_4*%
X55560000Y-113400000D03*
%TO.P,J1,5,5*%
%TO.N,3V3*%
X58100000Y-115940000D03*
%TO.P,J1,6,6*%
%TO.N,SCREEN_SCL*%
X58100000Y-113400000D03*
%TO.P,J1,7,7*%
%TO.N,GND*%
X60640000Y-115940000D03*
%TO.P,J1,8,8*%
%TO.N,5V*%
X60640000Y-113400000D03*
%TO.P,J1,9,9*%
%TO.N,SCREEN_SDA*%
X63180000Y-115940000D03*
%TO.P,J1,10,10*%
%TO.N,RGBLED_DATA*%
X63180000Y-113400000D03*
%TO.P,J1,11,11*%
%TO.N,BUTTON_7*%
X65720000Y-115940000D03*
%TO.P,J1,12,12*%
%TO.N,BUTTON_8*%
X65720000Y-113400000D03*
%TO.P,J1,13,13*%
%TO.N,BUTTON_5*%
X68260000Y-115940000D03*
%TO.P,J1,14,14*%
%TO.N,BUTTON_6*%
X68260000Y-113400000D03*
%TD*%
D12*
%TO.P,SW7,1*%
%TO.N,BUTTON_7*%
X219460000Y-108910000D03*
%TO.P,SW7,2*%
%TO.N,GND*%
X225810000Y-106370000D03*
%TD*%
%TO.P,SW1,1*%
%TO.N,BUTTON_1*%
X82360000Y-108910000D03*
%TO.P,SW1,2*%
%TO.N,GND*%
X88710000Y-106370000D03*
%TD*%
D15*
%TO.N,BUTTON_5*%
X71690000Y-115850000D03*
%TO.N,BUTTON_7*%
X69670000Y-118880000D03*
%TO.N,RGBLED_DATA*%
X84410000Y-95640000D03*
X76110000Y-104090000D03*
X89180000Y-100020000D03*
%TO.N,5V*%
X148770000Y-98080000D03*
X75155000Y-98885000D03*
X217320000Y-98080000D03*
X239700000Y-98080000D03*
X102820000Y-98080000D03*
X194470000Y-98080000D03*
X125930000Y-98080000D03*
X171620000Y-98080000D03*
%TO.N,GND*%
X89840000Y-103850000D03*
X103620000Y-116150000D03*
X59230000Y-112120000D03*
X68720000Y-117590000D03*
X89840000Y-102990000D03*
X89110000Y-116100000D03*
X84930000Y-116420000D03*
X56230000Y-111210000D03*
X87700000Y-99300000D03*
X88920000Y-103850000D03*
X85430000Y-93680000D03*
X88920000Y-102990000D03*
X87990000Y-93670000D03*
X86880000Y-96410000D03*
%TO.N,1ST_ROW_DATA_OUT*%
X248010000Y-99670000D03*
X92670000Y-96560000D03*
%TD*%
D16*
%TO.N,BUTTON_1*%
X81175787Y-107725787D02*
X82360000Y-108910000D01*
X51050000Y-113051573D02*
X51050000Y-111618427D01*
X53010000Y-115840000D02*
X51635786Y-114465786D01*
X51635787Y-110204213D02*
X54114214Y-107725786D01*
X55528427Y-107140000D02*
X79761573Y-107140000D01*
X51635786Y-114465786D02*
G75*
G02*
X51050019Y-113051573I1414214J1414186D01*
G01*
X79761573Y-107140000D02*
G75*
G02*
X81175801Y-107725773I27J-2000000D01*
G01*
X55528427Y-107140000D02*
G75*
G03*
X54114200Y-107725772I-27J-2000000D01*
G01*
X51635787Y-110204213D02*
G75*
G03*
X51050019Y-111618427I1414213J-1414187D01*
G01*
%TO.N,BUTTON_5*%
X165925787Y-116744213D02*
X173760000Y-108910000D01*
X71690000Y-115850000D02*
X72584214Y-116744214D01*
X73998427Y-117330000D02*
X164511573Y-117330000D01*
X165925787Y-116744213D02*
G75*
G02*
X164511573Y-117329981I-1414187J1414213D01*
G01*
X73998427Y-117330000D02*
G75*
G02*
X72584200Y-116744228I-27J2000000D01*
G01*
%TO.N,SCREEN_SDA*%
X58404213Y-118535787D02*
X57580000Y-119360000D01*
X60231573Y-117950000D02*
X59818427Y-117950000D01*
X63170000Y-115840000D02*
X61645786Y-117364214D01*
X59818427Y-117950000D02*
G75*
G03*
X58404199Y-118535773I-27J-2000000D01*
G01*
X61645786Y-117364214D02*
G75*
G02*
X60231573Y-117949981I-1414186J1414214D01*
G01*
%TO.N,BUTTON_8*%
X68280000Y-119008427D02*
X68280000Y-119191573D01*
X68865787Y-120605787D02*
X69114214Y-120854214D01*
X230365787Y-120854213D02*
X242310000Y-108910000D01*
X65710000Y-113300000D02*
X66404214Y-113994214D01*
X66990000Y-115408427D02*
X66990000Y-116061573D01*
X67575787Y-117475787D02*
X67694214Y-117594214D01*
X70528427Y-121440000D02*
X228951573Y-121440000D01*
X67575787Y-117475787D02*
G75*
G02*
X66990019Y-116061573I1414213J1414187D01*
G01*
X68865787Y-120605787D02*
G75*
G02*
X68280019Y-119191573I1414213J1414187D01*
G01*
X66990000Y-115408427D02*
G75*
G03*
X66404228Y-113994200I-2000000J27D01*
G01*
X67694214Y-117594214D02*
G75*
G02*
X68279981Y-119008427I-1414214J-1414186D01*
G01*
X228951573Y-121440000D02*
G75*
G03*
X230365801Y-120854227I27J2000000D01*
G01*
X69114214Y-120854214D02*
G75*
G03*
X70528427Y-121439981I1414186J1414214D01*
G01*
%TO.N,BUTTON_7*%
X71648427Y-120030000D02*
X207511573Y-120030000D01*
X208925787Y-119444213D02*
X219460000Y-108910000D01*
X69670000Y-118880000D02*
X70234214Y-119444214D01*
X70234214Y-119444214D02*
G75*
G03*
X71648427Y-120029981I1414186J1414214D01*
G01*
X208925787Y-119444213D02*
G75*
G02*
X207511573Y-120029981I-1414187J1414213D01*
G01*
%TO.N,3V3*%
X61035787Y-120984213D02*
X62660000Y-119360000D01*
X58090000Y-115840000D02*
X55895786Y-118034214D01*
X55895787Y-120875787D02*
X56004214Y-120984214D01*
X55310000Y-119448427D02*
X55310000Y-119461573D01*
X57418427Y-121570000D02*
X59621573Y-121570000D01*
X57418427Y-121570000D02*
G75*
G02*
X56004200Y-120984228I-27J2000000D01*
G01*
X55895786Y-118034214D02*
G75*
G03*
X55310019Y-119448427I1414214J-1414186D01*
G01*
X61035787Y-120984213D02*
G75*
G02*
X59621573Y-121569981I-1414187J1414213D01*
G01*
X55310000Y-119461573D02*
G75*
G03*
X55895773Y-120875801I2000000J-27D01*
G01*
%TO.N,RGBLED_DATA*%
X83964213Y-100475787D02*
X80935786Y-103504214D01*
X83980660Y-100459340D02*
X83964213Y-100475787D01*
X84107107Y-100332893D02*
X83964213Y-100475787D01*
X84400000Y-95650000D02*
X84400000Y-99625786D01*
X79521573Y-104090000D02*
X76110000Y-104090000D01*
X89180000Y-100020000D02*
X85041320Y-100020000D01*
X84410000Y-95640000D02*
X84400000Y-95650000D01*
X85041320Y-100020000D02*
G75*
G03*
X83980650Y-100459330I-20J-1500000D01*
G01*
X79521573Y-104090000D02*
G75*
G03*
X80935800Y-103504228I27J2000000D01*
G01*
X84107107Y-100332893D02*
G75*
G03*
X84399990Y-99625786I-707107J707093D01*
G01*
%TO.N,BUTTON_3*%
X124705787Y-112264213D02*
X128060000Y-108910000D01*
X57098427Y-109720000D02*
X72701573Y-109720000D01*
X55550000Y-115840000D02*
X54865786Y-115155786D01*
X77488427Y-112850000D02*
X123291573Y-112850000D01*
X54865787Y-111124213D02*
X55684214Y-110305786D01*
X54280000Y-113741573D02*
X54280000Y-112538427D01*
X74115787Y-110305787D02*
X76074214Y-112264214D01*
X77488427Y-112850000D02*
G75*
G02*
X76074200Y-112264228I-27J2000000D01*
G01*
X54280000Y-112538427D02*
G75*
G02*
X54865773Y-111124199I2000000J27D01*
G01*
X123291573Y-112850000D02*
G75*
G03*
X124705801Y-112264227I27J2000000D01*
G01*
X74115787Y-110305787D02*
G75*
G03*
X72701573Y-109720019I-1414187J-1414213D01*
G01*
X57098427Y-109720000D02*
G75*
G03*
X55684200Y-110305772I-27J-2000000D01*
G01*
X54280000Y-113741573D02*
G75*
G03*
X54865772Y-115155800I2000000J-27D01*
G01*
%TO.N,BUTTON_4*%
X70545787Y-111605787D02*
X73144214Y-114204214D01*
X58658427Y-111020000D02*
X69131573Y-111020000D01*
X145615787Y-114204213D02*
X150910000Y-108910000D01*
X55550000Y-113300000D02*
X57244214Y-111605786D01*
X74558427Y-114790000D02*
X144201573Y-114790000D01*
X144201573Y-114790000D02*
G75*
G03*
X145615801Y-114204227I27J2000000D01*
G01*
X57244214Y-111605786D02*
G75*
G02*
X58658427Y-111020019I1414186J-1414214D01*
G01*
X70545787Y-111605787D02*
G75*
G03*
X69131573Y-111020019I-1414187J-1414213D01*
G01*
X74558427Y-114790000D02*
G75*
G02*
X73144200Y-114204228I-27J2000000D01*
G01*
%TO.N,BUTTON_2*%
X77315787Y-109015787D02*
X79074214Y-110774214D01*
X80488427Y-111360000D02*
X101931573Y-111360000D01*
X53595787Y-110414213D02*
X54994214Y-109015786D01*
X53010000Y-113300000D02*
X53010000Y-111828427D01*
X56408427Y-108430000D02*
X75901573Y-108430000D01*
X103345787Y-110774213D02*
X105210000Y-108910000D01*
X101931573Y-111360000D02*
G75*
G03*
X103345801Y-110774227I27J2000000D01*
G01*
X77315787Y-109015787D02*
G75*
G03*
X75901573Y-108430019I-1414187J-1414213D01*
G01*
X79074214Y-110774214D02*
G75*
G03*
X80488427Y-111359981I1414186J1414214D01*
G01*
X53595787Y-110414213D02*
G75*
G03*
X53010019Y-111828427I1414213J-1414187D01*
G01*
X54994214Y-109015786D02*
G75*
G02*
X56408427Y-108430019I1414186J-1414214D01*
G01*
D17*
%TO.N,5V*%
X171620000Y-98080000D02*
X148770000Y-98080000D01*
X75155000Y-98885000D02*
X81136213Y-92903787D01*
X217320000Y-98080000D02*
X194470000Y-98080000D01*
X148770000Y-98080000D02*
X125930000Y-98080000D01*
X95593786Y-92903786D02*
X100184213Y-97494213D01*
X101598427Y-98080000D02*
X102820000Y-98080000D01*
X194470000Y-98080000D02*
X171620000Y-98080000D01*
X125930000Y-98080000D02*
X102820000Y-98080000D01*
X82550427Y-92318000D02*
X94179573Y-92318000D01*
X239700000Y-98080000D02*
X217320000Y-98080000D01*
X94179573Y-92318000D02*
G75*
G02*
X95593800Y-92903772I27J-2000000D01*
G01*
X81136213Y-92903787D02*
G75*
G02*
X82550427Y-92318019I1414187J-1414213D01*
G01*
X100184213Y-97494213D02*
G75*
G03*
X101598427Y-98079981I1414187J1414213D01*
G01*
D16*
%TO.N,BUTTON_6*%
X70735787Y-117575787D02*
X71264214Y-118104214D01*
X70150000Y-116028427D02*
X70150000Y-116161573D01*
X72678427Y-118690000D02*
X186001573Y-118690000D01*
X68250000Y-113300000D02*
X69564214Y-114614214D01*
X187415787Y-118104213D02*
X196610000Y-108910000D01*
X69564214Y-114614214D02*
G75*
G02*
X70149981Y-116028427I-1414214J-1414186D01*
G01*
X70735787Y-117575787D02*
G75*
G02*
X70150019Y-116161573I1414213J1414187D01*
G01*
X186001573Y-118690000D02*
G75*
G03*
X187415801Y-118104227I27J2000000D01*
G01*
X72678427Y-118690000D02*
G75*
G02*
X71264200Y-118104228I-27J2000000D01*
G01*
%TO.N,1ST_ROW_DATA_OUT*%
X248010000Y-99670000D02*
X247385786Y-100294214D01*
X245971573Y-100880000D02*
X97818427Y-100880000D01*
X96404213Y-100294213D02*
X92670000Y-96560000D01*
X96404213Y-100294213D02*
G75*
G03*
X97818427Y-100879981I1414187J1414213D01*
G01*
X247385786Y-100294214D02*
G75*
G02*
X245971573Y-100879981I-1414186J1414214D01*
G01*
%TD*%
%TA.AperFunction,Conductor*%
%TO.N,GND*%
G36*
X125713348Y-82910764D02*
G01*
X125935762Y-82925321D01*
X125951793Y-82927428D01*
X126166439Y-82970062D01*
X126182079Y-82974246D01*
X126389327Y-83044490D01*
X126404291Y-83050679D01*
X126600606Y-83147332D01*
X126614639Y-83155420D01*
X126796683Y-83276837D01*
X126809542Y-83286685D01*
X126813024Y-83289732D01*
X126974210Y-83430797D01*
X126985667Y-83442228D01*
X127130149Y-83606576D01*
X127140026Y-83619413D01*
X127261853Y-83801188D01*
X127269972Y-83815203D01*
X127367061Y-84011297D01*
X127373284Y-84026250D01*
X127443990Y-84233336D01*
X127448212Y-84248974D01*
X127491321Y-84463505D01*
X127493468Y-84479559D01*
X127508512Y-84701780D01*
X127508795Y-84710155D01*
X127508795Y-87071472D01*
X127508516Y-87072160D01*
X127508793Y-87110994D01*
X127508793Y-87111502D01*
X127508725Y-87111731D01*
X127507870Y-87126599D01*
X127506745Y-87135760D01*
X127508896Y-87164690D01*
X127509234Y-87172993D01*
X127509441Y-87201976D01*
X127511302Y-87210994D01*
X127513519Y-87226853D01*
X127531441Y-87467845D01*
X127531685Y-87471127D01*
X127532714Y-87484957D01*
X127530294Y-87496846D01*
X127535647Y-87524406D01*
X127536189Y-87531688D01*
X127536188Y-87531690D01*
X127537729Y-87552403D01*
X127540867Y-87563718D01*
X127546462Y-87580082D01*
X127560063Y-87650099D01*
X127596098Y-87835611D01*
X127595096Y-87847855D01*
X127603639Y-87874438D01*
X127605050Y-87881698D01*
X127608966Y-87901853D01*
X127613116Y-87912001D01*
X127620967Y-87928347D01*
X127644292Y-88000915D01*
X127698634Y-88169985D01*
X127699131Y-88182489D01*
X127710737Y-88207639D01*
X127713042Y-88214809D01*
X127713042Y-88214811D01*
X127719213Y-88234009D01*
X127719214Y-88234012D01*
X127719215Y-88234014D01*
X127724000Y-88242622D01*
X127734401Y-88258919D01*
X127829488Y-88464969D01*
X127837027Y-88481305D01*
X127838578Y-88491985D01*
X127853611Y-88517243D01*
X127856328Y-88523130D01*
X127856333Y-88523139D01*
X127865930Y-88543936D01*
X127873110Y-88553811D01*
X127872789Y-88554043D01*
X127883054Y-88566712D01*
X127944327Y-88669658D01*
X127944328Y-88669660D01*
X127954452Y-88686670D01*
X127956104Y-88694127D01*
X127974726Y-88720734D01*
X127977070Y-88724672D01*
X127991342Y-88748649D01*
X127999360Y-88757552D01*
X128008808Y-88769431D01*
X128043968Y-88819665D01*
X128043969Y-88819666D01*
X128054115Y-88834163D01*
X128055890Y-88840334D01*
X128076861Y-88866661D01*
X128079064Y-88869809D01*
X128079071Y-88869818D01*
X128096170Y-88894248D01*
X128101380Y-88899237D01*
X128112606Y-88911536D01*
X128162249Y-88973858D01*
X128164376Y-88979846D01*
X128186969Y-89004892D01*
X128189336Y-89007863D01*
X128207989Y-89031280D01*
X128213306Y-89035775D01*
X128225324Y-89047413D01*
X128268519Y-89095297D01*
X128268520Y-89095298D01*
X128280246Y-89108297D01*
X128282711Y-89114093D01*
X128306819Y-89137755D01*
X128314363Y-89146118D01*
X128329453Y-89162846D01*
X128334886Y-89166895D01*
X128347630Y-89177810D01*
X128393651Y-89222979D01*
X128393652Y-89222980D01*
X128406095Y-89235193D01*
X128408881Y-89240783D01*
X128434413Y-89262987D01*
X128437069Y-89265594D01*
X128437087Y-89265611D01*
X128458564Y-89286691D01*
X128464053Y-89290284D01*
X128477505Y-89300462D01*
X128540256Y-89355035D01*
X128543354Y-89360417D01*
X128570191Y-89381068D01*
X128595757Y-89403302D01*
X128595758Y-89403302D01*
X128601350Y-89406500D01*
X128615417Y-89415870D01*
X128668674Y-89456851D01*
X128668673Y-89456851D01*
X128683694Y-89468409D01*
X128688997Y-89475971D01*
X128715083Y-89492563D01*
X128739589Y-89511421D01*
X128739590Y-89511421D01*
X128739591Y-89511422D01*
X128750538Y-89516839D01*
X128750127Y-89517667D01*
X128764502Y-89523997D01*
X128967854Y-89653343D01*
X128967853Y-89653343D01*
X128982261Y-89662507D01*
X128990451Y-89671648D01*
X129015638Y-89683737D01*
X129039210Y-89698731D01*
X129039212Y-89698732D01*
X129049487Y-89702719D01*
X129066692Y-89708243D01*
X129301072Y-89820744D01*
X129310351Y-89828890D01*
X129336732Y-89837861D01*
X129343428Y-89841075D01*
X129343431Y-89841076D01*
X129361854Y-89849919D01*
X129361857Y-89849919D01*
X129372178Y-89852568D01*
X129390302Y-89856077D01*
X129631610Y-89938136D01*
X129641941Y-89945191D01*
X129669055Y-89950869D01*
X129695284Y-89959789D01*
X129695288Y-89959788D01*
X129705073Y-89961082D01*
X129724333Y-89962446D01*
X129967644Y-90013406D01*
X129978968Y-90019238D01*
X130006351Y-90021513D01*
X130033247Y-90027146D01*
X130033251Y-90027145D01*
X130042064Y-90027234D01*
X130062494Y-90026177D01*
X130302281Y-90046098D01*
X130312961Y-90050177D01*
X130341704Y-90049374D01*
X130370374Y-90051756D01*
X130370375Y-90051755D01*
X130370379Y-90051756D01*
X130382508Y-90050374D01*
X130382529Y-90050561D01*
X130398849Y-90047777D01*
X130559177Y-90043299D01*
X130567057Y-90045612D01*
X130598806Y-90042193D01*
X130630708Y-90041302D01*
X130630711Y-90041300D01*
X130642614Y-90038586D01*
X130642854Y-90039638D01*
X130657672Y-90035853D01*
X130717381Y-90029423D01*
X130733916Y-90028754D01*
X130741436Y-90028950D01*
X130741441Y-90028952D01*
X130770715Y-90023925D01*
X130778369Y-90022856D01*
X130807935Y-90019673D01*
X130807936Y-90019672D01*
X130807938Y-90019672D01*
X130815120Y-90017422D01*
X130831208Y-90013537D01*
X130890491Y-90003357D01*
X130907046Y-90001649D01*
X130914278Y-90001390D01*
X130914284Y-90001391D01*
X130943298Y-89994533D01*
X130950827Y-89992999D01*
X130980213Y-89987953D01*
X130980213Y-89987952D01*
X130980218Y-89987952D01*
X130980221Y-89987949D01*
X130986977Y-89985357D01*
X131002866Y-89980453D01*
X131081268Y-89961924D01*
X131087599Y-89962555D01*
X131119891Y-89952796D01*
X131152705Y-89945041D01*
X131152711Y-89945036D01*
X131159055Y-89942139D01*
X131174696Y-89936233D01*
X131251919Y-89912897D01*
X131258208Y-89913140D01*
X131289896Y-89901421D01*
X131322248Y-89891645D01*
X131322251Y-89891642D01*
X131328198Y-89888472D01*
X131343527Y-89881587D01*
X131420780Y-89853020D01*
X131427026Y-89852884D01*
X131458000Y-89839255D01*
X131489736Y-89827520D01*
X131489739Y-89827517D01*
X131495343Y-89824078D01*
X131510277Y-89816255D01*
X131531700Y-89806828D01*
X131585789Y-89783031D01*
X131591969Y-89782526D01*
X131622108Y-89767051D01*
X131653124Y-89753406D01*
X131653129Y-89753399D01*
X131658362Y-89749737D01*
X131672853Y-89740998D01*
X131746638Y-89703117D01*
X131752754Y-89702248D01*
X131781938Y-89684994D01*
X131812102Y-89669508D01*
X131812105Y-89669503D01*
X131817054Y-89665578D01*
X131831017Y-89655978D01*
X131905129Y-89612163D01*
X131914104Y-89610059D01*
X131939236Y-89591999D01*
X131965862Y-89576259D01*
X131965863Y-89576258D01*
X131974964Y-89568109D01*
X131975586Y-89568803D01*
X131986801Y-89557821D01*
X132195051Y-89408183D01*
X132206595Y-89403976D01*
X132227176Y-89385099D01*
X132249851Y-89368807D01*
X132249855Y-89368800D01*
X132257339Y-89360790D01*
X132268899Y-89346833D01*
X132458600Y-89172851D01*
X132469658Y-89167238D01*
X132487749Y-89146118D01*
X132508246Y-89127320D01*
X132508248Y-89127315D01*
X132514382Y-89118942D01*
X132524533Y-89103176D01*
X132688480Y-88911786D01*
X132698926Y-88904765D01*
X132714211Y-88881749D01*
X132732184Y-88860768D01*
X132732185Y-88860761D01*
X132736845Y-88852471D01*
X132745426Y-88834746D01*
X132879275Y-88633202D01*
X132885947Y-88627869D01*
X132901195Y-88600196D01*
X132918678Y-88573873D01*
X132918678Y-88573868D01*
X132923320Y-88562577D01*
X132924226Y-88562949D01*
X132929671Y-88548520D01*
X132931614Y-88544994D01*
X132941351Y-88529998D01*
X132943511Y-88527142D01*
X132943517Y-88527138D01*
X132957242Y-88498831D01*
X132960167Y-88493179D01*
X132975363Y-88465605D01*
X132975363Y-88465598D01*
X132976451Y-88462173D01*
X132983064Y-88445582D01*
X133017997Y-88373548D01*
X133022541Y-88368974D01*
X133035305Y-88337857D01*
X133049987Y-88307582D01*
X133049987Y-88307575D01*
X133051834Y-88300499D01*
X133057098Y-88284731D01*
X133080601Y-88227437D01*
X133085781Y-88214809D01*
X133087285Y-88211143D01*
X133091486Y-88206359D01*
X133102347Y-88174425D01*
X133115142Y-88143235D01*
X133115141Y-88143231D01*
X133116483Y-88136366D01*
X133120784Y-88120217D01*
X133147380Y-88042021D01*
X133151239Y-88037048D01*
X133160154Y-88004463D01*
X133171037Y-87972469D01*
X133171036Y-87972463D01*
X133171922Y-87965769D01*
X133175247Y-87949302D01*
X133197063Y-87869575D01*
X133200577Y-87864437D01*
X133207537Y-87831299D01*
X133216473Y-87798642D01*
X133216471Y-87798632D01*
X133216930Y-87792169D01*
X133219265Y-87775455D01*
X133236681Y-87692541D01*
X133239856Y-87687247D01*
X133244838Y-87653705D01*
X133251808Y-87620522D01*
X133251807Y-87620517D01*
X133251875Y-87614213D01*
X133253214Y-87597314D01*
X133255345Y-87582969D01*
X133265674Y-87513431D01*
X133268507Y-87508006D01*
X133271505Y-87474179D01*
X133276495Y-87440587D01*
X133276494Y-87440584D01*
X133276495Y-87440581D01*
X133276196Y-87434478D01*
X133276531Y-87417462D01*
X133282563Y-87349417D01*
X133284083Y-87332271D01*
X133286581Y-87326712D01*
X133287586Y-87292744D01*
X133290587Y-87258891D01*
X133290585Y-87258885D01*
X133289937Y-87252901D01*
X133289269Y-87235869D01*
X133291298Y-87167315D01*
X133291298Y-87167312D01*
X133291712Y-87153333D01*
X133292890Y-87150493D01*
X133292890Y-87113569D01*
X133293982Y-87076678D01*
X133293981Y-87076676D01*
X133294064Y-87073885D01*
X133292890Y-87059828D01*
X133292890Y-84714057D01*
X133293154Y-84705964D01*
X133301596Y-84576894D01*
X133307694Y-84483666D01*
X133309799Y-84467643D01*
X133352383Y-84253118D01*
X133356563Y-84237489D01*
X133426727Y-84030343D01*
X133432903Y-84015401D01*
X133529450Y-83819164D01*
X133537528Y-83805141D01*
X133658812Y-83623160D01*
X133668649Y-83610305D01*
X133671910Y-83606576D01*
X133812610Y-83445667D01*
X133824028Y-83434213D01*
X133988210Y-83289732D01*
X134001028Y-83279858D01*
X134182638Y-83157990D01*
X134196614Y-83149882D01*
X134392564Y-83052703D01*
X134407480Y-83046484D01*
X134614403Y-82975665D01*
X134630015Y-82971437D01*
X134844411Y-82928174D01*
X134860431Y-82926018D01*
X135066048Y-82911916D01*
X135082453Y-82910791D01*
X135090937Y-82910500D01*
X249669418Y-82910500D01*
X249705251Y-82910500D01*
X249713348Y-82910764D01*
X249935762Y-82925321D01*
X249951793Y-82927428D01*
X250166439Y-82970062D01*
X250182079Y-82974246D01*
X250389327Y-83044490D01*
X250404291Y-83050679D01*
X250600606Y-83147332D01*
X250614639Y-83155420D01*
X250796683Y-83276837D01*
X250809542Y-83286685D01*
X250813024Y-83289732D01*
X250974210Y-83430797D01*
X250985667Y-83442228D01*
X251130149Y-83606576D01*
X251140026Y-83619413D01*
X251261853Y-83801188D01*
X251269972Y-83815203D01*
X251367061Y-84011297D01*
X251373284Y-84026250D01*
X251443990Y-84233336D01*
X251448212Y-84248974D01*
X251491321Y-84463505D01*
X251493468Y-84479559D01*
X251508512Y-84701780D01*
X251508795Y-84710155D01*
X251508795Y-87058944D01*
X251508447Y-87062607D01*
X251508790Y-87110613D01*
X251507870Y-87126599D01*
X251506745Y-87135760D01*
X251508896Y-87164685D01*
X251509092Y-87167315D01*
X251509205Y-87168835D01*
X251509442Y-87201975D01*
X251512144Y-87208372D01*
X251513519Y-87226853D01*
X251531441Y-87467845D01*
X251530346Y-87485114D01*
X251530294Y-87496850D01*
X251534254Y-87517239D01*
X251534255Y-87517239D01*
X251535648Y-87524409D01*
X251537730Y-87552405D01*
X251543189Y-87563235D01*
X251546462Y-87580082D01*
X251592844Y-87818859D01*
X251593843Y-87836978D01*
X251595096Y-87847858D01*
X251601377Y-87867402D01*
X251601378Y-87867402D01*
X251603640Y-87874439D01*
X251608966Y-87901854D01*
X251615744Y-87912098D01*
X251620967Y-87928346D01*
X251620967Y-87928347D01*
X251693456Y-88153875D01*
X251696831Y-88172927D01*
X251699131Y-88182489D01*
X251707580Y-88200797D01*
X251713041Y-88214808D01*
X251719213Y-88234009D01*
X251719214Y-88234012D01*
X251719215Y-88234014D01*
X251724000Y-88242622D01*
X251734401Y-88258919D01*
X251829488Y-88464969D01*
X251837027Y-88481305D01*
X251838578Y-88491985D01*
X251853611Y-88517243D01*
X251856328Y-88523130D01*
X251856333Y-88523139D01*
X251865930Y-88543936D01*
X251873110Y-88553811D01*
X251872789Y-88554043D01*
X251883054Y-88566712D01*
X251944327Y-88669658D01*
X251944328Y-88669660D01*
X251954452Y-88686670D01*
X251956104Y-88694127D01*
X251974726Y-88720734D01*
X251977070Y-88724672D01*
X251991342Y-88748649D01*
X251999360Y-88757552D01*
X252008808Y-88769431D01*
X252043968Y-88819665D01*
X252043969Y-88819666D01*
X252054115Y-88834163D01*
X252055890Y-88840334D01*
X252076861Y-88866661D01*
X252079064Y-88869809D01*
X252079071Y-88869818D01*
X252096170Y-88894248D01*
X252101380Y-88899237D01*
X252112606Y-88911536D01*
X252162249Y-88973858D01*
X252164376Y-88979846D01*
X252186969Y-89004892D01*
X252189336Y-89007863D01*
X252207989Y-89031280D01*
X252213306Y-89035775D01*
X252225324Y-89047413D01*
X252268519Y-89095297D01*
X252268520Y-89095298D01*
X252280246Y-89108297D01*
X252282711Y-89114093D01*
X252306819Y-89137755D01*
X252314363Y-89146118D01*
X252329453Y-89162846D01*
X252334886Y-89166895D01*
X252347630Y-89177810D01*
X252393651Y-89222979D01*
X252393652Y-89222980D01*
X252406095Y-89235193D01*
X252408881Y-89240783D01*
X252434413Y-89262987D01*
X252437069Y-89265594D01*
X252437087Y-89265611D01*
X252458564Y-89286691D01*
X252464053Y-89290284D01*
X252477505Y-89300462D01*
X252540256Y-89355035D01*
X252543354Y-89360417D01*
X252570191Y-89381068D01*
X252595757Y-89403302D01*
X252595758Y-89403302D01*
X252601350Y-89406500D01*
X252615417Y-89415870D01*
X252668674Y-89456851D01*
X252668673Y-89456851D01*
X252683694Y-89468409D01*
X252688997Y-89475971D01*
X252715083Y-89492563D01*
X252739589Y-89511421D01*
X252739590Y-89511421D01*
X252739591Y-89511422D01*
X252750538Y-89516839D01*
X252750127Y-89517667D01*
X252764502Y-89523997D01*
X252967854Y-89653343D01*
X252967853Y-89653343D01*
X252982261Y-89662507D01*
X252990451Y-89671648D01*
X253015638Y-89683737D01*
X253039210Y-89698731D01*
X253039212Y-89698732D01*
X253049487Y-89702719D01*
X253066692Y-89708243D01*
X253301072Y-89820744D01*
X253310351Y-89828890D01*
X253336732Y-89837861D01*
X253343428Y-89841075D01*
X253343431Y-89841076D01*
X253361854Y-89849919D01*
X253361857Y-89849919D01*
X253372178Y-89852568D01*
X253390302Y-89856077D01*
X253631610Y-89938136D01*
X253641941Y-89945191D01*
X253669055Y-89950869D01*
X253695284Y-89959789D01*
X253695288Y-89959788D01*
X253705073Y-89961082D01*
X253724333Y-89962446D01*
X253967644Y-90013406D01*
X253978968Y-90019238D01*
X254006351Y-90021513D01*
X254033247Y-90027146D01*
X254033251Y-90027145D01*
X254042064Y-90027234D01*
X254062494Y-90026177D01*
X254298486Y-90045783D01*
X254305503Y-90048766D01*
X254337986Y-90049065D01*
X254370374Y-90051756D01*
X254370378Y-90051754D01*
X254382000Y-90050431D01*
X254396037Y-90049634D01*
X254399125Y-90049634D01*
X254400266Y-90049639D01*
X254400491Y-90049641D01*
X254438693Y-90049993D01*
X254438695Y-90049991D01*
X254447532Y-90050073D01*
X254452223Y-90049634D01*
X257110818Y-90049634D01*
X257146654Y-90049634D01*
X257154749Y-90049898D01*
X257377087Y-90064447D01*
X257393140Y-90066556D01*
X257607715Y-90109164D01*
X257623348Y-90113345D01*
X257830552Y-90183554D01*
X257845499Y-90189734D01*
X258015025Y-90273173D01*
X258041774Y-90286339D01*
X258055805Y-90294422D01*
X258237825Y-90415783D01*
X258250674Y-90425620D01*
X258415324Y-90569661D01*
X258426789Y-90581096D01*
X258571261Y-90745360D01*
X258581138Y-90758191D01*
X258702975Y-90939881D01*
X258711096Y-90953890D01*
X258808214Y-91149900D01*
X258814440Y-91164847D01*
X258885196Y-91371860D01*
X258889422Y-91387493D01*
X258932593Y-91601938D01*
X258934745Y-91617985D01*
X258949872Y-91840122D01*
X258950159Y-91848547D01*
X258950159Y-117707287D01*
X258950042Y-117712682D01*
X258932233Y-118121640D01*
X258931295Y-118132383D01*
X258878376Y-118535544D01*
X258876509Y-118546165D01*
X258788758Y-118943213D01*
X258785975Y-118953632D01*
X258664060Y-119341545D01*
X258660383Y-119351683D01*
X258505218Y-119727555D01*
X258500673Y-119737335D01*
X258313443Y-120098288D01*
X258308066Y-120107636D01*
X258090178Y-120450965D01*
X258084009Y-120459810D01*
X257837119Y-120782901D01*
X257830204Y-120791177D01*
X257556172Y-121091598D01*
X257548566Y-121099242D01*
X257249464Y-121374722D01*
X257241221Y-121381676D01*
X256919323Y-121630119D01*
X256910507Y-121636331D01*
X256568233Y-121855869D01*
X256558911Y-121861291D01*
X256198853Y-122050263D01*
X256189095Y-122054854D01*
X255814001Y-122211817D01*
X255803881Y-122215544D01*
X255416540Y-122339331D01*
X255406135Y-122342164D01*
X255009515Y-122431827D01*
X254998903Y-122433745D01*
X254595996Y-122488606D01*
X254585257Y-122489595D01*
X254176773Y-122509355D01*
X254170782Y-122509500D01*
X47002706Y-122509500D01*
X46997297Y-122509382D01*
X46587102Y-122491472D01*
X46576326Y-122490529D01*
X46171950Y-122437292D01*
X46161296Y-122435414D01*
X45763078Y-122347131D01*
X45752630Y-122344331D01*
X45363639Y-122221683D01*
X45353473Y-122217983D01*
X44976642Y-122061894D01*
X44966838Y-122057322D01*
X44800015Y-121970480D01*
X44605042Y-121868983D01*
X44595686Y-121863582D01*
X44417873Y-121750302D01*
X44251690Y-121644431D01*
X44242829Y-121638227D01*
X43919233Y-121389923D01*
X43910946Y-121382969D01*
X43610232Y-121107416D01*
X43602583Y-121099767D01*
X43327030Y-120799053D01*
X43320076Y-120790766D01*
X43071772Y-120467170D01*
X43065568Y-120458309D01*
X43028608Y-120400294D01*
X42846413Y-120114305D01*
X42841020Y-120104965D01*
X42652674Y-119743155D01*
X42648105Y-119733357D01*
X42622008Y-119670354D01*
X42492459Y-119357597D01*
X42492459Y-119357594D01*
X42492015Y-119356522D01*
X42488316Y-119346360D01*
X42477995Y-119313626D01*
X54909499Y-119313626D01*
X54909500Y-119395701D01*
X54909500Y-119522054D01*
X54909519Y-119522352D01*
X54909519Y-119596384D01*
X54939701Y-119864288D01*
X54939705Y-119864315D01*
X54999692Y-120127147D01*
X54999694Y-120127153D01*
X54999695Y-120127157D01*
X55015176Y-120171400D01*
X55088739Y-120381642D01*
X55088740Y-120381644D01*
X55205720Y-120624563D01*
X55349160Y-120852853D01*
X55517265Y-121063654D01*
X55545208Y-121091598D01*
X55575303Y-121121693D01*
X55575307Y-121121700D01*
X55685636Y-121232029D01*
X55685669Y-121232090D01*
X55816328Y-121362746D01*
X55816332Y-121362749D01*
X55816333Y-121362750D01*
X56027132Y-121530853D01*
X56255427Y-121674297D01*
X56498347Y-121791278D01*
X56498348Y-121791278D01*
X56498349Y-121791279D01*
X56552694Y-121810294D01*
X56752838Y-121880324D01*
X57015698Y-121940317D01*
X57283623Y-121970501D01*
X57418432Y-121970500D01*
X59621568Y-121970500D01*
X59674300Y-121970500D01*
X59682456Y-121970500D01*
X59682749Y-121970480D01*
X59756376Y-121970481D01*
X60024299Y-121940297D01*
X60024306Y-121940295D01*
X60024315Y-121940294D01*
X60207704Y-121898438D01*
X60287157Y-121880305D01*
X60541646Y-121791259D01*
X60784564Y-121674279D01*
X61012858Y-121530836D01*
X61223655Y-121362734D01*
X61273321Y-121313068D01*
X61273343Y-121313049D01*
X61281698Y-121304693D01*
X61281700Y-121304693D01*
X62120719Y-120465672D01*
X62182040Y-120432189D01*
X62246716Y-120435424D01*
X62390591Y-120482171D01*
X62473429Y-120495291D01*
X62569449Y-120510500D01*
X62569454Y-120510500D01*
X62750551Y-120510500D01*
X62837259Y-120496765D01*
X62929409Y-120482171D01*
X63101639Y-120426211D01*
X63262994Y-120343996D01*
X63409501Y-120237553D01*
X63537553Y-120109501D01*
X63643996Y-119962994D01*
X63726211Y-119801639D01*
X63750328Y-119727413D01*
X63782171Y-119629410D01*
X63796453Y-119539240D01*
X63810500Y-119450551D01*
X63810500Y-119269448D01*
X63785245Y-119110000D01*
X63782171Y-119090591D01*
X63737671Y-118953632D01*
X63726212Y-118918363D01*
X63726211Y-118918360D01*
X63696474Y-118860000D01*
X63643996Y-118757006D01*
X63616876Y-118719678D01*
X63537558Y-118610505D01*
X63537554Y-118610500D01*
X63412425Y-118485371D01*
X64100000Y-118485371D01*
X64100000Y-119110000D01*
X64766988Y-119110000D01*
X64734075Y-119167007D01*
X64700000Y-119294174D01*
X64700000Y-119425826D01*
X64734075Y-119552993D01*
X64766988Y-119610000D01*
X64100000Y-119610000D01*
X64100000Y-120234628D01*
X64114503Y-120307540D01*
X64114505Y-120307544D01*
X64169760Y-120390239D01*
X64252455Y-120445494D01*
X64252459Y-120445496D01*
X64325371Y-120459999D01*
X64325374Y-120460000D01*
X64950000Y-120460000D01*
X64950000Y-119793012D01*
X65007007Y-119825925D01*
X65134174Y-119860000D01*
X65265826Y-119860000D01*
X65392993Y-119825925D01*
X65450000Y-119793012D01*
X65450000Y-120460000D01*
X66074626Y-120460000D01*
X66074628Y-120459999D01*
X66147540Y-120445496D01*
X66147544Y-120445494D01*
X66230239Y-120390239D01*
X66285494Y-120307544D01*
X66285496Y-120307540D01*
X66299999Y-120234628D01*
X66300000Y-120234626D01*
X66300000Y-119610000D01*
X65633012Y-119610000D01*
X65665925Y-119552993D01*
X65700000Y-119425826D01*
X65700000Y-119294174D01*
X65665925Y-119167007D01*
X65633012Y-119110000D01*
X66300000Y-119110000D01*
X66300000Y-118485373D01*
X66299999Y-118485371D01*
X66285496Y-118412459D01*
X66285494Y-118412455D01*
X66230239Y-118329760D01*
X66147544Y-118274505D01*
X66147540Y-118274503D01*
X66074627Y-118260000D01*
X65450000Y-118260000D01*
X65450000Y-118926988D01*
X65392993Y-118894075D01*
X65265826Y-118860000D01*
X65134174Y-118860000D01*
X65007007Y-118894075D01*
X64950000Y-118926988D01*
X64950000Y-118260000D01*
X64325373Y-118260000D01*
X64252459Y-118274503D01*
X64252455Y-118274505D01*
X64169760Y-118329760D01*
X64114505Y-118412455D01*
X64114503Y-118412459D01*
X64100000Y-118485371D01*
X63412425Y-118485371D01*
X63409499Y-118482445D01*
X63409494Y-118482441D01*
X63262997Y-118376006D01*
X63262996Y-118376005D01*
X63262994Y-118376004D01*
X63197930Y-118342852D01*
X63101639Y-118293788D01*
X63101636Y-118293787D01*
X62929410Y-118237829D01*
X62750551Y-118209500D01*
X62750546Y-118209500D01*
X62569454Y-118209500D01*
X62569449Y-118209500D01*
X62390589Y-118237829D01*
X62218363Y-118293787D01*
X62218360Y-118293788D01*
X62057002Y-118376006D01*
X61910505Y-118482441D01*
X61910500Y-118482445D01*
X61782445Y-118610500D01*
X61782441Y-118610505D01*
X61676006Y-118757002D01*
X61593788Y-118918360D01*
X61593787Y-118918363D01*
X61537829Y-119090589D01*
X61512473Y-119250678D01*
X61482544Y-119313813D01*
X61423232Y-119350744D01*
X61353369Y-119349746D01*
X61295137Y-119311136D01*
X61267527Y-119250678D01*
X61245245Y-119110000D01*
X61242171Y-119090591D01*
X61197671Y-118953632D01*
X61186212Y-118918363D01*
X61186211Y-118918360D01*
X61156474Y-118860000D01*
X61103996Y-118757006D01*
X61076876Y-118719678D01*
X60997558Y-118610505D01*
X60997554Y-118610500D01*
X60869497Y-118482443D01*
X60863670Y-118478210D01*
X60821004Y-118422881D01*
X60815023Y-118353268D01*
X60847628Y-118291472D01*
X60895601Y-118260849D01*
X60897153Y-118260305D01*
X60897157Y-118260305D01*
X61151645Y-118171259D01*
X61394563Y-118054279D01*
X61622856Y-117910837D01*
X61833654Y-117742735D01*
X61883320Y-117693069D01*
X61883342Y-117693050D01*
X61891697Y-117684694D01*
X61891699Y-117684694D01*
X62637054Y-116939337D01*
X62698375Y-116905854D01*
X62768066Y-116910838D01*
X62772120Y-116912432D01*
X62872414Y-116953976D01*
X63076126Y-116994497D01*
X63076136Y-116994499D01*
X63076139Y-116994500D01*
X63076141Y-116994500D01*
X63283861Y-116994500D01*
X63283862Y-116994499D01*
X63487586Y-116953976D01*
X63679493Y-116874486D01*
X63852204Y-116759083D01*
X63999083Y-116612204D01*
X64114486Y-116439493D01*
X64193976Y-116247586D01*
X64234500Y-116043859D01*
X64234500Y-115836141D01*
X64234500Y-115836138D01*
X64234499Y-115836136D01*
X64205643Y-115691069D01*
X64193976Y-115632414D01*
X64174936Y-115586446D01*
X64114488Y-115440511D01*
X64114487Y-115440509D01*
X64103467Y-115424017D01*
X63999083Y-115267796D01*
X63999080Y-115267792D01*
X63852207Y-115120919D01*
X63852203Y-115120916D01*
X63679490Y-115005512D01*
X63679488Y-115005511D01*
X63487590Y-114926025D01*
X63487578Y-114926022D01*
X63283862Y-114885500D01*
X63283859Y-114885500D01*
X63076141Y-114885500D01*
X63076138Y-114885500D01*
X62872421Y-114926022D01*
X62872409Y-114926025D01*
X62680511Y-115005511D01*
X62680509Y-115005512D01*
X62507796Y-115120916D01*
X62507792Y-115120919D01*
X62360919Y-115267792D01*
X62360916Y-115267796D01*
X62245512Y-115440509D01*
X62245511Y-115440511D01*
X62166025Y-115632409D01*
X62166022Y-115632421D01*
X62125500Y-115836136D01*
X62125500Y-116043863D01*
X62158069Y-116207600D01*
X62151842Y-116277192D01*
X62124133Y-116319472D01*
X61365467Y-117078138D01*
X61359544Y-117083686D01*
X61211399Y-117213603D01*
X61198531Y-117223477D01*
X61038080Y-117330685D01*
X61024032Y-117338795D01*
X60850967Y-117424138D01*
X60835982Y-117430345D01*
X60653254Y-117492371D01*
X60637587Y-117496569D01*
X60448325Y-117534213D01*
X60432244Y-117536330D01*
X60353703Y-117541477D01*
X60235306Y-117549235D01*
X60227218Y-117549500D01*
X59758050Y-117549500D01*
X59757749Y-117549519D01*
X59683615Y-117549519D01*
X59415711Y-117579701D01*
X59415684Y-117579705D01*
X59152852Y-117639692D01*
X59152837Y-117639697D01*
X58898357Y-117728739D01*
X58898355Y-117728740D01*
X58655436Y-117845720D01*
X58427146Y-117989160D01*
X58216344Y-118157266D01*
X58162635Y-118210973D01*
X58162634Y-118210972D01*
X58162631Y-118210976D01*
X58162630Y-118210977D01*
X58119280Y-118254326D01*
X58057957Y-118287811D01*
X57993283Y-118284575D01*
X57849411Y-118237829D01*
X57849412Y-118237829D01*
X57670551Y-118209500D01*
X57670546Y-118209500D01*
X57489454Y-118209500D01*
X57489449Y-118209500D01*
X57310589Y-118237829D01*
X57138363Y-118293787D01*
X57138360Y-118293788D01*
X56977002Y-118376006D01*
X56830505Y-118482441D01*
X56830500Y-118482445D01*
X56702445Y-118610500D01*
X56702441Y-118610505D01*
X56596006Y-118757002D01*
X56513788Y-118918360D01*
X56513787Y-118918363D01*
X56457829Y-119090589D01*
X56429500Y-119269448D01*
X56429500Y-119450551D01*
X56457829Y-119629410D01*
X56513787Y-119801636D01*
X56513788Y-119801639D01*
X56596006Y-119962997D01*
X56702441Y-120109494D01*
X56702445Y-120109499D01*
X56830500Y-120237554D01*
X56830505Y-120237558D01*
X56872520Y-120268083D01*
X56977006Y-120343996D01*
X57082484Y-120397740D01*
X57138360Y-120426211D01*
X57138363Y-120426212D01*
X57197709Y-120445494D01*
X57310591Y-120482171D01*
X57393429Y-120495291D01*
X57489449Y-120510500D01*
X57489454Y-120510500D01*
X57670551Y-120510500D01*
X57757259Y-120496765D01*
X57849409Y-120482171D01*
X58021639Y-120426211D01*
X58182994Y-120343996D01*
X58329501Y-120237553D01*
X58457553Y-120109501D01*
X58563996Y-119962994D01*
X58646211Y-119801639D01*
X58702171Y-119629409D01*
X58720391Y-119514373D01*
X58727527Y-119469321D01*
X58757456Y-119406186D01*
X58816768Y-119369255D01*
X58886630Y-119370253D01*
X58944863Y-119408863D01*
X58972473Y-119469321D01*
X58997829Y-119629410D01*
X59053787Y-119801636D01*
X59053788Y-119801639D01*
X59136006Y-119962997D01*
X59242441Y-120109494D01*
X59242445Y-120109499D01*
X59370500Y-120237554D01*
X59370505Y-120237558D01*
X59412520Y-120268083D01*
X59517006Y-120343996D01*
X59622484Y-120397740D01*
X59678360Y-120426211D01*
X59678363Y-120426212D01*
X59737709Y-120445494D01*
X59850591Y-120482171D01*
X59933429Y-120495291D01*
X60029449Y-120510500D01*
X60029454Y-120510500D01*
X60210551Y-120510500D01*
X60297259Y-120496765D01*
X60389409Y-120482171D01*
X60561639Y-120426211D01*
X60722994Y-120343996D01*
X60869501Y-120237553D01*
X60997553Y-120109501D01*
X61103996Y-119962994D01*
X61186211Y-119801639D01*
X61242171Y-119629409D01*
X61260391Y-119514373D01*
X61267527Y-119469321D01*
X61297456Y-119406186D01*
X61356768Y-119369255D01*
X61426630Y-119370253D01*
X61484863Y-119408863D01*
X61512473Y-119469321D01*
X61537829Y-119629410D01*
X61584575Y-119773281D01*
X61586570Y-119843122D01*
X61554325Y-119899280D01*
X61022715Y-120430890D01*
X61022705Y-120430901D01*
X60943107Y-120510500D01*
X60761809Y-120691798D01*
X60761802Y-120691805D01*
X60755461Y-120698145D01*
X60749545Y-120703686D01*
X60601400Y-120833602D01*
X60588532Y-120843476D01*
X60428083Y-120950683D01*
X60414035Y-120958793D01*
X60240965Y-121044139D01*
X60225980Y-121050346D01*
X60043254Y-121112371D01*
X60027587Y-121116569D01*
X59838325Y-121154213D01*
X59822244Y-121156330D01*
X59743703Y-121161477D01*
X59625306Y-121169235D01*
X59617218Y-121169500D01*
X57422486Y-121169500D01*
X57414378Y-121169235D01*
X57217754Y-121156350D01*
X57201672Y-121154233D01*
X57012407Y-121116588D01*
X56996740Y-121112390D01*
X56814009Y-121050363D01*
X56799024Y-121044156D01*
X56625956Y-120958812D01*
X56611908Y-120950702D01*
X56451455Y-120843493D01*
X56438587Y-120833619D01*
X56290660Y-120703892D01*
X56284737Y-120698344D01*
X56181861Y-120595468D01*
X56176313Y-120589545D01*
X56046397Y-120441400D01*
X56036523Y-120428532D01*
X56017671Y-120400317D01*
X55929312Y-120268077D01*
X55921206Y-120254035D01*
X55835860Y-120080965D01*
X55829653Y-120065980D01*
X55804146Y-119990836D01*
X55767625Y-119883244D01*
X55763432Y-119867598D01*
X55725785Y-119678318D01*
X55723669Y-119662243D01*
X55710764Y-119465307D01*
X55710500Y-119457218D01*
X55710500Y-119452485D01*
X55710765Y-119444377D01*
X55712440Y-119418812D01*
X55723650Y-119247745D01*
X55725764Y-119231681D01*
X55763414Y-119042393D01*
X55767605Y-119026754D01*
X55829637Y-118844004D01*
X55835843Y-118829024D01*
X55840793Y-118818986D01*
X55921191Y-118655948D01*
X55929291Y-118641916D01*
X56036512Y-118481446D01*
X56046373Y-118468595D01*
X56176120Y-118320644D01*
X56181639Y-118314752D01*
X57557054Y-116939337D01*
X57618375Y-116905854D01*
X57688067Y-116910838D01*
X57692119Y-116912432D01*
X57792414Y-116953976D01*
X57996126Y-116994497D01*
X57996136Y-116994499D01*
X57996139Y-116994500D01*
X57996141Y-116994500D01*
X58203861Y-116994500D01*
X58203862Y-116994499D01*
X58407586Y-116953976D01*
X58599493Y-116874486D01*
X58772204Y-116759083D01*
X58812494Y-116718793D01*
X58859723Y-116671565D01*
X58919080Y-116612207D01*
X58919083Y-116612204D01*
X59034486Y-116439493D01*
X59113976Y-116247586D01*
X59154500Y-116043859D01*
X59154500Y-115841110D01*
X59636000Y-115841110D01*
X59636000Y-116038889D01*
X59674581Y-116232848D01*
X59674583Y-116232856D01*
X59750266Y-116415570D01*
X59774542Y-116451902D01*
X59774543Y-116451903D01*
X60157037Y-116069408D01*
X60174075Y-116132993D01*
X60239901Y-116247007D01*
X60332993Y-116340099D01*
X60447007Y-116405925D01*
X60510590Y-116422962D01*
X60128096Y-116805456D01*
X60128096Y-116805457D01*
X60164429Y-116829733D01*
X60347143Y-116905416D01*
X60347151Y-116905418D01*
X60541110Y-116943999D01*
X60541114Y-116944000D01*
X60738886Y-116944000D01*
X60738889Y-116943999D01*
X60932848Y-116905418D01*
X60932856Y-116905416D01*
X61115569Y-116829734D01*
X61151903Y-116805457D01*
X60769409Y-116422962D01*
X60832993Y-116405925D01*
X60947007Y-116340099D01*
X61040099Y-116247007D01*
X61105925Y-116132993D01*
X61122962Y-116069408D01*
X61505457Y-116451903D01*
X61529734Y-116415569D01*
X61605416Y-116232856D01*
X61605418Y-116232848D01*
X61643999Y-116038889D01*
X61644000Y-116038886D01*
X61644000Y-115841114D01*
X61643999Y-115841110D01*
X61605418Y-115647151D01*
X61605416Y-115647143D01*
X61529733Y-115464429D01*
X61505456Y-115428096D01*
X61122962Y-115810590D01*
X61105925Y-115747007D01*
X61040099Y-115632993D01*
X60947007Y-115539901D01*
X60832993Y-115474075D01*
X60769409Y-115457037D01*
X61151903Y-115074543D01*
X61151902Y-115074542D01*
X61115570Y-115050266D01*
X60932856Y-114974583D01*
X60932848Y-114974581D01*
X60738889Y-114936000D01*
X60541110Y-114936000D01*
X60347151Y-114974581D01*
X60347143Y-114974583D01*
X60164429Y-115050266D01*
X60164426Y-115050267D01*
X60128096Y-115074542D01*
X60510591Y-115457037D01*
X60447007Y-115474075D01*
X60332993Y-115539901D01*
X60239901Y-115632993D01*
X60174075Y-115747007D01*
X60157037Y-115810591D01*
X59774542Y-115428096D01*
X59750267Y-115464426D01*
X59750266Y-115464429D01*
X59674583Y-115647143D01*
X59674581Y-115647151D01*
X59636000Y-115841110D01*
X59154500Y-115841110D01*
X59154500Y-115836141D01*
X59154500Y-115836138D01*
X59154499Y-115836136D01*
X59125643Y-115691069D01*
X59113976Y-115632414D01*
X59094936Y-115586446D01*
X59034488Y-115440511D01*
X59034487Y-115440509D01*
X59023467Y-115424017D01*
X58919083Y-115267796D01*
X58919080Y-115267792D01*
X58772207Y-115120919D01*
X58772203Y-115120916D01*
X58599490Y-115005512D01*
X58599488Y-115005511D01*
X58407590Y-114926025D01*
X58407578Y-114926022D01*
X58203862Y-114885500D01*
X58203859Y-114885500D01*
X57996141Y-114885500D01*
X57996138Y-114885500D01*
X57792421Y-114926022D01*
X57792409Y-114926025D01*
X57600511Y-115005511D01*
X57600509Y-115005512D01*
X57427796Y-115120916D01*
X57427792Y-115120919D01*
X57280919Y-115267792D01*
X57280916Y-115267796D01*
X57165512Y-115440509D01*
X57165511Y-115440511D01*
X57086025Y-115632409D01*
X57086022Y-115632421D01*
X57045500Y-115836136D01*
X57045500Y-116043863D01*
X57078069Y-116207600D01*
X57071842Y-116277192D01*
X57044133Y-116319472D01*
X55648918Y-117714688D01*
X55648858Y-117714720D01*
X55517249Y-117846333D01*
X55349146Y-118057132D01*
X55237398Y-118234984D01*
X55212737Y-118274233D01*
X55205700Y-118285432D01*
X55088721Y-118528348D01*
X55088720Y-118528349D01*
X54999678Y-118782832D01*
X54999674Y-118782844D01*
X54939685Y-119045685D01*
X54939684Y-119045691D01*
X54939683Y-119045696D01*
X54939683Y-119045698D01*
X54909780Y-119311136D01*
X54909499Y-119313626D01*
X42477995Y-119313626D01*
X42467550Y-119280500D01*
X42365667Y-118957365D01*
X42362868Y-118946921D01*
X42356537Y-118918363D01*
X42274583Y-118548695D01*
X42272707Y-118538049D01*
X42219468Y-118133654D01*
X42218528Y-118122917D01*
X42200618Y-117712702D01*
X42200500Y-117707293D01*
X42200500Y-111483626D01*
X50649499Y-111483626D01*
X50649500Y-111565701D01*
X50649500Y-113112054D01*
X50649519Y-113112352D01*
X50649519Y-113186384D01*
X50679701Y-113454288D01*
X50679705Y-113454315D01*
X50739692Y-113717147D01*
X50739694Y-113717153D01*
X50739695Y-113717157D01*
X50765909Y-113792077D01*
X50828739Y-113971641D01*
X50828740Y-113971643D01*
X50828741Y-113971645D01*
X50945721Y-114214563D01*
X51004395Y-114307944D01*
X51089162Y-114442855D01*
X51257264Y-114653653D01*
X51309451Y-114705841D01*
X51309474Y-114705867D01*
X51929181Y-115325574D01*
X51962666Y-115386897D01*
X51965500Y-115413255D01*
X51965500Y-116738856D01*
X51965502Y-116738882D01*
X51968413Y-116763987D01*
X51968415Y-116763991D01*
X52013793Y-116866764D01*
X52013794Y-116866765D01*
X52093235Y-116946206D01*
X52196009Y-116991585D01*
X52221135Y-116994500D01*
X53818864Y-116994499D01*
X53818879Y-116994497D01*
X53818882Y-116994497D01*
X53843987Y-116991586D01*
X53843988Y-116991585D01*
X53843991Y-116991585D01*
X53946765Y-116946206D01*
X54026206Y-116866765D01*
X54071585Y-116763991D01*
X54074500Y-116738865D01*
X54074499Y-115173888D01*
X54094184Y-115106850D01*
X54146987Y-115061095D01*
X54216146Y-115051151D01*
X54279702Y-115080176D01*
X54303494Y-115107919D01*
X54319159Y-115132851D01*
X54426771Y-115267796D01*
X54487265Y-115343654D01*
X54545302Y-115401692D01*
X54545306Y-115401699D01*
X54554811Y-115411204D01*
X54572580Y-115443753D01*
X54588286Y-115472517D01*
X54588285Y-115472522D01*
X54588289Y-115472529D01*
X54585615Y-115509867D01*
X54583302Y-115542209D01*
X54581682Y-115546326D01*
X54572011Y-115569674D01*
X54548801Y-115625711D01*
X54546023Y-115632417D01*
X54546021Y-115632421D01*
X54505500Y-115836136D01*
X54505500Y-116043863D01*
X54546022Y-116247578D01*
X54546025Y-116247590D01*
X54625511Y-116439488D01*
X54625512Y-116439490D01*
X54740916Y-116612203D01*
X54740919Y-116612207D01*
X54887792Y-116759080D01*
X54887796Y-116759083D01*
X55060507Y-116874486D01*
X55060508Y-116874486D01*
X55060509Y-116874487D01*
X55060511Y-116874488D01*
X55233653Y-116946205D01*
X55252414Y-116953976D01*
X55456126Y-116994497D01*
X55456136Y-116994499D01*
X55456139Y-116994500D01*
X55456141Y-116994500D01*
X55663861Y-116994500D01*
X55663862Y-116994499D01*
X55867586Y-116953976D01*
X56059493Y-116874486D01*
X56232204Y-116759083D01*
X56379083Y-116612204D01*
X56494486Y-116439493D01*
X56573976Y-116247586D01*
X56614500Y-116043859D01*
X56614500Y-115836141D01*
X56614500Y-115836138D01*
X56614499Y-115836136D01*
X56585643Y-115691069D01*
X56573976Y-115632414D01*
X56554936Y-115586446D01*
X56494488Y-115440511D01*
X56494487Y-115440509D01*
X56483467Y-115424017D01*
X56379083Y-115267796D01*
X56379080Y-115267792D01*
X56232207Y-115120919D01*
X56232203Y-115120916D01*
X56059490Y-115005512D01*
X56059488Y-115005511D01*
X55867590Y-114926025D01*
X55867578Y-114926022D01*
X55663862Y-114885500D01*
X55663859Y-114885500D01*
X55456141Y-114885500D01*
X55456138Y-114885500D01*
X55275717Y-114921388D01*
X55267810Y-114920680D01*
X55260372Y-114923455D01*
X55233508Y-114917611D01*
X55206126Y-114915161D01*
X55198116Y-114909912D01*
X55192099Y-114908603D01*
X55163845Y-114887452D01*
X55151863Y-114875470D01*
X55146325Y-114869558D01*
X55016395Y-114721398D01*
X55006522Y-114708531D01*
X55004725Y-114705841D01*
X54899311Y-114548074D01*
X54891208Y-114534039D01*
X54865914Y-114482747D01*
X54853920Y-114413917D01*
X54881042Y-114349526D01*
X54938671Y-114310021D01*
X55008510Y-114307944D01*
X55046017Y-114324804D01*
X55060507Y-114334486D01*
X55060510Y-114334487D01*
X55060511Y-114334488D01*
X55252409Y-114413974D01*
X55252414Y-114413976D01*
X55456136Y-114454499D01*
X55456139Y-114454500D01*
X55456141Y-114454500D01*
X55663861Y-114454500D01*
X55663862Y-114454499D01*
X55867586Y-114413976D01*
X56059493Y-114334486D01*
X56232204Y-114219083D01*
X56379083Y-114072204D01*
X56494486Y-113899493D01*
X56573976Y-113707586D01*
X56614500Y-113503859D01*
X56614500Y-113296141D01*
X56614500Y-113296138D01*
X56614499Y-113296136D01*
X57045500Y-113296136D01*
X57045500Y-113503863D01*
X57086022Y-113707578D01*
X57086025Y-113707590D01*
X57165511Y-113899488D01*
X57165512Y-113899490D01*
X57280916Y-114072203D01*
X57280919Y-114072207D01*
X57427792Y-114219080D01*
X57427796Y-114219083D01*
X57600507Y-114334486D01*
X57600508Y-114334486D01*
X57600509Y-114334487D01*
X57600511Y-114334488D01*
X57792409Y-114413974D01*
X57792414Y-114413976D01*
X57996136Y-114454499D01*
X57996139Y-114454500D01*
X57996141Y-114454500D01*
X58203861Y-114454500D01*
X58203862Y-114454499D01*
X58407586Y-114413976D01*
X58599493Y-114334486D01*
X58772204Y-114219083D01*
X58919083Y-114072204D01*
X59034486Y-113899493D01*
X59113976Y-113707586D01*
X59154500Y-113503859D01*
X59154500Y-113296141D01*
X59154500Y-113296138D01*
X59154499Y-113296136D01*
X59585500Y-113296136D01*
X59585500Y-113503863D01*
X59626022Y-113707578D01*
X59626025Y-113707590D01*
X59705511Y-113899488D01*
X59705512Y-113899490D01*
X59820916Y-114072203D01*
X59820919Y-114072207D01*
X59967792Y-114219080D01*
X59967796Y-114219083D01*
X60140507Y-114334486D01*
X60140508Y-114334486D01*
X60140509Y-114334487D01*
X60140511Y-114334488D01*
X60332409Y-114413974D01*
X60332414Y-114413976D01*
X60536136Y-114454499D01*
X60536139Y-114454500D01*
X60536141Y-114454500D01*
X60743861Y-114454500D01*
X60743862Y-114454499D01*
X60947586Y-114413976D01*
X61139493Y-114334486D01*
X61312204Y-114219083D01*
X61459083Y-114072204D01*
X61574486Y-113899493D01*
X61653976Y-113707586D01*
X61694500Y-113503859D01*
X61694500Y-113296141D01*
X61694500Y-113296138D01*
X61694499Y-113296136D01*
X62125500Y-113296136D01*
X62125500Y-113503863D01*
X62166022Y-113707578D01*
X62166025Y-113707590D01*
X62245511Y-113899488D01*
X62245512Y-113899490D01*
X62360916Y-114072203D01*
X62360919Y-114072207D01*
X62507792Y-114219080D01*
X62507796Y-114219083D01*
X62680507Y-114334486D01*
X62680508Y-114334486D01*
X62680509Y-114334487D01*
X62680511Y-114334488D01*
X62872409Y-114413974D01*
X62872414Y-114413976D01*
X63076136Y-114454499D01*
X63076139Y-114454500D01*
X63076141Y-114454500D01*
X63283861Y-114454500D01*
X63283862Y-114454499D01*
X63487586Y-114413976D01*
X63679493Y-114334486D01*
X63852204Y-114219083D01*
X63999083Y-114072204D01*
X64114486Y-113899493D01*
X64193976Y-113707586D01*
X64234500Y-113503859D01*
X64234500Y-113296141D01*
X64234500Y-113296138D01*
X64234499Y-113296136D01*
X64665500Y-113296136D01*
X64665500Y-113503863D01*
X64706022Y-113707578D01*
X64706025Y-113707590D01*
X64785511Y-113899488D01*
X64785512Y-113899490D01*
X64900916Y-114072203D01*
X64900919Y-114072207D01*
X65047792Y-114219080D01*
X65047796Y-114219083D01*
X65220507Y-114334486D01*
X65220508Y-114334486D01*
X65220509Y-114334487D01*
X65220511Y-114334488D01*
X65412409Y-114413974D01*
X65412414Y-114413976D01*
X65616136Y-114454499D01*
X65616139Y-114454500D01*
X65616141Y-114454500D01*
X65823861Y-114454500D01*
X65823862Y-114454499D01*
X66027586Y-114413976D01*
X66101879Y-114383202D01*
X66125668Y-114380644D01*
X66148589Y-114373766D01*
X66159774Y-114376977D01*
X66171344Y-114375734D01*
X66192741Y-114386444D01*
X66215745Y-114393050D01*
X66229549Y-114404868D01*
X66233824Y-114407008D01*
X66242556Y-114416004D01*
X66253601Y-114428598D01*
X66263477Y-114441468D01*
X66370685Y-114601919D01*
X66378795Y-114615967D01*
X66464138Y-114789032D01*
X66470345Y-114804016D01*
X66514397Y-114933794D01*
X66514977Y-114935501D01*
X66517885Y-115005311D01*
X66482591Y-115065610D01*
X66420298Y-115097256D01*
X66350786Y-115090200D01*
X66328667Y-115078461D01*
X66219495Y-115005515D01*
X66219488Y-115005511D01*
X66027590Y-114926025D01*
X66027578Y-114926022D01*
X65823862Y-114885500D01*
X65823859Y-114885500D01*
X65616141Y-114885500D01*
X65616138Y-114885500D01*
X65412421Y-114926022D01*
X65412409Y-114926025D01*
X65220511Y-115005511D01*
X65220509Y-115005512D01*
X65047796Y-115120916D01*
X65047792Y-115120919D01*
X64900919Y-115267792D01*
X64900916Y-115267796D01*
X64785512Y-115440509D01*
X64785511Y-115440511D01*
X64706025Y-115632409D01*
X64706022Y-115632421D01*
X64665500Y-115836136D01*
X64665500Y-116043863D01*
X64706022Y-116247578D01*
X64706025Y-116247590D01*
X64785511Y-116439488D01*
X64785512Y-116439490D01*
X64900916Y-116612203D01*
X64900919Y-116612207D01*
X65047792Y-116759080D01*
X65047796Y-116759083D01*
X65220507Y-116874486D01*
X65220508Y-116874486D01*
X65220509Y-116874487D01*
X65220511Y-116874488D01*
X65393653Y-116946205D01*
X65412414Y-116953976D01*
X65616126Y-116994497D01*
X65616136Y-116994499D01*
X65616139Y-116994500D01*
X65616141Y-116994500D01*
X65823861Y-116994500D01*
X65823862Y-116994499D01*
X66027586Y-116953976D01*
X66219493Y-116874486D01*
X66392204Y-116759083D01*
X66473906Y-116677380D01*
X66535227Y-116643897D01*
X66604919Y-116648881D01*
X66660853Y-116690752D01*
X66678628Y-116724110D01*
X66768739Y-116981642D01*
X66768740Y-116981644D01*
X66885720Y-117224563D01*
X67029160Y-117452853D01*
X67107635Y-117551260D01*
X67197266Y-117663655D01*
X67255303Y-117721693D01*
X67255307Y-117721700D01*
X67379042Y-117845435D01*
X67381990Y-117848383D01*
X67408130Y-117874523D01*
X67413678Y-117880446D01*
X67543603Y-118028600D01*
X67553477Y-118041468D01*
X67660685Y-118201919D01*
X67668795Y-118215967D01*
X67754138Y-118389032D01*
X67760345Y-118404017D01*
X67822371Y-118586745D01*
X67826569Y-118602412D01*
X67864213Y-118791674D01*
X67866330Y-118807755D01*
X67870647Y-118873624D01*
X67879235Y-119004694D01*
X67879500Y-119012781D01*
X67879500Y-119252054D01*
X67879519Y-119252352D01*
X67879519Y-119326384D01*
X67909701Y-119594288D01*
X67909705Y-119594315D01*
X67969692Y-119857147D01*
X67969694Y-119857153D01*
X67969695Y-119857157D01*
X67984434Y-119899280D01*
X68058739Y-120111642D01*
X68058740Y-120111644D01*
X68175720Y-120354563D01*
X68319160Y-120582853D01*
X68487265Y-120793654D01*
X68539452Y-120845842D01*
X68539475Y-120845868D01*
X68795635Y-121102028D01*
X68795668Y-121102089D01*
X68926328Y-121232746D01*
X68926332Y-121232749D01*
X68926333Y-121232750D01*
X69137132Y-121400853D01*
X69365427Y-121544297D01*
X69608347Y-121661278D01*
X69608348Y-121661278D01*
X69608349Y-121661279D01*
X69667030Y-121681811D01*
X69862838Y-121750324D01*
X70125698Y-121810317D01*
X70393623Y-121840501D01*
X70528432Y-121840500D01*
X228951568Y-121840500D01*
X229004300Y-121840500D01*
X229012456Y-121840500D01*
X229012749Y-121840480D01*
X229086376Y-121840481D01*
X229354299Y-121810297D01*
X229354306Y-121810295D01*
X229354315Y-121810294D01*
X229537704Y-121768438D01*
X229617157Y-121750305D01*
X229871646Y-121661259D01*
X230114564Y-121544279D01*
X230342858Y-121400836D01*
X230553655Y-121232734D01*
X230603321Y-121183068D01*
X230603343Y-121183049D01*
X230611698Y-121174693D01*
X230611700Y-121174693D01*
X241731040Y-110055351D01*
X241792361Y-110021868D01*
X241857033Y-110025102D01*
X241990628Y-110068510D01*
X242028881Y-110080940D01*
X242215514Y-110110500D01*
X242215519Y-110110500D01*
X242404486Y-110110500D01*
X242591118Y-110080940D01*
X242770832Y-110022547D01*
X242939199Y-109936760D01*
X243092073Y-109825690D01*
X243225690Y-109692073D01*
X243336760Y-109539199D01*
X243422547Y-109370832D01*
X243480940Y-109191118D01*
X243485707Y-109161022D01*
X243510500Y-109004486D01*
X243510500Y-108815513D01*
X243480940Y-108628881D01*
X243429039Y-108469148D01*
X243422547Y-108449168D01*
X243422545Y-108449165D01*
X243422545Y-108449163D01*
X243359639Y-108325704D01*
X243336760Y-108280801D01*
X243225690Y-108127927D01*
X243092073Y-107994310D01*
X242939199Y-107883240D01*
X242925767Y-107876396D01*
X242770836Y-107797454D01*
X242591118Y-107739059D01*
X242404486Y-107709500D01*
X242404481Y-107709500D01*
X242215519Y-107709500D01*
X242215514Y-107709500D01*
X242028881Y-107739059D01*
X241849163Y-107797454D01*
X241680800Y-107883240D01*
X241593579Y-107946610D01*
X241527927Y-107994310D01*
X241527925Y-107994312D01*
X241527924Y-107994312D01*
X241394312Y-108127924D01*
X241394312Y-108127925D01*
X241394310Y-108127927D01*
X241346610Y-108193579D01*
X241283240Y-108280800D01*
X241197454Y-108449163D01*
X241139059Y-108628881D01*
X241109500Y-108815513D01*
X241109500Y-109004486D01*
X241139060Y-109191119D01*
X241139060Y-109191122D01*
X241194895Y-109362961D01*
X241196890Y-109432802D01*
X241164645Y-109488960D01*
X230100547Y-120553060D01*
X230100544Y-120553063D01*
X230085465Y-120568141D01*
X230079545Y-120573686D01*
X229931400Y-120703602D01*
X229918532Y-120713476D01*
X229758083Y-120820683D01*
X229744035Y-120828793D01*
X229570965Y-120914139D01*
X229555980Y-120920346D01*
X229373254Y-120982371D01*
X229357587Y-120986569D01*
X229168325Y-121024213D01*
X229152244Y-121026330D01*
X229073703Y-121031477D01*
X228955306Y-121039235D01*
X228947218Y-121039500D01*
X70532486Y-121039500D01*
X70524378Y-121039235D01*
X70327754Y-121026350D01*
X70311672Y-121024233D01*
X70122407Y-120986588D01*
X70106740Y-120982390D01*
X69924009Y-120920363D01*
X69909024Y-120914156D01*
X69735956Y-120828812D01*
X69721908Y-120820702D01*
X69561455Y-120713493D01*
X69548587Y-120703619D01*
X69400660Y-120573892D01*
X69394737Y-120568344D01*
X69151861Y-120325468D01*
X69146313Y-120319545D01*
X69086430Y-120251260D01*
X69016396Y-120171399D01*
X69006523Y-120158532D01*
X68899312Y-119998077D01*
X68891206Y-119984035D01*
X68805860Y-119810965D01*
X68799653Y-119795980D01*
X68789033Y-119764693D01*
X68737625Y-119613244D01*
X68733432Y-119597598D01*
X68695785Y-119408318D01*
X68693669Y-119392243D01*
X68680764Y-119195307D01*
X68680500Y-119187218D01*
X68680500Y-118950757D01*
X68680480Y-118950344D01*
X68680481Y-118873624D01*
X68673981Y-118815931D01*
X68673981Y-118815923D01*
X68673777Y-118814108D01*
X69169500Y-118814108D01*
X69169500Y-118945892D01*
X69170804Y-118950757D01*
X69203608Y-119073187D01*
X69236554Y-119130250D01*
X69269500Y-119187314D01*
X69362686Y-119280500D01*
X69362687Y-119280501D01*
X69362689Y-119280502D01*
X69397122Y-119300382D01*
X69397134Y-119300388D01*
X69407138Y-119306164D01*
X69427824Y-119322554D01*
X69537529Y-119380399D01*
X69554916Y-119388875D01*
X69556275Y-119389485D01*
X69574378Y-119396923D01*
X69592906Y-119403851D01*
X69610005Y-119411415D01*
X69637742Y-119428342D01*
X69679272Y-119461886D01*
X69679275Y-119461887D01*
X69679283Y-119461894D01*
X69683644Y-119464843D01*
X69683405Y-119465196D01*
X69705543Y-119481936D01*
X69915635Y-119692028D01*
X69915668Y-119692089D01*
X70046328Y-119822746D01*
X70046332Y-119822749D01*
X70046333Y-119822750D01*
X70257132Y-119990853D01*
X70485427Y-120134297D01*
X70728347Y-120251278D01*
X70728348Y-120251278D01*
X70728349Y-120251279D01*
X70736226Y-120254035D01*
X70982838Y-120340324D01*
X71245698Y-120400317D01*
X71513623Y-120430501D01*
X71648432Y-120430500D01*
X207511568Y-120430500D01*
X207564300Y-120430500D01*
X207572456Y-120430500D01*
X207572749Y-120430480D01*
X207646376Y-120430481D01*
X207914299Y-120400297D01*
X207914306Y-120400295D01*
X207914315Y-120400294D01*
X208114685Y-120354563D01*
X208177157Y-120340305D01*
X208431646Y-120251259D01*
X208674564Y-120134279D01*
X208902858Y-119990836D01*
X209113655Y-119822734D01*
X209163321Y-119773068D01*
X209163343Y-119773049D01*
X209171698Y-119764693D01*
X209171700Y-119764693D01*
X218881040Y-110055351D01*
X218942361Y-110021868D01*
X219007033Y-110025102D01*
X219140628Y-110068510D01*
X219178881Y-110080940D01*
X219365514Y-110110500D01*
X219365519Y-110110500D01*
X219554486Y-110110500D01*
X219741118Y-110080940D01*
X219920832Y-110022547D01*
X220089199Y-109936760D01*
X220242073Y-109825690D01*
X220375690Y-109692073D01*
X220486760Y-109539199D01*
X220572547Y-109370832D01*
X220630940Y-109191118D01*
X220635707Y-109161022D01*
X220660500Y-109004486D01*
X220660500Y-108815513D01*
X220630940Y-108628881D01*
X220579039Y-108469148D01*
X220572547Y-108449168D01*
X220572545Y-108449165D01*
X220572545Y-108449163D01*
X220509639Y-108325704D01*
X220486760Y-108280801D01*
X220375690Y-108127927D01*
X220242073Y-107994310D01*
X220089199Y-107883240D01*
X220075767Y-107876396D01*
X219920836Y-107797454D01*
X219741118Y-107739059D01*
X219554486Y-107709500D01*
X219554481Y-107709500D01*
X219365519Y-107709500D01*
X219365514Y-107709500D01*
X219178881Y-107739059D01*
X218999163Y-107797454D01*
X218830800Y-107883240D01*
X218743579Y-107946610D01*
X218677927Y-107994310D01*
X218677925Y-107994312D01*
X218677924Y-107994312D01*
X218544312Y-108127924D01*
X218544312Y-108127925D01*
X218544310Y-108127927D01*
X218496610Y-108193579D01*
X218433240Y-108280800D01*
X218347454Y-108449163D01*
X218289059Y-108628881D01*
X218259500Y-108815513D01*
X218259500Y-109004486D01*
X218289060Y-109191119D01*
X218289060Y-109191122D01*
X218344895Y-109362961D01*
X218346890Y-109432802D01*
X218314645Y-109488960D01*
X208661127Y-119142480D01*
X208661124Y-119142483D01*
X208645465Y-119158141D01*
X208639545Y-119163686D01*
X208491400Y-119293602D01*
X208478532Y-119303476D01*
X208318083Y-119410683D01*
X208304035Y-119418793D01*
X208130965Y-119504139D01*
X208115980Y-119510346D01*
X207933254Y-119572371D01*
X207917587Y-119576569D01*
X207728325Y-119614213D01*
X207712244Y-119616330D01*
X207633703Y-119621477D01*
X207515306Y-119629235D01*
X207507218Y-119629500D01*
X71652486Y-119629500D01*
X71644378Y-119629235D01*
X71447754Y-119616350D01*
X71431672Y-119614233D01*
X71242407Y-119576588D01*
X71226740Y-119572390D01*
X71044009Y-119510363D01*
X71029024Y-119504156D01*
X70855956Y-119418812D01*
X70841908Y-119410702D01*
X70681455Y-119303493D01*
X70668587Y-119293619D01*
X70520660Y-119163892D01*
X70514737Y-119158344D01*
X70263574Y-118907181D01*
X70253932Y-118896339D01*
X70249057Y-118890164D01*
X70241902Y-118878270D01*
X70221809Y-118855653D01*
X70219575Y-118852823D01*
X70217536Y-118847759D01*
X70202552Y-118823953D01*
X70193589Y-118802583D01*
X70193111Y-118801419D01*
X70168221Y-118739819D01*
X70159911Y-118721088D01*
X70159228Y-118719678D01*
X70159220Y-118719661D01*
X70149535Y-118701292D01*
X70149524Y-118701271D01*
X70107722Y-118628129D01*
X70102596Y-118619492D01*
X70102203Y-118618854D01*
X70102202Y-118618852D01*
X70092985Y-118604772D01*
X70088813Y-118599674D01*
X70089350Y-118599234D01*
X70075411Y-118581192D01*
X70070502Y-118572689D01*
X70070497Y-118572683D01*
X69977316Y-118479502D01*
X69977314Y-118479500D01*
X69920250Y-118446554D01*
X69863187Y-118413608D01*
X69765476Y-118387427D01*
X69735892Y-118379500D01*
X69604108Y-118379500D01*
X69476812Y-118413608D01*
X69362686Y-118479500D01*
X69362683Y-118479502D01*
X69269502Y-118572683D01*
X69269500Y-118572686D01*
X69203608Y-118686812D01*
X69172731Y-118802050D01*
X69169500Y-118814108D01*
X68673777Y-118814108D01*
X68651851Y-118619492D01*
X68650297Y-118605701D01*
X68650295Y-118605694D01*
X68650294Y-118605684D01*
X68590307Y-118342852D01*
X68590305Y-118342843D01*
X68501259Y-118088355D01*
X68384279Y-117845437D01*
X68240837Y-117617144D01*
X68072735Y-117406346D01*
X68014697Y-117348307D01*
X68014694Y-117348301D01*
X67861859Y-117195466D01*
X67856313Y-117189545D01*
X67826320Y-117155344D01*
X67796918Y-117091962D01*
X67806451Y-117022746D01*
X67851891Y-116969671D01*
X67918812Y-116949588D01*
X67946281Y-116953580D01*
X67946439Y-116952788D01*
X68156136Y-116994499D01*
X68156139Y-116994500D01*
X68156141Y-116994500D01*
X68363861Y-116994500D01*
X68363862Y-116994499D01*
X68567586Y-116953976D01*
X68759493Y-116874486D01*
X68932204Y-116759083D01*
X69079083Y-116612204D01*
X69194486Y-116439493D01*
X69273976Y-116247586D01*
X69314500Y-116043859D01*
X69314500Y-115836141D01*
X69314500Y-115836138D01*
X69314499Y-115836136D01*
X69285643Y-115691069D01*
X69273976Y-115632414D01*
X69254936Y-115586446D01*
X69194488Y-115440511D01*
X69194487Y-115440509D01*
X69183467Y-115424017D01*
X69079083Y-115267796D01*
X69079080Y-115267792D01*
X68932207Y-115120919D01*
X68932203Y-115120916D01*
X68759490Y-115005512D01*
X68759488Y-115005511D01*
X68567590Y-114926025D01*
X68567578Y-114926022D01*
X68363862Y-114885500D01*
X68363859Y-114885500D01*
X68156141Y-114885500D01*
X68156138Y-114885500D01*
X67952421Y-114926022D01*
X67952409Y-114926025D01*
X67760511Y-115005511D01*
X67760509Y-115005512D01*
X67587796Y-115120916D01*
X67587790Y-115120921D01*
X67577069Y-115131642D01*
X67515745Y-115165125D01*
X67446054Y-115160138D01*
X67390121Y-115118265D01*
X67366171Y-115057841D01*
X67360297Y-115005701D01*
X67360294Y-115005690D01*
X67360294Y-115005684D01*
X67300307Y-114742852D01*
X67300305Y-114742843D01*
X67211259Y-114488355D01*
X67094279Y-114245437D01*
X66950837Y-114017144D01*
X66782735Y-113806346D01*
X66772546Y-113796157D01*
X66739062Y-113734835D01*
X66738611Y-113684285D01*
X66774500Y-113503861D01*
X66774500Y-113296138D01*
X66774499Y-113296136D01*
X67205500Y-113296136D01*
X67205500Y-113503863D01*
X67246022Y-113707578D01*
X67246025Y-113707590D01*
X67325511Y-113899488D01*
X67325512Y-113899490D01*
X67440916Y-114072203D01*
X67440919Y-114072207D01*
X67587792Y-114219080D01*
X67587796Y-114219083D01*
X67760507Y-114334486D01*
X67760508Y-114334486D01*
X67760509Y-114334487D01*
X67760511Y-114334488D01*
X67952409Y-114413974D01*
X67952414Y-114413976D01*
X68156136Y-114454499D01*
X68156139Y-114454500D01*
X68156141Y-114454500D01*
X68363861Y-114454500D01*
X68363862Y-114454499D01*
X68567586Y-114413976D01*
X68653672Y-114378317D01*
X68723138Y-114370848D01*
X68785617Y-114402122D01*
X68788804Y-114405197D01*
X69278130Y-114894523D01*
X69283678Y-114900446D01*
X69413603Y-115048600D01*
X69423477Y-115061468D01*
X69461427Y-115118265D01*
X69509692Y-115190501D01*
X69530685Y-115221919D01*
X69538795Y-115235967D01*
X69624138Y-115409032D01*
X69630345Y-115424017D01*
X69692371Y-115606745D01*
X69696569Y-115622412D01*
X69734213Y-115811674D01*
X69736330Y-115827755D01*
X69738859Y-115866339D01*
X69749235Y-116024694D01*
X69749500Y-116032769D01*
X69749500Y-116214300D01*
X69749518Y-116214369D01*
X69749519Y-116222340D01*
X69749518Y-116222342D01*
X69749519Y-116222352D01*
X69749519Y-116296384D01*
X69779701Y-116564288D01*
X69779705Y-116564315D01*
X69839692Y-116827147D01*
X69839694Y-116827153D01*
X69839695Y-116827157D01*
X69856256Y-116874487D01*
X69928739Y-117081642D01*
X69928740Y-117081644D01*
X70045720Y-117324563D01*
X70189160Y-117552853D01*
X70357265Y-117763654D01*
X70409452Y-117815842D01*
X70409475Y-117815868D01*
X70944688Y-118351081D01*
X70944721Y-118351142D01*
X70981007Y-118387426D01*
X70981007Y-118387427D01*
X71076333Y-118482750D01*
X71287132Y-118650853D01*
X71515427Y-118794297D01*
X71758347Y-118911278D01*
X71758348Y-118911278D01*
X71758349Y-118911279D01*
X71805092Y-118927634D01*
X72012838Y-119000324D01*
X72275698Y-119060317D01*
X72543623Y-119090501D01*
X72678432Y-119090500D01*
X186001568Y-119090500D01*
X186054300Y-119090500D01*
X186062456Y-119090500D01*
X186062749Y-119090480D01*
X186136376Y-119090481D01*
X186404299Y-119060297D01*
X186404306Y-119060295D01*
X186404315Y-119060294D01*
X186587704Y-119018438D01*
X186667157Y-119000305D01*
X186921646Y-118911259D01*
X187164564Y-118794279D01*
X187392858Y-118650836D01*
X187603655Y-118482734D01*
X187661693Y-118424696D01*
X187661700Y-118424693D01*
X187698981Y-118387412D01*
X187739698Y-118346695D01*
X187739698Y-118346694D01*
X196031039Y-110055351D01*
X196092360Y-110021868D01*
X196157034Y-110025102D01*
X196279674Y-110064951D01*
X196328881Y-110080940D01*
X196515514Y-110110500D01*
X196515519Y-110110500D01*
X196704486Y-110110500D01*
X196891118Y-110080940D01*
X197070832Y-110022547D01*
X197239199Y-109936760D01*
X197392073Y-109825690D01*
X197525690Y-109692073D01*
X197636760Y-109539199D01*
X197722547Y-109370832D01*
X197780940Y-109191118D01*
X197785707Y-109161022D01*
X197810500Y-109004486D01*
X197810500Y-108815513D01*
X197780940Y-108628881D01*
X197729039Y-108469148D01*
X197722547Y-108449168D01*
X197722545Y-108449165D01*
X197722545Y-108449163D01*
X197659639Y-108325704D01*
X197636760Y-108280801D01*
X197525690Y-108127927D01*
X197392073Y-107994310D01*
X197239199Y-107883240D01*
X197225767Y-107876396D01*
X197070836Y-107797454D01*
X196891118Y-107739059D01*
X196704486Y-107709500D01*
X196704481Y-107709500D01*
X196515519Y-107709500D01*
X196515514Y-107709500D01*
X196328881Y-107739059D01*
X196149163Y-107797454D01*
X195980800Y-107883240D01*
X195893579Y-107946610D01*
X195827927Y-107994310D01*
X195827925Y-107994312D01*
X195827924Y-107994312D01*
X195694312Y-108127924D01*
X195694312Y-108127925D01*
X195694310Y-108127927D01*
X195646610Y-108193579D01*
X195583240Y-108280800D01*
X195497454Y-108449163D01*
X195439059Y-108628881D01*
X195409500Y-108815513D01*
X195409500Y-109004486D01*
X195439060Y-109191119D01*
X195439060Y-109191122D01*
X195494895Y-109362962D01*
X195496890Y-109432803D01*
X195464645Y-109488961D01*
X187135500Y-117818107D01*
X187134098Y-117819488D01*
X187134066Y-117819519D01*
X187129545Y-117823686D01*
X186981400Y-117953602D01*
X186968532Y-117963476D01*
X186808083Y-118070683D01*
X186794035Y-118078793D01*
X186620965Y-118164139D01*
X186605980Y-118170346D01*
X186423254Y-118232371D01*
X186407587Y-118236569D01*
X186218325Y-118274213D01*
X186202244Y-118276330D01*
X186123703Y-118281477D01*
X186005306Y-118289235D01*
X185997218Y-118289500D01*
X72682486Y-118289500D01*
X72674378Y-118289235D01*
X72477754Y-118276350D01*
X72461672Y-118274233D01*
X72272407Y-118236588D01*
X72256740Y-118232390D01*
X72074009Y-118170363D01*
X72059024Y-118164156D01*
X71885956Y-118078812D01*
X71871908Y-118070702D01*
X71711455Y-117963493D01*
X71698587Y-117953619D01*
X71550652Y-117823885D01*
X71544729Y-117818337D01*
X71021861Y-117295468D01*
X71016313Y-117289545D01*
X70886397Y-117141400D01*
X70876523Y-117128532D01*
X70852088Y-117091962D01*
X70769312Y-116968077D01*
X70761206Y-116954035D01*
X70675860Y-116780965D01*
X70669653Y-116765980D01*
X70644935Y-116693160D01*
X70607625Y-116583244D01*
X70603432Y-116567598D01*
X70565785Y-116378318D01*
X70563669Y-116362243D01*
X70550764Y-116165307D01*
X70550500Y-116157231D01*
X70550500Y-116103995D01*
X70550500Y-115975700D01*
X70550480Y-115975629D01*
X70550480Y-115967368D01*
X70550480Y-115939999D01*
X70550481Y-115893624D01*
X70538143Y-115784108D01*
X71189500Y-115784108D01*
X71189500Y-115915892D01*
X71195960Y-115940000D01*
X71223608Y-116043187D01*
X71256554Y-116100250D01*
X71289500Y-116157314D01*
X71382686Y-116250500D01*
X71382687Y-116250501D01*
X71382689Y-116250502D01*
X71417122Y-116270382D01*
X71417134Y-116270388D01*
X71427138Y-116276164D01*
X71447824Y-116292554D01*
X71557529Y-116350399D01*
X71574916Y-116358875D01*
X71576275Y-116359485D01*
X71594378Y-116366923D01*
X71612906Y-116373851D01*
X71630005Y-116381415D01*
X71657742Y-116398342D01*
X71699272Y-116431886D01*
X71699283Y-116431892D01*
X71703633Y-116434833D01*
X71703394Y-116435185D01*
X71725541Y-116451934D01*
X71992401Y-116718793D01*
X72260301Y-116986693D01*
X72260303Y-116986696D01*
X72263918Y-116990311D01*
X72264693Y-116991086D01*
X72264726Y-116991147D01*
X72301007Y-117027426D01*
X72301007Y-117027427D01*
X72396333Y-117122750D01*
X72607132Y-117290853D01*
X72835427Y-117434297D01*
X73078347Y-117551278D01*
X73078348Y-117551278D01*
X73078349Y-117551279D01*
X73141969Y-117573539D01*
X73332838Y-117640324D01*
X73595698Y-117700317D01*
X73863623Y-117730501D01*
X73998432Y-117730500D01*
X164511568Y-117730500D01*
X164564300Y-117730500D01*
X164572456Y-117730500D01*
X164572749Y-117730480D01*
X164646376Y-117730481D01*
X164914299Y-117700297D01*
X164914306Y-117700295D01*
X164914315Y-117700294D01*
X165097704Y-117658438D01*
X165177157Y-117640305D01*
X165431646Y-117551259D01*
X165674564Y-117434279D01*
X165902858Y-117290836D01*
X166113655Y-117122734D01*
X166163321Y-117073068D01*
X166163343Y-117073049D01*
X166171698Y-117064693D01*
X166171700Y-117064693D01*
X173181040Y-110055351D01*
X173242361Y-110021868D01*
X173307033Y-110025102D01*
X173440628Y-110068510D01*
X173478881Y-110080940D01*
X173665514Y-110110500D01*
X173665519Y-110110500D01*
X173854486Y-110110500D01*
X174041118Y-110080940D01*
X174220832Y-110022547D01*
X174389199Y-109936760D01*
X174542073Y-109825690D01*
X174675690Y-109692073D01*
X174786760Y-109539199D01*
X174872547Y-109370832D01*
X174930940Y-109191118D01*
X174935707Y-109161022D01*
X174960500Y-109004486D01*
X174960500Y-108815513D01*
X174930940Y-108628881D01*
X174879039Y-108469148D01*
X174872547Y-108449168D01*
X174872545Y-108449165D01*
X174872545Y-108449163D01*
X174809639Y-108325704D01*
X174786760Y-108280801D01*
X174675690Y-108127927D01*
X174542073Y-107994310D01*
X174389199Y-107883240D01*
X174375767Y-107876396D01*
X174220836Y-107797454D01*
X174041118Y-107739059D01*
X173854486Y-107709500D01*
X173854481Y-107709500D01*
X173665519Y-107709500D01*
X173665514Y-107709500D01*
X173478881Y-107739059D01*
X173299163Y-107797454D01*
X173130800Y-107883240D01*
X173043579Y-107946610D01*
X172977927Y-107994310D01*
X172977925Y-107994312D01*
X172977924Y-107994312D01*
X172844312Y-108127924D01*
X172844312Y-108127925D01*
X172844310Y-108127927D01*
X172796610Y-108193579D01*
X172733240Y-108280800D01*
X172647454Y-108449163D01*
X172589059Y-108628881D01*
X172559500Y-108815513D01*
X172559500Y-109004486D01*
X172589060Y-109191119D01*
X172589060Y-109191122D01*
X172644895Y-109362961D01*
X172646890Y-109432802D01*
X172614645Y-109488960D01*
X167391915Y-114711692D01*
X165653318Y-116450289D01*
X165645463Y-116458144D01*
X165639545Y-116463686D01*
X165491400Y-116593602D01*
X165478532Y-116603476D01*
X165318083Y-116710683D01*
X165304035Y-116718793D01*
X165130965Y-116804139D01*
X165115980Y-116810346D01*
X164933254Y-116872371D01*
X164917587Y-116876569D01*
X164728325Y-116914213D01*
X164712244Y-116916330D01*
X164633703Y-116921477D01*
X164515306Y-116929235D01*
X164507218Y-116929500D01*
X74002486Y-116929500D01*
X73994378Y-116929235D01*
X73797754Y-116916350D01*
X73781672Y-116914233D01*
X73592407Y-116876588D01*
X73576740Y-116872390D01*
X73394009Y-116810363D01*
X73379024Y-116804156D01*
X73205956Y-116718812D01*
X73191908Y-116710702D01*
X73031455Y-116603493D01*
X73018587Y-116593619D01*
X72870652Y-116463885D01*
X72864729Y-116458337D01*
X72283574Y-115877181D01*
X72273932Y-115866339D01*
X72269057Y-115860164D01*
X72261902Y-115848270D01*
X72241809Y-115825653D01*
X72239575Y-115822823D01*
X72237536Y-115817759D01*
X72222552Y-115793953D01*
X72213589Y-115772583D01*
X72213111Y-115771419D01*
X72188221Y-115709819D01*
X72179911Y-115691088D01*
X72179228Y-115689678D01*
X72179220Y-115689661D01*
X72169535Y-115671292D01*
X72169524Y-115671271D01*
X72127722Y-115598129D01*
X72122596Y-115589492D01*
X72122203Y-115588854D01*
X72120627Y-115586446D01*
X72112985Y-115574772D01*
X72108813Y-115569674D01*
X72109350Y-115569234D01*
X72095411Y-115551192D01*
X72090502Y-115542689D01*
X72090497Y-115542683D01*
X71997316Y-115449502D01*
X71997314Y-115449500D01*
X71927222Y-115409032D01*
X71883187Y-115383608D01*
X71805667Y-115362837D01*
X71755892Y-115349500D01*
X71624108Y-115349500D01*
X71496812Y-115383608D01*
X71382686Y-115449500D01*
X71382683Y-115449502D01*
X71289502Y-115542683D01*
X71289500Y-115542686D01*
X71223608Y-115656812D01*
X71192731Y-115772050D01*
X71189500Y-115784108D01*
X70538143Y-115784108D01*
X70520297Y-115625701D01*
X70520295Y-115625694D01*
X70520294Y-115625684D01*
X70460307Y-115362852D01*
X70460305Y-115362843D01*
X70371259Y-115108355D01*
X70254279Y-114865437D01*
X70110837Y-114637144D01*
X69942735Y-114426346D01*
X69891769Y-114375379D01*
X69891751Y-114375358D01*
X69312547Y-113796154D01*
X69279062Y-113734831D01*
X69278611Y-113684284D01*
X69301170Y-113570868D01*
X69314500Y-113503861D01*
X69314500Y-113296138D01*
X69314499Y-113296136D01*
X69305417Y-113250480D01*
X69273976Y-113092414D01*
X69232461Y-112992187D01*
X69194488Y-112900511D01*
X69194487Y-112900509D01*
X69139499Y-112818215D01*
X69079083Y-112727796D01*
X69079080Y-112727792D01*
X68932207Y-112580919D01*
X68932203Y-112580916D01*
X68759490Y-112465512D01*
X68759488Y-112465511D01*
X68567590Y-112386025D01*
X68567578Y-112386022D01*
X68363862Y-112345500D01*
X68363859Y-112345500D01*
X68156141Y-112345500D01*
X68156138Y-112345500D01*
X67952421Y-112386022D01*
X67952409Y-112386025D01*
X67760511Y-112465511D01*
X67760509Y-112465512D01*
X67587796Y-112580916D01*
X67587792Y-112580919D01*
X67440919Y-112727792D01*
X67440916Y-112727796D01*
X67325512Y-112900509D01*
X67325511Y-112900511D01*
X67246025Y-113092409D01*
X67246022Y-113092421D01*
X67205500Y-113296136D01*
X66774499Y-113296136D01*
X66765417Y-113250480D01*
X66733976Y-113092414D01*
X66692461Y-112992187D01*
X66654488Y-112900511D01*
X66654487Y-112900509D01*
X66599499Y-112818215D01*
X66539083Y-112727796D01*
X66539080Y-112727792D01*
X66392207Y-112580919D01*
X66392203Y-112580916D01*
X66219490Y-112465512D01*
X66219488Y-112465511D01*
X66027590Y-112386025D01*
X66027578Y-112386022D01*
X65823862Y-112345500D01*
X65823859Y-112345500D01*
X65616141Y-112345500D01*
X65616138Y-112345500D01*
X65412421Y-112386022D01*
X65412409Y-112386025D01*
X65220511Y-112465511D01*
X65220509Y-112465512D01*
X65047796Y-112580916D01*
X65047792Y-112580919D01*
X64900919Y-112727792D01*
X64900916Y-112727796D01*
X64785512Y-112900509D01*
X64785511Y-112900511D01*
X64706025Y-113092409D01*
X64706022Y-113092421D01*
X64665500Y-113296136D01*
X64234499Y-113296136D01*
X64225417Y-113250480D01*
X64193976Y-113092414D01*
X64152461Y-112992187D01*
X64114488Y-112900511D01*
X64114487Y-112900509D01*
X64059499Y-112818215D01*
X63999083Y-112727796D01*
X63999080Y-112727792D01*
X63852207Y-112580919D01*
X63852203Y-112580916D01*
X63679490Y-112465512D01*
X63679488Y-112465511D01*
X63487590Y-112386025D01*
X63487578Y-112386022D01*
X63283862Y-112345500D01*
X63283859Y-112345500D01*
X63076141Y-112345500D01*
X63076138Y-112345500D01*
X62872421Y-112386022D01*
X62872409Y-112386025D01*
X62680511Y-112465511D01*
X62680509Y-112465512D01*
X62507796Y-112580916D01*
X62507792Y-112580919D01*
X62360919Y-112727792D01*
X62360916Y-112727796D01*
X62245512Y-112900509D01*
X62245511Y-112900511D01*
X62166025Y-113092409D01*
X62166022Y-113092421D01*
X62125500Y-113296136D01*
X61694499Y-113296136D01*
X61685417Y-113250480D01*
X61653976Y-113092414D01*
X61612461Y-112992187D01*
X61574488Y-112900511D01*
X61574487Y-112900509D01*
X61519499Y-112818215D01*
X61459083Y-112727796D01*
X61459080Y-112727792D01*
X61312207Y-112580919D01*
X61312203Y-112580916D01*
X61139490Y-112465512D01*
X61139488Y-112465511D01*
X60947590Y-112386025D01*
X60947578Y-112386022D01*
X60743862Y-112345500D01*
X60743859Y-112345500D01*
X60536141Y-112345500D01*
X60536138Y-112345500D01*
X60332421Y-112386022D01*
X60332409Y-112386025D01*
X60140511Y-112465511D01*
X60140509Y-112465512D01*
X59967796Y-112580916D01*
X59967792Y-112580919D01*
X59820919Y-112727792D01*
X59820916Y-112727796D01*
X59705512Y-112900509D01*
X59705511Y-112900511D01*
X59626025Y-113092409D01*
X59626022Y-113092421D01*
X59585500Y-113296136D01*
X59154499Y-113296136D01*
X59145417Y-113250480D01*
X59113976Y-113092414D01*
X59072461Y-112992187D01*
X59034488Y-112900511D01*
X59034487Y-112900509D01*
X58979499Y-112818215D01*
X58919083Y-112727796D01*
X58919080Y-112727792D01*
X58772207Y-112580919D01*
X58772203Y-112580916D01*
X58599490Y-112465512D01*
X58599488Y-112465511D01*
X58407590Y-112386025D01*
X58407578Y-112386022D01*
X58203862Y-112345500D01*
X58203859Y-112345500D01*
X57996141Y-112345500D01*
X57996138Y-112345500D01*
X57792421Y-112386022D01*
X57792409Y-112386025D01*
X57600511Y-112465511D01*
X57600509Y-112465512D01*
X57427796Y-112580916D01*
X57427792Y-112580919D01*
X57280919Y-112727792D01*
X57280916Y-112727796D01*
X57165512Y-112900509D01*
X57165511Y-112900511D01*
X57086025Y-113092409D01*
X57086022Y-113092421D01*
X57045500Y-113296136D01*
X56614499Y-113296136D01*
X56605417Y-113250480D01*
X56573976Y-113092414D01*
X56532458Y-112992182D01*
X56524990Y-112922717D01*
X56556264Y-112860238D01*
X56559311Y-112857080D01*
X57524531Y-111891860D01*
X57530423Y-111886341D01*
X57678608Y-111756389D01*
X57691459Y-111746528D01*
X57851931Y-111639306D01*
X57865954Y-111631211D01*
X58039037Y-111545858D01*
X58054012Y-111539655D01*
X58236759Y-111477624D01*
X58252398Y-111473433D01*
X58441683Y-111435784D01*
X58457747Y-111433670D01*
X58654692Y-111420764D01*
X58662782Y-111420500D01*
X58716005Y-111420500D01*
X69073995Y-111420500D01*
X69127514Y-111420500D01*
X69135622Y-111420765D01*
X69332252Y-111433649D01*
X69348320Y-111435765D01*
X69537602Y-111473413D01*
X69553249Y-111477606D01*
X69735990Y-111539636D01*
X69750975Y-111545843D01*
X69924049Y-111631191D01*
X69938084Y-111639294D01*
X70076696Y-111731909D01*
X70098544Y-111746507D01*
X70111412Y-111756381D01*
X70259331Y-111886099D01*
X70265254Y-111891647D01*
X72820301Y-114446693D01*
X72820303Y-114446696D01*
X72823918Y-114450311D01*
X72824693Y-114451086D01*
X72824726Y-114451147D01*
X72861007Y-114487426D01*
X72861007Y-114487427D01*
X72956333Y-114582750D01*
X73167132Y-114750853D01*
X73395427Y-114894297D01*
X73638347Y-115011278D01*
X73638348Y-115011278D01*
X73638349Y-115011279D01*
X73701969Y-115033539D01*
X73892838Y-115100324D01*
X74155698Y-115160317D01*
X74423623Y-115190501D01*
X74558432Y-115190500D01*
X144201568Y-115190500D01*
X144254300Y-115190500D01*
X144262456Y-115190500D01*
X144262749Y-115190480D01*
X144336376Y-115190481D01*
X144604299Y-115160297D01*
X144604306Y-115160295D01*
X144604315Y-115160294D01*
X144831872Y-115108358D01*
X144867157Y-115100305D01*
X145121646Y-115011259D01*
X145364564Y-114894279D01*
X145592858Y-114750836D01*
X145803655Y-114582734D01*
X145853321Y-114533068D01*
X145853343Y-114533049D01*
X145861698Y-114524693D01*
X145861700Y-114524693D01*
X150331040Y-110055351D01*
X150392361Y-110021868D01*
X150457033Y-110025102D01*
X150590628Y-110068510D01*
X150628881Y-110080940D01*
X150815514Y-110110500D01*
X150815519Y-110110500D01*
X151004486Y-110110500D01*
X151191118Y-110080940D01*
X151370832Y-110022547D01*
X151539199Y-109936760D01*
X151692073Y-109825690D01*
X151825690Y-109692073D01*
X151936760Y-109539199D01*
X152022547Y-109370832D01*
X152080940Y-109191118D01*
X152085707Y-109161022D01*
X152110500Y-109004486D01*
X152110500Y-108815513D01*
X152080940Y-108628881D01*
X152029039Y-108469148D01*
X152022547Y-108449168D01*
X152022545Y-108449165D01*
X152022545Y-108449163D01*
X151959639Y-108325704D01*
X151936760Y-108280801D01*
X151825690Y-108127927D01*
X151692073Y-107994310D01*
X151539199Y-107883240D01*
X151525767Y-107876396D01*
X151370836Y-107797454D01*
X151191118Y-107739059D01*
X151004486Y-107709500D01*
X151004481Y-107709500D01*
X150815519Y-107709500D01*
X150815514Y-107709500D01*
X150628881Y-107739059D01*
X150449163Y-107797454D01*
X150280800Y-107883240D01*
X150193579Y-107946610D01*
X150127927Y-107994310D01*
X150127925Y-107994312D01*
X150127924Y-107994312D01*
X149994312Y-108127924D01*
X149994312Y-108127925D01*
X149994310Y-108127927D01*
X149946610Y-108193579D01*
X149883240Y-108280800D01*
X149797454Y-108449163D01*
X149739059Y-108628881D01*
X149709500Y-108815513D01*
X149709500Y-109004486D01*
X149739060Y-109191119D01*
X149739060Y-109191122D01*
X149794895Y-109362961D01*
X149796890Y-109432802D01*
X149764645Y-109488960D01*
X146442771Y-112810836D01*
X145345405Y-113908202D01*
X145335464Y-113918143D01*
X145329545Y-113923686D01*
X145181400Y-114053602D01*
X145168532Y-114063476D01*
X145008083Y-114170683D01*
X144994035Y-114178793D01*
X144820965Y-114264139D01*
X144805980Y-114270346D01*
X144623254Y-114332371D01*
X144607587Y-114336569D01*
X144418325Y-114374213D01*
X144402244Y-114376330D01*
X144323703Y-114381477D01*
X144205306Y-114389235D01*
X144197218Y-114389500D01*
X74562486Y-114389500D01*
X74554378Y-114389235D01*
X74357754Y-114376350D01*
X74341672Y-114374233D01*
X74152407Y-114336588D01*
X74136740Y-114332390D01*
X73954009Y-114270363D01*
X73939024Y-114264156D01*
X73765956Y-114178812D01*
X73751908Y-114170702D01*
X73591455Y-114063493D01*
X73578587Y-114053619D01*
X73430652Y-113923885D01*
X73424729Y-113918337D01*
X70865313Y-111358920D01*
X70865280Y-111358860D01*
X70733663Y-111227246D01*
X70522868Y-111059147D01*
X70427180Y-110999024D01*
X70294574Y-110915704D01*
X70275604Y-110906569D01*
X70051652Y-110798722D01*
X70051650Y-110798721D01*
X69872084Y-110735891D01*
X69797163Y-110709676D01*
X69797159Y-110709675D01*
X69797153Y-110709673D01*
X69534318Y-110649685D01*
X69534308Y-110649684D01*
X69534304Y-110649683D01*
X69534302Y-110649683D01*
X69266377Y-110619499D01*
X69266373Y-110619499D01*
X69131568Y-110619500D01*
X58598050Y-110619500D01*
X58597749Y-110619519D01*
X58523615Y-110619519D01*
X58255711Y-110649701D01*
X58255684Y-110649705D01*
X57992852Y-110709692D01*
X57992837Y-110709697D01*
X57738358Y-110798739D01*
X57738356Y-110798740D01*
X57495435Y-110915722D01*
X57267144Y-111059162D01*
X57056345Y-111227265D01*
X57002640Y-111280968D01*
X57002597Y-111281008D01*
X55939472Y-112344133D01*
X55878149Y-112377618D01*
X55827600Y-112378069D01*
X55663863Y-112345500D01*
X55663859Y-112345500D01*
X55456141Y-112345500D01*
X55456138Y-112345500D01*
X55252421Y-112386022D01*
X55252409Y-112386025D01*
X55060511Y-112465511D01*
X55060509Y-112465512D01*
X54887788Y-112580921D01*
X54886868Y-112581677D01*
X54886292Y-112581921D01*
X54882731Y-112584301D01*
X54882279Y-112583625D01*
X54868308Y-112589557D01*
X54852239Y-112601737D01*
X54836805Y-112602933D01*
X54822555Y-112608984D01*
X54802679Y-112605578D01*
X54782578Y-112607137D01*
X54768946Y-112599799D01*
X54753689Y-112597185D01*
X54738812Y-112583577D01*
X54721056Y-112574019D01*
X54713555Y-112560474D01*
X54702134Y-112550028D01*
X54696975Y-112530536D01*
X54687206Y-112512896D01*
X54685092Y-112485638D01*
X54684258Y-112482484D01*
X54684476Y-112477734D01*
X54693650Y-112337745D01*
X54695764Y-112321681D01*
X54733414Y-112132393D01*
X54737605Y-112116754D01*
X54799637Y-111934004D01*
X54805843Y-111919024D01*
X54819231Y-111891875D01*
X54891194Y-111745944D01*
X54899289Y-111731921D01*
X55006519Y-111571437D01*
X55016367Y-111558602D01*
X55146120Y-111410643D01*
X55151625Y-111404766D01*
X55964531Y-110591860D01*
X55970423Y-110586341D01*
X56118608Y-110456389D01*
X56131459Y-110446528D01*
X56291931Y-110339306D01*
X56305954Y-110331211D01*
X56479037Y-110245858D01*
X56494012Y-110239655D01*
X56676759Y-110177624D01*
X56692398Y-110173433D01*
X56881683Y-110135784D01*
X56897747Y-110133670D01*
X57094692Y-110120764D01*
X57102782Y-110120500D01*
X57156005Y-110120500D01*
X72643995Y-110120500D01*
X72697514Y-110120500D01*
X72705622Y-110120765D01*
X72902252Y-110133649D01*
X72918320Y-110135765D01*
X73107602Y-110173413D01*
X73123249Y-110177606D01*
X73266808Y-110226336D01*
X73305990Y-110239636D01*
X73320975Y-110245843D01*
X73494049Y-110331191D01*
X73508084Y-110339294D01*
X73668544Y-110446507D01*
X73681412Y-110456381D01*
X73829331Y-110586099D01*
X73835254Y-110591647D01*
X75755635Y-112512028D01*
X75755668Y-112512089D01*
X75886328Y-112642746D01*
X75886332Y-112642749D01*
X75886333Y-112642750D01*
X76097132Y-112810853D01*
X76325427Y-112954297D01*
X76568347Y-113071278D01*
X76568348Y-113071278D01*
X76568349Y-113071279D01*
X76628739Y-113092409D01*
X76822838Y-113160324D01*
X77085698Y-113220317D01*
X77353623Y-113250501D01*
X77488432Y-113250500D01*
X123291568Y-113250500D01*
X123344300Y-113250500D01*
X123352456Y-113250500D01*
X123352749Y-113250480D01*
X123426376Y-113250481D01*
X123694299Y-113220297D01*
X123694306Y-113220295D01*
X123694315Y-113220294D01*
X123877704Y-113178438D01*
X123957157Y-113160305D01*
X124211646Y-113071259D01*
X124454564Y-112954279D01*
X124682858Y-112810836D01*
X124893655Y-112642734D01*
X124951693Y-112584696D01*
X124951700Y-112584693D01*
X124988981Y-112547412D01*
X125029698Y-112506695D01*
X125029698Y-112506694D01*
X127481040Y-110055351D01*
X127542361Y-110021868D01*
X127607033Y-110025102D01*
X127740628Y-110068510D01*
X127778881Y-110080940D01*
X127965514Y-110110500D01*
X127965519Y-110110500D01*
X128154486Y-110110500D01*
X128341118Y-110080940D01*
X128520832Y-110022547D01*
X128689199Y-109936760D01*
X128842073Y-109825690D01*
X128975690Y-109692073D01*
X129086760Y-109539199D01*
X129172547Y-109370832D01*
X129230940Y-109191118D01*
X129235707Y-109161022D01*
X129260500Y-109004486D01*
X129260500Y-108815513D01*
X129230940Y-108628881D01*
X129179039Y-108469148D01*
X129172547Y-108449168D01*
X129172545Y-108449165D01*
X129172545Y-108449163D01*
X129109639Y-108325704D01*
X129086760Y-108280801D01*
X128975690Y-108127927D01*
X128842073Y-107994310D01*
X128689199Y-107883240D01*
X128675767Y-107876396D01*
X128520836Y-107797454D01*
X128341118Y-107739059D01*
X128154486Y-107709500D01*
X128154481Y-107709500D01*
X127965519Y-107709500D01*
X127965514Y-107709500D01*
X127778881Y-107739059D01*
X127599163Y-107797454D01*
X127430800Y-107883240D01*
X127343579Y-107946610D01*
X127277927Y-107994310D01*
X127277925Y-107994312D01*
X127277924Y-107994312D01*
X127144312Y-108127924D01*
X127144312Y-108127925D01*
X127144310Y-108127927D01*
X127096610Y-108193579D01*
X127033240Y-108280800D01*
X126947454Y-108449163D01*
X126889059Y-108628881D01*
X126859500Y-108815513D01*
X126859500Y-109004486D01*
X126889060Y-109191119D01*
X126889060Y-109191122D01*
X126944895Y-109362961D01*
X126946890Y-109432802D01*
X126914645Y-109488960D01*
X124442698Y-111960908D01*
X124442698Y-111960909D01*
X124425466Y-111978141D01*
X124419545Y-111983686D01*
X124271400Y-112113602D01*
X124258532Y-112123476D01*
X124098083Y-112230683D01*
X124084035Y-112238793D01*
X123910965Y-112324139D01*
X123895980Y-112330346D01*
X123713254Y-112392371D01*
X123697587Y-112396569D01*
X123508325Y-112434213D01*
X123492244Y-112436330D01*
X123413703Y-112441477D01*
X123295306Y-112449235D01*
X123287218Y-112449500D01*
X77492486Y-112449500D01*
X77484378Y-112449235D01*
X77287754Y-112436350D01*
X77271672Y-112434233D01*
X77082407Y-112396588D01*
X77066740Y-112392390D01*
X76884009Y-112330363D01*
X76869024Y-112324156D01*
X76695956Y-112238812D01*
X76681908Y-112230702D01*
X76521455Y-112123493D01*
X76508587Y-112113619D01*
X76360660Y-111983892D01*
X76354737Y-111978344D01*
X74435313Y-110058920D01*
X74435280Y-110058860D01*
X74303663Y-109927246D01*
X74092868Y-109759147D01*
X74018542Y-109712446D01*
X73864574Y-109615704D01*
X73621654Y-109498723D01*
X73621652Y-109498722D01*
X73621650Y-109498721D01*
X73442084Y-109435891D01*
X73367163Y-109409676D01*
X73367159Y-109409675D01*
X73367153Y-109409673D01*
X73104318Y-109349685D01*
X73104308Y-109349684D01*
X73104304Y-109349683D01*
X73104302Y-109349683D01*
X72836377Y-109319499D01*
X72836373Y-109319499D01*
X72701568Y-109319500D01*
X57038050Y-109319500D01*
X57037749Y-109319519D01*
X56963615Y-109319519D01*
X56695711Y-109349701D01*
X56695684Y-109349705D01*
X56432852Y-109409692D01*
X56432837Y-109409697D01*
X56178358Y-109498739D01*
X56178356Y-109498740D01*
X55935435Y-109615722D01*
X55707144Y-109759162D01*
X55496345Y-109927265D01*
X55441419Y-109982189D01*
X55441418Y-109982188D01*
X55441413Y-109982194D01*
X55401023Y-110022585D01*
X55401021Y-110022587D01*
X55360302Y-110063305D01*
X55360301Y-110063306D01*
X54618919Y-110804687D01*
X54618861Y-110804718D01*
X54487246Y-110936336D01*
X54319147Y-111147131D01*
X54175701Y-111375431D01*
X54058722Y-111618347D01*
X54058721Y-111618349D01*
X53969678Y-111872831D01*
X53969673Y-111872846D01*
X53909685Y-112135681D01*
X53909684Y-112135691D01*
X53909683Y-112135696D01*
X53909683Y-112135698D01*
X53880471Y-112395003D01*
X53879499Y-112403627D01*
X53879499Y-112474076D01*
X53859814Y-112541115D01*
X53807010Y-112586870D01*
X53737852Y-112596814D01*
X53686608Y-112577178D01*
X53681880Y-112574019D01*
X53519493Y-112465514D01*
X53519492Y-112465513D01*
X53519490Y-112465512D01*
X53487047Y-112452074D01*
X53432643Y-112408232D01*
X53410579Y-112341938D01*
X53410500Y-112337513D01*
X53410500Y-111832485D01*
X53410765Y-111824377D01*
X53415904Y-111745957D01*
X53423650Y-111627745D01*
X53425764Y-111611681D01*
X53463414Y-111422393D01*
X53467605Y-111406754D01*
X53529637Y-111224004D01*
X53535843Y-111209024D01*
X53621194Y-111035944D01*
X53629289Y-111021921D01*
X53736519Y-110861437D01*
X53746367Y-110848602D01*
X53876120Y-110700643D01*
X53881625Y-110694766D01*
X55274531Y-109301860D01*
X55280423Y-109296341D01*
X55428608Y-109166389D01*
X55441459Y-109156528D01*
X55601931Y-109049306D01*
X55615954Y-109041211D01*
X55789037Y-108955858D01*
X55804012Y-108949655D01*
X55986759Y-108887624D01*
X56002398Y-108883433D01*
X56191683Y-108845784D01*
X56207747Y-108843670D01*
X56404692Y-108830764D01*
X56412782Y-108830500D01*
X56466005Y-108830500D01*
X75843995Y-108830500D01*
X75897514Y-108830500D01*
X75905622Y-108830765D01*
X76102252Y-108843649D01*
X76118320Y-108845765D01*
X76307602Y-108883413D01*
X76323249Y-108887606D01*
X76505990Y-108949636D01*
X76520975Y-108955843D01*
X76694049Y-109041191D01*
X76708084Y-109049294D01*
X76708115Y-109049314D01*
X76868544Y-109156507D01*
X76881412Y-109166381D01*
X77029331Y-109296099D01*
X77035254Y-109301647D01*
X78755635Y-111022028D01*
X78755668Y-111022089D01*
X78886328Y-111152746D01*
X78886332Y-111152749D01*
X78886333Y-111152750D01*
X79097132Y-111320853D01*
X79325427Y-111464297D01*
X79568347Y-111581278D01*
X79568348Y-111581278D01*
X79568349Y-111581279D01*
X79631969Y-111603539D01*
X79822838Y-111670324D01*
X80085698Y-111730317D01*
X80353623Y-111760501D01*
X80488432Y-111760500D01*
X101931568Y-111760500D01*
X101984300Y-111760500D01*
X101992456Y-111760500D01*
X101992749Y-111760480D01*
X102066376Y-111760481D01*
X102334299Y-111730297D01*
X102334306Y-111730295D01*
X102334315Y-111730294D01*
X102517704Y-111688438D01*
X102597157Y-111670305D01*
X102851646Y-111581259D01*
X103094564Y-111464279D01*
X103322858Y-111320836D01*
X103533655Y-111152734D01*
X103583321Y-111103068D01*
X103583343Y-111103049D01*
X103591698Y-111094693D01*
X103591700Y-111094693D01*
X104631040Y-110055351D01*
X104692361Y-110021868D01*
X104757033Y-110025102D01*
X104890628Y-110068510D01*
X104928881Y-110080940D01*
X105115514Y-110110500D01*
X105115519Y-110110500D01*
X105304486Y-110110500D01*
X105491118Y-110080940D01*
X105670832Y-110022547D01*
X105839199Y-109936760D01*
X105992073Y-109825690D01*
X106125690Y-109692073D01*
X106236760Y-109539199D01*
X106322547Y-109370832D01*
X106380940Y-109191118D01*
X106385707Y-109161022D01*
X106410500Y-109004486D01*
X106410500Y-108815513D01*
X106380940Y-108628881D01*
X106329039Y-108469148D01*
X106322547Y-108449168D01*
X106322545Y-108449165D01*
X106322545Y-108449163D01*
X106259639Y-108325704D01*
X106236760Y-108280801D01*
X106125690Y-108127927D01*
X105992073Y-107994310D01*
X105839199Y-107883240D01*
X105825767Y-107876396D01*
X105670836Y-107797454D01*
X105491118Y-107739059D01*
X105304486Y-107709500D01*
X105304481Y-107709500D01*
X105115519Y-107709500D01*
X105115514Y-107709500D01*
X104928881Y-107739059D01*
X104749163Y-107797454D01*
X104580800Y-107883240D01*
X104493579Y-107946610D01*
X104427927Y-107994310D01*
X104427925Y-107994312D01*
X104427924Y-107994312D01*
X104294312Y-108127924D01*
X104294312Y-108127925D01*
X104294310Y-108127927D01*
X104246610Y-108193579D01*
X104183240Y-108280800D01*
X104097454Y-108449163D01*
X104039059Y-108628881D01*
X104009500Y-108815513D01*
X104009500Y-109004486D01*
X104039060Y-109191119D01*
X104039060Y-109191122D01*
X104094895Y-109362961D01*
X104096890Y-109432802D01*
X104064645Y-109488960D01*
X103066214Y-110487393D01*
X103066155Y-110487452D01*
X103065409Y-110488197D01*
X103059545Y-110493686D01*
X102911400Y-110623602D01*
X102898532Y-110633476D01*
X102738083Y-110740683D01*
X102724035Y-110748793D01*
X102550965Y-110834139D01*
X102535980Y-110840346D01*
X102353254Y-110902371D01*
X102337587Y-110906569D01*
X102148325Y-110944213D01*
X102132244Y-110946330D01*
X102053703Y-110951477D01*
X101935306Y-110959235D01*
X101927218Y-110959500D01*
X80492486Y-110959500D01*
X80484378Y-110959235D01*
X80287754Y-110946350D01*
X80271672Y-110944233D01*
X80082407Y-110906588D01*
X80066740Y-110902390D01*
X79884009Y-110840363D01*
X79869024Y-110834156D01*
X79695956Y-110748812D01*
X79681908Y-110740702D01*
X79521455Y-110633493D01*
X79508587Y-110623619D01*
X79360660Y-110493892D01*
X79354737Y-110488344D01*
X77635313Y-108768920D01*
X77635280Y-108768860D01*
X77503663Y-108637246D01*
X77292868Y-108469147D01*
X77170660Y-108392361D01*
X77064574Y-108325704D01*
X76971329Y-108280801D01*
X76821652Y-108208722D01*
X76821650Y-108208721D01*
X76642084Y-108145891D01*
X76567163Y-108119676D01*
X76567159Y-108119675D01*
X76567153Y-108119673D01*
X76304318Y-108059685D01*
X76304308Y-108059684D01*
X76304304Y-108059683D01*
X76304302Y-108059683D01*
X76036377Y-108029499D01*
X76036373Y-108029499D01*
X75901568Y-108029500D01*
X56348050Y-108029500D01*
X56347749Y-108029519D01*
X56273615Y-108029519D01*
X56005711Y-108059701D01*
X56005684Y-108059705D01*
X55742852Y-108119692D01*
X55742837Y-108119697D01*
X55488358Y-108208739D01*
X55488356Y-108208740D01*
X55245435Y-108325722D01*
X55017144Y-108469162D01*
X54806345Y-108637265D01*
X54752640Y-108690968D01*
X54752597Y-108691008D01*
X53348920Y-110094687D01*
X53348860Y-110094719D01*
X53217246Y-110226336D01*
X53049147Y-110437131D01*
X52934549Y-110619519D01*
X52915585Y-110649701D01*
X52905701Y-110665431D01*
X52788722Y-110908347D01*
X52788721Y-110908349D01*
X52699678Y-111162831D01*
X52699673Y-111162846D01*
X52639685Y-111425681D01*
X52639684Y-111425691D01*
X52639683Y-111425696D01*
X52639683Y-111425698D01*
X52612127Y-111670302D01*
X52609499Y-111693626D01*
X52609500Y-111775701D01*
X52609500Y-112345797D01*
X52589815Y-112412836D01*
X52537011Y-112458591D01*
X52532955Y-112460357D01*
X52520510Y-112465511D01*
X52520509Y-112465512D01*
X52347796Y-112580916D01*
X52347792Y-112580919D01*
X52200919Y-112727792D01*
X52200916Y-112727796D01*
X52085512Y-112900509D01*
X52085511Y-112900511D01*
X52006025Y-113092409D01*
X52006022Y-113092421D01*
X51965500Y-113296136D01*
X51965500Y-113503863D01*
X52006022Y-113707578D01*
X52006025Y-113707590D01*
X52085511Y-113899488D01*
X52085512Y-113899490D01*
X52200916Y-114072203D01*
X52200919Y-114072207D01*
X52347792Y-114219080D01*
X52347796Y-114219083D01*
X52520507Y-114334486D01*
X52520508Y-114334486D01*
X52520509Y-114334487D01*
X52520511Y-114334488D01*
X52712409Y-114413974D01*
X52712414Y-114413976D01*
X52916136Y-114454499D01*
X52916139Y-114454500D01*
X52916141Y-114454500D01*
X53123861Y-114454500D01*
X53123862Y-114454499D01*
X53327586Y-114413976D01*
X53519493Y-114334486D01*
X53692204Y-114219083D01*
X53724533Y-114186754D01*
X53785855Y-114153268D01*
X53855547Y-114158252D01*
X53911481Y-114200122D01*
X53933106Y-114246843D01*
X53969692Y-114407147D01*
X53969694Y-114407153D01*
X53969695Y-114407157D01*
X53995909Y-114482077D01*
X54058739Y-114661641D01*
X54058740Y-114661643D01*
X54058741Y-114661645D01*
X54101693Y-114750839D01*
X54109451Y-114766948D01*
X54120802Y-114835889D01*
X54093079Y-114900023D01*
X54035083Y-114938988D01*
X53965228Y-114940413D01*
X53947643Y-114934182D01*
X53946765Y-114933794D01*
X53870281Y-114900023D01*
X53843992Y-114888415D01*
X53818868Y-114885500D01*
X53818865Y-114885500D01*
X52673255Y-114885500D01*
X52606216Y-114865815D01*
X52585574Y-114849181D01*
X51921863Y-114185470D01*
X51916325Y-114179558D01*
X51786395Y-114031398D01*
X51776522Y-114018531D01*
X51758905Y-113992165D01*
X51669311Y-113858074D01*
X51661208Y-113844039D01*
X51575861Y-113670967D01*
X51569654Y-113655982D01*
X51507625Y-113473244D01*
X51503432Y-113457598D01*
X51465785Y-113268318D01*
X51463669Y-113252243D01*
X51463554Y-113250481D01*
X51450764Y-113055307D01*
X51450500Y-113047218D01*
X51450500Y-111622485D01*
X51450765Y-111614377D01*
X51455490Y-111542266D01*
X51463650Y-111417745D01*
X51465764Y-111401681D01*
X51503414Y-111212393D01*
X51507605Y-111196754D01*
X51569637Y-111014004D01*
X51575843Y-110999024D01*
X51661194Y-110825944D01*
X51669289Y-110811921D01*
X51776519Y-110651437D01*
X51786367Y-110638602D01*
X51916120Y-110490643D01*
X51921625Y-110484766D01*
X54394531Y-108011860D01*
X54400423Y-108006341D01*
X54548608Y-107876389D01*
X54561459Y-107866528D01*
X54721931Y-107759306D01*
X54735954Y-107751211D01*
X54909037Y-107665858D01*
X54924012Y-107659655D01*
X55106759Y-107597624D01*
X55122398Y-107593433D01*
X55311683Y-107555784D01*
X55327747Y-107553670D01*
X55524692Y-107540764D01*
X55532782Y-107540500D01*
X55586005Y-107540500D01*
X79703995Y-107540500D01*
X79757514Y-107540500D01*
X79765622Y-107540765D01*
X79962252Y-107553649D01*
X79978320Y-107555765D01*
X80167602Y-107593413D01*
X80183249Y-107597606D01*
X80365990Y-107659636D01*
X80380975Y-107665843D01*
X80554049Y-107751191D01*
X80568084Y-107759294D01*
X80668297Y-107826252D01*
X80728544Y-107866507D01*
X80741412Y-107876381D01*
X80889331Y-108006099D01*
X80895254Y-108011647D01*
X81214645Y-108331038D01*
X81248130Y-108392361D01*
X81244895Y-108457037D01*
X81189060Y-108628877D01*
X81189060Y-108628880D01*
X81159500Y-108815513D01*
X81159500Y-109004486D01*
X81189059Y-109191118D01*
X81247454Y-109370836D01*
X81333240Y-109539199D01*
X81444310Y-109692073D01*
X81577927Y-109825690D01*
X81730801Y-109936760D01*
X81810347Y-109977290D01*
X81899163Y-110022545D01*
X81899165Y-110022545D01*
X81899168Y-110022547D01*
X81995497Y-110053846D01*
X82078881Y-110080940D01*
X82265514Y-110110500D01*
X82265519Y-110110500D01*
X82454486Y-110110500D01*
X82641118Y-110080940D01*
X82820832Y-110022547D01*
X82989199Y-109936760D01*
X83142073Y-109825690D01*
X83275690Y-109692073D01*
X83386760Y-109539199D01*
X83472547Y-109370832D01*
X83530940Y-109191118D01*
X83535707Y-109161022D01*
X83560500Y-109004486D01*
X83560500Y-108815513D01*
X83530940Y-108628881D01*
X83479039Y-108469148D01*
X83472547Y-108449168D01*
X83472545Y-108449165D01*
X83472545Y-108449163D01*
X83409639Y-108325704D01*
X83386760Y-108280801D01*
X83275690Y-108127927D01*
X83142073Y-107994310D01*
X82989199Y-107883240D01*
X82975767Y-107876396D01*
X82820836Y-107797454D01*
X82641118Y-107739059D01*
X82454486Y-107709500D01*
X82454481Y-107709500D01*
X82265519Y-107709500D01*
X82265514Y-107709500D01*
X82078880Y-107739060D01*
X82078877Y-107739060D01*
X81907037Y-107794895D01*
X81837196Y-107796890D01*
X81781038Y-107764645D01*
X81495313Y-107478920D01*
X81491445Y-107475052D01*
X81458985Y-107442583D01*
X81458994Y-107442575D01*
X81363668Y-107347251D01*
X81152869Y-107179148D01*
X81152870Y-107179148D01*
X81152868Y-107179147D01*
X81078542Y-107132446D01*
X80924574Y-107035704D01*
X80681654Y-106918723D01*
X80681652Y-106918722D01*
X80681650Y-106918721D01*
X80502084Y-106855891D01*
X80427163Y-106829676D01*
X80427159Y-106829675D01*
X80427153Y-106829673D01*
X80164318Y-106769685D01*
X80164308Y-106769684D01*
X80164304Y-106769683D01*
X80164302Y-106769683D01*
X79896377Y-106739499D01*
X79896373Y-106739499D01*
X79761568Y-106739500D01*
X55468050Y-106739500D01*
X55467749Y-106739519D01*
X55393615Y-106739519D01*
X55125711Y-106769701D01*
X55125684Y-106769705D01*
X54862852Y-106829692D01*
X54862837Y-106829697D01*
X54608358Y-106918739D01*
X54608356Y-106918740D01*
X54365435Y-107035722D01*
X54137144Y-107179162D01*
X53926345Y-107347265D01*
X53872640Y-107400968D01*
X53872597Y-107401008D01*
X51388920Y-109884687D01*
X51388860Y-109884719D01*
X51257246Y-110016336D01*
X51089147Y-110227131D01*
X50945701Y-110455431D01*
X50828722Y-110698347D01*
X50828721Y-110698349D01*
X50739678Y-110952831D01*
X50739673Y-110952846D01*
X50679685Y-111215681D01*
X50679684Y-111215691D01*
X50679683Y-111215696D01*
X50679683Y-111215698D01*
X50650175Y-111477628D01*
X50649499Y-111483626D01*
X42200500Y-111483626D01*
X42200500Y-106279493D01*
X87560000Y-106279493D01*
X87560000Y-106460506D01*
X87588317Y-106639293D01*
X87644251Y-106811444D01*
X87644252Y-106811447D01*
X87726431Y-106972730D01*
X87737913Y-106988532D01*
X87737913Y-106988533D01*
X88186212Y-106540234D01*
X88197482Y-106582292D01*
X88269890Y-106707708D01*
X88372292Y-106810110D01*
X88497708Y-106882518D01*
X88539765Y-106893787D01*
X88091466Y-107342085D01*
X88091466Y-107342086D01*
X88107267Y-107353566D01*
X88107275Y-107353571D01*
X88268552Y-107435747D01*
X88268555Y-107435748D01*
X88440706Y-107491682D01*
X88619494Y-107520000D01*
X88800506Y-107520000D01*
X88979293Y-107491682D01*
X89151444Y-107435748D01*
X89151452Y-107435745D01*
X89312730Y-107353568D01*
X89328532Y-107342085D01*
X89328533Y-107342085D01*
X88880235Y-106893787D01*
X88922292Y-106882518D01*
X89047708Y-106810110D01*
X89150110Y-106707708D01*
X89222518Y-106582292D01*
X89233787Y-106540235D01*
X89682085Y-106988533D01*
X89682085Y-106988532D01*
X89693568Y-106972730D01*
X89775745Y-106811452D01*
X89775748Y-106811444D01*
X89831682Y-106639293D01*
X89860000Y-106460506D01*
X89860000Y-106279493D01*
X110410000Y-106279493D01*
X110410000Y-106460506D01*
X110438317Y-106639293D01*
X110494251Y-106811444D01*
X110494252Y-106811447D01*
X110576431Y-106972730D01*
X110587913Y-106988532D01*
X110587913Y-106988533D01*
X111036212Y-106540234D01*
X111047482Y-106582292D01*
X111119890Y-106707708D01*
X111222292Y-106810110D01*
X111347708Y-106882518D01*
X111389765Y-106893787D01*
X110941466Y-107342085D01*
X110941466Y-107342086D01*
X110957267Y-107353566D01*
X110957275Y-107353571D01*
X111118552Y-107435747D01*
X111118555Y-107435748D01*
X111290706Y-107491682D01*
X111469494Y-107520000D01*
X111650506Y-107520000D01*
X111829293Y-107491682D01*
X112001444Y-107435748D01*
X112001452Y-107435745D01*
X112162730Y-107353568D01*
X112178532Y-107342085D01*
X112178533Y-107342085D01*
X111730235Y-106893787D01*
X111772292Y-106882518D01*
X111897708Y-106810110D01*
X112000110Y-106707708D01*
X112072518Y-106582292D01*
X112083787Y-106540235D01*
X112532085Y-106988533D01*
X112532085Y-106988532D01*
X112543568Y-106972730D01*
X112625745Y-106811452D01*
X112625748Y-106811444D01*
X112681682Y-106639293D01*
X112710000Y-106460506D01*
X112710000Y-106279493D01*
X133260000Y-106279493D01*
X133260000Y-106460506D01*
X133288317Y-106639293D01*
X133344251Y-106811444D01*
X133344252Y-106811447D01*
X133426431Y-106972730D01*
X133437913Y-106988532D01*
X133437913Y-106988533D01*
X133886212Y-106540234D01*
X133897482Y-106582292D01*
X133969890Y-106707708D01*
X134072292Y-106810110D01*
X134197708Y-106882518D01*
X134239765Y-106893787D01*
X133791466Y-107342085D01*
X133791466Y-107342086D01*
X133807267Y-107353566D01*
X133807275Y-107353571D01*
X133968552Y-107435747D01*
X133968555Y-107435748D01*
X134140706Y-107491682D01*
X134319494Y-107520000D01*
X134500506Y-107520000D01*
X134679293Y-107491682D01*
X134851444Y-107435748D01*
X134851452Y-107435745D01*
X135012730Y-107353568D01*
X135028532Y-107342085D01*
X135028533Y-107342085D01*
X134580235Y-106893787D01*
X134622292Y-106882518D01*
X134747708Y-106810110D01*
X134850110Y-106707708D01*
X134922518Y-106582292D01*
X134933787Y-106540235D01*
X135382085Y-106988533D01*
X135382085Y-106988532D01*
X135393568Y-106972730D01*
X135475745Y-106811452D01*
X135475748Y-106811444D01*
X135531682Y-106639293D01*
X135560000Y-106460506D01*
X135560000Y-106279493D01*
X156110000Y-106279493D01*
X156110000Y-106460506D01*
X156138317Y-106639293D01*
X156194251Y-106811444D01*
X156194252Y-106811447D01*
X156276431Y-106972730D01*
X156287913Y-106988532D01*
X156287913Y-106988533D01*
X156736212Y-106540234D01*
X156747482Y-106582292D01*
X156819890Y-106707708D01*
X156922292Y-106810110D01*
X157047708Y-106882518D01*
X157089765Y-106893787D01*
X156641466Y-107342085D01*
X156641466Y-107342086D01*
X156657267Y-107353566D01*
X156657275Y-107353571D01*
X156818552Y-107435747D01*
X156818555Y-107435748D01*
X156990706Y-107491682D01*
X157169494Y-107520000D01*
X157350506Y-107520000D01*
X157529293Y-107491682D01*
X157701444Y-107435748D01*
X157701452Y-107435745D01*
X157862730Y-107353568D01*
X157878532Y-107342085D01*
X157878533Y-107342085D01*
X157430235Y-106893787D01*
X157472292Y-106882518D01*
X157597708Y-106810110D01*
X157700110Y-106707708D01*
X157772518Y-106582292D01*
X157783787Y-106540234D01*
X158232085Y-106988532D01*
X158243568Y-106972730D01*
X158325745Y-106811452D01*
X158325748Y-106811444D01*
X158381682Y-106639293D01*
X158410000Y-106460506D01*
X158410000Y-106279493D01*
X178960000Y-106279493D01*
X178960000Y-106460506D01*
X178988317Y-106639293D01*
X179044251Y-106811444D01*
X179044252Y-106811447D01*
X179126431Y-106972730D01*
X179137913Y-106988532D01*
X179137913Y-106988533D01*
X179586212Y-106540234D01*
X179597482Y-106582292D01*
X179669890Y-106707708D01*
X179772292Y-106810110D01*
X179897708Y-106882518D01*
X179939765Y-106893787D01*
X179491466Y-107342085D01*
X179491466Y-107342086D01*
X179507267Y-107353566D01*
X179507275Y-107353571D01*
X179668552Y-107435747D01*
X179668555Y-107435748D01*
X179840706Y-107491682D01*
X180019494Y-107520000D01*
X180200506Y-107520000D01*
X180379293Y-107491682D01*
X180551444Y-107435748D01*
X180551452Y-107435745D01*
X180712730Y-107353568D01*
X180728532Y-107342085D01*
X180728533Y-107342085D01*
X180280235Y-106893787D01*
X180322292Y-106882518D01*
X180447708Y-106810110D01*
X180550110Y-106707708D01*
X180622518Y-106582292D01*
X180633787Y-106540235D01*
X181082085Y-106988533D01*
X181082085Y-106988532D01*
X181093568Y-106972730D01*
X181175745Y-106811452D01*
X181175748Y-106811444D01*
X181231682Y-106639293D01*
X181260000Y-106460506D01*
X181260000Y-106279493D01*
X201810000Y-106279493D01*
X201810000Y-106460506D01*
X201838317Y-106639293D01*
X201894251Y-106811444D01*
X201894252Y-106811447D01*
X201976431Y-106972730D01*
X201987913Y-106988532D01*
X201987913Y-106988533D01*
X202436212Y-106540234D01*
X202447482Y-106582292D01*
X202519890Y-106707708D01*
X202622292Y-106810110D01*
X202747708Y-106882518D01*
X202789765Y-106893787D01*
X202341466Y-107342085D01*
X202341466Y-107342086D01*
X202357267Y-107353566D01*
X202357275Y-107353571D01*
X202518552Y-107435747D01*
X202518555Y-107435748D01*
X202690706Y-107491682D01*
X202869494Y-107520000D01*
X203050506Y-107520000D01*
X203229293Y-107491682D01*
X203401444Y-107435748D01*
X203401452Y-107435745D01*
X203562730Y-107353568D01*
X203578532Y-107342085D01*
X203578533Y-107342085D01*
X203130235Y-106893787D01*
X203172292Y-106882518D01*
X203297708Y-106810110D01*
X203400110Y-106707708D01*
X203472518Y-106582292D01*
X203483787Y-106540235D01*
X203932085Y-106988533D01*
X203932085Y-106988532D01*
X203943568Y-106972730D01*
X204025745Y-106811452D01*
X204025748Y-106811444D01*
X204081682Y-106639293D01*
X204110000Y-106460506D01*
X204110000Y-106279493D01*
X224660000Y-106279493D01*
X224660000Y-106460506D01*
X224688317Y-106639293D01*
X224744251Y-106811444D01*
X224744252Y-106811447D01*
X224826431Y-106972730D01*
X224837913Y-106988532D01*
X224837913Y-106988533D01*
X225286212Y-106540234D01*
X225297482Y-106582292D01*
X225369890Y-106707708D01*
X225472292Y-106810110D01*
X225597708Y-106882518D01*
X225639765Y-106893787D01*
X225191466Y-107342085D01*
X225191466Y-107342086D01*
X225207267Y-107353566D01*
X225207275Y-107353571D01*
X225368552Y-107435747D01*
X225368555Y-107435748D01*
X225540706Y-107491682D01*
X225719494Y-107520000D01*
X225900506Y-107520000D01*
X226079293Y-107491682D01*
X226251444Y-107435748D01*
X226251452Y-107435745D01*
X226412730Y-107353568D01*
X226428532Y-107342085D01*
X226428533Y-107342085D01*
X225980235Y-106893787D01*
X226022292Y-106882518D01*
X226147708Y-106810110D01*
X226250110Y-106707708D01*
X226322518Y-106582292D01*
X226333787Y-106540234D01*
X226782085Y-106988532D01*
X226793568Y-106972730D01*
X226875745Y-106811452D01*
X226875748Y-106811444D01*
X226931682Y-106639293D01*
X226960000Y-106460506D01*
X226960000Y-106279493D01*
X247510000Y-106279493D01*
X247510000Y-106460506D01*
X247538317Y-106639293D01*
X247594251Y-106811444D01*
X247594252Y-106811447D01*
X247676431Y-106972730D01*
X247687913Y-106988532D01*
X247687913Y-106988533D01*
X248136212Y-106540234D01*
X248147482Y-106582292D01*
X248219890Y-106707708D01*
X248322292Y-106810110D01*
X248447708Y-106882518D01*
X248489765Y-106893787D01*
X248041466Y-107342085D01*
X248041466Y-107342086D01*
X248057267Y-107353566D01*
X248057275Y-107353571D01*
X248218552Y-107435747D01*
X248218555Y-107435748D01*
X248390706Y-107491682D01*
X248569494Y-107520000D01*
X248750506Y-107520000D01*
X248929293Y-107491682D01*
X249101444Y-107435748D01*
X249101452Y-107435745D01*
X249262730Y-107353568D01*
X249278532Y-107342085D01*
X249278533Y-107342085D01*
X248830235Y-106893787D01*
X248872292Y-106882518D01*
X248997708Y-106810110D01*
X249100110Y-106707708D01*
X249172518Y-106582292D01*
X249183787Y-106540234D01*
X249632085Y-106988532D01*
X249643568Y-106972730D01*
X249725745Y-106811452D01*
X249725748Y-106811444D01*
X249781682Y-106639293D01*
X249810000Y-106460506D01*
X249810000Y-106279493D01*
X249781682Y-106100706D01*
X249725748Y-105928555D01*
X249725747Y-105928552D01*
X249643571Y-105767275D01*
X249643566Y-105767267D01*
X249632085Y-105751466D01*
X249183787Y-106199764D01*
X249172518Y-106157708D01*
X249100110Y-106032292D01*
X248997708Y-105929890D01*
X248872292Y-105857482D01*
X248830234Y-105846212D01*
X249278533Y-105397913D01*
X249262730Y-105386431D01*
X249101447Y-105304252D01*
X249101444Y-105304251D01*
X248929293Y-105248317D01*
X248750506Y-105220000D01*
X248569494Y-105220000D01*
X248390706Y-105248317D01*
X248218555Y-105304251D01*
X248218547Y-105304254D01*
X248057269Y-105386432D01*
X248041466Y-105397912D01*
X248041466Y-105397913D01*
X248489766Y-105846212D01*
X248447708Y-105857482D01*
X248322292Y-105929890D01*
X248219890Y-106032292D01*
X248147482Y-106157708D01*
X248136212Y-106199765D01*
X247687912Y-105751466D01*
X247676432Y-105767269D01*
X247594254Y-105928547D01*
X247594251Y-105928555D01*
X247538317Y-106100706D01*
X247510000Y-106279493D01*
X226960000Y-106279493D01*
X226931682Y-106100706D01*
X226875748Y-105928555D01*
X226875747Y-105928552D01*
X226793571Y-105767275D01*
X226793566Y-105767267D01*
X226782085Y-105751466D01*
X226333787Y-106199764D01*
X226322518Y-106157708D01*
X226250110Y-106032292D01*
X226147708Y-105929890D01*
X226022292Y-105857482D01*
X225980234Y-105846212D01*
X226428533Y-105397913D01*
X226412730Y-105386431D01*
X226251447Y-105304252D01*
X226251444Y-105304251D01*
X226079293Y-105248317D01*
X225900506Y-105220000D01*
X225719494Y-105220000D01*
X225540706Y-105248317D01*
X225368555Y-105304251D01*
X225368547Y-105304254D01*
X225207269Y-105386432D01*
X225191466Y-105397912D01*
X225191466Y-105397913D01*
X225639766Y-105846212D01*
X225597708Y-105857482D01*
X225472292Y-105929890D01*
X225369890Y-106032292D01*
X225297482Y-106157708D01*
X225286212Y-106199765D01*
X224837912Y-105751466D01*
X224826432Y-105767269D01*
X224744254Y-105928547D01*
X224744251Y-105928555D01*
X224688317Y-106100706D01*
X224660000Y-106279493D01*
X204110000Y-106279493D01*
X204081682Y-106100706D01*
X204025748Y-105928555D01*
X204025747Y-105928552D01*
X203943571Y-105767275D01*
X203943566Y-105767267D01*
X203932085Y-105751466D01*
X203483787Y-106199764D01*
X203472518Y-106157708D01*
X203400110Y-106032292D01*
X203297708Y-105929890D01*
X203172292Y-105857482D01*
X203130234Y-105846212D01*
X203578533Y-105397913D01*
X203562730Y-105386431D01*
X203401447Y-105304252D01*
X203401444Y-105304251D01*
X203229293Y-105248317D01*
X203050506Y-105220000D01*
X202869494Y-105220000D01*
X202690706Y-105248317D01*
X202518555Y-105304251D01*
X202518547Y-105304254D01*
X202357269Y-105386432D01*
X202341466Y-105397912D01*
X202341466Y-105397913D01*
X202789766Y-105846212D01*
X202747708Y-105857482D01*
X202622292Y-105929890D01*
X202519890Y-106032292D01*
X202447482Y-106157708D01*
X202436212Y-106199765D01*
X201987913Y-105751466D01*
X201987912Y-105751466D01*
X201976432Y-105767269D01*
X201894254Y-105928547D01*
X201894251Y-105928555D01*
X201838317Y-106100706D01*
X201810000Y-106279493D01*
X181260000Y-106279493D01*
X181231682Y-106100706D01*
X181175748Y-105928555D01*
X181175747Y-105928552D01*
X181093571Y-105767275D01*
X181093566Y-105767267D01*
X181082085Y-105751466D01*
X180633787Y-106199764D01*
X180622518Y-106157708D01*
X180550110Y-106032292D01*
X180447708Y-105929890D01*
X180322292Y-105857482D01*
X180280234Y-105846212D01*
X180728533Y-105397913D01*
X180712730Y-105386431D01*
X180551447Y-105304252D01*
X180551444Y-105304251D01*
X180379293Y-105248317D01*
X180200506Y-105220000D01*
X180019494Y-105220000D01*
X179840706Y-105248317D01*
X179668555Y-105304251D01*
X179668547Y-105304254D01*
X179507269Y-105386432D01*
X179491466Y-105397912D01*
X179491466Y-105397913D01*
X179939766Y-105846212D01*
X179897708Y-105857482D01*
X179772292Y-105929890D01*
X179669890Y-106032292D01*
X179597482Y-106157708D01*
X179586212Y-106199765D01*
X179137912Y-105751466D01*
X179126432Y-105767269D01*
X179044254Y-105928547D01*
X179044251Y-105928555D01*
X178988317Y-106100706D01*
X178960000Y-106279493D01*
X158410000Y-106279493D01*
X158381682Y-106100706D01*
X158325748Y-105928555D01*
X158325747Y-105928552D01*
X158243571Y-105767275D01*
X158243566Y-105767267D01*
X158232085Y-105751466D01*
X157783787Y-106199764D01*
X157772518Y-106157708D01*
X157700110Y-106032292D01*
X157597708Y-105929890D01*
X157472292Y-105857482D01*
X157430234Y-105846212D01*
X157878533Y-105397913D01*
X157862730Y-105386431D01*
X157701447Y-105304252D01*
X157701444Y-105304251D01*
X157529293Y-105248317D01*
X157350506Y-105220000D01*
X157169494Y-105220000D01*
X156990706Y-105248317D01*
X156818555Y-105304251D01*
X156818547Y-105304254D01*
X156657269Y-105386432D01*
X156641466Y-105397912D01*
X156641466Y-105397913D01*
X157089766Y-105846212D01*
X157047708Y-105857482D01*
X156922292Y-105929890D01*
X156819890Y-106032292D01*
X156747482Y-106157708D01*
X156736212Y-106199765D01*
X156287913Y-105751466D01*
X156287912Y-105751466D01*
X156276432Y-105767269D01*
X156194254Y-105928547D01*
X156194251Y-105928555D01*
X156138317Y-106100706D01*
X156110000Y-106279493D01*
X135560000Y-106279493D01*
X135531682Y-106100706D01*
X135475748Y-105928555D01*
X135475747Y-105928552D01*
X135393571Y-105767275D01*
X135393566Y-105767267D01*
X135382085Y-105751466D01*
X134933787Y-106199764D01*
X134922518Y-106157708D01*
X134850110Y-106032292D01*
X134747708Y-105929890D01*
X134622292Y-105857482D01*
X134580234Y-105846212D01*
X135028533Y-105397913D01*
X135012730Y-105386431D01*
X134851447Y-105304252D01*
X134851444Y-105304251D01*
X134679293Y-105248317D01*
X134500506Y-105220000D01*
X134319494Y-105220000D01*
X134140706Y-105248317D01*
X133968555Y-105304251D01*
X133968547Y-105304254D01*
X133807269Y-105386432D01*
X133791466Y-105397912D01*
X133791466Y-105397913D01*
X134239766Y-105846212D01*
X134197708Y-105857482D01*
X134072292Y-105929890D01*
X133969890Y-106032292D01*
X133897482Y-106157708D01*
X133886212Y-106199765D01*
X133437912Y-105751466D01*
X133426432Y-105767269D01*
X133344254Y-105928547D01*
X133344251Y-105928555D01*
X133288317Y-106100706D01*
X133260000Y-106279493D01*
X112710000Y-106279493D01*
X112681682Y-106100706D01*
X112625748Y-105928555D01*
X112625747Y-105928552D01*
X112543571Y-105767275D01*
X112543566Y-105767267D01*
X112532085Y-105751466D01*
X112083787Y-106199764D01*
X112072518Y-106157708D01*
X112000110Y-106032292D01*
X111897708Y-105929890D01*
X111772292Y-105857482D01*
X111730234Y-105846212D01*
X112178533Y-105397913D01*
X112162730Y-105386431D01*
X112001447Y-105304252D01*
X112001444Y-105304251D01*
X111829293Y-105248317D01*
X111650506Y-105220000D01*
X111469494Y-105220000D01*
X111290706Y-105248317D01*
X111118555Y-105304251D01*
X111118547Y-105304254D01*
X110957269Y-105386432D01*
X110941466Y-105397912D01*
X110941466Y-105397913D01*
X111389766Y-105846212D01*
X111347708Y-105857482D01*
X111222292Y-105929890D01*
X111119890Y-106032292D01*
X111047482Y-106157708D01*
X111036212Y-106199765D01*
X110587912Y-105751466D01*
X110576432Y-105767269D01*
X110494254Y-105928547D01*
X110494251Y-105928555D01*
X110438317Y-106100706D01*
X110410000Y-106279493D01*
X89860000Y-106279493D01*
X89831682Y-106100706D01*
X89775748Y-105928555D01*
X89775747Y-105928552D01*
X89693571Y-105767275D01*
X89693566Y-105767267D01*
X89682085Y-105751466D01*
X89233787Y-106199764D01*
X89222518Y-106157708D01*
X89150110Y-106032292D01*
X89047708Y-105929890D01*
X88922292Y-105857482D01*
X88880234Y-105846212D01*
X89328533Y-105397913D01*
X89312730Y-105386431D01*
X89151447Y-105304252D01*
X89151444Y-105304251D01*
X88979293Y-105248317D01*
X88800506Y-105220000D01*
X88619494Y-105220000D01*
X88440706Y-105248317D01*
X88268555Y-105304251D01*
X88268547Y-105304254D01*
X88107269Y-105386432D01*
X88091466Y-105397912D01*
X88091466Y-105397913D01*
X88539766Y-105846212D01*
X88497708Y-105857482D01*
X88372292Y-105929890D01*
X88269890Y-106032292D01*
X88197482Y-106157708D01*
X88186212Y-106199765D01*
X87737913Y-105751466D01*
X87737912Y-105751466D01*
X87726432Y-105767269D01*
X87644254Y-105928547D01*
X87644251Y-105928555D01*
X87588317Y-106100706D01*
X87560000Y-106279493D01*
X42200500Y-106279493D01*
X42200500Y-103726995D01*
X43006092Y-103726995D01*
X43006092Y-103935644D01*
X43038729Y-104141709D01*
X43103204Y-104340140D01*
X43182058Y-104494899D01*
X43197922Y-104526034D01*
X43320557Y-104694825D01*
X43468087Y-104842355D01*
X43636878Y-104964990D01*
X43724708Y-105009741D01*
X43822771Y-105059707D01*
X43822773Y-105059707D01*
X43822776Y-105059709D01*
X43894437Y-105082993D01*
X44021202Y-105124182D01*
X44227268Y-105156820D01*
X44227273Y-105156820D01*
X44435916Y-105156820D01*
X44641981Y-105124182D01*
X44840408Y-105059709D01*
X45026306Y-104964990D01*
X45195097Y-104842355D01*
X45342627Y-104694825D01*
X45465262Y-104526034D01*
X45559981Y-104340136D01*
X45624454Y-104141709D01*
X45643080Y-104024108D01*
X75609500Y-104024108D01*
X75609500Y-104155891D01*
X75643608Y-104283187D01*
X75676488Y-104340136D01*
X75709500Y-104397314D01*
X75802686Y-104490500D01*
X75916814Y-104556392D01*
X76044108Y-104590500D01*
X76044110Y-104590500D01*
X76175891Y-104590500D01*
X76175892Y-104590500D01*
X76225470Y-104577215D01*
X76251691Y-104574177D01*
X76370172Y-104537504D01*
X76388614Y-104531144D01*
X76390005Y-104530614D01*
X76407897Y-104523137D01*
X76425921Y-104514924D01*
X76443342Y-104508189D01*
X76474934Y-104500544D01*
X76505954Y-104497244D01*
X76528007Y-104494899D01*
X76528009Y-104494898D01*
X76528014Y-104494898D01*
X76528017Y-104494896D01*
X76533182Y-104493899D01*
X76533262Y-104494317D01*
X76560762Y-104490500D01*
X79582456Y-104490500D01*
X79582749Y-104490480D01*
X79656376Y-104490481D01*
X79924299Y-104460297D01*
X79924306Y-104460295D01*
X79924315Y-104460294D01*
X80110427Y-104417817D01*
X80187157Y-104400305D01*
X80441645Y-104311259D01*
X80684563Y-104194279D01*
X80912856Y-104050837D01*
X81123654Y-103882735D01*
X81173320Y-103833069D01*
X81173342Y-103833050D01*
X81181697Y-103824694D01*
X81181699Y-103824694D01*
X81323907Y-103682486D01*
X82649500Y-103682486D01*
X82649500Y-103977513D01*
X82671118Y-104141709D01*
X82688007Y-104269993D01*
X82757840Y-104530614D01*
X82764361Y-104554951D01*
X82764364Y-104554961D01*
X82877254Y-104827500D01*
X82877258Y-104827510D01*
X83024761Y-105082993D01*
X83204352Y-105317040D01*
X83204358Y-105317047D01*
X83412952Y-105525641D01*
X83412959Y-105525647D01*
X83647006Y-105705238D01*
X83902489Y-105852741D01*
X83902490Y-105852741D01*
X83902493Y-105852743D01*
X84175048Y-105965639D01*
X84460007Y-106041993D01*
X84752494Y-106080500D01*
X84752501Y-106080500D01*
X85047499Y-106080500D01*
X85047506Y-106080500D01*
X85339993Y-106041993D01*
X85624952Y-105965639D01*
X85897507Y-105852743D01*
X86152994Y-105705238D01*
X86387042Y-105525646D01*
X86387047Y-105525641D01*
X86555198Y-105357491D01*
X86595641Y-105317047D01*
X86595646Y-105317042D01*
X86775238Y-105082994D01*
X86922743Y-104827507D01*
X87035639Y-104554952D01*
X87111993Y-104269993D01*
X87150500Y-103977506D01*
X87150500Y-103682494D01*
X87150499Y-103682486D01*
X105499500Y-103682486D01*
X105499500Y-103977513D01*
X105521118Y-104141709D01*
X105538007Y-104269993D01*
X105607840Y-104530614D01*
X105614361Y-104554951D01*
X105614364Y-104554961D01*
X105727254Y-104827500D01*
X105727258Y-104827510D01*
X105874761Y-105082993D01*
X106054352Y-105317040D01*
X106054358Y-105317047D01*
X106262952Y-105525641D01*
X106262959Y-105525647D01*
X106497006Y-105705238D01*
X106752489Y-105852741D01*
X106752490Y-105852741D01*
X106752493Y-105852743D01*
X107025048Y-105965639D01*
X107310007Y-106041993D01*
X107602494Y-106080500D01*
X107602501Y-106080500D01*
X107897499Y-106080500D01*
X107897506Y-106080500D01*
X108189993Y-106041993D01*
X108474952Y-105965639D01*
X108747507Y-105852743D01*
X109002994Y-105705238D01*
X109237042Y-105525646D01*
X109237047Y-105525641D01*
X109405198Y-105357491D01*
X109445641Y-105317047D01*
X109445646Y-105317042D01*
X109625238Y-105082994D01*
X109772743Y-104827507D01*
X109885639Y-104554952D01*
X109961993Y-104269993D01*
X110000500Y-103977506D01*
X110000500Y-103682494D01*
X110000499Y-103682486D01*
X128349500Y-103682486D01*
X128349500Y-103977513D01*
X128371118Y-104141709D01*
X128388007Y-104269993D01*
X128457840Y-104530614D01*
X128464361Y-104554951D01*
X128464364Y-104554961D01*
X128577254Y-104827500D01*
X128577258Y-104827510D01*
X128724761Y-105082993D01*
X128904352Y-105317040D01*
X128904358Y-105317047D01*
X129112952Y-105525641D01*
X129112959Y-105525647D01*
X129347006Y-105705238D01*
X129602489Y-105852741D01*
X129602490Y-105852741D01*
X129602493Y-105852743D01*
X129875048Y-105965639D01*
X130160007Y-106041993D01*
X130452494Y-106080500D01*
X130452501Y-106080500D01*
X130747499Y-106080500D01*
X130747506Y-106080500D01*
X131039993Y-106041993D01*
X131324952Y-105965639D01*
X131597507Y-105852743D01*
X131852994Y-105705238D01*
X132087042Y-105525646D01*
X132087047Y-105525641D01*
X132255198Y-105357491D01*
X132295641Y-105317047D01*
X132295646Y-105317042D01*
X132475238Y-105082994D01*
X132622743Y-104827507D01*
X132735639Y-104554952D01*
X132811993Y-104269993D01*
X132850500Y-103977506D01*
X132850500Y-103682494D01*
X132850499Y-103682486D01*
X151199500Y-103682486D01*
X151199500Y-103977513D01*
X151221118Y-104141709D01*
X151238007Y-104269993D01*
X151307840Y-104530614D01*
X151314361Y-104554951D01*
X151314364Y-104554961D01*
X151427254Y-104827500D01*
X151427258Y-104827510D01*
X151574761Y-105082993D01*
X151754352Y-105317040D01*
X151754358Y-105317047D01*
X151962952Y-105525641D01*
X151962959Y-105525647D01*
X152197006Y-105705238D01*
X152452489Y-105852741D01*
X152452490Y-105852741D01*
X152452493Y-105852743D01*
X152725048Y-105965639D01*
X153010007Y-106041993D01*
X153302494Y-106080500D01*
X153302501Y-106080500D01*
X153597499Y-106080500D01*
X153597506Y-106080500D01*
X153889993Y-106041993D01*
X154174952Y-105965639D01*
X154447507Y-105852743D01*
X154702994Y-105705238D01*
X154937042Y-105525646D01*
X154937047Y-105525641D01*
X155105198Y-105357491D01*
X155145641Y-105317047D01*
X155145646Y-105317042D01*
X155325238Y-105082994D01*
X155472743Y-104827507D01*
X155585639Y-104554952D01*
X155661993Y-104269993D01*
X155700500Y-103977506D01*
X155700500Y-103682494D01*
X155700499Y-103682486D01*
X174049500Y-103682486D01*
X174049500Y-103977513D01*
X174071118Y-104141709D01*
X174088007Y-104269993D01*
X174157840Y-104530614D01*
X174164361Y-104554951D01*
X174164364Y-104554961D01*
X174277254Y-104827500D01*
X174277258Y-104827510D01*
X174424761Y-105082993D01*
X174604352Y-105317040D01*
X174604358Y-105317047D01*
X174812952Y-105525641D01*
X174812959Y-105525647D01*
X175047006Y-105705238D01*
X175302489Y-105852741D01*
X175302490Y-105852741D01*
X175302493Y-105852743D01*
X175575048Y-105965639D01*
X175860007Y-106041993D01*
X176152494Y-106080500D01*
X176152501Y-106080500D01*
X176447499Y-106080500D01*
X176447506Y-106080500D01*
X176739993Y-106041993D01*
X177024952Y-105965639D01*
X177297507Y-105852743D01*
X177552994Y-105705238D01*
X177787042Y-105525646D01*
X177787047Y-105525641D01*
X177955198Y-105357491D01*
X177995641Y-105317047D01*
X177995646Y-105317042D01*
X178175238Y-105082994D01*
X178322743Y-104827507D01*
X178435639Y-104554952D01*
X178511993Y-104269993D01*
X178550500Y-103977506D01*
X178550500Y-103682494D01*
X178550499Y-103682486D01*
X196899500Y-103682486D01*
X196899500Y-103977513D01*
X196921118Y-104141709D01*
X196938007Y-104269993D01*
X197007840Y-104530614D01*
X197014361Y-104554951D01*
X197014364Y-104554961D01*
X197127254Y-104827500D01*
X197127258Y-104827510D01*
X197274761Y-105082993D01*
X197454352Y-105317040D01*
X197454358Y-105317047D01*
X197662952Y-105525641D01*
X197662959Y-105525647D01*
X197897006Y-105705238D01*
X198152489Y-105852741D01*
X198152490Y-105852741D01*
X198152493Y-105852743D01*
X198425048Y-105965639D01*
X198710007Y-106041993D01*
X199002494Y-106080500D01*
X199002501Y-106080500D01*
X199297499Y-106080500D01*
X199297506Y-106080500D01*
X199589993Y-106041993D01*
X199874952Y-105965639D01*
X200147507Y-105852743D01*
X200402994Y-105705238D01*
X200637042Y-105525646D01*
X200637047Y-105525641D01*
X200805198Y-105357491D01*
X200845641Y-105317047D01*
X200845646Y-105317042D01*
X201025238Y-105082994D01*
X201172743Y-104827507D01*
X201285639Y-104554952D01*
X201361993Y-104269993D01*
X201400500Y-103977506D01*
X201400500Y-103682494D01*
X201400499Y-103682486D01*
X219749500Y-103682486D01*
X219749500Y-103977513D01*
X219771118Y-104141709D01*
X219788007Y-104269993D01*
X219857840Y-104530614D01*
X219864361Y-104554951D01*
X219864364Y-104554961D01*
X219977254Y-104827500D01*
X219977258Y-104827510D01*
X220124761Y-105082993D01*
X220304352Y-105317040D01*
X220304358Y-105317047D01*
X220512952Y-105525641D01*
X220512959Y-105525647D01*
X220747006Y-105705238D01*
X221002489Y-105852741D01*
X221002490Y-105852741D01*
X221002493Y-105852743D01*
X221275048Y-105965639D01*
X221560007Y-106041993D01*
X221852494Y-106080500D01*
X221852501Y-106080500D01*
X222147499Y-106080500D01*
X222147506Y-106080500D01*
X222439993Y-106041993D01*
X222724952Y-105965639D01*
X222997507Y-105852743D01*
X223252994Y-105705238D01*
X223487042Y-105525646D01*
X223487047Y-105525641D01*
X223655198Y-105357491D01*
X223695641Y-105317047D01*
X223695646Y-105317042D01*
X223875238Y-105082994D01*
X224022743Y-104827507D01*
X224135639Y-104554952D01*
X224211993Y-104269993D01*
X224250500Y-103977506D01*
X224250500Y-103682494D01*
X224250499Y-103682486D01*
X242599500Y-103682486D01*
X242599500Y-103977513D01*
X242621118Y-104141709D01*
X242638007Y-104269993D01*
X242707840Y-104530614D01*
X242714361Y-104554951D01*
X242714364Y-104554961D01*
X242827254Y-104827500D01*
X242827258Y-104827510D01*
X242974761Y-105082993D01*
X243154352Y-105317040D01*
X243154358Y-105317047D01*
X243362952Y-105525641D01*
X243362959Y-105525647D01*
X243597006Y-105705238D01*
X243852489Y-105852741D01*
X243852490Y-105852741D01*
X243852493Y-105852743D01*
X244125048Y-105965639D01*
X244410007Y-106041993D01*
X244702494Y-106080500D01*
X244702501Y-106080500D01*
X244997499Y-106080500D01*
X244997506Y-106080500D01*
X245289993Y-106041993D01*
X245574952Y-105965639D01*
X245847507Y-105852743D01*
X246102994Y-105705238D01*
X246337042Y-105525646D01*
X246337047Y-105525641D01*
X246505198Y-105357491D01*
X246545641Y-105317047D01*
X246545646Y-105317042D01*
X246725238Y-105082994D01*
X246872743Y-104827507D01*
X246985639Y-104554952D01*
X247061993Y-104269993D01*
X247100500Y-103977506D01*
X247100500Y-103726995D01*
X255493566Y-103726995D01*
X255493566Y-103935644D01*
X255526203Y-104141709D01*
X255590678Y-104340140D01*
X255669532Y-104494899D01*
X255685396Y-104526034D01*
X255808031Y-104694825D01*
X255955561Y-104842355D01*
X256124352Y-104964990D01*
X256212182Y-105009741D01*
X256310245Y-105059707D01*
X256310247Y-105059707D01*
X256310250Y-105059709D01*
X256381911Y-105082993D01*
X256508676Y-105124182D01*
X256714742Y-105156820D01*
X256714747Y-105156820D01*
X256923390Y-105156820D01*
X257129455Y-105124182D01*
X257327882Y-105059709D01*
X257513780Y-104964990D01*
X257682571Y-104842355D01*
X257830101Y-104694825D01*
X257952736Y-104526034D01*
X258047455Y-104340136D01*
X258111928Y-104141709D01*
X258144566Y-103935644D01*
X258144566Y-103726995D01*
X258111928Y-103520930D01*
X258059301Y-103358963D01*
X258047455Y-103322504D01*
X258047453Y-103322501D01*
X258047453Y-103322499D01*
X257952735Y-103136605D01*
X257938253Y-103116672D01*
X257830101Y-102967815D01*
X257682571Y-102820285D01*
X257513780Y-102697650D01*
X257327886Y-102602932D01*
X257129455Y-102538457D01*
X256923390Y-102505820D01*
X256923385Y-102505820D01*
X256714747Y-102505820D01*
X256714742Y-102505820D01*
X256508676Y-102538457D01*
X256310245Y-102602932D01*
X256124351Y-102697650D01*
X255955559Y-102820286D01*
X255808032Y-102967813D01*
X255685396Y-103136605D01*
X255590678Y-103322499D01*
X255526203Y-103520930D01*
X255493566Y-103726995D01*
X247100500Y-103726995D01*
X247100500Y-103682494D01*
X247099688Y-103676330D01*
X247092633Y-103622742D01*
X247061993Y-103390007D01*
X246985639Y-103105048D01*
X246872743Y-102832493D01*
X246865695Y-102820286D01*
X246725238Y-102577006D01*
X246545647Y-102342959D01*
X246545641Y-102342952D01*
X246337047Y-102134358D01*
X246337040Y-102134352D01*
X246102993Y-101954761D01*
X245847510Y-101807258D01*
X245847500Y-101807254D01*
X245574961Y-101694364D01*
X245574954Y-101694362D01*
X245574952Y-101694361D01*
X245289993Y-101618007D01*
X245241113Y-101611571D01*
X244997513Y-101579500D01*
X244997506Y-101579500D01*
X244702494Y-101579500D01*
X244702486Y-101579500D01*
X244424085Y-101616153D01*
X244410007Y-101618007D01*
X244125048Y-101694361D01*
X244125038Y-101694364D01*
X243852499Y-101807254D01*
X243852489Y-101807258D01*
X243597006Y-101954761D01*
X243362959Y-102134352D01*
X243362952Y-102134358D01*
X243154358Y-102342952D01*
X243154352Y-102342959D01*
X242974761Y-102577006D01*
X242827258Y-102832489D01*
X242827254Y-102832499D01*
X242714364Y-103105038D01*
X242714361Y-103105048D01*
X242647762Y-103353603D01*
X242638008Y-103390004D01*
X242638006Y-103390015D01*
X242599500Y-103682486D01*
X224250499Y-103682486D01*
X224249688Y-103676330D01*
X224242633Y-103622742D01*
X224211993Y-103390007D01*
X224135639Y-103105048D01*
X224022743Y-102832493D01*
X224015695Y-102820286D01*
X223875238Y-102577006D01*
X223695647Y-102342959D01*
X223695641Y-102342952D01*
X223487047Y-102134358D01*
X223487040Y-102134352D01*
X223252993Y-101954761D01*
X222997510Y-101807258D01*
X222997500Y-101807254D01*
X222724961Y-101694364D01*
X222724954Y-101694362D01*
X222724952Y-101694361D01*
X222439993Y-101618007D01*
X222391113Y-101611571D01*
X222147513Y-101579500D01*
X222147506Y-101579500D01*
X221852494Y-101579500D01*
X221852486Y-101579500D01*
X221574085Y-101616153D01*
X221560007Y-101618007D01*
X221275048Y-101694361D01*
X221275038Y-101694364D01*
X221002499Y-101807254D01*
X221002489Y-101807258D01*
X220747006Y-101954761D01*
X220512959Y-102134352D01*
X220512952Y-102134358D01*
X220304358Y-102342952D01*
X220304352Y-102342959D01*
X220124761Y-102577006D01*
X219977258Y-102832489D01*
X219977254Y-102832499D01*
X219864364Y-103105038D01*
X219864361Y-103105048D01*
X219797762Y-103353603D01*
X219788008Y-103390004D01*
X219788006Y-103390015D01*
X219749500Y-103682486D01*
X201400499Y-103682486D01*
X201399688Y-103676330D01*
X201392633Y-103622742D01*
X201361993Y-103390007D01*
X201285639Y-103105048D01*
X201172743Y-102832493D01*
X201165695Y-102820286D01*
X201025238Y-102577006D01*
X200845647Y-102342959D01*
X200845641Y-102342952D01*
X200637047Y-102134358D01*
X200637040Y-102134352D01*
X200402993Y-101954761D01*
X200147510Y-101807258D01*
X200147500Y-101807254D01*
X199874961Y-101694364D01*
X199874954Y-101694362D01*
X199874952Y-101694361D01*
X199589993Y-101618007D01*
X199541113Y-101611571D01*
X199297513Y-101579500D01*
X199297506Y-101579500D01*
X199002494Y-101579500D01*
X199002486Y-101579500D01*
X198724085Y-101616153D01*
X198710007Y-101618007D01*
X198425048Y-101694361D01*
X198425038Y-101694364D01*
X198152499Y-101807254D01*
X198152489Y-101807258D01*
X197897006Y-101954761D01*
X197662959Y-102134352D01*
X197662952Y-102134358D01*
X197454358Y-102342952D01*
X197454352Y-102342959D01*
X197274761Y-102577006D01*
X197127258Y-102832489D01*
X197127254Y-102832499D01*
X197014364Y-103105038D01*
X197014361Y-103105048D01*
X196947762Y-103353603D01*
X196938008Y-103390004D01*
X196938006Y-103390015D01*
X196899500Y-103682486D01*
X178550499Y-103682486D01*
X178549688Y-103676330D01*
X178542633Y-103622742D01*
X178511993Y-103390007D01*
X178435639Y-103105048D01*
X178322743Y-102832493D01*
X178315695Y-102820286D01*
X178175238Y-102577006D01*
X177995647Y-102342959D01*
X177995641Y-102342952D01*
X177787047Y-102134358D01*
X177787040Y-102134352D01*
X177552993Y-101954761D01*
X177297510Y-101807258D01*
X177297500Y-101807254D01*
X177024961Y-101694364D01*
X177024954Y-101694362D01*
X177024952Y-101694361D01*
X176739993Y-101618007D01*
X176691113Y-101611571D01*
X176447513Y-101579500D01*
X176447506Y-101579500D01*
X176152494Y-101579500D01*
X176152486Y-101579500D01*
X175874085Y-101616153D01*
X175860007Y-101618007D01*
X175575048Y-101694361D01*
X175575038Y-101694364D01*
X175302499Y-101807254D01*
X175302489Y-101807258D01*
X175047006Y-101954761D01*
X174812959Y-102134352D01*
X174812952Y-102134358D01*
X174604358Y-102342952D01*
X174604352Y-102342959D01*
X174424761Y-102577006D01*
X174277258Y-102832489D01*
X174277254Y-102832499D01*
X174164364Y-103105038D01*
X174164361Y-103105048D01*
X174097762Y-103353603D01*
X174088008Y-103390004D01*
X174088006Y-103390015D01*
X174049500Y-103682486D01*
X155700499Y-103682486D01*
X155699688Y-103676330D01*
X155692633Y-103622742D01*
X155661993Y-103390007D01*
X155585639Y-103105048D01*
X155472743Y-102832493D01*
X155465695Y-102820286D01*
X155325238Y-102577006D01*
X155145647Y-102342959D01*
X155145641Y-102342952D01*
X154937047Y-102134358D01*
X154937040Y-102134352D01*
X154702993Y-101954761D01*
X154447510Y-101807258D01*
X154447500Y-101807254D01*
X154174961Y-101694364D01*
X154174954Y-101694362D01*
X154174952Y-101694361D01*
X153889993Y-101618007D01*
X153841113Y-101611571D01*
X153597513Y-101579500D01*
X153597506Y-101579500D01*
X153302494Y-101579500D01*
X153302486Y-101579500D01*
X153024085Y-101616153D01*
X153010007Y-101618007D01*
X152725048Y-101694361D01*
X152725038Y-101694364D01*
X152452499Y-101807254D01*
X152452489Y-101807258D01*
X152197006Y-101954761D01*
X151962959Y-102134352D01*
X151962952Y-102134358D01*
X151754358Y-102342952D01*
X151754352Y-102342959D01*
X151574761Y-102577006D01*
X151427258Y-102832489D01*
X151427254Y-102832499D01*
X151314364Y-103105038D01*
X151314361Y-103105048D01*
X151247762Y-103353603D01*
X151238008Y-103390004D01*
X151238006Y-103390015D01*
X151199500Y-103682486D01*
X132850499Y-103682486D01*
X132849688Y-103676330D01*
X132842633Y-103622742D01*
X132811993Y-103390007D01*
X132735639Y-103105048D01*
X132622743Y-102832493D01*
X132615695Y-102820286D01*
X132475238Y-102577006D01*
X132295647Y-102342959D01*
X132295641Y-102342952D01*
X132087047Y-102134358D01*
X132087040Y-102134352D01*
X131852993Y-101954761D01*
X131597510Y-101807258D01*
X131597500Y-101807254D01*
X131324961Y-101694364D01*
X131324954Y-101694362D01*
X131324952Y-101694361D01*
X131039993Y-101618007D01*
X130991113Y-101611571D01*
X130747513Y-101579500D01*
X130747506Y-101579500D01*
X130452494Y-101579500D01*
X130452486Y-101579500D01*
X130174085Y-101616153D01*
X130160007Y-101618007D01*
X129875048Y-101694361D01*
X129875038Y-101694364D01*
X129602499Y-101807254D01*
X129602489Y-101807258D01*
X129347006Y-101954761D01*
X129112959Y-102134352D01*
X129112952Y-102134358D01*
X128904358Y-102342952D01*
X128904352Y-102342959D01*
X128724761Y-102577006D01*
X128577258Y-102832489D01*
X128577254Y-102832499D01*
X128464364Y-103105038D01*
X128464361Y-103105048D01*
X128397762Y-103353603D01*
X128388008Y-103390004D01*
X128388006Y-103390015D01*
X128349500Y-103682486D01*
X110000499Y-103682486D01*
X109999688Y-103676330D01*
X109992633Y-103622742D01*
X109961993Y-103390007D01*
X109885639Y-103105048D01*
X109772743Y-102832493D01*
X109765695Y-102820286D01*
X109625238Y-102577006D01*
X109445647Y-102342959D01*
X109445641Y-102342952D01*
X109237047Y-102134358D01*
X109237040Y-102134352D01*
X109002993Y-101954761D01*
X108747510Y-101807258D01*
X108747500Y-101807254D01*
X108474961Y-101694364D01*
X108474954Y-101694362D01*
X108474952Y-101694361D01*
X108189993Y-101618007D01*
X108141113Y-101611571D01*
X107897513Y-101579500D01*
X107897506Y-101579500D01*
X107602494Y-101579500D01*
X107602486Y-101579500D01*
X107324085Y-101616153D01*
X107310007Y-101618007D01*
X107025048Y-101694361D01*
X107025038Y-101694364D01*
X106752499Y-101807254D01*
X106752489Y-101807258D01*
X106497006Y-101954761D01*
X106262959Y-102134352D01*
X106262952Y-102134358D01*
X106054358Y-102342952D01*
X106054352Y-102342959D01*
X105874761Y-102577006D01*
X105727258Y-102832489D01*
X105727254Y-102832499D01*
X105614364Y-103105038D01*
X105614361Y-103105048D01*
X105547762Y-103353603D01*
X105538008Y-103390004D01*
X105538006Y-103390015D01*
X105499500Y-103682486D01*
X87150499Y-103682486D01*
X87149688Y-103676330D01*
X87142633Y-103622742D01*
X87111993Y-103390007D01*
X87035639Y-103105048D01*
X86922743Y-102832493D01*
X86915695Y-102820286D01*
X86775238Y-102577006D01*
X86595647Y-102342959D01*
X86595641Y-102342952D01*
X86387047Y-102134358D01*
X86387040Y-102134352D01*
X86152993Y-101954761D01*
X85897510Y-101807258D01*
X85897500Y-101807254D01*
X85624961Y-101694364D01*
X85624954Y-101694362D01*
X85624952Y-101694361D01*
X85339993Y-101618007D01*
X85291113Y-101611571D01*
X85047513Y-101579500D01*
X85047506Y-101579500D01*
X84752494Y-101579500D01*
X84752486Y-101579500D01*
X84474085Y-101616153D01*
X84460007Y-101618007D01*
X84175048Y-101694361D01*
X84175038Y-101694364D01*
X83902499Y-101807254D01*
X83902489Y-101807258D01*
X83647006Y-101954761D01*
X83412959Y-102134352D01*
X83412952Y-102134358D01*
X83204358Y-102342952D01*
X83204352Y-102342959D01*
X83024761Y-102577006D01*
X82877258Y-102832489D01*
X82877254Y-102832499D01*
X82764364Y-103105038D01*
X82764361Y-103105048D01*
X82697762Y-103353603D01*
X82688008Y-103390004D01*
X82688006Y-103390015D01*
X82649500Y-103682486D01*
X81323907Y-103682486D01*
X84210123Y-100796268D01*
X84210126Y-100796267D01*
X84260444Y-100745948D01*
X84267540Y-100739390D01*
X84387632Y-100636824D01*
X84403362Y-100625396D01*
X84533843Y-100545439D01*
X84551159Y-100536616D01*
X84692545Y-100478054D01*
X84711034Y-100472047D01*
X84859835Y-100436325D01*
X84879037Y-100433284D01*
X84994878Y-100424169D01*
X85036654Y-100420882D01*
X85046380Y-100420500D01*
X85098898Y-100420500D01*
X88741058Y-100420500D01*
X88770997Y-100424168D01*
X88776823Y-100425618D01*
X88803437Y-100427191D01*
X88806914Y-100427981D01*
X88808827Y-100427628D01*
X88843058Y-100436201D01*
X88864469Y-100444959D01*
X88865593Y-100445427D01*
X88926816Y-100471414D01*
X88946041Y-100478819D01*
X88947534Y-100479337D01*
X88967309Y-100485456D01*
X89048572Y-100507613D01*
X89058157Y-100510060D01*
X89058796Y-100510212D01*
X89058904Y-100510238D01*
X89063596Y-100511218D01*
X89075540Y-100513714D01*
X89075543Y-100513713D01*
X89075544Y-100513714D01*
X89082116Y-100514372D01*
X89082046Y-100515066D01*
X89104638Y-100517962D01*
X89114108Y-100520500D01*
X89114110Y-100520500D01*
X89245890Y-100520500D01*
X89245892Y-100520500D01*
X89373186Y-100486392D01*
X89487314Y-100420500D01*
X89580500Y-100327314D01*
X89646392Y-100213186D01*
X89680500Y-100085892D01*
X89680500Y-99954108D01*
X89646392Y-99826814D01*
X89580500Y-99712686D01*
X89487314Y-99619500D01*
X89409161Y-99574378D01*
X89373187Y-99553608D01*
X89284299Y-99529791D01*
X89245892Y-99519500D01*
X89114108Y-99519500D01*
X89114104Y-99519500D01*
X89075698Y-99529791D01*
X89075691Y-99529792D01*
X89064532Y-99532783D01*
X89038313Y-99535822D01*
X88919828Y-99572495D01*
X88901598Y-99578774D01*
X88900217Y-99579299D01*
X88882090Y-99586865D01*
X88864064Y-99595079D01*
X88856804Y-99597885D01*
X88856783Y-99597892D01*
X88846659Y-99601807D01*
X88815065Y-99609453D01*
X88761993Y-99615099D01*
X88756820Y-99616100D01*
X88756739Y-99615682D01*
X88729234Y-99619500D01*
X84980684Y-99619500D01*
X84980469Y-99619513D01*
X84924500Y-99619513D01*
X84857461Y-99599828D01*
X84811706Y-99547024D01*
X84800500Y-99495513D01*
X84800500Y-96494108D01*
X92169500Y-96494108D01*
X92169500Y-96625891D01*
X92203608Y-96753187D01*
X92236554Y-96810250D01*
X92269500Y-96867314D01*
X92362686Y-96960500D01*
X92362687Y-96960501D01*
X92362689Y-96960502D01*
X92397122Y-96980382D01*
X92397134Y-96980388D01*
X92407138Y-96986164D01*
X92427824Y-97002554D01*
X92537529Y-97060399D01*
X92554916Y-97068875D01*
X92556275Y-97069485D01*
X92574378Y-97076923D01*
X92592906Y-97083851D01*
X92610005Y-97091415D01*
X92637742Y-97108342D01*
X92679272Y-97141886D01*
X92679283Y-97141892D01*
X92683633Y-97144833D01*
X92683394Y-97145185D01*
X92705541Y-97161934D01*
X96080300Y-100536692D01*
X96080302Y-100536695D01*
X96083953Y-100540346D01*
X96084692Y-100541085D01*
X96084724Y-100541144D01*
X96216336Y-100672753D01*
X96427112Y-100840837D01*
X96427131Y-100840852D01*
X96655426Y-100984296D01*
X96898346Y-101101277D01*
X97152837Y-101190324D01*
X97152846Y-101190326D01*
X97415681Y-101250314D01*
X97415687Y-101250314D01*
X97415698Y-101250317D01*
X97683623Y-101280501D01*
X97818432Y-101280500D01*
X245971568Y-101280500D01*
X246024300Y-101280500D01*
X246032456Y-101280500D01*
X246032749Y-101280480D01*
X246106376Y-101280481D01*
X246374299Y-101250297D01*
X246374306Y-101250295D01*
X246374315Y-101250294D01*
X246557704Y-101208438D01*
X246637157Y-101190305D01*
X246891645Y-101101259D01*
X247134563Y-100984279D01*
X247362856Y-100840837D01*
X247573654Y-100672735D01*
X247623320Y-100623069D01*
X247623342Y-100623050D01*
X247631697Y-100614694D01*
X247631699Y-100614694D01*
X247982826Y-100263565D01*
X247993657Y-100253933D01*
X247999828Y-100249059D01*
X248011732Y-100241900D01*
X248034364Y-100221792D01*
X248037174Y-100219574D01*
X248042247Y-100217531D01*
X248066048Y-100202549D01*
X248087289Y-100193641D01*
X248088551Y-100193121D01*
X248150174Y-100168224D01*
X248169165Y-100159788D01*
X248170584Y-100159099D01*
X248188732Y-100149522D01*
X248261860Y-100107729D01*
X248270521Y-100102588D01*
X248271167Y-100102190D01*
X248285226Y-100092985D01*
X248285229Y-100092981D01*
X248290327Y-100088810D01*
X248290770Y-100089352D01*
X248308807Y-100075410D01*
X248317314Y-100070500D01*
X248410500Y-99977314D01*
X248476392Y-99863186D01*
X248510500Y-99735892D01*
X248510500Y-99604108D01*
X248476392Y-99476814D01*
X248410500Y-99362686D01*
X248317314Y-99269500D01*
X248260250Y-99236554D01*
X248203187Y-99203608D01*
X248139539Y-99186554D01*
X248075892Y-99169500D01*
X247944108Y-99169500D01*
X247816812Y-99203608D01*
X247702686Y-99269500D01*
X247609499Y-99362686D01*
X247609498Y-99362688D01*
X247589617Y-99397122D01*
X247589609Y-99397136D01*
X247583840Y-99407129D01*
X247567448Y-99427819D01*
X247509596Y-99537535D01*
X247501098Y-99554970D01*
X247500495Y-99556314D01*
X247493075Y-99574378D01*
X247486141Y-99592920D01*
X247482987Y-99600049D01*
X247482982Y-99600059D01*
X247478584Y-99610001D01*
X247461651Y-99637748D01*
X247428106Y-99679279D01*
X247425157Y-99683643D01*
X247424805Y-99683405D01*
X247408060Y-99705545D01*
X247105467Y-100008138D01*
X247099544Y-100013686D01*
X246951399Y-100143603D01*
X246938531Y-100153477D01*
X246778080Y-100260685D01*
X246764032Y-100268795D01*
X246590967Y-100354138D01*
X246575982Y-100360345D01*
X246393254Y-100422371D01*
X246377587Y-100426569D01*
X246188325Y-100464213D01*
X246172244Y-100466330D01*
X246094667Y-100471414D01*
X245975306Y-100479235D01*
X245967218Y-100479500D01*
X97822486Y-100479500D01*
X97814378Y-100479235D01*
X97617754Y-100466350D01*
X97601672Y-100464233D01*
X97412407Y-100426588D01*
X97396740Y-100422390D01*
X97214009Y-100360363D01*
X97199024Y-100354156D01*
X97025957Y-100268812D01*
X97011909Y-100260702D01*
X96950355Y-100219574D01*
X96860873Y-100159785D01*
X96851455Y-100153492D01*
X96838587Y-100143618D01*
X96690668Y-100013900D01*
X96684746Y-100008353D01*
X96646689Y-99970297D01*
X96646688Y-99970296D01*
X93263574Y-96587181D01*
X93244998Y-96563417D01*
X93241903Y-96558272D01*
X93241902Y-96558270D01*
X93224194Y-96538337D01*
X93222295Y-96535321D01*
X93220696Y-96534221D01*
X93202552Y-96503953D01*
X93193589Y-96482583D01*
X93193111Y-96481419D01*
X93168221Y-96419819D01*
X93159911Y-96401088D01*
X93159228Y-96399678D01*
X93159220Y-96399661D01*
X93149535Y-96381292D01*
X93149524Y-96381271D01*
X93107722Y-96308129D01*
X93102596Y-96299492D01*
X93102203Y-96298854D01*
X93102202Y-96298852D01*
X93092985Y-96284772D01*
X93088813Y-96279674D01*
X93089350Y-96279234D01*
X93075411Y-96261192D01*
X93070502Y-96252689D01*
X93070497Y-96252683D01*
X92977316Y-96159502D01*
X92977314Y-96159500D01*
X92920250Y-96126554D01*
X92863187Y-96093608D01*
X92799539Y-96076554D01*
X92735892Y-96059500D01*
X92604108Y-96059500D01*
X92476812Y-96093608D01*
X92362686Y-96159500D01*
X92362683Y-96159502D01*
X92269502Y-96252683D01*
X92269500Y-96252686D01*
X92203608Y-96366812D01*
X92169500Y-96494108D01*
X84800500Y-96494108D01*
X84800500Y-96079884D01*
X84801608Y-96063344D01*
X84802549Y-96056350D01*
X84805588Y-96044323D01*
X84806827Y-96024561D01*
X84807415Y-96020197D01*
X84810366Y-96013576D01*
X84817245Y-95985816D01*
X84824721Y-95969219D01*
X84825606Y-95967302D01*
X84854256Y-95906783D01*
X84863934Y-95883993D01*
X84864605Y-95882216D01*
X84872440Y-95858598D01*
X84896302Y-95775483D01*
X84899392Y-95763863D01*
X84899610Y-95762973D01*
X84903548Y-95744425D01*
X84904225Y-95737764D01*
X84904994Y-95737842D01*
X84907800Y-95715966D01*
X84910500Y-95705892D01*
X84910500Y-95574108D01*
X84876392Y-95446814D01*
X84810500Y-95332686D01*
X84717314Y-95239500D01*
X84660250Y-95206554D01*
X84603187Y-95173608D01*
X84539539Y-95156554D01*
X84475892Y-95139500D01*
X84344108Y-95139500D01*
X84216812Y-95173608D01*
X84102686Y-95239500D01*
X84102683Y-95239502D01*
X84009502Y-95332683D01*
X84009500Y-95332686D01*
X83943608Y-95446812D01*
X83909500Y-95574108D01*
X83909500Y-95705894D01*
X83919129Y-95741830D01*
X83921884Y-95752112D01*
X83924592Y-95778149D01*
X83962423Y-95905664D01*
X83966973Y-95919742D01*
X83967347Y-95920810D01*
X83972562Y-95934623D01*
X83974852Y-95940273D01*
X83977023Y-95946664D01*
X83977032Y-95946695D01*
X83983127Y-95964634D01*
X83989187Y-95993062D01*
X83994820Y-96053761D01*
X83994821Y-96053764D01*
X83995145Y-96054953D01*
X83995450Y-96057239D01*
X83995780Y-96059058D01*
X83995695Y-96059073D01*
X83999500Y-96087529D01*
X83999500Y-99619701D01*
X83998903Y-99631855D01*
X83989178Y-99730597D01*
X83984436Y-99754436D01*
X83957414Y-99843522D01*
X83948112Y-99865981D01*
X83904227Y-99948087D01*
X83890722Y-99968300D01*
X83827837Y-100044926D01*
X83819664Y-100053942D01*
X83643733Y-100229874D01*
X83643731Y-100229876D01*
X80655467Y-103218138D01*
X80649544Y-103223686D01*
X80501399Y-103353603D01*
X80488531Y-103363477D01*
X80328080Y-103470685D01*
X80314032Y-103478795D01*
X80140967Y-103564138D01*
X80125982Y-103570345D01*
X79943254Y-103632371D01*
X79927587Y-103636569D01*
X79738325Y-103674213D01*
X79722244Y-103676330D01*
X79643703Y-103681477D01*
X79525306Y-103689235D01*
X79517218Y-103689500D01*
X76548941Y-103689500D01*
X76534457Y-103688651D01*
X76526639Y-103687731D01*
X76513172Y-103684381D01*
X76482974Y-103682596D01*
X76479395Y-103682175D01*
X76474369Y-103680034D01*
X76446936Y-103673794D01*
X76425515Y-103665032D01*
X76424159Y-103664466D01*
X76406569Y-103657001D01*
X76363175Y-103638582D01*
X76343962Y-103631181D01*
X76342470Y-103630664D01*
X76322722Y-103624552D01*
X76317057Y-103623007D01*
X76316854Y-103622950D01*
X76241458Y-103602394D01*
X76241426Y-103602386D01*
X76241412Y-103602382D01*
X76231775Y-103599923D01*
X76231776Y-103599923D01*
X76231732Y-103599912D01*
X76231057Y-103599751D01*
X76214460Y-103596285D01*
X76207897Y-103595629D01*
X76207966Y-103594938D01*
X76185364Y-103592038D01*
X76180572Y-103590754D01*
X76175892Y-103589500D01*
X76044108Y-103589500D01*
X75916812Y-103623608D01*
X75802686Y-103689500D01*
X75802683Y-103689502D01*
X75709502Y-103782683D01*
X75709500Y-103782686D01*
X75643608Y-103896812D01*
X75609500Y-104024108D01*
X45643080Y-104024108D01*
X45647440Y-103996583D01*
X45657092Y-103935644D01*
X45657092Y-103726995D01*
X45624454Y-103520930D01*
X45571827Y-103358963D01*
X45559981Y-103322504D01*
X45559979Y-103322501D01*
X45559979Y-103322499D01*
X45465261Y-103136605D01*
X45450779Y-103116672D01*
X45342627Y-102967815D01*
X45195097Y-102820285D01*
X45026306Y-102697650D01*
X44840412Y-102602932D01*
X44641981Y-102538457D01*
X44435916Y-102505820D01*
X44435911Y-102505820D01*
X44227273Y-102505820D01*
X44227268Y-102505820D01*
X44021202Y-102538457D01*
X43822771Y-102602932D01*
X43636877Y-102697650D01*
X43468085Y-102820286D01*
X43320558Y-102967813D01*
X43197922Y-103136605D01*
X43103204Y-103322499D01*
X43038729Y-103520930D01*
X43006092Y-103726995D01*
X42200500Y-103726995D01*
X42200500Y-98953996D01*
X74454499Y-98953996D01*
X74481418Y-99089322D01*
X74481421Y-99089332D01*
X74534222Y-99216807D01*
X74610887Y-99331545D01*
X74708454Y-99429112D01*
X74823192Y-99505777D01*
X74945201Y-99556314D01*
X74950672Y-99558580D01*
X74950676Y-99558580D01*
X74950677Y-99558581D01*
X75086003Y-99585500D01*
X75086006Y-99585500D01*
X75223996Y-99585500D01*
X75315040Y-99567389D01*
X75359328Y-99558580D01*
X75453676Y-99519500D01*
X75486807Y-99505777D01*
X75486808Y-99505776D01*
X75486811Y-99505775D01*
X75601543Y-99429114D01*
X81628107Y-93402549D01*
X81635230Y-93395965D01*
X81779175Y-93273027D01*
X81794908Y-93261596D01*
X81952145Y-93165243D01*
X81969471Y-93156416D01*
X82139845Y-93085846D01*
X82158337Y-93079839D01*
X82337649Y-93036792D01*
X82356852Y-93033751D01*
X82545818Y-93018882D01*
X82555543Y-93018500D01*
X82629345Y-93018501D01*
X82629349Y-93018500D01*
X94100651Y-93018500D01*
X94100655Y-93018501D01*
X94174709Y-93018500D01*
X94184436Y-93018881D01*
X94373148Y-93033731D01*
X94392355Y-93036773D01*
X94571664Y-93079819D01*
X94590164Y-93085829D01*
X94760531Y-93156395D01*
X94777869Y-93165229D01*
X94935097Y-93261576D01*
X94950836Y-93273011D01*
X95094589Y-93395786D01*
X95101739Y-93402396D01*
X99652557Y-97953214D01*
X99652589Y-97953273D01*
X99796115Y-98096796D01*
X100031281Y-98284332D01*
X100033258Y-98285908D01*
X100290084Y-98447279D01*
X100563363Y-98578880D01*
X100563366Y-98578881D01*
X100563368Y-98578882D01*
X100625668Y-98600680D01*
X100849659Y-98679055D01*
X100849668Y-98679057D01*
X101145353Y-98746542D01*
X101145363Y-98746543D01*
X101145370Y-98746545D01*
X101446779Y-98780502D01*
X101598436Y-98780500D01*
X102751007Y-98780500D01*
X125861007Y-98780500D01*
X148701007Y-98780500D01*
X171551007Y-98780500D01*
X194401007Y-98780500D01*
X217251007Y-98780500D01*
X239768993Y-98780500D01*
X239768995Y-98780500D01*
X239860041Y-98762389D01*
X239904328Y-98753580D01*
X240031811Y-98700775D01*
X240146542Y-98624114D01*
X240244114Y-98526542D01*
X240320775Y-98411811D01*
X240373580Y-98284328D01*
X240400500Y-98148993D01*
X240400500Y-98011007D01*
X240400500Y-98011004D01*
X240373581Y-97875677D01*
X240373580Y-97875676D01*
X240373580Y-97875672D01*
X240373578Y-97875667D01*
X240320778Y-97748195D01*
X240320771Y-97748182D01*
X240244114Y-97633458D01*
X240244111Y-97633454D01*
X240146545Y-97535888D01*
X240146541Y-97535885D01*
X240031817Y-97459228D01*
X240031804Y-97459221D01*
X239904332Y-97406421D01*
X239904322Y-97406418D01*
X239768995Y-97379500D01*
X239768993Y-97379500D01*
X217388993Y-97379500D01*
X194538993Y-97379500D01*
X171688993Y-97379500D01*
X148838993Y-97379500D01*
X125998993Y-97379500D01*
X102888993Y-97379500D01*
X101684954Y-97379500D01*
X101677348Y-97379499D01*
X101677345Y-97379499D01*
X101640947Y-97379499D01*
X101603287Y-97379499D01*
X101603286Y-97379498D01*
X101593562Y-97379117D01*
X101404857Y-97364269D01*
X101385638Y-97361225D01*
X101206335Y-97318180D01*
X101187832Y-97312169D01*
X101017462Y-97241601D01*
X101000133Y-97232771D01*
X100842901Y-97136421D01*
X100827160Y-97124984D01*
X100683420Y-97002222D01*
X100676269Y-96995612D01*
X96126395Y-92445738D01*
X96126361Y-92445676D01*
X95981883Y-92301201D01*
X95744744Y-92112093D01*
X95744735Y-92112087D01*
X95487917Y-91950721D01*
X95487916Y-91950720D01*
X95214634Y-91819119D01*
X95214633Y-91819118D01*
X94988067Y-91739843D01*
X94928340Y-91718945D01*
X94928336Y-91718944D01*
X94928330Y-91718942D01*
X94632645Y-91651457D01*
X94632618Y-91651453D01*
X94331226Y-91617498D01*
X94331221Y-91617498D01*
X94179564Y-91617500D01*
X82475567Y-91617500D01*
X82475178Y-91617518D01*
X82398784Y-91617518D01*
X82398783Y-91617518D01*
X82398780Y-91617518D01*
X82097374Y-91651474D01*
X82097372Y-91651474D01*
X82097367Y-91651475D01*
X82097357Y-91651476D01*
X81801673Y-91718961D01*
X81801658Y-91718966D01*
X81515376Y-91819136D01*
X81381897Y-91883415D01*
X81242132Y-91950721D01*
X81242088Y-91950742D01*
X80985270Y-92112107D01*
X80748132Y-92301214D01*
X80693304Y-92356041D01*
X80693252Y-92356090D01*
X74610888Y-98438453D01*
X74610887Y-98438454D01*
X74534222Y-98553192D01*
X74481421Y-98680667D01*
X74481418Y-98680677D01*
X74454500Y-98816003D01*
X74454500Y-98816006D01*
X74454500Y-98953994D01*
X74454500Y-98953996D01*
X74454499Y-98953996D01*
X42200500Y-98953996D01*
X42200500Y-84714066D01*
X42200765Y-84705956D01*
X42203421Y-84665438D01*
X42215364Y-84483207D01*
X42217479Y-84467153D01*
X42260230Y-84252226D01*
X42264428Y-84236561D01*
X42284606Y-84177118D01*
X42334868Y-84029049D01*
X42341067Y-84014083D01*
X42437995Y-83817533D01*
X42446098Y-83803498D01*
X42567853Y-83621279D01*
X42577710Y-83608433D01*
X42722207Y-83443665D01*
X42733665Y-83432207D01*
X42898433Y-83287710D01*
X42911279Y-83277853D01*
X43093498Y-83156098D01*
X43107533Y-83147995D01*
X43304083Y-83051067D01*
X43319049Y-83044868D01*
X43518654Y-82977112D01*
X43526561Y-82974428D01*
X43542228Y-82970230D01*
X43543078Y-82970061D01*
X43757153Y-82927479D01*
X43773209Y-82925364D01*
X43978058Y-82911938D01*
X43995958Y-82910765D01*
X44004067Y-82910500D01*
X44039882Y-82910500D01*
X125669418Y-82910500D01*
X125705251Y-82910500D01*
X125713348Y-82910764D01*
G37*
%TD.AperFunction*%
%TD*%
%TA.AperFunction,Conductor*%
%TO.N,BUTTON_5*%
G36*
X71862091Y-115749079D02*
G01*
X71862484Y-115749717D01*
X71904286Y-115822859D01*
X71904969Y-115824269D01*
X71915080Y-115849293D01*
X71930863Y-115888354D01*
X71957731Y-115952415D01*
X71957734Y-115952421D01*
X71957736Y-115952425D01*
X71988923Y-116000979D01*
X72033511Y-116051169D01*
X72036444Y-116059629D01*
X72033037Y-116067212D01*
X71906853Y-116193396D01*
X71898580Y-116196823D01*
X71891229Y-116194225D01*
X71805529Y-116125006D01*
X71728320Y-116090849D01*
X71728313Y-116090846D01*
X71728310Y-116090845D01*
X71701377Y-116080774D01*
X71700018Y-116080164D01*
X71590313Y-116022319D01*
X71584593Y-116015429D01*
X71585421Y-116006513D01*
X71586010Y-116005518D01*
X71589011Y-116000979D01*
X71687978Y-115851281D01*
X71691281Y-115847978D01*
X71845880Y-115745770D01*
X71854670Y-115744067D01*
X71862091Y-115749079D01*
G37*
%TD.AperFunction*%
%TD*%
%TA.AperFunction,Conductor*%
%TO.N,BUTTON_7*%
G36*
X69842091Y-118779079D02*
G01*
X69842484Y-118779717D01*
X69884286Y-118852859D01*
X69884969Y-118854269D01*
X69895080Y-118879293D01*
X69910863Y-118918354D01*
X69937731Y-118982415D01*
X69937734Y-118982421D01*
X69937736Y-118982425D01*
X69968923Y-119030979D01*
X70013511Y-119081169D01*
X70016444Y-119089629D01*
X70013037Y-119097212D01*
X69886853Y-119223396D01*
X69878580Y-119226823D01*
X69871229Y-119224225D01*
X69785529Y-119155006D01*
X69708320Y-119120849D01*
X69708313Y-119120846D01*
X69708310Y-119120845D01*
X69681377Y-119110774D01*
X69680018Y-119110164D01*
X69570313Y-119052319D01*
X69564593Y-119045429D01*
X69565421Y-119036513D01*
X69566010Y-119035518D01*
X69569011Y-119030979D01*
X69667978Y-118881281D01*
X69671281Y-118877978D01*
X69825880Y-118775770D01*
X69834670Y-118774067D01*
X69842091Y-118779079D01*
G37*
%TD.AperFunction*%
%TD*%
%TA.AperFunction,Conductor*%
%TO.N,RGBLED_DATA*%
G36*
X84593757Y-95676488D02*
G01*
X84601178Y-95681500D01*
X84602882Y-95690291D01*
X84602664Y-95691181D01*
X84578802Y-95774296D01*
X84578131Y-95776073D01*
X84547803Y-95840141D01*
X84516950Y-95908635D01*
X84504619Y-95962546D01*
X84500688Y-96025190D01*
X84496750Y-96033232D01*
X84489011Y-96036157D01*
X84310665Y-96036157D01*
X84302392Y-96032730D01*
X84299015Y-96025538D01*
X84293169Y-95962549D01*
X84288697Y-95914356D01*
X84261282Y-95833660D01*
X84255679Y-95819840D01*
X84255305Y-95818772D01*
X84217474Y-95691257D01*
X84218406Y-95682351D01*
X84225363Y-95676712D01*
X84226329Y-95676470D01*
X84407662Y-95639477D01*
X84412338Y-95639477D01*
X84593757Y-95676488D01*
G37*
%TD.AperFunction*%
%TD*%
%TA.AperFunction,Conductor*%
%TO.N,RGBLED_DATA*%
G36*
X76161052Y-103897124D02*
G01*
X76235728Y-103917484D01*
X76242326Y-103919284D01*
X76243819Y-103919802D01*
X76307387Y-103946783D01*
X76371745Y-103973108D01*
X76387443Y-103976526D01*
X76428130Y-103985388D01*
X76495147Y-103989349D01*
X76503204Y-103993258D01*
X76506157Y-104001029D01*
X76506157Y-104179478D01*
X76502730Y-104187751D01*
X76495695Y-104191112D01*
X76386151Y-104202766D01*
X76307408Y-104233207D01*
X76307395Y-104233213D01*
X76281231Y-104245134D01*
X76279840Y-104245664D01*
X76161359Y-104282337D01*
X76152442Y-104281509D01*
X76146722Y-104274620D01*
X76146438Y-104273511D01*
X76109477Y-104092338D01*
X76109477Y-104087661D01*
X76138216Y-103946790D01*
X76146522Y-103906075D01*
X76151534Y-103898655D01*
X76160325Y-103896951D01*
X76161052Y-103897124D01*
G37*
%TD.AperFunction*%
%TD*%
%TA.AperFunction,Conductor*%
%TO.N,RGBLED_DATA*%
G36*
X89137557Y-99828490D02*
G01*
X89143277Y-99835380D01*
X89143564Y-99836500D01*
X89180522Y-100017661D01*
X89180522Y-100022339D01*
X89143477Y-100203923D01*
X89138465Y-100211344D01*
X89129674Y-100213048D01*
X89128935Y-100212872D01*
X89047672Y-100190715D01*
X89046179Y-100190197D01*
X88982584Y-100163204D01*
X88918256Y-100136892D01*
X88861871Y-100124612D01*
X88794852Y-100120650D01*
X88786796Y-100116740D01*
X88783843Y-100108970D01*
X88783843Y-99930521D01*
X88787270Y-99922248D01*
X88794305Y-99918887D01*
X88799977Y-99918283D01*
X88903848Y-99907233D01*
X88982595Y-99876791D01*
X89008776Y-99864860D01*
X89010157Y-99864335D01*
X89128642Y-99827662D01*
X89137557Y-99828490D01*
G37*
%TD.AperFunction*%
%TD*%
%TA.AperFunction,Conductor*%
%TO.N,1ST_ROW_DATA_OUT*%
G36*
X247853486Y-99565420D02*
G01*
X247854473Y-99566004D01*
X248008715Y-99667976D01*
X248012023Y-99671284D01*
X248114228Y-99825879D01*
X248115932Y-99834670D01*
X248110920Y-99842091D01*
X248110274Y-99842489D01*
X248037146Y-99884282D01*
X248035727Y-99884971D01*
X247971645Y-99910863D01*
X247907583Y-99937731D01*
X247907570Y-99937738D01*
X247859021Y-99968922D01*
X247808831Y-100013511D01*
X247800370Y-100016444D01*
X247792787Y-100013037D01*
X247666603Y-99886853D01*
X247663176Y-99878580D01*
X247665772Y-99871231D01*
X247734993Y-99785529D01*
X247769150Y-99708321D01*
X247779227Y-99681370D01*
X247779830Y-99680026D01*
X247837682Y-99570310D01*
X247844570Y-99564592D01*
X247853486Y-99565420D01*
G37*
%TD.AperFunction*%
%TD*%
%TA.AperFunction,Conductor*%
%TO.N,1ST_ROW_DATA_OUT*%
G36*
X92842091Y-96459079D02*
G01*
X92842484Y-96459717D01*
X92884286Y-96532859D01*
X92884969Y-96534269D01*
X92895080Y-96559293D01*
X92910863Y-96598354D01*
X92937731Y-96662415D01*
X92937734Y-96662421D01*
X92937736Y-96662425D01*
X92968923Y-96710979D01*
X93013511Y-96761169D01*
X93016444Y-96769629D01*
X93013037Y-96777212D01*
X92886853Y-96903396D01*
X92878580Y-96906823D01*
X92871229Y-96904225D01*
X92785529Y-96835006D01*
X92708320Y-96800849D01*
X92708313Y-96800846D01*
X92708310Y-96800845D01*
X92681377Y-96790774D01*
X92680018Y-96790164D01*
X92570313Y-96732319D01*
X92564593Y-96725429D01*
X92565421Y-96716513D01*
X92566010Y-96715518D01*
X92569011Y-96710979D01*
X92667978Y-96561281D01*
X92671281Y-96557978D01*
X92825880Y-96455770D01*
X92834670Y-96454067D01*
X92842091Y-96459079D01*
G37*
%TD.AperFunction*%
%TD*%
M02*
