M48
; DRILL file {KiCad 9.0.0} date 2025-04-15T08:35:38-0400
; FORMAT={-:-/ absolute / metric / decimal}
; #@! TF.CreationDate,2025-04-15T08:35:38-04:00
; #@! TF.GenerationSoftware,Kicad,Pcbnew,9.0.0
; #@! TF.FileFunction,Plated,1,2,PTH
FMAT,2
METRIC
; #@! TA.AperFunction,Plated,PTH,ViaDrill
T1C0.200
; #@! TA.AperFunction,Plated,PTH,ComponentDrill
T2C1.000
; #@! TA.AperFunction,Plated,PTH,ComponentDrill
T3C1.100
%
G90
G05
T1
X56.23Y-111.21
X59.23Y-112.12
X68.72Y-117.59
X69.67Y-118.88
X71.69Y-115.85
X75.155Y-98.885
X76.11Y-104.09
X84.41Y-95.64
X84.93Y-116.42
X85.43Y-93.68
X86.88Y-96.41
X87.7Y-99.3
X87.99Y-93.67
X88.92Y-102.99
X88.92Y-103.85
X89.11Y-116.1
X89.18Y-100.02
X89.84Y-102.99
X89.84Y-103.85
X92.67Y-96.56
X102.82Y-98.08
X103.62Y-116.15
X125.93Y-98.08
X148.77Y-98.08
X171.62Y-98.08
X194.47Y-98.08
X217.32Y-98.08
X239.7Y-98.08
X248.01Y-99.67
T2
X53.02Y-113.4
X53.02Y-115.94
X55.56Y-113.4
X55.56Y-115.94
X57.58Y-119.36
X58.1Y-113.4
X58.1Y-115.94
X60.12Y-119.36
X60.64Y-113.4
X60.64Y-115.94
X62.66Y-119.36
X63.18Y-113.4
X63.18Y-115.94
X65.2Y-119.36
X65.72Y-113.4
X65.72Y-115.94
X68.26Y-113.4
X68.26Y-115.94
T3
X82.36Y-108.91
X88.71Y-106.37
X105.21Y-108.91
X111.56Y-106.37
X128.06Y-108.91
X134.41Y-106.37
X150.91Y-108.91
X157.26Y-106.37
X173.76Y-108.91
X180.11Y-106.37
X196.61Y-108.91
X202.96Y-106.37
X219.46Y-108.91
X225.81Y-106.37
X242.31Y-108.91
X248.66Y-106.37
M30
