%TF.GenerationSoftware,KiCad,Pcbnew,9.0.0*%
%TF.CreationDate,2025-04-15T08:38:05-04:00*%
%TF.ProjectId,Keypad Panel,4b657970-6164-4205-9061-6e656c2e6b69,1.0*%
%TF.SameCoordinates,Original*%
%TF.FileFunction,Soldermask,Top*%
%TF.FilePolarity,Negative*%
%FSLAX46Y46*%
G04 Gerber Fmt 4.6, Leading zero omitted, Abs format (unit mm)*
G04 Created by KiCad (PCBNEW 9.0.0) date 2025-04-15 08:38:05*
%MOMM*%
%LPD*%
G01*
G04 APERTURE LIST*
%ADD10C,0.000000*%
%ADD11C,0.750000*%
%ADD12C,0.300000*%
%ADD13C,0.500000*%
%ADD14C,0.350000*%
%ADD15C,0.010000*%
%ADD16C,0.150000*%
G04 APERTURE END LIST*
D10*
G36*
X159280237Y-94238522D02*
G01*
X159537306Y-94304139D01*
X159820303Y-94411357D01*
X159974626Y-94486631D01*
X160139155Y-94579584D01*
X160416931Y-94770298D01*
X160673784Y-94994767D01*
X160792431Y-95118296D01*
X160903506Y-95248382D01*
X160952507Y-95311048D01*
X161141083Y-95592059D01*
X161222477Y-95740172D01*
X161294863Y-95892646D01*
X161336066Y-95991564D01*
X161431384Y-96279674D01*
X161493607Y-96568054D01*
X161510000Y-96665932D01*
X161510000Y-111919166D01*
X161473816Y-112120312D01*
X161409262Y-112378451D01*
X161361033Y-112525059D01*
X161299336Y-112681313D01*
X161222045Y-112845681D01*
X161127036Y-113016629D01*
X160936641Y-113294555D01*
X160712453Y-113551618D01*
X160589046Y-113670394D01*
X160459080Y-113781602D01*
X160396558Y-113830598D01*
X160115742Y-114019490D01*
X159967716Y-114101047D01*
X159815320Y-114173603D01*
X159715051Y-114215467D01*
X159426925Y-114310976D01*
X159138638Y-114373329D01*
X159039168Y-114390000D01*
X159039166Y-114390000D01*
X143785932Y-114390000D01*
X143785929Y-114389999D01*
X143584429Y-114353740D01*
X143325677Y-114288964D01*
X143178701Y-114240543D01*
X143022055Y-114178584D01*
X142857286Y-114100953D01*
X142685943Y-114005514D01*
X142408167Y-113814800D01*
X142151314Y-113590331D01*
X142032667Y-113466802D01*
X141921592Y-113336716D01*
X141872591Y-113274050D01*
X141684013Y-112993036D01*
X141602619Y-112844922D01*
X141530233Y-112692447D01*
X141489032Y-112593533D01*
X141393714Y-112305424D01*
X141331491Y-112017045D01*
X141315098Y-111919166D01*
X141315098Y-96665932D01*
X141315098Y-96665930D01*
X141351358Y-96464431D01*
X141416134Y-96205678D01*
X141464555Y-96058702D01*
X141526513Y-95902055D01*
X141604144Y-95737286D01*
X141699584Y-95565943D01*
X141890296Y-95288168D01*
X142114764Y-95031317D01*
X142238293Y-94912670D01*
X142368378Y-94801595D01*
X142431048Y-94752591D01*
X142712062Y-94564013D01*
X142860176Y-94482619D01*
X143012651Y-94410232D01*
X143111564Y-94369032D01*
X143400665Y-94273375D01*
X143689065Y-94211309D01*
X143785932Y-94195098D01*
X159039166Y-94195098D01*
X159280237Y-94238522D01*
G37*
G36*
X223385056Y-86411583D02*
G01*
X223703879Y-86411583D01*
X223703879Y-86730406D01*
X224022702Y-86730406D01*
X224022702Y-87046583D01*
X224656379Y-87046583D01*
X224656379Y-87365406D01*
X224975202Y-87365406D01*
X224975202Y-87684229D01*
X225290056Y-87684229D01*
X225290056Y-88644666D01*
X224980493Y-88644666D01*
X224980493Y-89280989D01*
X224661670Y-89280989D01*
X224661670Y-90234812D01*
X224346816Y-90234812D01*
X224346816Y-90863198D01*
X224653732Y-90863198D01*
X224653732Y-91185990D01*
X223066232Y-91185990D01*
X223066232Y-90879073D01*
X222757993Y-90879073D01*
X222757993Y-91185990D01*
X218937410Y-91185990D01*
X218937410Y-90873781D01*
X218621233Y-90873781D01*
X218621233Y-89602458D01*
X218945347Y-89602458D01*
X218946670Y-90860552D01*
X222746087Y-90860552D01*
X222746087Y-90550989D01*
X223074170Y-90550989D01*
X223074170Y-90859229D01*
X224017410Y-90859229D01*
X224017410Y-90226875D01*
X224334910Y-90226875D01*
X224334910Y-89273052D01*
X224652410Y-89273052D01*
X224652410Y-88636729D01*
X224961972Y-88636729D01*
X224961972Y-87701427D01*
X224656378Y-87701427D01*
X224656378Y-88008344D01*
X224337555Y-88008344D01*
X224337555Y-87684229D01*
X224645795Y-87684229D01*
X224645795Y-87375990D01*
X223694618Y-87375990D01*
X223694618Y-86739667D01*
X223377118Y-86739667D01*
X223377118Y-86428781D01*
X223075493Y-86428781D01*
X223075493Y-87053198D01*
X223385056Y-87053198D01*
X223385056Y-87696135D01*
X223068879Y-87696135D01*
X223068879Y-88007021D01*
X222425941Y-88007021D01*
X222425941Y-87700104D01*
X220527556Y-87700104D01*
X220527556Y-88013635D01*
X220211378Y-88013635D01*
X220211378Y-88332458D01*
X219575056Y-88332458D01*
X219575056Y-88968781D01*
X219258879Y-88968781D01*
X219258879Y-89602458D01*
X218945347Y-89602458D01*
X218621233Y-89602458D01*
X218621233Y-89595844D01*
X218932118Y-89595844D01*
X218932118Y-88959521D01*
X219249618Y-88959521D01*
X219249618Y-88323198D01*
X219567118Y-88323198D01*
X219567118Y-88007021D01*
X220200795Y-88007021D01*
X220200795Y-87688198D01*
X220518295Y-87688198D01*
X220518295Y-87372021D01*
X222433878Y-87372021D01*
X222433878Y-87680260D01*
X223056972Y-87680260D01*
X223056972Y-87378635D01*
X222746087Y-87378635D01*
X222746087Y-87059813D01*
X222429910Y-87059813D01*
X222429910Y-86734375D01*
X222742118Y-86734375D01*
X222742118Y-86415552D01*
X223059618Y-86415552D01*
X223059618Y-86100698D01*
X223385056Y-86100698D01*
X223385056Y-86411583D01*
G37*
D11*
X54200000Y-89020000D02*
X62500000Y-89020000D01*
D12*
X110730000Y-117380000D02*
G75*
G02*
X108030000Y-117380000I-1350000J0D01*
G01*
X108030000Y-117380000D02*
G75*
G02*
X110730000Y-117380000I1350000J0D01*
G01*
D11*
X62500000Y-89020000D02*
G75*
G02*
X64500000Y-91020000I0J-2000000D01*
G01*
D13*
X228375000Y-90920000D02*
X240255000Y-90920000D01*
X225890000Y-86350000D02*
X226740000Y-86350000D01*
D12*
X110730009Y-117380027D02*
G75*
G02*
X108030009Y-117380027I-1350000J0D01*
G01*
X108030009Y-117380027D02*
G75*
G02*
X110730009Y-117380027I1350000J0D01*
G01*
D14*
X109380000Y-116530000D02*
X109380000Y-118230000D01*
D11*
X54200000Y-118070000D02*
G75*
G02*
X52200000Y-116070000I0J2000000D01*
G01*
D12*
X226005000Y-87760000D02*
X226815000Y-87760000D01*
D11*
X64500000Y-116070000D02*
G75*
G02*
X62500000Y-118070000I-2000000J0D01*
G01*
D10*
G36*
X243476323Y-87040594D02*
G01*
X243795146Y-87040594D01*
X243795146Y-87359417D01*
X244431469Y-87359417D01*
X244431469Y-87676917D01*
X245383969Y-87676917D01*
X245383969Y-87993094D01*
X246335146Y-87993094D01*
X246335146Y-88310594D01*
X246653969Y-88310594D01*
X246653969Y-88629417D01*
X246972792Y-88629417D01*
X246972792Y-88948240D01*
X247288969Y-88948240D01*
X247288969Y-89264417D01*
X247446892Y-89263921D01*
X247525047Y-89262743D01*
X247603823Y-89260449D01*
X247603823Y-90541032D01*
X247291614Y-90541032D01*
X247291614Y-90859855D01*
X246975437Y-90859855D01*
X246975437Y-91172063D01*
X244107354Y-91172063D01*
X244107354Y-90863824D01*
X243799114Y-90863824D01*
X243799114Y-91173386D01*
X241888823Y-91173386D01*
X241888823Y-90535740D01*
X242514562Y-90535740D01*
X242514562Y-89592500D01*
X242203677Y-89592500D01*
X242203677Y-89276323D01*
X241884854Y-89276323D01*
X241884854Y-88640000D01*
X241570000Y-88640000D01*
X241570000Y-88633386D01*
X241899406Y-88633386D01*
X242214260Y-88633386D01*
X242214260Y-89269709D01*
X242533083Y-89269709D01*
X242533083Y-89588531D01*
X242842645Y-89588531D01*
X242842645Y-90548969D01*
X242534406Y-90548969D01*
X242534406Y-90851917D01*
X243792499Y-90851917D01*
X243792499Y-90543677D01*
X244120583Y-90543677D01*
X244120583Y-90850594D01*
X246966177Y-90850594D01*
X246966177Y-90535740D01*
X247278385Y-90535740D01*
X247278385Y-89273677D01*
X246963531Y-89273677D01*
X246963531Y-88954854D01*
X246644708Y-88954854D01*
X246644708Y-88636031D01*
X246328531Y-88636031D01*
X246328531Y-88319854D01*
X245374708Y-88319854D01*
X245374708Y-88001031D01*
X244420885Y-88001031D01*
X244420885Y-87691469D01*
X243803083Y-87691469D01*
X243803083Y-88315886D01*
X244112645Y-88315886D01*
X244112645Y-89587208D01*
X243472354Y-89587208D01*
X243472354Y-89272354D01*
X243153531Y-89272354D01*
X243153531Y-88953531D01*
X242841322Y-88953531D01*
X242841322Y-87682208D01*
X243166760Y-87682208D01*
X243166760Y-88950885D01*
X243482937Y-88950885D01*
X243482937Y-89261771D01*
X243784562Y-89261771D01*
X243784562Y-88318531D01*
X243477645Y-88318531D01*
X243477645Y-87675594D01*
X243785885Y-87675594D01*
X243785885Y-87367354D01*
X243472354Y-87367354D01*
X243472354Y-87057792D01*
X242211614Y-87057792D01*
X242211614Y-87372646D01*
X241899406Y-87372646D01*
X241899406Y-88633386D01*
X241570000Y-88633386D01*
X241570000Y-87372646D01*
X241570000Y-87362063D01*
X241879562Y-87362063D01*
X241879562Y-87045886D01*
X242198385Y-87045886D01*
X242198385Y-86731032D01*
X243476323Y-86731032D01*
X243476323Y-87040594D01*
G37*
G36*
X90730237Y-94238522D02*
G01*
X90987306Y-94304139D01*
X91270303Y-94411357D01*
X91424626Y-94486631D01*
X91589155Y-94579584D01*
X91866931Y-94770298D01*
X92123784Y-94994767D01*
X92242431Y-95118296D01*
X92353506Y-95248382D01*
X92402507Y-95311048D01*
X92591083Y-95592059D01*
X92672477Y-95740172D01*
X92744863Y-95892646D01*
X92786066Y-95991564D01*
X92881384Y-96279674D01*
X92943607Y-96568054D01*
X92960000Y-96665932D01*
X92960000Y-111919166D01*
X92923816Y-112120312D01*
X92859262Y-112378451D01*
X92811033Y-112525059D01*
X92749336Y-112681313D01*
X92672045Y-112845681D01*
X92577036Y-113016629D01*
X92386641Y-113294555D01*
X92162453Y-113551618D01*
X92039046Y-113670394D01*
X91909080Y-113781602D01*
X91846558Y-113830598D01*
X91565742Y-114019490D01*
X91417716Y-114101047D01*
X91265320Y-114173603D01*
X91165051Y-114215467D01*
X90876925Y-114310976D01*
X90588638Y-114373329D01*
X90489168Y-114390000D01*
X90489166Y-114390000D01*
X75235932Y-114390000D01*
X75235929Y-114389999D01*
X75034429Y-114353740D01*
X74775677Y-114288964D01*
X74628701Y-114240543D01*
X74472055Y-114178584D01*
X74307286Y-114100953D01*
X74135943Y-114005514D01*
X73858167Y-113814800D01*
X73601314Y-113590331D01*
X73482667Y-113466802D01*
X73371592Y-113336716D01*
X73322591Y-113274050D01*
X73134013Y-112993036D01*
X73052619Y-112844922D01*
X72980233Y-112692447D01*
X72939032Y-112593533D01*
X72843714Y-112305424D01*
X72781491Y-112017045D01*
X72765098Y-111919166D01*
X72765098Y-96665932D01*
X72765098Y-96665930D01*
X72801358Y-96464431D01*
X72866134Y-96205678D01*
X72914555Y-96058702D01*
X72976513Y-95902055D01*
X73054144Y-95737286D01*
X73149584Y-95565943D01*
X73340296Y-95288168D01*
X73564764Y-95031317D01*
X73688293Y-94912670D01*
X73818378Y-94801595D01*
X73881048Y-94752591D01*
X74162062Y-94564013D01*
X74310176Y-94482619D01*
X74462651Y-94410232D01*
X74561564Y-94369032D01*
X74850665Y-94273375D01*
X75139065Y-94211309D01*
X75235932Y-94195098D01*
X90489166Y-94195098D01*
X90730237Y-94238522D01*
G37*
D11*
X52200000Y-90990000D02*
X52200000Y-116070000D01*
D10*
G36*
X201240032Y-119845009D02*
G01*
X101420032Y-119845009D01*
X101420032Y-119494997D01*
X201240032Y-119494997D01*
X201240032Y-119845009D01*
G37*
D13*
X226570000Y-90920000D02*
X226740000Y-90920000D01*
D15*
X188035000Y-117250000D02*
X192845000Y-117250000D01*
X192845000Y-117480000D01*
X188035000Y-117480000D01*
X188035000Y-117250000D01*
G36*
X188035000Y-117250000D02*
G01*
X192845000Y-117250000D01*
X192845000Y-117480000D01*
X188035000Y-117480000D01*
X188035000Y-117250000D01*
G37*
D10*
G36*
X182130237Y-94238522D02*
G01*
X182387306Y-94304139D01*
X182670303Y-94411357D01*
X182824626Y-94486631D01*
X182989155Y-94579584D01*
X183266931Y-94770298D01*
X183523784Y-94994767D01*
X183642431Y-95118296D01*
X183753506Y-95248382D01*
X183802507Y-95311048D01*
X183991083Y-95592059D01*
X184072477Y-95740172D01*
X184144863Y-95892646D01*
X184186066Y-95991564D01*
X184281384Y-96279674D01*
X184343607Y-96568054D01*
X184360000Y-96665932D01*
X184360000Y-111919166D01*
X184323816Y-112120312D01*
X184259262Y-112378451D01*
X184211033Y-112525059D01*
X184149336Y-112681313D01*
X184072045Y-112845681D01*
X183977036Y-113016629D01*
X183786641Y-113294555D01*
X183562453Y-113551618D01*
X183439046Y-113670394D01*
X183309080Y-113781602D01*
X183246558Y-113830598D01*
X182965742Y-114019490D01*
X182817716Y-114101047D01*
X182665320Y-114173603D01*
X182565051Y-114215467D01*
X182276925Y-114310976D01*
X181988638Y-114373329D01*
X181889168Y-114390000D01*
X181889166Y-114390000D01*
X166635932Y-114390000D01*
X166635929Y-114389999D01*
X166434429Y-114353740D01*
X166175677Y-114288964D01*
X166028701Y-114240543D01*
X165872055Y-114178584D01*
X165707286Y-114100953D01*
X165535943Y-114005514D01*
X165258167Y-113814800D01*
X165001314Y-113590331D01*
X164882667Y-113466802D01*
X164771592Y-113336716D01*
X164722591Y-113274050D01*
X164534013Y-112993036D01*
X164452619Y-112844922D01*
X164380233Y-112692447D01*
X164339032Y-112593533D01*
X164243714Y-112305424D01*
X164181491Y-112017045D01*
X164165098Y-111919166D01*
X164165098Y-96665932D01*
X164165098Y-96665930D01*
X164201358Y-96464431D01*
X164266134Y-96205678D01*
X164314555Y-96058702D01*
X164376513Y-95902055D01*
X164454144Y-95737286D01*
X164549584Y-95565943D01*
X164740296Y-95288168D01*
X164964764Y-95031317D01*
X165088293Y-94912670D01*
X165218378Y-94801595D01*
X165281048Y-94752591D01*
X165562062Y-94564013D01*
X165710176Y-94482619D01*
X165862651Y-94410232D01*
X165961564Y-94369032D01*
X166250665Y-94273375D01*
X166539065Y-94211309D01*
X166635932Y-94195098D01*
X181889166Y-94195098D01*
X182130237Y-94238522D01*
G37*
G36*
X250680237Y-94238522D02*
G01*
X250937306Y-94304139D01*
X251220303Y-94411357D01*
X251374626Y-94486631D01*
X251539155Y-94579584D01*
X251816931Y-94770298D01*
X252073784Y-94994767D01*
X252192431Y-95118296D01*
X252303506Y-95248382D01*
X252352507Y-95311048D01*
X252541083Y-95592059D01*
X252622477Y-95740172D01*
X252694863Y-95892646D01*
X252736066Y-95991564D01*
X252831384Y-96279674D01*
X252893607Y-96568054D01*
X252910000Y-96665932D01*
X252910000Y-111919166D01*
X252873816Y-112120312D01*
X252809262Y-112378451D01*
X252761033Y-112525059D01*
X252699336Y-112681313D01*
X252622045Y-112845681D01*
X252527036Y-113016629D01*
X252336641Y-113294555D01*
X252112453Y-113551618D01*
X251989046Y-113670394D01*
X251859080Y-113781602D01*
X251796558Y-113830598D01*
X251515742Y-114019490D01*
X251367716Y-114101047D01*
X251215320Y-114173603D01*
X251115051Y-114215467D01*
X250826925Y-114310976D01*
X250538638Y-114373329D01*
X250439168Y-114390000D01*
X250439166Y-114390000D01*
X235185932Y-114390000D01*
X235185929Y-114389999D01*
X234984429Y-114353740D01*
X234725677Y-114288964D01*
X234578701Y-114240543D01*
X234422055Y-114178584D01*
X234257286Y-114100953D01*
X234085943Y-114005514D01*
X233808167Y-113814800D01*
X233551314Y-113590331D01*
X233432667Y-113466802D01*
X233321592Y-113336716D01*
X233272591Y-113274050D01*
X233084013Y-112993036D01*
X233002619Y-112844922D01*
X232930233Y-112692447D01*
X232889032Y-112593533D01*
X232793714Y-112305424D01*
X232731491Y-112017045D01*
X232715098Y-111919166D01*
X232715098Y-96665932D01*
X232715098Y-96665930D01*
X232751358Y-96464431D01*
X232816134Y-96205678D01*
X232864555Y-96058702D01*
X232926513Y-95902055D01*
X233004144Y-95737286D01*
X233099584Y-95565943D01*
X233290296Y-95288168D01*
X233514764Y-95031317D01*
X233638293Y-94912670D01*
X233768378Y-94801595D01*
X233831048Y-94752591D01*
X234112062Y-94564013D01*
X234260176Y-94482619D01*
X234412651Y-94410232D01*
X234511564Y-94369032D01*
X234800665Y-94273375D01*
X235089065Y-94211309D01*
X235185932Y-94195098D01*
X250439166Y-94195098D01*
X250680237Y-94238522D01*
G37*
D15*
X130215000Y-117350000D02*
X133345000Y-117350000D01*
X133345000Y-117580000D01*
X130215000Y-117580000D01*
X130215000Y-117350000D01*
G36*
X130215000Y-117350000D02*
G01*
X133345000Y-117350000D01*
X133345000Y-117580000D01*
X130215000Y-117580000D01*
X130215000Y-117350000D01*
G37*
D13*
X227740000Y-86350000D02*
X240935000Y-86350000D01*
D10*
G36*
X227830237Y-94238522D02*
G01*
X228087306Y-94304139D01*
X228370303Y-94411357D01*
X228524626Y-94486631D01*
X228689155Y-94579584D01*
X228966931Y-94770298D01*
X229223784Y-94994767D01*
X229342431Y-95118296D01*
X229453506Y-95248382D01*
X229502507Y-95311048D01*
X229691083Y-95592059D01*
X229772477Y-95740172D01*
X229844863Y-95892646D01*
X229886066Y-95991564D01*
X229981384Y-96279674D01*
X230043607Y-96568054D01*
X230060000Y-96665932D01*
X230060000Y-111919166D01*
X230023816Y-112120312D01*
X229959262Y-112378451D01*
X229911033Y-112525059D01*
X229849336Y-112681313D01*
X229772045Y-112845681D01*
X229677036Y-113016629D01*
X229486641Y-113294555D01*
X229262453Y-113551618D01*
X229139046Y-113670394D01*
X229009080Y-113781602D01*
X228946558Y-113830598D01*
X228665742Y-114019490D01*
X228517716Y-114101047D01*
X228365320Y-114173603D01*
X228265051Y-114215467D01*
X227976925Y-114310976D01*
X227688638Y-114373329D01*
X227589168Y-114390000D01*
X227589166Y-114390000D01*
X212335932Y-114390000D01*
X212335929Y-114389999D01*
X212134429Y-114353740D01*
X211875677Y-114288964D01*
X211728701Y-114240543D01*
X211572055Y-114178584D01*
X211407286Y-114100953D01*
X211235943Y-114005514D01*
X210958167Y-113814800D01*
X210701314Y-113590331D01*
X210582667Y-113466802D01*
X210471592Y-113336716D01*
X210422591Y-113274050D01*
X210234013Y-112993036D01*
X210152619Y-112844922D01*
X210080233Y-112692447D01*
X210039032Y-112593533D01*
X209943714Y-112305424D01*
X209881491Y-112017045D01*
X209865098Y-111919166D01*
X209865098Y-96665932D01*
X209865098Y-96665930D01*
X209901358Y-96464431D01*
X209966134Y-96205678D01*
X210014555Y-96058702D01*
X210076513Y-95902055D01*
X210154144Y-95737286D01*
X210249584Y-95565943D01*
X210440296Y-95288168D01*
X210664764Y-95031317D01*
X210788293Y-94912670D01*
X210918378Y-94801595D01*
X210981048Y-94752591D01*
X211262062Y-94564013D01*
X211410176Y-94482619D01*
X211562651Y-94410232D01*
X211661564Y-94369032D01*
X211950665Y-94273375D01*
X212239065Y-94211309D01*
X212335932Y-94195098D01*
X227589166Y-94195098D01*
X227830237Y-94238522D01*
G37*
G36*
X204980237Y-94238522D02*
G01*
X205237306Y-94304139D01*
X205520303Y-94411357D01*
X205674626Y-94486631D01*
X205839155Y-94579584D01*
X206116931Y-94770298D01*
X206373784Y-94994767D01*
X206492431Y-95118296D01*
X206603506Y-95248382D01*
X206652507Y-95311048D01*
X206841083Y-95592059D01*
X206922477Y-95740172D01*
X206994863Y-95892646D01*
X207036066Y-95991564D01*
X207131384Y-96279674D01*
X207193607Y-96568054D01*
X207210000Y-96665932D01*
X207210000Y-111919166D01*
X207173816Y-112120312D01*
X207109262Y-112378451D01*
X207061033Y-112525059D01*
X206999336Y-112681313D01*
X206922045Y-112845681D01*
X206827036Y-113016629D01*
X206636641Y-113294555D01*
X206412453Y-113551618D01*
X206289046Y-113670394D01*
X206159080Y-113781602D01*
X206096558Y-113830598D01*
X205815742Y-114019490D01*
X205667716Y-114101047D01*
X205515320Y-114173603D01*
X205415051Y-114215467D01*
X205126925Y-114310976D01*
X204838638Y-114373329D01*
X204739168Y-114390000D01*
X204739166Y-114390000D01*
X189485932Y-114390000D01*
X189485929Y-114389999D01*
X189284429Y-114353740D01*
X189025677Y-114288964D01*
X188878701Y-114240543D01*
X188722055Y-114178584D01*
X188557286Y-114100953D01*
X188385943Y-114005514D01*
X188108167Y-113814800D01*
X187851314Y-113590331D01*
X187732667Y-113466802D01*
X187621592Y-113336716D01*
X187572591Y-113274050D01*
X187384013Y-112993036D01*
X187302619Y-112844922D01*
X187230233Y-112692447D01*
X187189032Y-112593533D01*
X187093714Y-112305424D01*
X187031491Y-112017045D01*
X187015098Y-111919166D01*
X187015098Y-96665932D01*
X187015098Y-96665930D01*
X187051358Y-96464431D01*
X187116134Y-96205678D01*
X187164555Y-96058702D01*
X187226513Y-95902055D01*
X187304144Y-95737286D01*
X187399584Y-95565943D01*
X187590296Y-95288168D01*
X187814764Y-95031317D01*
X187938293Y-94912670D01*
X188068378Y-94801595D01*
X188131048Y-94752591D01*
X188412062Y-94564013D01*
X188560176Y-94482619D01*
X188712651Y-94410232D01*
X188811564Y-94369032D01*
X189100665Y-94273375D01*
X189389065Y-94211309D01*
X189485932Y-94195098D01*
X204739166Y-94195098D01*
X204980237Y-94238522D01*
G37*
D11*
X64500000Y-91020000D02*
X64500000Y-116070000D01*
X62500000Y-118070000D02*
X54200000Y-118070000D01*
D13*
X240252121Y-90919253D02*
X240935000Y-86350000D01*
D14*
X109380009Y-116530027D02*
X109380009Y-118230027D01*
D12*
X226255000Y-89480000D02*
X226815000Y-89480000D01*
D10*
G36*
X136430237Y-94238522D02*
G01*
X136687306Y-94304139D01*
X136970303Y-94411357D01*
X137124626Y-94486631D01*
X137289155Y-94579584D01*
X137566931Y-94770298D01*
X137823784Y-94994767D01*
X137942431Y-95118296D01*
X138053506Y-95248382D01*
X138102507Y-95311048D01*
X138291083Y-95592059D01*
X138372477Y-95740172D01*
X138444863Y-95892646D01*
X138486066Y-95991564D01*
X138581384Y-96279674D01*
X138643607Y-96568054D01*
X138660000Y-96665932D01*
X138660000Y-111919166D01*
X138623816Y-112120312D01*
X138559262Y-112378451D01*
X138511033Y-112525059D01*
X138449336Y-112681313D01*
X138372045Y-112845681D01*
X138277036Y-113016629D01*
X138086641Y-113294555D01*
X137862453Y-113551618D01*
X137739046Y-113670394D01*
X137609080Y-113781602D01*
X137546558Y-113830598D01*
X137265742Y-114019490D01*
X137117716Y-114101047D01*
X136965320Y-114173603D01*
X136865051Y-114215467D01*
X136576925Y-114310976D01*
X136288638Y-114373329D01*
X136189168Y-114390000D01*
X136189166Y-114390000D01*
X120935932Y-114390000D01*
X120935929Y-114389999D01*
X120734429Y-114353740D01*
X120475677Y-114288964D01*
X120328701Y-114240543D01*
X120172055Y-114178584D01*
X120007286Y-114100953D01*
X119835943Y-114005514D01*
X119558167Y-113814800D01*
X119301314Y-113590331D01*
X119182667Y-113466802D01*
X119071592Y-113336716D01*
X119022591Y-113274050D01*
X118834013Y-112993036D01*
X118752619Y-112844922D01*
X118680233Y-112692447D01*
X118639032Y-112593533D01*
X118543714Y-112305424D01*
X118481491Y-112017045D01*
X118465098Y-111919166D01*
X118465098Y-96665932D01*
X118465098Y-96665930D01*
X118501358Y-96464431D01*
X118566134Y-96205678D01*
X118614555Y-96058702D01*
X118676513Y-95902055D01*
X118754144Y-95737286D01*
X118849584Y-95565943D01*
X119040296Y-95288168D01*
X119264764Y-95031317D01*
X119388293Y-94912670D01*
X119518378Y-94801595D01*
X119581048Y-94752591D01*
X119862062Y-94564013D01*
X120010176Y-94482619D01*
X120162651Y-94410232D01*
X120261564Y-94369032D01*
X120550665Y-94273375D01*
X120839065Y-94211309D01*
X120935932Y-94195098D01*
X136189166Y-94195098D01*
X136430237Y-94238522D01*
G37*
D11*
X52200000Y-91020000D02*
G75*
G02*
X54200000Y-89020000I2000000J0D01*
G01*
D15*
X144625000Y-117340000D02*
X147755000Y-117340000D01*
X147755000Y-117570000D01*
X144625000Y-117570000D01*
X144625000Y-117340000D01*
G36*
X144625000Y-117340000D02*
G01*
X147755000Y-117340000D01*
X147755000Y-117570000D01*
X144625000Y-117570000D01*
X144625000Y-117340000D01*
G37*
X177855000Y-117260000D02*
X182665000Y-117260000D01*
X182665000Y-117490000D01*
X177855000Y-117490000D01*
X177855000Y-117260000D01*
G36*
X177855000Y-117260000D02*
G01*
X182665000Y-117260000D01*
X182665000Y-117490000D01*
X177855000Y-117490000D01*
X177855000Y-117260000D01*
G37*
D10*
G36*
X242525146Y-88002355D02*
G01*
X242206323Y-88002355D01*
X242206323Y-87684855D01*
X242525146Y-87684855D01*
X242525146Y-88002355D01*
G37*
D12*
X226125000Y-88620000D02*
X226815000Y-88620000D01*
D10*
G36*
X113580237Y-94238522D02*
G01*
X113837306Y-94304139D01*
X114120303Y-94411357D01*
X114274626Y-94486631D01*
X114439155Y-94579584D01*
X114716931Y-94770298D01*
X114973784Y-94994767D01*
X115092431Y-95118296D01*
X115203506Y-95248382D01*
X115252507Y-95311048D01*
X115441083Y-95592059D01*
X115522477Y-95740172D01*
X115594863Y-95892646D01*
X115636066Y-95991564D01*
X115731384Y-96279674D01*
X115793607Y-96568054D01*
X115810000Y-96665932D01*
X115810000Y-111919166D01*
X115773816Y-112120312D01*
X115709262Y-112378451D01*
X115661033Y-112525059D01*
X115599336Y-112681313D01*
X115522045Y-112845681D01*
X115427036Y-113016629D01*
X115236641Y-113294555D01*
X115012453Y-113551618D01*
X114889046Y-113670394D01*
X114759080Y-113781602D01*
X114696558Y-113830598D01*
X114415742Y-114019490D01*
X114267716Y-114101047D01*
X114115320Y-114173603D01*
X114015051Y-114215467D01*
X113726925Y-114310976D01*
X113438638Y-114373329D01*
X113339168Y-114390000D01*
X113339166Y-114390000D01*
X98085932Y-114390000D01*
X98085929Y-114389999D01*
X97884429Y-114353740D01*
X97625677Y-114288964D01*
X97478701Y-114240543D01*
X97322055Y-114178584D01*
X97157286Y-114100953D01*
X96985943Y-114005514D01*
X96708167Y-113814800D01*
X96451314Y-113590331D01*
X96332667Y-113466802D01*
X96221592Y-113336716D01*
X96172591Y-113274050D01*
X95984013Y-112993036D01*
X95902619Y-112844922D01*
X95830233Y-112692447D01*
X95789032Y-112593533D01*
X95693714Y-112305424D01*
X95631491Y-112017045D01*
X95615098Y-111919166D01*
X95615098Y-96665932D01*
X95615098Y-96665930D01*
X95651358Y-96464431D01*
X95716134Y-96205678D01*
X95764555Y-96058702D01*
X95826513Y-95902055D01*
X95904144Y-95737286D01*
X95999584Y-95565943D01*
X96190296Y-95288168D01*
X96414764Y-95031317D01*
X96538293Y-94912670D01*
X96668378Y-94801595D01*
X96731048Y-94752591D01*
X97012062Y-94564013D01*
X97160176Y-94482619D01*
X97312651Y-94410232D01*
X97411564Y-94369032D01*
X97700665Y-94273375D01*
X97989065Y-94211309D01*
X98085932Y-94195098D01*
X113339166Y-94195098D01*
X113580237Y-94238522D01*
G37*
D12*
G36*
X86864045Y-119281780D02*
G01*
X78984399Y-119281780D01*
X78984399Y-118080896D01*
X79317732Y-118080896D01*
X79317732Y-118239898D01*
X79330129Y-118376416D01*
X79374152Y-118519068D01*
X79431093Y-118624735D01*
X79526559Y-118743283D01*
X79624759Y-118824255D01*
X79755903Y-118894225D01*
X79894939Y-118934891D01*
X80043866Y-118948447D01*
X80093989Y-118947405D01*
X80243290Y-118929628D01*
X80257449Y-118925000D01*
X81114382Y-118925000D01*
X81543028Y-118925000D01*
X81543028Y-117611950D01*
X82052275Y-117611950D01*
X82052275Y-118925000D01*
X82480921Y-118925000D01*
X82949134Y-118925000D01*
X83377781Y-118925000D01*
X83758067Y-118925000D01*
X84186713Y-118925000D01*
X84186713Y-117658845D01*
X84930432Y-117658845D01*
X84930432Y-117230198D01*
X84186713Y-117230198D01*
X84186713Y-116352390D01*
X85024222Y-116352390D01*
X85123873Y-116352390D01*
X85633119Y-116352390D01*
X85633119Y-118925000D01*
X86061765Y-118925000D01*
X86061765Y-116352390D01*
X86530712Y-116352390D01*
X86530712Y-115923743D01*
X85123873Y-115923743D01*
X85123873Y-116352390D01*
X85024222Y-116352390D01*
X85024222Y-115923743D01*
X83758067Y-115923743D01*
X83758067Y-118925000D01*
X83377781Y-118925000D01*
X83377781Y-115923743D01*
X82949134Y-115923743D01*
X82949134Y-118925000D01*
X82480921Y-118925000D01*
X82480921Y-115923743D01*
X82052275Y-115923743D01*
X82052275Y-117236793D01*
X81543028Y-117236793D01*
X81543028Y-115923743D01*
X81114382Y-115923743D01*
X81114382Y-118925000D01*
X80257449Y-118925000D01*
X80389714Y-118881769D01*
X80511065Y-118808149D01*
X80619790Y-118697854D01*
X80695514Y-118563741D01*
X80740691Y-118423080D01*
X80751456Y-118372061D01*
X80771892Y-118222356D01*
X80778060Y-118074302D01*
X80774834Y-117938200D01*
X80761207Y-117783408D01*
X80746748Y-117698629D01*
X80700391Y-117555530D01*
X80666130Y-117497756D01*
X80565568Y-117386270D01*
X80473605Y-117321601D01*
X80341354Y-117258042D01*
X80022617Y-117128349D01*
X79895122Y-117062404D01*
X79823314Y-116982536D01*
X79792540Y-116877756D01*
X79786678Y-116730478D01*
X79798402Y-116586863D01*
X79842365Y-116463032D01*
X79925896Y-116379501D01*
X80061451Y-116345795D01*
X80165831Y-116360839D01*
X80283468Y-116452773D01*
X80328548Y-116553452D01*
X80349414Y-116705565D01*
X80349414Y-116801552D01*
X80778060Y-116801552D01*
X80778060Y-116591992D01*
X80776392Y-116543741D01*
X80746739Y-116390441D01*
X80680021Y-116248732D01*
X80588283Y-116131106D01*
X80491941Y-116048802D01*
X80364068Y-115975767D01*
X80227781Y-115931803D01*
X80078304Y-115917149D01*
X80055332Y-115917404D01*
X79905746Y-115933452D01*
X79758834Y-115982362D01*
X79644117Y-116052472D01*
X79539016Y-116155286D01*
X79459515Y-116274904D01*
X79402728Y-116415404D01*
X79397316Y-116434335D01*
X79367853Y-116580330D01*
X79358032Y-116733408D01*
X79358390Y-116768119D01*
X79368855Y-116915176D01*
X79397477Y-117061035D01*
X79449623Y-117200157D01*
X79461853Y-117223049D01*
X79553780Y-117338927D01*
X79673564Y-117429545D01*
X79810858Y-117499110D01*
X80109079Y-117624406D01*
X80233642Y-117687421D01*
X80309113Y-117762892D01*
X80341354Y-117884525D01*
X80345250Y-117929927D01*
X80349414Y-118076500D01*
X80349253Y-118107405D01*
X80342819Y-118258217D01*
X80303984Y-118398900D01*
X80210928Y-118488293D01*
X80191200Y-118497370D01*
X80043866Y-118519801D01*
X79944036Y-118508718D01*
X79814522Y-118426011D01*
X79775725Y-118358343D01*
X79746378Y-118214253D01*
X79746378Y-118080896D01*
X79317732Y-118080896D01*
X78984399Y-118080896D01*
X78984399Y-115583816D01*
X86864045Y-115583816D01*
X86864045Y-119281780D01*
G37*
G36*
X215608479Y-115933421D02*
G01*
X215760097Y-115968179D01*
X215904501Y-116037500D01*
X216009602Y-116125976D01*
X216100985Y-116253063D01*
X216162462Y-116406812D01*
X216192000Y-116565860D01*
X216198646Y-116698970D01*
X216198646Y-118102878D01*
X216191587Y-118253342D01*
X216165511Y-118409154D01*
X216112182Y-118561206D01*
X216033757Y-118685507D01*
X215997878Y-118724965D01*
X215870978Y-118821661D01*
X215734725Y-118881047D01*
X215576398Y-118915428D01*
X215419755Y-118925000D01*
X214832107Y-118925000D01*
X214832107Y-118496353D01*
X215260753Y-118496353D01*
X215450530Y-118496353D01*
X215599457Y-118474188D01*
X215697459Y-118407693D01*
X215758028Y-118266762D01*
X215770000Y-118129256D01*
X215770000Y-116715090D01*
X215752780Y-116561767D01*
X215701123Y-116447644D01*
X215570949Y-116365785D01*
X215450530Y-116352390D01*
X215260753Y-116352390D01*
X215260753Y-118496353D01*
X214832107Y-118496353D01*
X214832107Y-115923743D01*
X215457857Y-115923743D01*
X215608479Y-115933421D01*
G37*
G36*
X216666859Y-118925000D02*
G01*
X216666859Y-115923743D01*
X217095505Y-115923743D01*
X217095505Y-118925000D01*
X216666859Y-118925000D01*
G37*
G36*
X217475792Y-118925000D02*
G01*
X217475792Y-115923743D01*
X217883921Y-115923743D01*
X218434201Y-117513032D01*
X218442261Y-117513032D01*
X218988876Y-115923743D01*
X219405066Y-115923743D01*
X219405066Y-118925000D01*
X218976420Y-118925000D01*
X218976420Y-117099773D01*
X218968360Y-117099773D01*
X218543377Y-118389375D01*
X218328688Y-118389375D01*
X217904438Y-117099773D01*
X217904438Y-118925000D01*
X217475792Y-118925000D01*
G37*
G36*
X219808799Y-118925000D02*
G01*
X219808799Y-115923743D01*
X220216929Y-115923743D01*
X220767208Y-117513032D01*
X220775268Y-117513032D01*
X221321884Y-115923743D01*
X221738074Y-115923743D01*
X221738074Y-118925000D01*
X221309427Y-118925000D01*
X221309427Y-117099773D01*
X221301367Y-117099773D01*
X220876385Y-118389375D01*
X220661695Y-118389375D01*
X220237445Y-117099773D01*
X220237445Y-118925000D01*
X219808799Y-118925000D01*
G37*
G36*
X222141807Y-118925000D02*
G01*
X222141807Y-115923743D01*
X223407962Y-115923743D01*
X223407962Y-116352390D01*
X222570453Y-116352390D01*
X222570453Y-117183304D01*
X223314173Y-117183304D01*
X223314173Y-117611950D01*
X222570453Y-117611950D01*
X222570453Y-118496353D01*
X223407962Y-118496353D01*
X223407962Y-118925000D01*
X222141807Y-118925000D01*
G37*
G36*
X224566612Y-115937654D02*
G01*
X224721103Y-115979385D01*
X224851826Y-116048937D01*
X224981807Y-116175000D01*
X225059053Y-116307149D01*
X225112530Y-116467118D01*
X225142240Y-116654908D01*
X225148925Y-116814009D01*
X225140911Y-116973363D01*
X225113582Y-117130635D01*
X225066859Y-117269033D01*
X224987896Y-117399516D01*
X224874106Y-117509597D01*
X224778897Y-117571650D01*
X225241249Y-118925000D01*
X224787690Y-118925000D01*
X224383956Y-117658845D01*
X224123838Y-117658845D01*
X224123838Y-118925000D01*
X223695191Y-118925000D01*
X223695191Y-117283688D01*
X224123838Y-117283688D01*
X224370767Y-117283688D01*
X224516947Y-117265965D01*
X224553949Y-117252180D01*
X224660928Y-117162055D01*
X224707090Y-117017707D01*
X224719648Y-116866063D01*
X224720279Y-116817672D01*
X224713465Y-116669470D01*
X224707090Y-116619103D01*
X224661194Y-116478239D01*
X224656531Y-116470359D01*
X224539295Y-116381882D01*
X224391166Y-116353426D01*
X224350251Y-116352390D01*
X224123838Y-116352390D01*
X224123838Y-117283688D01*
X223695191Y-117283688D01*
X223695191Y-115923743D01*
X224388353Y-115923743D01*
X224566612Y-115937654D01*
G37*
G36*
X227500167Y-88044741D02*
G01*
X227928813Y-88044741D01*
X227928813Y-90372620D01*
X227916677Y-90518708D01*
X227874012Y-90660066D01*
X227790579Y-90788579D01*
X227734640Y-90841566D01*
X227603121Y-90924642D01*
X227451280Y-90976949D01*
X227297248Y-90997718D01*
X227242247Y-90999103D01*
X227242247Y-90570457D01*
X227386332Y-90543075D01*
X227447411Y-90492787D01*
X227489909Y-90375551D01*
X227499917Y-90224121D01*
X227500167Y-90189438D01*
X227500167Y-88044741D01*
G37*
G36*
X227500167Y-87582390D02*
G01*
X227500167Y-87153743D01*
X227928813Y-87153743D01*
X227928813Y-87582390D01*
X227500167Y-87582390D01*
G37*
G36*
X229646329Y-88031552D02*
G01*
X229217683Y-88031552D01*
X229217683Y-87935565D01*
X229196817Y-87783452D01*
X229151737Y-87682773D01*
X229034100Y-87590839D01*
X228929720Y-87575795D01*
X228794166Y-87609501D01*
X228710635Y-87693032D01*
X228666671Y-87816863D01*
X228654947Y-87960478D01*
X228660809Y-88107756D01*
X228691584Y-88212536D01*
X228763391Y-88292404D01*
X228890886Y-88358349D01*
X229209623Y-88488042D01*
X229341874Y-88551601D01*
X229433838Y-88616270D01*
X229534399Y-88727756D01*
X229568660Y-88785530D01*
X229615017Y-88928629D01*
X229629476Y-89013408D01*
X229643103Y-89168200D01*
X229646329Y-89304302D01*
X229640162Y-89452356D01*
X229619725Y-89602061D01*
X229608960Y-89653080D01*
X229563783Y-89793741D01*
X229488060Y-89927854D01*
X229379334Y-90038149D01*
X229257983Y-90111769D01*
X229111559Y-90159628D01*
X228962258Y-90177405D01*
X228912135Y-90178447D01*
X228763208Y-90164891D01*
X228624173Y-90124225D01*
X228493028Y-90054255D01*
X228394829Y-89973283D01*
X228299362Y-89854735D01*
X228242421Y-89749068D01*
X228198398Y-89606416D01*
X228186001Y-89469898D01*
X228186001Y-89310896D01*
X228614647Y-89310896D01*
X228614647Y-89444253D01*
X228643994Y-89588343D01*
X228682791Y-89656011D01*
X228812306Y-89738718D01*
X228912135Y-89749801D01*
X229059469Y-89727370D01*
X229079197Y-89718293D01*
X229172254Y-89628900D01*
X229211088Y-89488217D01*
X229217522Y-89337405D01*
X229217683Y-89306500D01*
X229213519Y-89159927D01*
X229209623Y-89114525D01*
X229177383Y-88992892D01*
X229101912Y-88917421D01*
X228977348Y-88854406D01*
X228679127Y-88729110D01*
X228541833Y-88659545D01*
X228422049Y-88568927D01*
X228330122Y-88453049D01*
X228317892Y-88430157D01*
X228265746Y-88291035D01*
X228237124Y-88145176D01*
X228226659Y-87998119D01*
X228226301Y-87963408D01*
X228236122Y-87810330D01*
X228265585Y-87664335D01*
X228270997Y-87645404D01*
X228327784Y-87504904D01*
X228407285Y-87385286D01*
X228512386Y-87282472D01*
X228627104Y-87212362D01*
X228774016Y-87163452D01*
X228923601Y-87147404D01*
X228946573Y-87147149D01*
X229096050Y-87161803D01*
X229232337Y-87205767D01*
X229360210Y-87278802D01*
X229456552Y-87361106D01*
X229548290Y-87478732D01*
X229615008Y-87620441D01*
X229644661Y-87773741D01*
X229646329Y-87821992D01*
X229646329Y-88031552D01*
G37*
G36*
X229982651Y-90155000D02*
G01*
X229982651Y-88044741D01*
X230411298Y-88044741D01*
X230411298Y-88251371D01*
X230420090Y-88251371D01*
X230518966Y-88135079D01*
X230579825Y-88086507D01*
X230717097Y-88030465D01*
X230818695Y-88021294D01*
X230965391Y-88045059D01*
X231047306Y-88088705D01*
X231157312Y-88186275D01*
X231196782Y-88234518D01*
X231307589Y-88130488D01*
X231371172Y-88084309D01*
X231510893Y-88031694D01*
X231637152Y-88021294D01*
X231784195Y-88043560D01*
X231799818Y-88048405D01*
X231928257Y-88119193D01*
X231949295Y-88137798D01*
X232038274Y-88257027D01*
X232057739Y-88298265D01*
X232094569Y-88445106D01*
X232099504Y-88537135D01*
X232099504Y-90155000D01*
X231670858Y-90155000D01*
X231670858Y-88698335D01*
X231640770Y-88552705D01*
X231617369Y-88516618D01*
X231483109Y-88450526D01*
X231464961Y-88449940D01*
X231323514Y-88495557D01*
X231300097Y-88524678D01*
X231258936Y-88665886D01*
X231255401Y-88740101D01*
X231255401Y-90155000D01*
X230826755Y-90155000D01*
X230826755Y-88698335D01*
X230796667Y-88552705D01*
X230773265Y-88516618D01*
X230639608Y-88450526D01*
X230621591Y-88449940D01*
X230480143Y-88495557D01*
X230456727Y-88524678D01*
X230414891Y-88665886D01*
X230411298Y-88740101D01*
X230411298Y-90155000D01*
X229982651Y-90155000D01*
G37*
G36*
X233186029Y-88034509D02*
G01*
X233293119Y-88063060D01*
X233429761Y-88131295D01*
X233500481Y-88187623D01*
X233593274Y-88308066D01*
X233636036Y-88395718D01*
X233676057Y-88540062D01*
X233687327Y-88687344D01*
X233687327Y-90155000D01*
X233258681Y-90155000D01*
X233258681Y-89937379D01*
X233250621Y-89937379D01*
X233155128Y-90051290D01*
X233079895Y-90116165D01*
X232936751Y-90171087D01*
X232838094Y-90178447D01*
X232689074Y-90156442D01*
X232684221Y-90155000D01*
X232552788Y-90084394D01*
X232534745Y-90069270D01*
X232442284Y-89951667D01*
X232418241Y-89899277D01*
X232382692Y-89753347D01*
X232374277Y-89611315D01*
X232377526Y-89524853D01*
X232802923Y-89524853D01*
X232830630Y-89673302D01*
X232861542Y-89726353D01*
X232988461Y-89800585D01*
X233026406Y-89803290D01*
X233168175Y-89759015D01*
X233197131Y-89730750D01*
X233253812Y-89595434D01*
X233258681Y-89525586D01*
X233258681Y-89230296D01*
X233140711Y-89217107D01*
X232988985Y-89240614D01*
X232901842Y-89283785D01*
X232816834Y-89408864D01*
X232802923Y-89524853D01*
X232377526Y-89524853D01*
X232379887Y-89462010D01*
X232400037Y-89311984D01*
X232403586Y-89294776D01*
X232452917Y-89154771D01*
X232512763Y-89065432D01*
X232629828Y-88972067D01*
X232720125Y-88932808D01*
X232868319Y-88899836D01*
X233014895Y-88889231D01*
X233052051Y-88888845D01*
X233098946Y-88888845D01*
X233145108Y-88888845D01*
X233195666Y-88888845D01*
X233258681Y-88901301D01*
X233258681Y-88689542D01*
X233227723Y-88544651D01*
X233211786Y-88518084D01*
X233080159Y-88451604D01*
X233043991Y-88449940D01*
X232902572Y-88492667D01*
X232889385Y-88501964D01*
X232806348Y-88622946D01*
X232798527Y-88652906D01*
X232391130Y-88652906D01*
X232405156Y-88503511D01*
X232453642Y-88357366D01*
X232536761Y-88232115D01*
X232568450Y-88198614D01*
X232687862Y-88109485D01*
X232772149Y-88068921D01*
X232914962Y-88030410D01*
X233038862Y-88021294D01*
X233186029Y-88034509D01*
G37*
G36*
X234021451Y-90155000D02*
G01*
X234021451Y-88044741D01*
X234450097Y-88044741D01*
X234450097Y-88272620D01*
X234569183Y-88173820D01*
X234693724Y-88092922D01*
X234701423Y-88088705D01*
X234839542Y-88038147D01*
X234994983Y-88021360D01*
X235006238Y-88021294D01*
X235006238Y-88474853D01*
X234878743Y-88449940D01*
X234736594Y-88472655D01*
X234606592Y-88542293D01*
X234598841Y-88548859D01*
X234504772Y-88663832D01*
X234491130Y-88690275D01*
X234453343Y-88837194D01*
X234450097Y-88906430D01*
X234450097Y-90155000D01*
X234021451Y-90155000D01*
G37*
G36*
X235181360Y-88044741D02*
G01*
X235181360Y-87364769D01*
X235610007Y-87364769D01*
X235610007Y-88044741D01*
X235844480Y-88044741D01*
X235844480Y-88373004D01*
X235610007Y-88373004D01*
X235610007Y-89521922D01*
X235623196Y-89636960D01*
X235665694Y-89697777D01*
X235738234Y-89722690D01*
X235844480Y-89726353D01*
X235844480Y-90155000D01*
X235675219Y-90155000D01*
X235524431Y-90138984D01*
X235440013Y-90109570D01*
X235316276Y-90022237D01*
X235289804Y-89992334D01*
X235215982Y-89859354D01*
X235207006Y-89831866D01*
X235181986Y-89684474D01*
X235181360Y-89658210D01*
X235181360Y-88373004D01*
X234953482Y-88373004D01*
X234953482Y-88044741D01*
X235181360Y-88044741D01*
G37*
G36*
X237410321Y-88031552D02*
G01*
X236981674Y-88031552D01*
X236981674Y-87935565D01*
X236960809Y-87783452D01*
X236915729Y-87682773D01*
X236798091Y-87590839D01*
X236693712Y-87575795D01*
X236558157Y-87609501D01*
X236474626Y-87693032D01*
X236430662Y-87816863D01*
X236418939Y-87960478D01*
X236424801Y-88107756D01*
X236455575Y-88212536D01*
X236527383Y-88292404D01*
X236654877Y-88358349D01*
X236973614Y-88488042D01*
X237105866Y-88551601D01*
X237197829Y-88616270D01*
X237298391Y-88727756D01*
X237332651Y-88785530D01*
X237379009Y-88928629D01*
X237393468Y-89013408D01*
X237407095Y-89168200D01*
X237410321Y-89304302D01*
X237404153Y-89452356D01*
X237383717Y-89602061D01*
X237372951Y-89653080D01*
X237327775Y-89793741D01*
X237252051Y-89927854D01*
X237143325Y-90038149D01*
X237021974Y-90111769D01*
X236875550Y-90159628D01*
X236726250Y-90177405D01*
X236676127Y-90178447D01*
X236527199Y-90164891D01*
X236388164Y-90124225D01*
X236257019Y-90054255D01*
X236158820Y-89973283D01*
X236063354Y-89854735D01*
X236006413Y-89749068D01*
X235962390Y-89606416D01*
X235949993Y-89469898D01*
X235949993Y-89310896D01*
X236378639Y-89310896D01*
X236378639Y-89444253D01*
X236407986Y-89588343D01*
X236446782Y-89656011D01*
X236576297Y-89738718D01*
X236676127Y-89749801D01*
X236823461Y-89727370D01*
X236843189Y-89718293D01*
X236936245Y-89628900D01*
X236975080Y-89488217D01*
X236981513Y-89337405D01*
X236981674Y-89306500D01*
X236977511Y-89159927D01*
X236973614Y-89114525D01*
X236941374Y-88992892D01*
X236865903Y-88917421D01*
X236741339Y-88854406D01*
X236443119Y-88729110D01*
X236305825Y-88659545D01*
X236186041Y-88568927D01*
X236094114Y-88453049D01*
X236081884Y-88430157D01*
X236029738Y-88291035D01*
X236001115Y-88145176D01*
X235990650Y-87998119D01*
X235990293Y-87963408D01*
X236000114Y-87810330D01*
X236029577Y-87664335D01*
X236034989Y-87645404D01*
X236091776Y-87504904D01*
X236171277Y-87385286D01*
X236276377Y-87282472D01*
X236391095Y-87212362D01*
X236538007Y-87163452D01*
X236687593Y-87147404D01*
X236710565Y-87147149D01*
X236860041Y-87161803D01*
X236996329Y-87205767D01*
X237124201Y-87278802D01*
X237220544Y-87361106D01*
X237312282Y-87478732D01*
X237379000Y-87620441D01*
X237408653Y-87773741D01*
X237410321Y-87821992D01*
X237410321Y-88031552D01*
G37*
G36*
X239982198Y-87153743D02*
G01*
X239537431Y-90155000D01*
X239133698Y-90155000D01*
X238806168Y-88207407D01*
X238798108Y-88207407D01*
X238474975Y-90155000D01*
X238071242Y-90155000D01*
X237626475Y-87153743D01*
X238080034Y-87153743D01*
X238293991Y-89058838D01*
X238302784Y-89058838D01*
X238638374Y-87153743D01*
X238965903Y-87153743D01*
X239314682Y-89105732D01*
X239322742Y-89105732D01*
X239528639Y-87153743D01*
X239982198Y-87153743D01*
G37*
G36*
X171107544Y-118925000D02*
G01*
X171107544Y-115923743D01*
X171536190Y-115923743D01*
X171536190Y-117236793D01*
X172045437Y-117236793D01*
X172045437Y-115923743D01*
X172474083Y-115923743D01*
X172474083Y-118925000D01*
X172045437Y-118925000D01*
X172045437Y-117611950D01*
X171536190Y-117611950D01*
X171536190Y-118925000D01*
X171107544Y-118925000D01*
G37*
G36*
X173671774Y-115933421D02*
G01*
X173823392Y-115968179D01*
X173967796Y-116037500D01*
X174072896Y-116125976D01*
X174164280Y-116253063D01*
X174225756Y-116406812D01*
X174255294Y-116565860D01*
X174261940Y-116698970D01*
X174261940Y-118102878D01*
X174254882Y-118253342D01*
X174228806Y-118409154D01*
X174175477Y-118561206D01*
X174097052Y-118685507D01*
X174061173Y-118724965D01*
X173934273Y-118821661D01*
X173798019Y-118881047D01*
X173639693Y-118915428D01*
X173483050Y-118925000D01*
X172895402Y-118925000D01*
X172895402Y-118496353D01*
X173324048Y-118496353D01*
X173513825Y-118496353D01*
X173662752Y-118474188D01*
X173760754Y-118407693D01*
X173821322Y-118266762D01*
X173833294Y-118129256D01*
X173833294Y-116715090D01*
X173816075Y-116561767D01*
X173764418Y-116447644D01*
X173634244Y-116365785D01*
X173513825Y-116352390D01*
X173324048Y-116352390D01*
X173324048Y-118496353D01*
X172895402Y-118496353D01*
X172895402Y-115923743D01*
X173521152Y-115923743D01*
X173671774Y-115933421D01*
G37*
G36*
X175152206Y-118925000D02*
G01*
X175152206Y-116378768D01*
X174730154Y-116695307D01*
X174730154Y-116239549D01*
X175152206Y-115923743D01*
X175580852Y-115923743D01*
X175580852Y-118925000D01*
X175152206Y-118925000D01*
G37*
G36*
X177471291Y-115923743D02*
G01*
X177471291Y-116352390D01*
X176620594Y-116352390D01*
X176620594Y-117140073D01*
X176743507Y-117054717D01*
X176771536Y-117041887D01*
X176916282Y-117005450D01*
X176978898Y-117002320D01*
X177131569Y-117020970D01*
X177270683Y-117083267D01*
X177334271Y-117134944D01*
X177422986Y-117264114D01*
X177462728Y-117407793D01*
X177471291Y-117532083D01*
X177471291Y-118305844D01*
X177456402Y-118456914D01*
X177418535Y-118574755D01*
X177344358Y-118702349D01*
X177279317Y-118776256D01*
X177158187Y-118865843D01*
X177075618Y-118904483D01*
X176927813Y-118942264D01*
X176835283Y-118948447D01*
X176689498Y-118932948D01*
X176594215Y-118904483D01*
X176461008Y-118833786D01*
X176391250Y-118776256D01*
X176295079Y-118657760D01*
X176250566Y-118574023D01*
X176208500Y-118430874D01*
X176198542Y-118305111D01*
X176198542Y-118178349D01*
X176620594Y-118178349D01*
X176620594Y-118288258D01*
X176657713Y-118430028D01*
X176681410Y-118458984D01*
X176816610Y-118518850D01*
X176840412Y-118519801D01*
X176978884Y-118471658D01*
X176989156Y-118461182D01*
X177041809Y-118322136D01*
X177042645Y-118296318D01*
X177042645Y-117592899D01*
X176995706Y-117452539D01*
X176985492Y-117440491D01*
X176852013Y-117377723D01*
X176841145Y-117377477D01*
X176748088Y-117397260D01*
X176685806Y-117441957D01*
X176647705Y-117499110D01*
X176623524Y-117537944D01*
X176245437Y-117537944D01*
X176245437Y-115923743D01*
X177471291Y-115923743D01*
G37*
G36*
X102292062Y-115897654D02*
G01*
X102446554Y-115939385D01*
X102577277Y-116008937D01*
X102707258Y-116135000D01*
X102784503Y-116267149D01*
X102837981Y-116427118D01*
X102867691Y-116614908D01*
X102874375Y-116774009D01*
X102866361Y-116933363D01*
X102839033Y-117090635D01*
X102792310Y-117229033D01*
X102713347Y-117359516D01*
X102599556Y-117469597D01*
X102504348Y-117531650D01*
X102966699Y-118885000D01*
X102513140Y-118885000D01*
X102109407Y-117618845D01*
X101849288Y-117618845D01*
X101849288Y-118885000D01*
X101420642Y-118885000D01*
X101420642Y-117243688D01*
X101849288Y-117243688D01*
X102096218Y-117243688D01*
X102242397Y-117225965D01*
X102279400Y-117212180D01*
X102386378Y-117122055D01*
X102432540Y-116977707D01*
X102445098Y-116826063D01*
X102445729Y-116777672D01*
X102438916Y-116629470D01*
X102432540Y-116579103D01*
X102386644Y-116438239D01*
X102381982Y-116430359D01*
X102264745Y-116341882D01*
X102116617Y-116313426D01*
X102075701Y-116312390D01*
X101849288Y-116312390D01*
X101849288Y-117243688D01*
X101420642Y-117243688D01*
X101420642Y-115883743D01*
X102113803Y-115883743D01*
X102292062Y-115897654D01*
G37*
G36*
X103453964Y-118885000D02*
G01*
X103453964Y-116312390D01*
X102944717Y-116312390D01*
X102944717Y-115883743D01*
X104351556Y-115883743D01*
X104351556Y-116312390D01*
X103882610Y-116312390D01*
X103882610Y-118885000D01*
X103453964Y-118885000D01*
G37*
G36*
X105227900Y-118885000D02*
G01*
X105227900Y-118469542D01*
X104383796Y-118469542D01*
X104383796Y-118040896D01*
X104994892Y-115883743D01*
X105446253Y-115883743D01*
X104808046Y-118040896D01*
X105227900Y-118040896D01*
X105227900Y-117196793D01*
X105656546Y-117196793D01*
X105656546Y-118040896D01*
X105884424Y-118040896D01*
X105884424Y-118469542D01*
X105656546Y-118469542D01*
X105656546Y-118885000D01*
X105227900Y-118885000D01*
G37*
G36*
X106086657Y-118885000D02*
G01*
X106086657Y-115883743D01*
X106515304Y-115883743D01*
X106515304Y-117253946D01*
X106523364Y-117253946D01*
X107149114Y-115883743D01*
X107577760Y-115883743D01*
X106993775Y-117085418D01*
X107686936Y-118885000D01*
X107233378Y-118885000D01*
X106746113Y-117552899D01*
X106515304Y-117987407D01*
X106515304Y-118885000D01*
X106086657Y-118885000D01*
G37*
G36*
X194562045Y-116801552D02*
G01*
X194133399Y-116801552D01*
X194133399Y-116705565D01*
X194112533Y-116553452D01*
X194067453Y-116452773D01*
X193949816Y-116360839D01*
X193845436Y-116345795D01*
X193709881Y-116379501D01*
X193626350Y-116463032D01*
X193582387Y-116586863D01*
X193570663Y-116730478D01*
X193576525Y-116877756D01*
X193607299Y-116982536D01*
X193679107Y-117062404D01*
X193806602Y-117128349D01*
X194125339Y-117258042D01*
X194257590Y-117321601D01*
X194349553Y-117386270D01*
X194450115Y-117497756D01*
X194484376Y-117555530D01*
X194530733Y-117698629D01*
X194545192Y-117783408D01*
X194558819Y-117938200D01*
X194562045Y-118074302D01*
X194555877Y-118222356D01*
X194535441Y-118372061D01*
X194524676Y-118423080D01*
X194479499Y-118563741D01*
X194403775Y-118697854D01*
X194295050Y-118808149D01*
X194173699Y-118881769D01*
X194027275Y-118929628D01*
X193877974Y-118947405D01*
X193827851Y-118948447D01*
X193678924Y-118934891D01*
X193539888Y-118894225D01*
X193408744Y-118824255D01*
X193310544Y-118743283D01*
X193215078Y-118624735D01*
X193158137Y-118519068D01*
X193114114Y-118376416D01*
X193101717Y-118239898D01*
X193101717Y-118080896D01*
X193530363Y-118080896D01*
X193530363Y-118214253D01*
X193559710Y-118358343D01*
X193598507Y-118426011D01*
X193728021Y-118508718D01*
X193827851Y-118519801D01*
X193975185Y-118497370D01*
X193994913Y-118488293D01*
X194087969Y-118398900D01*
X194126804Y-118258217D01*
X194133238Y-118107405D01*
X194133399Y-118076500D01*
X194129235Y-117929927D01*
X194125339Y-117884525D01*
X194093098Y-117762892D01*
X194017627Y-117687421D01*
X193893064Y-117624406D01*
X193594843Y-117499110D01*
X193457549Y-117429545D01*
X193337765Y-117338927D01*
X193245838Y-117223049D01*
X193233608Y-117200157D01*
X193181462Y-117061035D01*
X193152840Y-116915176D01*
X193142375Y-116768119D01*
X193142017Y-116733408D01*
X193151838Y-116580330D01*
X193181301Y-116434335D01*
X193186713Y-116415404D01*
X193243500Y-116274904D01*
X193323001Y-116155286D01*
X193428102Y-116052472D01*
X193542819Y-115982362D01*
X193689731Y-115933452D01*
X193839317Y-115917404D01*
X193862289Y-115917149D01*
X194011766Y-115931803D01*
X194148053Y-115975767D01*
X194275926Y-116048802D01*
X194372268Y-116131106D01*
X194464006Y-116248732D01*
X194530724Y-116390441D01*
X194560377Y-116543741D01*
X194562045Y-116591992D01*
X194562045Y-116801552D01*
G37*
G36*
X196264906Y-118072103D02*
G01*
X196264906Y-118256751D01*
X196248445Y-118407911D01*
X196212882Y-118519068D01*
X196142660Y-118649800D01*
X196070733Y-118739619D01*
X195957956Y-118835086D01*
X195856776Y-118892027D01*
X195713911Y-118937648D01*
X195594459Y-118948447D01*
X195442189Y-118935567D01*
X195349728Y-118915474D01*
X195211203Y-118857883D01*
X195126246Y-118798237D01*
X195025267Y-118688603D01*
X194962115Y-118582815D01*
X194916358Y-118442906D01*
X194899363Y-118295345D01*
X194898367Y-118245027D01*
X194898367Y-116603715D01*
X194912222Y-116454008D01*
X194947460Y-116331873D01*
X195016497Y-116200987D01*
X195088144Y-116114253D01*
X195209661Y-116018826D01*
X195306497Y-115969905D01*
X195448055Y-115928741D01*
X195585667Y-115917149D01*
X195744606Y-115932740D01*
X195885925Y-115979514D01*
X196022281Y-116068057D01*
X196070733Y-116114253D01*
X196160429Y-116234191D01*
X196212882Y-116342864D01*
X196253475Y-116489251D01*
X196264906Y-116630094D01*
X196264906Y-116797156D01*
X195836260Y-116797156D01*
X195836260Y-116655006D01*
X195806597Y-116505070D01*
X195767383Y-116438119D01*
X195644065Y-116353098D01*
X195582003Y-116345795D01*
X195435701Y-116380409D01*
X195377572Y-116443981D01*
X195334123Y-116587321D01*
X195327013Y-116693108D01*
X195327013Y-118214253D01*
X195348194Y-118360054D01*
X195381235Y-118431873D01*
X195504899Y-118512845D01*
X195577606Y-118519801D01*
X195664068Y-118505146D01*
X195751263Y-118456786D01*
X195812080Y-118365195D01*
X195836260Y-118218649D01*
X195836260Y-118072103D01*
X196264906Y-118072103D01*
G37*
G36*
X198120175Y-118925000D02*
G01*
X197692261Y-118925000D01*
X197566232Y-118268475D01*
X196982247Y-118268475D01*
X196856218Y-118925000D01*
X196427572Y-118925000D01*
X196669192Y-117839829D01*
X197057718Y-117839829D01*
X197486364Y-117839829D01*
X197276071Y-116772243D01*
X197268011Y-116772243D01*
X197057718Y-117839829D01*
X196669192Y-117839829D01*
X197095820Y-115923743D01*
X197452659Y-115923743D01*
X198120175Y-118925000D01*
G37*
G36*
X199187233Y-115937654D02*
G01*
X199341725Y-115979385D01*
X199472448Y-116048937D01*
X199602429Y-116175000D01*
X199679674Y-116307149D01*
X199733152Y-116467118D01*
X199762862Y-116654908D01*
X199769546Y-116814009D01*
X199761532Y-116973363D01*
X199734204Y-117130635D01*
X199687481Y-117269033D01*
X199608518Y-117399516D01*
X199494727Y-117509597D01*
X199399519Y-117571650D01*
X199861870Y-118925000D01*
X199408311Y-118925000D01*
X199004578Y-117658845D01*
X198744459Y-117658845D01*
X198744459Y-118925000D01*
X198315813Y-118925000D01*
X198315813Y-117283688D01*
X198744459Y-117283688D01*
X198991389Y-117283688D01*
X199137568Y-117265965D01*
X199174571Y-117252180D01*
X199281549Y-117162055D01*
X199327711Y-117017707D01*
X199340269Y-116866063D01*
X199340900Y-116817672D01*
X199334087Y-116669470D01*
X199327711Y-116619103D01*
X199281815Y-116478239D01*
X199277153Y-116470359D01*
X199159916Y-116381882D01*
X199011788Y-116353426D01*
X198970872Y-116352390D01*
X198744459Y-116352390D01*
X198744459Y-117283688D01*
X198315813Y-117283688D01*
X198315813Y-115923743D01*
X199008974Y-115923743D01*
X199187233Y-115937654D01*
G37*
G36*
X200349135Y-118925000D02*
G01*
X200349135Y-116352390D01*
X199839888Y-116352390D01*
X199839888Y-115923743D01*
X201246727Y-115923743D01*
X201246727Y-116352390D01*
X200777781Y-116352390D01*
X200777781Y-118925000D01*
X200349135Y-118925000D01*
G37*
G36*
X148097809Y-118925000D02*
G01*
X148097809Y-116378768D01*
X147675758Y-116695307D01*
X147675758Y-116239549D01*
X148097809Y-115923743D01*
X148526455Y-115923743D01*
X148526455Y-118925000D01*
X148097809Y-118925000D01*
G37*
G36*
X149933500Y-115934322D02*
G01*
X150021222Y-115961113D01*
X150154716Y-116031523D01*
X150224920Y-116088607D01*
X150320175Y-116206817D01*
X150364139Y-116290108D01*
X150406797Y-116432432D01*
X150416895Y-116557554D01*
X150416895Y-118308775D01*
X150402006Y-118459066D01*
X150364139Y-118576221D01*
X150289961Y-118703203D01*
X150224920Y-118776988D01*
X150103791Y-118865946D01*
X150021222Y-118904483D01*
X149873417Y-118942264D01*
X149780887Y-118948447D01*
X149635102Y-118932948D01*
X149539819Y-118904483D01*
X149406611Y-118834072D01*
X149336853Y-118776988D01*
X149240683Y-118659065D01*
X149196169Y-118576221D01*
X149154103Y-118433897D01*
X149144146Y-118308775D01*
X149144146Y-116559019D01*
X149572792Y-116559019D01*
X149572792Y-118307309D01*
X149620333Y-118448043D01*
X149630677Y-118459717D01*
X149768837Y-118519566D01*
X149780154Y-118519801D01*
X149918481Y-118470454D01*
X149929631Y-118459717D01*
X149987734Y-118324212D01*
X149988249Y-118307309D01*
X149988249Y-116559019D01*
X149940106Y-116418285D01*
X149929631Y-116406612D01*
X149791471Y-116346033D01*
X149780154Y-116345795D01*
X149641827Y-116395743D01*
X149630677Y-116406612D01*
X149573301Y-116542116D01*
X149572792Y-116559019D01*
X149144146Y-116559019D01*
X149144146Y-116557554D01*
X149158828Y-116407262D01*
X149196169Y-116290108D01*
X149271217Y-116162513D01*
X149336853Y-116088607D01*
X149457353Y-115999649D01*
X149539819Y-115961113D01*
X149687910Y-115923331D01*
X149780887Y-115917149D01*
X149933500Y-115934322D01*
G37*
G36*
X151492772Y-115934313D02*
G01*
X151614906Y-115977965D01*
X151743243Y-116061453D01*
X151824467Y-116147226D01*
X151895541Y-116251273D01*
X151946100Y-116364113D01*
X151972478Y-116512124D01*
X151978660Y-116660914D01*
X151979072Y-116719487D01*
X151979072Y-116870497D01*
X151979072Y-116945167D01*
X151961019Y-117094326D01*
X151957091Y-117107833D01*
X151889679Y-117235327D01*
X151785495Y-117338551D01*
X151766581Y-117354030D01*
X151874696Y-117453469D01*
X151889679Y-117471999D01*
X151955738Y-117604826D01*
X151957091Y-117609752D01*
X151978020Y-117756458D01*
X151979072Y-117805390D01*
X151979072Y-117960951D01*
X151979072Y-118088224D01*
X151979072Y-118236238D01*
X151979072Y-118317568D01*
X151968124Y-118465859D01*
X151966616Y-118474371D01*
X151929980Y-118587944D01*
X151872827Y-118684665D01*
X151771616Y-118796927D01*
X151666930Y-118870778D01*
X151530080Y-118926526D01*
X151378531Y-118947764D01*
X151343064Y-118948447D01*
X151196405Y-118935628D01*
X151051827Y-118888981D01*
X151017733Y-118870778D01*
X150894142Y-118779569D01*
X150812569Y-118684665D01*
X150755416Y-118587944D01*
X150718779Y-118474371D01*
X150706335Y-118323133D01*
X150706323Y-118317568D01*
X150706323Y-118170441D01*
X150706323Y-118088224D01*
X150706323Y-117933984D01*
X150706323Y-117805390D01*
X150712344Y-117726988D01*
X151134969Y-117726988D01*
X151134969Y-118310973D01*
X151189709Y-118452009D01*
X151197251Y-118459717D01*
X151332062Y-118519566D01*
X151342331Y-118519801D01*
X151480276Y-118466993D01*
X151488144Y-118459717D01*
X151550183Y-118321858D01*
X151550426Y-118310973D01*
X151550426Y-117726988D01*
X151495686Y-117586596D01*
X151488144Y-117578977D01*
X151352690Y-117518398D01*
X151342331Y-117518161D01*
X151205116Y-117571613D01*
X151197251Y-117578977D01*
X151135212Y-117716106D01*
X151134969Y-117726988D01*
X150712344Y-117726988D01*
X150717679Y-117657517D01*
X150728305Y-117609752D01*
X150792899Y-117475682D01*
X150795716Y-117471999D01*
X150899901Y-117368696D01*
X150918814Y-117354030D01*
X150810699Y-117253102D01*
X150795716Y-117235327D01*
X150728305Y-117107833D01*
X150706516Y-116962160D01*
X150706323Y-116945167D01*
X150706323Y-116791550D01*
X150706323Y-116719487D01*
X150710132Y-116569211D01*
X150711382Y-116552424D01*
X151134969Y-116552424D01*
X151134969Y-116983269D01*
X151189709Y-117122931D01*
X151197251Y-117130547D01*
X151332062Y-117189666D01*
X151342331Y-117189898D01*
X151480276Y-117137734D01*
X151488144Y-117130547D01*
X151550183Y-116994062D01*
X151550426Y-116983269D01*
X151550426Y-116552424D01*
X151495686Y-116413492D01*
X151488144Y-116405879D01*
X151352690Y-116346030D01*
X151342331Y-116345795D01*
X151205116Y-116398603D01*
X151197251Y-116405879D01*
X151135212Y-116541720D01*
X151134969Y-116552424D01*
X150711382Y-116552424D01*
X150714383Y-116512124D01*
X150742421Y-116368029D01*
X150743692Y-116364113D01*
X150792052Y-116251273D01*
X150860929Y-116147226D01*
X150968708Y-116040296D01*
X151070489Y-115977965D01*
X151210185Y-115930512D01*
X151343064Y-115917149D01*
X151492772Y-115934313D01*
G37*
G36*
X153057855Y-115934322D02*
G01*
X153145576Y-115961113D01*
X153279070Y-116031523D01*
X153349275Y-116088607D01*
X153444529Y-116206817D01*
X153488493Y-116290108D01*
X153531152Y-116432432D01*
X153541250Y-116557554D01*
X153541250Y-118308775D01*
X153526360Y-118459066D01*
X153488493Y-118576221D01*
X153414316Y-118703203D01*
X153349275Y-118776988D01*
X153228146Y-118865946D01*
X153145576Y-118904483D01*
X152997771Y-118942264D01*
X152905241Y-118948447D01*
X152759456Y-118932948D01*
X152664174Y-118904483D01*
X152530966Y-118834072D01*
X152461208Y-118776988D01*
X152365037Y-118659065D01*
X152320524Y-118576221D01*
X152278458Y-118433897D01*
X152268500Y-118308775D01*
X152268500Y-116559019D01*
X152697146Y-116559019D01*
X152697146Y-118307309D01*
X152744687Y-118448043D01*
X152755032Y-118459717D01*
X152893191Y-118519566D01*
X152904509Y-118519801D01*
X153042835Y-118470454D01*
X153053985Y-118459717D01*
X153112088Y-118324212D01*
X153112603Y-118307309D01*
X153112603Y-116559019D01*
X153064461Y-116418285D01*
X153053985Y-116406612D01*
X152915826Y-116346033D01*
X152904509Y-116345795D01*
X152766182Y-116395743D01*
X152755032Y-116406612D01*
X152697655Y-116542116D01*
X152697146Y-116559019D01*
X152268500Y-116559019D01*
X152268500Y-116557554D01*
X152283183Y-116407262D01*
X152320524Y-116290108D01*
X152395571Y-116162513D01*
X152461208Y-116088607D01*
X152581707Y-115999649D01*
X152664174Y-115961113D01*
X152812265Y-115923331D01*
X152905241Y-115917149D01*
X153057855Y-115934322D01*
G37*
G36*
X154676398Y-115932719D02*
G01*
X154825462Y-115964959D01*
X154842575Y-115970638D01*
X154980143Y-116040158D01*
X155089505Y-116135502D01*
X155178098Y-116255114D01*
X155236423Y-116392758D01*
X155241913Y-116412473D01*
X155269429Y-116559569D01*
X155281755Y-116712938D01*
X155284411Y-116841120D01*
X155280541Y-116995629D01*
X155266459Y-117148064D01*
X155260963Y-117184036D01*
X155220955Y-117327200D01*
X155160580Y-117445621D01*
X155070861Y-117563149D01*
X154949209Y-117661059D01*
X154921710Y-117677163D01*
X154784661Y-117730297D01*
X154630461Y-117755301D01*
X154528235Y-117759228D01*
X154306218Y-117759228D01*
X154306218Y-118925000D01*
X153877572Y-118925000D01*
X153877572Y-117330582D01*
X154306218Y-117330582D01*
X154513580Y-117330582D01*
X154659519Y-117315120D01*
X154715813Y-117294678D01*
X154822059Y-117193562D01*
X154855732Y-117049599D01*
X154855765Y-117044085D01*
X154855765Y-116892781D01*
X154855765Y-116846249D01*
X154855765Y-116699657D01*
X154855765Y-116653541D01*
X154828083Y-116506914D01*
X154822059Y-116493806D01*
X154720943Y-116389026D01*
X154573893Y-116353678D01*
X154528968Y-116352390D01*
X154306218Y-116352390D01*
X154306218Y-117330582D01*
X153877572Y-117330582D01*
X153877572Y-115923743D01*
X154528235Y-115923743D01*
X154676398Y-115932719D01*
G37*
D16*
G36*
X134358288Y-116478436D02*
G01*
X134461282Y-116506256D01*
X134548431Y-116552624D01*
X134635085Y-116636666D01*
X134686582Y-116724766D01*
X134722233Y-116831412D01*
X134742040Y-116956605D01*
X134746496Y-117062672D01*
X134741154Y-117168908D01*
X134722935Y-117273757D01*
X134691786Y-117366022D01*
X134639144Y-117453010D01*
X134563284Y-117526398D01*
X134499811Y-117567766D01*
X134808046Y-118470000D01*
X134505673Y-118470000D01*
X134236517Y-117625896D01*
X134063105Y-117625896D01*
X134063105Y-118470000D01*
X133777341Y-118470000D01*
X133777341Y-117375792D01*
X134063105Y-117375792D01*
X134227725Y-117375792D01*
X134325178Y-117363976D01*
X134349846Y-117354787D01*
X134421165Y-117294703D01*
X134451940Y-117198471D01*
X134460312Y-117097375D01*
X134460732Y-117065115D01*
X134456190Y-116966313D01*
X134451940Y-116932735D01*
X134421342Y-116838826D01*
X134418234Y-116833572D01*
X134340076Y-116774588D01*
X134241324Y-116755617D01*
X134214047Y-116754926D01*
X134063105Y-116754926D01*
X134063105Y-117375792D01*
X133777341Y-117375792D01*
X133777341Y-116469162D01*
X134239448Y-116469162D01*
X134358288Y-116478436D01*
G37*
G36*
X134969246Y-118470000D02*
G01*
X134969246Y-116469162D01*
X135813349Y-116469162D01*
X135813349Y-116754926D01*
X135255010Y-116754926D01*
X135255010Y-117308869D01*
X135750823Y-117308869D01*
X135750823Y-117594633D01*
X135255010Y-117594633D01*
X135255010Y-118184235D01*
X135813349Y-118184235D01*
X135813349Y-118470000D01*
X134969246Y-118470000D01*
G37*
G36*
X136915861Y-117054368D02*
G01*
X136630097Y-117054368D01*
X136630097Y-116990376D01*
X136616187Y-116888968D01*
X136586134Y-116821849D01*
X136507709Y-116760559D01*
X136438122Y-116750530D01*
X136347753Y-116773000D01*
X136292065Y-116828688D01*
X136262756Y-116911242D01*
X136254940Y-117006985D01*
X136258848Y-117105170D01*
X136279365Y-117175024D01*
X136327236Y-117228269D01*
X136412233Y-117272233D01*
X136624724Y-117358695D01*
X136712892Y-117401067D01*
X136774201Y-117444180D01*
X136841241Y-117518504D01*
X136864082Y-117557020D01*
X136894987Y-117652419D01*
X136904626Y-117708939D01*
X136913711Y-117812133D01*
X136915861Y-117902868D01*
X136911750Y-118001570D01*
X136898126Y-118101374D01*
X136890949Y-118135387D01*
X136860831Y-118229160D01*
X136810349Y-118318569D01*
X136737865Y-118392099D01*
X136656964Y-118441179D01*
X136559348Y-118473085D01*
X136459814Y-118484936D01*
X136426399Y-118485631D01*
X136327114Y-118476594D01*
X136234424Y-118449483D01*
X136146994Y-118402837D01*
X136081528Y-118348855D01*
X136017884Y-118269823D01*
X135979923Y-118199378D01*
X135950574Y-118104277D01*
X135942309Y-118013265D01*
X135942309Y-117907264D01*
X136228074Y-117907264D01*
X136228074Y-117996168D01*
X136247638Y-118092229D01*
X136273503Y-118137341D01*
X136359846Y-118192479D01*
X136426399Y-118199867D01*
X136524622Y-118184913D01*
X136537773Y-118178862D01*
X136599811Y-118119267D01*
X136625701Y-118025478D01*
X136629990Y-117924936D01*
X136630097Y-117904333D01*
X136627321Y-117806618D01*
X136624724Y-117776350D01*
X136603231Y-117695261D01*
X136552917Y-117644947D01*
X136469874Y-117602937D01*
X136271060Y-117519406D01*
X136179531Y-117473030D01*
X136099675Y-117412618D01*
X136038390Y-117335366D01*
X136030237Y-117320104D01*
X135995473Y-117227356D01*
X135976391Y-117130117D01*
X135969415Y-117032079D01*
X135969176Y-117008939D01*
X135975723Y-116906886D01*
X135995365Y-116809556D01*
X135998974Y-116796936D01*
X136036831Y-116703269D01*
X136089832Y-116623524D01*
X136159899Y-116554981D01*
X136236378Y-116508241D01*
X136334319Y-116475635D01*
X136434043Y-116464936D01*
X136449358Y-116464766D01*
X136549009Y-116474535D01*
X136639867Y-116503845D01*
X136725115Y-116552535D01*
X136789344Y-116607404D01*
X136850502Y-116685821D01*
X136894981Y-116780294D01*
X136914749Y-116882494D01*
X136915861Y-116914661D01*
X136915861Y-117054368D01*
G37*
G36*
X137722954Y-116474503D02*
G01*
X137798555Y-116495540D01*
X137891033Y-116538731D01*
X137956336Y-116584933D01*
X138021310Y-116658633D01*
X138066734Y-116738318D01*
X138098607Y-116837602D01*
X138109066Y-116935897D01*
X138109232Y-116950809D01*
X138109232Y-118000076D01*
X138101098Y-118103006D01*
X138074329Y-118197931D01*
X138066734Y-118215010D01*
X138014410Y-118301304D01*
X137956336Y-118363021D01*
X137876286Y-118419732D01*
X137798555Y-118455345D01*
X137701217Y-118479834D01*
X137624654Y-118485631D01*
X137526199Y-118476048D01*
X137450265Y-118455345D01*
X137359109Y-118410986D01*
X137295903Y-118363021D01*
X137228642Y-118292054D01*
X137182575Y-118215010D01*
X137150701Y-118116580D01*
X137140242Y-118015628D01*
X137140076Y-118000076D01*
X137140076Y-116951786D01*
X137425840Y-116951786D01*
X137425840Y-117999099D01*
X137444542Y-118097897D01*
X137484947Y-118151018D01*
X137576609Y-118195097D01*
X137625143Y-118199867D01*
X137721243Y-118178830D01*
X137764361Y-118151018D01*
X137816484Y-118063553D01*
X137823468Y-117999099D01*
X137823468Y-116951786D01*
X137804766Y-116852593D01*
X137764361Y-116799378D01*
X137673161Y-116755300D01*
X137625143Y-116750530D01*
X137528181Y-116771567D01*
X137484947Y-116799378D01*
X137432825Y-116887054D01*
X137425840Y-116951786D01*
X137140076Y-116951786D01*
X137140076Y-116950809D01*
X137148211Y-116850992D01*
X137174980Y-116755873D01*
X137182575Y-116738318D01*
X137232156Y-116653810D01*
X137295903Y-116584933D01*
X137378404Y-116527557D01*
X137450265Y-116495540D01*
X137547998Y-116470656D01*
X137624654Y-116464766D01*
X137722954Y-116474503D01*
G37*
G36*
X138331981Y-118470000D02*
G01*
X138331981Y-116469162D01*
X138617746Y-116469162D01*
X138617746Y-118184235D01*
X139176085Y-118184235D01*
X139176085Y-118470000D01*
X138331981Y-118470000D01*
G37*
G36*
X140278597Y-116469162D02*
G01*
X140278597Y-118019616D01*
X140268809Y-118119664D01*
X140243914Y-118200844D01*
X140195932Y-118287999D01*
X140146217Y-118347878D01*
X140068594Y-118412003D01*
X139999672Y-118449483D01*
X139903243Y-118478712D01*
X139823328Y-118485631D01*
X139721284Y-118474194D01*
X139647473Y-118449483D01*
X139561813Y-118399303D01*
X139502882Y-118347878D01*
X139440096Y-118269619D01*
X139403231Y-118200844D01*
X139374397Y-118102630D01*
X139367571Y-118019616D01*
X139367571Y-116469162D01*
X139653335Y-116469162D01*
X139653335Y-117992260D01*
X139666984Y-118089690D01*
X139701695Y-118149553D01*
X139787974Y-118196722D01*
X139822840Y-118199867D01*
X139918736Y-118171565D01*
X139944473Y-118149553D01*
X139987118Y-118058892D01*
X139992833Y-117992260D01*
X139992833Y-116469162D01*
X140278597Y-116469162D01*
G37*
G36*
X140773921Y-118470000D02*
G01*
X140773921Y-116754926D01*
X140434424Y-116754926D01*
X140434424Y-116469162D01*
X141372316Y-116469162D01*
X141372316Y-116754926D01*
X141059686Y-116754926D01*
X141059686Y-118470000D01*
X140773921Y-118470000D01*
G37*
G36*
X141518862Y-118470000D02*
G01*
X141518862Y-116469162D01*
X141804626Y-116469162D01*
X141804626Y-118470000D01*
X141518862Y-118470000D01*
G37*
G36*
X142641028Y-116474503D02*
G01*
X142716629Y-116495540D01*
X142809107Y-116538731D01*
X142874410Y-116584933D01*
X142939384Y-116658633D01*
X142984808Y-116738318D01*
X143016681Y-116837602D01*
X143027140Y-116935897D01*
X143027306Y-116950809D01*
X143027306Y-118000076D01*
X143019172Y-118103006D01*
X142992403Y-118197931D01*
X142984808Y-118215010D01*
X142932484Y-118301304D01*
X142874410Y-118363021D01*
X142794360Y-118419732D01*
X142716629Y-118455345D01*
X142619291Y-118479834D01*
X142542728Y-118485631D01*
X142444273Y-118476048D01*
X142368339Y-118455345D01*
X142277183Y-118410986D01*
X142213977Y-118363021D01*
X142146716Y-118292054D01*
X142100649Y-118215010D01*
X142068775Y-118116580D01*
X142058316Y-118015628D01*
X142058150Y-118000076D01*
X142058150Y-116951786D01*
X142343914Y-116951786D01*
X142343914Y-117999099D01*
X142362616Y-118097897D01*
X142403021Y-118151018D01*
X142494683Y-118195097D01*
X142543217Y-118199867D01*
X142639317Y-118178830D01*
X142682435Y-118151018D01*
X142734558Y-118063553D01*
X142741542Y-117999099D01*
X142741542Y-116951786D01*
X142722840Y-116852593D01*
X142682435Y-116799378D01*
X142591235Y-116755300D01*
X142543217Y-116750530D01*
X142446255Y-116771567D01*
X142403021Y-116799378D01*
X142350899Y-116887054D01*
X142343914Y-116951786D01*
X142058150Y-116951786D01*
X142058150Y-116950809D01*
X142066285Y-116850992D01*
X142093054Y-116755873D01*
X142100649Y-116738318D01*
X142150230Y-116653810D01*
X142213977Y-116584933D01*
X142296478Y-116527557D01*
X142368339Y-116495540D01*
X142466072Y-116470656D01*
X142542728Y-116464766D01*
X142641028Y-116474503D01*
G37*
G36*
X143250055Y-118470000D02*
G01*
X143250055Y-116469162D01*
X143522142Y-116469162D01*
X143964710Y-117674745D01*
X143964710Y-116469162D01*
X144250474Y-116469162D01*
X144250474Y-118470000D01*
X143984249Y-118470000D01*
X143535820Y-117267348D01*
X143535820Y-118470000D01*
X143250055Y-118470000D01*
G37*
G36*
X183050098Y-118370000D02*
G01*
X183050098Y-116369162D01*
X183335862Y-116369162D01*
X183335862Y-118370000D01*
X183050098Y-118370000D01*
G37*
G36*
X183589386Y-118370000D02*
G01*
X183589386Y-116369162D01*
X183861473Y-116369162D01*
X184304041Y-117574745D01*
X184304041Y-116369162D01*
X184589805Y-116369162D01*
X184589805Y-118370000D01*
X184323580Y-118370000D01*
X183875150Y-117167348D01*
X183875150Y-118370000D01*
X183589386Y-118370000D01*
G37*
G36*
X185364644Y-116375146D02*
G01*
X185464021Y-116396639D01*
X185475429Y-116400425D01*
X185567141Y-116446772D01*
X185640049Y-116510334D01*
X185699111Y-116590076D01*
X185737994Y-116681839D01*
X185741654Y-116694982D01*
X185759998Y-116793046D01*
X185768216Y-116895292D01*
X185769986Y-116980746D01*
X185767406Y-117083753D01*
X185758018Y-117185376D01*
X185754355Y-117209357D01*
X185727682Y-117304800D01*
X185687432Y-117383747D01*
X185627619Y-117462099D01*
X185546518Y-117527372D01*
X185528186Y-117538108D01*
X185436819Y-117573531D01*
X185334020Y-117590201D01*
X185265869Y-117592819D01*
X185117858Y-117592819D01*
X185117858Y-118370000D01*
X184832094Y-118370000D01*
X184832094Y-117307055D01*
X185117858Y-117307055D01*
X185256099Y-117307055D01*
X185353392Y-117296746D01*
X185390921Y-117283119D01*
X185461752Y-117215708D01*
X185484200Y-117119733D01*
X185484222Y-117116057D01*
X185484222Y-117015187D01*
X185484222Y-116984166D01*
X185484222Y-116886438D01*
X185484222Y-116855694D01*
X185465767Y-116757942D01*
X185461752Y-116749204D01*
X185394341Y-116679351D01*
X185296308Y-116655785D01*
X185266358Y-116654926D01*
X185117858Y-116654926D01*
X185117858Y-117307055D01*
X184832094Y-117307055D01*
X184832094Y-116369162D01*
X185265869Y-116369162D01*
X185364644Y-116375146D01*
G37*
G36*
X186882268Y-116369162D02*
G01*
X186882268Y-117919616D01*
X186872480Y-118019664D01*
X186847586Y-118100844D01*
X186799603Y-118187999D01*
X186749889Y-118247878D01*
X186672265Y-118312003D01*
X186603343Y-118349483D01*
X186506915Y-118378712D01*
X186427000Y-118385631D01*
X186324956Y-118374194D01*
X186251145Y-118349483D01*
X186165484Y-118299303D01*
X186106553Y-118247878D01*
X186043767Y-118169619D01*
X186006902Y-118100844D01*
X185978068Y-118002630D01*
X185971242Y-117919616D01*
X185971242Y-116369162D01*
X186257007Y-116369162D01*
X186257007Y-117892260D01*
X186270655Y-117989690D01*
X186305367Y-118049553D01*
X186391645Y-118096722D01*
X186426511Y-118099867D01*
X186522407Y-118071565D01*
X186548144Y-118049553D01*
X186590790Y-117958892D01*
X186596504Y-117892260D01*
X186596504Y-116369162D01*
X186882268Y-116369162D01*
G37*
G36*
X187377593Y-118370000D02*
G01*
X187377593Y-116654926D01*
X187038095Y-116654926D01*
X187038095Y-116369162D01*
X187975988Y-116369162D01*
X187975988Y-116654926D01*
X187663357Y-116654926D01*
X187663357Y-118370000D01*
X187377593Y-118370000D01*
G37*
D12*
G36*
X241207264Y-118925000D02*
G01*
X240779351Y-118925000D01*
X240653322Y-118268475D01*
X240069337Y-118268475D01*
X239943308Y-118925000D01*
X239514662Y-118925000D01*
X239756282Y-117839829D01*
X240144808Y-117839829D01*
X240573454Y-117839829D01*
X240363161Y-116772243D01*
X240355101Y-116772243D01*
X240144808Y-117839829D01*
X239756282Y-117839829D01*
X240182910Y-115923743D01*
X240539749Y-115923743D01*
X241207264Y-118925000D01*
G37*
G36*
X242769442Y-115923743D02*
G01*
X242769442Y-118249424D01*
X242754759Y-118399496D01*
X242717418Y-118521266D01*
X242645445Y-118651998D01*
X242570872Y-118741817D01*
X242454437Y-118838005D01*
X242351054Y-118894225D01*
X242206411Y-118938068D01*
X242086539Y-118948447D01*
X241933473Y-118931291D01*
X241822756Y-118894225D01*
X241694266Y-118818954D01*
X241605869Y-118741817D01*
X241511690Y-118624429D01*
X241456392Y-118521266D01*
X241413141Y-118373945D01*
X241402903Y-118249424D01*
X241402903Y-115923743D01*
X241831549Y-115923743D01*
X241831549Y-118208391D01*
X241852022Y-118354535D01*
X241904089Y-118444330D01*
X242033507Y-118515084D01*
X242085806Y-118519801D01*
X242229650Y-118477348D01*
X242268255Y-118444330D01*
X242332224Y-118308338D01*
X242340795Y-118208391D01*
X242340795Y-115923743D01*
X242769442Y-115923743D01*
G37*
G36*
X243512428Y-118925000D02*
G01*
X243512428Y-116352390D01*
X243003182Y-116352390D01*
X243003182Y-115923743D01*
X244410021Y-115923743D01*
X244410021Y-116352390D01*
X243941075Y-116352390D01*
X243941075Y-118925000D01*
X243512428Y-118925000D01*
G37*
G36*
X245407436Y-115931755D02*
G01*
X245520837Y-115963311D01*
X245659555Y-116028097D01*
X245757509Y-116097400D01*
X245854970Y-116207950D01*
X245923105Y-116327477D01*
X245970916Y-116476404D01*
X245986604Y-116623845D01*
X245986853Y-116646214D01*
X245986853Y-118220115D01*
X245974651Y-118374509D01*
X245934498Y-118516897D01*
X245923105Y-118542515D01*
X245844620Y-118671957D01*
X245757509Y-118764532D01*
X245637434Y-118849598D01*
X245520837Y-118903018D01*
X245374830Y-118939751D01*
X245259986Y-118948447D01*
X245112304Y-118934073D01*
X244998402Y-118903018D01*
X244861668Y-118836480D01*
X244766860Y-118764532D01*
X244665968Y-118658081D01*
X244596867Y-118542515D01*
X244549056Y-118394870D01*
X244533368Y-118243442D01*
X244533119Y-118220115D01*
X244533119Y-116647679D01*
X244961765Y-116647679D01*
X244961765Y-118218649D01*
X244989818Y-118366846D01*
X245050426Y-118446528D01*
X245187918Y-118512645D01*
X245260719Y-118519801D01*
X245404869Y-118488245D01*
X245469546Y-118446528D01*
X245547730Y-118315330D01*
X245558207Y-118218649D01*
X245558207Y-116647679D01*
X245530154Y-116498890D01*
X245469546Y-116419068D01*
X245332747Y-116352951D01*
X245260719Y-116345795D01*
X245115276Y-116377351D01*
X245050426Y-116419068D01*
X244972242Y-116550581D01*
X244961765Y-116647679D01*
X244533119Y-116647679D01*
X244533119Y-116646214D01*
X244545321Y-116496488D01*
X244585474Y-116353810D01*
X244596867Y-116327477D01*
X244671239Y-116200715D01*
X244766860Y-116097400D01*
X244890611Y-116011336D01*
X244998402Y-115963311D01*
X245145002Y-115925985D01*
X245259986Y-115917149D01*
X245407436Y-115931755D01*
G37*
G36*
X127785980Y-118925000D02*
G01*
X127785980Y-118509542D01*
X126941877Y-118509542D01*
X126941877Y-118080896D01*
X127552973Y-115923743D01*
X128004334Y-115923743D01*
X127366127Y-118080896D01*
X127785980Y-118080896D01*
X127785980Y-117236793D01*
X128214627Y-117236793D01*
X128214627Y-118080896D01*
X128442505Y-118080896D01*
X128442505Y-118509542D01*
X128214627Y-118509542D01*
X128214627Y-118925000D01*
X127785980Y-118925000D01*
G37*
G36*
X128644738Y-118925000D02*
G01*
X128644738Y-115923743D01*
X129073384Y-115923743D01*
X129073384Y-117293946D01*
X129081444Y-117293946D01*
X129707195Y-115923743D01*
X130135841Y-115923743D01*
X129551856Y-117125418D01*
X130245017Y-118925000D01*
X129791458Y-118925000D01*
X129304194Y-117592899D01*
X129073384Y-118027407D01*
X129073384Y-118925000D01*
X128644738Y-118925000D01*
G37*
M02*
