%TF.GenerationSoftware,KiCad,Pcbnew,9.0.0*%
%TF.CreationDate,2025-04-15T08:38:04-04:00*%
%TF.ProjectId,Keypad Panel,4b657970-6164-4205-9061-6e656c2e6b69,1.0*%
%TF.SameCoordinates,Original*%
%TF.FileFunction,Copper,L1,Top*%
%TF.FilePolarity,Positive*%
%FSLAX46Y46*%
G04 Gerber Fmt 4.6, Leading zero omitted, Abs format (unit mm)*
G04 Created by KiCad (PCBNEW 9.0.0) date 2025-04-15 08:38:04*
%MOMM*%
%LPD*%
G01*
G04 APERTURE LIST*
%TA.AperFunction,NonConductor*%
%ADD10C,0.750000*%
%TD*%
%TA.AperFunction,Conductor*%
%ADD11C,0.000000*%
%TD*%
%TA.AperFunction,NonConductor*%
%ADD12C,0.000000*%
%TD*%
%TA.AperFunction,NonConductor*%
%ADD13C,0.500000*%
%TD*%
%TA.AperFunction,NonConductor*%
%ADD14C,0.300000*%
%TD*%
%ADD15C,0.300000*%
G04 APERTURE END LIST*
D10*
X62500000Y-118070000D02*
X54200000Y-118070000D01*
D11*
%TA.AperFunction,Conductor*%
%TO.N,1*%
G36*
X109383514Y-116360027D02*
G01*
X109341061Y-116360027D01*
X109270878Y-116393825D01*
X109222311Y-116454727D01*
X109204977Y-116530671D01*
X109205647Y-116533605D01*
X109205014Y-116533605D01*
X109205014Y-118228305D01*
X109205546Y-118228305D01*
X109205015Y-118230633D01*
X109222349Y-118306577D01*
X109270916Y-118367479D01*
X109341099Y-118401277D01*
X109383514Y-118401277D01*
X109383514Y-118574908D01*
X109269287Y-118574908D01*
X109051613Y-118534218D01*
X108845123Y-118454223D01*
X108656847Y-118337648D01*
X108493198Y-118188462D01*
X108359748Y-118011746D01*
X108261042Y-117813517D01*
X108200441Y-117600526D01*
X108180009Y-117380027D01*
X108200441Y-117159528D01*
X108261042Y-116946537D01*
X108359748Y-116748308D01*
X108493198Y-116571592D01*
X108656847Y-116422406D01*
X108845123Y-116305831D01*
X109051613Y-116225836D01*
X109269287Y-116185146D01*
X109383514Y-116185146D01*
X109383514Y-116360027D01*
G37*
%TD.AperFunction*%
D10*
X54200000Y-89020000D02*
X62500000Y-89020000D01*
X64500000Y-91020000D02*
X64500000Y-116070000D01*
D12*
%TA.AperFunction,NonConductor*%
G36*
X134241324Y-116755617D02*
G01*
X134340076Y-116774588D01*
X134418234Y-116833572D01*
X134421342Y-116838826D01*
X134451940Y-116932735D01*
X134456190Y-116966313D01*
X134460732Y-117065115D01*
X134460312Y-117097375D01*
X134451940Y-117198471D01*
X134421165Y-117294703D01*
X134349846Y-117354787D01*
X134325178Y-117363976D01*
X134227725Y-117375792D01*
X134063105Y-117375792D01*
X134063105Y-116754926D01*
X134214047Y-116754926D01*
X134241324Y-116755617D01*
G37*
%TD.AperFunction*%
D13*
X227740000Y-86350000D02*
X240935000Y-86350000D01*
D12*
%TA.AperFunction,NonConductor*%
G36*
X154573893Y-116353678D02*
G01*
X154720943Y-116389026D01*
X154822059Y-116493806D01*
X154828083Y-116506914D01*
X154855765Y-116653541D01*
X154855765Y-116699657D01*
X154855765Y-116846249D01*
X154855765Y-116892781D01*
X154855765Y-117044085D01*
X154855732Y-117049599D01*
X154822059Y-117193562D01*
X154715813Y-117294678D01*
X154659519Y-117315120D01*
X154513580Y-117330582D01*
X154306218Y-117330582D01*
X154306218Y-116352390D01*
X154528968Y-116352390D01*
X154573893Y-116353678D01*
G37*
%TD.AperFunction*%
%TA.AperFunction,NonConductor*%
G36*
X185296308Y-116655785D02*
G01*
X185394341Y-116679351D01*
X185461752Y-116749204D01*
X185465767Y-116757942D01*
X185484222Y-116855694D01*
X185484222Y-116886438D01*
X185484222Y-116984166D01*
X185484222Y-117015187D01*
X185484222Y-117116057D01*
X185484200Y-117119733D01*
X185461752Y-117215708D01*
X185390921Y-117283119D01*
X185353392Y-117296746D01*
X185256099Y-117307055D01*
X185117858Y-117307055D01*
X185117858Y-116654926D01*
X185266358Y-116654926D01*
X185296308Y-116655785D01*
G37*
%TD.AperFunction*%
D14*
X226005000Y-87760000D02*
X226815000Y-87760000D01*
D12*
%TA.AperFunction,NonConductor*%
G36*
X137673161Y-116755300D02*
G01*
X137764361Y-116799378D01*
X137804766Y-116852593D01*
X137823468Y-116951786D01*
X137823468Y-117999099D01*
X137816484Y-118063553D01*
X137764361Y-118151018D01*
X137721243Y-118178830D01*
X137625143Y-118199867D01*
X137576609Y-118195097D01*
X137484947Y-118151018D01*
X137444542Y-118097897D01*
X137425840Y-117999099D01*
X137425840Y-116951786D01*
X137432825Y-116887054D01*
X137484947Y-116799378D01*
X137528181Y-116771567D01*
X137625143Y-116750530D01*
X137673161Y-116755300D01*
G37*
%TD.AperFunction*%
D10*
X54200000Y-118070000D02*
G75*
G02*
X52200000Y-116070000I0J2000000D01*
G01*
D13*
X228370000Y-90920000D02*
X240255000Y-90920000D01*
D11*
%TA.AperFunction,Conductor*%
G36*
X155617744Y-119331780D02*
G01*
X147820000Y-119331780D01*
X147820000Y-117190000D01*
X147342425Y-117190000D01*
X147342425Y-116695307D01*
X147675758Y-116695307D01*
X148097809Y-116378768D01*
X148097809Y-118925000D01*
X148526455Y-118925000D01*
X148526455Y-116559019D01*
X149144146Y-116559019D01*
X149144146Y-118308775D01*
X149154103Y-118433897D01*
X149196169Y-118576221D01*
X149240683Y-118659065D01*
X149336853Y-118776988D01*
X149406611Y-118834072D01*
X149539819Y-118904483D01*
X149635102Y-118932948D01*
X149780887Y-118948447D01*
X149873417Y-118942264D01*
X150021222Y-118904483D01*
X150103791Y-118865946D01*
X150224920Y-118776988D01*
X150289961Y-118703203D01*
X150364139Y-118576221D01*
X150402006Y-118459066D01*
X150416895Y-118308775D01*
X150416895Y-116791550D01*
X150706323Y-116791550D01*
X150706323Y-116945167D01*
X150706516Y-116962160D01*
X150728305Y-117107833D01*
X150795716Y-117235327D01*
X150810699Y-117253102D01*
X150918814Y-117354030D01*
X150899901Y-117368696D01*
X150795716Y-117471999D01*
X150792899Y-117475682D01*
X150728305Y-117609752D01*
X150717679Y-117657517D01*
X150712344Y-117726988D01*
X150706323Y-117805390D01*
X150706323Y-117933984D01*
X150706323Y-118088224D01*
X150706323Y-118170441D01*
X150706323Y-118317568D01*
X150706335Y-118323133D01*
X150718779Y-118474371D01*
X150755416Y-118587944D01*
X150812569Y-118684665D01*
X150894142Y-118779569D01*
X151017733Y-118870778D01*
X151051827Y-118888981D01*
X151196405Y-118935628D01*
X151343064Y-118948447D01*
X151378531Y-118947764D01*
X151530080Y-118926526D01*
X151666930Y-118870778D01*
X151771616Y-118796927D01*
X151872827Y-118684665D01*
X151929980Y-118587944D01*
X151966616Y-118474371D01*
X151968124Y-118465859D01*
X151979072Y-118317568D01*
X151979072Y-118236238D01*
X151979072Y-118088224D01*
X151979072Y-117960951D01*
X151979072Y-117805390D01*
X151978020Y-117756458D01*
X151957091Y-117609752D01*
X151955738Y-117604826D01*
X151889679Y-117471999D01*
X151874696Y-117453469D01*
X151766581Y-117354030D01*
X151785495Y-117338551D01*
X151889679Y-117235327D01*
X151957091Y-117107833D01*
X151961019Y-117094326D01*
X151979072Y-116945167D01*
X151979072Y-116870497D01*
X151979072Y-116719487D01*
X151978660Y-116660914D01*
X151974427Y-116559019D01*
X152268500Y-116559019D01*
X152268500Y-118308775D01*
X152278458Y-118433897D01*
X152320524Y-118576221D01*
X152365037Y-118659065D01*
X152461208Y-118776988D01*
X152530966Y-118834072D01*
X152664174Y-118904483D01*
X152759456Y-118932948D01*
X152905241Y-118948447D01*
X152997771Y-118942264D01*
X153065310Y-118925000D01*
X153877572Y-118925000D01*
X154306218Y-118925000D01*
X154306218Y-117759228D01*
X154528235Y-117759228D01*
X154630461Y-117755301D01*
X154784661Y-117730297D01*
X154921710Y-117677163D01*
X154949209Y-117661059D01*
X155070861Y-117563149D01*
X155160580Y-117445621D01*
X155220955Y-117327200D01*
X155260963Y-117184036D01*
X155266459Y-117148064D01*
X155280541Y-116995629D01*
X155284411Y-116841120D01*
X155281755Y-116712938D01*
X155269429Y-116559569D01*
X155241913Y-116412473D01*
X155236423Y-116392758D01*
X155178098Y-116255114D01*
X155089505Y-116135502D01*
X154980143Y-116040158D01*
X154842575Y-115970638D01*
X154825462Y-115964959D01*
X154676398Y-115932719D01*
X154528235Y-115923743D01*
X153877572Y-115923743D01*
X153877572Y-117330582D01*
X153877572Y-118925000D01*
X153065310Y-118925000D01*
X153145576Y-118904483D01*
X153228146Y-118865946D01*
X153349275Y-118776988D01*
X153414316Y-118703203D01*
X153488493Y-118576221D01*
X153526360Y-118459066D01*
X153541250Y-118308775D01*
X153541250Y-117330582D01*
X153541250Y-116557554D01*
X153531152Y-116432432D01*
X153488493Y-116290108D01*
X153444529Y-116206817D01*
X153349275Y-116088607D01*
X153279070Y-116031523D01*
X153145576Y-115961113D01*
X153057855Y-115934322D01*
X152905241Y-115917149D01*
X152812265Y-115923331D01*
X152664174Y-115961113D01*
X152581707Y-115999649D01*
X152461208Y-116088607D01*
X152395571Y-116162513D01*
X152320524Y-116290108D01*
X152283183Y-116407262D01*
X152268500Y-116557554D01*
X152268500Y-116559019D01*
X151974427Y-116559019D01*
X151974366Y-116557554D01*
X151972478Y-116512124D01*
X151946100Y-116364113D01*
X151895541Y-116251273D01*
X151824467Y-116147226D01*
X151743243Y-116061453D01*
X151614906Y-115977965D01*
X151492772Y-115934313D01*
X151343064Y-115917149D01*
X151210185Y-115930512D01*
X151070489Y-115977965D01*
X150968708Y-116040296D01*
X150860929Y-116147226D01*
X150792052Y-116251273D01*
X150743692Y-116364113D01*
X150742421Y-116368029D01*
X150714383Y-116512124D01*
X150711382Y-116552424D01*
X150710132Y-116569211D01*
X150706323Y-116719487D01*
X150706323Y-116791550D01*
X150416895Y-116791550D01*
X150416895Y-116719487D01*
X150416895Y-116557554D01*
X150406797Y-116432432D01*
X150364139Y-116290108D01*
X150320175Y-116206817D01*
X150224920Y-116088607D01*
X150154716Y-116031523D01*
X150021222Y-115961113D01*
X149933500Y-115934322D01*
X149780887Y-115917149D01*
X149687910Y-115923331D01*
X149539819Y-115961113D01*
X149457353Y-115999649D01*
X149336853Y-116088607D01*
X149271217Y-116162513D01*
X149196169Y-116290108D01*
X149158828Y-116407262D01*
X149144146Y-116557554D01*
X149144146Y-116559019D01*
X148526455Y-116559019D01*
X148526455Y-116557554D01*
X148526455Y-115923743D01*
X148097809Y-115923743D01*
X147675758Y-116239549D01*
X147675758Y-116695307D01*
X147342425Y-116695307D01*
X147342425Y-116239549D01*
X147342425Y-115583816D01*
X155617744Y-115583816D01*
X155617744Y-119331780D01*
G37*
%TD.AperFunction*%
D12*
%TA.AperFunction,NonConductor*%
G36*
X152915826Y-116346033D02*
G01*
X153053985Y-116406612D01*
X153064461Y-116418285D01*
X153112603Y-116559019D01*
X153112603Y-118307309D01*
X153112088Y-118324212D01*
X153053985Y-118459717D01*
X153042835Y-118470454D01*
X152904509Y-118519801D01*
X152893191Y-118519566D01*
X152755032Y-118459717D01*
X152744687Y-118448043D01*
X152697146Y-118307309D01*
X152697146Y-116559019D01*
X152697655Y-116542116D01*
X152755032Y-116406612D01*
X152766182Y-116395743D01*
X152904509Y-116345795D01*
X152915826Y-116346033D01*
G37*
%TD.AperFunction*%
%TA.AperFunction,NonConductor*%
G36*
X173634244Y-116365785D02*
G01*
X173764418Y-116447644D01*
X173816075Y-116561767D01*
X173833294Y-116715090D01*
X173833294Y-118129256D01*
X173821322Y-118266762D01*
X173760754Y-118407693D01*
X173662752Y-118474188D01*
X173513825Y-118496353D01*
X173324048Y-118496353D01*
X173324048Y-116352390D01*
X173513825Y-116352390D01*
X173634244Y-116365785D01*
G37*
%TD.AperFunction*%
%TA.AperFunction,NonConductor*%
G36*
X102116626Y-116313453D02*
G01*
X102264754Y-116341909D01*
X102381991Y-116430386D01*
X102386653Y-116438266D01*
X102432549Y-116579130D01*
X102438925Y-116629497D01*
X102445738Y-116777699D01*
X102445107Y-116826090D01*
X102432549Y-116977734D01*
X102386387Y-117122082D01*
X102279409Y-117212207D01*
X102242406Y-117225992D01*
X102096227Y-117243715D01*
X101849297Y-117243715D01*
X101849297Y-116312417D01*
X102075710Y-116312417D01*
X102116626Y-116313453D01*
G37*
%TD.AperFunction*%
D14*
X226125000Y-88620000D02*
X226815000Y-88620000D01*
D12*
%TA.AperFunction,NonConductor*%
G36*
X242525146Y-88002355D02*
G01*
X242206323Y-88002355D01*
X242206323Y-87684855D01*
X242525146Y-87684855D01*
X242525146Y-88002355D01*
G37*
%TD.AperFunction*%
D11*
%TA.AperFunction,Conductor*%
G36*
X177784624Y-119341780D02*
G01*
X170774211Y-119341780D01*
X170774211Y-118925000D01*
X170774211Y-115923743D01*
X171107544Y-115923743D01*
X171107544Y-118925000D01*
X171536190Y-118925000D01*
X171536190Y-117611950D01*
X172045437Y-117611950D01*
X172045437Y-118925000D01*
X172474083Y-118925000D01*
X172895402Y-118925000D01*
X173483050Y-118925000D01*
X173639693Y-118915428D01*
X173798019Y-118881047D01*
X173934273Y-118821661D01*
X174061173Y-118724965D01*
X174097052Y-118685507D01*
X174175477Y-118561206D01*
X174228806Y-118409154D01*
X174254882Y-118253342D01*
X174261940Y-118102878D01*
X174261940Y-116698970D01*
X174261757Y-116695307D01*
X174730154Y-116695307D01*
X175152206Y-116378768D01*
X175152206Y-118925000D01*
X175580852Y-118925000D01*
X175580852Y-118178349D01*
X176198542Y-118178349D01*
X176198542Y-118305111D01*
X176208500Y-118430874D01*
X176250566Y-118574023D01*
X176295079Y-118657760D01*
X176391250Y-118776256D01*
X176461008Y-118833786D01*
X176594215Y-118904483D01*
X176689498Y-118932948D01*
X176835283Y-118948447D01*
X176927813Y-118942264D01*
X177075618Y-118904483D01*
X177158187Y-118865843D01*
X177279317Y-118776256D01*
X177344358Y-118702349D01*
X177418535Y-118574755D01*
X177456402Y-118456914D01*
X177471291Y-118305844D01*
X177471291Y-117532083D01*
X177462728Y-117407793D01*
X177422986Y-117264114D01*
X177334271Y-117134944D01*
X177270683Y-117083267D01*
X177131569Y-117020970D01*
X176978898Y-117002320D01*
X176916282Y-117005450D01*
X176771536Y-117041887D01*
X176743507Y-117054717D01*
X176620594Y-117140073D01*
X176620594Y-116352390D01*
X177471291Y-116352390D01*
X177471291Y-115923743D01*
X176245437Y-115923743D01*
X176245437Y-117537944D01*
X176623524Y-117537944D01*
X176647705Y-117499110D01*
X176685806Y-117441957D01*
X176748088Y-117397260D01*
X176841145Y-117377477D01*
X176852013Y-117377723D01*
X176985492Y-117440491D01*
X176995706Y-117452539D01*
X177042645Y-117592899D01*
X177042645Y-118296318D01*
X177041809Y-118322136D01*
X176989156Y-118461182D01*
X176978884Y-118471658D01*
X176840412Y-118519801D01*
X176816610Y-118518850D01*
X176681410Y-118458984D01*
X176657713Y-118430028D01*
X176620594Y-118288258D01*
X176620594Y-118178349D01*
X176198542Y-118178349D01*
X175580852Y-118178349D01*
X175580852Y-115923743D01*
X175152206Y-115923743D01*
X174730154Y-116239549D01*
X174730154Y-116695307D01*
X174261757Y-116695307D01*
X174255294Y-116565860D01*
X174225756Y-116406812D01*
X174164280Y-116253063D01*
X174154563Y-116239549D01*
X174072896Y-116125976D01*
X173967796Y-116037500D01*
X173823392Y-115968179D01*
X173671774Y-115933421D01*
X173521152Y-115923743D01*
X172895402Y-115923743D01*
X172895402Y-118496353D01*
X172895402Y-118925000D01*
X172474083Y-118925000D01*
X172474083Y-118496353D01*
X172474083Y-115923743D01*
X172045437Y-115923743D01*
X172045437Y-117236793D01*
X171536190Y-117236793D01*
X171536190Y-115923743D01*
X171107544Y-115923743D01*
X170774211Y-115923743D01*
X170774211Y-115590410D01*
X177784624Y-115590410D01*
X177784624Y-119341780D01*
G37*
%TD.AperFunction*%
D12*
%TA.AperFunction,NonConductor*%
G36*
X199011788Y-116353426D02*
G01*
X199159916Y-116381882D01*
X199277153Y-116470359D01*
X199281815Y-116478239D01*
X199327711Y-116619103D01*
X199334087Y-116669470D01*
X199340900Y-116817672D01*
X199340269Y-116866063D01*
X199327711Y-117017707D01*
X199281549Y-117162055D01*
X199174571Y-117252180D01*
X199137568Y-117265965D01*
X198991389Y-117283688D01*
X198744459Y-117283688D01*
X198744459Y-116352390D01*
X198970872Y-116352390D01*
X199011788Y-116353426D01*
G37*
%TD.AperFunction*%
D11*
%TA.AperFunction,Conductor*%
%TO.N,2*%
G36*
X223385063Y-86411593D02*
G01*
X223703886Y-86411593D01*
X223703886Y-86730416D01*
X224022709Y-86730416D01*
X224022709Y-87046593D01*
X224656386Y-87046593D01*
X224656386Y-87365416D01*
X224975209Y-87365416D01*
X224975209Y-87684239D01*
X225290063Y-87684239D01*
X225290063Y-88644676D01*
X224980500Y-88644676D01*
X224980500Y-89280999D01*
X224661677Y-89280999D01*
X224661677Y-90234822D01*
X224346823Y-90234822D01*
X224346823Y-90863208D01*
X224653739Y-90863208D01*
X224653739Y-91186000D01*
X223066239Y-91186000D01*
X223066239Y-90879083D01*
X222758000Y-90879083D01*
X222758000Y-91186000D01*
X218937417Y-91186000D01*
X218937417Y-90873791D01*
X218621240Y-90873791D01*
X218621240Y-89602468D01*
X218945354Y-89602468D01*
X218946677Y-90860562D01*
X222746094Y-90860562D01*
X222746094Y-90550999D01*
X223074177Y-90550999D01*
X223074177Y-90859239D01*
X224017417Y-90859239D01*
X224017417Y-90226885D01*
X224334917Y-90226885D01*
X224334917Y-89273062D01*
X224652417Y-89273062D01*
X224652417Y-88636739D01*
X224961979Y-88636739D01*
X224961979Y-87701437D01*
X224656385Y-87701437D01*
X224656385Y-88008354D01*
X224337562Y-88008354D01*
X224337562Y-87684239D01*
X224645802Y-87684239D01*
X224645802Y-87376000D01*
X223694625Y-87376000D01*
X223694625Y-86739677D01*
X223377125Y-86739677D01*
X223377125Y-86428791D01*
X223075500Y-86428791D01*
X223075500Y-87053208D01*
X223385063Y-87053208D01*
X223385063Y-87696145D01*
X223068886Y-87696145D01*
X223068886Y-88007031D01*
X222425948Y-88007031D01*
X222425948Y-87700114D01*
X220527563Y-87700114D01*
X220527563Y-88013645D01*
X220211385Y-88013645D01*
X220211385Y-88332468D01*
X219575063Y-88332468D01*
X219575063Y-88968791D01*
X219258886Y-88968791D01*
X219258886Y-89602468D01*
X218945354Y-89602468D01*
X218621240Y-89602468D01*
X218621240Y-89595854D01*
X218932125Y-89595854D01*
X218932125Y-88959531D01*
X219249625Y-88959531D01*
X219249625Y-88323208D01*
X219567125Y-88323208D01*
X219567125Y-88007031D01*
X220200802Y-88007031D01*
X220200802Y-87688208D01*
X220518302Y-87688208D01*
X220518302Y-87372031D01*
X222433885Y-87372031D01*
X222433885Y-87680270D01*
X223056979Y-87680270D01*
X223056979Y-87378645D01*
X222746094Y-87378645D01*
X222746094Y-87059823D01*
X222429917Y-87059823D01*
X222429917Y-86734385D01*
X222742125Y-86734385D01*
X222742125Y-86415562D01*
X223059625Y-86415562D01*
X223059625Y-86100708D01*
X223385063Y-86100708D01*
X223385063Y-86411593D01*
G37*
%TD.AperFunction*%
D10*
X52200000Y-90990000D02*
X52200000Y-116070000D01*
D11*
%TA.AperFunction,Conductor*%
%TO.N,1*%
G36*
X182860000Y-117650000D02*
G01*
X180920000Y-117650000D01*
X177650000Y-117650000D01*
X177650000Y-117495010D01*
X177849994Y-117495010D01*
X180920000Y-117495010D01*
X180920000Y-117495000D01*
X182670000Y-117495000D01*
X182670000Y-117254973D01*
X180920000Y-117254973D01*
X180920000Y-117254983D01*
X179529994Y-117254983D01*
X177849994Y-117254983D01*
X177849994Y-117495010D01*
X177650000Y-117495010D01*
X177650000Y-117254983D01*
X177650000Y-117070000D01*
X180920000Y-117070000D01*
X182860000Y-117070000D01*
X182860000Y-117650000D01*
G37*
%TD.AperFunction*%
D13*
X226570000Y-90920000D02*
X226740000Y-90920000D01*
D11*
%TA.AperFunction,Conductor*%
G36*
X111040009Y-118980027D02*
G01*
X109380009Y-118980027D01*
X109380009Y-118874904D01*
X109503878Y-118874904D01*
X109748237Y-118834127D01*
X109982552Y-118753687D01*
X110200431Y-118635777D01*
X110395931Y-118483613D01*
X110563720Y-118301346D01*
X110699220Y-118093948D01*
X110798735Y-117867076D01*
X110859551Y-117626919D01*
X110880009Y-117380027D01*
X110859551Y-117133135D01*
X110798735Y-116892978D01*
X110699220Y-116666106D01*
X110563720Y-116458708D01*
X110395931Y-116276441D01*
X110200431Y-116124277D01*
X109982552Y-116006367D01*
X109748237Y-115925927D01*
X109503878Y-115885150D01*
X109380009Y-115885150D01*
X109380009Y-115780027D01*
X111040009Y-115780027D01*
X111040009Y-118980027D01*
G37*
%TD.AperFunction*%
%TA.AperFunction,Conductor*%
G36*
X129923918Y-117043918D02*
G01*
X130495876Y-119328333D01*
X126608544Y-119328333D01*
X126608544Y-118509542D01*
X126941877Y-118509542D01*
X127785980Y-118509542D01*
X127785980Y-118925000D01*
X128214627Y-118925000D01*
X128644738Y-118925000D01*
X129073384Y-118925000D01*
X129073384Y-118027407D01*
X129304194Y-117592899D01*
X129791458Y-118925000D01*
X130245017Y-118925000D01*
X129551856Y-117125418D01*
X130135841Y-115923743D01*
X129707195Y-115923743D01*
X129081444Y-117293946D01*
X129073384Y-117293946D01*
X129073384Y-115923743D01*
X128644738Y-115923743D01*
X128644738Y-118925000D01*
X128214627Y-118925000D01*
X128214627Y-118509542D01*
X128442505Y-118509542D01*
X128442505Y-118080896D01*
X128214627Y-118080896D01*
X128214627Y-117236793D01*
X127785980Y-117236793D01*
X127785980Y-118080896D01*
X127366127Y-118080896D01*
X128004334Y-115923743D01*
X127552973Y-115923743D01*
X126941877Y-118080896D01*
X126941877Y-118509542D01*
X126608544Y-118509542D01*
X126608544Y-118080896D01*
X126608544Y-115590410D01*
X130478350Y-115590410D01*
X129923918Y-117043918D01*
G37*
%TD.AperFunction*%
D12*
%TA.AperFunction,NonConductor*%
G36*
X149791471Y-116346033D02*
G01*
X149929631Y-116406612D01*
X149940106Y-116418285D01*
X149988249Y-116559019D01*
X149988249Y-118307309D01*
X149987734Y-118324212D01*
X149929631Y-118459717D01*
X149918481Y-118470454D01*
X149780154Y-118519801D01*
X149768837Y-118519566D01*
X149630677Y-118459717D01*
X149620333Y-118448043D01*
X149572792Y-118307309D01*
X149572792Y-116559019D01*
X149573301Y-116542116D01*
X149630677Y-116406612D01*
X149641827Y-116395743D01*
X149780154Y-116345795D01*
X149791471Y-116346033D01*
G37*
%TD.AperFunction*%
D10*
X62500000Y-89020000D02*
G75*
G02*
X64500000Y-91020000I0J-2000000D01*
G01*
X52200000Y-91020000D02*
G75*
G02*
X54200000Y-89020000I2000000J0D01*
G01*
D11*
%TA.AperFunction,Conductor*%
G36*
X192960000Y-117640000D02*
G01*
X191100000Y-117640000D01*
X187900000Y-117640000D01*
X187900000Y-117485010D01*
X188029994Y-117485010D01*
X191100000Y-117485010D01*
X191100000Y-117485000D01*
X192850000Y-117485000D01*
X192850000Y-117244973D01*
X191100000Y-117244973D01*
X191100000Y-117244983D01*
X189709994Y-117244983D01*
X188029994Y-117244983D01*
X188029994Y-117485010D01*
X187900000Y-117485010D01*
X187900000Y-117244983D01*
X187900000Y-117060000D01*
X191100000Y-117060000D01*
X192960000Y-117060000D01*
X192960000Y-117640000D01*
G37*
%TD.AperFunction*%
D13*
X225890000Y-86350000D02*
X226740000Y-86350000D01*
D11*
%TA.AperFunction,Conductor*%
G36*
X109708410Y-116225913D02*
G01*
X109914900Y-116305908D01*
X110103176Y-116422483D01*
X110266825Y-116571669D01*
X110400275Y-116748385D01*
X110498981Y-116946614D01*
X110559582Y-117159605D01*
X110580014Y-117380104D01*
X110559582Y-117600603D01*
X110498981Y-117813594D01*
X110400275Y-118011823D01*
X110266825Y-118188539D01*
X110103176Y-118337725D01*
X109914900Y-118454300D01*
X109708410Y-118534295D01*
X109490736Y-118574985D01*
X109383639Y-118574985D01*
X109383639Y-118400633D01*
X109418995Y-118400633D01*
X109489178Y-118366835D01*
X109537745Y-118305933D01*
X109555079Y-118229989D01*
X109554548Y-118227661D01*
X109555003Y-118227661D01*
X109555003Y-116532961D01*
X109554371Y-116532961D01*
X109555041Y-116530027D01*
X109537707Y-116454083D01*
X109489140Y-116393181D01*
X109418957Y-116359383D01*
X109383639Y-116359383D01*
X109383639Y-116185223D01*
X109490736Y-116185223D01*
X109708410Y-116225913D01*
G37*
%TD.AperFunction*%
D12*
%TA.AperFunction,NonConductor*%
G36*
X151352690Y-117518398D02*
G01*
X151488144Y-117578977D01*
X151495686Y-117586596D01*
X151550426Y-117726988D01*
X151550426Y-118310973D01*
X151550183Y-118321858D01*
X151488144Y-118459717D01*
X151480276Y-118466993D01*
X151342331Y-118519801D01*
X151332062Y-118519566D01*
X151197251Y-118459717D01*
X151189709Y-118452009D01*
X151134969Y-118310973D01*
X151134969Y-117726988D01*
X151135212Y-117716106D01*
X151197251Y-117578977D01*
X151205116Y-117571613D01*
X151342331Y-117518161D01*
X151352690Y-117518398D01*
G37*
%TD.AperFunction*%
D10*
X64500000Y-116070000D02*
G75*
G02*
X62500000Y-118070000I-2000000J0D01*
G01*
D11*
%TA.AperFunction,Conductor*%
G36*
X201580060Y-119281780D02*
G01*
X192768384Y-119281780D01*
X192770000Y-118080896D01*
X192900000Y-118080896D01*
X193101717Y-118080896D01*
X193101717Y-118239898D01*
X193114114Y-118376416D01*
X193158137Y-118519068D01*
X193215078Y-118624735D01*
X193310544Y-118743283D01*
X193408744Y-118824255D01*
X193539888Y-118894225D01*
X193678924Y-118934891D01*
X193827851Y-118948447D01*
X193877974Y-118947405D01*
X194027275Y-118929628D01*
X194173699Y-118881769D01*
X194295050Y-118808149D01*
X194403775Y-118697854D01*
X194479499Y-118563741D01*
X194524676Y-118423080D01*
X194535441Y-118372061D01*
X194552782Y-118245027D01*
X194898367Y-118245027D01*
X194899363Y-118295345D01*
X194916358Y-118442906D01*
X194962115Y-118582815D01*
X195025267Y-118688603D01*
X195126246Y-118798237D01*
X195211203Y-118857883D01*
X195349728Y-118915474D01*
X195442189Y-118935567D01*
X195594459Y-118948447D01*
X195713911Y-118937648D01*
X195753519Y-118925000D01*
X196427572Y-118925000D01*
X196856218Y-118925000D01*
X196982247Y-118268475D01*
X197566232Y-118268475D01*
X197692261Y-118925000D01*
X198120175Y-118925000D01*
X198315813Y-118925000D01*
X198744459Y-118925000D01*
X198744459Y-117658845D01*
X199004578Y-117658845D01*
X199408311Y-118925000D01*
X199861870Y-118925000D01*
X199399519Y-117571650D01*
X199494727Y-117509597D01*
X199608518Y-117399516D01*
X199687481Y-117269033D01*
X199734204Y-117130635D01*
X199761532Y-116973363D01*
X199769546Y-116814009D01*
X199762862Y-116654908D01*
X199733152Y-116467118D01*
X199694798Y-116352390D01*
X199679674Y-116307149D01*
X199602429Y-116175000D01*
X199472448Y-116048937D01*
X199341725Y-115979385D01*
X199187233Y-115937654D01*
X199008974Y-115923743D01*
X199839888Y-115923743D01*
X199839888Y-116352390D01*
X200349135Y-116352390D01*
X200349135Y-118925000D01*
X200777781Y-118925000D01*
X200777781Y-116352390D01*
X201246727Y-116352390D01*
X201246727Y-115923743D01*
X199839888Y-115923743D01*
X199008974Y-115923743D01*
X198315813Y-115923743D01*
X198315813Y-117283688D01*
X198315813Y-118925000D01*
X198120175Y-118925000D01*
X197755127Y-117283688D01*
X197452659Y-115923743D01*
X197095820Y-115923743D01*
X196669192Y-117839829D01*
X196427572Y-118925000D01*
X195753519Y-118925000D01*
X195856776Y-118892027D01*
X195957956Y-118835086D01*
X196070733Y-118739619D01*
X196142660Y-118649800D01*
X196212882Y-118519068D01*
X196248445Y-118407911D01*
X196264906Y-118256751D01*
X196264906Y-118072103D01*
X195836260Y-118072103D01*
X195836260Y-118218649D01*
X195812080Y-118365195D01*
X195751263Y-118456786D01*
X195664068Y-118505146D01*
X195577606Y-118519801D01*
X195504899Y-118512845D01*
X195381235Y-118431873D01*
X195348194Y-118360054D01*
X195327013Y-118214253D01*
X195327013Y-116693108D01*
X195334123Y-116587321D01*
X195377572Y-116443981D01*
X195435701Y-116380409D01*
X195582003Y-116345795D01*
X195644065Y-116353098D01*
X195767383Y-116438119D01*
X195806597Y-116505070D01*
X195836260Y-116655006D01*
X195836260Y-116797156D01*
X196264906Y-116797156D01*
X196264906Y-116630094D01*
X196253475Y-116489251D01*
X196212882Y-116342864D01*
X196160429Y-116234191D01*
X196070733Y-116114253D01*
X196022281Y-116068057D01*
X195885925Y-115979514D01*
X195744606Y-115932740D01*
X195585667Y-115917149D01*
X195448055Y-115928741D01*
X195306497Y-115969905D01*
X195209661Y-116018826D01*
X195088144Y-116114253D01*
X195016497Y-116200987D01*
X194947460Y-116331873D01*
X194912222Y-116454008D01*
X194898367Y-116603715D01*
X194898367Y-118245027D01*
X194552782Y-118245027D01*
X194555877Y-118222356D01*
X194562045Y-118074302D01*
X194558819Y-117938200D01*
X194545192Y-117783408D01*
X194530733Y-117698629D01*
X194484376Y-117555530D01*
X194450115Y-117497756D01*
X194349553Y-117386270D01*
X194257590Y-117321601D01*
X194125339Y-117258042D01*
X193806602Y-117128349D01*
X193679107Y-117062404D01*
X193607299Y-116982536D01*
X193576525Y-116877756D01*
X193570663Y-116730478D01*
X193582387Y-116586863D01*
X193626350Y-116463032D01*
X193709881Y-116379501D01*
X193845436Y-116345795D01*
X193949816Y-116360839D01*
X194067453Y-116452773D01*
X194112533Y-116553452D01*
X194133399Y-116705565D01*
X194133399Y-116801552D01*
X194562045Y-116801552D01*
X194562045Y-116603715D01*
X194562045Y-116591992D01*
X194560377Y-116543741D01*
X194530724Y-116390441D01*
X194464006Y-116248732D01*
X194372268Y-116131106D01*
X194275926Y-116048802D01*
X194148053Y-115975767D01*
X194011766Y-115931803D01*
X193862289Y-115917149D01*
X193839317Y-115917404D01*
X193689731Y-115933452D01*
X193542819Y-115982362D01*
X193428102Y-116052472D01*
X193323001Y-116155286D01*
X193243500Y-116274904D01*
X193186713Y-116415404D01*
X193181301Y-116434335D01*
X193151838Y-116580330D01*
X193142017Y-116733408D01*
X193142375Y-116768119D01*
X193152840Y-116915176D01*
X193181462Y-117061035D01*
X193233608Y-117200157D01*
X193245838Y-117223049D01*
X193337765Y-117338927D01*
X193457549Y-117429545D01*
X193594843Y-117499110D01*
X193893064Y-117624406D01*
X194017627Y-117687421D01*
X194093098Y-117762892D01*
X194125339Y-117884525D01*
X194129235Y-117929927D01*
X194133399Y-118076500D01*
X194133238Y-118107405D01*
X194126804Y-118258217D01*
X194087969Y-118398900D01*
X193994913Y-118488293D01*
X193975185Y-118497370D01*
X193827851Y-118519801D01*
X193728021Y-118508718D01*
X193598507Y-118426011D01*
X193559710Y-118358343D01*
X193530363Y-118214253D01*
X193530363Y-118080896D01*
X193101717Y-118080896D01*
X192900000Y-118080896D01*
X192900000Y-115583816D01*
X201580060Y-115583816D01*
X201580060Y-119281780D01*
G37*
%TD.AperFunction*%
D12*
%TA.AperFunction,NonConductor*%
G36*
X197486364Y-117839829D02*
G01*
X197057718Y-117839829D01*
X197268011Y-116772243D01*
X197276071Y-116772243D01*
X197486364Y-117839829D01*
G37*
%TD.AperFunction*%
D11*
%TA.AperFunction,Conductor*%
G36*
X133460000Y-117740000D02*
G01*
X131600000Y-117740000D01*
X130090000Y-117740000D01*
X130090000Y-117585010D01*
X130209994Y-117585010D01*
X131600000Y-117585010D01*
X131600000Y-117585000D01*
X133350000Y-117585000D01*
X133350000Y-117344973D01*
X131600000Y-117344973D01*
X131600000Y-117344983D01*
X130209994Y-117344983D01*
X130209994Y-117585010D01*
X130090000Y-117585010D01*
X130090000Y-117344983D01*
X130090000Y-117160000D01*
X131600000Y-117160000D01*
X133460000Y-117160000D01*
X133460000Y-117740000D01*
G37*
%TD.AperFunction*%
D13*
X240252121Y-90919253D02*
X240935000Y-86350000D01*
D11*
%TA.AperFunction,Conductor*%
G36*
X109380009Y-115885150D02*
G01*
X109256140Y-115885150D01*
X109011781Y-115925927D01*
X108777466Y-116006367D01*
X108559587Y-116124277D01*
X108364087Y-116276441D01*
X108196298Y-116458708D01*
X108060798Y-116666106D01*
X107961283Y-116892978D01*
X107900467Y-117133135D01*
X107880009Y-117380027D01*
X107900467Y-117626919D01*
X107961283Y-117867076D01*
X108060798Y-118093948D01*
X108196298Y-118301346D01*
X108364087Y-118483613D01*
X108559587Y-118635777D01*
X108777466Y-118753687D01*
X109011781Y-118834127D01*
X109256140Y-118874904D01*
X109380009Y-118874904D01*
X109380009Y-118980027D01*
X107720009Y-118980027D01*
X107720009Y-115780027D01*
X109380009Y-115780027D01*
X109380009Y-115885150D01*
G37*
%TD.AperFunction*%
%TA.AperFunction,Conductor*%
G36*
X144542696Y-118707853D02*
G01*
X133550339Y-118707853D01*
X133550339Y-118470000D01*
X133777341Y-118470000D01*
X134063105Y-118470000D01*
X134063105Y-117625896D01*
X134236517Y-117625896D01*
X134505673Y-118470000D01*
X134808046Y-118470000D01*
X134969246Y-118470000D01*
X135813349Y-118470000D01*
X135813349Y-118184235D01*
X135255010Y-118184235D01*
X135255010Y-117907264D01*
X135942309Y-117907264D01*
X135942309Y-118013265D01*
X135950574Y-118104277D01*
X135979923Y-118199378D01*
X136017884Y-118269823D01*
X136081528Y-118348855D01*
X136146994Y-118402837D01*
X136234424Y-118449483D01*
X136327114Y-118476594D01*
X136426399Y-118485631D01*
X136459814Y-118484936D01*
X136559348Y-118473085D01*
X136656964Y-118441179D01*
X136737865Y-118392099D01*
X136810349Y-118318569D01*
X136860831Y-118229160D01*
X136890949Y-118135387D01*
X136898126Y-118101374D01*
X136911750Y-118001570D01*
X136915861Y-117902868D01*
X136913711Y-117812133D01*
X136904626Y-117708939D01*
X136894987Y-117652419D01*
X136864082Y-117557020D01*
X136841241Y-117518504D01*
X136774201Y-117444180D01*
X136712892Y-117401067D01*
X136624724Y-117358695D01*
X136412233Y-117272233D01*
X136327236Y-117228269D01*
X136279365Y-117175024D01*
X136258848Y-117105170D01*
X136254940Y-117006985D01*
X136262756Y-116911242D01*
X136292065Y-116828688D01*
X136347753Y-116773000D01*
X136438122Y-116750530D01*
X136507709Y-116760559D01*
X136586134Y-116821849D01*
X136616187Y-116888968D01*
X136630097Y-116990376D01*
X136630097Y-117054368D01*
X136915861Y-117054368D01*
X136915861Y-116951786D01*
X137140076Y-116951786D01*
X137140076Y-118000076D01*
X137140242Y-118015628D01*
X137150701Y-118116580D01*
X137182575Y-118215010D01*
X137228642Y-118292054D01*
X137295903Y-118363021D01*
X137359109Y-118410986D01*
X137450265Y-118455345D01*
X137526199Y-118476048D01*
X137624654Y-118485631D01*
X137701217Y-118479834D01*
X137740305Y-118470000D01*
X137798555Y-118455345D01*
X137876286Y-118419732D01*
X137956336Y-118363021D01*
X138014410Y-118301304D01*
X138066734Y-118215010D01*
X138074329Y-118197931D01*
X138101098Y-118103006D01*
X138109232Y-118000076D01*
X138109232Y-116950809D01*
X138109066Y-116935897D01*
X138098607Y-116837602D01*
X138066734Y-116738318D01*
X138021310Y-116658633D01*
X137956336Y-116584933D01*
X137891033Y-116538731D01*
X137798555Y-116495540D01*
X137722954Y-116474503D01*
X137669034Y-116469162D01*
X138331981Y-116469162D01*
X138331981Y-118470000D01*
X139176085Y-118470000D01*
X139176085Y-118184235D01*
X138617746Y-118184235D01*
X138617746Y-118019616D01*
X138617746Y-116469162D01*
X139367571Y-116469162D01*
X139367571Y-118019616D01*
X139374397Y-118102630D01*
X139403231Y-118200844D01*
X139440096Y-118269619D01*
X139502882Y-118347878D01*
X139561813Y-118399303D01*
X139647473Y-118449483D01*
X139721284Y-118474194D01*
X139823328Y-118485631D01*
X139903243Y-118478712D01*
X139999672Y-118449483D01*
X140068594Y-118412003D01*
X140146217Y-118347878D01*
X140195932Y-118287999D01*
X140243914Y-118200844D01*
X140268809Y-118119664D01*
X140278597Y-118019616D01*
X140278597Y-116754926D01*
X140278597Y-116469162D01*
X140434424Y-116469162D01*
X140434424Y-116754926D01*
X140773921Y-116754926D01*
X140773921Y-118470000D01*
X141059686Y-118470000D01*
X141059686Y-116754926D01*
X141372316Y-116754926D01*
X141372316Y-116469162D01*
X141518862Y-116469162D01*
X141518862Y-118470000D01*
X141804626Y-118470000D01*
X141804626Y-116951786D01*
X142058150Y-116951786D01*
X142058150Y-118000076D01*
X142058316Y-118015628D01*
X142068775Y-118116580D01*
X142100649Y-118215010D01*
X142146716Y-118292054D01*
X142213977Y-118363021D01*
X142277183Y-118410986D01*
X142368339Y-118455345D01*
X142444273Y-118476048D01*
X142542728Y-118485631D01*
X142619291Y-118479834D01*
X142658379Y-118470000D01*
X142716629Y-118455345D01*
X142794360Y-118419732D01*
X142874410Y-118363021D01*
X142932484Y-118301304D01*
X142984808Y-118215010D01*
X142992403Y-118197931D01*
X143019172Y-118103006D01*
X143027306Y-118000076D01*
X143027306Y-116950809D01*
X143027140Y-116935897D01*
X143016681Y-116837602D01*
X142984808Y-116738318D01*
X142939384Y-116658633D01*
X142874410Y-116584933D01*
X142809107Y-116538731D01*
X142716629Y-116495540D01*
X142641028Y-116474503D01*
X142587108Y-116469162D01*
X143250055Y-116469162D01*
X143250055Y-118470000D01*
X143535820Y-118470000D01*
X143535820Y-117267348D01*
X143984249Y-118470000D01*
X144250474Y-118470000D01*
X144250474Y-116469162D01*
X143964710Y-116469162D01*
X143964710Y-117674745D01*
X143522142Y-116469162D01*
X143250055Y-116469162D01*
X142587108Y-116469162D01*
X142542728Y-116464766D01*
X142466072Y-116470656D01*
X142368339Y-116495540D01*
X142296478Y-116527557D01*
X142213977Y-116584933D01*
X142150230Y-116653810D01*
X142100649Y-116738318D01*
X142093054Y-116755873D01*
X142066285Y-116850992D01*
X142058150Y-116950809D01*
X142058150Y-116951786D01*
X141804626Y-116951786D01*
X141804626Y-116950809D01*
X141804626Y-116469162D01*
X141518862Y-116469162D01*
X141372316Y-116469162D01*
X140434424Y-116469162D01*
X140278597Y-116469162D01*
X139992833Y-116469162D01*
X139992833Y-117992260D01*
X139987118Y-118058892D01*
X139944473Y-118149553D01*
X139918736Y-118171565D01*
X139822840Y-118199867D01*
X139787974Y-118196722D01*
X139701695Y-118149553D01*
X139666984Y-118089690D01*
X139653335Y-117992260D01*
X139653335Y-116469162D01*
X139367571Y-116469162D01*
X138617746Y-116469162D01*
X138331981Y-116469162D01*
X137669034Y-116469162D01*
X137624654Y-116464766D01*
X137547998Y-116470656D01*
X137450265Y-116495540D01*
X137378404Y-116527557D01*
X137295903Y-116584933D01*
X137232156Y-116653810D01*
X137182575Y-116738318D01*
X137174980Y-116755873D01*
X137148211Y-116850992D01*
X137140076Y-116950809D01*
X137140076Y-116951786D01*
X136915861Y-116951786D01*
X136915861Y-116950809D01*
X136915861Y-116914661D01*
X136914749Y-116882494D01*
X136894981Y-116780294D01*
X136850502Y-116685821D01*
X136789344Y-116607404D01*
X136725115Y-116552535D01*
X136639867Y-116503845D01*
X136549009Y-116474535D01*
X136449358Y-116464766D01*
X136434043Y-116464936D01*
X136334319Y-116475635D01*
X136236378Y-116508241D01*
X136159899Y-116554981D01*
X136089832Y-116623524D01*
X136036831Y-116703269D01*
X135998974Y-116796936D01*
X135995365Y-116809556D01*
X135975723Y-116906886D01*
X135969176Y-117008939D01*
X135969415Y-117032079D01*
X135976391Y-117130117D01*
X135995473Y-117227356D01*
X136030237Y-117320104D01*
X136038390Y-117335366D01*
X136099675Y-117412618D01*
X136179531Y-117473030D01*
X136271060Y-117519406D01*
X136469874Y-117602937D01*
X136552917Y-117644947D01*
X136603231Y-117695261D01*
X136624724Y-117776350D01*
X136627321Y-117806618D01*
X136630097Y-117904333D01*
X136629990Y-117924936D01*
X136625701Y-118025478D01*
X136599811Y-118119267D01*
X136537773Y-118178862D01*
X136524622Y-118184913D01*
X136426399Y-118199867D01*
X136359846Y-118192479D01*
X136273503Y-118137341D01*
X136247638Y-118092229D01*
X136228074Y-117996168D01*
X136228074Y-117907264D01*
X135942309Y-117907264D01*
X135255010Y-117907264D01*
X135255010Y-117594633D01*
X135750823Y-117594633D01*
X135750823Y-117308869D01*
X135255010Y-117308869D01*
X135255010Y-116754926D01*
X135813349Y-116754926D01*
X135813349Y-116469162D01*
X134969246Y-116469162D01*
X134969246Y-118470000D01*
X134808046Y-118470000D01*
X134499811Y-117567766D01*
X134563284Y-117526398D01*
X134639144Y-117453010D01*
X134691786Y-117366022D01*
X134722935Y-117273757D01*
X134741154Y-117168908D01*
X134746496Y-117062672D01*
X134742040Y-116956605D01*
X134722233Y-116831412D01*
X134686582Y-116724766D01*
X134635085Y-116636666D01*
X134548431Y-116552624D01*
X134461282Y-116506256D01*
X134358288Y-116478436D01*
X134239448Y-116469162D01*
X133777341Y-116469162D01*
X133777341Y-118470000D01*
X133550339Y-118470000D01*
X133550339Y-116245792D01*
X133555119Y-116245792D01*
X133555119Y-116242544D01*
X144542696Y-116242544D01*
X144542696Y-118707853D01*
G37*
%TD.AperFunction*%
D12*
%TA.AperFunction,NonConductor*%
G36*
X142591235Y-116755300D02*
G01*
X142682435Y-116799378D01*
X142722840Y-116852593D01*
X142741542Y-116951786D01*
X142741542Y-117999099D01*
X142734558Y-118063553D01*
X142682435Y-118151018D01*
X142639317Y-118178830D01*
X142543217Y-118199867D01*
X142494683Y-118195097D01*
X142403021Y-118151018D01*
X142362616Y-118097897D01*
X142343914Y-117999099D01*
X142343914Y-116951786D01*
X142350899Y-116887054D01*
X142403021Y-116799378D01*
X142446255Y-116771567D01*
X142543217Y-116750530D01*
X142591235Y-116755300D01*
G37*
%TD.AperFunction*%
D14*
X226255000Y-89480000D02*
X226815000Y-89480000D01*
D11*
%TA.AperFunction,Conductor*%
G36*
X188198210Y-117120000D02*
G01*
X187950000Y-117120000D01*
X187950000Y-118607853D01*
X182827876Y-118607853D01*
X182827876Y-118370000D01*
X182827876Y-116369162D01*
X183050098Y-116369162D01*
X183050098Y-118370000D01*
X183335862Y-118370000D01*
X183335862Y-116369162D01*
X183589386Y-116369162D01*
X183589386Y-118370000D01*
X183875150Y-118370000D01*
X183875150Y-117167348D01*
X184323580Y-118370000D01*
X184589805Y-118370000D01*
X184832094Y-118370000D01*
X185117858Y-118370000D01*
X185117858Y-117919616D01*
X185117858Y-117592819D01*
X185265869Y-117592819D01*
X185334020Y-117590201D01*
X185436819Y-117573531D01*
X185528186Y-117538108D01*
X185546518Y-117527372D01*
X185627619Y-117462099D01*
X185687432Y-117383747D01*
X185727682Y-117304800D01*
X185754355Y-117209357D01*
X185758018Y-117185376D01*
X185767406Y-117083753D01*
X185769986Y-116980746D01*
X185768216Y-116895292D01*
X185759998Y-116793046D01*
X185741654Y-116694982D01*
X185737994Y-116681839D01*
X185699111Y-116590076D01*
X185640049Y-116510334D01*
X185567141Y-116446772D01*
X185475429Y-116400425D01*
X185464021Y-116396639D01*
X185364644Y-116375146D01*
X185265869Y-116369162D01*
X185971242Y-116369162D01*
X185971242Y-117919616D01*
X185978068Y-118002630D01*
X186006902Y-118100844D01*
X186043767Y-118169619D01*
X186106553Y-118247878D01*
X186165484Y-118299303D01*
X186251145Y-118349483D01*
X186324956Y-118374194D01*
X186427000Y-118385631D01*
X186506915Y-118378712D01*
X186603343Y-118349483D01*
X186672265Y-118312003D01*
X186749889Y-118247878D01*
X186799603Y-118187999D01*
X186847586Y-118100844D01*
X186872480Y-118019664D01*
X186882268Y-117919616D01*
X186882268Y-116654926D01*
X186882268Y-116369162D01*
X187038095Y-116369162D01*
X187038095Y-116654926D01*
X187377593Y-116654926D01*
X187377593Y-118370000D01*
X187663357Y-118370000D01*
X187663357Y-116654926D01*
X187975988Y-116654926D01*
X187975988Y-116369162D01*
X187038095Y-116369162D01*
X186882268Y-116369162D01*
X186596504Y-116369162D01*
X186596504Y-117892260D01*
X186590790Y-117958892D01*
X186548144Y-118049553D01*
X186522407Y-118071565D01*
X186426511Y-118099867D01*
X186391645Y-118096722D01*
X186305367Y-118049553D01*
X186270655Y-117989690D01*
X186257007Y-117892260D01*
X186257007Y-116369162D01*
X185971242Y-116369162D01*
X185265869Y-116369162D01*
X184832094Y-116369162D01*
X184832094Y-117307055D01*
X184832094Y-118370000D01*
X184589805Y-118370000D01*
X184589805Y-117307055D01*
X184589805Y-116369162D01*
X184304041Y-116369162D01*
X184304041Y-117574745D01*
X183861473Y-116369162D01*
X183589386Y-116369162D01*
X183335862Y-116369162D01*
X183050098Y-116369162D01*
X182827876Y-116369162D01*
X182827876Y-116146940D01*
X188198210Y-116146940D01*
X188198210Y-117120000D01*
G37*
%TD.AperFunction*%
D12*
%TA.AperFunction,NonConductor*%
G36*
X151352690Y-116346030D02*
G01*
X151488144Y-116405879D01*
X151495686Y-116413492D01*
X151550426Y-116552424D01*
X151550426Y-116983269D01*
X151550183Y-116994062D01*
X151488144Y-117130547D01*
X151480276Y-117137734D01*
X151342331Y-117189898D01*
X151332062Y-117189666D01*
X151197251Y-117130547D01*
X151189709Y-117122931D01*
X151134969Y-116983269D01*
X151134969Y-116552424D01*
X151135212Y-116541720D01*
X151197251Y-116405879D01*
X151205116Y-116398603D01*
X151342331Y-116345795D01*
X151352690Y-116346030D01*
G37*
%TD.AperFunction*%
D11*
%TA.AperFunction,Conductor*%
G36*
X201350000Y-120110000D02*
G01*
X101140000Y-120170000D01*
X101140000Y-119494983D01*
X101419994Y-119494983D01*
X101419994Y-119845010D01*
X201240000Y-119845000D01*
X201240000Y-119494973D01*
X101140000Y-119494983D01*
X101140000Y-119310000D01*
X201350000Y-119310000D01*
X201350000Y-120110000D01*
G37*
%TD.AperFunction*%
%TA.AperFunction,Conductor*%
G36*
X147870000Y-117730000D02*
G01*
X146010000Y-117730000D01*
X144500000Y-117730000D01*
X144500000Y-117575010D01*
X144619994Y-117575010D01*
X146010000Y-117575010D01*
X146010000Y-117575000D01*
X147760000Y-117575000D01*
X147760000Y-117334973D01*
X146010000Y-117334973D01*
X146010000Y-117334983D01*
X144619994Y-117334983D01*
X144619994Y-117575010D01*
X144500000Y-117575010D01*
X144500000Y-117334983D01*
X144500000Y-117150000D01*
X146010000Y-117150000D01*
X147870000Y-117150000D01*
X147870000Y-117730000D01*
G37*
%TD.AperFunction*%
%TA.AperFunction,Conductor*%
%TO.N,2*%
G36*
X243476323Y-87040594D02*
G01*
X243795146Y-87040594D01*
X243795146Y-87359417D01*
X244431469Y-87359417D01*
X244431469Y-87676917D01*
X245383969Y-87676917D01*
X245383969Y-87993094D01*
X246335146Y-87993094D01*
X246335146Y-88310594D01*
X246653969Y-88310594D01*
X246653969Y-88629417D01*
X246972792Y-88629417D01*
X246972792Y-88948240D01*
X247288969Y-88948240D01*
X247288969Y-89264417D01*
X247446892Y-89263921D01*
X247525047Y-89262743D01*
X247603823Y-89260449D01*
X247603823Y-90541032D01*
X247291614Y-90541032D01*
X247291614Y-90859855D01*
X246975437Y-90859855D01*
X246975437Y-91172063D01*
X244107354Y-91172063D01*
X244107354Y-90863824D01*
X243799114Y-90863824D01*
X243799114Y-91173386D01*
X241888823Y-91173386D01*
X241888823Y-90535740D01*
X242514562Y-90535740D01*
X242514562Y-89592500D01*
X242203677Y-89592500D01*
X242203677Y-89276323D01*
X241884854Y-89276323D01*
X241884854Y-88640000D01*
X241570000Y-88640000D01*
X241570000Y-88633386D01*
X241899406Y-88633386D01*
X242214260Y-88633386D01*
X242214260Y-89269709D01*
X242533083Y-89269709D01*
X242533083Y-89588531D01*
X242842645Y-89588531D01*
X242842645Y-90548969D01*
X242534406Y-90548969D01*
X242534406Y-90851917D01*
X243792499Y-90851917D01*
X243792499Y-90543677D01*
X244120583Y-90543677D01*
X244120583Y-90850594D01*
X246966177Y-90850594D01*
X246966177Y-90535740D01*
X247278385Y-90535740D01*
X247278385Y-89273677D01*
X246963531Y-89273677D01*
X246963531Y-88954854D01*
X246644708Y-88954854D01*
X246644708Y-88636031D01*
X246328531Y-88636031D01*
X246328531Y-88319854D01*
X245374708Y-88319854D01*
X245374708Y-88001031D01*
X244420885Y-88001031D01*
X244420885Y-87691469D01*
X243803083Y-87691469D01*
X243803083Y-88315886D01*
X244112645Y-88315886D01*
X244112645Y-89587208D01*
X243472354Y-89587208D01*
X243472354Y-89272354D01*
X243153531Y-89272354D01*
X243153531Y-88953531D01*
X242841322Y-88953531D01*
X242841322Y-87682208D01*
X243166760Y-87682208D01*
X243166760Y-88950885D01*
X243482937Y-88950885D01*
X243482937Y-89261771D01*
X243784562Y-89261771D01*
X243784562Y-88318531D01*
X243477645Y-88318531D01*
X243477645Y-87675594D01*
X243785885Y-87675594D01*
X243785885Y-87367354D01*
X243472354Y-87367354D01*
X243472354Y-87057792D01*
X242211614Y-87057792D01*
X242211614Y-87372646D01*
X241899406Y-87372646D01*
X241899406Y-88633386D01*
X241570000Y-88633386D01*
X241570000Y-87372646D01*
X241570000Y-87362063D01*
X241879562Y-87362063D01*
X241879562Y-87045886D01*
X242198385Y-87045886D01*
X242198385Y-86731032D01*
X243476323Y-86731032D01*
X243476323Y-87040594D01*
G37*
%TD.AperFunction*%
%TA.AperFunction,Conductor*%
%TO.N,1*%
G36*
X107720278Y-118978360D02*
G01*
X101087318Y-118978360D01*
X101087318Y-118885027D01*
X101420651Y-118885027D01*
X101849297Y-118885027D01*
X101849297Y-117618872D01*
X102109416Y-117618872D01*
X102513149Y-118885027D01*
X102966708Y-118885027D01*
X102504357Y-117531677D01*
X102599565Y-117469624D01*
X102713356Y-117359543D01*
X102792319Y-117229060D01*
X102839042Y-117090662D01*
X102866370Y-116933390D01*
X102874384Y-116774036D01*
X102867700Y-116614935D01*
X102837990Y-116427145D01*
X102799636Y-116312417D01*
X102784512Y-116267176D01*
X102707267Y-116135027D01*
X102577286Y-116008964D01*
X102446563Y-115939412D01*
X102292071Y-115897681D01*
X102113812Y-115883770D01*
X102944726Y-115883770D01*
X102944726Y-116312417D01*
X103453973Y-116312417D01*
X103453973Y-118885027D01*
X103882619Y-118885027D01*
X103882619Y-118469569D01*
X104383805Y-118469569D01*
X105227909Y-118469569D01*
X105227909Y-118885027D01*
X105656555Y-118885027D01*
X106086666Y-118885027D01*
X106515313Y-118885027D01*
X106515313Y-117987434D01*
X106746122Y-117552926D01*
X107233387Y-118885027D01*
X107686945Y-118885027D01*
X106993784Y-117085445D01*
X107577769Y-115883770D01*
X107149123Y-115883770D01*
X106523373Y-117253973D01*
X106515313Y-117253973D01*
X106515313Y-115883770D01*
X106086666Y-115883770D01*
X106086666Y-118885027D01*
X105656555Y-118885027D01*
X105656555Y-118469569D01*
X105884433Y-118469569D01*
X105884433Y-118040923D01*
X105656555Y-118040923D01*
X105656555Y-117196820D01*
X105227909Y-117196820D01*
X105227909Y-118040923D01*
X104808055Y-118040923D01*
X105446262Y-115883770D01*
X104994901Y-115883770D01*
X104383805Y-118040923D01*
X104383805Y-118469569D01*
X103882619Y-118469569D01*
X103882619Y-118040923D01*
X103882619Y-116312417D01*
X104351565Y-116312417D01*
X104351565Y-115883770D01*
X102944726Y-115883770D01*
X102113812Y-115883770D01*
X101420651Y-115883770D01*
X101420651Y-117243715D01*
X101420651Y-118885027D01*
X101087318Y-118885027D01*
X101087318Y-117243715D01*
X101087318Y-115780437D01*
X107720278Y-115780437D01*
X107720278Y-118978360D01*
G37*
%TD.AperFunction*%
D15*
G36*
X227500167Y-88044741D02*
G01*
X227928813Y-88044741D01*
X227928813Y-90372620D01*
X227916677Y-90518708D01*
X227874012Y-90660066D01*
X227790579Y-90788579D01*
X227734640Y-90841566D01*
X227603121Y-90924642D01*
X227451280Y-90976949D01*
X227297248Y-90997718D01*
X227242247Y-90999103D01*
X227242247Y-90570457D01*
X227386332Y-90543075D01*
X227447411Y-90492787D01*
X227489909Y-90375551D01*
X227499917Y-90224121D01*
X227500167Y-90189438D01*
X227500167Y-88044741D01*
G37*
G36*
X227500167Y-87582390D02*
G01*
X227500167Y-87153743D01*
X227928813Y-87153743D01*
X227928813Y-87582390D01*
X227500167Y-87582390D01*
G37*
G36*
X229646329Y-88031552D02*
G01*
X229217683Y-88031552D01*
X229217683Y-87935565D01*
X229196817Y-87783452D01*
X229151737Y-87682773D01*
X229034100Y-87590839D01*
X228929720Y-87575795D01*
X228794166Y-87609501D01*
X228710635Y-87693032D01*
X228666671Y-87816863D01*
X228654947Y-87960478D01*
X228660809Y-88107756D01*
X228691584Y-88212536D01*
X228763391Y-88292404D01*
X228890886Y-88358349D01*
X229209623Y-88488042D01*
X229341874Y-88551601D01*
X229433838Y-88616270D01*
X229534399Y-88727756D01*
X229568660Y-88785530D01*
X229615017Y-88928629D01*
X229629476Y-89013408D01*
X229643103Y-89168200D01*
X229646329Y-89304302D01*
X229640162Y-89452356D01*
X229619725Y-89602061D01*
X229608960Y-89653080D01*
X229563783Y-89793741D01*
X229488060Y-89927854D01*
X229379334Y-90038149D01*
X229257983Y-90111769D01*
X229111559Y-90159628D01*
X228962258Y-90177405D01*
X228912135Y-90178447D01*
X228763208Y-90164891D01*
X228624173Y-90124225D01*
X228493028Y-90054255D01*
X228394829Y-89973283D01*
X228299362Y-89854735D01*
X228242421Y-89749068D01*
X228198398Y-89606416D01*
X228186001Y-89469898D01*
X228186001Y-89310896D01*
X228614647Y-89310896D01*
X228614647Y-89444253D01*
X228643994Y-89588343D01*
X228682791Y-89656011D01*
X228812306Y-89738718D01*
X228912135Y-89749801D01*
X229059469Y-89727370D01*
X229079197Y-89718293D01*
X229172254Y-89628900D01*
X229211088Y-89488217D01*
X229217522Y-89337405D01*
X229217683Y-89306500D01*
X229213519Y-89159927D01*
X229209623Y-89114525D01*
X229177383Y-88992892D01*
X229101912Y-88917421D01*
X228977348Y-88854406D01*
X228679127Y-88729110D01*
X228541833Y-88659545D01*
X228422049Y-88568927D01*
X228330122Y-88453049D01*
X228317892Y-88430157D01*
X228265746Y-88291035D01*
X228237124Y-88145176D01*
X228226659Y-87998119D01*
X228226301Y-87963408D01*
X228236122Y-87810330D01*
X228265585Y-87664335D01*
X228270997Y-87645404D01*
X228327784Y-87504904D01*
X228407285Y-87385286D01*
X228512386Y-87282472D01*
X228627104Y-87212362D01*
X228774016Y-87163452D01*
X228923601Y-87147404D01*
X228946573Y-87147149D01*
X229096050Y-87161803D01*
X229232337Y-87205767D01*
X229360210Y-87278802D01*
X229456552Y-87361106D01*
X229548290Y-87478732D01*
X229615008Y-87620441D01*
X229644661Y-87773741D01*
X229646329Y-87821992D01*
X229646329Y-88031552D01*
G37*
G36*
X229982651Y-90155000D02*
G01*
X229982651Y-88044741D01*
X230411298Y-88044741D01*
X230411298Y-88251371D01*
X230420090Y-88251371D01*
X230518966Y-88135079D01*
X230579825Y-88086507D01*
X230717097Y-88030465D01*
X230818695Y-88021294D01*
X230965391Y-88045059D01*
X231047306Y-88088705D01*
X231157312Y-88186275D01*
X231196782Y-88234518D01*
X231307589Y-88130488D01*
X231371172Y-88084309D01*
X231510893Y-88031694D01*
X231637152Y-88021294D01*
X231784195Y-88043560D01*
X231799818Y-88048405D01*
X231928257Y-88119193D01*
X231949295Y-88137798D01*
X232038274Y-88257027D01*
X232057739Y-88298265D01*
X232094569Y-88445106D01*
X232099504Y-88537135D01*
X232099504Y-90155000D01*
X231670858Y-90155000D01*
X231670858Y-88698335D01*
X231640770Y-88552705D01*
X231617369Y-88516618D01*
X231483109Y-88450526D01*
X231464961Y-88449940D01*
X231323514Y-88495557D01*
X231300097Y-88524678D01*
X231258936Y-88665886D01*
X231255401Y-88740101D01*
X231255401Y-90155000D01*
X230826755Y-90155000D01*
X230826755Y-88698335D01*
X230796667Y-88552705D01*
X230773265Y-88516618D01*
X230639608Y-88450526D01*
X230621591Y-88449940D01*
X230480143Y-88495557D01*
X230456727Y-88524678D01*
X230414891Y-88665886D01*
X230411298Y-88740101D01*
X230411298Y-90155000D01*
X229982651Y-90155000D01*
G37*
G36*
X233186029Y-88034509D02*
G01*
X233293119Y-88063060D01*
X233429761Y-88131295D01*
X233500481Y-88187623D01*
X233593274Y-88308066D01*
X233636036Y-88395718D01*
X233676057Y-88540062D01*
X233687327Y-88687344D01*
X233687327Y-90155000D01*
X233258681Y-90155000D01*
X233258681Y-89937379D01*
X233250621Y-89937379D01*
X233155128Y-90051290D01*
X233079895Y-90116165D01*
X232936751Y-90171087D01*
X232838094Y-90178447D01*
X232689074Y-90156442D01*
X232684221Y-90155000D01*
X232552788Y-90084394D01*
X232534745Y-90069270D01*
X232442284Y-89951667D01*
X232418241Y-89899277D01*
X232382692Y-89753347D01*
X232374277Y-89611315D01*
X232377526Y-89524853D01*
X232802923Y-89524853D01*
X232830630Y-89673302D01*
X232861542Y-89726353D01*
X232988461Y-89800585D01*
X233026406Y-89803290D01*
X233168175Y-89759015D01*
X233197131Y-89730750D01*
X233253812Y-89595434D01*
X233258681Y-89525586D01*
X233258681Y-89230296D01*
X233140711Y-89217107D01*
X232988985Y-89240614D01*
X232901842Y-89283785D01*
X232816834Y-89408864D01*
X232802923Y-89524853D01*
X232377526Y-89524853D01*
X232379887Y-89462010D01*
X232400037Y-89311984D01*
X232403586Y-89294776D01*
X232452917Y-89154771D01*
X232512763Y-89065432D01*
X232629828Y-88972067D01*
X232720125Y-88932808D01*
X232868319Y-88899836D01*
X233014895Y-88889231D01*
X233052051Y-88888845D01*
X233098946Y-88888845D01*
X233145108Y-88888845D01*
X233195666Y-88888845D01*
X233258681Y-88901301D01*
X233258681Y-88689542D01*
X233227723Y-88544651D01*
X233211786Y-88518084D01*
X233080159Y-88451604D01*
X233043991Y-88449940D01*
X232902572Y-88492667D01*
X232889385Y-88501964D01*
X232806348Y-88622946D01*
X232798527Y-88652906D01*
X232391130Y-88652906D01*
X232405156Y-88503511D01*
X232453642Y-88357366D01*
X232536761Y-88232115D01*
X232568450Y-88198614D01*
X232687862Y-88109485D01*
X232772149Y-88068921D01*
X232914962Y-88030410D01*
X233038862Y-88021294D01*
X233186029Y-88034509D01*
G37*
G36*
X234021451Y-90155000D02*
G01*
X234021451Y-88044741D01*
X234450097Y-88044741D01*
X234450097Y-88272620D01*
X234569183Y-88173820D01*
X234693724Y-88092922D01*
X234701423Y-88088705D01*
X234839542Y-88038147D01*
X234994983Y-88021360D01*
X235006238Y-88021294D01*
X235006238Y-88474853D01*
X234878743Y-88449940D01*
X234736594Y-88472655D01*
X234606592Y-88542293D01*
X234598841Y-88548859D01*
X234504772Y-88663832D01*
X234491130Y-88690275D01*
X234453343Y-88837194D01*
X234450097Y-88906430D01*
X234450097Y-90155000D01*
X234021451Y-90155000D01*
G37*
G36*
X235181360Y-88044741D02*
G01*
X235181360Y-87364769D01*
X235610007Y-87364769D01*
X235610007Y-88044741D01*
X235844480Y-88044741D01*
X235844480Y-88373004D01*
X235610007Y-88373004D01*
X235610007Y-89521922D01*
X235623196Y-89636960D01*
X235665694Y-89697777D01*
X235738234Y-89722690D01*
X235844480Y-89726353D01*
X235844480Y-90155000D01*
X235675219Y-90155000D01*
X235524431Y-90138984D01*
X235440013Y-90109570D01*
X235316276Y-90022237D01*
X235289804Y-89992334D01*
X235215982Y-89859354D01*
X235207006Y-89831866D01*
X235181986Y-89684474D01*
X235181360Y-89658210D01*
X235181360Y-88373004D01*
X234953482Y-88373004D01*
X234953482Y-88044741D01*
X235181360Y-88044741D01*
G37*
G36*
X237410321Y-88031552D02*
G01*
X236981674Y-88031552D01*
X236981674Y-87935565D01*
X236960809Y-87783452D01*
X236915729Y-87682773D01*
X236798091Y-87590839D01*
X236693712Y-87575795D01*
X236558157Y-87609501D01*
X236474626Y-87693032D01*
X236430662Y-87816863D01*
X236418939Y-87960478D01*
X236424801Y-88107756D01*
X236455575Y-88212536D01*
X236527383Y-88292404D01*
X236654877Y-88358349D01*
X236973614Y-88488042D01*
X237105866Y-88551601D01*
X237197829Y-88616270D01*
X237298391Y-88727756D01*
X237332651Y-88785530D01*
X237379009Y-88928629D01*
X237393468Y-89013408D01*
X237407095Y-89168200D01*
X237410321Y-89304302D01*
X237404153Y-89452356D01*
X237383717Y-89602061D01*
X237372951Y-89653080D01*
X237327775Y-89793741D01*
X237252051Y-89927854D01*
X237143325Y-90038149D01*
X237021974Y-90111769D01*
X236875550Y-90159628D01*
X236726250Y-90177405D01*
X236676127Y-90178447D01*
X236527199Y-90164891D01*
X236388164Y-90124225D01*
X236257019Y-90054255D01*
X236158820Y-89973283D01*
X236063354Y-89854735D01*
X236006413Y-89749068D01*
X235962390Y-89606416D01*
X235949993Y-89469898D01*
X235949993Y-89310896D01*
X236378639Y-89310896D01*
X236378639Y-89444253D01*
X236407986Y-89588343D01*
X236446782Y-89656011D01*
X236576297Y-89738718D01*
X236676127Y-89749801D01*
X236823461Y-89727370D01*
X236843189Y-89718293D01*
X236936245Y-89628900D01*
X236975080Y-89488217D01*
X236981513Y-89337405D01*
X236981674Y-89306500D01*
X236977511Y-89159927D01*
X236973614Y-89114525D01*
X236941374Y-88992892D01*
X236865903Y-88917421D01*
X236741339Y-88854406D01*
X236443119Y-88729110D01*
X236305825Y-88659545D01*
X236186041Y-88568927D01*
X236094114Y-88453049D01*
X236081884Y-88430157D01*
X236029738Y-88291035D01*
X236001115Y-88145176D01*
X235990650Y-87998119D01*
X235990293Y-87963408D01*
X236000114Y-87810330D01*
X236029577Y-87664335D01*
X236034989Y-87645404D01*
X236091776Y-87504904D01*
X236171277Y-87385286D01*
X236276377Y-87282472D01*
X236391095Y-87212362D01*
X236538007Y-87163452D01*
X236687593Y-87147404D01*
X236710565Y-87147149D01*
X236860041Y-87161803D01*
X236996329Y-87205767D01*
X237124201Y-87278802D01*
X237220544Y-87361106D01*
X237312282Y-87478732D01*
X237379000Y-87620441D01*
X237408653Y-87773741D01*
X237410321Y-87821992D01*
X237410321Y-88031552D01*
G37*
G36*
X239982198Y-87153743D02*
G01*
X239537431Y-90155000D01*
X239133698Y-90155000D01*
X238806168Y-88207407D01*
X238798108Y-88207407D01*
X238474975Y-90155000D01*
X238071242Y-90155000D01*
X237626475Y-87153743D01*
X238080034Y-87153743D01*
X238293991Y-89058838D01*
X238302784Y-89058838D01*
X238638374Y-87153743D01*
X238965903Y-87153743D01*
X239314682Y-89105732D01*
X239322742Y-89105732D01*
X239528639Y-87153743D01*
X239982198Y-87153743D01*
G37*
G36*
X215570949Y-116365785D02*
G01*
X215701123Y-116447644D01*
X215752780Y-116561767D01*
X215770000Y-116715090D01*
X215770000Y-118129256D01*
X215758028Y-118266762D01*
X215697459Y-118407693D01*
X215599457Y-118474188D01*
X215450530Y-118496353D01*
X215260753Y-118496353D01*
X215260753Y-116352390D01*
X215450530Y-116352390D01*
X215570949Y-116365785D01*
G37*
G36*
X224391166Y-116353426D02*
G01*
X224539295Y-116381882D01*
X224656531Y-116470359D01*
X224661194Y-116478239D01*
X224707090Y-116619103D01*
X224713465Y-116669470D01*
X224720279Y-116817672D01*
X224719648Y-116866063D01*
X224707090Y-117017707D01*
X224660928Y-117162055D01*
X224553949Y-117252180D01*
X224516947Y-117265965D01*
X224370767Y-117283688D01*
X224123838Y-117283688D01*
X224123838Y-116352390D01*
X224350251Y-116352390D01*
X224391166Y-116353426D01*
G37*
G36*
X225574582Y-119258333D02*
G01*
X214498774Y-119258333D01*
X214498774Y-116352390D01*
X214832107Y-116352390D01*
X214832107Y-118496353D01*
X214832107Y-118925000D01*
X215419755Y-118925000D01*
X216666859Y-118925000D01*
X217095505Y-118925000D01*
X217475792Y-118925000D01*
X217904438Y-118925000D01*
X217904438Y-117099773D01*
X218328688Y-118389375D01*
X218543377Y-118389375D01*
X218968360Y-117099773D01*
X218976420Y-117099773D01*
X218976420Y-118925000D01*
X219405066Y-118925000D01*
X219808799Y-118925000D01*
X220237445Y-118925000D01*
X220237445Y-117099773D01*
X220661695Y-118389375D01*
X220876385Y-118389375D01*
X221301367Y-117099773D01*
X221309427Y-117099773D01*
X221309427Y-118925000D01*
X221738074Y-118925000D01*
X222141807Y-118925000D01*
X223407962Y-118925000D01*
X223407962Y-118496353D01*
X222570453Y-118496353D01*
X222570453Y-117611950D01*
X223314173Y-117611950D01*
X223314173Y-117183304D01*
X222570453Y-117183304D01*
X222570453Y-116352390D01*
X223407962Y-116352390D01*
X223695191Y-116352390D01*
X223695191Y-117283688D01*
X223695191Y-118925000D01*
X224123838Y-118925000D01*
X224123838Y-117658845D01*
X224383956Y-117658845D01*
X224787690Y-118925000D01*
X225241249Y-118925000D01*
X224778897Y-117571650D01*
X224874106Y-117509597D01*
X224987896Y-117399516D01*
X225066859Y-117269033D01*
X225113582Y-117130635D01*
X225140911Y-116973363D01*
X225148925Y-116814009D01*
X225142240Y-116654908D01*
X225112530Y-116467118D01*
X225059053Y-116307149D01*
X224981807Y-116175000D01*
X224851826Y-116048937D01*
X224721103Y-115979385D01*
X224566612Y-115937654D01*
X224388353Y-115923743D01*
X223695191Y-115923743D01*
X223695191Y-116352390D01*
X223407962Y-116352390D01*
X223407962Y-115923743D01*
X222141807Y-115923743D01*
X222141807Y-118925000D01*
X221738074Y-118925000D01*
X221738074Y-115923743D01*
X221321884Y-115923743D01*
X220775268Y-117513032D01*
X220767208Y-117513032D01*
X220216929Y-115923743D01*
X219808799Y-115923743D01*
X219808799Y-118925000D01*
X219405066Y-118925000D01*
X219405066Y-115923743D01*
X218988876Y-115923743D01*
X218442261Y-117513032D01*
X218434201Y-117513032D01*
X217883921Y-115923743D01*
X217475792Y-115923743D01*
X217475792Y-118925000D01*
X217095505Y-118925000D01*
X217095505Y-115923743D01*
X216666859Y-115923743D01*
X216666859Y-118925000D01*
X215419755Y-118925000D01*
X215576398Y-118915428D01*
X215734725Y-118881047D01*
X215870978Y-118821661D01*
X215997878Y-118724965D01*
X216033757Y-118685507D01*
X216112182Y-118561206D01*
X216165511Y-118409154D01*
X216191587Y-118253342D01*
X216198646Y-118102878D01*
X216198646Y-116698970D01*
X216192000Y-116565860D01*
X216162462Y-116406812D01*
X216100985Y-116253063D01*
X216009602Y-116125976D01*
X215904501Y-116037500D01*
X215760097Y-115968179D01*
X215608479Y-115933421D01*
X215457857Y-115923743D01*
X214832107Y-115923743D01*
X214832107Y-116352390D01*
X214498774Y-116352390D01*
X214498774Y-115590410D01*
X225574582Y-115590410D01*
X225574582Y-119258333D01*
G37*
G36*
X80778060Y-116801552D02*
G01*
X80349414Y-116801552D01*
X80349414Y-116705565D01*
X80328548Y-116553452D01*
X80283468Y-116452773D01*
X80165831Y-116360839D01*
X80061451Y-116345795D01*
X79925896Y-116379501D01*
X79842365Y-116463032D01*
X79798402Y-116586863D01*
X79786678Y-116730478D01*
X79792540Y-116877756D01*
X79823314Y-116982536D01*
X79895122Y-117062404D01*
X80022617Y-117128349D01*
X80341354Y-117258042D01*
X80473605Y-117321601D01*
X80565568Y-117386270D01*
X80666130Y-117497756D01*
X80700391Y-117555530D01*
X80746748Y-117698629D01*
X80761207Y-117783408D01*
X80774834Y-117938200D01*
X80778060Y-118074302D01*
X80771892Y-118222356D01*
X80751456Y-118372061D01*
X80740691Y-118423080D01*
X80695514Y-118563741D01*
X80619790Y-118697854D01*
X80511065Y-118808149D01*
X80389714Y-118881769D01*
X80243290Y-118929628D01*
X80093989Y-118947405D01*
X80043866Y-118948447D01*
X79894939Y-118934891D01*
X79755903Y-118894225D01*
X79624759Y-118824255D01*
X79526559Y-118743283D01*
X79431093Y-118624735D01*
X79374152Y-118519068D01*
X79330129Y-118376416D01*
X79317732Y-118239898D01*
X79317732Y-118080896D01*
X79746378Y-118080896D01*
X79746378Y-118214253D01*
X79775725Y-118358343D01*
X79814522Y-118426011D01*
X79944036Y-118508718D01*
X80043866Y-118519801D01*
X80191200Y-118497370D01*
X80210928Y-118488293D01*
X80303984Y-118398900D01*
X80342819Y-118258217D01*
X80349253Y-118107405D01*
X80349414Y-118076500D01*
X80345250Y-117929927D01*
X80341354Y-117884525D01*
X80309113Y-117762892D01*
X80233642Y-117687421D01*
X80109079Y-117624406D01*
X79810858Y-117499110D01*
X79673564Y-117429545D01*
X79553780Y-117338927D01*
X79461853Y-117223049D01*
X79449623Y-117200157D01*
X79397477Y-117061035D01*
X79368855Y-116915176D01*
X79358390Y-116768119D01*
X79358032Y-116733408D01*
X79367853Y-116580330D01*
X79397316Y-116434335D01*
X79402728Y-116415404D01*
X79459515Y-116274904D01*
X79539016Y-116155286D01*
X79644117Y-116052472D01*
X79758834Y-115982362D01*
X79905746Y-115933452D01*
X80055332Y-115917404D01*
X80078304Y-115917149D01*
X80227781Y-115931803D01*
X80364068Y-115975767D01*
X80491941Y-116048802D01*
X80588283Y-116131106D01*
X80680021Y-116248732D01*
X80746739Y-116390441D01*
X80776392Y-116543741D01*
X80778060Y-116591992D01*
X80778060Y-116801552D01*
G37*
G36*
X81114382Y-118925000D02*
G01*
X81114382Y-115923743D01*
X81543028Y-115923743D01*
X81543028Y-117236793D01*
X82052275Y-117236793D01*
X82052275Y-115923743D01*
X82480921Y-115923743D01*
X82480921Y-118925000D01*
X82052275Y-118925000D01*
X82052275Y-117611950D01*
X81543028Y-117611950D01*
X81543028Y-118925000D01*
X81114382Y-118925000D01*
G37*
G36*
X82949134Y-118925000D02*
G01*
X82949134Y-115923743D01*
X83377781Y-115923743D01*
X83377781Y-118925000D01*
X82949134Y-118925000D01*
G37*
G36*
X83758067Y-118925000D02*
G01*
X83758067Y-115923743D01*
X85024222Y-115923743D01*
X85024222Y-116352390D01*
X84186713Y-116352390D01*
X84186713Y-117230198D01*
X84930432Y-117230198D01*
X84930432Y-117658845D01*
X84186713Y-117658845D01*
X84186713Y-118925000D01*
X83758067Y-118925000D01*
G37*
G36*
X85633119Y-118925000D02*
G01*
X85633119Y-116352390D01*
X85123873Y-116352390D01*
X85123873Y-115923743D01*
X86530712Y-115923743D01*
X86530712Y-116352390D01*
X86061765Y-116352390D01*
X86061765Y-118925000D01*
X85633119Y-118925000D01*
G37*
G36*
X245332747Y-116352951D02*
G01*
X245469546Y-116419068D01*
X245530154Y-116498890D01*
X245558207Y-116647679D01*
X245558207Y-118218649D01*
X245547730Y-118315330D01*
X245469546Y-118446528D01*
X245404869Y-118488245D01*
X245260719Y-118519801D01*
X245187918Y-118512645D01*
X245050426Y-118446528D01*
X244989818Y-118366846D01*
X244961765Y-118218649D01*
X244961765Y-116647679D01*
X244972242Y-116550581D01*
X245050426Y-116419068D01*
X245115276Y-116377351D01*
X245260719Y-116345795D01*
X245332747Y-116352951D01*
G37*
G36*
X240573454Y-117839829D02*
G01*
X240144808Y-117839829D01*
X240355101Y-116772243D01*
X240363161Y-116772243D01*
X240573454Y-117839829D01*
G37*
G36*
X246320186Y-119281780D02*
G01*
X239181329Y-119281780D01*
X239181329Y-118925000D01*
X239514662Y-118925000D01*
X239943308Y-118925000D01*
X240069337Y-118268475D01*
X240653322Y-118268475D01*
X240779351Y-118925000D01*
X241207264Y-118925000D01*
X241057008Y-118249424D01*
X241402903Y-118249424D01*
X241413141Y-118373945D01*
X241456392Y-118521266D01*
X241511690Y-118624429D01*
X241605869Y-118741817D01*
X241694266Y-118818954D01*
X241822756Y-118894225D01*
X241933473Y-118931291D01*
X242086539Y-118948447D01*
X242206411Y-118938068D01*
X242351054Y-118894225D01*
X242454437Y-118838005D01*
X242570872Y-118741817D01*
X242645445Y-118651998D01*
X242717418Y-118521266D01*
X242754759Y-118399496D01*
X242769442Y-118249424D01*
X242769442Y-116352390D01*
X243003182Y-116352390D01*
X243512428Y-116352390D01*
X243512428Y-118925000D01*
X243941075Y-118925000D01*
X243941075Y-116646214D01*
X244533119Y-116646214D01*
X244533119Y-116647679D01*
X244533119Y-118218649D01*
X244533119Y-118220115D01*
X244533368Y-118243442D01*
X244549056Y-118394870D01*
X244596867Y-118542515D01*
X244665968Y-118658081D01*
X244766860Y-118764532D01*
X244861668Y-118836480D01*
X244998402Y-118903018D01*
X245112304Y-118934073D01*
X245259986Y-118948447D01*
X245374830Y-118939751D01*
X245520837Y-118903018D01*
X245637434Y-118849598D01*
X245757509Y-118764532D01*
X245844620Y-118671957D01*
X245923105Y-118542515D01*
X245934498Y-118516897D01*
X245974651Y-118374509D01*
X245986853Y-118220115D01*
X245986853Y-116646214D01*
X245986604Y-116623845D01*
X245970916Y-116476404D01*
X245923105Y-116327477D01*
X245854970Y-116207950D01*
X245757509Y-116097400D01*
X245659555Y-116028097D01*
X245520837Y-115963311D01*
X245407436Y-115931755D01*
X245259986Y-115917149D01*
X245145002Y-115925985D01*
X244998402Y-115963311D01*
X244890611Y-116011336D01*
X244766860Y-116097400D01*
X244671239Y-116200715D01*
X244596867Y-116327477D01*
X244585474Y-116353810D01*
X244545321Y-116496488D01*
X244533119Y-116646214D01*
X243941075Y-116646214D01*
X243941075Y-116352390D01*
X244410021Y-116352390D01*
X244410021Y-115923743D01*
X243003182Y-115923743D01*
X243003182Y-116352390D01*
X242769442Y-116352390D01*
X242769442Y-115923743D01*
X242340795Y-115923743D01*
X242340795Y-118208391D01*
X242332224Y-118308338D01*
X242268255Y-118444330D01*
X242229650Y-118477348D01*
X242085806Y-118519801D01*
X242033507Y-118515084D01*
X241904089Y-118444330D01*
X241852022Y-118354535D01*
X241831549Y-118208391D01*
X241831549Y-115923743D01*
X241402903Y-115923743D01*
X241402903Y-118249424D01*
X241057008Y-118249424D01*
X240539749Y-115923743D01*
X240182910Y-115923743D01*
X239756282Y-117839829D01*
X239514662Y-118925000D01*
X239181329Y-118925000D01*
X239181329Y-115583816D01*
X246320186Y-115583816D01*
X246320186Y-119281780D01*
G37*
%TD*%
%TA.AperFunction,Conductor*%
%TO.N,1*%
G36*
X62504853Y-89595881D02*
G01*
X62713117Y-89612272D01*
X62732326Y-89615315D01*
X62930712Y-89662943D01*
X62949204Y-89668951D01*
X63073957Y-89720626D01*
X63137694Y-89747027D01*
X63155024Y-89755856D01*
X63328990Y-89862463D01*
X63344714Y-89873887D01*
X63499865Y-90006398D01*
X63513601Y-90020134D01*
X63646110Y-90175283D01*
X63657538Y-90191011D01*
X63764139Y-90364968D01*
X63772972Y-90382305D01*
X63851045Y-90570788D01*
X63857058Y-90589294D01*
X63904683Y-90787668D01*
X63907727Y-90806886D01*
X63924118Y-91015146D01*
X63924500Y-91024875D01*
X63924500Y-116065124D01*
X63924118Y-116074853D01*
X63907727Y-116283113D01*
X63904683Y-116302331D01*
X63857058Y-116500705D01*
X63851045Y-116519211D01*
X63772972Y-116707694D01*
X63764139Y-116725031D01*
X63657543Y-116898981D01*
X63646105Y-116914722D01*
X63513606Y-117069859D01*
X63499859Y-117083606D01*
X63423535Y-117148794D01*
X63344722Y-117216106D01*
X63328982Y-117227542D01*
X63308653Y-117240000D01*
X63155031Y-117334139D01*
X63137694Y-117342972D01*
X62949211Y-117421045D01*
X62930705Y-117427058D01*
X62732331Y-117474683D01*
X62713113Y-117477727D01*
X62504866Y-117494117D01*
X62495137Y-117494499D01*
X62422526Y-117494499D01*
X62422510Y-117494500D01*
X54204875Y-117494500D01*
X54195146Y-117494118D01*
X54195133Y-117494117D01*
X54188048Y-117493559D01*
X53986886Y-117477727D01*
X53967668Y-117474683D01*
X53769294Y-117427058D01*
X53750788Y-117421045D01*
X53562305Y-117342972D01*
X53544971Y-117334140D01*
X53371011Y-117227538D01*
X53355283Y-117216110D01*
X53200134Y-117083601D01*
X53186398Y-117069865D01*
X53053887Y-116914714D01*
X53042463Y-116898990D01*
X52935856Y-116725024D01*
X52927027Y-116707694D01*
X52890912Y-116620505D01*
X52848951Y-116519204D01*
X52842943Y-116500712D01*
X52795315Y-116302326D01*
X52792272Y-116283113D01*
X52789809Y-116251821D01*
X52775882Y-116074853D01*
X52775500Y-116065124D01*
X52775500Y-115868727D01*
X53650498Y-115868727D01*
X53650499Y-115988997D01*
X53650500Y-115988998D01*
X53677420Y-116124333D01*
X53677423Y-116124342D01*
X53716842Y-116219501D01*
X53730232Y-116251825D01*
X53757640Y-116292841D01*
X53806898Y-116366558D01*
X53806899Y-116366559D01*
X53806900Y-116366560D01*
X53904479Y-116464132D01*
X54019219Y-116540792D01*
X54146711Y-116593593D01*
X54282054Y-116620505D01*
X54351050Y-116620501D01*
X62298896Y-116620501D01*
X62299994Y-116620504D01*
X62300108Y-116620537D01*
X62351046Y-116620534D01*
X62351046Y-116620535D01*
X62420040Y-116620531D01*
X62555375Y-116593603D01*
X62682856Y-116540791D01*
X62797585Y-116464125D01*
X62895154Y-116366550D01*
X62971813Y-116251815D01*
X63024617Y-116124330D01*
X63051536Y-115988994D01*
X63051535Y-115920000D01*
X63051535Y-115880118D01*
X63051535Y-91130120D01*
X63051535Y-91118103D01*
X63051499Y-91117736D01*
X63051499Y-91101015D01*
X63051499Y-91101013D01*
X63024582Y-90965683D01*
X62971782Y-90838204D01*
X62895127Y-90723476D01*
X62797564Y-90625905D01*
X62797560Y-90625902D01*
X62797561Y-90625902D01*
X62682844Y-90549244D01*
X62682841Y-90549242D01*
X62682840Y-90549242D01*
X62564464Y-90500202D01*
X62555364Y-90496432D01*
X62453652Y-90476194D01*
X62420038Y-90469506D01*
X62419970Y-90469505D01*
X62400916Y-90469504D01*
X62400916Y-90469503D01*
X62390920Y-90469502D01*
X62390916Y-90469501D01*
X62351050Y-90469501D01*
X62351048Y-90469501D01*
X62298597Y-90469497D01*
X62298559Y-90469501D01*
X54299412Y-90469501D01*
X54299091Y-90469531D01*
X54282052Y-90469531D01*
X54146722Y-90496441D01*
X54146713Y-90496444D01*
X54019236Y-90549240D01*
X54019230Y-90549243D01*
X53904504Y-90625893D01*
X53904503Y-90625893D01*
X53806926Y-90723463D01*
X53730261Y-90838196D01*
X53677456Y-90965671D01*
X53677454Y-90965678D01*
X53650536Y-91101002D01*
X53650535Y-91101006D01*
X53650535Y-115868601D01*
X53650498Y-115868727D01*
X52775500Y-115868727D01*
X52775500Y-91024875D01*
X52775882Y-91015146D01*
X52779775Y-90965678D01*
X52792272Y-90806880D01*
X52795314Y-90787675D01*
X52842944Y-90589283D01*
X52848950Y-90570798D01*
X52927028Y-90382302D01*
X52935853Y-90364980D01*
X53042467Y-90191002D01*
X53053882Y-90175291D01*
X53186404Y-90020127D01*
X53200127Y-90006404D01*
X53355291Y-89873882D01*
X53371002Y-89862467D01*
X53544980Y-89755853D01*
X53562302Y-89747028D01*
X53750798Y-89668950D01*
X53769283Y-89662944D01*
X53967675Y-89615314D01*
X53986880Y-89612272D01*
X54195146Y-89595881D01*
X54204875Y-89595500D01*
X54269878Y-89595500D01*
X62430122Y-89595500D01*
X62495125Y-89595500D01*
X62504853Y-89595881D01*
G37*
%TD.AperFunction*%
%TA.AperFunction,Conductor*%
G36*
X224075101Y-87601185D02*
G01*
X224120856Y-87653989D01*
X224132062Y-87705500D01*
X224132062Y-88008358D01*
X224137213Y-88054082D01*
X224176895Y-88136480D01*
X224176896Y-88136481D01*
X224248399Y-88193503D01*
X224323765Y-88210705D01*
X224337557Y-88213853D01*
X224337562Y-88213854D01*
X224525513Y-88213854D01*
X224592552Y-88233539D01*
X224638307Y-88286343D01*
X224648251Y-88355501D01*
X224619226Y-88419057D01*
X224579315Y-88449574D01*
X224524290Y-88476072D01*
X224467268Y-88547575D01*
X224446917Y-88636734D01*
X224446917Y-88944129D01*
X224427232Y-89011168D01*
X224374428Y-89056923D01*
X224336801Y-89067349D01*
X224289189Y-89072713D01*
X224206790Y-89112395D01*
X224149768Y-89183898D01*
X224129417Y-89273057D01*
X224129417Y-89897952D01*
X224109732Y-89964991D01*
X224056928Y-90010746D01*
X224019301Y-90021172D01*
X223971689Y-90026536D01*
X223889290Y-90066218D01*
X223832268Y-90137721D01*
X223811917Y-90226880D01*
X223811917Y-90529739D01*
X223792232Y-90596778D01*
X223739428Y-90642533D01*
X223687917Y-90653739D01*
X223402066Y-90653739D01*
X223335027Y-90634054D01*
X223289272Y-90581250D01*
X223278846Y-90543622D01*
X223274525Y-90505271D01*
X223234843Y-90422872D01*
X223163340Y-90365850D01*
X223074181Y-90345499D01*
X223074177Y-90345499D01*
X222746094Y-90345499D01*
X222746089Y-90345499D01*
X222700365Y-90350650D01*
X222617967Y-90390332D01*
X222560945Y-90461835D01*
X222539044Y-90557788D01*
X222536163Y-90557130D01*
X222514181Y-90609394D01*
X222456572Y-90648928D01*
X222418055Y-90655062D01*
X219275831Y-90655062D01*
X219208792Y-90635377D01*
X219163037Y-90582573D01*
X219151831Y-90531193D01*
X219151369Y-90092374D01*
X219151199Y-89931043D01*
X219170813Y-89863984D01*
X219223569Y-89818174D01*
X219261316Y-89807694D01*
X219304614Y-89802816D01*
X219387013Y-89763134D01*
X219444035Y-89691631D01*
X219464386Y-89602468D01*
X219464386Y-89297574D01*
X219484071Y-89230535D01*
X219536875Y-89184780D01*
X219574504Y-89174354D01*
X219575063Y-89174291D01*
X219620791Y-89169139D01*
X219703190Y-89129457D01*
X219760212Y-89057954D01*
X219780563Y-88968791D01*
X219780563Y-88661968D01*
X219800248Y-88594929D01*
X219853052Y-88549174D01*
X219904563Y-88537968D01*
X220211388Y-88537968D01*
X220211388Y-88537967D01*
X220257113Y-88532816D01*
X220339512Y-88493134D01*
X220396534Y-88421631D01*
X220416885Y-88332468D01*
X220416885Y-88332462D01*
X220417322Y-88328588D01*
X220418305Y-88326248D01*
X220418435Y-88325679D01*
X220418534Y-88325701D01*
X220444386Y-88264173D01*
X220501980Y-88224616D01*
X220526660Y-88219247D01*
X220559283Y-88215571D01*
X220573291Y-88213993D01*
X220655690Y-88174311D01*
X220712712Y-88102808D01*
X220733063Y-88013645D01*
X220734613Y-88006856D01*
X220736386Y-88007260D01*
X220759899Y-87951312D01*
X220817496Y-87911760D01*
X220856049Y-87905614D01*
X222098208Y-87905614D01*
X222165247Y-87925299D01*
X222211002Y-87978103D01*
X222221428Y-88015731D01*
X222225599Y-88052758D01*
X222265281Y-88135157D01*
X222265282Y-88135158D01*
X222336785Y-88192180D01*
X222409172Y-88208702D01*
X222425943Y-88212530D01*
X222425948Y-88212531D01*
X223068889Y-88212531D01*
X223068889Y-88212530D01*
X223114614Y-88207379D01*
X223197013Y-88167697D01*
X223254035Y-88096194D01*
X223272400Y-88015731D01*
X223275936Y-88000242D01*
X223278295Y-88000780D01*
X223300966Y-87946794D01*
X223358552Y-87907225D01*
X223383255Y-87901849D01*
X223417796Y-87897957D01*
X223430791Y-87896493D01*
X223513190Y-87856811D01*
X223570212Y-87785308D01*
X223590563Y-87696145D01*
X223590563Y-87696142D01*
X223591074Y-87691616D01*
X223618141Y-87627202D01*
X223675735Y-87587647D01*
X223714294Y-87581500D01*
X224008062Y-87581500D01*
X224075101Y-87601185D01*
G37*
%TD.AperFunction*%
%TA.AperFunction,Conductor*%
G36*
X245047514Y-88207085D02*
G01*
X245049419Y-88206589D01*
X245080898Y-88216888D01*
X245112665Y-88226216D01*
X245113953Y-88227702D01*
X245115825Y-88228315D01*
X245136745Y-88254005D01*
X245158420Y-88279020D01*
X245159093Y-88281450D01*
X245159943Y-88282494D01*
X245168846Y-88316647D01*
X245174359Y-88365581D01*
X245214041Y-88447980D01*
X245214042Y-88447981D01*
X245285545Y-88505003D01*
X245360911Y-88522205D01*
X245374703Y-88525353D01*
X245374708Y-88525354D01*
X245999747Y-88525354D01*
X246066786Y-88545039D01*
X246112541Y-88597843D01*
X246122967Y-88635469D01*
X246128183Y-88681759D01*
X246167864Y-88764157D01*
X246167865Y-88764158D01*
X246239368Y-88821180D01*
X246289610Y-88832647D01*
X246328524Y-88841530D01*
X246328529Y-88841530D01*
X246328531Y-88841531D01*
X246328533Y-88841531D01*
X246329440Y-88841633D01*
X246329992Y-88841864D01*
X246335320Y-88843081D01*
X246335107Y-88844013D01*
X246393858Y-88868690D01*
X246433421Y-88926279D01*
X246438171Y-88951468D01*
X246438818Y-88951396D01*
X246444359Y-89000582D01*
X246484041Y-89082980D01*
X246484042Y-89082981D01*
X246555545Y-89140003D01*
X246644708Y-89160354D01*
X246644717Y-89160354D01*
X246648284Y-89160756D01*
X246650445Y-89161663D01*
X246651497Y-89161904D01*
X246651454Y-89162088D01*
X246712701Y-89187816D01*
X246752262Y-89245406D01*
X246756949Y-89270296D01*
X246757641Y-89270219D01*
X246763182Y-89319405D01*
X246802864Y-89401803D01*
X246802865Y-89401804D01*
X246874368Y-89458826D01*
X246935208Y-89472712D01*
X246970320Y-89480727D01*
X246969999Y-89482133D01*
X247027170Y-89506147D01*
X247066732Y-89563737D01*
X247072885Y-89602311D01*
X247072885Y-90207403D01*
X247053200Y-90274442D01*
X247000396Y-90320197D01*
X246962770Y-90330623D01*
X246920448Y-90335391D01*
X246838050Y-90375073D01*
X246781028Y-90446576D01*
X246759127Y-90542529D01*
X246757724Y-90542208D01*
X246733693Y-90599394D01*
X246676098Y-90638948D01*
X246637542Y-90645094D01*
X244448323Y-90645094D01*
X244381284Y-90625409D01*
X244335529Y-90572605D01*
X244325103Y-90534977D01*
X244320931Y-90497949D01*
X244281249Y-90415550D01*
X244209746Y-90358528D01*
X244120587Y-90338177D01*
X244120583Y-90338177D01*
X243792499Y-90338177D01*
X243792494Y-90338177D01*
X243746770Y-90343328D01*
X243664372Y-90383010D01*
X243607350Y-90454513D01*
X243585553Y-90550010D01*
X243551444Y-90610989D01*
X243489782Y-90643846D01*
X243464662Y-90646417D01*
X243172145Y-90646417D01*
X243105106Y-90626732D01*
X243059351Y-90573928D01*
X243048145Y-90522417D01*
X243048145Y-89711363D01*
X243067830Y-89644324D01*
X243120634Y-89598569D01*
X243189792Y-89588625D01*
X243253348Y-89617650D01*
X243283865Y-89657561D01*
X243311687Y-89715334D01*
X243311688Y-89715335D01*
X243383191Y-89772357D01*
X243449782Y-89787556D01*
X243472349Y-89792707D01*
X243472354Y-89792708D01*
X244112648Y-89792708D01*
X244112648Y-89792707D01*
X244158373Y-89787556D01*
X244240772Y-89747874D01*
X244297794Y-89676371D01*
X244318145Y-89587208D01*
X244318145Y-88330531D01*
X244337830Y-88263492D01*
X244390634Y-88217737D01*
X244442145Y-88206531D01*
X245045626Y-88206531D01*
X245047514Y-88207085D01*
G37*
%TD.AperFunction*%
%TA.AperFunction,Conductor*%
G36*
X123251805Y-83370758D02*
G01*
X123471042Y-83384902D01*
X123486870Y-83386953D01*
X123698534Y-83428378D01*
X123713963Y-83432444D01*
X123918561Y-83500722D01*
X123933338Y-83506736D01*
X124127436Y-83600719D01*
X124127465Y-83600733D01*
X124141354Y-83608599D01*
X124321794Y-83726759D01*
X124334549Y-83736338D01*
X124379979Y-83775276D01*
X124498317Y-83876704D01*
X124509744Y-83887852D01*
X124518493Y-83897562D01*
X124654096Y-84048067D01*
X124654111Y-84048083D01*
X124664012Y-84060607D01*
X124786600Y-84238066D01*
X124794809Y-84251758D01*
X124893580Y-84443491D01*
X124899962Y-84458124D01*
X124973278Y-84660952D01*
X124977728Y-84676284D01*
X125020842Y-84870892D01*
X125023777Y-84897684D01*
X125023782Y-84920187D01*
X125024810Y-84925351D01*
X125026995Y-84942505D01*
X125042180Y-85209022D01*
X125042180Y-85209024D01*
X125043186Y-85226689D01*
X125040655Y-85237672D01*
X125045435Y-85266184D01*
X125045821Y-85272946D01*
X125045822Y-85272955D01*
X125047082Y-85295064D01*
X125050143Y-85306887D01*
X125049910Y-85306947D01*
X125054909Y-85322668D01*
X125099026Y-85585727D01*
X125099026Y-85585728D01*
X125101938Y-85603097D01*
X125100619Y-85614423D01*
X125108480Y-85642111D01*
X125109615Y-85648874D01*
X125109618Y-85648886D01*
X125113246Y-85670518D01*
X125117578Y-85681940D01*
X125117391Y-85682010D01*
X125124102Y-85697128D01*
X125195268Y-85947770D01*
X125200046Y-85964599D01*
X125200005Y-85976188D01*
X125210854Y-86002658D01*
X125212758Y-86009363D01*
X125218669Y-86030180D01*
X125224232Y-86041050D01*
X125224107Y-86041113D01*
X125232495Y-86055457D01*
X125328513Y-86289714D01*
X125335194Y-86306013D01*
X125336408Y-86317339D01*
X125350197Y-86342617D01*
X125352795Y-86348954D01*
X125352795Y-86348955D01*
X125361123Y-86369273D01*
X125367872Y-86379455D01*
X125367703Y-86379566D01*
X125377588Y-86392828D01*
X125485020Y-86589761D01*
X125494335Y-86606836D01*
X125495915Y-86615126D01*
X125513316Y-86641629D01*
X125513446Y-86641868D01*
X125515739Y-86646070D01*
X125515740Y-86646072D01*
X125528495Y-86669453D01*
X125536322Y-86678826D01*
X125535391Y-86679603D01*
X125545734Y-86691002D01*
X125597026Y-86769124D01*
X125598461Y-86774853D01*
X125618802Y-86802289D01*
X125637562Y-86830861D01*
X125637564Y-86830862D01*
X125641317Y-86834676D01*
X125652540Y-86847794D01*
X125708075Y-86922700D01*
X125709816Y-86928291D01*
X125731713Y-86954582D01*
X125733300Y-86956723D01*
X125739630Y-86965261D01*
X125752096Y-86982074D01*
X125755924Y-86985545D01*
X125767916Y-86998051D01*
X125828887Y-87071259D01*
X125830924Y-87076704D01*
X125854290Y-87101759D01*
X125856508Y-87104422D01*
X125876215Y-87128084D01*
X125880108Y-87131232D01*
X125892828Y-87143084D01*
X125957755Y-87212704D01*
X125960075Y-87217990D01*
X125984822Y-87241727D01*
X125987173Y-87244248D01*
X125987177Y-87244252D01*
X126008219Y-87266816D01*
X126012179Y-87269667D01*
X126025572Y-87280818D01*
X126082895Y-87335803D01*
X126094969Y-87347385D01*
X126097567Y-87352511D01*
X126123608Y-87374856D01*
X126126096Y-87377242D01*
X126126097Y-87377243D01*
X126148385Y-87398622D01*
X126152422Y-87401200D01*
X126166438Y-87411607D01*
X126173529Y-87417691D01*
X126226809Y-87463408D01*
X126241350Y-87475886D01*
X126241508Y-87476021D01*
X126245997Y-87483314D01*
X126271573Y-87501820D01*
X126275469Y-87505163D01*
X126275476Y-87505168D01*
X126295546Y-87522389D01*
X126306189Y-87528381D01*
X126305617Y-87529395D01*
X126319377Y-87536408D01*
X126353571Y-87561149D01*
X126548050Y-87701864D01*
X126555055Y-87710850D01*
X126580108Y-87725060D01*
X126603443Y-87741944D01*
X126603445Y-87741944D01*
X126614543Y-87747034D01*
X126614458Y-87747218D01*
X126629852Y-87753275D01*
X126793972Y-87846364D01*
X126876585Y-87893222D01*
X126884592Y-87901426D01*
X126911003Y-87912744D01*
X126933138Y-87925299D01*
X126935996Y-87926920D01*
X126947588Y-87930756D01*
X126947531Y-87930928D01*
X126963522Y-87935250D01*
X127219568Y-88044975D01*
X127228555Y-88052318D01*
X127255929Y-88060557D01*
X127262346Y-88063307D01*
X127262347Y-88063307D01*
X127282216Y-88071822D01*
X127282221Y-88071822D01*
X127294162Y-88074349D01*
X127294133Y-88074481D01*
X127310564Y-88077003D01*
X127403892Y-88105094D01*
X127571319Y-88155489D01*
X127581249Y-88161864D01*
X127609203Y-88166892D01*
X127636400Y-88175079D01*
X127648558Y-88176250D01*
X127648550Y-88176324D01*
X127665231Y-88176971D01*
X127887115Y-88216888D01*
X127904058Y-88219936D01*
X127913445Y-88222003D01*
X127924372Y-88224857D01*
X127926399Y-88225995D01*
X127930686Y-88226506D01*
X127938853Y-88228640D01*
X127939113Y-88228662D01*
X127939116Y-88228664D01*
X127959876Y-88230489D01*
X127970947Y-88231969D01*
X127984575Y-88234420D01*
X127993518Y-88236030D01*
X127993518Y-88236029D01*
X127993519Y-88236030D01*
X127993519Y-88236029D01*
X127999679Y-88235917D01*
X128003686Y-88235908D01*
X128010197Y-88235998D01*
X128012244Y-88236243D01*
X128012975Y-88236037D01*
X128020278Y-88236139D01*
X128021658Y-88236565D01*
X128029409Y-88236603D01*
X128100521Y-88242857D01*
X128117331Y-88245509D01*
X128123267Y-88246868D01*
X128123268Y-88246868D01*
X128123271Y-88246869D01*
X128153591Y-88247739D01*
X128160834Y-88248161D01*
X128191062Y-88250821D01*
X128191067Y-88250819D01*
X128197114Y-88250160D01*
X128214120Y-88249480D01*
X128302205Y-88252012D01*
X128307860Y-88254161D01*
X128341886Y-88253153D01*
X128375894Y-88254131D01*
X128375899Y-88254128D01*
X128381660Y-88253155D01*
X128398670Y-88251471D01*
X128489757Y-88248774D01*
X128495470Y-88250575D01*
X128529427Y-88247599D01*
X128563500Y-88246591D01*
X128563501Y-88246590D01*
X128568996Y-88245327D01*
X128585952Y-88242647D01*
X128676709Y-88234696D01*
X128682455Y-88236152D01*
X128716249Y-88231232D01*
X128750265Y-88228252D01*
X128750271Y-88228248D01*
X128755455Y-88226737D01*
X128772312Y-88223069D01*
X128857110Y-88210725D01*
X128864796Y-88209606D01*
X128870568Y-88210725D01*
X128904072Y-88203888D01*
X128907549Y-88203382D01*
X128907555Y-88203381D01*
X128937909Y-88198963D01*
X128937910Y-88198962D01*
X128937914Y-88198962D01*
X128937917Y-88198960D01*
X128942859Y-88197207D01*
X128959525Y-88192574D01*
X129051179Y-88173874D01*
X129056951Y-88174660D01*
X129090062Y-88165941D01*
X129123623Y-88159094D01*
X129123628Y-88159090D01*
X129128287Y-88157134D01*
X129144733Y-88151546D01*
X129220271Y-88131655D01*
X129220270Y-88131655D01*
X129236518Y-88127377D01*
X129242294Y-88127837D01*
X129274906Y-88117269D01*
X129279103Y-88116163D01*
X129308050Y-88108543D01*
X129308050Y-88108542D01*
X129308053Y-88108542D01*
X129308054Y-88108540D01*
X129312490Y-88106377D01*
X129328633Y-88099860D01*
X129421745Y-88069690D01*
X129430356Y-88069657D01*
X129459433Y-88057479D01*
X129489432Y-88047759D01*
X129489433Y-88047757D01*
X129489436Y-88047757D01*
X129500096Y-88041798D01*
X129500657Y-88042801D01*
X129513824Y-88034698D01*
X129773309Y-87926025D01*
X129784653Y-87924720D01*
X129809804Y-87910741D01*
X129836349Y-87899624D01*
X129836350Y-87899623D01*
X129846477Y-87892799D01*
X129846585Y-87892960D01*
X129859773Y-87882967D01*
X130108009Y-87745001D01*
X130119168Y-87742441D01*
X130142598Y-87725776D01*
X130167724Y-87711812D01*
X130167726Y-87711808D01*
X130177037Y-87703909D01*
X130177157Y-87704050D01*
X130189168Y-87692653D01*
X130417399Y-87530329D01*
X130428297Y-87526506D01*
X130449647Y-87507393D01*
X130472991Y-87490791D01*
X130472992Y-87490788D01*
X130481374Y-87481904D01*
X130481486Y-87482009D01*
X130492177Y-87469320D01*
X130696956Y-87286009D01*
X130707491Y-87280910D01*
X130726440Y-87259616D01*
X130747671Y-87240612D01*
X130747672Y-87240608D01*
X130755006Y-87230848D01*
X130755089Y-87230911D01*
X130764322Y-87217048D01*
X130943118Y-87016141D01*
X130952969Y-87009913D01*
X130969422Y-86986584D01*
X130988399Y-86965261D01*
X130988401Y-86965252D01*
X130994583Y-86954727D01*
X130994686Y-86954787D01*
X131002287Y-86939986D01*
X131009866Y-86929240D01*
X131149759Y-86730893D01*
X131156654Y-86725680D01*
X131172593Y-86698517D01*
X131190749Y-86672776D01*
X131190750Y-86672771D01*
X131195709Y-86661606D01*
X131196749Y-86662068D01*
X131202427Y-86647675D01*
X131250118Y-86566408D01*
X131254614Y-86562589D01*
X131270208Y-86532173D01*
X131287504Y-86502701D01*
X131287504Y-86502696D01*
X131289252Y-86497669D01*
X131296039Y-86481793D01*
X131338888Y-86398222D01*
X131343115Y-86394201D01*
X131357002Y-86362893D01*
X131372620Y-86332434D01*
X131372620Y-86332428D01*
X131374010Y-86327549D01*
X131379922Y-86311225D01*
X131400099Y-86265739D01*
X131419028Y-86223066D01*
X131422987Y-86218855D01*
X131435121Y-86186788D01*
X131449028Y-86155438D01*
X131449028Y-86155430D01*
X131450104Y-86150649D01*
X131455105Y-86133974D01*
X131489284Y-86043653D01*
X131492971Y-86039270D01*
X131503335Y-86006522D01*
X131515488Y-85974407D01*
X131515488Y-85974403D01*
X131516264Y-85969756D01*
X131520351Y-85952754D01*
X131549924Y-85859315D01*
X131553344Y-85854764D01*
X131561899Y-85821478D01*
X131572274Y-85788699D01*
X131572273Y-85788692D01*
X131572780Y-85784119D01*
X131575933Y-85766877D01*
X131601053Y-85669149D01*
X131605567Y-85661990D01*
X131610918Y-85630771D01*
X131618804Y-85600093D01*
X131618804Y-85600091D01*
X131619478Y-85587897D01*
X131620680Y-85587963D01*
X131620895Y-85572561D01*
X131669397Y-85289624D01*
X131674320Y-85279529D01*
X131676084Y-85250618D01*
X131680977Y-85222075D01*
X131680977Y-85222073D01*
X131680653Y-85209866D01*
X131680906Y-85209859D01*
X131679573Y-85193435D01*
X131681250Y-85165956D01*
X131697537Y-84899029D01*
X131700240Y-84879778D01*
X131745326Y-84676280D01*
X131749770Y-84660968D01*
X131823096Y-84458119D01*
X131829478Y-84443489D01*
X131829485Y-84443476D01*
X131928255Y-84251751D01*
X131936448Y-84238085D01*
X132059060Y-84060599D01*
X132068943Y-84048098D01*
X132213321Y-83887861D01*
X132224744Y-83876719D01*
X132343142Y-83775244D01*
X132388515Y-83736356D01*
X132401267Y-83726778D01*
X132581725Y-83608615D01*
X132595582Y-83600766D01*
X132789745Y-83506758D01*
X132804505Y-83500752D01*
X133009115Y-83432477D01*
X133024524Y-83428416D01*
X133236208Y-83386996D01*
X133252024Y-83384947D01*
X133472091Y-83370757D01*
X133480057Y-83370501D01*
X133515131Y-83370502D01*
X133515133Y-83370501D01*
X247207904Y-83370501D01*
X247243790Y-83370501D01*
X247251770Y-83370757D01*
X247471010Y-83384898D01*
X247486838Y-83386948D01*
X247698514Y-83428370D01*
X247713950Y-83432437D01*
X247918555Y-83500712D01*
X247933320Y-83506720D01*
X248127471Y-83600722D01*
X248141353Y-83608584D01*
X248321807Y-83726743D01*
X248334560Y-83736321D01*
X248498348Y-83876693D01*
X248509767Y-83887834D01*
X248524038Y-83903672D01*
X248654146Y-84048067D01*
X248664047Y-84060590D01*
X248678349Y-84081292D01*
X248786649Y-84238052D01*
X248794851Y-84251731D01*
X248808148Y-84277539D01*
X248893639Y-84443476D01*
X248900022Y-84458109D01*
X248973354Y-84660955D01*
X248977802Y-84676284D01*
X248977803Y-84676286D01*
X249020840Y-84870499D01*
X249023777Y-84897298D01*
X249023782Y-84920187D01*
X249024810Y-84925351D01*
X249026995Y-84942505D01*
X249042180Y-85209022D01*
X249042180Y-85209024D01*
X249043186Y-85226689D01*
X249040655Y-85237672D01*
X249045435Y-85266184D01*
X249045821Y-85272946D01*
X249045822Y-85272955D01*
X249047082Y-85295064D01*
X249050143Y-85306887D01*
X249049910Y-85306947D01*
X249054909Y-85322668D01*
X249099026Y-85585727D01*
X249099026Y-85585728D01*
X249101938Y-85603097D01*
X249100619Y-85614423D01*
X249108480Y-85642111D01*
X249109615Y-85648874D01*
X249109618Y-85648886D01*
X249113246Y-85670518D01*
X249117578Y-85681940D01*
X249117391Y-85682010D01*
X249124102Y-85697128D01*
X249195268Y-85947770D01*
X249200046Y-85964599D01*
X249200005Y-85976188D01*
X249210854Y-86002658D01*
X249212758Y-86009363D01*
X249218669Y-86030180D01*
X249224232Y-86041050D01*
X249224107Y-86041113D01*
X249232495Y-86055457D01*
X249328513Y-86289714D01*
X249335194Y-86306013D01*
X249336408Y-86317339D01*
X249350197Y-86342617D01*
X249352795Y-86348954D01*
X249352795Y-86348955D01*
X249361123Y-86369273D01*
X249367872Y-86379455D01*
X249367703Y-86379566D01*
X249377588Y-86392828D01*
X249485020Y-86589761D01*
X249494335Y-86606836D01*
X249495915Y-86615126D01*
X249513316Y-86641629D01*
X249513446Y-86641868D01*
X249515739Y-86646070D01*
X249515740Y-86646072D01*
X249528495Y-86669453D01*
X249536322Y-86678826D01*
X249535391Y-86679603D01*
X249545734Y-86691002D01*
X249597026Y-86769124D01*
X249598461Y-86774853D01*
X249618802Y-86802289D01*
X249637562Y-86830861D01*
X249637564Y-86830862D01*
X249641317Y-86834676D01*
X249652540Y-86847794D01*
X249708075Y-86922700D01*
X249709816Y-86928291D01*
X249731713Y-86954582D01*
X249733300Y-86956723D01*
X249739630Y-86965261D01*
X249752096Y-86982074D01*
X249755924Y-86985545D01*
X249767916Y-86998051D01*
X249828887Y-87071259D01*
X249830924Y-87076704D01*
X249854290Y-87101759D01*
X249856508Y-87104422D01*
X249876215Y-87128084D01*
X249880108Y-87131232D01*
X249892828Y-87143084D01*
X249957755Y-87212704D01*
X249960075Y-87217990D01*
X249984822Y-87241727D01*
X249987173Y-87244248D01*
X249987177Y-87244252D01*
X250008219Y-87266816D01*
X250012179Y-87269667D01*
X250025572Y-87280818D01*
X250082895Y-87335803D01*
X250094969Y-87347385D01*
X250097567Y-87352511D01*
X250123608Y-87374856D01*
X250126096Y-87377242D01*
X250126097Y-87377243D01*
X250148385Y-87398622D01*
X250152422Y-87401200D01*
X250166438Y-87411607D01*
X250173529Y-87417691D01*
X250226809Y-87463408D01*
X250241350Y-87475886D01*
X250241508Y-87476021D01*
X250245997Y-87483314D01*
X250271573Y-87501820D01*
X250275469Y-87505163D01*
X250275476Y-87505168D01*
X250295546Y-87522389D01*
X250306189Y-87528381D01*
X250305617Y-87529395D01*
X250319377Y-87536408D01*
X250353571Y-87561149D01*
X250548050Y-87701864D01*
X250555055Y-87710850D01*
X250580108Y-87725060D01*
X250603443Y-87741944D01*
X250603445Y-87741944D01*
X250614543Y-87747034D01*
X250614458Y-87747218D01*
X250629852Y-87753275D01*
X250793972Y-87846364D01*
X250876585Y-87893222D01*
X250884592Y-87901426D01*
X250911003Y-87912744D01*
X250933138Y-87925299D01*
X250935996Y-87926920D01*
X250947588Y-87930756D01*
X250947531Y-87930928D01*
X250963522Y-87935250D01*
X251219568Y-88044975D01*
X251228555Y-88052318D01*
X251255929Y-88060557D01*
X251262346Y-88063307D01*
X251262347Y-88063307D01*
X251282216Y-88071822D01*
X251282221Y-88071822D01*
X251294162Y-88074349D01*
X251294133Y-88074481D01*
X251310564Y-88077003D01*
X251403892Y-88105094D01*
X251571319Y-88155489D01*
X251581249Y-88161864D01*
X251609203Y-88166892D01*
X251636400Y-88175079D01*
X251648558Y-88176250D01*
X251648550Y-88176324D01*
X251665231Y-88176971D01*
X251903915Y-88219909D01*
X251906423Y-88220388D01*
X251922364Y-88223599D01*
X251927034Y-88226201D01*
X251946479Y-88228457D01*
X251951546Y-88229478D01*
X251952817Y-88230146D01*
X251957134Y-88231007D01*
X251958791Y-88231141D01*
X251958793Y-88231143D01*
X251966654Y-88231783D01*
X251978512Y-88233330D01*
X251993519Y-88236030D01*
X251993519Y-88236029D01*
X251993520Y-88236030D01*
X252000917Y-88235894D01*
X252010862Y-88236110D01*
X252014181Y-88236315D01*
X252031330Y-88238306D01*
X252034010Y-88237543D01*
X252046668Y-88238327D01*
X252047144Y-88238499D01*
X252049069Y-88238499D01*
X252120442Y-88244316D01*
X252137281Y-88246862D01*
X252143201Y-88248177D01*
X252143204Y-88248179D01*
X252177167Y-88248940D01*
X252211032Y-88251700D01*
X252216844Y-88249829D01*
X252305198Y-88251809D01*
X252316059Y-88253002D01*
X252358421Y-88253002D01*
X252396038Y-88253845D01*
X252398210Y-88253002D01*
X255070804Y-88253002D01*
X255106621Y-88253002D01*
X255114729Y-88253266D01*
X255337470Y-88267864D01*
X255353529Y-88269979D01*
X255568460Y-88312732D01*
X255584104Y-88316923D01*
X255791611Y-88387364D01*
X255806597Y-88393571D01*
X256003131Y-88490493D01*
X256017178Y-88498604D01*
X256076089Y-88537968D01*
X256165695Y-88597843D01*
X256199364Y-88620340D01*
X256212233Y-88630215D01*
X256376989Y-88774708D01*
X256388452Y-88786171D01*
X256532936Y-88950932D01*
X256542797Y-88963784D01*
X256566499Y-88999259D01*
X256664537Y-89145992D01*
X256672647Y-89160040D01*
X256769556Y-89356568D01*
X256775763Y-89371554D01*
X256846193Y-89579060D01*
X256850390Y-89594728D01*
X256893128Y-89809638D01*
X256895245Y-89825720D01*
X256909893Y-90049366D01*
X256910158Y-90057467D01*
X256910158Y-90066218D01*
X256910157Y-90092374D01*
X256910158Y-90092377D01*
X256910159Y-90106816D01*
X256910159Y-118167309D01*
X256910041Y-118172718D01*
X256892130Y-118582909D01*
X256891187Y-118593686D01*
X256837948Y-118998063D01*
X256836070Y-119008716D01*
X256747787Y-119406927D01*
X256744987Y-119417376D01*
X256622336Y-119806370D01*
X256618636Y-119816536D01*
X256462547Y-120193361D01*
X256457975Y-120203164D01*
X256269642Y-120564945D01*
X256264233Y-120574314D01*
X256045078Y-120918314D01*
X256038874Y-120927175D01*
X255790582Y-121250753D01*
X255783628Y-121259040D01*
X255508068Y-121559757D01*
X255500419Y-121567406D01*
X255199698Y-121842963D01*
X255191411Y-121849916D01*
X254867826Y-122098208D01*
X254858964Y-122104413D01*
X254514971Y-122323557D01*
X254505603Y-122328966D01*
X254143805Y-122517304D01*
X254134013Y-122521870D01*
X253879443Y-122627314D01*
X253757183Y-122677955D01*
X253747018Y-122681654D01*
X253358023Y-122804302D01*
X253347573Y-122807102D01*
X252949360Y-122895380D01*
X252938707Y-122897258D01*
X252534332Y-122950491D01*
X252523556Y-122951434D01*
X252112398Y-122969383D01*
X252106990Y-122969501D01*
X44962706Y-122969501D01*
X44957297Y-122969383D01*
X44547102Y-122951473D01*
X44536326Y-122950530D01*
X44131950Y-122897293D01*
X44121296Y-122895415D01*
X43723078Y-122807132D01*
X43712630Y-122804332D01*
X43323639Y-122681684D01*
X43313473Y-122677984D01*
X42936642Y-122521895D01*
X42926838Y-122517323D01*
X42807126Y-122455005D01*
X42565042Y-122328984D01*
X42555686Y-122323583D01*
X42270366Y-122141813D01*
X42211690Y-122104432D01*
X42202829Y-122098228D01*
X41879233Y-121849925D01*
X41870946Y-121842971D01*
X41570232Y-121567417D01*
X41562583Y-121559768D01*
X41287030Y-121259055D01*
X41280076Y-121250768D01*
X41031772Y-120927172D01*
X41025568Y-120918311D01*
X40972070Y-120834336D01*
X40806413Y-120574307D01*
X40801020Y-120564966D01*
X40612673Y-120203156D01*
X40608104Y-120193359D01*
X40452011Y-119816516D01*
X40448322Y-119806381D01*
X40325659Y-119417347D01*
X40322868Y-119406927D01*
X40319115Y-119389999D01*
X101240000Y-119389999D01*
X101240000Y-119390000D01*
X101240000Y-120060000D01*
X201320000Y-120060000D01*
X201320000Y-119350000D01*
X155599362Y-119350000D01*
X155532323Y-119330315D01*
X155486568Y-119277511D01*
X155476624Y-119208353D01*
X155500000Y-119157166D01*
X155500000Y-115760000D01*
X170890000Y-115760000D01*
X170890000Y-119100000D01*
X177640000Y-119100000D01*
X177640000Y-117694000D01*
X177659685Y-117626961D01*
X177712489Y-117581206D01*
X177764000Y-117570000D01*
X182739711Y-117570000D01*
X182779642Y-117548196D01*
X182849334Y-117553180D01*
X182905267Y-117595052D01*
X182929684Y-117660516D01*
X182930000Y-117669362D01*
X182930000Y-118520000D01*
X187810000Y-118520000D01*
X187810000Y-117684000D01*
X187829685Y-117616961D01*
X187882489Y-117571206D01*
X187934000Y-117560000D01*
X192876000Y-117560000D01*
X192943039Y-117579685D01*
X192988794Y-117632489D01*
X193000000Y-117684000D01*
X193000000Y-119100000D01*
X201400000Y-119100000D01*
X201420000Y-119080000D01*
X201420000Y-118953433D01*
X239509662Y-118953433D01*
X245991853Y-118953433D01*
X245991853Y-115912164D01*
X239509662Y-115912164D01*
X239509662Y-118953433D01*
X201420000Y-118953433D01*
X201420000Y-118930000D01*
X214827107Y-118930000D01*
X225245981Y-118930000D01*
X225245981Y-115918743D01*
X214827107Y-115918743D01*
X214827107Y-118930000D01*
X201420000Y-118930000D01*
X201420000Y-115720000D01*
X193030000Y-115720000D01*
X193029999Y-115720000D01*
X193020000Y-115729999D01*
X193020000Y-117036000D01*
X193000315Y-117103039D01*
X192947511Y-117148794D01*
X192896000Y-117160000D01*
X188214000Y-117160000D01*
X188146961Y-117140315D01*
X188101206Y-117087511D01*
X188090000Y-117036000D01*
X188090000Y-116260000D01*
X182930000Y-116260000D01*
X182930000Y-117060638D01*
X182910315Y-117127677D01*
X182857511Y-117173432D01*
X182788353Y-117183376D01*
X182737167Y-117160000D01*
X182730000Y-117160000D01*
X177764000Y-117160000D01*
X177696961Y-117140315D01*
X177651206Y-117087511D01*
X177640000Y-117036000D01*
X177640000Y-115760000D01*
X170890000Y-115760000D01*
X155500000Y-115760000D01*
X155500000Y-115720000D01*
X147480000Y-115720000D01*
X147480000Y-117116000D01*
X147460315Y-117183039D01*
X147407511Y-117228794D01*
X147356000Y-117240000D01*
X144554000Y-117240000D01*
X144486961Y-117220315D01*
X144441206Y-117167511D01*
X144430000Y-117116000D01*
X144430000Y-116350000D01*
X133670000Y-116350000D01*
X133669999Y-116350000D01*
X133660000Y-116359999D01*
X133660000Y-116360000D01*
X133660000Y-118620000D01*
X144410000Y-118620000D01*
X144420000Y-118610000D01*
X144420000Y-117784000D01*
X144439685Y-117716961D01*
X144492489Y-117671206D01*
X144544000Y-117660000D01*
X147836000Y-117660000D01*
X147903039Y-117679685D01*
X147948794Y-117732489D01*
X147960000Y-117784000D01*
X147960000Y-119159711D01*
X147981804Y-119199642D01*
X147976820Y-119269334D01*
X147934948Y-119325267D01*
X147869484Y-119349684D01*
X147860638Y-119350000D01*
X130515275Y-119350000D01*
X130448236Y-119330315D01*
X130402481Y-119277511D01*
X130392537Y-119208353D01*
X130410922Y-119162757D01*
X130409998Y-119160000D01*
X130410000Y-119160000D01*
X129898421Y-117632786D01*
X129776896Y-117269999D01*
X130140000Y-117269999D01*
X130140000Y-117270000D01*
X130140000Y-117660000D01*
X130169081Y-117660000D01*
X133400000Y-117660000D01*
X133400000Y-117260000D01*
X130150000Y-117260000D01*
X130149999Y-117260000D01*
X130140000Y-117269999D01*
X129776896Y-117269999D01*
X129744988Y-117174743D01*
X129742360Y-117104923D01*
X129748550Y-117086611D01*
X129759655Y-117060638D01*
X130320000Y-115750000D01*
X126790000Y-115750000D01*
X126790000Y-119139999D01*
X126792398Y-119145790D01*
X126821804Y-119199642D01*
X126816820Y-119269334D01*
X126774948Y-119325267D01*
X126709484Y-119349684D01*
X126700638Y-119350000D01*
X101279999Y-119350000D01*
X101240000Y-119389999D01*
X40319115Y-119389999D01*
X40295122Y-119281774D01*
X78984400Y-119281774D01*
X78984417Y-119281791D01*
X86864058Y-119281791D01*
X86864061Y-119281788D01*
X86864061Y-118978030D01*
X101090000Y-118978030D01*
X111037433Y-118978030D01*
X111037434Y-118978030D01*
X111040000Y-115790084D01*
X101090000Y-115790084D01*
X101090000Y-118978030D01*
X86864061Y-118978030D01*
X86864060Y-115583822D01*
X78984400Y-115583822D01*
X78984400Y-119281774D01*
X40295122Y-119281774D01*
X40234582Y-119008694D01*
X40232709Y-118998063D01*
X40179467Y-118593655D01*
X40178527Y-118582909D01*
X40160618Y-118172718D01*
X40160500Y-118167309D01*
X40160500Y-104186996D01*
X40966092Y-104186996D01*
X40966092Y-104395645D01*
X40998729Y-104601710D01*
X41063204Y-104800141D01*
X41102783Y-104877818D01*
X41157922Y-104986035D01*
X41280557Y-105154826D01*
X41428087Y-105302356D01*
X41596878Y-105424991D01*
X41684708Y-105469742D01*
X41782771Y-105519708D01*
X41782773Y-105519708D01*
X41782776Y-105519710D01*
X41889137Y-105554269D01*
X41981202Y-105584183D01*
X42187268Y-105616821D01*
X42187273Y-105616821D01*
X42395916Y-105616821D01*
X42601981Y-105584183D01*
X42800408Y-105519710D01*
X42986306Y-105424991D01*
X43155097Y-105302356D01*
X43302627Y-105154826D01*
X43425262Y-104986035D01*
X43519981Y-104800137D01*
X43584454Y-104601710D01*
X43617092Y-104395645D01*
X43617092Y-104186996D01*
X43584454Y-103980931D01*
X43519979Y-103782500D01*
X43425261Y-103596606D01*
X43337624Y-103475985D01*
X43302627Y-103427816D01*
X43155097Y-103280286D01*
X42986306Y-103157651D01*
X42800412Y-103062933D01*
X42601981Y-102998458D01*
X42395916Y-102965821D01*
X42395911Y-102965821D01*
X42187273Y-102965821D01*
X42187268Y-102965821D01*
X41981202Y-102998458D01*
X41782771Y-103062933D01*
X41596877Y-103157651D01*
X41428085Y-103280287D01*
X41280558Y-103427814D01*
X41157922Y-103596606D01*
X41063204Y-103782500D01*
X40998729Y-103980931D01*
X40966092Y-104186996D01*
X40160500Y-104186996D01*
X40160500Y-90875358D01*
X51624500Y-90875358D01*
X51624500Y-116214641D01*
X51656887Y-116502079D01*
X51656889Y-116502095D01*
X51721257Y-116784112D01*
X51721261Y-116784124D01*
X51816800Y-117057157D01*
X51816803Y-117057165D01*
X51942306Y-117317775D01*
X52007195Y-117421045D01*
X52096213Y-117562716D01*
X52276573Y-117788880D01*
X52481120Y-117993427D01*
X52707284Y-118173787D01*
X52952219Y-118327690D01*
X52952224Y-118327693D01*
X53212834Y-118453196D01*
X53212841Y-118453198D01*
X53212846Y-118453201D01*
X53403747Y-118520000D01*
X53485875Y-118548738D01*
X53485887Y-118548742D01*
X53767908Y-118613111D01*
X54055358Y-118645499D01*
X54055359Y-118645500D01*
X54055363Y-118645500D01*
X62644641Y-118645500D01*
X62644641Y-118645499D01*
X62932092Y-118613111D01*
X63214113Y-118548742D01*
X63487154Y-118453201D01*
X63487162Y-118453197D01*
X63487165Y-118453196D01*
X63747775Y-118327693D01*
X63747775Y-118327692D01*
X63747781Y-118327690D01*
X63992716Y-118173787D01*
X64218880Y-117993427D01*
X64423427Y-117788880D01*
X64603787Y-117562716D01*
X64757690Y-117317781D01*
X64843153Y-117140315D01*
X64883196Y-117057165D01*
X64883197Y-117057162D01*
X64883201Y-117057154D01*
X64978742Y-116784113D01*
X65043111Y-116502092D01*
X65075500Y-116214637D01*
X65075500Y-116070000D01*
X65075500Y-116000122D01*
X65075500Y-96660834D01*
X72760000Y-96660834D01*
X72760000Y-111914068D01*
X72776394Y-112011951D01*
X72838618Y-112300335D01*
X72933932Y-112588429D01*
X72933935Y-112588437D01*
X72975130Y-112687338D01*
X73047522Y-112839826D01*
X73128909Y-112987928D01*
X73128918Y-112987943D01*
X73317495Y-113268955D01*
X73366493Y-113331617D01*
X73477563Y-113461698D01*
X73477569Y-113461704D01*
X73596216Y-113585233D01*
X73596221Y-113585237D01*
X73596226Y-113585243D01*
X73853058Y-113809694D01*
X73853079Y-113809710D01*
X74130836Y-114000410D01*
X74130845Y-114000416D01*
X74302188Y-114095855D01*
X74466957Y-114173486D01*
X74623603Y-114235445D01*
X74623608Y-114235446D01*
X74623614Y-114235449D01*
X74700678Y-114260837D01*
X74770579Y-114283866D01*
X75029331Y-114348642D01*
X75222048Y-114383320D01*
X75223723Y-114383748D01*
X75230833Y-114384902D01*
X75230834Y-114384902D01*
X90484074Y-114384902D01*
X90484074Y-114384901D01*
X90583540Y-114368231D01*
X90871827Y-114305878D01*
X91159953Y-114210369D01*
X91260222Y-114168505D01*
X91412618Y-114095949D01*
X91560644Y-114014392D01*
X91841460Y-113825500D01*
X91903982Y-113776504D01*
X92033948Y-113665296D01*
X92157355Y-113546520D01*
X92381543Y-113289457D01*
X92571938Y-113011531D01*
X92666947Y-112840583D01*
X92667304Y-112839824D01*
X92744235Y-112676222D01*
X92744238Y-112676215D01*
X92805935Y-112519961D01*
X92854164Y-112373353D01*
X92918718Y-112115214D01*
X92954902Y-111914068D01*
X92954902Y-96660834D01*
X95610000Y-96660834D01*
X95610000Y-111914068D01*
X95626394Y-112011951D01*
X95688618Y-112300335D01*
X95783932Y-112588429D01*
X95783935Y-112588437D01*
X95825130Y-112687338D01*
X95897522Y-112839826D01*
X95978909Y-112987928D01*
X95978918Y-112987943D01*
X96167495Y-113268955D01*
X96216493Y-113331617D01*
X96327563Y-113461698D01*
X96327569Y-113461704D01*
X96446216Y-113585233D01*
X96446221Y-113585237D01*
X96446226Y-113585243D01*
X96703058Y-113809694D01*
X96703079Y-113809710D01*
X96980836Y-114000410D01*
X96980845Y-114000416D01*
X97152188Y-114095855D01*
X97316957Y-114173486D01*
X97473603Y-114235445D01*
X97473608Y-114235446D01*
X97473614Y-114235449D01*
X97550678Y-114260837D01*
X97620579Y-114283866D01*
X97879331Y-114348642D01*
X98072048Y-114383320D01*
X98073723Y-114383748D01*
X98080833Y-114384902D01*
X98080834Y-114384902D01*
X113334074Y-114384902D01*
X113334074Y-114384901D01*
X113433540Y-114368231D01*
X113721827Y-114305878D01*
X114009953Y-114210369D01*
X114110222Y-114168505D01*
X114262618Y-114095949D01*
X114410644Y-114014392D01*
X114691460Y-113825500D01*
X114753982Y-113776504D01*
X114883948Y-113665296D01*
X115007355Y-113546520D01*
X115231543Y-113289457D01*
X115421938Y-113011531D01*
X115516947Y-112840583D01*
X115517304Y-112839824D01*
X115594235Y-112676222D01*
X115594238Y-112676215D01*
X115655935Y-112519961D01*
X115704164Y-112373353D01*
X115768718Y-112115214D01*
X115804902Y-111914068D01*
X115804902Y-96660834D01*
X118460000Y-96660834D01*
X118460000Y-111914068D01*
X118476394Y-112011951D01*
X118538618Y-112300335D01*
X118633932Y-112588429D01*
X118633935Y-112588437D01*
X118675130Y-112687338D01*
X118747522Y-112839826D01*
X118828909Y-112987928D01*
X118828918Y-112987943D01*
X119017495Y-113268955D01*
X119066493Y-113331617D01*
X119177563Y-113461698D01*
X119177569Y-113461704D01*
X119296216Y-113585233D01*
X119296221Y-113585237D01*
X119296226Y-113585243D01*
X119553058Y-113809694D01*
X119553079Y-113809710D01*
X119830836Y-114000410D01*
X119830845Y-114000416D01*
X120002188Y-114095855D01*
X120166957Y-114173486D01*
X120323603Y-114235445D01*
X120323608Y-114235446D01*
X120323614Y-114235449D01*
X120400678Y-114260837D01*
X120470579Y-114283866D01*
X120729331Y-114348642D01*
X120922048Y-114383320D01*
X120923723Y-114383748D01*
X120930833Y-114384902D01*
X120930834Y-114384902D01*
X136184074Y-114384902D01*
X136184074Y-114384901D01*
X136283540Y-114368231D01*
X136571827Y-114305878D01*
X136859953Y-114210369D01*
X136960222Y-114168505D01*
X137112618Y-114095949D01*
X137260644Y-114014392D01*
X137541460Y-113825500D01*
X137603982Y-113776504D01*
X137733948Y-113665296D01*
X137857355Y-113546520D01*
X138081543Y-113289457D01*
X138271938Y-113011531D01*
X138366947Y-112840583D01*
X138367304Y-112839824D01*
X138444235Y-112676222D01*
X138444238Y-112676215D01*
X138505935Y-112519961D01*
X138554164Y-112373353D01*
X138618718Y-112115214D01*
X138654902Y-111914068D01*
X138654902Y-96660834D01*
X141310000Y-96660834D01*
X141310000Y-111914068D01*
X141326394Y-112011951D01*
X141388618Y-112300335D01*
X141483932Y-112588429D01*
X141483935Y-112588437D01*
X141525130Y-112687338D01*
X141597522Y-112839826D01*
X141678909Y-112987928D01*
X141678918Y-112987943D01*
X141867495Y-113268955D01*
X141916493Y-113331617D01*
X142027563Y-113461698D01*
X142027569Y-113461704D01*
X142146216Y-113585233D01*
X142146221Y-113585237D01*
X142146226Y-113585243D01*
X142403058Y-113809694D01*
X142403079Y-113809710D01*
X142680836Y-114000410D01*
X142680845Y-114000416D01*
X142852188Y-114095855D01*
X143016957Y-114173486D01*
X143173603Y-114235445D01*
X143173608Y-114235446D01*
X143173614Y-114235449D01*
X143250678Y-114260837D01*
X143320579Y-114283866D01*
X143579331Y-114348642D01*
X143772048Y-114383320D01*
X143773723Y-114383748D01*
X143780833Y-114384902D01*
X143780834Y-114384902D01*
X159034074Y-114384902D01*
X159034074Y-114384901D01*
X159133540Y-114368231D01*
X159421827Y-114305878D01*
X159709953Y-114210369D01*
X159810222Y-114168505D01*
X159962618Y-114095949D01*
X160110644Y-114014392D01*
X160391460Y-113825500D01*
X160453982Y-113776504D01*
X160583948Y-113665296D01*
X160707355Y-113546520D01*
X160931543Y-113289457D01*
X161121938Y-113011531D01*
X161216947Y-112840583D01*
X161217304Y-112839824D01*
X161294235Y-112676222D01*
X161294238Y-112676215D01*
X161355935Y-112519961D01*
X161404164Y-112373353D01*
X161468718Y-112115214D01*
X161504902Y-111914068D01*
X161504902Y-96660834D01*
X164160000Y-96660834D01*
X164160000Y-111914068D01*
X164176394Y-112011951D01*
X164238618Y-112300335D01*
X164333932Y-112588429D01*
X164333935Y-112588437D01*
X164375130Y-112687338D01*
X164447522Y-112839826D01*
X164528909Y-112987928D01*
X164528918Y-112987943D01*
X164717495Y-113268955D01*
X164766493Y-113331617D01*
X164877563Y-113461698D01*
X164877569Y-113461704D01*
X164996216Y-113585233D01*
X164996221Y-113585237D01*
X164996226Y-113585243D01*
X165253058Y-113809694D01*
X165253079Y-113809710D01*
X165530836Y-114000410D01*
X165530845Y-114000416D01*
X165702188Y-114095855D01*
X165866957Y-114173486D01*
X166023603Y-114235445D01*
X166023608Y-114235446D01*
X166023614Y-114235449D01*
X166100678Y-114260837D01*
X166170579Y-114283866D01*
X166429331Y-114348642D01*
X166622048Y-114383320D01*
X166623723Y-114383748D01*
X166630833Y-114384902D01*
X166630834Y-114384902D01*
X181884074Y-114384902D01*
X181884074Y-114384901D01*
X181983540Y-114368231D01*
X182271827Y-114305878D01*
X182559953Y-114210369D01*
X182660222Y-114168505D01*
X182812618Y-114095949D01*
X182960644Y-114014392D01*
X183241460Y-113825500D01*
X183303982Y-113776504D01*
X183433948Y-113665296D01*
X183557355Y-113546520D01*
X183781543Y-113289457D01*
X183971938Y-113011531D01*
X184066947Y-112840583D01*
X184067304Y-112839824D01*
X184144235Y-112676222D01*
X184144238Y-112676215D01*
X184205935Y-112519961D01*
X184254164Y-112373353D01*
X184318718Y-112115214D01*
X184354902Y-111914068D01*
X184354902Y-96660834D01*
X187010000Y-96660834D01*
X187010000Y-111914068D01*
X187026394Y-112011951D01*
X187088618Y-112300335D01*
X187183932Y-112588429D01*
X187183935Y-112588437D01*
X187225130Y-112687338D01*
X187297522Y-112839826D01*
X187378909Y-112987928D01*
X187378918Y-112987943D01*
X187567495Y-113268955D01*
X187616493Y-113331617D01*
X187727563Y-113461698D01*
X187727569Y-113461704D01*
X187846216Y-113585233D01*
X187846221Y-113585237D01*
X187846226Y-113585243D01*
X188103058Y-113809694D01*
X188103079Y-113809710D01*
X188380836Y-114000410D01*
X188380845Y-114000416D01*
X188552188Y-114095855D01*
X188716957Y-114173486D01*
X188873603Y-114235445D01*
X188873608Y-114235446D01*
X188873614Y-114235449D01*
X188950678Y-114260837D01*
X189020579Y-114283866D01*
X189279331Y-114348642D01*
X189472048Y-114383320D01*
X189473723Y-114383748D01*
X189480833Y-114384902D01*
X189480834Y-114384902D01*
X204734074Y-114384902D01*
X204734074Y-114384901D01*
X204833540Y-114368231D01*
X205121827Y-114305878D01*
X205409953Y-114210369D01*
X205510222Y-114168505D01*
X205662618Y-114095949D01*
X205810644Y-114014392D01*
X206091460Y-113825500D01*
X206153982Y-113776504D01*
X206283948Y-113665296D01*
X206407355Y-113546520D01*
X206631543Y-113289457D01*
X206821938Y-113011531D01*
X206916947Y-112840583D01*
X206917304Y-112839824D01*
X206994235Y-112676222D01*
X206994238Y-112676215D01*
X207055935Y-112519961D01*
X207104164Y-112373353D01*
X207168718Y-112115214D01*
X207204902Y-111914068D01*
X207204902Y-96660834D01*
X209860000Y-96660834D01*
X209860000Y-111914068D01*
X209876394Y-112011951D01*
X209938618Y-112300335D01*
X210033932Y-112588429D01*
X210033935Y-112588437D01*
X210075130Y-112687338D01*
X210147522Y-112839826D01*
X210228909Y-112987928D01*
X210228918Y-112987943D01*
X210417495Y-113268955D01*
X210466493Y-113331617D01*
X210577563Y-113461698D01*
X210577569Y-113461704D01*
X210696216Y-113585233D01*
X210696221Y-113585237D01*
X210696226Y-113585243D01*
X210953058Y-113809694D01*
X210953079Y-113809710D01*
X211230836Y-114000410D01*
X211230845Y-114000416D01*
X211402188Y-114095855D01*
X211566957Y-114173486D01*
X211723603Y-114235445D01*
X211723608Y-114235446D01*
X211723614Y-114235449D01*
X211800678Y-114260837D01*
X211870579Y-114283866D01*
X212129331Y-114348642D01*
X212322048Y-114383320D01*
X212323723Y-114383748D01*
X212330833Y-114384902D01*
X212330834Y-114384902D01*
X227584074Y-114384902D01*
X227584074Y-114384901D01*
X227683540Y-114368231D01*
X227971827Y-114305878D01*
X228259953Y-114210369D01*
X228360222Y-114168505D01*
X228512618Y-114095949D01*
X228660644Y-114014392D01*
X228941460Y-113825500D01*
X229003982Y-113776504D01*
X229133948Y-113665296D01*
X229257355Y-113546520D01*
X229481543Y-113289457D01*
X229671938Y-113011531D01*
X229766947Y-112840583D01*
X229767304Y-112839824D01*
X229844235Y-112676222D01*
X229844238Y-112676215D01*
X229905935Y-112519961D01*
X229954164Y-112373353D01*
X230018718Y-112115214D01*
X230054902Y-111914068D01*
X230054902Y-96660834D01*
X232710000Y-96660834D01*
X232710000Y-111914068D01*
X232726394Y-112011951D01*
X232788618Y-112300335D01*
X232883932Y-112588429D01*
X232883935Y-112588437D01*
X232925130Y-112687338D01*
X232997522Y-112839826D01*
X233078909Y-112987928D01*
X233078918Y-112987943D01*
X233267495Y-113268955D01*
X233316493Y-113331617D01*
X233427563Y-113461698D01*
X233427569Y-113461704D01*
X233546216Y-113585233D01*
X233546221Y-113585237D01*
X233546226Y-113585243D01*
X233803058Y-113809694D01*
X233803079Y-113809710D01*
X234080836Y-114000410D01*
X234080845Y-114000416D01*
X234252188Y-114095855D01*
X234416957Y-114173486D01*
X234573603Y-114235445D01*
X234573608Y-114235446D01*
X234573614Y-114235449D01*
X234650678Y-114260837D01*
X234720579Y-114283866D01*
X234979331Y-114348642D01*
X235172048Y-114383320D01*
X235173723Y-114383748D01*
X235180833Y-114384902D01*
X235180834Y-114384902D01*
X250434074Y-114384902D01*
X250434074Y-114384901D01*
X250533540Y-114368231D01*
X250821827Y-114305878D01*
X251109953Y-114210369D01*
X251210222Y-114168505D01*
X251362618Y-114095949D01*
X251510644Y-114014392D01*
X251791460Y-113825500D01*
X251853982Y-113776504D01*
X251983948Y-113665296D01*
X252107355Y-113546520D01*
X252331543Y-113289457D01*
X252521938Y-113011531D01*
X252616947Y-112840583D01*
X252617304Y-112839824D01*
X252694235Y-112676222D01*
X252694238Y-112676215D01*
X252755935Y-112519961D01*
X252804164Y-112373353D01*
X252868718Y-112115214D01*
X252904902Y-111914068D01*
X252904902Y-104186996D01*
X253453566Y-104186996D01*
X253453566Y-104395645D01*
X253486203Y-104601710D01*
X253550678Y-104800141D01*
X253590257Y-104877818D01*
X253645396Y-104986035D01*
X253768031Y-105154826D01*
X253915561Y-105302356D01*
X254084352Y-105424991D01*
X254172182Y-105469742D01*
X254270245Y-105519708D01*
X254270247Y-105519708D01*
X254270250Y-105519710D01*
X254376611Y-105554269D01*
X254468676Y-105584183D01*
X254674742Y-105616821D01*
X254674747Y-105616821D01*
X254883390Y-105616821D01*
X255089455Y-105584183D01*
X255287882Y-105519710D01*
X255473780Y-105424991D01*
X255642571Y-105302356D01*
X255790101Y-105154826D01*
X255912736Y-104986035D01*
X256007455Y-104800137D01*
X256071928Y-104601710D01*
X256104566Y-104395645D01*
X256104566Y-104186996D01*
X256071928Y-103980931D01*
X256007453Y-103782500D01*
X255912735Y-103596606D01*
X255825098Y-103475985D01*
X255790101Y-103427816D01*
X255642571Y-103280286D01*
X255473780Y-103157651D01*
X255287886Y-103062933D01*
X255089455Y-102998458D01*
X254883390Y-102965821D01*
X254883385Y-102965821D01*
X254674747Y-102965821D01*
X254674742Y-102965821D01*
X254468676Y-102998458D01*
X254270245Y-103062933D01*
X254084351Y-103157651D01*
X253915559Y-103280287D01*
X253768032Y-103427814D01*
X253645396Y-103596606D01*
X253550678Y-103782500D01*
X253486203Y-103980931D01*
X253453566Y-104186996D01*
X252904902Y-104186996D01*
X252904902Y-96660834D01*
X252888509Y-96562956D01*
X252826286Y-96274576D01*
X252730968Y-95986466D01*
X252689765Y-95887548D01*
X252617379Y-95735074D01*
X252535985Y-95586961D01*
X252347409Y-95305950D01*
X252298408Y-95243284D01*
X252187338Y-95113203D01*
X252169523Y-95094655D01*
X252068686Y-94989669D01*
X252068680Y-94989663D01*
X252068675Y-94989658D01*
X251811843Y-94765207D01*
X251811822Y-94765191D01*
X251534056Y-94574485D01*
X251451792Y-94528009D01*
X251369528Y-94481533D01*
X251215205Y-94406259D01*
X250932208Y-94299041D01*
X250675139Y-94233424D01*
X250434068Y-94190000D01*
X235180834Y-94190000D01*
X235180831Y-94190000D01*
X235083974Y-94206209D01*
X234795562Y-94268278D01*
X234506460Y-94363936D01*
X234407560Y-94405131D01*
X234407543Y-94405138D01*
X234255084Y-94477517D01*
X234255081Y-94477519D01*
X234106964Y-94558915D01*
X234106958Y-94558918D01*
X233825946Y-94747495D01*
X233763292Y-94796487D01*
X233633192Y-94907574D01*
X233509665Y-95026219D01*
X233285198Y-95283068D01*
X233094481Y-95560852D01*
X232999042Y-95732195D01*
X232999039Y-95732201D01*
X232921413Y-95896959D01*
X232859454Y-96053608D01*
X232811036Y-96200578D01*
X232792514Y-96274566D01*
X232746260Y-96459333D01*
X232727614Y-96562951D01*
X232710000Y-96660834D01*
X230054902Y-96660834D01*
X230038509Y-96562956D01*
X229976286Y-96274576D01*
X229880968Y-95986466D01*
X229839765Y-95887548D01*
X229767379Y-95735074D01*
X229685985Y-95586961D01*
X229497409Y-95305950D01*
X229448408Y-95243284D01*
X229337338Y-95113203D01*
X229319523Y-95094655D01*
X229218686Y-94989669D01*
X229218680Y-94989663D01*
X229218675Y-94989658D01*
X228961843Y-94765207D01*
X228961822Y-94765191D01*
X228684056Y-94574485D01*
X228601792Y-94528009D01*
X228519528Y-94481533D01*
X228365205Y-94406259D01*
X228082208Y-94299041D01*
X227825139Y-94233424D01*
X227584068Y-94190000D01*
X212330834Y-94190000D01*
X212330831Y-94190000D01*
X212233974Y-94206209D01*
X211945562Y-94268278D01*
X211656460Y-94363936D01*
X211557560Y-94405131D01*
X211557543Y-94405138D01*
X211405084Y-94477517D01*
X211405081Y-94477519D01*
X211256964Y-94558915D01*
X211256958Y-94558918D01*
X210975946Y-94747495D01*
X210913292Y-94796487D01*
X210783192Y-94907574D01*
X210659665Y-95026219D01*
X210435198Y-95283068D01*
X210244481Y-95560852D01*
X210149042Y-95732195D01*
X210149039Y-95732201D01*
X210071413Y-95896959D01*
X210009454Y-96053608D01*
X209961036Y-96200578D01*
X209942514Y-96274566D01*
X209896260Y-96459333D01*
X209877614Y-96562951D01*
X209860000Y-96660834D01*
X207204902Y-96660834D01*
X207188509Y-96562956D01*
X207126286Y-96274576D01*
X207030968Y-95986466D01*
X206989765Y-95887548D01*
X206917379Y-95735074D01*
X206835985Y-95586961D01*
X206647409Y-95305950D01*
X206598408Y-95243284D01*
X206487338Y-95113203D01*
X206469523Y-95094655D01*
X206368686Y-94989669D01*
X206368680Y-94989663D01*
X206368675Y-94989658D01*
X206111843Y-94765207D01*
X206111822Y-94765191D01*
X205834056Y-94574485D01*
X205751792Y-94528009D01*
X205669528Y-94481533D01*
X205515205Y-94406259D01*
X205232208Y-94299041D01*
X204975139Y-94233424D01*
X204734068Y-94190000D01*
X189480834Y-94190000D01*
X189480831Y-94190000D01*
X189383974Y-94206209D01*
X189095562Y-94268278D01*
X188806460Y-94363936D01*
X188707560Y-94405131D01*
X188707543Y-94405138D01*
X188555084Y-94477517D01*
X188555081Y-94477519D01*
X188406964Y-94558915D01*
X188406958Y-94558918D01*
X188125946Y-94747495D01*
X188063292Y-94796487D01*
X187933192Y-94907574D01*
X187809665Y-95026219D01*
X187585198Y-95283068D01*
X187394481Y-95560852D01*
X187299042Y-95732195D01*
X187299039Y-95732201D01*
X187221413Y-95896959D01*
X187159454Y-96053608D01*
X187111036Y-96200578D01*
X187092514Y-96274566D01*
X187046260Y-96459333D01*
X187027614Y-96562951D01*
X187010000Y-96660834D01*
X184354902Y-96660834D01*
X184338509Y-96562956D01*
X184276286Y-96274576D01*
X184180968Y-95986466D01*
X184139765Y-95887548D01*
X184067379Y-95735074D01*
X183985985Y-95586961D01*
X183797409Y-95305950D01*
X183748408Y-95243284D01*
X183637338Y-95113203D01*
X183619523Y-95094655D01*
X183518686Y-94989669D01*
X183518680Y-94989663D01*
X183518675Y-94989658D01*
X183261843Y-94765207D01*
X183261822Y-94765191D01*
X182984056Y-94574485D01*
X182901792Y-94528009D01*
X182819528Y-94481533D01*
X182665205Y-94406259D01*
X182382208Y-94299041D01*
X182125139Y-94233424D01*
X181884068Y-94190000D01*
X166630834Y-94190000D01*
X166630831Y-94190000D01*
X166533974Y-94206209D01*
X166245562Y-94268278D01*
X165956460Y-94363936D01*
X165857560Y-94405131D01*
X165857543Y-94405138D01*
X165705084Y-94477517D01*
X165705081Y-94477519D01*
X165556964Y-94558915D01*
X165556958Y-94558918D01*
X165275946Y-94747495D01*
X165213292Y-94796487D01*
X165083192Y-94907574D01*
X164959665Y-95026219D01*
X164735198Y-95283068D01*
X164544481Y-95560852D01*
X164449042Y-95732195D01*
X164449039Y-95732201D01*
X164371413Y-95896959D01*
X164309454Y-96053608D01*
X164261036Y-96200578D01*
X164242514Y-96274566D01*
X164196260Y-96459333D01*
X164177614Y-96562951D01*
X164160000Y-96660834D01*
X161504902Y-96660834D01*
X161488509Y-96562956D01*
X161426286Y-96274576D01*
X161330968Y-95986466D01*
X161289765Y-95887548D01*
X161217379Y-95735074D01*
X161135985Y-95586961D01*
X160947409Y-95305950D01*
X160898408Y-95243284D01*
X160787338Y-95113203D01*
X160769523Y-95094655D01*
X160668686Y-94989669D01*
X160668680Y-94989663D01*
X160668675Y-94989658D01*
X160411843Y-94765207D01*
X160411822Y-94765191D01*
X160134056Y-94574485D01*
X160051792Y-94528009D01*
X159969528Y-94481533D01*
X159815205Y-94406259D01*
X159532208Y-94299041D01*
X159275139Y-94233424D01*
X159034068Y-94190000D01*
X143780834Y-94190000D01*
X143780831Y-94190000D01*
X143683974Y-94206209D01*
X143395562Y-94268278D01*
X143106460Y-94363936D01*
X143007560Y-94405131D01*
X143007543Y-94405138D01*
X142855084Y-94477517D01*
X142855081Y-94477519D01*
X142706964Y-94558915D01*
X142706958Y-94558918D01*
X142425946Y-94747495D01*
X142363292Y-94796487D01*
X142233192Y-94907574D01*
X142109665Y-95026219D01*
X141885198Y-95283068D01*
X141694481Y-95560852D01*
X141599042Y-95732195D01*
X141599039Y-95732201D01*
X141521413Y-95896959D01*
X141459454Y-96053608D01*
X141411036Y-96200578D01*
X141392514Y-96274566D01*
X141346260Y-96459333D01*
X141327614Y-96562951D01*
X141310000Y-96660834D01*
X138654902Y-96660834D01*
X138638509Y-96562956D01*
X138576286Y-96274576D01*
X138480968Y-95986466D01*
X138439765Y-95887548D01*
X138367379Y-95735074D01*
X138285985Y-95586961D01*
X138097409Y-95305950D01*
X138048408Y-95243284D01*
X137937338Y-95113203D01*
X137919523Y-95094655D01*
X137818686Y-94989669D01*
X137818680Y-94989663D01*
X137818675Y-94989658D01*
X137561843Y-94765207D01*
X137561822Y-94765191D01*
X137284056Y-94574485D01*
X137201792Y-94528009D01*
X137119528Y-94481533D01*
X136965205Y-94406259D01*
X136682208Y-94299041D01*
X136425139Y-94233424D01*
X136184068Y-94190000D01*
X120930834Y-94190000D01*
X120930831Y-94190000D01*
X120833974Y-94206209D01*
X120545562Y-94268278D01*
X120256460Y-94363936D01*
X120157560Y-94405131D01*
X120157543Y-94405138D01*
X120005084Y-94477517D01*
X120005081Y-94477519D01*
X119856964Y-94558915D01*
X119856958Y-94558918D01*
X119575946Y-94747495D01*
X119513292Y-94796487D01*
X119383192Y-94907574D01*
X119259665Y-95026219D01*
X119035198Y-95283068D01*
X118844481Y-95560852D01*
X118749042Y-95732195D01*
X118749039Y-95732201D01*
X118671413Y-95896959D01*
X118609454Y-96053608D01*
X118561036Y-96200578D01*
X118542514Y-96274566D01*
X118496260Y-96459333D01*
X118477614Y-96562951D01*
X118460000Y-96660834D01*
X115804902Y-96660834D01*
X115788509Y-96562956D01*
X115726286Y-96274576D01*
X115630968Y-95986466D01*
X115589765Y-95887548D01*
X115517379Y-95735074D01*
X115435985Y-95586961D01*
X115247409Y-95305950D01*
X115198408Y-95243284D01*
X115087338Y-95113203D01*
X115069523Y-95094655D01*
X114968686Y-94989669D01*
X114968680Y-94989663D01*
X114968675Y-94989658D01*
X114711843Y-94765207D01*
X114711822Y-94765191D01*
X114434056Y-94574485D01*
X114351792Y-94528009D01*
X114269528Y-94481533D01*
X114115205Y-94406259D01*
X113832208Y-94299041D01*
X113575139Y-94233424D01*
X113334068Y-94190000D01*
X98080834Y-94190000D01*
X98080831Y-94190000D01*
X97983974Y-94206209D01*
X97695562Y-94268278D01*
X97406460Y-94363936D01*
X97307560Y-94405131D01*
X97307543Y-94405138D01*
X97155084Y-94477517D01*
X97155081Y-94477519D01*
X97006964Y-94558915D01*
X97006958Y-94558918D01*
X96725946Y-94747495D01*
X96663292Y-94796487D01*
X96533192Y-94907574D01*
X96409665Y-95026219D01*
X96185198Y-95283068D01*
X95994481Y-95560852D01*
X95899042Y-95732195D01*
X95899039Y-95732201D01*
X95821413Y-95896959D01*
X95759454Y-96053608D01*
X95711036Y-96200578D01*
X95692514Y-96274566D01*
X95646260Y-96459333D01*
X95627614Y-96562951D01*
X95610000Y-96660834D01*
X92954902Y-96660834D01*
X92938509Y-96562956D01*
X92876286Y-96274576D01*
X92780968Y-95986466D01*
X92739765Y-95887548D01*
X92667379Y-95735074D01*
X92585985Y-95586961D01*
X92397409Y-95305950D01*
X92348408Y-95243284D01*
X92237338Y-95113203D01*
X92219523Y-95094655D01*
X92118686Y-94989669D01*
X92118680Y-94989663D01*
X92118675Y-94989658D01*
X91861843Y-94765207D01*
X91861822Y-94765191D01*
X91584056Y-94574485D01*
X91501792Y-94528009D01*
X91419528Y-94481533D01*
X91265205Y-94406259D01*
X90982208Y-94299041D01*
X90725139Y-94233424D01*
X90484068Y-94190000D01*
X75230834Y-94190000D01*
X75230831Y-94190000D01*
X75133974Y-94206209D01*
X74845562Y-94268278D01*
X74556460Y-94363936D01*
X74457560Y-94405131D01*
X74457543Y-94405138D01*
X74305084Y-94477517D01*
X74305081Y-94477519D01*
X74156964Y-94558915D01*
X74156958Y-94558918D01*
X73875946Y-94747495D01*
X73813292Y-94796487D01*
X73683192Y-94907574D01*
X73559665Y-95026219D01*
X73335198Y-95283068D01*
X73144481Y-95560852D01*
X73049042Y-95732195D01*
X73049039Y-95732201D01*
X72971413Y-95896959D01*
X72909454Y-96053608D01*
X72861036Y-96200578D01*
X72842514Y-96274566D01*
X72796260Y-96459333D01*
X72777614Y-96562951D01*
X72760000Y-96660834D01*
X65075500Y-96660834D01*
X65075500Y-90944234D01*
X65075500Y-90875363D01*
X65043111Y-90587908D01*
X64978742Y-90305887D01*
X64883201Y-90032846D01*
X64883198Y-90032841D01*
X64883196Y-90032834D01*
X64757693Y-89772224D01*
X64751981Y-89763134D01*
X64697465Y-89676371D01*
X64683950Y-89654862D01*
X64646869Y-89595849D01*
X218415740Y-89595849D01*
X218415740Y-90873795D01*
X218420891Y-90919519D01*
X218460573Y-91001917D01*
X218460574Y-91001918D01*
X218532077Y-91058940D01*
X218621240Y-91079291D01*
X218621245Y-91079291D01*
X218622891Y-91079477D01*
X218623887Y-91079895D01*
X218628029Y-91080841D01*
X218627863Y-91081566D01*
X218687306Y-91106541D01*
X218726864Y-91164134D01*
X218732233Y-91188813D01*
X218737068Y-91231728D01*
X218776750Y-91314126D01*
X218776751Y-91314127D01*
X218848254Y-91371149D01*
X218914845Y-91386348D01*
X218937412Y-91391499D01*
X218937417Y-91391500D01*
X222758003Y-91391500D01*
X222758003Y-91391499D01*
X222803728Y-91386348D01*
X222853491Y-91362383D01*
X222922432Y-91351029D01*
X222963039Y-91368092D01*
X222964487Y-91365087D01*
X222977074Y-91371148D01*
X222977075Y-91371148D01*
X222977076Y-91371149D01*
X223043667Y-91386348D01*
X223066234Y-91391499D01*
X223066239Y-91391500D01*
X224653742Y-91391500D01*
X224653742Y-91391499D01*
X224699467Y-91386348D01*
X224781866Y-91346666D01*
X224838888Y-91275163D01*
X224859239Y-91186000D01*
X224859239Y-90863208D01*
X224854087Y-90817480D01*
X224848985Y-90806886D01*
X224814405Y-90735081D01*
X224742900Y-90678057D01*
X224721343Y-90673137D01*
X224660365Y-90639027D01*
X224627509Y-90577365D01*
X224633205Y-90507728D01*
X224675646Y-90452225D01*
X224698587Y-90440964D01*
X224697982Y-90439708D01*
X224707405Y-90435170D01*
X224789804Y-90395488D01*
X224846826Y-90323985D01*
X224867177Y-90234822D01*
X224867177Y-89610080D01*
X224886862Y-89543041D01*
X224939666Y-89497286D01*
X224977295Y-89486860D01*
X224980499Y-89486499D01*
X224980500Y-89486499D01*
X225026228Y-89481347D01*
X225108627Y-89441665D01*
X225165649Y-89370162D01*
X225186000Y-89280999D01*
X225186000Y-88972714D01*
X225205685Y-88905675D01*
X225258489Y-88859920D01*
X225296117Y-88849494D01*
X225312730Y-88847622D01*
X225335791Y-88845024D01*
X225418190Y-88805342D01*
X225475212Y-88733839D01*
X225495563Y-88644676D01*
X225495563Y-88041401D01*
X225515248Y-87974362D01*
X225568052Y-87928607D01*
X225637210Y-87918663D01*
X225700766Y-87947688D01*
X225718714Y-87969429D01*
X225719583Y-87968763D01*
X225724529Y-87975209D01*
X225724531Y-87975212D01*
X225789788Y-88040469D01*
X225789791Y-88040470D01*
X225789794Y-88040473D01*
X225869706Y-88086611D01*
X225869710Y-88086613D01*
X225869712Y-88086614D01*
X225907125Y-88096638D01*
X225966785Y-88133002D01*
X225997315Y-88195849D01*
X225989021Y-88265225D01*
X225944536Y-88319103D01*
X225937036Y-88323798D01*
X225909791Y-88339528D01*
X225909785Y-88339533D01*
X225844533Y-88404785D01*
X225844526Y-88404794D01*
X225798388Y-88484706D01*
X225798387Y-88484709D01*
X225798386Y-88484711D01*
X225798386Y-88484712D01*
X225774500Y-88573856D01*
X225774500Y-88666144D01*
X225798049Y-88754031D01*
X225798387Y-88755290D01*
X225798388Y-88755293D01*
X225844526Y-88835205D01*
X225844529Y-88835209D01*
X225844531Y-88835212D01*
X225909788Y-88900469D01*
X225909791Y-88900470D01*
X225909794Y-88900473D01*
X225989706Y-88946611D01*
X225989710Y-88946613D01*
X225989712Y-88946614D01*
X226033957Y-88958469D01*
X226093616Y-88994832D01*
X226124146Y-89057678D01*
X226115852Y-89127054D01*
X226071367Y-89180932D01*
X226063866Y-89185628D01*
X226039794Y-89199526D01*
X226039785Y-89199533D01*
X225974533Y-89264785D01*
X225974526Y-89264794D01*
X225928388Y-89344706D01*
X225928387Y-89344709D01*
X225928386Y-89344711D01*
X225928386Y-89344712D01*
X225904500Y-89433856D01*
X225904500Y-89526144D01*
X225927783Y-89613038D01*
X225928387Y-89615290D01*
X225928388Y-89615293D01*
X225974526Y-89695205D01*
X225974529Y-89695209D01*
X225974531Y-89695212D01*
X226039788Y-89760469D01*
X226039791Y-89760470D01*
X226039794Y-89760473D01*
X226119706Y-89806611D01*
X226119707Y-89806611D01*
X226119712Y-89806614D01*
X226208856Y-89830500D01*
X226208858Y-89830500D01*
X226861141Y-89830500D01*
X226861144Y-89830500D01*
X226880654Y-89825272D01*
X226950500Y-89826933D01*
X227008363Y-89866093D01*
X227035870Y-89930321D01*
X227036747Y-89945046D01*
X227036747Y-90371521D01*
X227017062Y-90438560D01*
X226964258Y-90484315D01*
X226895100Y-90494259D01*
X226880654Y-90491296D01*
X226829305Y-90477537D01*
X226799309Y-90469500D01*
X226510691Y-90469500D01*
X226396114Y-90500201D01*
X226396112Y-90500201D01*
X226396112Y-90500202D01*
X226293387Y-90559511D01*
X226293384Y-90559513D01*
X226209513Y-90643384D01*
X226209511Y-90643387D01*
X226150201Y-90746114D01*
X226119500Y-90860691D01*
X226119500Y-90979309D01*
X226150201Y-91093886D01*
X226209511Y-91196613D01*
X226293387Y-91280489D01*
X226396114Y-91339799D01*
X226510691Y-91370500D01*
X226510694Y-91370500D01*
X226799306Y-91370500D01*
X226799309Y-91370500D01*
X226913886Y-91339799D01*
X227016613Y-91280489D01*
X227056182Y-91240920D01*
X227117505Y-91207435D01*
X227143863Y-91204601D01*
X227966137Y-91204601D01*
X228033176Y-91224286D01*
X228053818Y-91240920D01*
X228093387Y-91280489D01*
X228196114Y-91339799D01*
X228310691Y-91370500D01*
X240223642Y-91370500D01*
X240244190Y-91373571D01*
X240271144Y-91370500D01*
X240314309Y-91370500D01*
X240346240Y-91361943D01*
X240362047Y-91360143D01*
X240381372Y-91352530D01*
X240428886Y-91339799D01*
X240461514Y-91320960D01*
X240472412Y-91316668D01*
X240484705Y-91307571D01*
X240531613Y-91280489D01*
X240560945Y-91251156D01*
X240567764Y-91246111D01*
X240574658Y-91237443D01*
X240615489Y-91196613D01*
X240637599Y-91158317D01*
X240641607Y-91153279D01*
X240644959Y-91145569D01*
X240674799Y-91093886D01*
X240686629Y-91049735D01*
X240688906Y-91044499D01*
X240690007Y-91037125D01*
X240705500Y-90979309D01*
X240705500Y-90942679D01*
X240706862Y-90924351D01*
X240714910Y-90870504D01*
X241117862Y-88174282D01*
X241147239Y-88110889D01*
X241206226Y-88073442D01*
X241276095Y-88073830D01*
X241334662Y-88111930D01*
X241363334Y-88175646D01*
X241364500Y-88192611D01*
X241364500Y-88640004D01*
X241369651Y-88685728D01*
X241409333Y-88768126D01*
X241409334Y-88768127D01*
X241480837Y-88825149D01*
X241541677Y-88839035D01*
X241576789Y-88847050D01*
X241576468Y-88848456D01*
X241633639Y-88872470D01*
X241673201Y-88930060D01*
X241679354Y-88968634D01*
X241679354Y-89276327D01*
X241684505Y-89322051D01*
X241724187Y-89404449D01*
X241724188Y-89404450D01*
X241795691Y-89461472D01*
X241867465Y-89477854D01*
X241884849Y-89481822D01*
X241884850Y-89481822D01*
X241884854Y-89481823D01*
X241884858Y-89481823D01*
X241888734Y-89482260D01*
X241891073Y-89483243D01*
X241891643Y-89483373D01*
X241891620Y-89483472D01*
X241953149Y-89509325D01*
X241992705Y-89566919D01*
X241998074Y-89591595D01*
X242003329Y-89638228D01*
X242043010Y-89720626D01*
X242043011Y-89720627D01*
X242114514Y-89777649D01*
X242175354Y-89791535D01*
X242210466Y-89799550D01*
X242209890Y-89802073D01*
X242263332Y-89824511D01*
X242302903Y-89882094D01*
X242309062Y-89920687D01*
X242309062Y-90206240D01*
X242289377Y-90273279D01*
X242236573Y-90319034D01*
X242185062Y-90330240D01*
X241888818Y-90330240D01*
X241843094Y-90335391D01*
X241760696Y-90375073D01*
X241703674Y-90446576D01*
X241683323Y-90535735D01*
X241683323Y-91173390D01*
X241688474Y-91219114D01*
X241728156Y-91301512D01*
X241728157Y-91301513D01*
X241799660Y-91358535D01*
X241865537Y-91373571D01*
X241888818Y-91378885D01*
X241888823Y-91378886D01*
X243799117Y-91378886D01*
X243799117Y-91378885D01*
X243844842Y-91373734D01*
X243895641Y-91349269D01*
X243964582Y-91337918D01*
X244003999Y-91354478D01*
X244005602Y-91351150D01*
X244018189Y-91357211D01*
X244018190Y-91357211D01*
X244018191Y-91357212D01*
X244079253Y-91371149D01*
X244107349Y-91377562D01*
X244107354Y-91377563D01*
X246975440Y-91377563D01*
X246975440Y-91377562D01*
X247021165Y-91372411D01*
X247103564Y-91332729D01*
X247160586Y-91261226D01*
X247180937Y-91172063D01*
X247182487Y-91165274D01*
X247184468Y-91165726D01*
X247207677Y-91110477D01*
X247265267Y-91070914D01*
X247289957Y-91065542D01*
X247324772Y-91061619D01*
X247337342Y-91060203D01*
X247419741Y-91020521D01*
X247476763Y-90949018D01*
X247497114Y-90859855D01*
X247497114Y-90859848D01*
X247497602Y-90855523D01*
X247524666Y-90791107D01*
X247582260Y-90751550D01*
X247606940Y-90746181D01*
X247633177Y-90743224D01*
X247649551Y-90741380D01*
X247731950Y-90701698D01*
X247788972Y-90630195D01*
X247809323Y-90541032D01*
X247809323Y-89260449D01*
X247802755Y-89208909D01*
X247760692Y-89127699D01*
X247687559Y-89072783D01*
X247687558Y-89072782D01*
X247687559Y-89072782D01*
X247593420Y-89054161D01*
X247531474Y-89021841D01*
X247496836Y-88961162D01*
X247494262Y-88946401D01*
X247489317Y-88902512D01*
X247449635Y-88820113D01*
X247378132Y-88763091D01*
X247288973Y-88742740D01*
X247288045Y-88742636D01*
X247287485Y-88742401D01*
X247282180Y-88741190D01*
X247282392Y-88740260D01*
X247223631Y-88715571D01*
X247184074Y-88657977D01*
X247179356Y-88632799D01*
X247178682Y-88632875D01*
X247173140Y-88583688D01*
X247133458Y-88501290D01*
X247061955Y-88444268D01*
X246972796Y-88423917D01*
X246969205Y-88423513D01*
X246967041Y-88422604D01*
X246966003Y-88422367D01*
X246966044Y-88422185D01*
X246904790Y-88396448D01*
X246865234Y-88338854D01*
X246860645Y-88313963D01*
X246859859Y-88314052D01*
X246854317Y-88264865D01*
X246814635Y-88182467D01*
X246743132Y-88125445D01*
X246653969Y-88105093D01*
X246650229Y-88104672D01*
X246647978Y-88103726D01*
X246647180Y-88103544D01*
X246647211Y-88103404D01*
X246585816Y-88077601D01*
X246546264Y-88020004D01*
X246540899Y-87995336D01*
X246535494Y-87947365D01*
X246495812Y-87864967D01*
X246424309Y-87807945D01*
X246335150Y-87787594D01*
X246335146Y-87787594D01*
X245712753Y-87787594D01*
X245645714Y-87767909D01*
X245599959Y-87715105D01*
X245589533Y-87677479D01*
X245585398Y-87640785D01*
X245584317Y-87631189D01*
X245544635Y-87548790D01*
X245473132Y-87491768D01*
X245468847Y-87490790D01*
X245383973Y-87471417D01*
X245383969Y-87471417D01*
X244760402Y-87471417D01*
X244693363Y-87451732D01*
X244647608Y-87398928D01*
X244637182Y-87361301D01*
X244631817Y-87313689D01*
X244592135Y-87231290D01*
X244520632Y-87174268D01*
X244431473Y-87153917D01*
X244431469Y-87153917D01*
X244124228Y-87153917D01*
X244057189Y-87134232D01*
X244011434Y-87081428D01*
X244001008Y-87043801D01*
X243995494Y-86994866D01*
X243955812Y-86912467D01*
X243884309Y-86855445D01*
X243795145Y-86835093D01*
X243790501Y-86834570D01*
X243726088Y-86807500D01*
X243686536Y-86749904D01*
X243681170Y-86725233D01*
X243676671Y-86685304D01*
X243636989Y-86602905D01*
X243565486Y-86545883D01*
X243476327Y-86525532D01*
X243476323Y-86525532D01*
X242198385Y-86525532D01*
X242198380Y-86525532D01*
X242152656Y-86530683D01*
X242070258Y-86570365D01*
X242013236Y-86641868D01*
X241991335Y-86737821D01*
X241990031Y-86737523D01*
X241965864Y-86795040D01*
X241908270Y-86834595D01*
X241882950Y-86839381D01*
X241883020Y-86839996D01*
X241833833Y-86845537D01*
X241751435Y-86885219D01*
X241694413Y-86956722D01*
X241674059Y-87045893D01*
X241673839Y-87047853D01*
X241673343Y-87049031D01*
X241672512Y-87052675D01*
X241671873Y-87052529D01*
X241646768Y-87112265D01*
X241589171Y-87151816D01*
X241588928Y-87151895D01*
X241574557Y-87156563D01*
X241570000Y-87156563D01*
X241524272Y-87161715D01*
X241452943Y-87196065D01*
X241444981Y-87198652D01*
X241418084Y-87199417D01*
X241391533Y-87203790D01*
X241383684Y-87200397D01*
X241375139Y-87200641D01*
X241352098Y-87186744D01*
X241327399Y-87176068D01*
X241322631Y-87168971D01*
X241315310Y-87164556D01*
X241303440Y-87140408D01*
X241288433Y-87118073D01*
X241287661Y-87108310D01*
X241284487Y-87101852D01*
X241286065Y-87088102D01*
X241284035Y-87062390D01*
X241284419Y-87059823D01*
X241375730Y-86448841D01*
X241378588Y-86435101D01*
X241385500Y-86409309D01*
X241385500Y-86383476D01*
X241389318Y-86357930D01*
X241385500Y-86324419D01*
X241385500Y-86290691D01*
X241378814Y-86265739D01*
X241375890Y-86240074D01*
X241363529Y-86208697D01*
X241361707Y-86201896D01*
X241361707Y-86201895D01*
X241354799Y-86176113D01*
X241354798Y-86176112D01*
X241346491Y-86161724D01*
X241346490Y-86161723D01*
X241341881Y-86153740D01*
X241332415Y-86129709D01*
X241312354Y-86102598D01*
X241295489Y-86073387D01*
X241283740Y-86061638D01*
X241271742Y-86047714D01*
X241268737Y-86043653D01*
X241261858Y-86034356D01*
X241261856Y-86034354D01*
X241240969Y-86017740D01*
X241240968Y-86017739D01*
X241235458Y-86013356D01*
X241211613Y-85989511D01*
X241189247Y-85976598D01*
X241182032Y-85970859D01*
X241182031Y-85970858D01*
X241169031Y-85960517D01*
X241169028Y-85960515D01*
X241151163Y-85952747D01*
X241144546Y-85949869D01*
X241138085Y-85947059D01*
X241108886Y-85930201D01*
X241083940Y-85923516D01*
X241075486Y-85919840D01*
X241060246Y-85913214D01*
X241060243Y-85913213D01*
X241033842Y-85909266D01*
X241033842Y-85909267D01*
X241026879Y-85908226D01*
X240994309Y-85899500D01*
X240968481Y-85899500D01*
X240959367Y-85898138D01*
X240959366Y-85898138D01*
X240942931Y-85895682D01*
X240942930Y-85895682D01*
X240916416Y-85898703D01*
X240902379Y-85899500D01*
X227680691Y-85899500D01*
X227566114Y-85930201D01*
X227566112Y-85930201D01*
X227566112Y-85930202D01*
X227463387Y-85989511D01*
X227463384Y-85989513D01*
X227379513Y-86073384D01*
X227379511Y-86073387D01*
X227347387Y-86129027D01*
X227296819Y-86177242D01*
X227228212Y-86190464D01*
X227163347Y-86164496D01*
X227132613Y-86129027D01*
X227127932Y-86120919D01*
X227100489Y-86073387D01*
X227016613Y-85989511D01*
X226913886Y-85930201D01*
X226799309Y-85899500D01*
X225830691Y-85899500D01*
X225716114Y-85930201D01*
X225716112Y-85930201D01*
X225716112Y-85930202D01*
X225613387Y-85989511D01*
X225613384Y-85989513D01*
X225529513Y-86073384D01*
X225529511Y-86073387D01*
X225482140Y-86155436D01*
X225470201Y-86176114D01*
X225439500Y-86290691D01*
X225439500Y-86409309D01*
X225470201Y-86523886D01*
X225529511Y-86626613D01*
X225613387Y-86710489D01*
X225716114Y-86769799D01*
X225830691Y-86800500D01*
X225830694Y-86800500D01*
X226799306Y-86800500D01*
X226799309Y-86800500D01*
X226880655Y-86778703D01*
X226950503Y-86780366D01*
X226961756Y-86787982D01*
X226985293Y-86736446D01*
X227010386Y-86715727D01*
X227010164Y-86715437D01*
X227016605Y-86710493D01*
X227016613Y-86710489D01*
X227100489Y-86626613D01*
X227132613Y-86570972D01*
X227153665Y-86550898D01*
X227172648Y-86528859D01*
X227178648Y-86527077D01*
X227183180Y-86522757D01*
X227211744Y-86517251D01*
X227239628Y-86508974D01*
X227245639Y-86510719D01*
X227251787Y-86509535D01*
X227278788Y-86520344D01*
X227306727Y-86528457D01*
X227313392Y-86534198D01*
X227316652Y-86535503D01*
X227321784Y-86541425D01*
X227333469Y-86551490D01*
X227341373Y-86560556D01*
X227379511Y-86626613D01*
X227463387Y-86710489D01*
X227480886Y-86720592D01*
X227494463Y-86736166D01*
X227523678Y-86799634D01*
X227513942Y-86868822D01*
X227468346Y-86921763D01*
X227401366Y-86941648D01*
X227400994Y-86941649D01*
X227079006Y-86941649D01*
X227036747Y-86929240D01*
X227036747Y-87294953D01*
X227017062Y-87361992D01*
X226964258Y-87407747D01*
X226895100Y-87417691D01*
X226880659Y-87414729D01*
X226861144Y-87409500D01*
X225958856Y-87409500D01*
X225869712Y-87433386D01*
X225869711Y-87433386D01*
X225869709Y-87433387D01*
X225869706Y-87433388D01*
X225789794Y-87479526D01*
X225789785Y-87479533D01*
X225724533Y-87544785D01*
X225724531Y-87544788D01*
X225689582Y-87605319D01*
X225639013Y-87653533D01*
X225570406Y-87666754D01*
X225505542Y-87640785D01*
X225470478Y-87597121D01*
X225450729Y-87556112D01*
X225436525Y-87544785D01*
X225379226Y-87499090D01*
X225283274Y-87477189D01*
X225283571Y-87475886D01*
X225226056Y-87451720D01*
X225186499Y-87394126D01*
X225181735Y-87368802D01*
X225181099Y-87368874D01*
X225175557Y-87319687D01*
X225135875Y-87237289D01*
X225064372Y-87180267D01*
X224975213Y-87159916D01*
X224971622Y-87159512D01*
X224969458Y-87158603D01*
X224968420Y-87158366D01*
X224968461Y-87158184D01*
X224907207Y-87132447D01*
X224867651Y-87074853D01*
X224863062Y-87049962D01*
X224862276Y-87050051D01*
X224856734Y-87000864D01*
X224817052Y-86918466D01*
X224745549Y-86861444D01*
X224656390Y-86841093D01*
X224656386Y-86841093D01*
X224351493Y-86841093D01*
X224284454Y-86821408D01*
X224238699Y-86768604D01*
X224228273Y-86730978D01*
X224224615Y-86698517D01*
X224223057Y-86684688D01*
X224183375Y-86602289D01*
X224111872Y-86545267D01*
X224022713Y-86524916D01*
X224019122Y-86524512D01*
X224016958Y-86523603D01*
X224015920Y-86523366D01*
X224015961Y-86523184D01*
X223954707Y-86497447D01*
X223915151Y-86439853D01*
X223910562Y-86414962D01*
X223909776Y-86415051D01*
X223904234Y-86365864D01*
X223864552Y-86283466D01*
X223793049Y-86226444D01*
X223703885Y-86206092D01*
X223699392Y-86205586D01*
X223634979Y-86178516D01*
X223595427Y-86120919D01*
X223590061Y-86096250D01*
X223588988Y-86086733D01*
X223585411Y-86054980D01*
X223545729Y-85972581D01*
X223474226Y-85915559D01*
X223463948Y-85913213D01*
X223385067Y-85895208D01*
X223385063Y-85895208D01*
X223059625Y-85895208D01*
X223059620Y-85895208D01*
X223013896Y-85900359D01*
X222931498Y-85940041D01*
X222874476Y-86011544D01*
X222852575Y-86107497D01*
X222851307Y-86107207D01*
X222827082Y-86164844D01*
X222769483Y-86204393D01*
X222744822Y-86209757D01*
X222696396Y-86215214D01*
X222613998Y-86254895D01*
X222556976Y-86326398D01*
X222536624Y-86415561D01*
X222536135Y-86419906D01*
X222509064Y-86484318D01*
X222451467Y-86523870D01*
X222426801Y-86529235D01*
X222384188Y-86534037D01*
X222301790Y-86573718D01*
X222244768Y-86645221D01*
X222224417Y-86734380D01*
X222224417Y-87042531D01*
X222204732Y-87109570D01*
X222151928Y-87155325D01*
X222100417Y-87166531D01*
X220518297Y-87166531D01*
X220472573Y-87171682D01*
X220390175Y-87211364D01*
X220333153Y-87282867D01*
X220312800Y-87372037D01*
X220312681Y-87373094D01*
X220312413Y-87373729D01*
X220311252Y-87378820D01*
X220310359Y-87378616D01*
X220285609Y-87437505D01*
X220228011Y-87477056D01*
X220203348Y-87482420D01*
X220155073Y-87487860D01*
X220072675Y-87527541D01*
X220015653Y-87599044D01*
X219995300Y-87688211D01*
X219994940Y-87691414D01*
X219994129Y-87693342D01*
X219993752Y-87694997D01*
X219993462Y-87694930D01*
X219967874Y-87755828D01*
X219910279Y-87795383D01*
X219871720Y-87801531D01*
X219567120Y-87801531D01*
X219521396Y-87806682D01*
X219438998Y-87846364D01*
X219381976Y-87917867D01*
X219361623Y-88007037D01*
X219361504Y-88008094D01*
X219361236Y-88008729D01*
X219360075Y-88013820D01*
X219359182Y-88013616D01*
X219334432Y-88072505D01*
X219276834Y-88112056D01*
X219252171Y-88117420D01*
X219203896Y-88122860D01*
X219121498Y-88162541D01*
X219064476Y-88234044D01*
X219044125Y-88323203D01*
X219044125Y-88630598D01*
X219024440Y-88697637D01*
X218971636Y-88743392D01*
X218934009Y-88753818D01*
X218886397Y-88759182D01*
X218803998Y-88798864D01*
X218746976Y-88870367D01*
X218726625Y-88959526D01*
X218726625Y-89267666D01*
X218706940Y-89334705D01*
X218654136Y-89380460D01*
X218616510Y-89390886D01*
X218575511Y-89395505D01*
X218493113Y-89435187D01*
X218436091Y-89506690D01*
X218415740Y-89595849D01*
X64646869Y-89595849D01*
X64626692Y-89563737D01*
X64603787Y-89527284D01*
X64423427Y-89301120D01*
X64218880Y-89096573D01*
X63992716Y-88916213D01*
X63776032Y-88780061D01*
X63747775Y-88762306D01*
X63487165Y-88636803D01*
X63487157Y-88636800D01*
X63214124Y-88541261D01*
X63214112Y-88541257D01*
X62932095Y-88476889D01*
X62932079Y-88476887D01*
X62644641Y-88444500D01*
X62644637Y-88444500D01*
X62575766Y-88444500D01*
X54269878Y-88444500D01*
X54200000Y-88444500D01*
X54055363Y-88444500D01*
X54055359Y-88444500D01*
X53767920Y-88476887D01*
X53767904Y-88476889D01*
X53485887Y-88541257D01*
X53485875Y-88541261D01*
X53212842Y-88636800D01*
X53212834Y-88636803D01*
X52952224Y-88762306D01*
X52707285Y-88916212D01*
X52481120Y-89096572D01*
X52276572Y-89301120D01*
X52096212Y-89527285D01*
X51942306Y-89772224D01*
X51816803Y-90032834D01*
X51816800Y-90032842D01*
X51721261Y-90305875D01*
X51721257Y-90305887D01*
X51656889Y-90587904D01*
X51656887Y-90587920D01*
X51624500Y-90875358D01*
X40160500Y-90875358D01*
X40160500Y-85174066D01*
X40160765Y-85165956D01*
X40169224Y-85036894D01*
X40175364Y-84943207D01*
X40177479Y-84927153D01*
X40220230Y-84712226D01*
X40224428Y-84696561D01*
X40286349Y-84514148D01*
X40294868Y-84489049D01*
X40301067Y-84474083D01*
X40397995Y-84277533D01*
X40406102Y-84263493D01*
X40527844Y-84081292D01*
X40537709Y-84068434D01*
X40682207Y-83903666D01*
X40693665Y-83892208D01*
X40858433Y-83747710D01*
X40871286Y-83737848D01*
X41053492Y-83616103D01*
X41067532Y-83607996D01*
X41264084Y-83511067D01*
X41279043Y-83504870D01*
X41486574Y-83434423D01*
X41502211Y-83430234D01*
X41717152Y-83387479D01*
X41733208Y-83385364D01*
X41937989Y-83371942D01*
X41955942Y-83370766D01*
X41964051Y-83370501D01*
X41999881Y-83370501D01*
X123243822Y-83370501D01*
X123251805Y-83370758D01*
G37*
%TD.AperFunction*%
%TD*%
M02*
