%TF.GenerationSoftware,KiCad,Pcbnew,9.0.0*%
%TF.CreationDate,2025-05-27T10:39:59-04:00*%
%TF.ProjectId,jSmartSW,6a536d61-7274-4535-972e-6b696361645f,1.0*%
%TF.SameCoordinates,Original*%
%TF.FileFunction,Soldermask,Bot*%
%TF.FilePolarity,Negative*%
%FSLAX46Y46*%
G04 Gerber Fmt 4.6, Leading zero omitted, Abs format (unit mm)*
G04 Created by KiCad (PCBNEW 9.0.0) date 2025-05-27 10:39:59*
%MOMM*%
%LPD*%
G01*
G04 APERTURE LIST*
G04 Aperture macros list*
%AMRoundRect*
0 Rectangle with rounded corners*
0 $1 Rounding radius*
0 $2 $3 $4 $5 $6 $7 $8 $9 X,Y pos of 4 corners*
0 Add a 4 corners polygon primitive as box body*
4,1,4,$2,$3,$4,$5,$6,$7,$8,$9,$2,$3,0*
0 Add four circle primitives for the rounded corners*
1,1,$1+$1,$2,$3*
1,1,$1+$1,$4,$5*
1,1,$1+$1,$6,$7*
1,1,$1+$1,$8,$9*
0 Add four rect primitives between the rounded corners*
20,1,$1+$1,$2,$3,$4,$5,0*
20,1,$1+$1,$4,$5,$6,$7,0*
20,1,$1+$1,$6,$7,$8,$9,0*
20,1,$1+$1,$8,$9,$2,$3,0*%
%AMFreePoly0*
4,1,33,0.246742,0.813399,0.400687,0.749633,0.539234,0.657059,0.657059,0.539234,0.749633,0.400687,0.813399,0.246742,0.845907,0.083315,0.845907,-0.083315,0.813399,-0.246742,0.749633,-0.400687,0.657059,-0.539234,0.539234,-0.657059,0.400687,-0.749633,0.246742,-0.813399,0.083315,-0.845907,-0.083315,-0.845907,-0.246742,-0.813399,-0.400687,-0.749633,-0.539234,-0.657059,-0.657059,-0.539234,
-0.749633,-0.400687,-0.813399,-0.246742,-0.845907,-0.083315,-0.845907,0.083315,-0.813399,0.246742,-0.749633,0.400687,-0.657059,0.539234,-0.539234,0.657059,-0.400687,0.749633,-0.246742,0.813399,-0.083315,0.845907,0.083315,0.845907,0.246742,0.813399,0.246742,0.813399,$1*%
%AMFreePoly1*
4,1,23,0.500000,-0.750000,0.000000,-0.750000,0.000000,-0.745722,-0.065263,-0.745722,-0.191342,-0.711940,-0.304381,-0.646677,-0.396677,-0.554381,-0.461940,-0.441342,-0.495722,-0.315263,-0.495722,-0.250000,-0.500000,-0.250000,-0.500000,0.250000,-0.495722,0.250000,-0.495722,0.315263,-0.461940,0.441342,-0.396677,0.554381,-0.304381,0.646677,-0.191342,0.711940,-0.065263,0.745722,0.000000,0.745722,
0.000000,0.750000,0.500000,0.750000,0.500000,-0.750000,0.500000,-0.750000,$1*%
%AMFreePoly2*
4,1,23,0.000000,0.745722,0.065263,0.745722,0.191342,0.711940,0.304381,0.646677,0.396677,0.554381,0.461940,0.441342,0.495722,0.315263,0.495722,0.250000,0.500000,0.250000,0.500000,-0.250000,0.495722,-0.250000,0.495722,-0.315263,0.461940,-0.441342,0.396677,-0.554381,0.304381,-0.646677,0.191342,-0.711940,0.065263,-0.745722,0.000000,-0.745722,0.000000,-0.750000,-0.500000,-0.750000,
-0.500000,0.750000,0.000000,0.750000,0.000000,0.745722,0.000000,0.745722,$1*%
G04 Aperture macros list end*
%ADD10C,1.700000*%
%ADD11O,1.700000X1.700000*%
%ADD12C,0.650000*%
%ADD13O,0.900000X1.700000*%
%ADD14O,0.900000X2.400000*%
%ADD15FreePoly0,270.000000*%
%ADD16R,1.700000X1.700000*%
%ADD17R,1.508000X1.508000*%
%ADD18C,1.508000*%
%ADD19FreePoly1,90.000000*%
%ADD20FreePoly2,90.000000*%
%ADD21RoundRect,0.237500X-0.250000X-0.237500X0.250000X-0.237500X0.250000X0.237500X-0.250000X0.237500X0*%
%ADD22O,5.000000X2.500000*%
%ADD23O,4.500000X2.250000*%
%ADD24O,2.250000X4.500000*%
%ADD25C,4.066000*%
%ADD26FreePoly1,180.000000*%
%ADD27FreePoly2,180.000000*%
%ADD28C,1.200000*%
%ADD29O,2.616000X1.308000*%
%ADD30O,1.308000X2.616000*%
%ADD31C,1.500000*%
%ADD32RoundRect,0.237500X0.250000X0.237500X-0.250000X0.237500X-0.250000X-0.237500X0.250000X-0.237500X0*%
G04 APERTURE END LIST*
D10*
%TO.C,J6*%
X98829970Y-89510000D03*
D11*
X101369970Y-89510000D03*
%TD*%
D12*
%TO.C,J2*%
X154999971Y-90748422D03*
X154149970Y-90748422D03*
X153299972Y-90748422D03*
X152449971Y-90748422D03*
X151599971Y-90748422D03*
X150749970Y-90748422D03*
X149899972Y-90748422D03*
X149049971Y-90748422D03*
X149049971Y-89398422D03*
X149899972Y-89398422D03*
X150749970Y-89398422D03*
X151599971Y-89398422D03*
X152449971Y-89398422D03*
X153299972Y-89398422D03*
X154149970Y-89398422D03*
X154999971Y-89398422D03*
D13*
X156349971Y-86388422D03*
X147699971Y-86388422D03*
D14*
X156349971Y-89768422D03*
X147699971Y-89768422D03*
%TD*%
D15*
%TO.C,U1*%
X209939971Y-111908421D03*
D10*
X209939971Y-109908421D03*
%TD*%
D16*
%TO.C,J3*%
X144499971Y-85758422D03*
D11*
X141959971Y-85758422D03*
X139419971Y-85758422D03*
X136879971Y-85758422D03*
D10*
X144499971Y-83218422D03*
D11*
X141959971Y-83218422D03*
X139419972Y-83218422D03*
X136879971Y-83218422D03*
%TD*%
D17*
%TO.C,J5*%
X133159971Y-128788423D03*
D18*
X133159971Y-126248423D03*
X135699971Y-128788423D03*
X135699971Y-126248423D03*
X138239971Y-128788423D03*
X138239971Y-126248423D03*
X140779971Y-128788424D03*
X140779971Y-126248422D03*
X143319971Y-128788423D03*
X143319971Y-126248423D03*
X145859971Y-128788423D03*
X145859971Y-126248423D03*
X148399971Y-128788423D03*
X148399971Y-126248423D03*
%TD*%
D19*
%TO.C,JP3*%
X83329971Y-90168422D03*
D20*
X83329971Y-88868424D03*
%TD*%
D21*
%TO.C,R3*%
X149269971Y-87928423D03*
X151094971Y-87928423D03*
%TD*%
D22*
%TO.C,J4*%
X91369970Y-90608422D03*
D23*
X91369970Y-84608422D03*
D24*
X96069970Y-87608422D03*
%TD*%
D16*
%TO.C,P2*%
X113599961Y-89548401D03*
D10*
X115889962Y-89548401D03*
X118179961Y-89548401D03*
X120469962Y-89548401D03*
X122759962Y-89548400D03*
X112454963Y-87568401D03*
X114744962Y-87568401D03*
X117034962Y-87568401D03*
X119324962Y-87568401D03*
X121614962Y-87568401D03*
X113599961Y-85588401D03*
X115889962Y-85588401D03*
X118179961Y-85588401D03*
X120469962Y-85588401D03*
X122759962Y-85588402D03*
D25*
X105434962Y-87568401D03*
X130424961Y-87568401D03*
%TD*%
D26*
%TO.C,JP4*%
X95439970Y-87608421D03*
D27*
X94139972Y-87608421D03*
%TD*%
D28*
%TO.C,J1*%
X202808061Y-81147988D03*
X192808061Y-81147988D03*
X202808061Y-83647988D03*
X192808061Y-83647988D03*
X197808061Y-88647988D03*
D29*
X197808061Y-83647988D03*
D30*
X202808061Y-88647988D03*
X192808061Y-88647988D03*
%TD*%
D31*
%TO.C,SW1*%
X83329971Y-88198421D03*
X83329971Y-90738422D03*
X83329971Y-83118422D03*
%TD*%
D16*
%TO.C,P1*%
X177584971Y-89518423D03*
D10*
X175294971Y-89518423D03*
X173004971Y-89518423D03*
X170714971Y-89518423D03*
X168424971Y-89518423D03*
X178729972Y-87538423D03*
X176439971Y-87538423D03*
X174149970Y-87538423D03*
X171859971Y-87538423D03*
X169569970Y-87538423D03*
X177584971Y-85558423D03*
X175294971Y-85558423D03*
X173004971Y-85558423D03*
X170714971Y-85558423D03*
X168424971Y-85558423D03*
D25*
X160509971Y-87538423D03*
X185499970Y-87538423D03*
%TD*%
D32*
%TO.C,R2*%
X154783470Y-87928423D03*
X152958470Y-87928423D03*
%TD*%
M02*
