M48
; DRILL file {KiCad 9.0.0} date 2025-04-15T08:33:08-0400
; FORMAT={-:-/ absolute / metric / decimal}
; #@! TF.CreationDate,2025-04-15T08:33:08-04:00
; #@! TF.GenerationSoftware,Kicad,Pcbnew,9.0.0
; #@! TF.FileFunction,Plated,1,2,PTH
FMAT,2
METRIC
; #@! TA.AperFunction,Plated,PTH,ViaDrill
T1C0.200
; #@! TA.AperFunction,Plated,PTH,ViaDrill
T2C0.400
; #@! TA.AperFunction,Plated,PTH,ComponentDrill
T3C0.400
; #@! TA.AperFunction,Plated,PTH,ComponentDrill
T4C0.600
; #@! TA.AperFunction,Plated,PTH,ComponentDrill
T5C0.800
; #@! TA.AperFunction,Plated,PTH,ComponentDrill
T6C0.900
; #@! TA.AperFunction,Plated,PTH,ComponentDrill
T7C1.000
; #@! TA.AperFunction,Plated,PTH,ComponentDrill
T8C1.300
; #@! TA.AperFunction,Plated,PTH,ComponentDrill
T9C3.200
%
G90
G05
T1
X89.64Y-119.458
X112.5Y-92.678
X119.44Y-94.318
X122.51Y-93.468
X123.84Y-92.218
X126.94Y-87.568
X131.6Y-92.368
X134.86Y-87.738
X138.45Y-110.648
X139.86Y-111.898
X143.18Y-88.998
X145.35Y-113.678
X145.87Y-83.458
X145.94Y-92.248
X148.05Y-98.018
X149.56Y-99.378
X150.24Y-94.638
X150.56Y-93.468
X153.19Y-114.728
X153.79Y-93.498
X153.79Y-94.648
X156.91Y-92.298
X158.32Y-91.508
X162.11Y-90.418
X164.08Y-90.288
X165.23Y-87.898
X166.22Y-85.488
X168.66Y-91.418
X171.37Y-94.488
X171.86Y-91.788
X174.63Y-91.318
X177.21Y-92.748
X177.75Y-108.038
X179.875Y-108.038
X182.035Y-108.038
X194.53Y-113.678
X197.07Y-114.728
X202.15Y-107.178
X208.51Y-103.258
T2
X86.89Y-116.558
X121.58Y-97.498
X123.28Y-96.728
X126.43Y-91.488
X128.81Y-116.548
X140.13Y-90.128
X142.46Y-112.868
X149.58Y-119.528
X149.9Y-92.068
X151.75Y-119.528
X152.027Y-87.928
X153.93Y-119.528
X154.03Y-108.108
X154.61Y-104.458
X156.33Y-119.528
X157.52Y-103.778
X159.4Y-105.808
X162.5Y-101.228
X162.72Y-110.898
X163.95Y-120.728
X163.97Y-119.518
X164.41Y-101.228
X177.96Y-116.548
X178.83Y-108.038
X179.29Y-120.598
X180.95Y-108.038
X181.06Y-94.818
X182.98Y-110.888
X183.21Y-108.038
X184.36Y-120.318
X193.88Y-120.888
X193.91Y-119.568
X203.05Y-121.088
X203.05Y-119.568
X207.2Y-110.908
X207.23Y-116.548
X208.49Y-118.448
T3
X149.05Y-89.398
X149.05Y-90.748
X149.9Y-89.398
X149.9Y-90.748
X150.75Y-89.398
X150.75Y-90.748
X151.6Y-89.398
X151.6Y-90.748
X152.45Y-89.398
X152.45Y-90.748
X153.3Y-89.398
X153.3Y-90.748
X154.15Y-89.398
X154.15Y-90.748
X155.0Y-89.398
X155.0Y-90.748
T7
X98.83Y-89.51
X101.37Y-89.51
X112.455Y-87.568
X113.6Y-85.588
X113.6Y-89.548
X114.745Y-87.568
X115.89Y-85.588
X115.89Y-89.548
X117.035Y-87.568
X118.18Y-85.588
X118.18Y-89.548
X119.325Y-87.568
X120.47Y-85.588
X120.47Y-89.548
X121.615Y-87.568
X122.76Y-85.588
X122.76Y-89.548
X133.16Y-126.248
X133.16Y-128.788
X135.7Y-126.248
X135.7Y-128.788
X136.88Y-83.218
X136.88Y-85.758
X138.24Y-126.248
X138.24Y-128.788
X139.42Y-85.758
X139.42Y-83.218
X140.78Y-126.248
X140.78Y-128.788
X141.96Y-83.218
X141.96Y-85.758
X143.32Y-126.248
X143.32Y-128.788
X144.5Y-83.218
X144.5Y-85.758
X145.86Y-126.248
X145.86Y-128.788
X148.4Y-126.248
X148.4Y-128.788
X168.425Y-85.558
X168.425Y-89.518
X169.57Y-87.538
X170.715Y-85.558
X170.715Y-89.518
X171.86Y-87.538
X173.005Y-85.558
X173.005Y-89.518
X174.15Y-87.538
X175.295Y-85.558
X175.295Y-89.518
X176.44Y-87.538
X177.585Y-85.558
X177.585Y-89.518
X178.73Y-87.538
T8
X209.94Y-109.908
X209.94Y-111.908
T9
X105.435Y-87.568
X130.425Y-87.568
X160.51Y-87.538
X185.5Y-87.538
T4
X147.7Y-86.788G85X147.7Y-85.988
G05
X147.7Y-90.518G85X147.7Y-89.018
G05
X156.35Y-86.788G85X156.35Y-85.988
G05
X156.35Y-90.518G85X156.35Y-89.018
G05
T5
X192.808Y-88.298G85X192.808Y-88.998
G05
X198.158Y-83.648G85X197.458Y-83.648
G05
X202.808Y-88.298G85X202.808Y-88.998
G05
T6
X83.43Y-83.118G85X83.23Y-83.118
G05
X83.43Y-88.198G85X83.23Y-88.198
G05
X83.43Y-90.738G85X83.23Y-90.738
G05
T7
X90.37Y-84.608G85X92.37Y-84.608
G05
X90.12Y-90.608G85X92.62Y-90.608
G05
X96.07Y-88.608G85X96.07Y-86.608
G05
M30
