%TF.GenerationSoftware,KiCad,Pcbnew,9.0.0*%
%TF.CreationDate,2025-05-27T10:39:58-04:00*%
%TF.ProjectId,jSmartSW,6a536d61-7274-4535-972e-6b696361645f,1.0*%
%TF.SameCoordinates,Original*%
%TF.FileFunction,Legend,Top*%
%TF.FilePolarity,Positive*%
%FSLAX46Y46*%
G04 Gerber Fmt 4.6, Leading zero omitted, Abs format (unit mm)*
G04 Created by KiCad (PCBNEW 9.0.0) date 2025-05-27 10:39:58*
%MOMM*%
%LPD*%
G01*
G04 APERTURE LIST*
%ADD10C,0.150000*%
%ADD11C,0.000000*%
%ADD12C,0.152000*%
%ADD13C,0.300000*%
%ADD14C,0.250000*%
%ADD15C,0.120000*%
%ADD16C,0.200000*%
%ADD17C,0.127000*%
G04 APERTURE END LIST*
D10*
X157934766Y-94288422D02*
X157113562Y-94288422D01*
X156273563Y-91968423D01*
X157094767Y-91968423D01*
X157934766Y-94288422D01*
G36*
X157934766Y-94288422D02*
G01*
X157113562Y-94288422D01*
X156273563Y-91968423D01*
X157094767Y-91968423D01*
X157934766Y-94288422D01*
G37*
X169776911Y-94288607D02*
X157259969Y-94288607D01*
X157259971Y-91971064D01*
X169776911Y-91971064D01*
X169776911Y-94288607D01*
G36*
X169776911Y-94288607D02*
G01*
X157259969Y-94288607D01*
X157259971Y-91971064D01*
X169776911Y-91971064D01*
X169776911Y-94288607D01*
G37*
D11*
G36*
X93510000Y-89360000D02*
G01*
X92290000Y-89360000D01*
X92290000Y-88520000D01*
X93510000Y-88520000D01*
X93510000Y-89360000D01*
G37*
D10*
X146381050Y-91971014D02*
X158052341Y-91971014D01*
X158052341Y-94291015D01*
X146381050Y-94291015D01*
X146381050Y-91971014D01*
X192949969Y-99158423D02*
X192949970Y-98698422D01*
X148043813Y-94291448D02*
X147222608Y-94291448D01*
X146382609Y-91971448D01*
X147203813Y-91971448D01*
X148043813Y-94291448D01*
G36*
X148043813Y-94291448D02*
G01*
X147222608Y-94291448D01*
X146382609Y-91971448D01*
X147203813Y-91971448D01*
X148043813Y-94291448D01*
G37*
X188494739Y-98698394D02*
X188494740Y-99158393D01*
X157389971Y-104088422D02*
X153189970Y-104088422D01*
X150010982Y-94289276D02*
X149189779Y-94289275D01*
X148349778Y-91969275D01*
X149170982Y-91969275D01*
X150010982Y-94289276D01*
G36*
X150010982Y-94289276D02*
G01*
X149189779Y-94289275D01*
X148349778Y-91969275D01*
X149170982Y-91969275D01*
X150010982Y-94289276D01*
G37*
X146381103Y-91978488D02*
X146381102Y-81738488D01*
X192944971Y-98698422D02*
X188494970Y-98698422D01*
X157589971Y-91968423D02*
X157589971Y-82438832D01*
X151997573Y-94295602D02*
X151176368Y-94295602D01*
X150336369Y-91975603D01*
X151157573Y-91975603D01*
X151997573Y-94295602D01*
G36*
X151997573Y-94295602D02*
G01*
X151176368Y-94295602D01*
X150336369Y-91975603D01*
X151157573Y-91975603D01*
X151997573Y-94295602D01*
G37*
X153964743Y-94293429D02*
X153143539Y-94293429D01*
X152303538Y-91973429D01*
X153124743Y-91973429D01*
X153964743Y-94293429D01*
G36*
X153964743Y-94293429D02*
G01*
X153143539Y-94293429D01*
X152303538Y-91973429D01*
X153124743Y-91973429D01*
X153964743Y-94293429D01*
G37*
X205069360Y-92167784D02*
X205069360Y-80447783D01*
X159659970Y-109128422D02*
X152239970Y-109128423D01*
X152239970Y-99108423D01*
X159659970Y-99108422D01*
X159659970Y-109128422D01*
X94120000Y-78424268D02*
X97389908Y-78424268D01*
X97389908Y-81995732D01*
X94120000Y-81995732D01*
X94120000Y-78424268D01*
X155967595Y-94290596D02*
X155146392Y-94290595D01*
X154306392Y-91970596D01*
X155127596Y-91970596D01*
X155967595Y-94290596D01*
G36*
X155967595Y-94290596D02*
G01*
X155146392Y-94290595D01*
X154306392Y-91970596D01*
X155127596Y-91970596D01*
X155967595Y-94290596D01*
G37*
X205069497Y-94292265D02*
X177028206Y-94292265D01*
X177028205Y-91972264D01*
X205069496Y-91972264D01*
X205069497Y-94292265D01*
G36*
X205069497Y-94292265D02*
G01*
X177028206Y-94292265D01*
X177028205Y-91972264D01*
X205069496Y-91972264D01*
X205069497Y-94292265D01*
G37*
D11*
G36*
X90470000Y-89360000D02*
G01*
X89250000Y-89360000D01*
X89250000Y-88520000D01*
X90470000Y-88520000D01*
X90470000Y-89360000D01*
G37*
D10*
G36*
X195176293Y-89755877D02*
G01*
X195232994Y-89771655D01*
X195302353Y-89804048D01*
X195351329Y-89838700D01*
X195400060Y-89893975D01*
X195434128Y-89953738D01*
X195458033Y-90028202D01*
X195465877Y-90101922D01*
X195466001Y-90113107D01*
X195466001Y-90900057D01*
X195459901Y-90977254D01*
X195439824Y-91048448D01*
X195434128Y-91061257D01*
X195394885Y-91125978D01*
X195351329Y-91172266D01*
X195291292Y-91214799D01*
X195232994Y-91241509D01*
X195159990Y-91259875D01*
X195102568Y-91264223D01*
X195028727Y-91257036D01*
X194971776Y-91241509D01*
X194903409Y-91208240D01*
X194856005Y-91172266D01*
X194805559Y-91119040D01*
X194771008Y-91061257D01*
X194747103Y-90987435D01*
X194739259Y-90911721D01*
X194739135Y-90900057D01*
X194739135Y-90113839D01*
X194953458Y-90113839D01*
X194953458Y-90899324D01*
X194967484Y-90973423D01*
X194997788Y-91013264D01*
X195066534Y-91046322D01*
X195102934Y-91049900D01*
X195175010Y-91034122D01*
X195207348Y-91013264D01*
X195246440Y-90947665D01*
X195251678Y-90899324D01*
X195251678Y-90113839D01*
X195237652Y-90039445D01*
X195207348Y-89999534D01*
X195138948Y-89966475D01*
X195102934Y-89962897D01*
X195030213Y-89978675D01*
X194997788Y-89999534D01*
X194958696Y-90065290D01*
X194953458Y-90113839D01*
X194739135Y-90113839D01*
X194739135Y-90113107D01*
X194745236Y-90038244D01*
X194765312Y-89966905D01*
X194771008Y-89953738D01*
X194808194Y-89890357D01*
X194856005Y-89838700D01*
X194917880Y-89795668D01*
X194971776Y-89771655D01*
X195045076Y-89752992D01*
X195102568Y-89748574D01*
X195176293Y-89755877D01*
G37*
G36*
X196032476Y-89756359D02*
G01*
X196107009Y-89772479D01*
X196115565Y-89775319D01*
X196184349Y-89810079D01*
X196239030Y-89857751D01*
X196283327Y-89917557D01*
X196312489Y-89986379D01*
X196315234Y-89996236D01*
X196328992Y-90069784D01*
X196335155Y-90146469D01*
X196336483Y-90210560D01*
X196334548Y-90287814D01*
X196327507Y-90364032D01*
X196324759Y-90382018D01*
X196304755Y-90453600D01*
X196274567Y-90512810D01*
X196229708Y-90571574D01*
X196168882Y-90620529D01*
X196155133Y-90628581D01*
X196086608Y-90655148D01*
X196009508Y-90667650D01*
X195958395Y-90669614D01*
X195847387Y-90669614D01*
X195847387Y-91252500D01*
X195633064Y-91252500D01*
X195633064Y-90455291D01*
X195847387Y-90455291D01*
X195951068Y-90455291D01*
X196024037Y-90447560D01*
X196052184Y-90437339D01*
X196105307Y-90386781D01*
X196122143Y-90314799D01*
X196122160Y-90312042D01*
X196122160Y-90236390D01*
X196122160Y-90213124D01*
X196122160Y-90139828D01*
X196122160Y-90116770D01*
X196108319Y-90043457D01*
X196105307Y-90036903D01*
X196054749Y-89984513D01*
X195981224Y-89966839D01*
X195958761Y-89966195D01*
X195847387Y-89966195D01*
X195847387Y-90455291D01*
X195633064Y-90455291D01*
X195633064Y-89751871D01*
X195958395Y-89751871D01*
X196032476Y-89756359D01*
G37*
G36*
X196648259Y-91252500D02*
G01*
X196648259Y-89966195D01*
X196393636Y-89966195D01*
X196393636Y-89751871D01*
X197097055Y-89751871D01*
X197097055Y-89966195D01*
X196862582Y-89966195D01*
X196862582Y-91252500D01*
X196648259Y-91252500D01*
G37*
G36*
X197206964Y-91252500D02*
G01*
X197206964Y-89751871D01*
X197421288Y-89751871D01*
X197421288Y-91252500D01*
X197206964Y-91252500D01*
G37*
G36*
X198048589Y-89755877D02*
G01*
X198105290Y-89771655D01*
X198174648Y-89804048D01*
X198223625Y-89838700D01*
X198272356Y-89893975D01*
X198306424Y-89953738D01*
X198330329Y-90028202D01*
X198338173Y-90101922D01*
X198338297Y-90113107D01*
X198338297Y-90900057D01*
X198332197Y-90977254D01*
X198312120Y-91048448D01*
X198306424Y-91061257D01*
X198267181Y-91125978D01*
X198223625Y-91172266D01*
X198163588Y-91214799D01*
X198105290Y-91241509D01*
X198032286Y-91259875D01*
X197974864Y-91264223D01*
X197901023Y-91257036D01*
X197844072Y-91241509D01*
X197775705Y-91208240D01*
X197728301Y-91172266D01*
X197677855Y-91119040D01*
X197643304Y-91061257D01*
X197619399Y-90987435D01*
X197611555Y-90911721D01*
X197611431Y-90900057D01*
X197611431Y-90113839D01*
X197825754Y-90113839D01*
X197825754Y-90899324D01*
X197839780Y-90973423D01*
X197870084Y-91013264D01*
X197938830Y-91046322D01*
X197975230Y-91049900D01*
X198047306Y-91034122D01*
X198079644Y-91013264D01*
X198118736Y-90947665D01*
X198123974Y-90899324D01*
X198123974Y-90113839D01*
X198109948Y-90039445D01*
X198079644Y-89999534D01*
X198011244Y-89966475D01*
X197975230Y-89962897D01*
X197902509Y-89978675D01*
X197870084Y-89999534D01*
X197830992Y-90065290D01*
X197825754Y-90113839D01*
X197611431Y-90113839D01*
X197611431Y-90113107D01*
X197617531Y-90038244D01*
X197637608Y-89966905D01*
X197643304Y-89953738D01*
X197680490Y-89890357D01*
X197728301Y-89838700D01*
X197790176Y-89795668D01*
X197844072Y-89771655D01*
X197917372Y-89752992D01*
X197974864Y-89748574D01*
X198048589Y-89755877D01*
G37*
G36*
X198505359Y-91252500D02*
G01*
X198505359Y-89751871D01*
X198709424Y-89751871D01*
X199041350Y-90656058D01*
X199041350Y-89751871D01*
X199255673Y-89751871D01*
X199255673Y-91252500D01*
X199056005Y-91252500D01*
X198719683Y-90350511D01*
X198719683Y-91252500D01*
X198505359Y-91252500D01*
G37*
G36*
X200193932Y-91252500D02*
G01*
X199979976Y-91252500D01*
X199916961Y-90924237D01*
X199624969Y-90924237D01*
X199561954Y-91252500D01*
X199347631Y-91252500D01*
X199468441Y-90709914D01*
X199662704Y-90709914D01*
X199877027Y-90709914D01*
X199771881Y-90176121D01*
X199767851Y-90176121D01*
X199662704Y-90709914D01*
X199468441Y-90709914D01*
X199681755Y-89751871D01*
X199860175Y-89751871D01*
X200193932Y-91252500D01*
G37*
G36*
X200291752Y-91252500D02*
G01*
X200291752Y-89751871D01*
X200506075Y-89751871D01*
X200506075Y-91038176D01*
X200924829Y-91038176D01*
X200924829Y-91252500D01*
X200291752Y-91252500D01*
G37*
G36*
X93233320Y-80605303D02*
G01*
X92804674Y-80605303D01*
X93014967Y-79537717D01*
X93023027Y-79537717D01*
X93233320Y-80605303D01*
G37*
G36*
X94200463Y-82070701D02*
G01*
X84649463Y-82070701D01*
X84649463Y-81737368D01*
X88913885Y-81737368D01*
X89249475Y-81737368D01*
X89686948Y-79333286D01*
X90744974Y-79333286D01*
X90744974Y-79567759D01*
X91173620Y-79567759D01*
X91173620Y-79325226D01*
X91174116Y-79306024D01*
X91230040Y-79166224D01*
X91240973Y-79156403D01*
X91383180Y-79111269D01*
X91504813Y-79143509D01*
X91567828Y-79220446D01*
X91589077Y-79327424D01*
X91589077Y-79442462D01*
X91588656Y-79493498D01*
X91580284Y-79645428D01*
X91570381Y-79698909D01*
X91514339Y-79835205D01*
X90744974Y-81286740D01*
X90744974Y-81690474D01*
X92017723Y-81690474D01*
X92174527Y-81690474D01*
X92603173Y-81690474D01*
X92729203Y-81033949D01*
X93313187Y-81033949D01*
X93439216Y-81690474D01*
X93867130Y-81690474D01*
X93199614Y-78689217D01*
X92842775Y-78689217D01*
X92416147Y-80605303D01*
X92174527Y-81690474D01*
X92017723Y-81690474D01*
X92017723Y-81261827D01*
X91249091Y-81261827D01*
X91882901Y-80052092D01*
X91897989Y-80022794D01*
X91962768Y-79888694D01*
X92005267Y-79754605D01*
X92017723Y-79613921D01*
X92017723Y-79580181D01*
X92017723Y-79432204D01*
X92009834Y-79294925D01*
X91981819Y-79147905D01*
X91946713Y-79043795D01*
X91871910Y-78909036D01*
X91794453Y-78825768D01*
X91672608Y-78743439D01*
X91532060Y-78695986D01*
X91385378Y-78682623D01*
X91279212Y-78691330D01*
X91134052Y-78735379D01*
X91050865Y-78779790D01*
X90933285Y-78875330D01*
X90868011Y-78952083D01*
X90794799Y-79081227D01*
X90760739Y-79187175D01*
X90744974Y-79333286D01*
X89686948Y-79333286D01*
X89804150Y-78689217D01*
X89467828Y-78689217D01*
X88913885Y-81737368D01*
X84649463Y-81737368D01*
X84649463Y-80943823D01*
X84982796Y-80943823D01*
X84982796Y-81070585D01*
X84992754Y-81196348D01*
X85034820Y-81339497D01*
X85079333Y-81423234D01*
X85175504Y-81541730D01*
X85245262Y-81599260D01*
X85378470Y-81669957D01*
X85473752Y-81698422D01*
X85619537Y-81713921D01*
X85712067Y-81707738D01*
X85859872Y-81669957D01*
X85942442Y-81631317D01*
X86063571Y-81541730D01*
X86128612Y-81467823D01*
X86202789Y-81340229D01*
X86240657Y-81222388D01*
X86255546Y-81071318D01*
X86255546Y-80297557D01*
X86246982Y-80173267D01*
X86207241Y-80029588D01*
X86118526Y-79900418D01*
X86054938Y-79848741D01*
X85915823Y-79786444D01*
X85763152Y-79767794D01*
X85700536Y-79770924D01*
X85555790Y-79807361D01*
X85527762Y-79820191D01*
X85404848Y-79905547D01*
X85404848Y-79117864D01*
X86255546Y-79117864D01*
X86255546Y-78689217D01*
X86459244Y-78689217D01*
X87068142Y-81690474D01*
X87446230Y-81690474D01*
X88058791Y-78689217D01*
X87605232Y-78689217D01*
X87260849Y-80784088D01*
X87252789Y-80784088D01*
X86912803Y-78689217D01*
X86459244Y-78689217D01*
X86255546Y-78689217D01*
X85029691Y-78689217D01*
X85029691Y-80303418D01*
X85407779Y-80303418D01*
X85431959Y-80264584D01*
X85470061Y-80207431D01*
X85532343Y-80162734D01*
X85625399Y-80142951D01*
X85636267Y-80143197D01*
X85769747Y-80205965D01*
X85779961Y-80218013D01*
X85826900Y-80358373D01*
X85826900Y-81061792D01*
X85826064Y-81087610D01*
X85773410Y-81226656D01*
X85763139Y-81237132D01*
X85624667Y-81285275D01*
X85600864Y-81284324D01*
X85465664Y-81224458D01*
X85441967Y-81195502D01*
X85404848Y-81053732D01*
X85404848Y-80943823D01*
X84982796Y-80943823D01*
X84649463Y-80943823D01*
X84649463Y-78349290D01*
X94200463Y-78349290D01*
X94200463Y-82070701D01*
G37*
D12*
G36*
X95804885Y-80856956D02*
G01*
X95804885Y-81041970D01*
X95791693Y-81177447D01*
X95752495Y-81304653D01*
X95690091Y-81421915D01*
X95607964Y-81525205D01*
X95508008Y-81611768D01*
X95391809Y-81678711D01*
X95264220Y-81721145D01*
X95125829Y-81735498D01*
X95004174Y-81727211D01*
X94878350Y-81701792D01*
X94759064Y-81655547D01*
X94652120Y-81584006D01*
X94561656Y-81489561D01*
X94486523Y-81367668D01*
X94439192Y-81224167D01*
X94421493Y-81029331D01*
X94421493Y-79381607D01*
X94434291Y-79238430D01*
X94471685Y-79108483D01*
X94532895Y-78990212D01*
X94614384Y-78889947D01*
X94714690Y-78807928D01*
X94834386Y-78744866D01*
X94967196Y-78705804D01*
X95117402Y-78692293D01*
X95265313Y-78705389D01*
X95394157Y-78742995D01*
X95507521Y-78804138D01*
X95607964Y-78889947D01*
X95689594Y-78994553D01*
X95752495Y-79118924D01*
X95791504Y-79255588D01*
X95804885Y-79406887D01*
X95804885Y-79575048D01*
X95376422Y-79575048D01*
X95376422Y-79431982D01*
X95358312Y-79313429D01*
X95305347Y-79213629D01*
X95252325Y-79162179D01*
X95189366Y-79131702D01*
X95113189Y-79121122D01*
X95012882Y-79133852D01*
X94945699Y-79167399D01*
X94902163Y-79219858D01*
X94864062Y-79326716D01*
X94849956Y-79469901D01*
X94849956Y-81000022D01*
X94864846Y-81122629D01*
X94906376Y-81218375D01*
X94951059Y-81265404D01*
X95016072Y-81295423D01*
X95108976Y-81306668D01*
X95198735Y-81292014D01*
X95288678Y-81243654D01*
X95322023Y-81205079D01*
X95351143Y-81151147D01*
X95369565Y-81088064D01*
X95376422Y-81004235D01*
X95376422Y-80856956D01*
X95804885Y-80856956D01*
G37*
D13*
G36*
X96598506Y-90757733D02*
G01*
X96598506Y-91918467D01*
X96591815Y-91989956D01*
X96572311Y-92054205D01*
X96540665Y-92112700D01*
X96497848Y-92164572D01*
X96446020Y-92207664D01*
X96386748Y-92240318D01*
X96322131Y-92260723D01*
X96252658Y-92267612D01*
X96183250Y-92260698D01*
X96119485Y-92240318D01*
X96061136Y-92207732D01*
X96009484Y-92164572D01*
X95966494Y-92112750D01*
X95934013Y-92054205D01*
X95913750Y-91989907D01*
X95906811Y-91918467D01*
X95906811Y-90757733D01*
X96121042Y-90757733D01*
X96121042Y-91897676D01*
X96125897Y-91949619D01*
X96138885Y-91987721D01*
X96158686Y-92015370D01*
X96200686Y-92043604D01*
X96252750Y-92053197D01*
X96304719Y-92043605D01*
X96346631Y-92015370D01*
X96366432Y-91987721D01*
X96379420Y-91949619D01*
X96384275Y-91897676D01*
X96384275Y-90757733D01*
X96598506Y-90757733D01*
G37*
G36*
X97495641Y-91186105D02*
G01*
X97281409Y-91186105D01*
X97281409Y-91137745D01*
X97272442Y-91068055D01*
X97246788Y-91010616D01*
X97219698Y-90981707D01*
X97182117Y-90963664D01*
X97130376Y-90957035D01*
X97089133Y-90961599D01*
X97059118Y-90973888D01*
X97034304Y-90992902D01*
X97015063Y-91015837D01*
X97001042Y-91044684D01*
X96991982Y-91077844D01*
X96985662Y-91150293D01*
X96988776Y-91223932D01*
X97004621Y-91276505D01*
X97019800Y-91297751D01*
X97041258Y-91316439D01*
X97107386Y-91349961D01*
X97271060Y-91415174D01*
X97337725Y-91446047D01*
X97386464Y-91479288D01*
X97426070Y-91519196D01*
X97455707Y-91564376D01*
X97474821Y-91617157D01*
X97487214Y-91678956D01*
X97495641Y-91824952D01*
X97490746Y-91917577D01*
X97476681Y-92000532D01*
X97451400Y-92076756D01*
X97415773Y-92138102D01*
X97365223Y-92190220D01*
X97300002Y-92230609D01*
X97223633Y-92255236D01*
X97125521Y-92264223D01*
X97049769Y-92257286D01*
X96980441Y-92236929D01*
X96917495Y-92204029D01*
X96864762Y-92161183D01*
X96821586Y-92109136D01*
X96788100Y-92048801D01*
X96766937Y-91982451D01*
X96759707Y-91909033D01*
X96759707Y-91829166D01*
X96973938Y-91829166D01*
X96973938Y-91896485D01*
X96982616Y-91952355D01*
X97008651Y-92002547D01*
X97035321Y-92027693D01*
X97072980Y-92043804D01*
X97125521Y-92049808D01*
X97176923Y-92045365D01*
X97210884Y-92034055D01*
X97238010Y-92014853D01*
X97258237Y-91988900D01*
X97271415Y-91957384D01*
X97278204Y-91918467D01*
X97281409Y-91827059D01*
X97277196Y-91730430D01*
X97270489Y-91694799D01*
X97260435Y-91669431D01*
X97243422Y-91648523D01*
X97221600Y-91631695D01*
X97157578Y-91600096D01*
X97004438Y-91536990D01*
X96917331Y-91491976D01*
X96857263Y-91441898D01*
X96818600Y-91386781D01*
X96793429Y-91322718D01*
X96777243Y-91245462D01*
X96771430Y-91152399D01*
X96777285Y-91069914D01*
X96794511Y-90992756D01*
X96823802Y-90921498D01*
X96863754Y-90862513D01*
X96913345Y-90813749D01*
X96976045Y-90775227D01*
X97048544Y-90751238D01*
X97138710Y-90742621D01*
X97215942Y-90750170D01*
X97284615Y-90772113D01*
X97346738Y-90806535D01*
X97399012Y-90849874D01*
X97453438Y-90921651D01*
X97485044Y-90997919D01*
X97495641Y-91080958D01*
X97495641Y-91186105D01*
G37*
G36*
X98062539Y-90766107D02*
G01*
X98139434Y-90789057D01*
X98206142Y-90826169D01*
X98257953Y-90872497D01*
X98297412Y-90928506D01*
X98323899Y-90992573D01*
X98338833Y-91061392D01*
X98343866Y-91133440D01*
X98343866Y-91187753D01*
X98341287Y-91245855D01*
X98334432Y-91289969D01*
X98322493Y-91329862D01*
X98306497Y-91363059D01*
X98263210Y-91416031D01*
X98198511Y-91463259D01*
X98244518Y-91491335D01*
X98280810Y-91526303D01*
X98308512Y-91568772D01*
X98326973Y-91616584D01*
X98339299Y-91678737D01*
X98343866Y-91758640D01*
X98343866Y-91843087D01*
X98336989Y-91942866D01*
X98317883Y-92024783D01*
X98288156Y-92091985D01*
X98248428Y-92146987D01*
X98197659Y-92190518D01*
X98132370Y-92223310D01*
X98049140Y-92244682D01*
X97943521Y-92252500D01*
X97652170Y-92252500D01*
X97652170Y-92038085D01*
X97866401Y-92038085D01*
X97959092Y-92038085D01*
X98020402Y-92032730D01*
X98061307Y-92019034D01*
X98093911Y-91995989D01*
X98117178Y-91966003D01*
X98132177Y-91929875D01*
X98140350Y-91885494D01*
X98144564Y-91783736D01*
X98138244Y-91684177D01*
X98128445Y-91644075D01*
X98112965Y-91612186D01*
X98088317Y-91586559D01*
X98055995Y-91568681D01*
X98017145Y-91558783D01*
X97961198Y-91554942D01*
X97866401Y-91554942D01*
X97866401Y-92038085D01*
X97652170Y-92038085D01*
X97652170Y-91367363D01*
X97866401Y-91367363D01*
X97963305Y-91367363D01*
X98032691Y-91360165D01*
X98078501Y-91341619D01*
X98107652Y-91313966D01*
X98126872Y-91276451D01*
X98139742Y-91225713D01*
X98144564Y-91157986D01*
X98139215Y-91092002D01*
X98124935Y-91043074D01*
X98103439Y-91007227D01*
X98072175Y-90981252D01*
X98024753Y-90963775D01*
X97954878Y-90957035D01*
X97866401Y-90957035D01*
X97866401Y-91367363D01*
X97652170Y-91367363D01*
X97652170Y-90757733D01*
X97964496Y-90757733D01*
X98062539Y-90766107D01*
G37*
G36*
X98935910Y-92252500D02*
G01*
X98935910Y-90757733D01*
X99574850Y-90757733D01*
X99574850Y-90957035D01*
X99150142Y-90957035D01*
X99150142Y-91414258D01*
X99519162Y-91414258D01*
X99519162Y-91613560D01*
X99150142Y-91613560D01*
X99150142Y-92252500D01*
X98935910Y-92252500D01*
G37*
G36*
X100339818Y-91185647D02*
G01*
X100339818Y-92252500D01*
X100125587Y-92252500D01*
X100125587Y-92149002D01*
X100121465Y-92149002D01*
X100084342Y-92195107D01*
X100040865Y-92231800D01*
X99989146Y-92255594D01*
X99920514Y-92264223D01*
X99881112Y-92260859D01*
X99841105Y-92250576D01*
X99803683Y-92232551D01*
X99769939Y-92205330D01*
X99742203Y-92170227D01*
X99719655Y-92124455D01*
X99705950Y-92071848D01*
X99700879Y-92003463D01*
X99700879Y-91185647D01*
X99915110Y-91185647D01*
X99915110Y-91923688D01*
X99922447Y-91978119D01*
X99942221Y-92016195D01*
X99974308Y-92041075D01*
X100019341Y-92049808D01*
X100057612Y-92045017D01*
X100084350Y-92032198D01*
X100102689Y-92011981D01*
X100119108Y-91969183D01*
X100125587Y-91902622D01*
X100125587Y-91185647D01*
X100339818Y-91185647D01*
G37*
G36*
X100517139Y-92252500D02*
G01*
X100517139Y-91185647D01*
X100731370Y-91185647D01*
X100731370Y-91289145D01*
X100735492Y-91289145D01*
X100772591Y-91243108D01*
X100816000Y-91206438D01*
X100867805Y-91182572D01*
X100936442Y-91173923D01*
X100975845Y-91177287D01*
X101015852Y-91187570D01*
X101053264Y-91205543D01*
X101087018Y-91232816D01*
X101114729Y-91267936D01*
X101137210Y-91313783D01*
X101150983Y-91366304D01*
X101156078Y-91434591D01*
X101156078Y-92252500D01*
X100941846Y-92252500D01*
X100941846Y-91514550D01*
X100934510Y-91460119D01*
X100914735Y-91422043D01*
X100882640Y-91397092D01*
X100837616Y-91388338D01*
X100799354Y-91393138D01*
X100772614Y-91405985D01*
X100754268Y-91426256D01*
X100737846Y-91469045D01*
X100731370Y-91535525D01*
X100731370Y-92252500D01*
X100517139Y-92252500D01*
G37*
G36*
X101559353Y-91944845D02*
G01*
X101566918Y-91990700D01*
X101587747Y-92022514D01*
X101620135Y-92042609D01*
X101664683Y-92049808D01*
X101703456Y-92045143D01*
X101729180Y-92032956D01*
X101745650Y-92014180D01*
X101761870Y-91977889D01*
X101769830Y-91942739D01*
X101984061Y-91942739D01*
X101973889Y-92033021D01*
X101945023Y-92107501D01*
X101897874Y-92169701D01*
X101851934Y-92208847D01*
X101796941Y-92239036D01*
X101735596Y-92257707D01*
X101664591Y-92264223D01*
X101598410Y-92259203D01*
X101541836Y-92244972D01*
X101493225Y-92222274D01*
X101430753Y-92173145D01*
X101384964Y-92110808D01*
X101365828Y-92066556D01*
X101353457Y-92014271D01*
X101345122Y-91894470D01*
X101345122Y-91543676D01*
X101353457Y-91423875D01*
X101365828Y-91371591D01*
X101384964Y-91327338D01*
X101430757Y-91265020D01*
X101493225Y-91215963D01*
X101541842Y-91193214D01*
X101598416Y-91178953D01*
X101664591Y-91173923D01*
X101735742Y-91180437D01*
X101798040Y-91199202D01*
X101853879Y-91229381D01*
X101899981Y-91268445D01*
X101945729Y-91335887D01*
X101974043Y-91416667D01*
X101984061Y-91514367D01*
X101769830Y-91514367D01*
X101761857Y-91455100D01*
X101741436Y-91418838D01*
X101708796Y-91396262D01*
X101664683Y-91388338D01*
X101620412Y-91396270D01*
X101587747Y-91418838D01*
X101567186Y-91454586D01*
X101559353Y-91510154D01*
X101559353Y-91944845D01*
G37*
G36*
X102112747Y-91185647D02*
G01*
X102112747Y-90863246D01*
X102326978Y-90863246D01*
X102326978Y-91185647D01*
X102455938Y-91185647D01*
X102455938Y-91355640D01*
X102326978Y-91355640D01*
X102326978Y-91947868D01*
X102334122Y-92006852D01*
X102343773Y-92025568D01*
X102357661Y-92038543D01*
X102397595Y-92051091D01*
X102455938Y-92053197D01*
X102455938Y-92252500D01*
X102368560Y-92252500D01*
X102299471Y-92246279D01*
X102246927Y-92229419D01*
X102202187Y-92202590D01*
X102168892Y-92170617D01*
X102143717Y-92132649D01*
X102126210Y-92089742D01*
X102116015Y-92044684D01*
X102112747Y-92002547D01*
X102112747Y-91355640D01*
X102004578Y-91355640D01*
X102004578Y-91185647D01*
X102112747Y-91185647D01*
G37*
G36*
X102538004Y-92252500D02*
G01*
X102538004Y-91185647D01*
X102752235Y-91185647D01*
X102752235Y-92252500D01*
X102538004Y-92252500D01*
G37*
G36*
X102538004Y-90972148D02*
G01*
X102538004Y-90757733D01*
X102752235Y-90757733D01*
X102752235Y-90972148D01*
X102538004Y-90972148D01*
G37*
G36*
X103295813Y-91178953D02*
G01*
X103352325Y-91193214D01*
X103400883Y-91215963D01*
X103463426Y-91265027D01*
X103509236Y-91327338D01*
X103528372Y-91371591D01*
X103540743Y-91423875D01*
X103549169Y-91543676D01*
X103549169Y-91894470D01*
X103540743Y-92014271D01*
X103528372Y-92066556D01*
X103509236Y-92110808D01*
X103463430Y-92173138D01*
X103400883Y-92222274D01*
X103352331Y-92244972D01*
X103295818Y-92259203D01*
X103229700Y-92264223D01*
X103163518Y-92259203D01*
X103106944Y-92244972D01*
X103058333Y-92222274D01*
X102995861Y-92173145D01*
X102950072Y-92110808D01*
X102930936Y-92066556D01*
X102918565Y-92014271D01*
X102910230Y-91894470D01*
X102910230Y-91543676D01*
X102912562Y-91510154D01*
X103124461Y-91510154D01*
X103124461Y-91928084D01*
X103132294Y-91983652D01*
X103152855Y-92019400D01*
X103185512Y-92041897D01*
X103229791Y-92049808D01*
X103273912Y-92041905D01*
X103306545Y-92019400D01*
X103327105Y-91983652D01*
X103334938Y-91928084D01*
X103334938Y-91510154D01*
X103327105Y-91454586D01*
X103306545Y-91418838D01*
X103273904Y-91396262D01*
X103229791Y-91388338D01*
X103185520Y-91396270D01*
X103152855Y-91418838D01*
X103132294Y-91454586D01*
X103124461Y-91510154D01*
X102912562Y-91510154D01*
X102918565Y-91423875D01*
X102930936Y-91371591D01*
X102950072Y-91327338D01*
X102995865Y-91265020D01*
X103058333Y-91215963D01*
X103106950Y-91193214D01*
X103163524Y-91178953D01*
X103229700Y-91173923D01*
X103295813Y-91178953D01*
G37*
G36*
X103704508Y-92252500D02*
G01*
X103704508Y-91185647D01*
X103918739Y-91185647D01*
X103918739Y-91289145D01*
X103922861Y-91289145D01*
X103959961Y-91243108D01*
X104003369Y-91206438D01*
X104055174Y-91182572D01*
X104123812Y-91173923D01*
X104163214Y-91177287D01*
X104203221Y-91187570D01*
X104240633Y-91205543D01*
X104274387Y-91232816D01*
X104302098Y-91267936D01*
X104324579Y-91313783D01*
X104338352Y-91366304D01*
X104343447Y-91434591D01*
X104343447Y-92252500D01*
X104129216Y-92252500D01*
X104129216Y-91514550D01*
X104121879Y-91460119D01*
X104102105Y-91422043D01*
X104070009Y-91397092D01*
X104024985Y-91388338D01*
X103986723Y-91393138D01*
X103959983Y-91405985D01*
X103941637Y-91426256D01*
X103925215Y-91469045D01*
X103918739Y-91535525D01*
X103918739Y-92252500D01*
X103704508Y-92252500D01*
G37*
D12*
G36*
X189457358Y-95631229D02*
G01*
X189507898Y-95642815D01*
X189556032Y-95665922D01*
X189591066Y-95695414D01*
X189621527Y-95737776D01*
X189642019Y-95789026D01*
X189651865Y-95842042D01*
X189654081Y-95886412D01*
X189654081Y-96354381D01*
X189651728Y-96404536D01*
X189643036Y-96456473D01*
X189625259Y-96507157D01*
X189599118Y-96548591D01*
X189587158Y-96561743D01*
X189544858Y-96593975D01*
X189499440Y-96613771D01*
X189446665Y-96625231D01*
X189394450Y-96628422D01*
X189198568Y-96628422D01*
X189198568Y-96485539D01*
X189341450Y-96485539D01*
X189404709Y-96485539D01*
X189454351Y-96478151D01*
X189487018Y-96455986D01*
X189507208Y-96409009D01*
X189511199Y-96363174D01*
X189511199Y-95891785D01*
X189505459Y-95840677D01*
X189488240Y-95802636D01*
X189444848Y-95775350D01*
X189404709Y-95770885D01*
X189341450Y-95770885D01*
X189341450Y-96485539D01*
X189198568Y-96485539D01*
X189198568Y-95628003D01*
X189407151Y-95628003D01*
X189457358Y-95631229D01*
G37*
G36*
X189794520Y-96628422D02*
G01*
X189794520Y-95925002D01*
X189937402Y-95925002D01*
X189937402Y-96628422D01*
X189794520Y-96628422D01*
G37*
G36*
X189794520Y-95770885D02*
G01*
X189794520Y-95628003D01*
X189937402Y-95628003D01*
X189937402Y-95770885D01*
X189794520Y-95770885D01*
G37*
G36*
X190302301Y-96129189D02*
G01*
X190288089Y-96082012D01*
X190283739Y-96077410D01*
X190241485Y-96060068D01*
X190197277Y-96081318D01*
X190181660Y-96127974D01*
X190181645Y-96129678D01*
X190191415Y-96167047D01*
X190231513Y-96196486D01*
X190240996Y-96200264D01*
X190323306Y-96233237D01*
X190367537Y-96254007D01*
X190408020Y-96284598D01*
X190431261Y-96314814D01*
X190451464Y-96361991D01*
X190460353Y-96412908D01*
X190460815Y-96428142D01*
X190455046Y-96477499D01*
X190444450Y-96508987D01*
X190419416Y-96552378D01*
X190399998Y-96574932D01*
X190359889Y-96606092D01*
X190331610Y-96620117D01*
X190282041Y-96633577D01*
X190245148Y-96636237D01*
X190192984Y-96630823D01*
X190146402Y-96614580D01*
X190105400Y-96587508D01*
X190097870Y-96580794D01*
X190064802Y-96541563D01*
X190049266Y-96512895D01*
X190034972Y-96465766D01*
X190030947Y-96417884D01*
X190174318Y-96417884D01*
X190190227Y-96464899D01*
X190192880Y-96469419D01*
X190235917Y-96492981D01*
X190244904Y-96493355D01*
X190291200Y-96477107D01*
X190295462Y-96473572D01*
X190317384Y-96429058D01*
X190317933Y-96418373D01*
X190303721Y-96370570D01*
X190302790Y-96369280D01*
X190261736Y-96339649D01*
X190247591Y-96333865D01*
X190180424Y-96309440D01*
X190134766Y-96287756D01*
X190094295Y-96256668D01*
X190076376Y-96236656D01*
X190052023Y-96193897D01*
X190040085Y-96144204D01*
X190038763Y-96118931D01*
X190044618Y-96069253D01*
X190055372Y-96037842D01*
X190080998Y-95994928D01*
X190101045Y-95973118D01*
X190141372Y-95943005D01*
X190165769Y-95931597D01*
X190214675Y-95919213D01*
X190246125Y-95917186D01*
X190294933Y-95922783D01*
X190325748Y-95933062D01*
X190369311Y-95959264D01*
X190388519Y-95977270D01*
X190417103Y-96017398D01*
X190430040Y-96045414D01*
X190442684Y-96093918D01*
X190445183Y-96129189D01*
X190302301Y-96129189D01*
G37*
G36*
X190786109Y-95921591D02*
G01*
X190821806Y-95931108D01*
X190867353Y-95953853D01*
X190890926Y-95972629D01*
X190921857Y-96012777D01*
X190936111Y-96041994D01*
X190949452Y-96090109D01*
X190953208Y-96139203D01*
X190953208Y-96628422D01*
X190810326Y-96628422D01*
X190810326Y-96555881D01*
X190807640Y-96555881D01*
X190775809Y-96593852D01*
X190750731Y-96615477D01*
X190703016Y-96633784D01*
X190670131Y-96636237D01*
X190620457Y-96628902D01*
X190618840Y-96628422D01*
X190575029Y-96604886D01*
X190569014Y-96599845D01*
X190538194Y-96560644D01*
X190530180Y-96543181D01*
X190518330Y-96494537D01*
X190515525Y-96447193D01*
X190516608Y-96418373D01*
X190658407Y-96418373D01*
X190667643Y-96467856D01*
X190677947Y-96485539D01*
X190720253Y-96510283D01*
X190732901Y-96511185D01*
X190780158Y-96496427D01*
X190789810Y-96487005D01*
X190808703Y-96441900D01*
X190810326Y-96418617D01*
X190810326Y-96320187D01*
X190771003Y-96315791D01*
X190720428Y-96323626D01*
X190691380Y-96338017D01*
X190663044Y-96379710D01*
X190658407Y-96418373D01*
X190516608Y-96418373D01*
X190517395Y-96397425D01*
X190524112Y-96347416D01*
X190525295Y-96341680D01*
X190541738Y-96295012D01*
X190561687Y-96265232D01*
X190600709Y-96234111D01*
X190630808Y-96221024D01*
X190680206Y-96210034D01*
X190729064Y-96206499D01*
X190741450Y-96206370D01*
X190757081Y-96206370D01*
X190772469Y-96206370D01*
X190789321Y-96206370D01*
X190810326Y-96210522D01*
X190810326Y-96139936D01*
X190800007Y-96091639D01*
X190794695Y-96082783D01*
X190750819Y-96060623D01*
X190738763Y-96060068D01*
X190691623Y-96074311D01*
X190687228Y-96077410D01*
X190659549Y-96117737D01*
X190656942Y-96127724D01*
X190521143Y-96127724D01*
X190525818Y-96077925D01*
X190541980Y-96029210D01*
X190569686Y-95987460D01*
X190580249Y-95976293D01*
X190620053Y-95946583D01*
X190648149Y-95933062D01*
X190695753Y-95920225D01*
X190737053Y-95917186D01*
X190786109Y-95921591D01*
G37*
G36*
X191207465Y-95989971D02*
G01*
X191210396Y-95989971D01*
X191243235Y-95952399D01*
X191266328Y-95935993D01*
X191313071Y-95919409D01*
X191340577Y-95917186D01*
X191391015Y-95922905D01*
X191420201Y-95935260D01*
X191457020Y-95967729D01*
X191466607Y-95980934D01*
X191483145Y-96028178D01*
X191484681Y-96039064D01*
X191487921Y-96088897D01*
X191488817Y-96142075D01*
X191488833Y-96151415D01*
X191488833Y-96418861D01*
X191487599Y-96468327D01*
X191483215Y-96511673D01*
X191470413Y-96558924D01*
X191465386Y-96569803D01*
X191431176Y-96610286D01*
X191382404Y-96632085D01*
X191341799Y-96636237D01*
X191293157Y-96630378D01*
X191261687Y-96615477D01*
X191224095Y-96581977D01*
X191207465Y-96563697D01*
X191207465Y-96628422D01*
X191064583Y-96628422D01*
X191064583Y-96135539D01*
X191207465Y-96135539D01*
X191207465Y-96406893D01*
X191218319Y-96456444D01*
X191226760Y-96469419D01*
X191269877Y-96492981D01*
X191277563Y-96493355D01*
X191324002Y-96474750D01*
X191329587Y-96467221D01*
X191344928Y-96418678D01*
X191345951Y-96398345D01*
X191345951Y-96142622D01*
X191336438Y-96094288D01*
X191331540Y-96084737D01*
X191287062Y-96060454D01*
X191277563Y-96060068D01*
X191231336Y-96077721D01*
X191227493Y-96081562D01*
X191207778Y-96127537D01*
X191207465Y-96135539D01*
X191064583Y-96135539D01*
X191064583Y-95628003D01*
X191207465Y-95628003D01*
X191207465Y-95989971D01*
G37*
G36*
X191593125Y-95628003D02*
G01*
X191736007Y-95628003D01*
X191736007Y-96426677D01*
X191745358Y-96475941D01*
X191750173Y-96482364D01*
X191796953Y-96500501D01*
X191804150Y-96501415D01*
X191804150Y-96636237D01*
X191755266Y-96634031D01*
X191716711Y-96628422D01*
X191670474Y-96612173D01*
X191650033Y-96598624D01*
X191618202Y-96561105D01*
X191607779Y-96538784D01*
X191596345Y-96490820D01*
X191593139Y-96440865D01*
X191593125Y-96436935D01*
X191593125Y-95628003D01*
G37*
G36*
X192114353Y-95921943D02*
G01*
X192153662Y-95934039D01*
X192196719Y-95958239D01*
X192221317Y-95979957D01*
X192250812Y-96022160D01*
X192269383Y-96070613D01*
X192276757Y-96119563D01*
X192277249Y-96137005D01*
X192277249Y-96331422D01*
X191995881Y-96331422D01*
X191995881Y-96425211D01*
X192011126Y-96472296D01*
X192014443Y-96475770D01*
X192061083Y-96493287D01*
X192065002Y-96493355D01*
X192112592Y-96478199D01*
X192118491Y-96470396D01*
X192134367Y-96424234D01*
X192277249Y-96424234D01*
X192272728Y-96473601D01*
X192257100Y-96521792D01*
X192230310Y-96562969D01*
X192220096Y-96573955D01*
X192180693Y-96605421D01*
X192152929Y-96619629D01*
X192105874Y-96633058D01*
X192065002Y-96636237D01*
X192013933Y-96631682D01*
X191966328Y-96616589D01*
X191951185Y-96608638D01*
X191912226Y-96578792D01*
X191881200Y-96538202D01*
X191879621Y-96535365D01*
X191862036Y-96488928D01*
X191858617Y-96471373D01*
X191853663Y-96421194D01*
X191852999Y-96392727D01*
X191852999Y-96160941D01*
X191853851Y-96141157D01*
X191995881Y-96141157D01*
X191995881Y-96222001D01*
X192134367Y-96222001D01*
X192134367Y-96141157D01*
X192124651Y-96093248D01*
X192115560Y-96080341D01*
X192070883Y-96060247D01*
X192065002Y-96060068D01*
X192018083Y-96076718D01*
X192014443Y-96080341D01*
X191996534Y-96126591D01*
X191995881Y-96141157D01*
X191853851Y-96141157D01*
X191855193Y-96109974D01*
X191858617Y-96082050D01*
X191871739Y-96034603D01*
X191879621Y-96018303D01*
X191909969Y-95977148D01*
X191948290Y-95946773D01*
X191951185Y-95945030D01*
X191999549Y-95925045D01*
X192048584Y-95917621D01*
X192065002Y-95917186D01*
X192114353Y-95921943D01*
G37*
G36*
X189029795Y-98308422D02*
G01*
X188887157Y-98308422D01*
X188845148Y-98089580D01*
X188650486Y-98089580D01*
X188608476Y-98308422D01*
X188465594Y-98308422D01*
X188546134Y-97946698D01*
X188675643Y-97946698D01*
X188818525Y-97946698D01*
X188748427Y-97590836D01*
X188745741Y-97590836D01*
X188675643Y-97946698D01*
X188546134Y-97946698D01*
X188688344Y-97308003D01*
X188807290Y-97308003D01*
X189029795Y-98308422D01*
G37*
G36*
X189519258Y-97605002D02*
G01*
X189519258Y-98308422D01*
X189376376Y-98308422D01*
X189376376Y-98239545D01*
X189373689Y-98239545D01*
X189340625Y-98278524D01*
X189320200Y-98294744D01*
X189274443Y-98313215D01*
X189240577Y-98316237D01*
X189191118Y-98308509D01*
X189187820Y-98307445D01*
X189144623Y-98281436D01*
X189140681Y-98277647D01*
X189112427Y-98236010D01*
X189107464Y-98224158D01*
X189096480Y-98174995D01*
X189095008Y-98144290D01*
X189095008Y-97605002D01*
X189237890Y-97605002D01*
X189237890Y-98090557D01*
X189247919Y-98139238D01*
X189255720Y-98151373D01*
X189300473Y-98173162D01*
X189306522Y-98173355D01*
X189353522Y-98158299D01*
X189361233Y-98148687D01*
X189375178Y-98101393D01*
X189376376Y-98076635D01*
X189376376Y-97605002D01*
X189519258Y-97605002D01*
G37*
G36*
X189636983Y-97605002D02*
G01*
X189636983Y-97378345D01*
X189779865Y-97378345D01*
X189779865Y-97605002D01*
X189858023Y-97605002D01*
X189858023Y-97714423D01*
X189779865Y-97714423D01*
X189779865Y-98097396D01*
X189784261Y-98135742D01*
X189798427Y-98156014D01*
X189822607Y-98164318D01*
X189858023Y-98165539D01*
X189858023Y-98308422D01*
X189801603Y-98308422D01*
X189751340Y-98303083D01*
X189723201Y-98293278D01*
X189681955Y-98264167D01*
X189673131Y-98254200D01*
X189648524Y-98209873D01*
X189645531Y-98200710D01*
X189637192Y-98151580D01*
X189636983Y-98142825D01*
X189636983Y-97714423D01*
X189561023Y-97714423D01*
X189561023Y-97605002D01*
X189636983Y-97605002D01*
G37*
G36*
X190172015Y-97601782D02*
G01*
X190219566Y-97617009D01*
X190234645Y-97625030D01*
X190273779Y-97654876D01*
X190304874Y-97695466D01*
X190306453Y-97698303D01*
X190324038Y-97744602D01*
X190327457Y-97762050D01*
X190332411Y-97812224D01*
X190333075Y-97840941D01*
X190333075Y-98072727D01*
X190330881Y-98123369D01*
X190327457Y-98151373D01*
X190314335Y-98199046D01*
X190306453Y-98215365D01*
X190276044Y-98256520D01*
X190237555Y-98286895D01*
X190234645Y-98288638D01*
X190186402Y-98308448D01*
X190137299Y-98315806D01*
X190120828Y-98316237D01*
X190069759Y-98311682D01*
X190022154Y-98296589D01*
X190007011Y-98288638D01*
X189968052Y-98258792D01*
X189937026Y-98218202D01*
X189935448Y-98215365D01*
X189917862Y-98168928D01*
X189914443Y-98151373D01*
X189909489Y-98101194D01*
X189908825Y-98072727D01*
X189908825Y-97840941D01*
X189909730Y-97819936D01*
X190051707Y-97819936D01*
X190051707Y-98093488D01*
X190062149Y-98142306D01*
X190070270Y-98153572D01*
X190116910Y-98173278D01*
X190120828Y-98173355D01*
X190167788Y-98157107D01*
X190171386Y-98153572D01*
X190189532Y-98107805D01*
X190190193Y-98093488D01*
X190190193Y-97819936D01*
X190179614Y-97771255D01*
X190171386Y-97760096D01*
X190126709Y-97740244D01*
X190120828Y-97740068D01*
X190073910Y-97756517D01*
X190070270Y-97760096D01*
X190052360Y-97805628D01*
X190051707Y-97819936D01*
X189909730Y-97819936D01*
X189911020Y-97789974D01*
X189914443Y-97762050D01*
X189927565Y-97714603D01*
X189935448Y-97698303D01*
X189965795Y-97657148D01*
X190004116Y-97626773D01*
X190007011Y-97625030D01*
X190055375Y-97605045D01*
X190104410Y-97597621D01*
X190120828Y-97597186D01*
X190172015Y-97601782D01*
G37*
G36*
X190702126Y-98308422D02*
G01*
X190702126Y-97308003D01*
X190838169Y-97308003D01*
X191021596Y-97837766D01*
X191024282Y-97837766D01*
X191206487Y-97308003D01*
X191345217Y-97308003D01*
X191345217Y-98308422D01*
X191202335Y-98308422D01*
X191202335Y-97700013D01*
X191199649Y-97700013D01*
X191057988Y-98129880D01*
X190986425Y-98129880D01*
X190845008Y-97700013D01*
X190845008Y-98308422D01*
X190702126Y-98308422D01*
G37*
G36*
X191727353Y-97601782D02*
G01*
X191774904Y-97617009D01*
X191789984Y-97625030D01*
X191829117Y-97654876D01*
X191860212Y-97695466D01*
X191861791Y-97698303D01*
X191879376Y-97744602D01*
X191882796Y-97762050D01*
X191887750Y-97812224D01*
X191888413Y-97840941D01*
X191888413Y-98072727D01*
X191886219Y-98123369D01*
X191882796Y-98151373D01*
X191869674Y-98199046D01*
X191861791Y-98215365D01*
X191831383Y-98256520D01*
X191792893Y-98286895D01*
X191789984Y-98288638D01*
X191741741Y-98308448D01*
X191692638Y-98315806D01*
X191676166Y-98316237D01*
X191625097Y-98311682D01*
X191577493Y-98296589D01*
X191562349Y-98288638D01*
X191523391Y-98258792D01*
X191492364Y-98218202D01*
X191490786Y-98215365D01*
X191473201Y-98168928D01*
X191469781Y-98151373D01*
X191464827Y-98101194D01*
X191464164Y-98072727D01*
X191464164Y-97840941D01*
X191465068Y-97819936D01*
X191607046Y-97819936D01*
X191607046Y-98093488D01*
X191617487Y-98142306D01*
X191625608Y-98153572D01*
X191672248Y-98173278D01*
X191676166Y-98173355D01*
X191723126Y-98157107D01*
X191726725Y-98153572D01*
X191744870Y-98107805D01*
X191745531Y-98093488D01*
X191745531Y-97819936D01*
X191734953Y-97771255D01*
X191726725Y-97760096D01*
X191682048Y-97740244D01*
X191676166Y-97740068D01*
X191629248Y-97756517D01*
X191625608Y-97760096D01*
X191607698Y-97805628D01*
X191607046Y-97819936D01*
X191465068Y-97819936D01*
X191466358Y-97789974D01*
X191469781Y-97762050D01*
X191482904Y-97714603D01*
X191490786Y-97698303D01*
X191521133Y-97657148D01*
X191559455Y-97626773D01*
X191562349Y-97625030D01*
X191610714Y-97605045D01*
X191659749Y-97597621D01*
X191676166Y-97597186D01*
X191727353Y-97601782D01*
G37*
G36*
X192421840Y-98308422D02*
G01*
X192278958Y-98308422D01*
X192278958Y-98244674D01*
X192252824Y-98273006D01*
X192224980Y-98295477D01*
X192190298Y-98310864D01*
X192144380Y-98316237D01*
X192094239Y-98309750D01*
X192047985Y-98284837D01*
X192021037Y-98249803D01*
X192005124Y-98202173D01*
X192003208Y-98191673D01*
X191998517Y-98142340D01*
X191997590Y-98098861D01*
X191997590Y-97831415D01*
X191997687Y-97822867D01*
X192140472Y-97822867D01*
X192140472Y-98080054D01*
X192147520Y-98129322D01*
X192156836Y-98149419D01*
X192200487Y-98175145D01*
X192209104Y-98175553D01*
X192254705Y-98157041D01*
X192259663Y-98151373D01*
X192278034Y-98104797D01*
X192278958Y-98088603D01*
X192278958Y-97816028D01*
X192264700Y-97768559D01*
X192258930Y-97761562D01*
X192214647Y-97740257D01*
X192209104Y-97740068D01*
X192162402Y-97755274D01*
X192154882Y-97764981D01*
X192140824Y-97812695D01*
X192140472Y-97822867D01*
X191997687Y-97822867D01*
X191998174Y-97780010D01*
X192000769Y-97728780D01*
X192001742Y-97719064D01*
X192016592Y-97668587D01*
X192047645Y-97629477D01*
X192067443Y-97615260D01*
X192113851Y-97599322D01*
X192147311Y-97597186D01*
X192196198Y-97604533D01*
X192222049Y-97615993D01*
X192261434Y-97647724D01*
X192278958Y-97669971D01*
X192278958Y-97308003D01*
X192421840Y-97308003D01*
X192421840Y-98308422D01*
G37*
G36*
X192787485Y-97601943D02*
G01*
X192826794Y-97614039D01*
X192869852Y-97638239D01*
X192894450Y-97659957D01*
X192923945Y-97702160D01*
X192942516Y-97750613D01*
X192949890Y-97799563D01*
X192950381Y-97817005D01*
X192950381Y-98011422D01*
X192669014Y-98011422D01*
X192669014Y-98105211D01*
X192684259Y-98152296D01*
X192687576Y-98155770D01*
X192734216Y-98173287D01*
X192738134Y-98173355D01*
X192785724Y-98158199D01*
X192791623Y-98150396D01*
X192807499Y-98104234D01*
X192950381Y-98104234D01*
X192945860Y-98153601D01*
X192930233Y-98201792D01*
X192903442Y-98242969D01*
X192893229Y-98253955D01*
X192853825Y-98285421D01*
X192826062Y-98299629D01*
X192779007Y-98313058D01*
X192738134Y-98316237D01*
X192687065Y-98311682D01*
X192639461Y-98296589D01*
X192624317Y-98288638D01*
X192585359Y-98258792D01*
X192554332Y-98218202D01*
X192552754Y-98215365D01*
X192535168Y-98168928D01*
X192531749Y-98151373D01*
X192526795Y-98101194D01*
X192526132Y-98072727D01*
X192526132Y-97840941D01*
X192526984Y-97821157D01*
X192669014Y-97821157D01*
X192669014Y-97902001D01*
X192807499Y-97902001D01*
X192807499Y-97821157D01*
X192797784Y-97773248D01*
X192788693Y-97760341D01*
X192744015Y-97740247D01*
X192738134Y-97740068D01*
X192691216Y-97756718D01*
X192687576Y-97760341D01*
X192669666Y-97806591D01*
X192669014Y-97821157D01*
X192526984Y-97821157D01*
X192528326Y-97789974D01*
X192531749Y-97762050D01*
X192544871Y-97714603D01*
X192552754Y-97698303D01*
X192583101Y-97657148D01*
X192621423Y-97626773D01*
X192624317Y-97625030D01*
X192672682Y-97605045D01*
X192721717Y-97597621D01*
X192738134Y-97597186D01*
X192787485Y-97601943D01*
G37*
D13*
G36*
X158991725Y-101023658D02*
G01*
X159063064Y-101043734D01*
X159076231Y-101049430D01*
X159139612Y-101086616D01*
X159191269Y-101134427D01*
X159234301Y-101196302D01*
X159258314Y-101250198D01*
X159276977Y-101323498D01*
X159281395Y-101380990D01*
X159274092Y-101454715D01*
X159258314Y-101511416D01*
X159225921Y-101580775D01*
X159191269Y-101629751D01*
X159135994Y-101678482D01*
X159076231Y-101712550D01*
X159001767Y-101736455D01*
X158928047Y-101744299D01*
X158916862Y-101744423D01*
X158129912Y-101744423D01*
X158052715Y-101738323D01*
X157981521Y-101718246D01*
X157968712Y-101712550D01*
X157903991Y-101673307D01*
X157857703Y-101629751D01*
X157815170Y-101569714D01*
X157788460Y-101511416D01*
X157770094Y-101438412D01*
X157765774Y-101381356D01*
X157980069Y-101381356D01*
X157995847Y-101453432D01*
X158016705Y-101485770D01*
X158082304Y-101524862D01*
X158130645Y-101530100D01*
X158916130Y-101530100D01*
X158990524Y-101516074D01*
X159030435Y-101485770D01*
X159063494Y-101417370D01*
X159067072Y-101381356D01*
X159051294Y-101308635D01*
X159030435Y-101276210D01*
X158964679Y-101237118D01*
X158916130Y-101231880D01*
X158130645Y-101231880D01*
X158056546Y-101245906D01*
X158016705Y-101276210D01*
X157983647Y-101344956D01*
X157980069Y-101381356D01*
X157765774Y-101381356D01*
X157765746Y-101380990D01*
X157772933Y-101307149D01*
X157788460Y-101250198D01*
X157821729Y-101181831D01*
X157857703Y-101134427D01*
X157910929Y-101083981D01*
X157968712Y-101049430D01*
X158042534Y-101025525D01*
X158118248Y-101017681D01*
X158129912Y-101017557D01*
X158916862Y-101017557D01*
X158991725Y-101023658D01*
G37*
G36*
X159278098Y-102236817D02*
G01*
X159273610Y-102310898D01*
X159257490Y-102385431D01*
X159254650Y-102393987D01*
X159219890Y-102462771D01*
X159172218Y-102517452D01*
X159112412Y-102561749D01*
X159043590Y-102590911D01*
X159033733Y-102593656D01*
X158960185Y-102607414D01*
X158883500Y-102613577D01*
X158819409Y-102614905D01*
X158742155Y-102612970D01*
X158665937Y-102605929D01*
X158647951Y-102603181D01*
X158576369Y-102583177D01*
X158517159Y-102552989D01*
X158458395Y-102508130D01*
X158409440Y-102447304D01*
X158401388Y-102433555D01*
X158374821Y-102365030D01*
X158362319Y-102287930D01*
X158360355Y-102236817D01*
X158360355Y-102229490D01*
X158574678Y-102229490D01*
X158582409Y-102302459D01*
X158592630Y-102330606D01*
X158643188Y-102383729D01*
X158715170Y-102400565D01*
X158717927Y-102400582D01*
X158793579Y-102400582D01*
X158816845Y-102400582D01*
X158890141Y-102400582D01*
X158913199Y-102400582D01*
X158986512Y-102386741D01*
X158993066Y-102383729D01*
X159045456Y-102333171D01*
X159063130Y-102259646D01*
X159063774Y-102237183D01*
X159063774Y-102125809D01*
X158574678Y-102125809D01*
X158574678Y-102229490D01*
X158360355Y-102229490D01*
X158360355Y-102125809D01*
X157777470Y-102125809D01*
X157777470Y-101911486D01*
X159278098Y-101911486D01*
X159278098Y-102236817D01*
G37*
G36*
X157777470Y-102926681D02*
G01*
X159063774Y-102926681D01*
X159063774Y-102672058D01*
X159278098Y-102672058D01*
X159278098Y-103375477D01*
X159063774Y-103375477D01*
X159063774Y-103141004D01*
X157777470Y-103141004D01*
X157777470Y-102926681D01*
G37*
G36*
X157777470Y-103485386D02*
G01*
X159278098Y-103485386D01*
X159278098Y-103699710D01*
X157777470Y-103699710D01*
X157777470Y-103485386D01*
G37*
G36*
X158991725Y-103895953D02*
G01*
X159063064Y-103916030D01*
X159076231Y-103921726D01*
X159139612Y-103958912D01*
X159191269Y-104006723D01*
X159234301Y-104068598D01*
X159258314Y-104122494D01*
X159276977Y-104195794D01*
X159281395Y-104253286D01*
X159274092Y-104327011D01*
X159258314Y-104383712D01*
X159225921Y-104453070D01*
X159191269Y-104502047D01*
X159135994Y-104550778D01*
X159076231Y-104584846D01*
X159001767Y-104608751D01*
X158928047Y-104616595D01*
X158916862Y-104616719D01*
X158129912Y-104616719D01*
X158052715Y-104610619D01*
X157981521Y-104590542D01*
X157968712Y-104584846D01*
X157903991Y-104545603D01*
X157857703Y-104502047D01*
X157815170Y-104442010D01*
X157788460Y-104383712D01*
X157770094Y-104310708D01*
X157765774Y-104253652D01*
X157980069Y-104253652D01*
X157995847Y-104325728D01*
X158016705Y-104358066D01*
X158082304Y-104397158D01*
X158130645Y-104402396D01*
X158916130Y-104402396D01*
X158990524Y-104388370D01*
X159030435Y-104358066D01*
X159063494Y-104289666D01*
X159067072Y-104253652D01*
X159051294Y-104180931D01*
X159030435Y-104148506D01*
X158964679Y-104109414D01*
X158916130Y-104104176D01*
X158130645Y-104104176D01*
X158056546Y-104118202D01*
X158016705Y-104148506D01*
X157983647Y-104217252D01*
X157980069Y-104253652D01*
X157765774Y-104253652D01*
X157765746Y-104253286D01*
X157772933Y-104179445D01*
X157788460Y-104122494D01*
X157821729Y-104054127D01*
X157857703Y-104006723D01*
X157910929Y-103956277D01*
X157968712Y-103921726D01*
X158042534Y-103897821D01*
X158118248Y-103889977D01*
X158129912Y-103889853D01*
X158916862Y-103889853D01*
X158991725Y-103895953D01*
G37*
G36*
X157777470Y-104783781D02*
G01*
X159278098Y-104783781D01*
X159278098Y-104987846D01*
X158373911Y-105319772D01*
X159278098Y-105319772D01*
X159278098Y-105534095D01*
X157777470Y-105534095D01*
X157777470Y-105334427D01*
X158679458Y-104998105D01*
X157777470Y-104998105D01*
X157777470Y-104783781D01*
G37*
G36*
X159278098Y-105960177D02*
G01*
X159278098Y-106138597D01*
X157777470Y-106472354D01*
X157777470Y-106258398D01*
X158105732Y-106195383D01*
X158105732Y-106155449D01*
X158320055Y-106155449D01*
X158853848Y-106050303D01*
X158853848Y-106046273D01*
X158320055Y-105941126D01*
X158320055Y-106155449D01*
X158105732Y-106155449D01*
X158105732Y-105903391D01*
X157777470Y-105840376D01*
X157777470Y-105626053D01*
X159278098Y-105960177D01*
G37*
G36*
X157777470Y-106570174D02*
G01*
X159278098Y-106570174D01*
X159278098Y-106784497D01*
X157991793Y-106784497D01*
X157991793Y-107203251D01*
X157777470Y-107203251D01*
X157777470Y-106570174D01*
G37*
G36*
X169798828Y-82797249D02*
G01*
X169876074Y-82818114D01*
X169941435Y-82852890D01*
X170006426Y-82915922D01*
X170045048Y-82981996D01*
X170071787Y-83061981D01*
X170086642Y-83155876D01*
X170089984Y-83235426D01*
X170085977Y-83315103D01*
X170072313Y-83393739D01*
X170048952Y-83462938D01*
X170009470Y-83528180D01*
X169952575Y-83583220D01*
X169904971Y-83614247D01*
X170136146Y-84290922D01*
X169909367Y-84290922D01*
X169707500Y-83657844D01*
X169577441Y-83657844D01*
X169577441Y-84290922D01*
X169363118Y-84290922D01*
X169363118Y-83470266D01*
X169577441Y-83470266D01*
X169700906Y-83470266D01*
X169773995Y-83461404D01*
X169792497Y-83454512D01*
X169845986Y-83409449D01*
X169869067Y-83337275D01*
X169875346Y-83261453D01*
X169875661Y-83237258D01*
X169872255Y-83163157D01*
X169869067Y-83137973D01*
X169846119Y-83067541D01*
X169843788Y-83063601D01*
X169785169Y-83019363D01*
X169711105Y-83005135D01*
X169690647Y-83004617D01*
X169577441Y-83004617D01*
X169577441Y-83470266D01*
X169363118Y-83470266D01*
X169363118Y-82790293D01*
X169709698Y-82790293D01*
X169798828Y-82797249D01*
G37*
G36*
X170257047Y-83151529D02*
G01*
X170263147Y-83076666D01*
X170283224Y-83005327D01*
X170288920Y-82992160D01*
X170326106Y-82928779D01*
X170373917Y-82877122D01*
X170435792Y-82834090D01*
X170489688Y-82810077D01*
X170562988Y-82791414D01*
X170620480Y-82786996D01*
X170694205Y-82794299D01*
X170750906Y-82810077D01*
X170820264Y-82842651D01*
X170869241Y-82877122D01*
X170917972Y-82932683D01*
X170952040Y-82992527D01*
X170975945Y-83067082D01*
X170983789Y-83141033D01*
X170983913Y-83152261D01*
X170983913Y-83227366D01*
X170769590Y-83227366D01*
X170769590Y-83152261D01*
X170755564Y-83077867D01*
X170725260Y-83037956D01*
X170656860Y-83004897D01*
X170620846Y-83001319D01*
X170548125Y-83017097D01*
X170515700Y-83037956D01*
X170476608Y-83103712D01*
X170471370Y-83152261D01*
X170471370Y-83937746D01*
X170485396Y-84011845D01*
X170515700Y-84051686D01*
X170584446Y-84084744D01*
X170620846Y-84088322D01*
X170692922Y-84072544D01*
X170725260Y-84051686D01*
X170764352Y-83986087D01*
X170769590Y-83937746D01*
X170769590Y-83657844D01*
X170594834Y-83657844D01*
X170594834Y-83470266D01*
X170983913Y-83470266D01*
X170983913Y-83938845D01*
X170977812Y-84016042D01*
X170957736Y-84087237D01*
X170952040Y-84100046D01*
X170912797Y-84164481D01*
X170869241Y-84210688D01*
X170809204Y-84253221D01*
X170750906Y-84279931D01*
X170677902Y-84298297D01*
X170620480Y-84302645D01*
X170546639Y-84295458D01*
X170489688Y-84279931D01*
X170421321Y-84246662D01*
X170373917Y-84210688D01*
X170323471Y-84157462D01*
X170288920Y-84099679D01*
X170265015Y-84025857D01*
X170257171Y-83950143D01*
X170257047Y-83938479D01*
X170257047Y-83151529D01*
G37*
G36*
X171542596Y-82794724D02*
G01*
X171617970Y-82811093D01*
X171646666Y-82821801D01*
X171713619Y-82858162D01*
X171767200Y-82904965D01*
X171811198Y-82968773D01*
X171833878Y-83025133D01*
X171849887Y-83098594D01*
X171854395Y-83165817D01*
X171854395Y-83220405D01*
X171849546Y-83294693D01*
X171844137Y-83322621D01*
X171816895Y-83391915D01*
X171814461Y-83395894D01*
X171762604Y-83453133D01*
X171697957Y-83495911D01*
X171764101Y-83537320D01*
X171811409Y-83593541D01*
X171816293Y-83602157D01*
X171842339Y-83673203D01*
X171853055Y-83749727D01*
X171854395Y-83793399D01*
X171854395Y-83878762D01*
X171849749Y-83961646D01*
X171835812Y-84035590D01*
X171808506Y-84109149D01*
X171769065Y-84171030D01*
X171757308Y-84184676D01*
X171693539Y-84236035D01*
X171621480Y-84267577D01*
X171546557Y-84284281D01*
X171473519Y-84290506D01*
X171447364Y-84290922D01*
X171150975Y-84290922D01*
X171150975Y-84076598D01*
X171365298Y-84076598D01*
X171456890Y-84076598D01*
X171529694Y-84068236D01*
X171558006Y-84057181D01*
X171612120Y-84005807D01*
X171613327Y-84003692D01*
X171634794Y-83930741D01*
X171635675Y-83921993D01*
X171639797Y-83846361D01*
X171640072Y-83819044D01*
X171636854Y-83743594D01*
X171633844Y-83718294D01*
X171610086Y-83646934D01*
X171608931Y-83645021D01*
X171552511Y-83601424D01*
X171480121Y-83587992D01*
X171459088Y-83587502D01*
X171365298Y-83587502D01*
X171365298Y-84076598D01*
X171150975Y-84076598D01*
X171150975Y-83399924D01*
X171365298Y-83399924D01*
X171460920Y-83399924D01*
X171535933Y-83391459D01*
X171601466Y-83351788D01*
X171603802Y-83348633D01*
X171632102Y-83280408D01*
X171640036Y-83204193D01*
X171640072Y-83198057D01*
X171632288Y-83122934D01*
X171599405Y-83053343D01*
X171533202Y-83013943D01*
X171459436Y-83004664D01*
X171452860Y-83004617D01*
X171365298Y-83004617D01*
X171365298Y-83399924D01*
X171150975Y-83399924D01*
X171150975Y-82790293D01*
X171468613Y-82790293D01*
X171542596Y-82794724D01*
G37*
G36*
X172728174Y-83229198D02*
G01*
X172513850Y-83229198D01*
X172513850Y-83181204D01*
X172503418Y-83105148D01*
X172480878Y-83054808D01*
X172422059Y-83008841D01*
X172369869Y-83001319D01*
X172302092Y-83018172D01*
X172260326Y-83059938D01*
X172238345Y-83121853D01*
X172232483Y-83193661D01*
X172235414Y-83267300D01*
X172250801Y-83319690D01*
X172286705Y-83359624D01*
X172350452Y-83392596D01*
X172509820Y-83457443D01*
X172575946Y-83489222D01*
X172621928Y-83521557D01*
X172672209Y-83577300D01*
X172689339Y-83606187D01*
X172712518Y-83677736D01*
X172719747Y-83720126D01*
X172726561Y-83797522D01*
X172728174Y-83865573D01*
X172725090Y-83939600D01*
X172714872Y-84014452D01*
X172709489Y-84039962D01*
X172686901Y-84110292D01*
X172649039Y-84177349D01*
X172594676Y-84232496D01*
X172534001Y-84269306D01*
X172460788Y-84293236D01*
X172386138Y-84302124D01*
X172361077Y-84302645D01*
X172286613Y-84295867D01*
X172217095Y-84275534D01*
X172151523Y-84240549D01*
X172102423Y-84200063D01*
X172054690Y-84140789D01*
X172026220Y-84087956D01*
X172004208Y-84016630D01*
X171998010Y-83948371D01*
X171998010Y-83868870D01*
X172212333Y-83868870D01*
X172212333Y-83935548D01*
X172227006Y-84007593D01*
X172246405Y-84041427D01*
X172311162Y-84082781D01*
X172361077Y-84088322D01*
X172434744Y-84077107D01*
X172444608Y-84072568D01*
X172491136Y-84027872D01*
X172510553Y-83957530D01*
X172513770Y-83882124D01*
X172513850Y-83866672D01*
X172511769Y-83793385D01*
X172509820Y-83770684D01*
X172493700Y-83709868D01*
X172455965Y-83672132D01*
X172393683Y-83640625D01*
X172244573Y-83577977D01*
X172175926Y-83543194D01*
X172116034Y-83497885D01*
X172070070Y-83439946D01*
X172063955Y-83428500D01*
X172037882Y-83358939D01*
X172023571Y-83286010D01*
X172018339Y-83212481D01*
X172018160Y-83195126D01*
X172023070Y-83118587D01*
X172037802Y-83045589D01*
X172040508Y-83036124D01*
X172068901Y-82965874D01*
X172108652Y-82906065D01*
X172161202Y-82854658D01*
X172218561Y-82819603D01*
X172292017Y-82795148D01*
X172366810Y-82787124D01*
X172378296Y-82786996D01*
X172453034Y-82794323D01*
X172521178Y-82816305D01*
X172585114Y-82852823D01*
X172633285Y-82893975D01*
X172679154Y-82952788D01*
X172712513Y-83023642D01*
X172727340Y-83100292D01*
X172728174Y-83124418D01*
X172728174Y-83229198D01*
G37*
G36*
X172813170Y-84314369D02*
G01*
X173090141Y-82790293D01*
X173258303Y-82790293D01*
X172980965Y-84314369D01*
X172813170Y-84314369D01*
G37*
G36*
X173362350Y-84290922D02*
G01*
X173362350Y-82790293D01*
X173576673Y-82790293D01*
X173576673Y-83446818D01*
X173831296Y-83446818D01*
X173831296Y-82790293D01*
X174045619Y-82790293D01*
X174045619Y-84290922D01*
X173831296Y-84290922D01*
X173831296Y-83634397D01*
X173576673Y-83634397D01*
X173576673Y-84290922D01*
X173362350Y-84290922D01*
G37*
G36*
X174989740Y-82790293D02*
G01*
X174683460Y-84290922D01*
X174494416Y-84290922D01*
X174189967Y-82790293D01*
X174416747Y-82790293D01*
X174586740Y-83837729D01*
X174590770Y-83837729D01*
X174762961Y-82790293D01*
X174989740Y-82790293D01*
G37*
G36*
X175937610Y-82794299D02*
G01*
X175994311Y-82810077D01*
X176063670Y-82842470D01*
X176112647Y-82877122D01*
X176161377Y-82932397D01*
X176195445Y-82992160D01*
X176219350Y-83066624D01*
X176227194Y-83140344D01*
X176227319Y-83151529D01*
X176227319Y-83938479D01*
X176221218Y-84015676D01*
X176201141Y-84086870D01*
X176195445Y-84099679D01*
X176156203Y-84164400D01*
X176112647Y-84210688D01*
X176052609Y-84253221D01*
X175994311Y-84279931D01*
X175921307Y-84298297D01*
X175863885Y-84302645D01*
X175790044Y-84295458D01*
X175733093Y-84279931D01*
X175664726Y-84246662D01*
X175617322Y-84210688D01*
X175566876Y-84157462D01*
X175532326Y-84099679D01*
X175508420Y-84025857D01*
X175500577Y-83950143D01*
X175500452Y-83938479D01*
X175500452Y-83152261D01*
X175714775Y-83152261D01*
X175714775Y-83937746D01*
X175728801Y-84011845D01*
X175759105Y-84051686D01*
X175827851Y-84084744D01*
X175864252Y-84088322D01*
X175936327Y-84072544D01*
X175968666Y-84051686D01*
X176007757Y-83986087D01*
X176012996Y-83937746D01*
X176012996Y-83152261D01*
X175998969Y-83077867D01*
X175968666Y-83037956D01*
X175900266Y-83004897D01*
X175864252Y-83001319D01*
X175791530Y-83017097D01*
X175759105Y-83037956D01*
X175720013Y-83103712D01*
X175714775Y-83152261D01*
X175500452Y-83152261D01*
X175500452Y-83151529D01*
X175506553Y-83076666D01*
X175526630Y-83005327D01*
X175532326Y-82992160D01*
X175569512Y-82928779D01*
X175617322Y-82877122D01*
X175679198Y-82834090D01*
X175733093Y-82810077D01*
X175806393Y-82791414D01*
X175863885Y-82786996D01*
X175937610Y-82794299D01*
G37*
G36*
X177077650Y-82790293D02*
G01*
X177077650Y-83953134D01*
X177070309Y-84028170D01*
X177051638Y-84089055D01*
X177015652Y-84154421D01*
X176978365Y-84199330D01*
X176920148Y-84247424D01*
X176868456Y-84275534D01*
X176796135Y-84297456D01*
X176736199Y-84302645D01*
X176659666Y-84294067D01*
X176604308Y-84275534D01*
X176540062Y-84237899D01*
X176495864Y-84199330D01*
X176448774Y-84140636D01*
X176421125Y-84089055D01*
X176399500Y-84015394D01*
X176394381Y-83953134D01*
X176394381Y-82790293D01*
X176608704Y-82790293D01*
X176608704Y-83932617D01*
X176618940Y-84005689D01*
X176644974Y-84050587D01*
X176709683Y-84085964D01*
X176735832Y-84088322D01*
X176807754Y-84067096D01*
X176827057Y-84050587D01*
X176859041Y-83982591D01*
X176863327Y-83932617D01*
X176863327Y-82790293D01*
X177077650Y-82790293D01*
G37*
G36*
X177449144Y-84290922D02*
G01*
X177449144Y-83004617D01*
X177194520Y-83004617D01*
X177194520Y-82790293D01*
X177897940Y-82790293D01*
X177897940Y-83004617D01*
X177663467Y-83004617D01*
X177663467Y-84290922D01*
X177449144Y-84290922D01*
G37*
D12*
G36*
X96109790Y-80078500D02*
G01*
X96109790Y-79336002D01*
X96383342Y-79336002D01*
X96383342Y-80078500D01*
X97125840Y-80078500D01*
X97125840Y-80352052D01*
X96383342Y-80352052D01*
X96383342Y-81094551D01*
X96109790Y-81094551D01*
X96109790Y-80352052D01*
X95367292Y-80352052D01*
X95367292Y-80078500D01*
X96109790Y-80078500D01*
G37*
D10*
G36*
X194555227Y-86980000D02*
G01*
X194269951Y-86980000D01*
X194185932Y-86542316D01*
X193796609Y-86542316D01*
X193712589Y-86980000D01*
X193426825Y-86980000D01*
X193587905Y-86256552D01*
X193846923Y-86256552D01*
X194132687Y-86256552D01*
X193992491Y-85544829D01*
X193987118Y-85544829D01*
X193846923Y-86256552D01*
X193587905Y-86256552D01*
X193872324Y-84979162D01*
X194110216Y-84979162D01*
X194555227Y-86980000D01*
G37*
G36*
X195596678Y-84979162D02*
G01*
X195596678Y-86529616D01*
X195586890Y-86629664D01*
X195561996Y-86710844D01*
X195514014Y-86797999D01*
X195464299Y-86857878D01*
X195386675Y-86922003D01*
X195317753Y-86959483D01*
X195221325Y-86988712D01*
X195141410Y-86995631D01*
X195039366Y-86984194D01*
X194965555Y-86959483D01*
X194879894Y-86909303D01*
X194820963Y-86857878D01*
X194758177Y-86779619D01*
X194721312Y-86710844D01*
X194692478Y-86612630D01*
X194685652Y-86529616D01*
X194685652Y-84979162D01*
X194971417Y-84979162D01*
X194971417Y-86502260D01*
X194985065Y-86599690D01*
X195019777Y-86659553D01*
X195106055Y-86706722D01*
X195140921Y-86709867D01*
X195236817Y-86681565D01*
X195262554Y-86659553D01*
X195305200Y-86568892D01*
X195310914Y-86502260D01*
X195310914Y-84979162D01*
X195596678Y-84979162D01*
G37*
G36*
X196395139Y-84985614D02*
G01*
X196496218Y-85008786D01*
X196592487Y-85055000D01*
X196662554Y-85113984D01*
X196723476Y-85198709D01*
X196764461Y-85301208D01*
X196784153Y-85407240D01*
X196788583Y-85495980D01*
X196788583Y-86431919D01*
X196783878Y-86532228D01*
X196766494Y-86636102D01*
X196730941Y-86737471D01*
X196678658Y-86820338D01*
X196654738Y-86846643D01*
X196570138Y-86911107D01*
X196479303Y-86950698D01*
X196373752Y-86973618D01*
X196269323Y-86980000D01*
X195877558Y-86980000D01*
X195877558Y-86694235D01*
X196163322Y-86694235D01*
X196289839Y-86694235D01*
X196389124Y-86679459D01*
X196454459Y-86635129D01*
X196494838Y-86541174D01*
X196502819Y-86449504D01*
X196502819Y-85506727D01*
X196491340Y-85404511D01*
X196456902Y-85328429D01*
X196370119Y-85273856D01*
X196289839Y-85264926D01*
X196163322Y-85264926D01*
X196163322Y-86694235D01*
X195877558Y-86694235D01*
X195877558Y-84979162D01*
X196294724Y-84979162D01*
X196395139Y-84985614D01*
G37*
G36*
X197100726Y-86980000D02*
G01*
X197100726Y-84979162D01*
X197386490Y-84979162D01*
X197386490Y-86980000D01*
X197100726Y-86980000D01*
G37*
G36*
X198222892Y-84984503D02*
G01*
X198298493Y-85005540D01*
X198390971Y-85048731D01*
X198456274Y-85094933D01*
X198521248Y-85168633D01*
X198566671Y-85248318D01*
X198598545Y-85347602D01*
X198609004Y-85445897D01*
X198609170Y-85460809D01*
X198609170Y-86510076D01*
X198601035Y-86613006D01*
X198574266Y-86707931D01*
X198566671Y-86725010D01*
X198514348Y-86811304D01*
X198456274Y-86873021D01*
X198376223Y-86929732D01*
X198298493Y-86965345D01*
X198201154Y-86989834D01*
X198124592Y-86995631D01*
X198026137Y-86986048D01*
X197950202Y-86965345D01*
X197859046Y-86920986D01*
X197795841Y-86873021D01*
X197728580Y-86802054D01*
X197682512Y-86725010D01*
X197650639Y-86626580D01*
X197640180Y-86525628D01*
X197640014Y-86510076D01*
X197640014Y-85461786D01*
X197925778Y-85461786D01*
X197925778Y-86509099D01*
X197944480Y-86607897D01*
X197984885Y-86661018D01*
X198076547Y-86705097D01*
X198125080Y-86709867D01*
X198221181Y-86688830D01*
X198264299Y-86661018D01*
X198316421Y-86573553D01*
X198323405Y-86509099D01*
X198323405Y-85461786D01*
X198304704Y-85362593D01*
X198264299Y-85309378D01*
X198173099Y-85265300D01*
X198125080Y-85260530D01*
X198028118Y-85281567D01*
X197984885Y-85309378D01*
X197932762Y-85397054D01*
X197925778Y-85461786D01*
X197640014Y-85461786D01*
X197640014Y-85460809D01*
X197648148Y-85360992D01*
X197674917Y-85265873D01*
X197682512Y-85248318D01*
X197732094Y-85163810D01*
X197795841Y-85094933D01*
X197878342Y-85037557D01*
X197950202Y-85005540D01*
X198047936Y-84980656D01*
X198124592Y-84974766D01*
X198222892Y-84984503D01*
G37*
G36*
X199934546Y-84984503D02*
G01*
X200010147Y-85005540D01*
X200102625Y-85048731D01*
X200167927Y-85094933D01*
X200232902Y-85168633D01*
X200278325Y-85248318D01*
X200310199Y-85347602D01*
X200320657Y-85445897D01*
X200320823Y-85460809D01*
X200320823Y-86510076D01*
X200312689Y-86613006D01*
X200285920Y-86707931D01*
X200278325Y-86725010D01*
X200226002Y-86811304D01*
X200167927Y-86873021D01*
X200087877Y-86929732D01*
X200010147Y-86965345D01*
X199912808Y-86989834D01*
X199836246Y-86995631D01*
X199737791Y-86986048D01*
X199661856Y-86965345D01*
X199570700Y-86920986D01*
X199507495Y-86873021D01*
X199440234Y-86802054D01*
X199394166Y-86725010D01*
X199362292Y-86626580D01*
X199351834Y-86525628D01*
X199351668Y-86510076D01*
X199351668Y-85461786D01*
X199637432Y-85461786D01*
X199637432Y-86509099D01*
X199656134Y-86607897D01*
X199696539Y-86661018D01*
X199788200Y-86705097D01*
X199836734Y-86709867D01*
X199932835Y-86688830D01*
X199975953Y-86661018D01*
X200028075Y-86573553D01*
X200035059Y-86509099D01*
X200035059Y-85461786D01*
X200016358Y-85362593D01*
X199975953Y-85309378D01*
X199884753Y-85265300D01*
X199836734Y-85260530D01*
X199739772Y-85281567D01*
X199696539Y-85309378D01*
X199644416Y-85397054D01*
X199637432Y-85461786D01*
X199351668Y-85461786D01*
X199351668Y-85460809D01*
X199359802Y-85360992D01*
X199386571Y-85265873D01*
X199394166Y-85248318D01*
X199443747Y-85163810D01*
X199507495Y-85094933D01*
X199589995Y-85037557D01*
X199661856Y-85005540D01*
X199759590Y-84980656D01*
X199836246Y-84974766D01*
X199934546Y-84984503D01*
G37*
G36*
X201454599Y-84979162D02*
G01*
X201454599Y-86529616D01*
X201444810Y-86629664D01*
X201419916Y-86710844D01*
X201371934Y-86797999D01*
X201322219Y-86857878D01*
X201244596Y-86922003D01*
X201175673Y-86959483D01*
X201079245Y-86988712D01*
X200999330Y-86995631D01*
X200897286Y-86984194D01*
X200823475Y-86959483D01*
X200737815Y-86909303D01*
X200678883Y-86857878D01*
X200616098Y-86779619D01*
X200579232Y-86710844D01*
X200550398Y-86612630D01*
X200543573Y-86529616D01*
X200543573Y-84979162D01*
X200829337Y-84979162D01*
X200829337Y-86502260D01*
X200842986Y-86599690D01*
X200877697Y-86659553D01*
X200963976Y-86706722D01*
X200998842Y-86709867D01*
X201094737Y-86681565D01*
X201120475Y-86659553D01*
X201163120Y-86568892D01*
X201168835Y-86502260D01*
X201168835Y-84979162D01*
X201454599Y-84979162D01*
G37*
G36*
X201949923Y-86980000D02*
G01*
X201949923Y-85264926D01*
X201610426Y-85264926D01*
X201610426Y-84979162D01*
X202548318Y-84979162D01*
X202548318Y-85264926D01*
X202235687Y-85264926D01*
X202235687Y-86980000D01*
X201949923Y-86980000D01*
G37*
D13*
G36*
X100213419Y-85574755D02*
G01*
X100230397Y-85590858D01*
X100271792Y-85680529D01*
X100273872Y-85711514D01*
X100247337Y-85805979D01*
X100230397Y-85828262D01*
X100144420Y-85874922D01*
X100120000Y-85876622D01*
X100026258Y-85844697D01*
X100009113Y-85828262D01*
X99967638Y-85736306D01*
X99966127Y-85711514D01*
X99990307Y-85615984D01*
X100009113Y-85590858D01*
X100095562Y-85545141D01*
X100120000Y-85543475D01*
X100213419Y-85574755D01*
G37*
G36*
X100212564Y-84355056D02*
G01*
X100248456Y-84451978D01*
X100248960Y-84469783D01*
X100244284Y-84574721D01*
X100236440Y-84673837D01*
X100226703Y-84778811D01*
X100216463Y-84880406D01*
X100209392Y-84947522D01*
X100198157Y-85049127D01*
X100164940Y-85360293D01*
X100075059Y-85360293D01*
X100041842Y-85049127D01*
X100030607Y-84947522D01*
X100019208Y-84838228D01*
X100008080Y-84724014D01*
X99998613Y-84614119D01*
X99992005Y-84509783D01*
X99991039Y-84469783D01*
X100015723Y-84369272D01*
X100104383Y-84323323D01*
X100120000Y-84322749D01*
X100212564Y-84355056D01*
G37*
G36*
X100217032Y-83901021D02*
G01*
X100306261Y-83944491D01*
X100317348Y-83952477D01*
X100393309Y-84024952D01*
X100456186Y-84110590D01*
X100486852Y-84161549D01*
X101312882Y-85590858D01*
X101358928Y-85686114D01*
X101392416Y-85782075D01*
X101408043Y-85883500D01*
X101408136Y-85891277D01*
X101395207Y-85991623D01*
X101351609Y-86083317D01*
X101298715Y-86139916D01*
X101211876Y-86191923D01*
X101112195Y-86220469D01*
X101005595Y-86230906D01*
X100979734Y-86231263D01*
X99268569Y-86231263D01*
X99170689Y-86225737D01*
X99074149Y-86206309D01*
X98983741Y-86168318D01*
X98945191Y-86142847D01*
X98874643Y-86065681D01*
X98836656Y-85966809D01*
X98829420Y-85888834D01*
X98832338Y-85866852D01*
X98969127Y-85866852D01*
X98990496Y-85962789D01*
X99044842Y-86023168D01*
X99141441Y-86062002D01*
X99241298Y-86074138D01*
X99279804Y-86074947D01*
X100988039Y-86074947D01*
X101088924Y-86066160D01*
X101183874Y-86031218D01*
X101198087Y-86021702D01*
X101258860Y-85943256D01*
X101270872Y-85872714D01*
X101250600Y-85777093D01*
X101208788Y-85686945D01*
X101189783Y-85653384D01*
X100363754Y-84216748D01*
X100307761Y-84131062D01*
X100244563Y-84057990D01*
X100155079Y-84014484D01*
X100120000Y-84011584D01*
X100022638Y-84037687D01*
X99995436Y-84057990D01*
X99928437Y-84136345D01*
X99876245Y-84216748D01*
X99050216Y-85653384D01*
X99004049Y-85740759D01*
X98971978Y-85836278D01*
X98969127Y-85866852D01*
X98832338Y-85866852D01*
X98842747Y-85788450D01*
X98878377Y-85686777D01*
X98924187Y-85596720D01*
X99750216Y-84164480D01*
X99805382Y-84077798D01*
X99868064Y-84001537D01*
X99916789Y-83956873D01*
X100004831Y-83906384D01*
X100103177Y-83886806D01*
X100117069Y-83886531D01*
X100217032Y-83901021D01*
G37*
D10*
G36*
X111504168Y-82848827D02*
G01*
X111581414Y-82869692D01*
X111646775Y-82904468D01*
X111711766Y-82967500D01*
X111750388Y-83033574D01*
X111777127Y-83113559D01*
X111791982Y-83207454D01*
X111795324Y-83287004D01*
X111791317Y-83366681D01*
X111777653Y-83445317D01*
X111754292Y-83514516D01*
X111714810Y-83579758D01*
X111657915Y-83634798D01*
X111610311Y-83665825D01*
X111841486Y-84342500D01*
X111614707Y-84342500D01*
X111412840Y-83709422D01*
X111282781Y-83709422D01*
X111282781Y-84342500D01*
X111068458Y-84342500D01*
X111068458Y-83521844D01*
X111282781Y-83521844D01*
X111406246Y-83521844D01*
X111479335Y-83512982D01*
X111497837Y-83506090D01*
X111551326Y-83461027D01*
X111574407Y-83388853D01*
X111580686Y-83313031D01*
X111581001Y-83288836D01*
X111577595Y-83214735D01*
X111574407Y-83189551D01*
X111551459Y-83119119D01*
X111549128Y-83115179D01*
X111490509Y-83070941D01*
X111416445Y-83056713D01*
X111395987Y-83056195D01*
X111282781Y-83056195D01*
X111282781Y-83521844D01*
X111068458Y-83521844D01*
X111068458Y-82841871D01*
X111415038Y-82841871D01*
X111504168Y-82848827D01*
G37*
G36*
X111962387Y-83203107D02*
G01*
X111968487Y-83128244D01*
X111988564Y-83056905D01*
X111994260Y-83043738D01*
X112031446Y-82980357D01*
X112079257Y-82928700D01*
X112141132Y-82885668D01*
X112195028Y-82861655D01*
X112268328Y-82842992D01*
X112325820Y-82838574D01*
X112399545Y-82845877D01*
X112456246Y-82861655D01*
X112525604Y-82894229D01*
X112574581Y-82928700D01*
X112623312Y-82984261D01*
X112657380Y-83044105D01*
X112681285Y-83118660D01*
X112689129Y-83192611D01*
X112689253Y-83203839D01*
X112689253Y-83278944D01*
X112474930Y-83278944D01*
X112474930Y-83203839D01*
X112460904Y-83129445D01*
X112430600Y-83089534D01*
X112362200Y-83056475D01*
X112326186Y-83052897D01*
X112253465Y-83068675D01*
X112221040Y-83089534D01*
X112181948Y-83155290D01*
X112176710Y-83203839D01*
X112176710Y-83989324D01*
X112190736Y-84063423D01*
X112221040Y-84103264D01*
X112289786Y-84136322D01*
X112326186Y-84139900D01*
X112398262Y-84124122D01*
X112430600Y-84103264D01*
X112469692Y-84037665D01*
X112474930Y-83989324D01*
X112474930Y-83709422D01*
X112300174Y-83709422D01*
X112300174Y-83521844D01*
X112689253Y-83521844D01*
X112689253Y-83990423D01*
X112683152Y-84067620D01*
X112663076Y-84138815D01*
X112657380Y-84151624D01*
X112618137Y-84216059D01*
X112574581Y-84262266D01*
X112514544Y-84304799D01*
X112456246Y-84331509D01*
X112383242Y-84349875D01*
X112325820Y-84354223D01*
X112251979Y-84347036D01*
X112195028Y-84331509D01*
X112126661Y-84298240D01*
X112079257Y-84262266D01*
X112028811Y-84209040D01*
X111994260Y-84151257D01*
X111970355Y-84077435D01*
X111962511Y-84001721D01*
X111962387Y-83990057D01*
X111962387Y-83203107D01*
G37*
G36*
X113247936Y-82846302D02*
G01*
X113323310Y-82862671D01*
X113352006Y-82873379D01*
X113418959Y-82909740D01*
X113472540Y-82956543D01*
X113516538Y-83020351D01*
X113539218Y-83076711D01*
X113555227Y-83150172D01*
X113559735Y-83217395D01*
X113559735Y-83271983D01*
X113554886Y-83346271D01*
X113549477Y-83374199D01*
X113522235Y-83443493D01*
X113519801Y-83447472D01*
X113467944Y-83504711D01*
X113403297Y-83547489D01*
X113469441Y-83588898D01*
X113516749Y-83645119D01*
X113521633Y-83653735D01*
X113547679Y-83724781D01*
X113558395Y-83801305D01*
X113559735Y-83844977D01*
X113559735Y-83930340D01*
X113555089Y-84013224D01*
X113541152Y-84087168D01*
X113513846Y-84160727D01*
X113474405Y-84222608D01*
X113462648Y-84236254D01*
X113398879Y-84287613D01*
X113326820Y-84319155D01*
X113251897Y-84335859D01*
X113178859Y-84342084D01*
X113152704Y-84342500D01*
X112856315Y-84342500D01*
X112856315Y-84128176D01*
X113070638Y-84128176D01*
X113162230Y-84128176D01*
X113235034Y-84119814D01*
X113263346Y-84108759D01*
X113317460Y-84057385D01*
X113318667Y-84055270D01*
X113340134Y-83982319D01*
X113341015Y-83973571D01*
X113345137Y-83897939D01*
X113345412Y-83870622D01*
X113342194Y-83795172D01*
X113339184Y-83769872D01*
X113315426Y-83698512D01*
X113314271Y-83696599D01*
X113257851Y-83653002D01*
X113185461Y-83639570D01*
X113164428Y-83639080D01*
X113070638Y-83639080D01*
X113070638Y-84128176D01*
X112856315Y-84128176D01*
X112856315Y-83451502D01*
X113070638Y-83451502D01*
X113166260Y-83451502D01*
X113241273Y-83443037D01*
X113306806Y-83403366D01*
X113309142Y-83400211D01*
X113337442Y-83331986D01*
X113345376Y-83255771D01*
X113345412Y-83249635D01*
X113337628Y-83174512D01*
X113304745Y-83104921D01*
X113238542Y-83065521D01*
X113164776Y-83056242D01*
X113158200Y-83056195D01*
X113070638Y-83056195D01*
X113070638Y-83451502D01*
X112856315Y-83451502D01*
X112856315Y-82841871D01*
X113173953Y-82841871D01*
X113247936Y-82846302D01*
G37*
G36*
X114433514Y-83280776D02*
G01*
X114219190Y-83280776D01*
X114219190Y-83232782D01*
X114208758Y-83156726D01*
X114186218Y-83106386D01*
X114127399Y-83060419D01*
X114075209Y-83052897D01*
X114007432Y-83069750D01*
X113965666Y-83111516D01*
X113943685Y-83173431D01*
X113937823Y-83245239D01*
X113940754Y-83318878D01*
X113956141Y-83371268D01*
X113992045Y-83411202D01*
X114055792Y-83444174D01*
X114215160Y-83509021D01*
X114281286Y-83540800D01*
X114327268Y-83573135D01*
X114377549Y-83628878D01*
X114394679Y-83657765D01*
X114417858Y-83729314D01*
X114425087Y-83771704D01*
X114431901Y-83849100D01*
X114433514Y-83917151D01*
X114430430Y-83991178D01*
X114420212Y-84066030D01*
X114414829Y-84091540D01*
X114392241Y-84161870D01*
X114354379Y-84228927D01*
X114300016Y-84284074D01*
X114239341Y-84320884D01*
X114166128Y-84344814D01*
X114091478Y-84353702D01*
X114066417Y-84354223D01*
X113991953Y-84347445D01*
X113922435Y-84327112D01*
X113856863Y-84292127D01*
X113807763Y-84251641D01*
X113760030Y-84192367D01*
X113731560Y-84139534D01*
X113709548Y-84068208D01*
X113703350Y-83999949D01*
X113703350Y-83920448D01*
X113917673Y-83920448D01*
X113917673Y-83987126D01*
X113932346Y-84059171D01*
X113951745Y-84093005D01*
X114016502Y-84134359D01*
X114066417Y-84139900D01*
X114140084Y-84128685D01*
X114149948Y-84124146D01*
X114196476Y-84079450D01*
X114215893Y-84009108D01*
X114219110Y-83933702D01*
X114219190Y-83918250D01*
X114217109Y-83844963D01*
X114215160Y-83822262D01*
X114199040Y-83761446D01*
X114161305Y-83723710D01*
X114099023Y-83692203D01*
X113949913Y-83629555D01*
X113881266Y-83594772D01*
X113821374Y-83549463D01*
X113775410Y-83491524D01*
X113769295Y-83480078D01*
X113743222Y-83410517D01*
X113728911Y-83337588D01*
X113723679Y-83264059D01*
X113723500Y-83246704D01*
X113728410Y-83170165D01*
X113743142Y-83097167D01*
X113745848Y-83087702D01*
X113774241Y-83017452D01*
X113813992Y-82957643D01*
X113866542Y-82906236D01*
X113923901Y-82871181D01*
X113997357Y-82846726D01*
X114072150Y-82838702D01*
X114083636Y-82838574D01*
X114158374Y-82845901D01*
X114226518Y-82867883D01*
X114290454Y-82904401D01*
X114338625Y-82945553D01*
X114384494Y-83004366D01*
X114417853Y-83075220D01*
X114432680Y-83151870D01*
X114433514Y-83175996D01*
X114433514Y-83280776D01*
G37*
G36*
X114518510Y-84365947D02*
G01*
X114795481Y-82841871D01*
X114963643Y-82841871D01*
X114686305Y-84365947D01*
X114518510Y-84365947D01*
G37*
G36*
X115067690Y-84342500D02*
G01*
X115067690Y-82841871D01*
X115282013Y-82841871D01*
X115282013Y-83498396D01*
X115536636Y-83498396D01*
X115536636Y-82841871D01*
X115750959Y-82841871D01*
X115750959Y-84342500D01*
X115536636Y-84342500D01*
X115536636Y-83685975D01*
X115282013Y-83685975D01*
X115282013Y-84342500D01*
X115067690Y-84342500D01*
G37*
G36*
X116695080Y-82841871D02*
G01*
X116388800Y-84342500D01*
X116199756Y-84342500D01*
X115895307Y-82841871D01*
X116122087Y-82841871D01*
X116292080Y-83889307D01*
X116296110Y-83889307D01*
X116468301Y-82841871D01*
X116695080Y-82841871D01*
G37*
G36*
X117624087Y-82989626D02*
G01*
X117674006Y-83004904D01*
X117739588Y-83041536D01*
X117764131Y-83062423D01*
X117809675Y-83125947D01*
X117834198Y-83199466D01*
X117838869Y-83254031D01*
X117829235Y-83332565D01*
X117803477Y-83401567D01*
X117770359Y-83455898D01*
X117720567Y-83519150D01*
X117670192Y-83573647D01*
X117614951Y-83625281D01*
X117609159Y-83630287D01*
X117651341Y-83693335D01*
X117654222Y-83698065D01*
X117693989Y-83760059D01*
X117706246Y-83778299D01*
X117747685Y-83844656D01*
X117789021Y-83906892D01*
X117816521Y-83946093D01*
X117933391Y-83787091D01*
X118065649Y-83880514D01*
X117906281Y-84088243D01*
X118067847Y-84342500D01*
X117853524Y-84342500D01*
X117778419Y-84231125D01*
X117722440Y-84279090D01*
X117656403Y-84319482D01*
X117647994Y-84323449D01*
X117575270Y-84346530D01*
X117497443Y-84354193D01*
X117491923Y-84354223D01*
X117419159Y-84345440D01*
X117371755Y-84329310D01*
X117306640Y-84289411D01*
X117273203Y-84257503D01*
X117229194Y-84197887D01*
X117206525Y-84149059D01*
X117187658Y-84077113D01*
X117182345Y-84007276D01*
X117182955Y-83999216D01*
X117369923Y-83999216D01*
X117381189Y-84072123D01*
X117414986Y-84134038D01*
X117473101Y-84179363D01*
X117528559Y-84190092D01*
X117601215Y-84171309D01*
X117620516Y-84159317D01*
X117677818Y-84110034D01*
X117687195Y-84098867D01*
X117478367Y-83768040D01*
X117431188Y-83825292D01*
X117401064Y-83873187D01*
X117375063Y-83944659D01*
X117369923Y-83999216D01*
X117182955Y-83999216D01*
X117187998Y-83932536D01*
X117207274Y-83857513D01*
X117240230Y-83790022D01*
X117283698Y-83727813D01*
X117334007Y-83668634D01*
X117385677Y-83617465D01*
X117341970Y-83551726D01*
X117304915Y-83484294D01*
X117290056Y-83452601D01*
X117265861Y-83381732D01*
X117254000Y-83307840D01*
X117252742Y-83274181D01*
X117440265Y-83274181D01*
X117452189Y-83348200D01*
X117463346Y-83379328D01*
X117495581Y-83446279D01*
X117522697Y-83492534D01*
X117564829Y-83448937D01*
X117606961Y-83395081D01*
X117638468Y-83330235D01*
X117651278Y-83257622D01*
X117651291Y-83255130D01*
X117627141Y-83185042D01*
X117623814Y-83180758D01*
X117556860Y-83146986D01*
X117547976Y-83146687D01*
X117479313Y-83174855D01*
X117469574Y-83186254D01*
X117441296Y-83256244D01*
X117440265Y-83274181D01*
X117252742Y-83274181D01*
X117252687Y-83272716D01*
X117260891Y-83197988D01*
X117271738Y-83160608D01*
X117306402Y-83093137D01*
X117327425Y-83066819D01*
X117386631Y-83021859D01*
X117419382Y-83006003D01*
X117492227Y-82986425D01*
X117549808Y-82982555D01*
X117624087Y-82989626D01*
G37*
G36*
X119361846Y-84342500D02*
G01*
X119147889Y-84342500D01*
X119084874Y-84014237D01*
X118792882Y-84014237D01*
X118729867Y-84342500D01*
X118515544Y-84342500D01*
X118636354Y-83799914D01*
X118830618Y-83799914D01*
X119044941Y-83799914D01*
X118939794Y-83266121D01*
X118935764Y-83266121D01*
X118830618Y-83799914D01*
X118636354Y-83799914D01*
X118849669Y-82841871D01*
X119028088Y-82841871D01*
X119361846Y-84342500D01*
G37*
G36*
X120142934Y-82841871D02*
G01*
X120142934Y-84004712D01*
X120135593Y-84079748D01*
X120116923Y-84140633D01*
X120080936Y-84205999D01*
X120043650Y-84250908D01*
X119985432Y-84299002D01*
X119933740Y-84327112D01*
X119861419Y-84349034D01*
X119801483Y-84354223D01*
X119724950Y-84345645D01*
X119669592Y-84327112D01*
X119605346Y-84289477D01*
X119561148Y-84250908D01*
X119514059Y-84192214D01*
X119486410Y-84140633D01*
X119464784Y-84066972D01*
X119459665Y-84004712D01*
X119459665Y-82841871D01*
X119673988Y-82841871D01*
X119673988Y-83984195D01*
X119684224Y-84057267D01*
X119710258Y-84102165D01*
X119774967Y-84137542D01*
X119801117Y-84139900D01*
X119873038Y-84118674D01*
X119892341Y-84102165D01*
X119924325Y-84034169D01*
X119928611Y-83984195D01*
X119928611Y-82841871D01*
X120142934Y-82841871D01*
G37*
G36*
X120741780Y-82846710D02*
G01*
X120817589Y-82864089D01*
X120889791Y-82898750D01*
X120942341Y-82942988D01*
X120988033Y-83006531D01*
X121018771Y-83083406D01*
X121033540Y-83162930D01*
X121036863Y-83229485D01*
X121036863Y-83931439D01*
X121033334Y-84006671D01*
X121020296Y-84084577D01*
X120993631Y-84160603D01*
X120954419Y-84222753D01*
X120936479Y-84242482D01*
X120873029Y-84290830D01*
X120804903Y-84320523D01*
X120725739Y-84337714D01*
X120647418Y-84342500D01*
X120353594Y-84342500D01*
X120353594Y-84128176D01*
X120567917Y-84128176D01*
X120662805Y-84128176D01*
X120737269Y-84117094D01*
X120786270Y-84083846D01*
X120816554Y-84013381D01*
X120822540Y-83944628D01*
X120822540Y-83237545D01*
X120813931Y-83160883D01*
X120788102Y-83103822D01*
X120723015Y-83062892D01*
X120662805Y-83056195D01*
X120567917Y-83056195D01*
X120567917Y-84128176D01*
X120353594Y-84128176D01*
X120353594Y-82841871D01*
X120666469Y-82841871D01*
X120741780Y-82846710D01*
G37*
G36*
X121270970Y-84342500D02*
G01*
X121270970Y-82841871D01*
X121485293Y-82841871D01*
X121485293Y-84342500D01*
X121270970Y-84342500D01*
G37*
G36*
X122112595Y-82845877D02*
G01*
X122169295Y-82861655D01*
X122238654Y-82894048D01*
X122287631Y-82928700D01*
X122336362Y-82983975D01*
X122370429Y-83043738D01*
X122394334Y-83118202D01*
X122402178Y-83191922D01*
X122402303Y-83203107D01*
X122402303Y-83990057D01*
X122396202Y-84067254D01*
X122376125Y-84138448D01*
X122370429Y-84151257D01*
X122331187Y-84215978D01*
X122287631Y-84262266D01*
X122227593Y-84304799D01*
X122169295Y-84331509D01*
X122096291Y-84349875D01*
X122038869Y-84354223D01*
X121965028Y-84347036D01*
X121908077Y-84331509D01*
X121839710Y-84298240D01*
X121792306Y-84262266D01*
X121741860Y-84209040D01*
X121707310Y-84151257D01*
X121683405Y-84077435D01*
X121675561Y-84001721D01*
X121675436Y-83990057D01*
X121675436Y-83203839D01*
X121889759Y-83203839D01*
X121889759Y-83989324D01*
X121903786Y-84063423D01*
X121934089Y-84103264D01*
X122002836Y-84136322D01*
X122039236Y-84139900D01*
X122111311Y-84124122D01*
X122143650Y-84103264D01*
X122182742Y-84037665D01*
X122187980Y-83989324D01*
X122187980Y-83203839D01*
X122173953Y-83129445D01*
X122143650Y-83089534D01*
X122075250Y-83056475D01*
X122039236Y-83052897D01*
X121966514Y-83068675D01*
X121934089Y-83089534D01*
X121894997Y-83155290D01*
X121889759Y-83203839D01*
X121675436Y-83203839D01*
X121675436Y-83203107D01*
X121681537Y-83128244D01*
X121701614Y-83056905D01*
X121707310Y-83043738D01*
X121744496Y-82980357D01*
X121792306Y-82928700D01*
X121854182Y-82885668D01*
X121908077Y-82861655D01*
X121981377Y-82842992D01*
X122038869Y-82838574D01*
X122112595Y-82845877D01*
G37*
G36*
X122982624Y-84342500D02*
G01*
X122982624Y-82841871D01*
X123196947Y-82841871D01*
X123196947Y-84342500D01*
X122982624Y-84342500D01*
G37*
G36*
X123387090Y-84342500D02*
G01*
X123387090Y-82841871D01*
X123591155Y-82841871D01*
X123923081Y-83746058D01*
X123923081Y-82841871D01*
X124137404Y-82841871D01*
X124137404Y-84342500D01*
X123937735Y-84342500D01*
X123601413Y-83440511D01*
X123601413Y-84342500D01*
X123387090Y-84342500D01*
G37*
G36*
X171518443Y-92409781D02*
G01*
X171609643Y-92453859D01*
X171650048Y-92507074D01*
X171668750Y-92606267D01*
X171668750Y-93653580D01*
X171661766Y-93718034D01*
X171609643Y-93805499D01*
X171566525Y-93833311D01*
X171470425Y-93854348D01*
X171421891Y-93849578D01*
X171330230Y-93805499D01*
X171289825Y-93752378D01*
X171271123Y-93653580D01*
X171271123Y-92606267D01*
X171278107Y-92541535D01*
X171330230Y-92453859D01*
X171373463Y-92426048D01*
X171470425Y-92405011D01*
X171518443Y-92409781D01*
G37*
G36*
X173160996Y-92410098D02*
G01*
X173259748Y-92429069D01*
X173337906Y-92488053D01*
X173341014Y-92493307D01*
X173371611Y-92587216D01*
X173375862Y-92620794D01*
X173380404Y-92719596D01*
X173379983Y-92751856D01*
X173371611Y-92852952D01*
X173340837Y-92949184D01*
X173269518Y-93009268D01*
X173244849Y-93018457D01*
X173147396Y-93030273D01*
X172982777Y-93030273D01*
X172982777Y-92409407D01*
X173133719Y-92409407D01*
X173160996Y-92410098D01*
G37*
G36*
X177096764Y-94362334D02*
G01*
X169743179Y-94362334D01*
X169743179Y-92409407D01*
X169965401Y-92409407D01*
X170304898Y-92409407D01*
X170304898Y-94124481D01*
X170590662Y-94124481D01*
X170590662Y-92605290D01*
X170985359Y-92605290D01*
X170985359Y-92606267D01*
X170985359Y-93653580D01*
X170985359Y-93654557D01*
X170985525Y-93670109D01*
X170995983Y-93771061D01*
X171027857Y-93869491D01*
X171073924Y-93946535D01*
X171141186Y-94017502D01*
X171204391Y-94065467D01*
X171295547Y-94109826D01*
X171371482Y-94130529D01*
X171469936Y-94140112D01*
X171546499Y-94134315D01*
X171643837Y-94109826D01*
X171721568Y-94074213D01*
X171801618Y-94017502D01*
X171859693Y-93955785D01*
X171912016Y-93869491D01*
X171919611Y-93852412D01*
X171946380Y-93757487D01*
X171954514Y-93654557D01*
X171954514Y-92605290D01*
X171954348Y-92590378D01*
X171943890Y-92492083D01*
X171917348Y-92409407D01*
X172697013Y-92409407D01*
X172697013Y-93030273D01*
X172697013Y-94124481D01*
X172982777Y-94124481D01*
X172982777Y-93280377D01*
X173156189Y-93280377D01*
X173425345Y-94124481D01*
X173727717Y-94124481D01*
X173419483Y-93222247D01*
X173482955Y-93180879D01*
X173558816Y-93107491D01*
X173611458Y-93020503D01*
X173642606Y-92928238D01*
X173660825Y-92823389D01*
X173666168Y-92717153D01*
X173661712Y-92611086D01*
X173641905Y-92485893D01*
X173616336Y-92409407D01*
X173713063Y-92409407D01*
X174052560Y-92409407D01*
X174052560Y-94124481D01*
X174338324Y-94124481D01*
X174338324Y-93561745D01*
X174672449Y-93561745D01*
X174672449Y-93847509D01*
X175235184Y-93847509D01*
X175235184Y-94124481D01*
X175520948Y-94124481D01*
X175807689Y-94124481D01*
X176093454Y-94124481D01*
X176093454Y-93526086D01*
X176247327Y-93236414D01*
X176572170Y-94124481D01*
X176874542Y-94124481D01*
X176412435Y-92924760D01*
X176801758Y-92123643D01*
X176515994Y-92123643D01*
X176098827Y-93037111D01*
X176093454Y-93037111D01*
X176093454Y-92123643D01*
X175807689Y-92123643D01*
X175807689Y-94124481D01*
X175520948Y-94124481D01*
X175520948Y-93847509D01*
X175672867Y-93847509D01*
X175672867Y-93561745D01*
X175520948Y-93561745D01*
X175520948Y-92999009D01*
X175235184Y-92999009D01*
X175235184Y-93561745D01*
X174955282Y-93561745D01*
X175380753Y-92123643D01*
X175079846Y-92123643D01*
X174672449Y-93561745D01*
X174338324Y-93561745D01*
X174338324Y-92409407D01*
X174650955Y-92409407D01*
X174650955Y-92123643D01*
X173713063Y-92123643D01*
X173713063Y-92409407D01*
X173616336Y-92409407D01*
X173606253Y-92379247D01*
X173554756Y-92291147D01*
X173468102Y-92207105D01*
X173380954Y-92160737D01*
X173277959Y-92132917D01*
X173159120Y-92123643D01*
X172697013Y-92123643D01*
X172697013Y-92409407D01*
X171917348Y-92409407D01*
X171912016Y-92392799D01*
X171866593Y-92313114D01*
X171801618Y-92239414D01*
X171736316Y-92193212D01*
X171643837Y-92150021D01*
X171568237Y-92128984D01*
X171469936Y-92119247D01*
X171393280Y-92125137D01*
X171295547Y-92150021D01*
X171223686Y-92182038D01*
X171141186Y-92239414D01*
X171077438Y-92308291D01*
X171027857Y-92392799D01*
X171020262Y-92410354D01*
X170993493Y-92505473D01*
X170985359Y-92605290D01*
X170590662Y-92605290D01*
X170590662Y-92409407D01*
X170903293Y-92409407D01*
X170903293Y-92123643D01*
X169965401Y-92123643D01*
X169965401Y-92409407D01*
X169743179Y-92409407D01*
X169743179Y-91897025D01*
X177096764Y-91897025D01*
X177096764Y-94362334D01*
G37*
G36*
X114966293Y-90785877D02*
G01*
X115022994Y-90801655D01*
X115092353Y-90834048D01*
X115141329Y-90868700D01*
X115190060Y-90923975D01*
X115224128Y-90983738D01*
X115248033Y-91058202D01*
X115255877Y-91131922D01*
X115256001Y-91143107D01*
X115256001Y-91930057D01*
X115249901Y-92007254D01*
X115229824Y-92078448D01*
X115224128Y-92091257D01*
X115184885Y-92155978D01*
X115141329Y-92202266D01*
X115081292Y-92244799D01*
X115022994Y-92271509D01*
X114949990Y-92289875D01*
X114892568Y-92294223D01*
X114818727Y-92287036D01*
X114761776Y-92271509D01*
X114693409Y-92238240D01*
X114646005Y-92202266D01*
X114595559Y-92149040D01*
X114561008Y-92091257D01*
X114537103Y-92017435D01*
X114529259Y-91941721D01*
X114529135Y-91930057D01*
X114529135Y-91143839D01*
X114743458Y-91143839D01*
X114743458Y-91929324D01*
X114757484Y-92003423D01*
X114787788Y-92043264D01*
X114856534Y-92076322D01*
X114892934Y-92079900D01*
X114965010Y-92064122D01*
X114997348Y-92043264D01*
X115036440Y-91977665D01*
X115041678Y-91929324D01*
X115041678Y-91143839D01*
X115027652Y-91069445D01*
X114997348Y-91029534D01*
X114928948Y-90996475D01*
X114892934Y-90992897D01*
X114820213Y-91008675D01*
X114787788Y-91029534D01*
X114748696Y-91095290D01*
X114743458Y-91143839D01*
X114529135Y-91143839D01*
X114529135Y-91143107D01*
X114535236Y-91068244D01*
X114555312Y-90996905D01*
X114561008Y-90983738D01*
X114598194Y-90920357D01*
X114646005Y-90868700D01*
X114707880Y-90825668D01*
X114761776Y-90801655D01*
X114835076Y-90782992D01*
X114892568Y-90778574D01*
X114966293Y-90785877D01*
G37*
G36*
X115822476Y-90786359D02*
G01*
X115897009Y-90802479D01*
X115905565Y-90805319D01*
X115974349Y-90840079D01*
X116029030Y-90887751D01*
X116073327Y-90947557D01*
X116102489Y-91016379D01*
X116105234Y-91026236D01*
X116118992Y-91099784D01*
X116125155Y-91176469D01*
X116126483Y-91240560D01*
X116124548Y-91317814D01*
X116117507Y-91394032D01*
X116114759Y-91412018D01*
X116094755Y-91483600D01*
X116064567Y-91542810D01*
X116019708Y-91601574D01*
X115958882Y-91650529D01*
X115945133Y-91658581D01*
X115876608Y-91685148D01*
X115799508Y-91697650D01*
X115748395Y-91699614D01*
X115637387Y-91699614D01*
X115637387Y-92282500D01*
X115423064Y-92282500D01*
X115423064Y-91485291D01*
X115637387Y-91485291D01*
X115741068Y-91485291D01*
X115814037Y-91477560D01*
X115842184Y-91467339D01*
X115895307Y-91416781D01*
X115912143Y-91344799D01*
X115912160Y-91342042D01*
X115912160Y-91266390D01*
X115912160Y-91243124D01*
X115912160Y-91169828D01*
X115912160Y-91146770D01*
X115898319Y-91073457D01*
X115895307Y-91066903D01*
X115844749Y-91014513D01*
X115771224Y-90996839D01*
X115748761Y-90996195D01*
X115637387Y-90996195D01*
X115637387Y-91485291D01*
X115423064Y-91485291D01*
X115423064Y-90781871D01*
X115748395Y-90781871D01*
X115822476Y-90786359D01*
G37*
G36*
X116438259Y-92282500D02*
G01*
X116438259Y-90996195D01*
X116183636Y-90996195D01*
X116183636Y-90781871D01*
X116887055Y-90781871D01*
X116887055Y-90996195D01*
X116652582Y-90996195D01*
X116652582Y-92282500D01*
X116438259Y-92282500D01*
G37*
G36*
X116996964Y-92282500D02*
G01*
X116996964Y-90781871D01*
X117211288Y-90781871D01*
X117211288Y-92282500D01*
X116996964Y-92282500D01*
G37*
G36*
X117838589Y-90785877D02*
G01*
X117895290Y-90801655D01*
X117964648Y-90834048D01*
X118013625Y-90868700D01*
X118062356Y-90923975D01*
X118096424Y-90983738D01*
X118120329Y-91058202D01*
X118128173Y-91131922D01*
X118128297Y-91143107D01*
X118128297Y-91930057D01*
X118122197Y-92007254D01*
X118102120Y-92078448D01*
X118096424Y-92091257D01*
X118057181Y-92155978D01*
X118013625Y-92202266D01*
X117953588Y-92244799D01*
X117895290Y-92271509D01*
X117822286Y-92289875D01*
X117764864Y-92294223D01*
X117691023Y-92287036D01*
X117634072Y-92271509D01*
X117565705Y-92238240D01*
X117518301Y-92202266D01*
X117467855Y-92149040D01*
X117433304Y-92091257D01*
X117409399Y-92017435D01*
X117401555Y-91941721D01*
X117401431Y-91930057D01*
X117401431Y-91143839D01*
X117615754Y-91143839D01*
X117615754Y-91929324D01*
X117629780Y-92003423D01*
X117660084Y-92043264D01*
X117728830Y-92076322D01*
X117765230Y-92079900D01*
X117837306Y-92064122D01*
X117869644Y-92043264D01*
X117908736Y-91977665D01*
X117913974Y-91929324D01*
X117913974Y-91143839D01*
X117899948Y-91069445D01*
X117869644Y-91029534D01*
X117801244Y-90996475D01*
X117765230Y-90992897D01*
X117692509Y-91008675D01*
X117660084Y-91029534D01*
X117620992Y-91095290D01*
X117615754Y-91143839D01*
X117401431Y-91143839D01*
X117401431Y-91143107D01*
X117407531Y-91068244D01*
X117427608Y-90996905D01*
X117433304Y-90983738D01*
X117470490Y-90920357D01*
X117518301Y-90868700D01*
X117580176Y-90825668D01*
X117634072Y-90801655D01*
X117707372Y-90782992D01*
X117764864Y-90778574D01*
X117838589Y-90785877D01*
G37*
G36*
X118295359Y-92282500D02*
G01*
X118295359Y-90781871D01*
X118499424Y-90781871D01*
X118831350Y-91686058D01*
X118831350Y-90781871D01*
X119045673Y-90781871D01*
X119045673Y-92282500D01*
X118846005Y-92282500D01*
X118509683Y-91380511D01*
X118509683Y-92282500D01*
X118295359Y-92282500D01*
G37*
G36*
X119983932Y-92282500D02*
G01*
X119769976Y-92282500D01*
X119706961Y-91954237D01*
X119414969Y-91954237D01*
X119351954Y-92282500D01*
X119137631Y-92282500D01*
X119258441Y-91739914D01*
X119452704Y-91739914D01*
X119667027Y-91739914D01*
X119561881Y-91206121D01*
X119557851Y-91206121D01*
X119452704Y-91739914D01*
X119258441Y-91739914D01*
X119471755Y-90781871D01*
X119650175Y-90781871D01*
X119983932Y-92282500D01*
G37*
G36*
X120081752Y-92282500D02*
G01*
X120081752Y-90781871D01*
X120296075Y-90781871D01*
X120296075Y-92068176D01*
X120714829Y-92068176D01*
X120714829Y-92282500D01*
X120081752Y-92282500D01*
G37*
G36*
X153508451Y-105706978D02*
G01*
X153508451Y-107254623D01*
X153499529Y-107349942D01*
X153473524Y-107435607D01*
X153431329Y-107513601D01*
X153374239Y-107582763D01*
X153305135Y-107640219D01*
X153226106Y-107683757D01*
X153139950Y-107710964D01*
X153047320Y-107720150D01*
X152954776Y-107710931D01*
X152869756Y-107683757D01*
X152791957Y-107640309D01*
X152723088Y-107582763D01*
X152665767Y-107513667D01*
X152622460Y-107435607D01*
X152595442Y-107349877D01*
X152586190Y-107254623D01*
X152586190Y-105706978D01*
X152871832Y-105706978D01*
X152871832Y-107226901D01*
X152878305Y-107296159D01*
X152895622Y-107346961D01*
X152922024Y-107383827D01*
X152978024Y-107421472D01*
X153047442Y-107434263D01*
X153116734Y-107421474D01*
X153172617Y-107383827D01*
X153199019Y-107346961D01*
X153216335Y-107296159D01*
X153222809Y-107226901D01*
X153222809Y-105706978D01*
X153508451Y-105706978D01*
G37*
G36*
X153739016Y-107700000D02*
G01*
X153739016Y-107430966D01*
X154251559Y-106457903D01*
X154283369Y-106386028D01*
X154296134Y-106330286D01*
X154301751Y-106194242D01*
X154301751Y-106117184D01*
X154298076Y-106078042D01*
X154287707Y-106045498D01*
X154270341Y-106017286D01*
X154245698Y-105993719D01*
X154213659Y-105978560D01*
X154164609Y-105972714D01*
X154105530Y-105982299D01*
X154062393Y-106009106D01*
X154034829Y-106051896D01*
X154024658Y-106115596D01*
X154024658Y-106278384D01*
X153739016Y-106278384D01*
X153739016Y-106121336D01*
X153747481Y-106033977D01*
X153772477Y-105953175D01*
X153812379Y-105879340D01*
X153864557Y-105815788D01*
X153925510Y-105763190D01*
X153998524Y-105721877D01*
X154079039Y-105695678D01*
X154165952Y-105686828D01*
X154272238Y-105697578D01*
X154357072Y-105727494D01*
X154430179Y-105775635D01*
X154489696Y-105838258D01*
X154532930Y-105912552D01*
X154563580Y-105998115D01*
X154581319Y-106089691D01*
X154587393Y-106188747D01*
X154587393Y-106310746D01*
X154578967Y-106404658D01*
X154550757Y-106494417D01*
X154497268Y-106603715D01*
X154075094Y-107414113D01*
X154590935Y-107414113D01*
X154590935Y-107700000D01*
X153739016Y-107700000D01*
G37*
G36*
X82934348Y-115340000D02*
G01*
X82934348Y-113346978D01*
X83786267Y-113346978D01*
X83786267Y-113612714D01*
X83219990Y-113612714D01*
X83219990Y-114222344D01*
X83712017Y-114222344D01*
X83712017Y-114488080D01*
X83219990Y-114488080D01*
X83219990Y-115340000D01*
X82934348Y-115340000D01*
G37*
G36*
X84266937Y-115340000D02*
G01*
X84266937Y-113649351D01*
X83981661Y-113859277D01*
X83981661Y-113556905D01*
X84266937Y-113346978D01*
X84552579Y-113346978D01*
X84552579Y-115340000D01*
X84266937Y-115340000D01*
G37*
G36*
X91050675Y-86884903D02*
G01*
X91126014Y-86904871D01*
X91187806Y-86936176D01*
X91238400Y-86978575D01*
X91278476Y-87031378D01*
X91308157Y-87095002D01*
X91327071Y-87171633D01*
X91333838Y-87264064D01*
X91333838Y-87963179D01*
X91326327Y-88069117D01*
X91305730Y-88153408D01*
X91274090Y-88220202D01*
X91232172Y-88272757D01*
X91178699Y-88314604D01*
X91113812Y-88345611D01*
X91035163Y-88365402D01*
X90939722Y-88372500D01*
X90642143Y-88372500D01*
X90642143Y-88173197D01*
X90856374Y-88173197D01*
X90954560Y-88173197D01*
X91012642Y-88167283D01*
X91053596Y-88151646D01*
X91081963Y-88127860D01*
X91101450Y-88095346D01*
X91114610Y-88049387D01*
X91119607Y-87985619D01*
X91119607Y-87262507D01*
X91109794Y-87180504D01*
X91084069Y-87125487D01*
X91056564Y-87100168D01*
X91015189Y-87083435D01*
X90954560Y-87077035D01*
X90856374Y-87077035D01*
X90856374Y-88173197D01*
X90642143Y-88173197D01*
X90642143Y-86877733D01*
X90958681Y-86877733D01*
X91050675Y-86884903D01*
G37*
G36*
X91506762Y-88372500D02*
G01*
X91506762Y-88170724D01*
X91891170Y-87440927D01*
X91915027Y-87387021D01*
X91924601Y-87345214D01*
X91928814Y-87243182D01*
X91928814Y-87185388D01*
X91926058Y-87156032D01*
X91918281Y-87131624D01*
X91905256Y-87110464D01*
X91886774Y-87092789D01*
X91862745Y-87081420D01*
X91825957Y-87077035D01*
X91781648Y-87084224D01*
X91749295Y-87104330D01*
X91728622Y-87136422D01*
X91720994Y-87184197D01*
X91720994Y-87306288D01*
X91506762Y-87306288D01*
X91506762Y-87188502D01*
X91513111Y-87122982D01*
X91531858Y-87062381D01*
X91561785Y-87007005D01*
X91600918Y-86959341D01*
X91646633Y-86919893D01*
X91701393Y-86888907D01*
X91761779Y-86869259D01*
X91826965Y-86862621D01*
X91906679Y-86870683D01*
X91970305Y-86893121D01*
X92025135Y-86929226D01*
X92069773Y-86976194D01*
X92102198Y-87031914D01*
X92125185Y-87096086D01*
X92138490Y-87164768D01*
X92143045Y-87239060D01*
X92143045Y-87330560D01*
X92136726Y-87400993D01*
X92115568Y-87468312D01*
X92075451Y-87550286D01*
X91758821Y-88158085D01*
X92145702Y-88158085D01*
X92145702Y-88372500D01*
X91506762Y-88372500D01*
G37*
G36*
X153143876Y-100727733D02*
G01*
X153143876Y-101871706D01*
X153137538Y-101947055D01*
X153119221Y-102013971D01*
X153089316Y-102073990D01*
X153047339Y-102128252D01*
X152994781Y-102173304D01*
X152932850Y-102208211D01*
X152863113Y-102229889D01*
X152778427Y-102237612D01*
X152711149Y-102232166D01*
X152654752Y-102216827D01*
X152607244Y-102192458D01*
X152543832Y-102145595D01*
X152499166Y-102103065D01*
X152667144Y-101968517D01*
X152720633Y-102007444D01*
X152751994Y-102019279D01*
X152784747Y-102023197D01*
X152828802Y-102015870D01*
X152852949Y-102005422D01*
X152877162Y-101987477D01*
X152897584Y-101965381D01*
X152914898Y-101933896D01*
X152925546Y-101896113D01*
X152929644Y-101842305D01*
X152929644Y-100727733D01*
X153143876Y-100727733D01*
G37*
G36*
X153749283Y-100733829D02*
G01*
X153819818Y-100750814D01*
X153883167Y-100782111D01*
X153942000Y-100832422D01*
X153988276Y-100895838D01*
X154017838Y-100969534D01*
X154032989Y-101054996D01*
X154038995Y-101182025D01*
X154035808Y-101278628D01*
X154027363Y-101351652D01*
X154009274Y-101418447D01*
X153977812Y-101481436D01*
X153925912Y-101546705D01*
X153859477Y-101595559D01*
X153808603Y-101617116D01*
X153744871Y-101631188D01*
X153665395Y-101636317D01*
X153555669Y-101636317D01*
X153555669Y-102222500D01*
X153341438Y-102222500D01*
X153341438Y-101437015D01*
X153555669Y-101437015D01*
X153660541Y-101437015D01*
X153722528Y-101431653D01*
X153763123Y-101418055D01*
X153795017Y-101395118D01*
X153816704Y-101365299D01*
X153829267Y-101331275D01*
X153833831Y-101287355D01*
X153833831Y-101184132D01*
X153833831Y-101084023D01*
X153829379Y-101038552D01*
X153816795Y-101000766D01*
X153795535Y-100969106D01*
X153765871Y-100945995D01*
X153727620Y-100932417D01*
X153668143Y-100927035D01*
X153555669Y-100927035D01*
X153555669Y-101437015D01*
X153341438Y-101437015D01*
X153341438Y-100727733D01*
X153663838Y-100727733D01*
X153749283Y-100733829D01*
G37*
G36*
X154418549Y-102222500D02*
G01*
X154418549Y-100954513D01*
X154204592Y-101111958D01*
X154204592Y-100885178D01*
X154418549Y-100727733D01*
X154632780Y-100727733D01*
X154632780Y-102222500D01*
X154418549Y-102222500D01*
G37*
G36*
X151844741Y-85276978D02*
G01*
X151844741Y-86802274D01*
X151836291Y-86902740D01*
X151811868Y-86991961D01*
X151771995Y-87071986D01*
X151716025Y-87144337D01*
X151645949Y-87204406D01*
X151563374Y-87250949D01*
X151470391Y-87279852D01*
X151357477Y-87290150D01*
X151267772Y-87282888D01*
X151192576Y-87262436D01*
X151129232Y-87229944D01*
X151044683Y-87167460D01*
X150985129Y-87110753D01*
X151209099Y-86931357D01*
X151280418Y-86983258D01*
X151322233Y-86999039D01*
X151365903Y-87004263D01*
X151424644Y-86994494D01*
X151456839Y-86980562D01*
X151489124Y-86956636D01*
X151516352Y-86927175D01*
X151539438Y-86885195D01*
X151553636Y-86834817D01*
X151559099Y-86763073D01*
X151559099Y-85276978D01*
X151844741Y-85276978D01*
G37*
G36*
X152069078Y-87270000D02*
G01*
X152069078Y-87000966D01*
X152581622Y-86027903D01*
X152613431Y-85956028D01*
X152626196Y-85900286D01*
X152631814Y-85764242D01*
X152631814Y-85687184D01*
X152628139Y-85648042D01*
X152617770Y-85615498D01*
X152600404Y-85587286D01*
X152575760Y-85563719D01*
X152543722Y-85548560D01*
X152494672Y-85542714D01*
X152435593Y-85552299D01*
X152392456Y-85579106D01*
X152364892Y-85621896D01*
X152354720Y-85685596D01*
X152354720Y-85848384D01*
X152069078Y-85848384D01*
X152069078Y-85691336D01*
X152077544Y-85603977D01*
X152102540Y-85523175D01*
X152142442Y-85449340D01*
X152194619Y-85385788D01*
X152255572Y-85333190D01*
X152328586Y-85291877D01*
X152409101Y-85265678D01*
X152496015Y-85256828D01*
X152602301Y-85267578D01*
X152687135Y-85297494D01*
X152760242Y-85345635D01*
X152819759Y-85408258D01*
X152862992Y-85482552D01*
X152893642Y-85568115D01*
X152911382Y-85659691D01*
X152917456Y-85758747D01*
X152917456Y-85880746D01*
X152909030Y-85974658D01*
X152880820Y-86064417D01*
X152827330Y-86173715D01*
X152405157Y-86984113D01*
X152920998Y-86984113D01*
X152920998Y-87270000D01*
X152069078Y-87270000D01*
G37*
G36*
X131760790Y-102382466D02*
G01*
X131760790Y-100884311D01*
X131975021Y-100884311D01*
X131975021Y-102168052D01*
X132399729Y-102168052D01*
X132399729Y-102382466D01*
X131760790Y-102382466D01*
G37*
G36*
X132508173Y-102379078D02*
G01*
X132508173Y-102177302D01*
X132892580Y-101447505D01*
X132916437Y-101393599D01*
X132926011Y-101351792D01*
X132930224Y-101249760D01*
X132930224Y-101191966D01*
X132927468Y-101162610D01*
X132919691Y-101138202D01*
X132906667Y-101117042D01*
X132888184Y-101099367D01*
X132864155Y-101087998D01*
X132827368Y-101083613D01*
X132783058Y-101090802D01*
X132750706Y-101110908D01*
X132730033Y-101143000D01*
X132722404Y-101190775D01*
X132722404Y-101312866D01*
X132508173Y-101312866D01*
X132508173Y-101195080D01*
X132514522Y-101129560D01*
X132533269Y-101068959D01*
X132563195Y-101013583D01*
X132602328Y-100965919D01*
X132648043Y-100926471D01*
X132702804Y-100895485D01*
X132763190Y-100875837D01*
X132828375Y-100869199D01*
X132908090Y-100877261D01*
X132971715Y-100899699D01*
X133026545Y-100935804D01*
X133071183Y-100982772D01*
X133103608Y-101038492D01*
X133126596Y-101102664D01*
X133139900Y-101171346D01*
X133144456Y-101245638D01*
X133144456Y-101337138D01*
X133138136Y-101407571D01*
X133116979Y-101474890D01*
X133076862Y-101556864D01*
X132760231Y-102164663D01*
X133147112Y-102164663D01*
X133147112Y-102379078D01*
X132508173Y-102379078D01*
G37*
D12*
G36*
X89670675Y-117164903D02*
G01*
X89746014Y-117184871D01*
X89807806Y-117216176D01*
X89858400Y-117258575D01*
X89898476Y-117311378D01*
X89928157Y-117375002D01*
X89947071Y-117451633D01*
X89953838Y-117544064D01*
X89953838Y-118243179D01*
X89946327Y-118349117D01*
X89925730Y-118433408D01*
X89894090Y-118500202D01*
X89852172Y-118552757D01*
X89798699Y-118594604D01*
X89733812Y-118625611D01*
X89655163Y-118645402D01*
X89559722Y-118652500D01*
X89262143Y-118652500D01*
X89262143Y-118453197D01*
X89476374Y-118453197D01*
X89574560Y-118453197D01*
X89632642Y-118447283D01*
X89673596Y-118431646D01*
X89701963Y-118407860D01*
X89721450Y-118375346D01*
X89734610Y-118329387D01*
X89739607Y-118265619D01*
X89739607Y-117542507D01*
X89729794Y-117460504D01*
X89704069Y-117405487D01*
X89676564Y-117380168D01*
X89635189Y-117363435D01*
X89574560Y-117357035D01*
X89476374Y-117357035D01*
X89476374Y-118453197D01*
X89262143Y-118453197D01*
X89262143Y-117157733D01*
X89578681Y-117157733D01*
X89670675Y-117164903D01*
G37*
G36*
X90378821Y-118652500D02*
G01*
X90378821Y-117384513D01*
X90164864Y-117541958D01*
X90164864Y-117315178D01*
X90378821Y-117157733D01*
X90593052Y-117157733D01*
X90593052Y-118652500D01*
X90378821Y-118652500D01*
G37*
D10*
G36*
X208728422Y-104265399D02*
G01*
X208728422Y-105813044D01*
X208719500Y-105908363D01*
X208693495Y-105994028D01*
X208651300Y-106072022D01*
X208594210Y-106141184D01*
X208525106Y-106198640D01*
X208446077Y-106242178D01*
X208359921Y-106269385D01*
X208267291Y-106278571D01*
X208174747Y-106269352D01*
X208089727Y-106242178D01*
X208011928Y-106198730D01*
X207943059Y-106141184D01*
X207885738Y-106072088D01*
X207842431Y-105994028D01*
X207815413Y-105908298D01*
X207806161Y-105813044D01*
X207806161Y-104265399D01*
X208091803Y-104265399D01*
X208091803Y-105785322D01*
X208098276Y-105854580D01*
X208115593Y-105905382D01*
X208141995Y-105942248D01*
X208197995Y-105979893D01*
X208267413Y-105992684D01*
X208336705Y-105979895D01*
X208392588Y-105942248D01*
X208418990Y-105905382D01*
X208436306Y-105854580D01*
X208442780Y-105785322D01*
X208442780Y-104265399D01*
X208728422Y-104265399D01*
G37*
G36*
X209295065Y-106258421D02*
G01*
X209295065Y-104567772D01*
X209009789Y-104777698D01*
X209009789Y-104475326D01*
X209295065Y-104265399D01*
X209580707Y-104265399D01*
X209580707Y-106258421D01*
X209295065Y-106258421D01*
G37*
G36*
X153742112Y-111739727D02*
G01*
X153851549Y-111775008D01*
X153938827Y-111830533D01*
X154007934Y-111907070D01*
X154060345Y-112008319D01*
X154094814Y-112140457D01*
X154107529Y-112311573D01*
X154100869Y-112428274D01*
X154082177Y-112527198D01*
X154052941Y-112611015D01*
X154008545Y-112686251D01*
X153945563Y-112752229D01*
X153861088Y-112809706D01*
X154169079Y-113720000D01*
X153866706Y-113720000D01*
X153601825Y-112868080D01*
X153431832Y-112868080D01*
X153431832Y-113720000D01*
X153146190Y-113720000D01*
X153146190Y-112617976D01*
X153431832Y-112617976D01*
X153593398Y-112617976D01*
X153664278Y-112612089D01*
X153713199Y-112596849D01*
X153753239Y-112570856D01*
X153782931Y-112536277D01*
X153801267Y-112493825D01*
X153813583Y-112439068D01*
X153821887Y-112305345D01*
X153813583Y-112171622D01*
X153800710Y-112116648D01*
X153780122Y-112071482D01*
X153738306Y-112030274D01*
X153674367Y-112003122D01*
X153579476Y-111992714D01*
X153431832Y-111992714D01*
X153431832Y-112617976D01*
X153146190Y-112617976D01*
X153146190Y-111726978D01*
X153604511Y-111726978D01*
X153742112Y-111739727D01*
G37*
G36*
X154635094Y-113720000D02*
G01*
X154635094Y-112029351D01*
X154349818Y-112239277D01*
X154349818Y-111936905D01*
X154635094Y-111726978D01*
X154920736Y-111726978D01*
X154920736Y-113720000D01*
X154635094Y-113720000D01*
G37*
G36*
X157911821Y-113720000D02*
G01*
X157911821Y-113423000D01*
X157341270Y-113423000D01*
X157341270Y-113157264D01*
X157754407Y-111726978D01*
X158057390Y-111726978D01*
X157628011Y-113157264D01*
X157911821Y-113157264D01*
X157911821Y-112586713D01*
X158197463Y-112586713D01*
X158197463Y-113157264D01*
X158333873Y-113157264D01*
X158333873Y-113423000D01*
X158197463Y-113423000D01*
X158197463Y-113720000D01*
X157911821Y-113720000D01*
G37*
G36*
X158516933Y-113720000D02*
G01*
X159018119Y-111992714D01*
X158703168Y-111992714D01*
X158703168Y-112222669D01*
X158453063Y-112222669D01*
X158453063Y-111726978D01*
X159304982Y-111726978D01*
X159304982Y-112009567D01*
X158818451Y-113720000D01*
X158516933Y-113720000D01*
G37*
G36*
X160002933Y-111714218D02*
G01*
X160081552Y-111736259D01*
X160154183Y-111772422D01*
X160217474Y-111821744D01*
X160269963Y-111882946D01*
X160311263Y-111956322D01*
X160337286Y-112038551D01*
X160346434Y-112135596D01*
X160346434Y-113306985D01*
X160337292Y-113403939D01*
X160311263Y-113486259D01*
X160269971Y-113559532D01*
X160217474Y-113620715D01*
X160154183Y-113670037D01*
X160081552Y-113706200D01*
X160002933Y-113728240D01*
X159920474Y-113735631D01*
X159837910Y-113728238D01*
X159759274Y-113706200D01*
X159686643Y-113670037D01*
X159623353Y-113620715D01*
X159570758Y-113559523D01*
X159529441Y-113486259D01*
X159503596Y-113403953D01*
X159494515Y-113306985D01*
X159494515Y-112135596D01*
X159494526Y-112135474D01*
X159780157Y-112135474D01*
X159780157Y-113306863D01*
X159790180Y-113363861D01*
X159819358Y-113409200D01*
X159863727Y-113439366D01*
X159920596Y-113449745D01*
X159977234Y-113439372D01*
X160021469Y-113409200D01*
X160050741Y-113363851D01*
X160060792Y-113306863D01*
X160060792Y-112135474D01*
X160050742Y-112078612D01*
X160021469Y-112033381D01*
X159977224Y-112003114D01*
X159920596Y-111992714D01*
X159863737Y-112003120D01*
X159819358Y-112033381D01*
X159790179Y-112078602D01*
X159780157Y-112135474D01*
X159494526Y-112135474D01*
X159503602Y-112038538D01*
X159529441Y-111956322D01*
X159570766Y-111882955D01*
X159623353Y-111821744D01*
X159686643Y-111772422D01*
X159759274Y-111736259D01*
X159837910Y-111714221D01*
X159920474Y-111706828D01*
X160002933Y-111714218D01*
G37*
G36*
X128200790Y-102417465D02*
G01*
X128200790Y-100919310D01*
X128415021Y-100919310D01*
X128415021Y-102203051D01*
X128839729Y-102203051D01*
X128839729Y-102417465D01*
X128200790Y-102417465D01*
G37*
G36*
X129200231Y-102414077D02*
G01*
X129200231Y-101146090D01*
X128986275Y-101303535D01*
X128986275Y-101076755D01*
X129200231Y-100919310D01*
X129414463Y-100919310D01*
X129414463Y-102414077D01*
X129200231Y-102414077D01*
G37*
G36*
X139301274Y-87567955D02*
G01*
X139301274Y-89093251D01*
X139292824Y-89193717D01*
X139268401Y-89282938D01*
X139228528Y-89362963D01*
X139172558Y-89435314D01*
X139102482Y-89495383D01*
X139019907Y-89541926D01*
X138926924Y-89570829D01*
X138814010Y-89581127D01*
X138724305Y-89573865D01*
X138649109Y-89553413D01*
X138585765Y-89520921D01*
X138501216Y-89458437D01*
X138441662Y-89401730D01*
X138665632Y-89222334D01*
X138736951Y-89274235D01*
X138778766Y-89290016D01*
X138822436Y-89295240D01*
X138881177Y-89285471D01*
X138913372Y-89271539D01*
X138945657Y-89247613D01*
X138972885Y-89218152D01*
X138995971Y-89176172D01*
X139010169Y-89125794D01*
X139015632Y-89054050D01*
X139015632Y-87567955D01*
X139301274Y-87567955D01*
G37*
G36*
X139863888Y-88404242D02*
G01*
X139980757Y-88394827D01*
X140039865Y-88373468D01*
X140064278Y-88348209D01*
X140081424Y-88303792D01*
X140088347Y-88230830D01*
X140088347Y-87973520D01*
X140078662Y-87916759D01*
X140050856Y-87872892D01*
X140007981Y-87843908D01*
X139949861Y-87833691D01*
X139883805Y-87846455D01*
X139843127Y-87881196D01*
X139818732Y-87929470D01*
X139811253Y-87973520D01*
X139811253Y-88135819D01*
X139525611Y-88135819D01*
X139525611Y-87970589D01*
X139533952Y-87885778D01*
X139558828Y-87805481D01*
X139598702Y-87732157D01*
X139650420Y-87671025D01*
X139713270Y-87620838D01*
X139786585Y-87581388D01*
X139866651Y-87556296D01*
X139953159Y-87547805D01*
X140063013Y-87560152D01*
X140146110Y-87593967D01*
X140215889Y-87642782D01*
X140261271Y-87687634D01*
X140309997Y-87754679D01*
X140344680Y-87835767D01*
X140362378Y-87939281D01*
X140369715Y-88109930D01*
X140369715Y-88277602D01*
X140365007Y-88338797D01*
X140352496Y-88383970D01*
X140328498Y-88425352D01*
X140296808Y-88459441D01*
X140198134Y-88526486D01*
X140260495Y-88569633D01*
X140300716Y-88605254D01*
X140331375Y-88644496D01*
X140352740Y-88689396D01*
X140365187Y-88742546D01*
X140369715Y-88808709D01*
X140369715Y-88984197D01*
X140369715Y-89147107D01*
X140361288Y-89253719D01*
X140338818Y-89329556D01*
X140302426Y-89394159D01*
X140241945Y-89465824D01*
X140166260Y-89524706D01*
X140108846Y-89552318D01*
X140037509Y-89570147D01*
X139949006Y-89576608D01*
X139881053Y-89571215D01*
X139806002Y-89554138D01*
X139733875Y-89524595D01*
X139668616Y-89480987D01*
X139612944Y-89423874D01*
X139566156Y-89349096D01*
X139536432Y-89261816D01*
X139525611Y-89149672D01*
X139525611Y-88986639D01*
X139811253Y-88986639D01*
X139811253Y-89135872D01*
X139820993Y-89198679D01*
X139848623Y-89247124D01*
X139891993Y-89279525D01*
X139949861Y-89290722D01*
X140007603Y-89279526D01*
X140050856Y-89247124D01*
X140078377Y-89197934D01*
X140088347Y-89130254D01*
X140088347Y-88843025D01*
X140081956Y-88765016D01*
X140066128Y-88716529D01*
X140044017Y-88688175D01*
X140015686Y-88670290D01*
X139976117Y-88659965D01*
X139863888Y-88654347D01*
X139863888Y-88404242D01*
G37*
G36*
X99553847Y-86757733D02*
G01*
X99553847Y-87901706D01*
X99547509Y-87977055D01*
X99529192Y-88043971D01*
X99499287Y-88103990D01*
X99457310Y-88158252D01*
X99404752Y-88203304D01*
X99342821Y-88238211D01*
X99273084Y-88259889D01*
X99188398Y-88267612D01*
X99121120Y-88262166D01*
X99064723Y-88246827D01*
X99017215Y-88222458D01*
X98953803Y-88175595D01*
X98909137Y-88133065D01*
X99077115Y-87998517D01*
X99130604Y-88037444D01*
X99161965Y-88049279D01*
X99194718Y-88053197D01*
X99238773Y-88045870D01*
X99262920Y-88035422D01*
X99287133Y-88017477D01*
X99307555Y-87995381D01*
X99324869Y-87963896D01*
X99335517Y-87926113D01*
X99339615Y-87872305D01*
X99339615Y-86757733D01*
X99553847Y-86757733D01*
G37*
G36*
X100159254Y-86763829D02*
G01*
X100229789Y-86780814D01*
X100293138Y-86812111D01*
X100351971Y-86862422D01*
X100398247Y-86925838D01*
X100427809Y-86999534D01*
X100442960Y-87084996D01*
X100448966Y-87212025D01*
X100445779Y-87308628D01*
X100437334Y-87381652D01*
X100419245Y-87448447D01*
X100387783Y-87511436D01*
X100335883Y-87576705D01*
X100269448Y-87625559D01*
X100218574Y-87647116D01*
X100154842Y-87661188D01*
X100075366Y-87666317D01*
X99965640Y-87666317D01*
X99965640Y-88252500D01*
X99751409Y-88252500D01*
X99751409Y-87467015D01*
X99965640Y-87467015D01*
X100070512Y-87467015D01*
X100132499Y-87461653D01*
X100173094Y-87448055D01*
X100204988Y-87425118D01*
X100226675Y-87395299D01*
X100239238Y-87361275D01*
X100243802Y-87317355D01*
X100243802Y-87214132D01*
X100243802Y-87114023D01*
X100239350Y-87068552D01*
X100226766Y-87030766D01*
X100205506Y-86999106D01*
X100175842Y-86975995D01*
X100137591Y-86962417D01*
X100078114Y-86957035D01*
X99965640Y-86957035D01*
X99965640Y-87467015D01*
X99751409Y-87467015D01*
X99751409Y-86757733D01*
X100073809Y-86757733D01*
X100159254Y-86763829D01*
G37*
G36*
X100576461Y-88252500D02*
G01*
X100576461Y-88050724D01*
X100960869Y-87320927D01*
X100984726Y-87267021D01*
X100994299Y-87225214D01*
X100998513Y-87123182D01*
X100998513Y-87065388D01*
X100995756Y-87036032D01*
X100987980Y-87011624D01*
X100974955Y-86990464D01*
X100956472Y-86972789D01*
X100932443Y-86961420D01*
X100895656Y-86957035D01*
X100851347Y-86964224D01*
X100818994Y-86984330D01*
X100798321Y-87016422D01*
X100790692Y-87064197D01*
X100790692Y-87186288D01*
X100576461Y-87186288D01*
X100576461Y-87068502D01*
X100582810Y-87002982D01*
X100601557Y-86942381D01*
X100631483Y-86887005D01*
X100670617Y-86839341D01*
X100716331Y-86799893D01*
X100771092Y-86768907D01*
X100831478Y-86749259D01*
X100896663Y-86742621D01*
X100976378Y-86750683D01*
X101040003Y-86773121D01*
X101094834Y-86809226D01*
X101139471Y-86856194D01*
X101171896Y-86911914D01*
X101194884Y-86976086D01*
X101208188Y-87044768D01*
X101212744Y-87119060D01*
X101212744Y-87210560D01*
X101206424Y-87280993D01*
X101185267Y-87348312D01*
X101145150Y-87430286D01*
X100828520Y-88038085D01*
X101215400Y-88038085D01*
X101215400Y-88252500D01*
X100576461Y-88252500D01*
G37*
G36*
X140584741Y-119296978D02*
G01*
X140584741Y-120822274D01*
X140576291Y-120922740D01*
X140551868Y-121011961D01*
X140511995Y-121091986D01*
X140456025Y-121164337D01*
X140385949Y-121224406D01*
X140303374Y-121270949D01*
X140210391Y-121299852D01*
X140097477Y-121310150D01*
X140007772Y-121302888D01*
X139932576Y-121282436D01*
X139869232Y-121249944D01*
X139784683Y-121187460D01*
X139725129Y-121130753D01*
X139949099Y-120951357D01*
X140020418Y-121003258D01*
X140062233Y-121019039D01*
X140105903Y-121024263D01*
X140164644Y-121014494D01*
X140196839Y-121000562D01*
X140229124Y-120976636D01*
X140256352Y-120947175D01*
X140279438Y-120905195D01*
X140293636Y-120854817D01*
X140299099Y-120783073D01*
X140299099Y-119296978D01*
X140584741Y-119296978D01*
G37*
G36*
X141660998Y-119296978D02*
G01*
X141660998Y-119562714D01*
X141090446Y-119562714D01*
X141090446Y-120099926D01*
X141134380Y-120065013D01*
X141192051Y-120034713D01*
X141256713Y-120015039D01*
X141330537Y-120008213D01*
X141424841Y-120018618D01*
X141503214Y-120048198D01*
X141569162Y-120096507D01*
X141618064Y-120161185D01*
X141649451Y-120247257D01*
X141660998Y-120361388D01*
X141660998Y-120876985D01*
X141651855Y-120973939D01*
X141625827Y-121056259D01*
X141584535Y-121129532D01*
X141532037Y-121190715D01*
X141468747Y-121240037D01*
X141396116Y-121276200D01*
X141317496Y-121298240D01*
X141235038Y-121305631D01*
X141152474Y-121298238D01*
X141073838Y-121276200D01*
X141001215Y-121240011D01*
X140937917Y-121190593D01*
X140885323Y-121129282D01*
X140844005Y-121055893D01*
X140818165Y-120973556D01*
X140809078Y-120876374D01*
X140809078Y-120792233D01*
X141090446Y-120792233D01*
X141090446Y-120865261D01*
X141101405Y-120932020D01*
X141131723Y-120979078D01*
X141178307Y-121009259D01*
X141238580Y-121019745D01*
X141298072Y-121009383D01*
X141339696Y-120980544D01*
X141365773Y-120935471D01*
X141375355Y-120870879D01*
X141375355Y-120401688D01*
X141365738Y-120346674D01*
X141337254Y-120300572D01*
X141294243Y-120268991D01*
X141240167Y-120258318D01*
X141205374Y-120261799D01*
X141178252Y-120271385D01*
X141135998Y-120301671D01*
X141110718Y-120339162D01*
X141093743Y-120365174D01*
X140840342Y-120365174D01*
X140840342Y-119296978D01*
X141660998Y-119296978D01*
G37*
%TO.C,U2*%
X154899970Y-105668422D02*
X154899970Y-107768424D01*
X157399970Y-105668422D02*
X157399970Y-107768424D01*
D14*
X156924973Y-104416347D02*
G75*
G02*
X156674971Y-104416347I-125001J0D01*
G01*
X156674971Y-104416347D02*
G75*
G02*
X156924973Y-104416347I125001J0D01*
G01*
D15*
%TO.C,F1*%
X82059971Y-115719674D02*
X82059971Y-112947170D01*
X85479971Y-115719674D02*
X85479971Y-112947170D01*
%TO.C,D2*%
X89230000Y-91280001D02*
X89230000Y-85470001D01*
X89230000Y-91280001D02*
X93530000Y-91280001D01*
X93530000Y-91280001D02*
X93530000Y-85470001D01*
%TO.C,JP1*%
X155149970Y-102108421D02*
X155149970Y-100708421D01*
X155849969Y-100008421D02*
X156449971Y-100008421D01*
X156449971Y-102808421D02*
X155849969Y-102808421D01*
X157149970Y-100708421D02*
X157149970Y-102108421D01*
X155149970Y-100708421D02*
G75*
G02*
X155849969Y-100008421I700000J0D01*
G01*
X155849969Y-102808421D02*
G75*
G02*
X155149970Y-102108421I0J699999D01*
G01*
X156449971Y-100008421D02*
G75*
G02*
X157149970Y-100708421I-1J-700000D01*
G01*
X157149970Y-102108421D02*
G75*
G02*
X156449971Y-102808421I-699999J-1D01*
G01*
D16*
%TO.C,J2*%
X147554971Y-84648422D02*
X147554971Y-84998422D01*
X147554971Y-88238422D02*
X147554971Y-87558422D01*
X156494971Y-84648422D02*
X147554971Y-84648422D01*
X156494971Y-84998422D02*
X156494971Y-84648422D01*
X156494971Y-88238422D02*
X156494971Y-87558422D01*
X155099971Y-92088422D02*
G75*
G02*
X154899971Y-92088422I-100000J0D01*
G01*
X154899971Y-92088422D02*
G75*
G02*
X155099971Y-92088422I100000J0D01*
G01*
D15*
%TO.C,L2*%
X131530000Y-102462742D02*
X131530000Y-100792258D01*
X133350000Y-102462742D02*
X133350000Y-100792258D01*
D10*
%TO.C,D1*%
X88939971Y-118968422D02*
X90939971Y-118968422D01*
X88939971Y-121048422D02*
X90939971Y-121048422D01*
X90319971Y-120768422D02*
X90119971Y-120768421D01*
X90119971Y-119248422D01*
X90319970Y-119248422D01*
X90319971Y-120768422D01*
G36*
X90319971Y-120768422D02*
G01*
X90119971Y-120768421D01*
X90119971Y-119248422D01*
X90319970Y-119248422D01*
X90319971Y-120768422D01*
G37*
D17*
%TO.C,U1*%
X160139971Y-100408421D02*
X160389971Y-100408421D01*
X160139971Y-107248421D02*
X160139971Y-100408421D01*
X160139971Y-121408421D02*
X160139971Y-114568421D01*
X160139971Y-121408421D02*
X160389971Y-121408421D01*
X210889971Y-100408421D02*
X211139971Y-100408421D01*
X211139971Y-100408421D02*
X211139971Y-106908421D01*
X211139971Y-106908421D02*
X212439971Y-106908421D01*
X211139971Y-114908421D02*
X211139971Y-121408421D01*
X211139971Y-121408421D02*
X210889971Y-121408421D01*
X212439971Y-106908421D02*
X212439971Y-114908421D01*
X212439971Y-114908421D02*
X211139971Y-114908421D01*
D16*
X209879971Y-103718421D02*
G75*
G02*
X209679971Y-103718421I-100000J0D01*
G01*
X209679971Y-103718421D02*
G75*
G02*
X209879971Y-103718421I100000J0D01*
G01*
D15*
%TO.C,R1*%
X155414971Y-112451357D02*
X155414971Y-112905485D01*
X156884971Y-112451357D02*
X156884971Y-112905485D01*
%TO.C,L1*%
X127910000Y-102482742D02*
X127910000Y-100812258D01*
X129730000Y-102482742D02*
X129730000Y-100812258D01*
%TO.C,J3*%
X135549971Y-87198422D02*
X135549971Y-89858422D01*
X135549971Y-89858422D02*
X145829971Y-89858422D01*
X136499971Y-84261351D02*
X136499971Y-84715493D01*
X136499971Y-86801351D02*
X136499971Y-87198422D01*
X136499971Y-95858422D02*
X136499971Y-89858422D01*
X137259971Y-84261351D02*
X137259971Y-84715493D01*
X137259971Y-86801350D02*
X137259971Y-87198422D01*
X137259971Y-89858422D02*
X137259971Y-95858422D01*
X137259971Y-95858422D02*
X136499971Y-95858422D01*
X138149971Y-87198422D02*
X138149971Y-89858422D01*
X139039971Y-84261351D02*
X139039971Y-84715493D01*
X139039971Y-86801350D02*
X139039971Y-87198422D01*
X139039971Y-95858422D02*
X139039971Y-89858422D01*
X139799971Y-84261351D02*
X139799971Y-84715493D01*
X139799971Y-89858422D02*
X139799971Y-95858422D01*
X139799971Y-95858422D02*
X139039971Y-95858422D01*
X139799972Y-86801351D02*
X139799971Y-87198422D01*
X140689971Y-87198422D02*
X140689971Y-89858422D01*
X141579971Y-84261351D02*
X141579971Y-84715493D01*
X141579971Y-86801351D02*
X141579971Y-87198422D01*
X141579971Y-95858422D02*
X141579971Y-89858422D01*
X142339971Y-84261351D02*
X142339971Y-84715493D01*
X142339971Y-86801351D02*
X142339971Y-87198422D01*
X142339971Y-89858422D02*
X142339971Y-95858422D01*
X142339971Y-95858422D02*
X141579971Y-95858422D01*
X143229970Y-87198422D02*
X143229970Y-89858422D01*
X144119971Y-84328422D02*
X144119970Y-84715493D01*
X144119971Y-86801351D02*
X144119970Y-87198422D01*
X144119971Y-95858422D02*
X144119970Y-89858422D01*
X144219971Y-89858422D02*
X144219971Y-95858422D01*
X144339971Y-89858422D02*
X144339971Y-95858422D01*
X144459971Y-89858422D02*
X144459971Y-95858422D01*
X144499971Y-81948421D02*
X145769971Y-81948422D01*
X144579972Y-89858422D02*
X144579971Y-95858422D01*
X144699970Y-89858422D02*
X144699971Y-95858422D01*
X144819971Y-89858422D02*
X144819971Y-95858422D01*
X144879971Y-84328422D02*
X144879972Y-84715493D01*
X144879971Y-86801351D02*
X144879972Y-87198422D01*
X144879971Y-95858422D02*
X144119971Y-95858422D01*
X144879972Y-89858422D02*
X144879971Y-95858422D01*
X145769971Y-81948422D02*
X145769972Y-83218422D01*
X145829971Y-87198422D02*
X135549971Y-87198422D01*
X145829971Y-89858422D02*
X145829971Y-87198422D01*
D17*
%TO.C,J5*%
X128139971Y-115508423D02*
X153419971Y-115508423D01*
X128139971Y-124608423D02*
X128139971Y-115508423D01*
X153419971Y-115508423D02*
X153419971Y-124608423D01*
X153419971Y-124608423D02*
X128139971Y-124608423D01*
D16*
X131609971Y-128798423D02*
G75*
G02*
X131409971Y-128798423I-100000J0D01*
G01*
X131409971Y-128798423D02*
G75*
G02*
X131609971Y-128798423I100000J0D01*
G01*
%TD*%
M02*
