%TF.GenerationSoftware,KiCad,Pcbnew,9.0.0*%
%TF.CreationDate,2025-04-15T08:33:06-04:00*%
%TF.ProjectId,jSmartSW,6a536d61-7274-4535-972e-6b696361645f,1.0*%
%TF.SameCoordinates,Original*%
%TF.FileFunction,Legend,Bot*%
%TF.FilePolarity,Positive*%
%FSLAX46Y46*%
G04 Gerber Fmt 4.6, Leading zero omitted, Abs format (unit mm)*
G04 Created by KiCad (PCBNEW 9.0.0) date 2025-04-15 08:33:06*
%MOMM*%
%LPD*%
G01*
G04 APERTURE LIST*
%ADD10C,0.150000*%
%ADD11C,0.152000*%
%ADD12C,0.300000*%
%ADD13C,0.100000*%
%ADD14C,0.120000*%
%ADD15C,0.127000*%
%ADD16C,0.400000*%
%ADD17C,0.340000*%
G04 APERTURE END LIST*
D10*
X211689970Y-113458422D02*
X208129970Y-113458422D01*
X208129970Y-108388423D01*
X211689971Y-108388422D01*
X211689970Y-113458422D01*
X102540000Y-82490000D02*
X133330000Y-82490000D01*
X133330000Y-91460000D01*
X102540000Y-91460000D01*
X102540000Y-82490000D01*
X131619971Y-130208422D02*
X131619971Y-128558422D01*
X131619971Y-127958422D02*
X131619971Y-126308422D01*
X131619971Y-125708422D02*
X131619971Y-124688423D01*
X131619971Y-124688423D02*
X133269971Y-124688423D01*
X133869971Y-124688423D02*
X135519971Y-124688423D01*
X136119971Y-124688423D02*
X137769971Y-124688423D01*
X138369971Y-124688423D02*
X140019971Y-124688423D01*
X140619971Y-124688423D02*
X142269971Y-124688422D01*
X142869971Y-124688422D02*
X144519971Y-124688422D01*
X145119971Y-124688422D02*
X146769971Y-124688422D01*
X147369971Y-124688422D02*
X149019971Y-124688422D01*
X149619971Y-124688422D02*
X149879970Y-124688422D01*
X149879970Y-124688422D02*
X149879970Y-126338422D01*
X149879970Y-126938422D02*
X149879971Y-128588422D01*
X149879971Y-129188422D02*
X149879971Y-130208422D01*
X149879971Y-130208422D02*
X148229971Y-130208422D01*
X147629971Y-130208422D02*
X145979971Y-130208422D01*
X145379971Y-130208422D02*
X143729971Y-130208422D01*
X143129971Y-130208422D02*
X141479971Y-130208422D01*
X140879971Y-130208422D02*
X139229971Y-130208422D01*
X138629971Y-130208422D02*
X136979971Y-130208422D01*
X136379971Y-130208422D02*
X134729971Y-130208422D01*
X134129971Y-130208422D02*
X132479971Y-130208422D01*
X131879971Y-130208422D02*
X131619971Y-130208422D01*
X157610000Y-82510000D02*
X188390000Y-82510000D01*
X188390000Y-91440000D01*
X157610000Y-91440000D01*
X157610000Y-82510000D01*
G36*
X91884135Y-111228919D02*
G01*
X91992218Y-111298447D01*
X92122524Y-111517636D01*
X92139985Y-111679466D01*
X92139985Y-114297749D01*
X92093231Y-114544744D01*
X91992218Y-114677547D01*
X91763064Y-114787742D01*
X91641729Y-114799668D01*
X91401478Y-114747075D01*
X91293683Y-114677547D01*
X91163377Y-114458884D01*
X91145917Y-114297749D01*
X91145917Y-111679466D01*
X91192671Y-111431483D01*
X91293683Y-111298447D01*
X91521683Y-111188251D01*
X91641729Y-111176325D01*
X91884135Y-111228919D01*
G37*
G36*
X99338426Y-111228919D02*
G01*
X99446510Y-111298447D01*
X99576816Y-111517636D01*
X99594277Y-111679466D01*
X99594277Y-114297749D01*
X99547522Y-114544744D01*
X99446510Y-114677547D01*
X99217355Y-114787742D01*
X99096021Y-114799668D01*
X98855770Y-114747075D01*
X98747975Y-114677547D01*
X98617669Y-114458884D01*
X98600208Y-114297749D01*
X98600208Y-111679466D01*
X98646963Y-111431483D01*
X98747975Y-111298447D01*
X98975975Y-111188251D01*
X99096021Y-111176325D01*
X99338426Y-111228919D01*
G37*
G36*
X102574039Y-114760589D02*
G01*
X102268736Y-114760589D01*
X102026055Y-114732715D01*
X101931681Y-114695865D01*
X101751302Y-114524618D01*
X101747277Y-114517568D01*
X101675721Y-114274399D01*
X101672783Y-114245237D01*
X101659045Y-113993132D01*
X101658129Y-113902076D01*
X101668854Y-113650573D01*
X101678889Y-113566242D01*
X101758080Y-113328374D01*
X101761932Y-113321999D01*
X101949999Y-113176674D01*
X102191298Y-113131900D01*
X102261408Y-113130268D01*
X102574039Y-113130268D01*
X102574039Y-114760589D01*
G37*
G36*
X102574039Y-112505006D02*
G01*
X102255302Y-112505006D01*
X102005259Y-112476790D01*
X101786814Y-112344555D01*
X101779029Y-112334036D01*
X101684694Y-112106622D01*
X101658247Y-111852572D01*
X101658129Y-111832117D01*
X101684075Y-111581707D01*
X101793683Y-111349738D01*
X102014361Y-111218405D01*
X102260249Y-111187475D01*
X102282169Y-111187316D01*
X102574039Y-111187316D01*
X102574039Y-112505006D01*
G37*
G36*
X103844006Y-116069634D02*
G01*
X86103619Y-116069634D01*
X86103619Y-115475000D01*
X86659175Y-115475000D01*
X87373586Y-115475000D01*
X87373586Y-112432955D01*
X87387019Y-112432955D01*
X88095323Y-114582292D01*
X88453139Y-114582292D01*
X89160222Y-112432955D01*
X89160222Y-115475000D01*
X89874632Y-115475000D01*
X89874632Y-111677023D01*
X90431506Y-111677023D01*
X90431506Y-111679466D01*
X90431506Y-114297749D01*
X90431506Y-114300191D01*
X90451842Y-114557515D01*
X90518765Y-114794828D01*
X90537752Y-114837526D01*
X90668560Y-115053262D01*
X90813746Y-115207554D01*
X91013872Y-115349330D01*
X91208198Y-115438363D01*
X91451544Y-115499586D01*
X91642951Y-115514078D01*
X91889087Y-115490122D01*
X92078924Y-115438363D01*
X92306814Y-115327466D01*
X92464828Y-115207554D01*
X92632981Y-115030135D01*
X92748150Y-114837526D01*
X92827834Y-114591451D01*
X92853980Y-114339070D01*
X92854395Y-114300191D01*
X92854395Y-111677023D01*
X92834059Y-111427481D01*
X92767137Y-111189684D01*
X92766113Y-111187316D01*
X93059559Y-111187316D01*
X93841136Y-111187316D01*
X93841136Y-115475000D01*
X94555547Y-115475000D01*
X94555547Y-111187316D01*
X95379866Y-111187316D01*
X95404291Y-111187316D01*
X96161443Y-111187316D01*
X96161443Y-115475000D01*
X96875854Y-115475000D01*
X96875854Y-111677023D01*
X97885798Y-111677023D01*
X97885798Y-111679466D01*
X97885798Y-114297749D01*
X97885798Y-114300191D01*
X97906134Y-114557515D01*
X97973056Y-114794828D01*
X97992044Y-114837526D01*
X98122852Y-115053262D01*
X98268038Y-115207554D01*
X98468163Y-115349330D01*
X98662490Y-115438363D01*
X98905836Y-115499586D01*
X99097242Y-115514078D01*
X99343379Y-115490122D01*
X99533216Y-115438363D01*
X99761106Y-115327466D01*
X99919120Y-115207554D01*
X100087273Y-115030135D01*
X100202441Y-114837526D01*
X100282126Y-114591451D01*
X100308272Y-114339070D01*
X100308687Y-114300191D01*
X100308687Y-111724651D01*
X100943718Y-111724651D01*
X100943718Y-111832117D01*
X100943718Y-111906612D01*
X100959880Y-112154237D01*
X100977912Y-112247330D01*
X101068716Y-112478311D01*
X101076831Y-112491573D01*
X101249687Y-112682372D01*
X101465177Y-112824965D01*
X101244696Y-112962995D01*
X101087006Y-113150399D01*
X101070725Y-113179117D01*
X100983904Y-113415937D01*
X100948183Y-113671018D01*
X100943718Y-113816591D01*
X100943718Y-113902076D01*
X100943718Y-114101133D01*
X100959204Y-114377415D01*
X101005662Y-114623894D01*
X101096680Y-114869091D01*
X101228152Y-115075362D01*
X101267340Y-115120847D01*
X101479903Y-115292044D01*
X101720101Y-115397183D01*
X101969844Y-115452865D01*
X102213304Y-115473616D01*
X102300487Y-115475000D01*
X103288450Y-115475000D01*
X103288450Y-110472906D01*
X102229657Y-110472906D01*
X101983048Y-110487675D01*
X101731802Y-110542239D01*
X101636147Y-110577930D01*
X101412970Y-110699136D01*
X101234367Y-110855146D01*
X101087707Y-111067838D01*
X101012106Y-111255704D01*
X100958745Y-111500574D01*
X100943718Y-111724651D01*
X100308687Y-111724651D01*
X100308687Y-111677023D01*
X100288351Y-111427481D01*
X100221429Y-111189684D01*
X100202441Y-111145795D01*
X100078488Y-110934525D01*
X99919120Y-110762334D01*
X99712868Y-110618894D01*
X99533216Y-110538852D01*
X99288882Y-110476641D01*
X99097242Y-110461915D01*
X98851492Y-110486258D01*
X98662490Y-110538852D01*
X98431294Y-110646829D01*
X98268038Y-110762334D01*
X98105602Y-110946584D01*
X97992044Y-111145795D01*
X97912359Y-111394007D01*
X97886213Y-111639743D01*
X97885798Y-111677023D01*
X96875854Y-111677023D01*
X96875854Y-111187316D01*
X97724598Y-111187316D01*
X97724598Y-110472906D01*
X95404291Y-110472906D01*
X93059559Y-110472906D01*
X93059559Y-111187316D01*
X92766113Y-111187316D01*
X92748150Y-111145795D01*
X92624196Y-110934525D01*
X92464828Y-110762334D01*
X92258576Y-110618894D01*
X92078924Y-110538852D01*
X91834591Y-110476641D01*
X91642951Y-110461915D01*
X91397200Y-110486258D01*
X91208198Y-110538852D01*
X90977003Y-110646829D01*
X90813746Y-110762334D01*
X90651310Y-110946584D01*
X90537752Y-111145795D01*
X90458068Y-111394007D01*
X90431921Y-111639743D01*
X90431506Y-111677023D01*
X89874632Y-111677023D01*
X89874632Y-110472906D01*
X89194416Y-110472906D01*
X88277284Y-113121720D01*
X88263851Y-113121720D01*
X87352825Y-110472906D01*
X86659175Y-110472906D01*
X86659175Y-115475000D01*
X86103619Y-115475000D01*
X86103619Y-109906359D01*
X103844006Y-109906359D01*
X103844006Y-116069634D01*
G37*
D11*
G36*
X206333921Y-108834368D02*
G01*
X206619685Y-108834368D01*
X206619685Y-108770376D01*
X206633596Y-108668968D01*
X206663649Y-108601849D01*
X206742074Y-108540559D01*
X206811660Y-108530530D01*
X206902030Y-108553000D01*
X206957718Y-108608688D01*
X206987027Y-108691242D01*
X206994842Y-108786985D01*
X206990935Y-108885170D01*
X206970418Y-108955024D01*
X206922547Y-109008269D01*
X206837550Y-109052233D01*
X206625059Y-109138695D01*
X206536891Y-109181067D01*
X206475582Y-109224180D01*
X206408541Y-109298504D01*
X206385701Y-109337020D01*
X206354796Y-109432419D01*
X206345157Y-109488939D01*
X206336072Y-109592133D01*
X206333921Y-109682868D01*
X206338033Y-109781570D01*
X206351657Y-109881374D01*
X206358834Y-109915387D01*
X206388952Y-110009160D01*
X206439434Y-110098569D01*
X206511918Y-110172099D01*
X206592819Y-110221179D01*
X206690435Y-110253085D01*
X206789969Y-110264936D01*
X206823384Y-110265631D01*
X206922669Y-110256594D01*
X207015359Y-110229483D01*
X207102789Y-110182837D01*
X207168255Y-110128855D01*
X207231899Y-110049823D01*
X207269860Y-109979378D01*
X207299209Y-109884277D01*
X207307473Y-109793265D01*
X207307473Y-109687264D01*
X207021709Y-109687264D01*
X207021709Y-109776168D01*
X207002144Y-109872229D01*
X206976280Y-109917341D01*
X206889937Y-109972479D01*
X206823384Y-109979867D01*
X206725161Y-109964913D01*
X206712009Y-109958862D01*
X206649972Y-109899267D01*
X206624082Y-109805478D01*
X206619793Y-109704936D01*
X206619685Y-109684333D01*
X206622461Y-109586618D01*
X206625059Y-109556350D01*
X206646552Y-109475261D01*
X206696866Y-109424947D01*
X206779909Y-109382937D01*
X206978722Y-109299406D01*
X207070252Y-109253030D01*
X207150108Y-109192618D01*
X207211392Y-109115366D01*
X207219546Y-109100104D01*
X207254310Y-109007356D01*
X207273391Y-108910117D01*
X207280368Y-108812079D01*
X207280607Y-108788939D01*
X207274059Y-108686886D01*
X207254417Y-108589556D01*
X207250809Y-108576936D01*
X207212951Y-108483269D01*
X207159951Y-108403524D01*
X207089883Y-108334981D01*
X207013405Y-108288241D01*
X206915464Y-108255635D01*
X206815740Y-108244936D01*
X206800425Y-108244766D01*
X206700774Y-108254535D01*
X206609916Y-108283845D01*
X206524667Y-108332535D01*
X206460439Y-108387404D01*
X206399281Y-108465821D01*
X206354802Y-108560294D01*
X206335033Y-108662494D01*
X206333921Y-108694661D01*
X206333921Y-108834368D01*
G37*
G36*
X205749799Y-108828399D02*
G01*
X205847869Y-108843246D01*
X205944598Y-108883217D01*
X205950387Y-108886702D01*
X206027030Y-108947452D01*
X206087725Y-109029762D01*
X206103490Y-109062362D01*
X206129734Y-109157257D01*
X206136581Y-109213105D01*
X206140969Y-109315038D01*
X206140969Y-109778611D01*
X206139642Y-109835545D01*
X206129734Y-109935903D01*
X206122896Y-109971013D01*
X206087725Y-110063886D01*
X206084568Y-110069560D01*
X206022515Y-110150741D01*
X205944598Y-110210432D01*
X205914311Y-110226334D01*
X205819102Y-110256521D01*
X205716964Y-110265631D01*
X205684022Y-110264769D01*
X205585815Y-110250052D01*
X205489330Y-110210432D01*
X205483511Y-110206947D01*
X205406531Y-110146196D01*
X205345715Y-110063886D01*
X205329950Y-110031249D01*
X205303705Y-109935903D01*
X205296859Y-109879895D01*
X205292470Y-109778611D01*
X205292470Y-109315038D01*
X205293441Y-109273028D01*
X205578234Y-109273028D01*
X205578234Y-109820132D01*
X205579556Y-109848766D01*
X205615847Y-109940300D01*
X205623044Y-109947371D01*
X205716964Y-109979867D01*
X205724801Y-109979712D01*
X205818080Y-109940300D01*
X205834323Y-109917768D01*
X205855205Y-109820132D01*
X205855205Y-109273028D01*
X205853900Y-109244412D01*
X205818080Y-109153349D01*
X205810800Y-109146191D01*
X205716964Y-109113293D01*
X205705202Y-109113645D01*
X205615847Y-109153349D01*
X205599392Y-109175667D01*
X205578234Y-109273028D01*
X205293441Y-109273028D01*
X205293797Y-109257605D01*
X205303705Y-109157257D01*
X205310544Y-109122361D01*
X205345715Y-109029762D01*
X205348872Y-109024088D01*
X205411062Y-108942908D01*
X205489330Y-108883217D01*
X205519488Y-108867174D01*
X205614590Y-108836720D01*
X205716964Y-108827529D01*
X205749799Y-108828399D01*
G37*
G36*
X205105380Y-108249162D02*
G01*
X204819616Y-108249162D01*
X204819616Y-109846510D01*
X204800912Y-109945039D01*
X204791284Y-109957885D01*
X204697724Y-109994158D01*
X204683328Y-109995987D01*
X204683328Y-110265631D01*
X204781098Y-110261219D01*
X204858206Y-110250000D01*
X204950680Y-110217502D01*
X204991563Y-110190404D01*
X205055224Y-110115366D01*
X205076071Y-110070725D01*
X205098940Y-109974796D01*
X205105351Y-109874886D01*
X205105380Y-109867027D01*
X205105380Y-108249162D01*
G37*
G36*
X203991632Y-108973098D02*
G01*
X204026680Y-108928605D01*
X204105450Y-108865143D01*
X204157153Y-108842222D01*
X204254926Y-108827529D01*
X204321846Y-108831801D01*
X204414661Y-108863677D01*
X204454257Y-108892110D01*
X204516365Y-108970330D01*
X204546064Y-109071284D01*
X204548010Y-109090716D01*
X204553200Y-109193176D01*
X204554368Y-109295987D01*
X204554368Y-109830879D01*
X204552514Y-109917836D01*
X204543133Y-110016503D01*
X204539300Y-110037502D01*
X204507473Y-110132763D01*
X204453578Y-110202830D01*
X204361071Y-110252656D01*
X204260788Y-110265631D01*
X204168953Y-110254884D01*
X204099588Y-110224110D01*
X204043900Y-110179169D01*
X203991632Y-110122505D01*
X203991632Y-110250000D01*
X203705868Y-110250000D01*
X203705868Y-109265212D01*
X203991632Y-109265212D01*
X203991632Y-109810362D01*
X203993479Y-109842750D01*
X204030223Y-109935903D01*
X204040138Y-109947238D01*
X204131339Y-109984263D01*
X204148574Y-109983447D01*
X204235875Y-109931995D01*
X204254509Y-109891800D01*
X204268604Y-109793265D01*
X204268604Y-109278890D01*
X204267900Y-109258547D01*
X204239783Y-109163119D01*
X204224743Y-109143704D01*
X204131339Y-109113293D01*
X204120254Y-109113671D01*
X204031688Y-109156280D01*
X204020149Y-109170274D01*
X203991632Y-109265212D01*
X203705868Y-109265212D01*
X203705868Y-108249162D01*
X203991632Y-108249162D01*
X203991632Y-108973098D01*
G37*
G36*
X203106115Y-108828399D02*
G01*
X203204185Y-108843246D01*
X203300914Y-108883217D01*
X203306703Y-108886702D01*
X203383346Y-108947452D01*
X203444040Y-109029762D01*
X203459805Y-109062362D01*
X203486050Y-109157257D01*
X203492896Y-109213105D01*
X203497285Y-109315038D01*
X203497285Y-109778611D01*
X203495957Y-109835545D01*
X203486050Y-109935903D01*
X203479211Y-109971013D01*
X203444040Y-110063886D01*
X203440883Y-110069560D01*
X203378830Y-110150741D01*
X203300914Y-110210432D01*
X203270627Y-110226334D01*
X203175418Y-110256521D01*
X203073279Y-110265631D01*
X202991534Y-110259273D01*
X202897424Y-110232414D01*
X202841897Y-110203998D01*
X202763091Y-110141067D01*
X202742663Y-110119095D01*
X202689082Y-110036740D01*
X202657827Y-109940359D01*
X202648785Y-109841625D01*
X202934549Y-109841625D01*
X202966301Y-109933949D01*
X202978099Y-109949554D01*
X203073279Y-109979867D01*
X203081116Y-109979730D01*
X203174396Y-109944696D01*
X203181030Y-109937748D01*
X203211521Y-109843579D01*
X203211521Y-109656001D01*
X202648785Y-109656001D01*
X202648785Y-109275471D01*
X202934549Y-109275471D01*
X202934549Y-109437159D01*
X203211521Y-109437159D01*
X203211521Y-109275471D01*
X203210216Y-109246339D01*
X203174396Y-109153838D01*
X203167116Y-109146592D01*
X203073279Y-109113293D01*
X203061517Y-109113650D01*
X202972163Y-109153838D01*
X202953981Y-109179653D01*
X202934549Y-109275471D01*
X202648785Y-109275471D01*
X202648785Y-109267166D01*
X202649768Y-109232283D01*
X202664516Y-109134382D01*
X202701658Y-109037477D01*
X202760648Y-108953070D01*
X202809845Y-108909635D01*
X202895959Y-108861235D01*
X202974577Y-108837042D01*
X203073279Y-108827529D01*
X203106115Y-108828399D01*
G37*
G36*
X202430432Y-110250000D02*
G01*
X202430432Y-108843161D01*
X202144668Y-108843161D01*
X202144668Y-108995080D01*
X202065277Y-108929213D01*
X201982250Y-108875281D01*
X201977117Y-108872470D01*
X201885038Y-108838764D01*
X201781411Y-108827573D01*
X201773907Y-108827529D01*
X201773907Y-109129902D01*
X201858904Y-109113293D01*
X201953670Y-109128436D01*
X202040338Y-109174862D01*
X202045505Y-109179239D01*
X202108218Y-109255888D01*
X202117313Y-109273517D01*
X202142504Y-109371462D01*
X202144668Y-109417620D01*
X202144668Y-110250000D01*
X202430432Y-110250000D01*
G37*
G36*
X200918569Y-110250000D02*
G01*
X200918569Y-108534926D01*
X201258066Y-108534926D01*
X201258066Y-108249162D01*
X200320174Y-108249162D01*
X200320174Y-108534926D01*
X200632805Y-108534926D01*
X200632805Y-110250000D01*
X200918569Y-110250000D01*
G37*
G36*
X200016931Y-108828399D02*
G01*
X200115001Y-108843246D01*
X200211730Y-108883217D01*
X200217519Y-108886702D01*
X200294162Y-108947452D01*
X200354856Y-109029762D01*
X200370622Y-109062362D01*
X200396866Y-109157257D01*
X200403713Y-109213105D01*
X200408101Y-109315038D01*
X200408101Y-109778611D01*
X200406774Y-109835545D01*
X200396866Y-109935903D01*
X200390027Y-109971013D01*
X200354856Y-110063886D01*
X200351700Y-110069560D01*
X200289647Y-110150741D01*
X200211730Y-110210432D01*
X200181443Y-110226334D01*
X200086234Y-110256521D01*
X199984096Y-110265631D01*
X199951154Y-110264769D01*
X199852947Y-110250052D01*
X199756461Y-110210432D01*
X199750643Y-110206947D01*
X199673663Y-110146196D01*
X199612847Y-110063886D01*
X199597082Y-110031249D01*
X199570837Y-109935903D01*
X199563990Y-109879895D01*
X199559602Y-109778611D01*
X199559602Y-109315038D01*
X199560573Y-109273028D01*
X199845366Y-109273028D01*
X199845366Y-109820132D01*
X199846688Y-109848766D01*
X199882979Y-109940300D01*
X199890176Y-109947371D01*
X199984096Y-109979867D01*
X199991933Y-109979712D01*
X200085212Y-109940300D01*
X200101454Y-109917768D01*
X200122337Y-109820132D01*
X200122337Y-109273028D01*
X200121032Y-109244412D01*
X200085212Y-109153349D01*
X200077932Y-109146191D01*
X199984096Y-109113293D01*
X199972334Y-109113645D01*
X199882979Y-109153349D01*
X199866523Y-109175667D01*
X199845366Y-109273028D01*
X199560573Y-109273028D01*
X199560929Y-109257605D01*
X199570837Y-109157257D01*
X199577676Y-109122361D01*
X199612847Y-109029762D01*
X199616004Y-109024088D01*
X199678194Y-108942908D01*
X199756461Y-108883217D01*
X199786620Y-108867174D01*
X199881722Y-108836720D01*
X199984096Y-108827529D01*
X200016931Y-108828399D01*
G37*
G36*
X197910474Y-108249162D02*
G01*
X197910474Y-109799616D01*
X197920262Y-109899664D01*
X197945157Y-109980844D01*
X197993139Y-110067999D01*
X198042854Y-110127878D01*
X198120477Y-110192003D01*
X198189399Y-110229483D01*
X198285828Y-110258712D01*
X198365743Y-110265631D01*
X198467787Y-110254194D01*
X198541598Y-110229483D01*
X198627258Y-110179303D01*
X198686189Y-110127878D01*
X198748975Y-110049619D01*
X198785840Y-109980844D01*
X198814674Y-109882630D01*
X198821500Y-109799616D01*
X198821500Y-108249162D01*
X198535736Y-108249162D01*
X198535736Y-109772260D01*
X198522087Y-109869690D01*
X198487376Y-109929553D01*
X198401097Y-109976722D01*
X198366231Y-109979867D01*
X198270335Y-109951565D01*
X198244598Y-109929553D01*
X198201953Y-109838892D01*
X198196238Y-109772260D01*
X198196238Y-108249162D01*
X197910474Y-108249162D01*
G37*
G36*
X196718569Y-108834368D02*
G01*
X197004333Y-108834368D01*
X197004333Y-108770376D01*
X197018243Y-108668968D01*
X197048297Y-108601849D01*
X197126722Y-108540559D01*
X197196308Y-108530530D01*
X197286678Y-108553000D01*
X197342365Y-108608688D01*
X197371674Y-108691242D01*
X197379490Y-108786985D01*
X197375582Y-108885170D01*
X197355066Y-108955024D01*
X197307194Y-109008269D01*
X197222198Y-109052233D01*
X197009706Y-109138695D01*
X196921539Y-109181067D01*
X196860230Y-109224180D01*
X196793189Y-109298504D01*
X196770348Y-109337020D01*
X196739444Y-109432419D01*
X196729804Y-109488939D01*
X196720719Y-109592133D01*
X196718569Y-109682868D01*
X196722681Y-109781570D01*
X196736305Y-109881374D01*
X196743482Y-109915387D01*
X196773599Y-110009160D01*
X196824082Y-110098569D01*
X196896566Y-110172099D01*
X196977466Y-110221179D01*
X197075082Y-110253085D01*
X197174616Y-110264936D01*
X197208032Y-110265631D01*
X197307316Y-110256594D01*
X197400006Y-110229483D01*
X197487436Y-110182837D01*
X197552903Y-110128855D01*
X197616547Y-110049823D01*
X197654508Y-109979378D01*
X197683856Y-109884277D01*
X197692121Y-109793265D01*
X197692121Y-109687264D01*
X197406357Y-109687264D01*
X197406357Y-109776168D01*
X197386792Y-109872229D01*
X197360928Y-109917341D01*
X197274584Y-109972479D01*
X197208032Y-109979867D01*
X197109809Y-109964913D01*
X197096657Y-109958862D01*
X197034619Y-109899267D01*
X197008729Y-109805478D01*
X197004440Y-109704936D01*
X197004333Y-109684333D01*
X197007109Y-109586618D01*
X197009706Y-109556350D01*
X197031200Y-109475261D01*
X197081514Y-109424947D01*
X197164556Y-109382937D01*
X197363370Y-109299406D01*
X197454900Y-109253030D01*
X197534756Y-109192618D01*
X197596040Y-109115366D01*
X197604193Y-109100104D01*
X197638958Y-109007356D01*
X197658039Y-108910117D01*
X197665016Y-108812079D01*
X197665254Y-108788939D01*
X197658707Y-108686886D01*
X197639065Y-108589556D01*
X197635457Y-108576936D01*
X197597599Y-108483269D01*
X197544598Y-108403524D01*
X197474531Y-108334981D01*
X197398053Y-108288241D01*
X197300111Y-108255635D01*
X197200388Y-108244936D01*
X197185073Y-108244766D01*
X197085422Y-108254535D01*
X196994563Y-108283845D01*
X196909315Y-108332535D01*
X196845087Y-108387404D01*
X196783928Y-108465821D01*
X196739449Y-108560294D01*
X196719681Y-108662494D01*
X196718569Y-108694661D01*
X196718569Y-108834368D01*
G37*
G36*
X196494354Y-110250000D02*
G01*
X196099169Y-110250000D01*
X196064296Y-110249446D01*
X195966912Y-110241146D01*
X195867014Y-110218873D01*
X195770935Y-110176817D01*
X195685910Y-110108339D01*
X195670235Y-110090144D01*
X195617646Y-110007636D01*
X195581239Y-109909557D01*
X195562656Y-109810966D01*
X195556461Y-109700453D01*
X195556461Y-109620830D01*
X195842226Y-109620830D01*
X195842592Y-109657253D01*
X195848087Y-109758094D01*
X195849262Y-109769759D01*
X195877885Y-109867027D01*
X195879495Y-109869847D01*
X195951646Y-109938346D01*
X195989396Y-109953086D01*
X196086468Y-109964235D01*
X196208590Y-109964235D01*
X196208590Y-109312107D01*
X196083538Y-109312107D01*
X196055493Y-109312760D01*
X195958974Y-109330669D01*
X195883747Y-109388799D01*
X195882206Y-109391349D01*
X195850530Y-109486496D01*
X195846516Y-109520229D01*
X195842226Y-109620830D01*
X195556461Y-109620830D01*
X195556461Y-109586636D01*
X195558247Y-109528407D01*
X195572536Y-109426374D01*
X195607264Y-109331646D01*
X195613776Y-109320159D01*
X195676853Y-109245198D01*
X195765045Y-109189986D01*
X195678849Y-109132949D01*
X195609706Y-109056629D01*
X195606461Y-109051324D01*
X195570139Y-108958932D01*
X195562926Y-108921694D01*
X195556461Y-108822644D01*
X195556461Y-108792847D01*
X195842226Y-108792847D01*
X195842273Y-108801028D01*
X195852852Y-108902649D01*
X195890586Y-108993614D01*
X195893700Y-108997822D01*
X195981078Y-109050716D01*
X196081095Y-109062002D01*
X196208590Y-109062002D01*
X196208590Y-108534926D01*
X196091842Y-108534926D01*
X196083074Y-108534990D01*
X195984718Y-108547362D01*
X195896448Y-108599895D01*
X195852604Y-108692682D01*
X195842226Y-108792847D01*
X195556461Y-108792847D01*
X195556461Y-108749860D01*
X195562472Y-108660229D01*
X195583817Y-108562281D01*
X195614057Y-108487135D01*
X195672721Y-108402058D01*
X195744162Y-108339654D01*
X195833433Y-108291172D01*
X195871695Y-108276895D01*
X195972193Y-108255070D01*
X196070837Y-108249162D01*
X196494354Y-108249162D01*
X196494354Y-110250000D01*
G37*
G36*
X194782700Y-110250000D02*
G01*
X194496936Y-110250000D01*
X194496936Y-109472819D01*
X194348925Y-109472819D01*
X194280774Y-109470201D01*
X194177974Y-109453531D01*
X194086608Y-109418108D01*
X194068275Y-109407372D01*
X193987174Y-109342099D01*
X193927362Y-109263747D01*
X193887112Y-109184800D01*
X193860439Y-109089357D01*
X193856775Y-109065376D01*
X193847387Y-108963753D01*
X193844808Y-108860746D01*
X193846578Y-108775292D01*
X193849761Y-108735694D01*
X194130572Y-108735694D01*
X194130572Y-108766438D01*
X194130572Y-108864166D01*
X194130572Y-108895187D01*
X194130572Y-108996057D01*
X194130594Y-108999733D01*
X194153042Y-109095708D01*
X194223872Y-109163119D01*
X194261402Y-109176746D01*
X194358695Y-109187055D01*
X194496936Y-109187055D01*
X194496936Y-108534926D01*
X194348436Y-108534926D01*
X194318486Y-108535785D01*
X194220453Y-108559351D01*
X194153042Y-108629204D01*
X194149026Y-108637942D01*
X194130572Y-108735694D01*
X193849761Y-108735694D01*
X193854796Y-108673046D01*
X193873140Y-108574982D01*
X193876800Y-108561839D01*
X193915683Y-108470076D01*
X193974745Y-108390334D01*
X194047653Y-108326772D01*
X194139364Y-108280425D01*
X194150773Y-108276639D01*
X194250150Y-108255146D01*
X194348925Y-108249162D01*
X194782700Y-108249162D01*
X194782700Y-110250000D01*
G37*
G36*
X193378838Y-108833607D02*
G01*
X193474047Y-108859281D01*
X193530238Y-108886323D01*
X193609846Y-108945743D01*
X193630972Y-108968077D01*
X193686385Y-109051577D01*
X193718709Y-109149007D01*
X193728060Y-109248604D01*
X193456461Y-109248604D01*
X193451247Y-109228630D01*
X193395889Y-109147976D01*
X193387098Y-109141778D01*
X193292819Y-109113293D01*
X193268707Y-109114402D01*
X193180956Y-109158722D01*
X193170331Y-109176434D01*
X193149692Y-109273028D01*
X193149692Y-109414200D01*
X193191702Y-109405896D01*
X193225408Y-109405896D01*
X193256182Y-109405896D01*
X193287445Y-109405896D01*
X193312217Y-109406154D01*
X193409933Y-109413224D01*
X193508729Y-109435205D01*
X193568928Y-109461378D01*
X193646971Y-109523621D01*
X193686868Y-109583180D01*
X193719755Y-109676517D01*
X193722121Y-109687989D01*
X193735555Y-109788007D01*
X193739295Y-109887543D01*
X193733685Y-109982231D01*
X193709986Y-110079518D01*
X193693957Y-110114445D01*
X193632316Y-110192847D01*
X193620287Y-110202929D01*
X193532665Y-110250000D01*
X193529430Y-110250961D01*
X193430083Y-110265631D01*
X193364312Y-110260725D01*
X193268883Y-110224110D01*
X193218727Y-110180860D01*
X193155066Y-110104919D01*
X193149692Y-110104919D01*
X193149692Y-110250000D01*
X192863928Y-110250000D01*
X192863928Y-109633531D01*
X193149692Y-109633531D01*
X193149692Y-109830390D01*
X193152938Y-109876956D01*
X193190725Y-109967166D01*
X193210029Y-109986010D01*
X193304542Y-110015526D01*
X193329839Y-110013723D01*
X193414452Y-109964235D01*
X193435060Y-109928868D01*
X193453531Y-109829902D01*
X193444257Y-109752576D01*
X193387585Y-109669190D01*
X193329490Y-109640409D01*
X193228339Y-109624738D01*
X193149692Y-109633531D01*
X192863928Y-109633531D01*
X192863928Y-109271563D01*
X192871442Y-109173374D01*
X192898122Y-109077145D01*
X192926630Y-109018710D01*
X192988492Y-108938415D01*
X193035639Y-108900863D01*
X193126734Y-108855373D01*
X193198127Y-108836339D01*
X193296238Y-108827529D01*
X193378838Y-108833607D01*
G37*
G36*
X192078443Y-108973098D02*
G01*
X192113491Y-108928605D01*
X192192260Y-108865143D01*
X192243964Y-108842222D01*
X192341737Y-108827529D01*
X192408657Y-108831801D01*
X192501472Y-108863677D01*
X192541068Y-108892110D01*
X192603176Y-108970330D01*
X192632875Y-109071284D01*
X192634821Y-109090716D01*
X192640011Y-109193176D01*
X192641179Y-109295987D01*
X192641179Y-109830879D01*
X192639325Y-109917836D01*
X192629944Y-110016503D01*
X192626111Y-110037502D01*
X192594284Y-110132763D01*
X192540389Y-110202830D01*
X192447882Y-110252656D01*
X192347599Y-110265631D01*
X192255764Y-110254884D01*
X192186399Y-110224110D01*
X192130711Y-110179169D01*
X192078443Y-110122505D01*
X192078443Y-110250000D01*
X191792679Y-110250000D01*
X191792679Y-109265212D01*
X192078443Y-109265212D01*
X192078443Y-109810362D01*
X192080290Y-109842750D01*
X192117034Y-109935903D01*
X192126948Y-109947238D01*
X192218150Y-109984263D01*
X192235385Y-109983447D01*
X192322686Y-109931995D01*
X192341320Y-109891800D01*
X192355415Y-109793265D01*
X192355415Y-109278890D01*
X192354711Y-109258547D01*
X192326594Y-109163119D01*
X192311554Y-109143704D01*
X192218150Y-109113293D01*
X192207065Y-109113671D01*
X192118499Y-109156280D01*
X192106960Y-109170274D01*
X192078443Y-109265212D01*
X191792679Y-109265212D01*
X191792679Y-108249162D01*
X192078443Y-108249162D01*
X192078443Y-108973098D01*
G37*
G36*
X191057020Y-109251535D02*
G01*
X191085443Y-109157181D01*
X191094145Y-109147976D01*
X191178653Y-109113293D01*
X191267069Y-109155792D01*
X191298301Y-109249105D01*
X191298332Y-109252512D01*
X191278792Y-109327250D01*
X191198597Y-109386128D01*
X191179630Y-109393684D01*
X191015010Y-109459630D01*
X190926548Y-109501170D01*
X190845582Y-109562353D01*
X190799099Y-109622784D01*
X190758694Y-109717138D01*
X190740916Y-109818972D01*
X190739993Y-109849441D01*
X190751531Y-109948154D01*
X190772721Y-110011130D01*
X190822791Y-110097913D01*
X190861625Y-110143021D01*
X190941844Y-110205341D01*
X190998401Y-110233391D01*
X191097540Y-110260310D01*
X191171325Y-110265631D01*
X191275653Y-110254802D01*
X191368819Y-110222316D01*
X191450821Y-110168172D01*
X191465882Y-110154745D01*
X191532019Y-110076282D01*
X191563091Y-110018946D01*
X191591677Y-109924688D01*
X191599727Y-109828925D01*
X191312986Y-109828925D01*
X191281168Y-109922955D01*
X191275861Y-109931995D01*
X191189789Y-109979119D01*
X191171814Y-109979867D01*
X191079222Y-109947371D01*
X191070697Y-109940300D01*
X191026854Y-109851273D01*
X191025757Y-109829902D01*
X191054179Y-109734296D01*
X191056043Y-109731716D01*
X191138150Y-109672455D01*
X191166441Y-109660886D01*
X191300774Y-109612037D01*
X191392090Y-109568669D01*
X191473032Y-109506493D01*
X191508869Y-109466468D01*
X191557575Y-109380950D01*
X191581451Y-109281565D01*
X191584096Y-109231018D01*
X191572386Y-109131662D01*
X191550879Y-109068841D01*
X191499626Y-108983013D01*
X191459532Y-108939392D01*
X191378879Y-108879166D01*
X191330083Y-108856350D01*
X191232272Y-108831582D01*
X191169371Y-108827529D01*
X191071755Y-108838723D01*
X191010125Y-108859281D01*
X190923001Y-108911684D01*
X190884584Y-108947697D01*
X190827416Y-109027953D01*
X190801542Y-109083984D01*
X190776254Y-109180993D01*
X190771256Y-109251535D01*
X191057020Y-109251535D01*
G37*
G36*
X206863033Y-111801900D02*
G01*
X206960160Y-111828004D01*
X207003828Y-111849146D01*
X207082770Y-111909092D01*
X207110801Y-111944183D01*
X207157020Y-112034145D01*
X207171482Y-112083985D01*
X207182421Y-112183621D01*
X207180669Y-112230453D01*
X207164856Y-112328976D01*
X207132595Y-112423468D01*
X207112783Y-112465726D01*
X207063376Y-112555635D01*
X207005101Y-112643286D01*
X207073994Y-112711512D01*
X207141072Y-112790417D01*
X207199030Y-112873363D01*
X207242971Y-112963351D01*
X207268673Y-113063382D01*
X207276210Y-113163035D01*
X207269126Y-113256150D01*
X207243970Y-113352079D01*
X207213744Y-113417182D01*
X207155066Y-113496671D01*
X207110484Y-113539215D01*
X207023663Y-113592414D01*
X206960458Y-113613921D01*
X206863440Y-113625631D01*
X206856079Y-113625591D01*
X206752309Y-113615373D01*
X206655345Y-113584598D01*
X206644133Y-113579309D01*
X206556083Y-113525453D01*
X206481444Y-113461500D01*
X206381304Y-113610000D01*
X206095540Y-113610000D01*
X206301961Y-113285157D01*
X206603077Y-113285157D01*
X206615579Y-113300046D01*
X206691981Y-113365757D01*
X206717717Y-113381745D01*
X206814591Y-113406789D01*
X206888536Y-113392484D01*
X206966022Y-113332051D01*
X207011085Y-113249497D01*
X207026106Y-113152288D01*
X207019253Y-113079545D01*
X206984584Y-112984249D01*
X206944420Y-112920389D01*
X206881514Y-112844054D01*
X206603077Y-113285157D01*
X206301961Y-113285157D01*
X206310963Y-113270990D01*
X206098471Y-112994019D01*
X206274815Y-112869455D01*
X206430642Y-113081458D01*
X206467308Y-113029190D01*
X206522423Y-112946209D01*
X206577676Y-112857732D01*
X206594018Y-112833412D01*
X206647041Y-112750753D01*
X206650882Y-112744447D01*
X206707124Y-112660383D01*
X206699402Y-112653709D01*
X206625748Y-112584863D01*
X206558581Y-112512200D01*
X206492191Y-112427864D01*
X206448034Y-112355423D01*
X206413690Y-112263420D01*
X206401024Y-112160174D01*
X206650949Y-112160174D01*
X206650965Y-112163496D01*
X206668046Y-112260314D01*
X206710055Y-112346775D01*
X206766231Y-112418583D01*
X206822407Y-112476713D01*
X206858562Y-112415039D01*
X206901542Y-112325771D01*
X206916418Y-112284267D01*
X206932316Y-112185575D01*
X206930942Y-112161658D01*
X206893237Y-112068339D01*
X206880253Y-112053140D01*
X206788702Y-112015582D01*
X206776856Y-112015981D01*
X206687585Y-112061011D01*
X206683149Y-112066722D01*
X206650949Y-112160174D01*
X206401024Y-112160174D01*
X206400844Y-112158709D01*
X206407072Y-112085955D01*
X206439770Y-111987929D01*
X206500495Y-111903230D01*
X206533220Y-111875381D01*
X206620662Y-111826538D01*
X206687221Y-111806169D01*
X206786259Y-111796741D01*
X206863033Y-111801900D01*
G37*
G36*
X205378932Y-113610000D02*
G01*
X205378932Y-111609162D01*
X205093168Y-111609162D01*
X205093168Y-112522630D01*
X205087794Y-112522630D01*
X204670628Y-111609162D01*
X204384863Y-111609162D01*
X204774187Y-112410279D01*
X204312079Y-113610000D01*
X204614452Y-113610000D01*
X204939295Y-112721933D01*
X205093168Y-113011605D01*
X205093168Y-113610000D01*
X205378932Y-113610000D01*
G37*
G36*
X203860337Y-112188399D02*
G01*
X203958407Y-112203246D01*
X204055136Y-112243217D01*
X204060924Y-112246702D01*
X204137568Y-112307452D01*
X204198262Y-112389762D01*
X204214027Y-112422362D01*
X204240272Y-112517257D01*
X204247118Y-112573105D01*
X204251507Y-112675038D01*
X204251507Y-113138611D01*
X204250179Y-113195545D01*
X204240272Y-113295903D01*
X204233433Y-113331013D01*
X204198262Y-113423886D01*
X204195105Y-113429560D01*
X204133052Y-113510741D01*
X204055136Y-113570432D01*
X204024849Y-113586334D01*
X203929640Y-113616521D01*
X203827501Y-113625631D01*
X203745756Y-113619273D01*
X203651646Y-113592414D01*
X203596119Y-113563998D01*
X203517313Y-113501067D01*
X203496885Y-113479095D01*
X203443304Y-113396740D01*
X203412049Y-113300359D01*
X203403007Y-113201625D01*
X203688771Y-113201625D01*
X203720523Y-113293949D01*
X203732321Y-113309554D01*
X203827501Y-113339867D01*
X203835338Y-113339730D01*
X203928618Y-113304696D01*
X203935252Y-113297748D01*
X203965743Y-113203579D01*
X203965743Y-113016001D01*
X203403007Y-113016001D01*
X203403007Y-112635471D01*
X203688771Y-112635471D01*
X203688771Y-112797159D01*
X203965743Y-112797159D01*
X203965743Y-112635471D01*
X203964438Y-112606339D01*
X203928618Y-112513838D01*
X203921338Y-112506592D01*
X203827501Y-112473293D01*
X203815739Y-112473650D01*
X203726385Y-112513838D01*
X203708202Y-112539653D01*
X203688771Y-112635471D01*
X203403007Y-112635471D01*
X203403007Y-112627166D01*
X203403990Y-112592283D01*
X203418738Y-112494382D01*
X203455880Y-112397477D01*
X203514870Y-112313070D01*
X203564067Y-112269635D01*
X203650181Y-112221235D01*
X203728799Y-112197042D01*
X203827501Y-112187529D01*
X203860337Y-112188399D01*
G37*
G36*
X202824747Y-112188399D02*
G01*
X202922817Y-112203246D01*
X203019546Y-112243217D01*
X203025335Y-112246702D01*
X203101978Y-112307452D01*
X203162672Y-112389762D01*
X203178437Y-112422362D01*
X203204682Y-112517257D01*
X203211528Y-112573105D01*
X203215917Y-112675038D01*
X203215917Y-113138611D01*
X203214590Y-113195545D01*
X203204682Y-113295903D01*
X203197843Y-113331013D01*
X203162672Y-113423886D01*
X203159516Y-113429560D01*
X203097463Y-113510741D01*
X203019546Y-113570432D01*
X202989259Y-113586334D01*
X202894050Y-113616521D01*
X202791912Y-113625631D01*
X202710167Y-113619273D01*
X202616057Y-113592414D01*
X202560530Y-113563998D01*
X202481723Y-113501067D01*
X202461295Y-113479095D01*
X202407715Y-113396740D01*
X202376459Y-113300359D01*
X202367418Y-113201625D01*
X202653182Y-113201625D01*
X202684933Y-113293949D01*
X202696731Y-113309554D01*
X202791912Y-113339867D01*
X202799748Y-113339730D01*
X202893028Y-113304696D01*
X202899663Y-113297748D01*
X202930153Y-113203579D01*
X202930153Y-113016001D01*
X202367418Y-113016001D01*
X202367418Y-112635471D01*
X202653182Y-112635471D01*
X202653182Y-112797159D01*
X202930153Y-112797159D01*
X202930153Y-112635471D01*
X202928848Y-112606339D01*
X202893028Y-112513838D01*
X202885748Y-112506592D01*
X202791912Y-112473293D01*
X202780149Y-112473650D01*
X202690795Y-112513838D01*
X202672613Y-112539653D01*
X202653182Y-112635471D01*
X202367418Y-112635471D01*
X202367418Y-112627166D01*
X202368401Y-112592283D01*
X202383148Y-112494382D01*
X202420290Y-112397477D01*
X202479281Y-112313070D01*
X202528477Y-112269635D01*
X202614591Y-112221235D01*
X202693209Y-112197042D01*
X202791912Y-112187529D01*
X202824747Y-112188399D01*
G37*
G36*
X201660729Y-112192493D02*
G01*
X201754856Y-112229539D01*
X201792795Y-112260672D01*
X201863300Y-112332609D01*
X201863300Y-112203161D01*
X202149064Y-112203161D01*
X202149064Y-114172735D01*
X201863300Y-114172735D01*
X201863300Y-113480062D01*
X201828531Y-113524555D01*
X201749972Y-113588018D01*
X201697971Y-113610938D01*
X201600006Y-113625631D01*
X201533018Y-113621417D01*
X201437829Y-113589972D01*
X201399212Y-113561372D01*
X201338400Y-113482911D01*
X201308869Y-113381877D01*
X201306923Y-113363200D01*
X201301733Y-113261778D01*
X201300565Y-113157662D01*
X201300565Y-112663314D01*
X201586329Y-112663314D01*
X201586329Y-113174759D01*
X201587033Y-113195102D01*
X201615150Y-113290530D01*
X201627726Y-113307297D01*
X201723105Y-113339867D01*
X201734195Y-113339493D01*
X201823244Y-113297369D01*
X201834784Y-113283387D01*
X201863300Y-113188925D01*
X201863300Y-112646217D01*
X201861454Y-112614043D01*
X201824710Y-112521653D01*
X201814681Y-112510319D01*
X201723105Y-112473293D01*
X201705878Y-112474110D01*
X201619057Y-112525561D01*
X201600424Y-112565421D01*
X201586329Y-112663314D01*
X201300565Y-112663314D01*
X201300565Y-112622770D01*
X201302419Y-112535813D01*
X201311800Y-112437145D01*
X201315633Y-112416017D01*
X201347459Y-112320886D01*
X201402452Y-112250561D01*
X201495142Y-112200552D01*
X201594633Y-112187529D01*
X201660729Y-112192493D01*
G37*
G36*
X200540969Y-113610000D02*
G01*
X200540969Y-111609162D01*
X199696866Y-111609162D01*
X199696866Y-111894926D01*
X200255205Y-111894926D01*
X200255205Y-112480132D01*
X199759392Y-112480132D01*
X199759392Y-112765896D01*
X200255205Y-112765896D01*
X200255205Y-113610000D01*
X200540969Y-113610000D01*
G37*
G36*
X199536643Y-111609162D02*
G01*
X199250879Y-111609162D01*
X199250879Y-113206510D01*
X199232175Y-113305039D01*
X199222547Y-113317885D01*
X199128987Y-113354158D01*
X199114591Y-113355987D01*
X199114591Y-113625631D01*
X199212361Y-113621219D01*
X199289469Y-113610000D01*
X199381943Y-113577502D01*
X199422826Y-113550404D01*
X199486487Y-113475366D01*
X199507334Y-113430725D01*
X199530203Y-113334796D01*
X199536614Y-113234886D01*
X199536643Y-113227027D01*
X199536643Y-111609162D01*
G37*
G36*
X198137131Y-112203161D02*
G01*
X198137131Y-113610000D01*
X198422896Y-113610000D01*
X198422896Y-113472247D01*
X198428269Y-113472247D01*
X198494396Y-113550205D01*
X198535247Y-113582644D01*
X198626762Y-113619586D01*
X198694494Y-113625631D01*
X198793412Y-113610175D01*
X198800006Y-113608046D01*
X198886400Y-113556029D01*
X198894284Y-113548450D01*
X198950792Y-113465177D01*
X198960718Y-113441472D01*
X198982687Y-113343147D01*
X198985631Y-113281737D01*
X198985631Y-112203161D01*
X198699867Y-112203161D01*
X198699867Y-113174270D01*
X198679808Y-113271632D01*
X198664207Y-113295903D01*
X198574701Y-113339481D01*
X198562602Y-113339867D01*
X198468602Y-113309754D01*
X198453182Y-113290530D01*
X198425291Y-113195942D01*
X198422896Y-113146427D01*
X198422896Y-112203161D01*
X198137131Y-112203161D01*
G37*
G36*
X197401472Y-112611535D02*
G01*
X197429896Y-112517181D01*
X197438597Y-112507976D01*
X197523105Y-112473293D01*
X197611521Y-112515792D01*
X197642753Y-112609105D01*
X197642784Y-112612512D01*
X197623244Y-112687250D01*
X197543049Y-112746128D01*
X197524082Y-112753684D01*
X197359462Y-112819630D01*
X197271000Y-112861170D01*
X197190034Y-112922353D01*
X197143551Y-112982784D01*
X197103146Y-113077138D01*
X197085368Y-113178972D01*
X197084445Y-113209441D01*
X197095983Y-113308154D01*
X197117173Y-113371130D01*
X197167243Y-113457913D01*
X197206078Y-113503021D01*
X197286296Y-113565341D01*
X197342854Y-113593391D01*
X197441992Y-113620310D01*
X197515778Y-113625631D01*
X197620106Y-113614802D01*
X197713271Y-113582316D01*
X197795273Y-113528172D01*
X197810334Y-113514745D01*
X197876471Y-113436282D01*
X197907543Y-113378946D01*
X197936130Y-113284688D01*
X197944180Y-113188925D01*
X197657438Y-113188925D01*
X197625620Y-113282955D01*
X197620314Y-113291995D01*
X197534241Y-113339119D01*
X197516266Y-113339867D01*
X197423675Y-113307371D01*
X197415150Y-113300300D01*
X197371306Y-113211273D01*
X197370209Y-113189902D01*
X197398632Y-113094296D01*
X197400495Y-113091716D01*
X197482603Y-113032455D01*
X197510893Y-113020886D01*
X197645226Y-112972037D01*
X197736543Y-112928669D01*
X197817484Y-112866493D01*
X197853321Y-112826468D01*
X197902028Y-112740950D01*
X197925903Y-112641565D01*
X197928548Y-112591018D01*
X197916838Y-112491662D01*
X197895331Y-112428841D01*
X197844078Y-112343013D01*
X197803984Y-112299392D01*
X197723331Y-112239166D01*
X197674535Y-112216350D01*
X197576724Y-112191582D01*
X197513824Y-112187529D01*
X197416208Y-112198723D01*
X197354577Y-112219281D01*
X197267453Y-112271684D01*
X197229036Y-112307697D01*
X197171868Y-112387953D01*
X197145994Y-112443984D01*
X197120706Y-112540993D01*
X197115708Y-112611535D01*
X197401472Y-112611535D01*
G37*
G36*
X196912498Y-113610000D02*
G01*
X196912498Y-111609162D01*
X196626734Y-111609162D01*
X196626734Y-112341402D01*
X196620872Y-112341402D01*
X196554955Y-112263444D01*
X196514382Y-112231004D01*
X196422867Y-112193643D01*
X196355136Y-112187529D01*
X196256217Y-112203414D01*
X196249623Y-112205603D01*
X196163229Y-112257619D01*
X196155345Y-112265198D01*
X196098837Y-112348472D01*
X196088911Y-112372177D01*
X196066942Y-112470070D01*
X196063998Y-112531423D01*
X196063998Y-113610000D01*
X196349762Y-113610000D01*
X196349762Y-112638890D01*
X196369821Y-112541803D01*
X196385422Y-112517745D01*
X196474527Y-112473684D01*
X196486538Y-112473293D01*
X196580836Y-112503704D01*
X196596448Y-112523119D01*
X196624338Y-112617257D01*
X196626734Y-112666734D01*
X196626734Y-113610000D01*
X196912498Y-113610000D01*
G37*
G36*
X144924053Y-119550000D02*
G01*
X144924053Y-117834926D01*
X145263551Y-117834926D01*
X145263551Y-117549162D01*
X144325658Y-117549162D01*
X144325658Y-117834926D01*
X144638289Y-117834926D01*
X144638289Y-119550000D01*
X144924053Y-119550000D01*
G37*
G36*
X144382322Y-119550000D02*
G01*
X144382322Y-118143161D01*
X144096558Y-118143161D01*
X144096558Y-118295080D01*
X144017167Y-118229213D01*
X143934140Y-118175281D01*
X143929008Y-118172470D01*
X143836928Y-118138764D01*
X143733301Y-118127573D01*
X143725798Y-118127529D01*
X143725798Y-118429902D01*
X143810794Y-118413293D01*
X143905560Y-118428436D01*
X143992228Y-118474862D01*
X143997396Y-118479239D01*
X144060108Y-118555888D01*
X144069203Y-118573517D01*
X144094394Y-118671462D01*
X144096558Y-118717620D01*
X144096558Y-119550000D01*
X144382322Y-119550000D01*
G37*
G36*
X143604653Y-119550000D02*
G01*
X143604653Y-118143161D01*
X143318889Y-118143161D01*
X143318889Y-119550000D01*
X143604653Y-119550000D01*
G37*
G36*
X143604653Y-117834926D02*
G01*
X143604653Y-117549162D01*
X143318889Y-117549162D01*
X143318889Y-117834926D01*
X143604653Y-117834926D01*
G37*
G36*
X143084904Y-119550000D02*
G01*
X143084904Y-118143161D01*
X142799140Y-118143161D01*
X142799140Y-118280914D01*
X142793278Y-118280914D01*
X142727361Y-118203386D01*
X142686788Y-118171004D01*
X142595274Y-118133643D01*
X142527542Y-118127529D01*
X142429745Y-118143373D01*
X142375135Y-118172470D01*
X142301797Y-118237517D01*
X142275484Y-118269678D01*
X142201612Y-118200325D01*
X142159224Y-118169539D01*
X142066076Y-118134462D01*
X141981904Y-118127529D01*
X141883875Y-118142373D01*
X141873460Y-118145603D01*
X141787834Y-118192795D01*
X141773809Y-118205198D01*
X141714489Y-118284685D01*
X141701513Y-118312177D01*
X141676959Y-118410070D01*
X141673669Y-118471423D01*
X141673669Y-119550000D01*
X141959433Y-119550000D01*
X141959433Y-118578890D01*
X141979492Y-118481803D01*
X141995093Y-118457745D01*
X142084599Y-118413684D01*
X142096698Y-118413293D01*
X142190996Y-118443704D01*
X142206607Y-118463119D01*
X142234048Y-118557257D01*
X142236405Y-118606734D01*
X142236405Y-119550000D01*
X142522169Y-119550000D01*
X142522169Y-118578890D01*
X142542227Y-118481803D01*
X142557828Y-118457745D01*
X142646933Y-118413684D01*
X142658945Y-118413293D01*
X142753243Y-118443704D01*
X142768854Y-118463119D01*
X142796744Y-118557257D01*
X142799140Y-118606734D01*
X142799140Y-119550000D01*
X143084904Y-119550000D01*
G37*
G36*
X140908212Y-119550000D02*
G01*
X140908212Y-117549162D01*
X140064109Y-117549162D01*
X140064109Y-117834926D01*
X140622448Y-117834926D01*
X140622448Y-118420132D01*
X140126635Y-118420132D01*
X140126635Y-118705896D01*
X140622448Y-118705896D01*
X140622448Y-119550000D01*
X140908212Y-119550000D01*
G37*
G36*
X139903885Y-117549162D02*
G01*
X139618121Y-117549162D01*
X139618121Y-119146510D01*
X139599418Y-119245039D01*
X139589789Y-119257885D01*
X139496229Y-119294158D01*
X139481834Y-119295987D01*
X139481834Y-119565631D01*
X139579603Y-119561219D01*
X139656712Y-119550000D01*
X139749186Y-119517502D01*
X139790068Y-119490404D01*
X139853730Y-119415366D01*
X139874576Y-119370725D01*
X139897445Y-119274796D01*
X139903857Y-119174886D01*
X139903885Y-119167027D01*
X139903885Y-117549162D01*
G37*
G36*
X138504374Y-118143161D02*
G01*
X138504374Y-119550000D01*
X138790138Y-119550000D01*
X138790138Y-119412247D01*
X138795511Y-119412247D01*
X138861639Y-119490205D01*
X138902490Y-119522644D01*
X138994005Y-119559586D01*
X139061736Y-119565631D01*
X139160654Y-119550175D01*
X139167249Y-119548046D01*
X139253643Y-119496029D01*
X139261527Y-119488450D01*
X139318035Y-119405177D01*
X139327961Y-119381472D01*
X139349930Y-119283147D01*
X139352874Y-119221737D01*
X139352874Y-118143161D01*
X139067109Y-118143161D01*
X139067109Y-119114270D01*
X139047051Y-119211632D01*
X139031450Y-119235903D01*
X138941944Y-119279481D01*
X138929845Y-119279867D01*
X138835845Y-119249754D01*
X138820424Y-119230530D01*
X138792534Y-119135942D01*
X138790138Y-119086427D01*
X138790138Y-118143161D01*
X138504374Y-118143161D01*
G37*
G36*
X137768714Y-118551535D02*
G01*
X137797138Y-118457181D01*
X137805839Y-118447976D01*
X137890347Y-118413293D01*
X137978763Y-118455792D01*
X138009996Y-118549105D01*
X138010026Y-118552512D01*
X137990487Y-118627250D01*
X137910291Y-118686128D01*
X137891324Y-118693684D01*
X137726705Y-118759630D01*
X137638243Y-118801170D01*
X137557277Y-118862353D01*
X137510794Y-118922784D01*
X137470389Y-119017138D01*
X137452611Y-119118972D01*
X137451687Y-119149441D01*
X137463225Y-119248154D01*
X137484416Y-119311130D01*
X137534486Y-119397913D01*
X137573320Y-119443021D01*
X137653539Y-119505341D01*
X137710096Y-119533391D01*
X137809235Y-119560310D01*
X137883020Y-119565631D01*
X137987348Y-119554802D01*
X138080513Y-119522316D01*
X138162516Y-119468172D01*
X138177577Y-119454745D01*
X138243713Y-119376282D01*
X138274786Y-119318946D01*
X138303372Y-119224688D01*
X138311422Y-119128925D01*
X138024681Y-119128925D01*
X137992863Y-119222955D01*
X137987556Y-119231995D01*
X137901483Y-119279119D01*
X137883509Y-119279867D01*
X137790917Y-119247371D01*
X137782392Y-119240300D01*
X137738549Y-119151273D01*
X137737451Y-119129902D01*
X137765874Y-119034296D01*
X137767738Y-119031716D01*
X137849845Y-118972455D01*
X137878135Y-118960886D01*
X138012469Y-118912037D01*
X138103785Y-118868669D01*
X138184727Y-118806493D01*
X138220564Y-118766468D01*
X138269270Y-118680950D01*
X138293146Y-118581565D01*
X138295791Y-118531018D01*
X138284080Y-118431662D01*
X138262574Y-118368841D01*
X138211321Y-118283013D01*
X138171227Y-118239392D01*
X138090574Y-118179166D01*
X138041778Y-118156350D01*
X137943966Y-118131582D01*
X137881066Y-118127529D01*
X137783450Y-118138723D01*
X137721820Y-118159281D01*
X137634695Y-118211684D01*
X137596279Y-118247697D01*
X137539111Y-118327953D01*
X137513236Y-118383984D01*
X137487949Y-118480993D01*
X137482950Y-118551535D01*
X137768714Y-118551535D01*
G37*
G36*
X137279740Y-119550000D02*
G01*
X137279740Y-117549162D01*
X136993976Y-117549162D01*
X136993976Y-118281402D01*
X136988114Y-118281402D01*
X136922197Y-118203444D01*
X136881624Y-118171004D01*
X136790110Y-118133643D01*
X136722378Y-118127529D01*
X136623460Y-118143414D01*
X136616865Y-118145603D01*
X136530471Y-118197619D01*
X136522587Y-118205198D01*
X136466080Y-118288472D01*
X136456153Y-118312177D01*
X136434184Y-118410070D01*
X136431241Y-118471423D01*
X136431241Y-119550000D01*
X136717005Y-119550000D01*
X136717005Y-118578890D01*
X136737063Y-118481803D01*
X136752664Y-118457745D01*
X136841769Y-118413684D01*
X136853781Y-118413293D01*
X136948079Y-118443704D01*
X136963690Y-118463119D01*
X136991581Y-118557257D01*
X136993976Y-118606734D01*
X136993976Y-119550000D01*
X137279740Y-119550000D01*
G37*
G36*
X147827124Y-122910000D02*
G01*
X147827124Y-120909162D01*
X147541360Y-120909162D01*
X147541360Y-122910000D01*
X147827124Y-122910000D01*
G37*
G36*
X146792023Y-121911535D02*
G01*
X146820447Y-121817181D01*
X146829148Y-121807976D01*
X146913656Y-121773293D01*
X147002072Y-121815792D01*
X147033304Y-121909105D01*
X147033335Y-121912512D01*
X147013795Y-121987250D01*
X146933600Y-122046128D01*
X146914633Y-122053684D01*
X146750013Y-122119630D01*
X146661551Y-122161170D01*
X146580585Y-122222353D01*
X146534102Y-122282784D01*
X146493697Y-122377138D01*
X146475919Y-122478972D01*
X146474996Y-122509441D01*
X146486534Y-122608154D01*
X146507724Y-122671130D01*
X146557794Y-122757913D01*
X146596629Y-122803021D01*
X146676847Y-122865341D01*
X146733405Y-122893391D01*
X146832543Y-122920310D01*
X146906329Y-122925631D01*
X147010656Y-122914802D01*
X147103822Y-122882316D01*
X147185824Y-122828172D01*
X147200885Y-122814745D01*
X147267022Y-122736282D01*
X147298094Y-122678946D01*
X147326681Y-122584688D01*
X147334730Y-122488925D01*
X147047989Y-122488925D01*
X147016171Y-122582955D01*
X147010864Y-122591995D01*
X146924792Y-122639119D01*
X146906817Y-122639867D01*
X146814226Y-122607371D01*
X146805700Y-122600300D01*
X146761857Y-122511273D01*
X146760760Y-122489902D01*
X146789183Y-122394296D01*
X146791046Y-122391716D01*
X146873153Y-122332455D01*
X146901444Y-122320886D01*
X147035777Y-122272037D01*
X147127094Y-122228669D01*
X147208035Y-122166493D01*
X147243872Y-122126468D01*
X147292579Y-122040950D01*
X147316454Y-121941565D01*
X147319099Y-121891018D01*
X147307389Y-121791662D01*
X147285882Y-121728841D01*
X147234629Y-121643013D01*
X147194535Y-121599392D01*
X147113882Y-121539166D01*
X147065086Y-121516350D01*
X146967275Y-121491582D01*
X146904375Y-121487529D01*
X146806759Y-121498723D01*
X146745128Y-121519281D01*
X146658004Y-121571684D01*
X146619587Y-121607697D01*
X146562419Y-121687953D01*
X146536545Y-121743984D01*
X146511257Y-121840993D01*
X146506259Y-121911535D01*
X146792023Y-121911535D01*
G37*
G36*
X145943142Y-121488399D02*
G01*
X146041212Y-121503246D01*
X146137941Y-121543217D01*
X146143729Y-121546702D01*
X146220373Y-121607452D01*
X146281067Y-121689762D01*
X146296832Y-121722362D01*
X146323077Y-121817257D01*
X146329923Y-121873105D01*
X146334312Y-121975038D01*
X146334312Y-122438611D01*
X146332984Y-122495545D01*
X146323077Y-122595903D01*
X146316238Y-122631013D01*
X146281067Y-122723886D01*
X146277910Y-122729560D01*
X146215857Y-122810741D01*
X146137941Y-122870432D01*
X146107653Y-122886334D01*
X146012445Y-122916521D01*
X145910306Y-122925631D01*
X145877364Y-122924769D01*
X145779157Y-122910052D01*
X145682672Y-122870432D01*
X145676853Y-122866947D01*
X145599874Y-122806196D01*
X145539057Y-122723886D01*
X145523292Y-122691249D01*
X145497047Y-122595903D01*
X145490201Y-122539895D01*
X145485812Y-122438611D01*
X145485812Y-121975038D01*
X145486783Y-121933028D01*
X145771576Y-121933028D01*
X145771576Y-122480132D01*
X145772899Y-122508766D01*
X145809190Y-122600300D01*
X145816387Y-122607371D01*
X145910306Y-122639867D01*
X145918143Y-122639712D01*
X146011423Y-122600300D01*
X146027665Y-122577768D01*
X146048548Y-122480132D01*
X146048548Y-121933028D01*
X146047242Y-121904412D01*
X146011423Y-121813349D01*
X146004143Y-121806191D01*
X145910306Y-121773293D01*
X145898544Y-121773645D01*
X145809190Y-121813349D01*
X145792734Y-121835667D01*
X145771576Y-121933028D01*
X145486783Y-121933028D01*
X145487140Y-121917605D01*
X145497047Y-121817257D01*
X145503886Y-121782361D01*
X145539057Y-121689762D01*
X145542214Y-121684088D01*
X145604404Y-121602908D01*
X145682672Y-121543217D01*
X145712830Y-121527174D01*
X145807932Y-121496720D01*
X145910306Y-121487529D01*
X145943142Y-121488399D01*
G37*
G36*
X145298722Y-120909162D02*
G01*
X145012958Y-120909162D01*
X145012958Y-122506510D01*
X144994254Y-122605039D01*
X144984626Y-122617885D01*
X144891066Y-122654158D01*
X144876670Y-122655987D01*
X144876670Y-122925631D01*
X144974440Y-122921219D01*
X145051548Y-122910000D01*
X145144022Y-122877502D01*
X145184905Y-122850404D01*
X145248566Y-122775366D01*
X145269413Y-122730725D01*
X145292282Y-122634796D01*
X145298694Y-122534886D01*
X145298722Y-122527027D01*
X145298722Y-120909162D01*
G37*
G36*
X144449780Y-121493607D02*
G01*
X144544989Y-121519281D01*
X144601180Y-121546323D01*
X144680788Y-121605743D01*
X144701914Y-121628077D01*
X144757326Y-121711577D01*
X144789650Y-121809007D01*
X144799001Y-121908604D01*
X144527403Y-121908604D01*
X144522189Y-121888630D01*
X144466831Y-121807976D01*
X144458040Y-121801778D01*
X144363761Y-121773293D01*
X144339649Y-121774402D01*
X144251897Y-121818722D01*
X144241273Y-121836434D01*
X144220634Y-121933028D01*
X144220634Y-122074200D01*
X144262644Y-122065896D01*
X144296349Y-122065896D01*
X144327124Y-122065896D01*
X144358387Y-122065896D01*
X144383158Y-122066154D01*
X144480875Y-122073224D01*
X144579671Y-122095205D01*
X144639869Y-122121378D01*
X144717913Y-122183621D01*
X144757810Y-122243180D01*
X144790697Y-122336517D01*
X144793063Y-122347989D01*
X144806496Y-122448007D01*
X144810236Y-122547543D01*
X144804626Y-122642231D01*
X144780927Y-122739518D01*
X144764899Y-122774445D01*
X144703258Y-122852847D01*
X144691229Y-122862929D01*
X144603607Y-122910000D01*
X144600372Y-122910961D01*
X144501025Y-122925631D01*
X144435254Y-122920725D01*
X144339825Y-122884110D01*
X144289669Y-122840860D01*
X144226008Y-122764919D01*
X144220634Y-122764919D01*
X144220634Y-122910000D01*
X143934870Y-122910000D01*
X143934870Y-122293531D01*
X144220634Y-122293531D01*
X144220634Y-122490390D01*
X144223880Y-122536956D01*
X144261667Y-122627166D01*
X144280971Y-122646010D01*
X144375484Y-122675526D01*
X144400780Y-122673723D01*
X144485393Y-122624235D01*
X144506001Y-122588868D01*
X144524472Y-122489902D01*
X144515199Y-122412576D01*
X144458527Y-122329190D01*
X144400431Y-122300409D01*
X144299280Y-122284738D01*
X144220634Y-122293531D01*
X143934870Y-122293531D01*
X143934870Y-121931563D01*
X143942383Y-121833374D01*
X143969064Y-121737145D01*
X143997572Y-121678710D01*
X144059434Y-121598415D01*
X144106580Y-121560863D01*
X144197675Y-121515373D01*
X144269069Y-121496339D01*
X144367180Y-121487529D01*
X144449780Y-121493607D01*
G37*
G36*
X143716517Y-121503161D02*
G01*
X143716517Y-121049846D01*
X143430753Y-121049846D01*
X143430753Y-121503161D01*
X143274437Y-121503161D01*
X143274437Y-121722002D01*
X143430753Y-121722002D01*
X143430753Y-122487948D01*
X143421960Y-122564640D01*
X143393628Y-122605184D01*
X143345268Y-122621793D01*
X143274437Y-122624235D01*
X143274437Y-122910000D01*
X143387278Y-122910000D01*
X143487803Y-122899322D01*
X143544082Y-122879713D01*
X143626573Y-122821491D01*
X143644221Y-122801556D01*
X143693436Y-122712903D01*
X143699420Y-122694577D01*
X143716100Y-122596316D01*
X143716517Y-122578806D01*
X143716517Y-121722002D01*
X143868436Y-121722002D01*
X143868436Y-121503161D01*
X143716517Y-121503161D01*
G37*
G36*
X142781662Y-121488399D02*
G01*
X142879732Y-121503246D01*
X142976461Y-121543217D01*
X142982250Y-121546702D01*
X143058893Y-121607452D01*
X143119587Y-121689762D01*
X143135353Y-121722362D01*
X143161597Y-121817257D01*
X143168444Y-121873105D01*
X143172832Y-121975038D01*
X143172832Y-122438611D01*
X143171505Y-122495545D01*
X143161597Y-122595903D01*
X143154758Y-122631013D01*
X143119587Y-122723886D01*
X143116431Y-122729560D01*
X143054378Y-122810741D01*
X142976461Y-122870432D01*
X142946174Y-122886334D01*
X142850965Y-122916521D01*
X142748827Y-122925631D01*
X142667082Y-122919273D01*
X142572972Y-122892414D01*
X142517445Y-122863998D01*
X142438638Y-122801067D01*
X142418211Y-122779095D01*
X142364630Y-122696740D01*
X142333374Y-122600359D01*
X142324333Y-122501625D01*
X142610097Y-122501625D01*
X142641848Y-122593949D01*
X142653647Y-122609554D01*
X142748827Y-122639867D01*
X142756664Y-122639730D01*
X142849943Y-122604696D01*
X142856578Y-122597748D01*
X142887068Y-122503579D01*
X142887068Y-122316001D01*
X142324333Y-122316001D01*
X142324333Y-121935471D01*
X142610097Y-121935471D01*
X142610097Y-122097159D01*
X142887068Y-122097159D01*
X142887068Y-121935471D01*
X142885763Y-121906339D01*
X142849943Y-121813838D01*
X142842663Y-121806592D01*
X142748827Y-121773293D01*
X142737065Y-121773650D01*
X142647710Y-121813838D01*
X142629528Y-121839653D01*
X142610097Y-121935471D01*
X142324333Y-121935471D01*
X142324333Y-121927166D01*
X142325316Y-121892283D01*
X142340063Y-121794382D01*
X142377206Y-121697477D01*
X142436196Y-121613070D01*
X142485392Y-121569635D01*
X142571506Y-121521235D01*
X142650125Y-121497042D01*
X142748827Y-121487529D01*
X142781662Y-121488399D01*
G37*
G36*
X140213098Y-121503161D02*
G01*
X140549176Y-122910000D01*
X140801234Y-122910000D01*
X140958038Y-122074689D01*
X140963900Y-122074689D01*
X141120704Y-122910000D01*
X141372274Y-122910000D01*
X141708352Y-121503161D01*
X141405980Y-121503161D01*
X141232567Y-122377062D01*
X141226705Y-122377062D01*
X141067459Y-121503161D01*
X140843244Y-121503161D01*
X140692302Y-122377062D01*
X140686440Y-122377062D01*
X140515470Y-121503161D01*
X140213098Y-121503161D01*
G37*
G36*
X140085603Y-122910000D02*
G01*
X140085603Y-121503161D01*
X139799839Y-121503161D01*
X139799839Y-122910000D01*
X140085603Y-122910000D01*
G37*
G36*
X140085603Y-121194926D02*
G01*
X140085603Y-120909162D01*
X139799839Y-120909162D01*
X139799839Y-121194926D01*
X140085603Y-121194926D01*
G37*
G36*
X139570250Y-121503161D02*
G01*
X139570250Y-121049846D01*
X139284486Y-121049846D01*
X139284486Y-121503161D01*
X139128171Y-121503161D01*
X139128171Y-121722002D01*
X139284486Y-121722002D01*
X139284486Y-122487948D01*
X139275694Y-122564640D01*
X139247361Y-122605184D01*
X139199001Y-122621793D01*
X139128171Y-122624235D01*
X139128171Y-122910000D01*
X139241011Y-122910000D01*
X139341537Y-122899322D01*
X139397815Y-122879713D01*
X139480307Y-122821491D01*
X139497955Y-122801556D01*
X139547169Y-122712903D01*
X139553153Y-122694577D01*
X139569833Y-122596316D01*
X139570250Y-122578806D01*
X139570250Y-121722002D01*
X139722169Y-121722002D01*
X139722169Y-121503161D01*
X139570250Y-121503161D01*
G37*
G36*
X138995303Y-122910000D02*
G01*
X138995303Y-120909162D01*
X138709539Y-120909162D01*
X138709539Y-121641402D01*
X138703677Y-121641402D01*
X138637760Y-121563444D01*
X138597187Y-121531004D01*
X138505672Y-121493643D01*
X138437941Y-121487529D01*
X138339022Y-121503414D01*
X138332428Y-121505603D01*
X138246034Y-121557619D01*
X138238150Y-121565198D01*
X138181642Y-121648472D01*
X138171716Y-121672177D01*
X138149747Y-121770070D01*
X138146803Y-121831423D01*
X138146803Y-122910000D01*
X138432567Y-122910000D01*
X138432567Y-121938890D01*
X138452626Y-121841803D01*
X138468227Y-121817745D01*
X138557332Y-121773684D01*
X138569343Y-121773293D01*
X138663641Y-121803704D01*
X138679252Y-121823119D01*
X138707143Y-121917257D01*
X138709539Y-121966734D01*
X138709539Y-122910000D01*
X138995303Y-122910000D01*
G37*
G36*
X137172763Y-122910000D02*
G01*
X137172763Y-121194926D01*
X137512260Y-121194926D01*
X137512260Y-120909162D01*
X136574368Y-120909162D01*
X136574368Y-121194926D01*
X136886998Y-121194926D01*
X136886998Y-122910000D01*
X137172763Y-122910000D01*
G37*
G36*
X136333101Y-121493607D02*
G01*
X136428310Y-121519281D01*
X136484502Y-121546323D01*
X136564109Y-121605743D01*
X136585235Y-121628077D01*
X136640648Y-121711577D01*
X136672972Y-121809007D01*
X136682323Y-121908604D01*
X136410725Y-121908604D01*
X136405511Y-121888630D01*
X136350153Y-121807976D01*
X136341361Y-121801778D01*
X136247082Y-121773293D01*
X136222970Y-121774402D01*
X136135219Y-121818722D01*
X136124594Y-121836434D01*
X136103956Y-121933028D01*
X136103956Y-122074200D01*
X136145966Y-122065896D01*
X136179671Y-122065896D01*
X136210446Y-122065896D01*
X136241709Y-122065896D01*
X136266480Y-122066154D01*
X136364197Y-122073224D01*
X136462993Y-122095205D01*
X136523191Y-122121378D01*
X136601234Y-122183621D01*
X136641132Y-122243180D01*
X136674019Y-122336517D01*
X136676385Y-122347989D01*
X136689818Y-122448007D01*
X136693558Y-122547543D01*
X136687948Y-122642231D01*
X136664249Y-122739518D01*
X136648221Y-122774445D01*
X136586580Y-122852847D01*
X136574551Y-122862929D01*
X136486929Y-122910000D01*
X136483693Y-122910961D01*
X136384347Y-122925631D01*
X136318576Y-122920725D01*
X136223146Y-122884110D01*
X136172991Y-122840860D01*
X136109329Y-122764919D01*
X136103956Y-122764919D01*
X136103956Y-122910000D01*
X135818192Y-122910000D01*
X135818192Y-122293531D01*
X136103956Y-122293531D01*
X136103956Y-122490390D01*
X136107202Y-122536956D01*
X136144989Y-122627166D01*
X136164293Y-122646010D01*
X136258806Y-122675526D01*
X136284102Y-122673723D01*
X136368715Y-122624235D01*
X136389323Y-122588868D01*
X136407794Y-122489902D01*
X136398520Y-122412576D01*
X136341848Y-122329190D01*
X136283753Y-122300409D01*
X136182602Y-122284738D01*
X136103956Y-122293531D01*
X135818192Y-122293531D01*
X135818192Y-121931563D01*
X135825705Y-121833374D01*
X135852386Y-121737145D01*
X135880893Y-121678710D01*
X135942756Y-121598415D01*
X135989902Y-121560863D01*
X136080997Y-121515373D01*
X136152390Y-121496339D01*
X136250502Y-121487529D01*
X136333101Y-121493607D01*
G37*
G36*
X135107107Y-121492493D02*
G01*
X135201234Y-121529539D01*
X135239173Y-121560672D01*
X135309678Y-121632609D01*
X135309678Y-121503161D01*
X135595442Y-121503161D01*
X135595442Y-123472735D01*
X135309678Y-123472735D01*
X135309678Y-122780062D01*
X135274909Y-122824555D01*
X135196349Y-122888018D01*
X135144349Y-122910938D01*
X135046384Y-122925631D01*
X134979396Y-122921417D01*
X134884207Y-122889972D01*
X134845590Y-122861372D01*
X134784778Y-122782911D01*
X134755247Y-122681877D01*
X134753301Y-122663200D01*
X134748110Y-122561778D01*
X134746943Y-122457662D01*
X134746943Y-121963314D01*
X135032707Y-121963314D01*
X135032707Y-122474759D01*
X135033410Y-122495102D01*
X135061527Y-122590530D01*
X135074104Y-122607297D01*
X135169483Y-122639867D01*
X135180572Y-122639493D01*
X135269622Y-122597369D01*
X135281162Y-122583387D01*
X135309678Y-122488925D01*
X135309678Y-121946217D01*
X135307832Y-121914043D01*
X135271088Y-121821653D01*
X135261059Y-121810319D01*
X135169483Y-121773293D01*
X135152256Y-121774110D01*
X135065435Y-121825561D01*
X135046802Y-121865421D01*
X135032707Y-121963314D01*
X134746943Y-121963314D01*
X134746943Y-121922770D01*
X134748797Y-121835813D01*
X134758178Y-121737145D01*
X134762011Y-121716017D01*
X134793837Y-121620886D01*
X134848830Y-121550561D01*
X134941520Y-121500552D01*
X135041011Y-121487529D01*
X135107107Y-121492493D01*
G37*
G36*
X134147189Y-121488399D02*
G01*
X134245259Y-121503246D01*
X134341988Y-121543217D01*
X134347777Y-121546702D01*
X134424420Y-121607452D01*
X134485114Y-121689762D01*
X134500879Y-121722362D01*
X134527124Y-121817257D01*
X134533971Y-121873105D01*
X134538359Y-121975038D01*
X134538359Y-122438611D01*
X134537032Y-122495545D01*
X134527124Y-122595903D01*
X134520285Y-122631013D01*
X134485114Y-122723886D01*
X134481958Y-122729560D01*
X134419905Y-122810741D01*
X134341988Y-122870432D01*
X134311701Y-122886334D01*
X134216492Y-122916521D01*
X134114354Y-122925631D01*
X134032609Y-122919273D01*
X133938499Y-122892414D01*
X133882972Y-122863998D01*
X133804165Y-122801067D01*
X133783738Y-122779095D01*
X133730157Y-122696740D01*
X133698901Y-122600359D01*
X133689860Y-122501625D01*
X133975624Y-122501625D01*
X134007375Y-122593949D01*
X134019173Y-122609554D01*
X134114354Y-122639867D01*
X134122190Y-122639730D01*
X134215470Y-122604696D01*
X134222105Y-122597748D01*
X134252595Y-122503579D01*
X134252595Y-122316001D01*
X133689860Y-122316001D01*
X133689860Y-121935471D01*
X133975624Y-121935471D01*
X133975624Y-122097159D01*
X134252595Y-122097159D01*
X134252595Y-121935471D01*
X134251290Y-121906339D01*
X134215470Y-121813838D01*
X134208190Y-121806592D01*
X134114354Y-121773293D01*
X134102591Y-121773650D01*
X134013237Y-121813838D01*
X133995055Y-121839653D01*
X133975624Y-121935471D01*
X133689860Y-121935471D01*
X133689860Y-121927166D01*
X133690843Y-121892283D01*
X133705590Y-121794382D01*
X133742732Y-121697477D01*
X133801723Y-121613070D01*
X133850919Y-121569635D01*
X133937033Y-121521235D01*
X134015651Y-121497042D01*
X134114354Y-121487529D01*
X134147189Y-121488399D01*
G37*
D12*
G36*
X84717470Y-92665232D02*
G01*
X86218098Y-92665232D01*
X86218098Y-92461167D01*
X85313911Y-92129241D01*
X86218098Y-92129241D01*
X86218098Y-91914918D01*
X84717470Y-91914918D01*
X84717470Y-92114587D01*
X85619458Y-92450909D01*
X84717470Y-92450909D01*
X84717470Y-92665232D01*
G37*
G36*
X85461765Y-91121270D02*
G01*
X85537026Y-91128700D01*
X85563199Y-91133830D01*
X85632647Y-91160208D01*
X85636903Y-91162576D01*
X85697788Y-91209218D01*
X85742557Y-91267919D01*
X85754589Y-91290538D01*
X85777429Y-91361864D01*
X85784322Y-91438645D01*
X85783670Y-91463271D01*
X85772535Y-91536824D01*
X85742557Y-91609370D01*
X85739943Y-91613712D01*
X85694380Y-91671194D01*
X85632647Y-91716715D01*
X85608198Y-91728539D01*
X85537026Y-91748222D01*
X85495141Y-91753357D01*
X85418691Y-91756649D01*
X85071011Y-91756649D01*
X85028310Y-91755653D01*
X84953042Y-91748222D01*
X84926709Y-91743093D01*
X84857054Y-91716715D01*
X84852799Y-91714348D01*
X84791914Y-91667808D01*
X84747145Y-91609370D01*
X84735218Y-91586655D01*
X84712578Y-91515248D01*
X84705746Y-91438645D01*
X84920069Y-91438645D01*
X84920185Y-91444522D01*
X84949744Y-91514482D01*
X84966643Y-91526664D01*
X85039870Y-91542326D01*
X85450198Y-91542326D01*
X85471660Y-91541347D01*
X85539957Y-91514482D01*
X85545326Y-91509022D01*
X85569999Y-91438645D01*
X85569735Y-91429823D01*
X85539957Y-91362807D01*
X85523219Y-91350465D01*
X85450198Y-91334597D01*
X85039870Y-91334597D01*
X85018395Y-91335589D01*
X84949744Y-91362807D01*
X84944441Y-91368205D01*
X84920069Y-91438645D01*
X84705746Y-91438645D01*
X84706393Y-91413938D01*
X84717430Y-91340283D01*
X84747145Y-91267919D01*
X84749759Y-91263555D01*
X84795322Y-91205820D01*
X84857054Y-91160208D01*
X84881533Y-91148384D01*
X84953042Y-91128700D01*
X84995048Y-91123566D01*
X85071011Y-91120274D01*
X85418691Y-91120274D01*
X85461765Y-91121270D01*
G37*
G36*
X85779193Y-89883428D02*
G01*
X85779193Y-90097751D01*
X85827187Y-90097751D01*
X85903243Y-90108184D01*
X85953583Y-90130724D01*
X85999550Y-90189543D01*
X86007072Y-90241733D01*
X85990219Y-90309510D01*
X85948453Y-90351276D01*
X85886538Y-90373257D01*
X85814730Y-90379119D01*
X85741091Y-90376188D01*
X85688701Y-90360801D01*
X85648767Y-90324897D01*
X85615795Y-90261150D01*
X85550948Y-90101781D01*
X85519169Y-90035656D01*
X85486834Y-89989674D01*
X85431091Y-89939393D01*
X85402204Y-89922263D01*
X85330655Y-89899084D01*
X85288265Y-89891855D01*
X85210869Y-89885041D01*
X85142818Y-89883428D01*
X85068791Y-89886512D01*
X84993939Y-89896730D01*
X84968429Y-89902113D01*
X84898099Y-89924701D01*
X84831042Y-89962563D01*
X84775895Y-90016926D01*
X84739085Y-90077601D01*
X84715155Y-90150813D01*
X84706267Y-90225464D01*
X84705746Y-90250525D01*
X84712524Y-90324989D01*
X84732857Y-90394506D01*
X84767842Y-90460079D01*
X84808328Y-90509179D01*
X84867602Y-90556912D01*
X84920435Y-90585382D01*
X84991761Y-90607394D01*
X85060020Y-90613592D01*
X85139521Y-90613592D01*
X85139521Y-90399269D01*
X85072843Y-90399269D01*
X85000798Y-90384596D01*
X84966964Y-90365197D01*
X84925610Y-90300440D01*
X84920069Y-90250525D01*
X84931284Y-90176858D01*
X84935823Y-90166994D01*
X84980519Y-90120466D01*
X85050861Y-90101049D01*
X85126267Y-90097832D01*
X85141719Y-90097751D01*
X85215006Y-90099833D01*
X85237707Y-90101781D01*
X85298523Y-90117901D01*
X85336259Y-90155637D01*
X85367766Y-90217919D01*
X85430414Y-90367029D01*
X85465197Y-90435676D01*
X85510506Y-90495568D01*
X85568445Y-90541532D01*
X85579891Y-90547647D01*
X85649452Y-90573720D01*
X85722381Y-90588031D01*
X85795910Y-90593263D01*
X85813265Y-90593442D01*
X85889804Y-90588532D01*
X85962802Y-90573800D01*
X85972267Y-90571094D01*
X86042517Y-90542701D01*
X86102326Y-90502950D01*
X86153733Y-90450400D01*
X86188788Y-90393041D01*
X86213243Y-90319585D01*
X86221267Y-90244792D01*
X86221395Y-90233306D01*
X86214068Y-90158568D01*
X86192086Y-90090424D01*
X86155568Y-90026488D01*
X86114416Y-89978317D01*
X86055603Y-89932448D01*
X85984749Y-89899089D01*
X85908099Y-89884262D01*
X85883973Y-89883428D01*
X85779193Y-89883428D01*
G37*
G36*
X85772599Y-88685417D02*
G01*
X84717470Y-88937476D01*
X84717470Y-89126520D01*
X85343952Y-89244123D01*
X85343952Y-89248519D01*
X84717470Y-89366122D01*
X84717470Y-89554800D01*
X85772599Y-89806858D01*
X85772599Y-89580079D01*
X85117173Y-89450019D01*
X85117173Y-89445623D01*
X85772599Y-89326188D01*
X85772599Y-89158027D01*
X85117173Y-89044821D01*
X85117173Y-89040424D01*
X85772599Y-88912197D01*
X85772599Y-88685417D01*
G37*
G36*
X84717470Y-88589796D02*
G01*
X85772599Y-88589796D01*
X85772599Y-88375473D01*
X84717470Y-88375473D01*
X84717470Y-88589796D01*
G37*
G36*
X86003774Y-88589796D02*
G01*
X86218098Y-88589796D01*
X86218098Y-88375473D01*
X86003774Y-88375473D01*
X86003774Y-88589796D01*
G37*
G36*
X85772599Y-88203282D02*
G01*
X86112585Y-88203282D01*
X86112585Y-87988959D01*
X85772599Y-87988959D01*
X85772599Y-87871722D01*
X85608467Y-87871722D01*
X85608467Y-87988959D01*
X85034008Y-87988959D01*
X84976489Y-87982364D01*
X84946081Y-87961115D01*
X84933624Y-87924845D01*
X84931793Y-87871722D01*
X84717470Y-87871722D01*
X84717470Y-87956352D01*
X84725477Y-88031746D01*
X84740184Y-88073955D01*
X84783851Y-88135824D01*
X84798802Y-88149060D01*
X84865292Y-88185971D01*
X84879036Y-88190459D01*
X84952732Y-88202969D01*
X84965864Y-88203282D01*
X85608467Y-88203282D01*
X85608467Y-88317221D01*
X85772599Y-88317221D01*
X85772599Y-88203282D01*
G37*
G36*
X85023384Y-87557748D02*
G01*
X84952031Y-87534880D01*
X84946814Y-87529904D01*
X84920173Y-87459944D01*
X84920069Y-87454067D01*
X84943287Y-87382682D01*
X84955240Y-87373833D01*
X85025215Y-87350019D01*
X85025215Y-87135696D01*
X84950811Y-87142478D01*
X84878268Y-87165919D01*
X84816387Y-87206105D01*
X84799901Y-87221426D01*
X84752074Y-87280530D01*
X84730659Y-87322176D01*
X84710514Y-87392758D01*
X84705746Y-87454067D01*
X84712578Y-87530671D01*
X84735218Y-87602077D01*
X84747145Y-87624793D01*
X84791914Y-87683230D01*
X84852799Y-87729770D01*
X84857054Y-87732137D01*
X84926709Y-87758516D01*
X84953042Y-87763645D01*
X85028310Y-87771075D01*
X85071011Y-87772071D01*
X85418691Y-87772071D01*
X85495141Y-87768779D01*
X85537026Y-87763645D01*
X85608198Y-87743961D01*
X85632647Y-87732137D01*
X85694380Y-87686617D01*
X85739943Y-87629134D01*
X85742557Y-87624793D01*
X85772535Y-87552246D01*
X85783670Y-87478693D01*
X85784322Y-87454067D01*
X85777188Y-87380040D01*
X85759043Y-87321077D01*
X85722743Y-87256491D01*
X85690167Y-87219594D01*
X85626039Y-87175351D01*
X85550891Y-87147494D01*
X85473836Y-87136434D01*
X85446168Y-87135696D01*
X85446168Y-87350019D01*
X85520541Y-87364593D01*
X85539957Y-87378229D01*
X85569735Y-87445245D01*
X85569999Y-87454067D01*
X85545326Y-87524444D01*
X85539957Y-87529904D01*
X85471660Y-87556769D01*
X85450198Y-87557748D01*
X85023384Y-87557748D01*
G37*
G36*
X84717470Y-87020292D02*
G01*
X86218098Y-87020292D01*
X86218098Y-86805968D01*
X85668918Y-86805968D01*
X85668918Y-86801572D01*
X85727386Y-86752134D01*
X85751716Y-86721705D01*
X85779737Y-86653069D01*
X85784322Y-86602270D01*
X85772408Y-86528081D01*
X85770767Y-86523135D01*
X85731755Y-86458340D01*
X85726070Y-86452427D01*
X85663615Y-86410046D01*
X85645837Y-86402601D01*
X85572416Y-86386125D01*
X85526402Y-86383917D01*
X84717470Y-86383917D01*
X84717470Y-86598240D01*
X85445802Y-86598240D01*
X85518617Y-86613284D01*
X85536660Y-86624985D01*
X85569706Y-86691813D01*
X85569999Y-86700822D01*
X85547191Y-86771546D01*
X85532630Y-86783254D01*
X85462026Y-86804172D01*
X85424919Y-86805968D01*
X84717470Y-86805968D01*
X84717470Y-87020292D01*
G37*
G36*
X93160759Y-88392500D02*
G01*
X93160759Y-86891871D01*
X92956694Y-86891871D01*
X92624768Y-87796058D01*
X92624768Y-86891871D01*
X92410445Y-86891871D01*
X92410445Y-88392500D01*
X92610114Y-88392500D01*
X92946436Y-87490511D01*
X92946436Y-88392500D01*
X93160759Y-88392500D01*
G37*
G36*
X91958798Y-87326299D02*
G01*
X92032351Y-87337434D01*
X92104897Y-87367412D01*
X92109239Y-87370026D01*
X92166721Y-87415589D01*
X92212242Y-87477322D01*
X92224066Y-87501771D01*
X92243749Y-87572943D01*
X92248884Y-87614828D01*
X92252176Y-87691278D01*
X92252176Y-88038958D01*
X92251180Y-88081659D01*
X92243749Y-88156927D01*
X92238620Y-88183260D01*
X92212242Y-88252915D01*
X92209875Y-88257170D01*
X92163335Y-88318055D01*
X92104897Y-88362824D01*
X92082182Y-88374751D01*
X92010775Y-88397391D01*
X91934172Y-88404223D01*
X91909465Y-88403576D01*
X91835810Y-88392539D01*
X91763446Y-88362824D01*
X91759082Y-88360210D01*
X91701347Y-88314647D01*
X91655735Y-88252915D01*
X91643911Y-88228436D01*
X91624227Y-88156927D01*
X91619093Y-88114921D01*
X91615801Y-88038958D01*
X91615801Y-87691278D01*
X91616530Y-87659771D01*
X91830124Y-87659771D01*
X91830124Y-88070099D01*
X91831116Y-88091574D01*
X91858334Y-88160225D01*
X91863732Y-88165528D01*
X91934172Y-88189900D01*
X91940049Y-88189784D01*
X92010009Y-88160225D01*
X92022191Y-88143326D01*
X92037853Y-88070099D01*
X92037853Y-87659771D01*
X92036874Y-87638309D01*
X92010009Y-87570012D01*
X92004549Y-87564643D01*
X91934172Y-87539970D01*
X91925350Y-87540234D01*
X91858334Y-87570012D01*
X91845992Y-87586750D01*
X91830124Y-87659771D01*
X91616530Y-87659771D01*
X91616797Y-87648204D01*
X91624227Y-87572943D01*
X91629357Y-87546770D01*
X91655735Y-87477322D01*
X91658103Y-87473066D01*
X91704745Y-87412181D01*
X91763446Y-87367412D01*
X91786065Y-87355380D01*
X91857391Y-87332540D01*
X91934172Y-87325647D01*
X91958798Y-87326299D01*
G37*
G36*
X90566534Y-86891871D02*
G01*
X90566534Y-88037859D01*
X90572579Y-88111613D01*
X90593831Y-88186977D01*
X90630384Y-88254284D01*
X90663254Y-88294680D01*
X90719703Y-88342687D01*
X90777926Y-88374914D01*
X90849459Y-88396896D01*
X90926669Y-88404195D01*
X90932165Y-88404223D01*
X91010067Y-88396786D01*
X91081113Y-88372142D01*
X91103258Y-88359160D01*
X91164349Y-88314281D01*
X91211335Y-88269767D01*
X91043540Y-88134945D01*
X90989685Y-88174146D01*
X90925937Y-88189900D01*
X90881607Y-88182573D01*
X90833247Y-88154363D01*
X90795512Y-88100507D01*
X90781215Y-88026125D01*
X90780857Y-88008916D01*
X90780857Y-86891871D01*
X90566534Y-86891871D01*
G37*
G36*
X90152943Y-87330205D02*
G01*
X90224350Y-87349460D01*
X90266493Y-87369742D01*
X90326199Y-87414307D01*
X90342043Y-87431057D01*
X90383603Y-87493683D01*
X90407846Y-87566755D01*
X90414859Y-87641453D01*
X90211161Y-87641453D01*
X90207250Y-87626473D01*
X90165731Y-87565982D01*
X90159138Y-87561333D01*
X90088428Y-87539970D01*
X90070345Y-87540802D01*
X90004531Y-87574042D01*
X89996563Y-87587325D01*
X89981084Y-87659771D01*
X89981084Y-87765650D01*
X90012591Y-87759422D01*
X90037870Y-87759422D01*
X90060951Y-87759422D01*
X90084398Y-87759422D01*
X90102977Y-87759615D01*
X90176264Y-87764918D01*
X90250361Y-87781404D01*
X90295510Y-87801033D01*
X90354043Y-87847716D01*
X90383966Y-87892385D01*
X90408631Y-87962388D01*
X90410405Y-87970992D01*
X90420480Y-88046005D01*
X90423285Y-88120657D01*
X90419078Y-88191673D01*
X90401304Y-88264638D01*
X90389282Y-88290833D01*
X90343052Y-88349635D01*
X90334030Y-88357197D01*
X90268313Y-88392500D01*
X90265887Y-88393221D01*
X90191377Y-88404223D01*
X90142049Y-88400543D01*
X90070477Y-88373082D01*
X90032860Y-88340645D01*
X89985114Y-88283689D01*
X89981084Y-88283689D01*
X89981084Y-88392500D01*
X89766761Y-88392500D01*
X89766761Y-87930148D01*
X89981084Y-87930148D01*
X89981084Y-88077793D01*
X89983518Y-88112717D01*
X90011858Y-88180375D01*
X90026337Y-88194507D01*
X90097221Y-88216645D01*
X90116193Y-88215292D01*
X90179653Y-88178176D01*
X90195109Y-88151651D01*
X90208962Y-88077426D01*
X90202007Y-88019432D01*
X90159503Y-87956892D01*
X90115932Y-87935307D01*
X90040068Y-87923553D01*
X89981084Y-87930148D01*
X89766761Y-87930148D01*
X89766761Y-87658672D01*
X89772396Y-87585031D01*
X89792406Y-87512859D01*
X89813787Y-87469033D01*
X89860184Y-87408811D01*
X89895543Y-87380647D01*
X89963865Y-87346530D01*
X90017410Y-87332254D01*
X90090993Y-87325647D01*
X90152943Y-87330205D01*
G37*
G36*
X89385375Y-88086585D02*
G01*
X89362508Y-88157938D01*
X89357532Y-88163155D01*
X89287572Y-88189796D01*
X89281694Y-88189900D01*
X89210309Y-88166682D01*
X89201461Y-88154729D01*
X89177647Y-88084754D01*
X88963324Y-88084754D01*
X88970105Y-88159158D01*
X88993547Y-88231701D01*
X89033732Y-88293582D01*
X89049053Y-88310068D01*
X89108158Y-88357895D01*
X89149803Y-88379310D01*
X89220386Y-88399455D01*
X89281694Y-88404223D01*
X89358298Y-88397391D01*
X89429705Y-88374751D01*
X89452420Y-88362824D01*
X89510858Y-88318055D01*
X89557397Y-88257170D01*
X89559765Y-88252915D01*
X89586143Y-88183260D01*
X89591272Y-88156927D01*
X89598703Y-88081659D01*
X89599699Y-88038958D01*
X89599699Y-87691278D01*
X89596407Y-87614828D01*
X89591272Y-87572943D01*
X89571589Y-87501771D01*
X89559765Y-87477322D01*
X89514244Y-87415589D01*
X89456762Y-87370026D01*
X89452420Y-87367412D01*
X89379874Y-87337434D01*
X89306321Y-87326299D01*
X89281694Y-87325647D01*
X89207668Y-87332781D01*
X89148704Y-87350926D01*
X89084118Y-87387226D01*
X89047221Y-87419802D01*
X89002978Y-87483930D01*
X88975122Y-87559078D01*
X88964061Y-87636133D01*
X88963324Y-87663801D01*
X89177647Y-87663801D01*
X89192220Y-87589428D01*
X89205857Y-87570012D01*
X89272873Y-87540234D01*
X89281694Y-87539970D01*
X89352072Y-87564643D01*
X89357532Y-87570012D01*
X89384397Y-87638309D01*
X89385375Y-87659771D01*
X89385375Y-88086585D01*
G37*
G36*
X88847919Y-88392500D02*
G01*
X88847919Y-86891871D01*
X88633596Y-86891871D01*
X88633596Y-87797158D01*
X88629200Y-87797158D01*
X88370913Y-87337370D01*
X88156590Y-87337370D01*
X88410846Y-87766017D01*
X88104200Y-88392500D01*
X88337207Y-88392500D01*
X88530648Y-87936742D01*
X88633596Y-88096844D01*
X88633596Y-88392500D01*
X88847919Y-88392500D01*
G37*
D10*
G36*
X110617431Y-88570000D02*
G01*
X110331789Y-88570000D01*
X110331789Y-87788422D01*
X110185488Y-87788422D01*
X110079521Y-87781584D01*
X109994545Y-87762821D01*
X109926713Y-87734078D01*
X109838132Y-87668940D01*
X109768932Y-87581915D01*
X109726983Y-87497930D01*
X109702864Y-87408869D01*
X109691604Y-87311505D01*
X109687355Y-87182700D01*
X109693532Y-87052030D01*
X109960907Y-87052030D01*
X109960907Y-87185509D01*
X109960907Y-87323140D01*
X109966993Y-87381700D01*
X109983743Y-87427065D01*
X110012659Y-87466824D01*
X110055184Y-87497407D01*
X110109311Y-87515537D01*
X110191960Y-87522686D01*
X110331789Y-87522686D01*
X110331789Y-86842714D01*
X110181824Y-86842714D01*
X110102522Y-86849890D01*
X110051521Y-86867993D01*
X110011969Y-86898808D01*
X109983621Y-86941022D01*
X109966843Y-86991403D01*
X109960907Y-87052030D01*
X109693532Y-87052030D01*
X109695362Y-87013328D01*
X109715565Y-86899378D01*
X109754980Y-86801118D01*
X109816681Y-86716563D01*
X109895126Y-86649481D01*
X109979591Y-86607752D01*
X110073637Y-86585106D01*
X110187564Y-86576978D01*
X110617431Y-86576978D01*
X110617431Y-88570000D01*
G37*
G36*
X109517362Y-88570000D02*
G01*
X109517362Y-88300966D01*
X109004818Y-87327903D01*
X108973009Y-87256028D01*
X108960244Y-87200286D01*
X108954626Y-87064242D01*
X108954626Y-86987184D01*
X108958301Y-86948042D01*
X108968670Y-86915498D01*
X108986036Y-86887286D01*
X109010680Y-86863719D01*
X109042718Y-86848560D01*
X109091768Y-86842714D01*
X109150847Y-86852299D01*
X109193984Y-86879106D01*
X109221548Y-86921896D01*
X109231720Y-86985596D01*
X109231720Y-87148384D01*
X109517362Y-87148384D01*
X109517362Y-86991336D01*
X109508896Y-86903977D01*
X109483900Y-86823175D01*
X109443999Y-86749340D01*
X109391821Y-86685788D01*
X109330868Y-86633190D01*
X109257854Y-86591877D01*
X109177339Y-86565678D01*
X109090425Y-86556828D01*
X108984139Y-86567578D01*
X108899305Y-86597494D01*
X108826198Y-86645635D01*
X108766681Y-86708258D01*
X108723448Y-86782552D01*
X108692798Y-86868115D01*
X108675058Y-86959691D01*
X108668984Y-87058747D01*
X108668984Y-87180746D01*
X108677410Y-87274658D01*
X108705621Y-87364417D01*
X108759110Y-87473715D01*
X109181283Y-88284113D01*
X108665443Y-88284113D01*
X108665443Y-88570000D01*
X109517362Y-88570000D01*
G37*
G36*
X197875258Y-85236978D02*
G01*
X197875258Y-86762274D01*
X197883708Y-86862740D01*
X197908131Y-86951961D01*
X197948004Y-87031986D01*
X198003974Y-87104337D01*
X198074050Y-87164406D01*
X198156625Y-87210949D01*
X198249608Y-87239852D01*
X198362522Y-87250150D01*
X198452227Y-87242888D01*
X198527423Y-87222436D01*
X198590767Y-87189944D01*
X198675316Y-87127460D01*
X198734870Y-87070753D01*
X198510900Y-86891357D01*
X198439581Y-86943258D01*
X198397766Y-86959039D01*
X198354096Y-86964263D01*
X198295355Y-86954494D01*
X198263160Y-86940562D01*
X198230875Y-86916636D01*
X198203647Y-86887175D01*
X198180561Y-86845195D01*
X198166363Y-86794817D01*
X198160900Y-86723073D01*
X198160900Y-85236978D01*
X197875258Y-85236978D01*
G37*
G36*
X197314842Y-87230000D02*
G01*
X197314842Y-85539351D01*
X197600118Y-85749277D01*
X197600118Y-85446905D01*
X197314842Y-85236978D01*
X197029200Y-85236978D01*
X197029200Y-87230000D01*
X197314842Y-87230000D01*
G37*
D13*
G36*
X84178390Y-80258140D02*
G01*
X84464032Y-80258140D01*
X84464032Y-80193660D01*
X84475988Y-80100741D01*
X84510194Y-80024155D01*
X84546314Y-79985610D01*
X84596421Y-79961552D01*
X84665410Y-79952714D01*
X84720401Y-79958799D01*
X84760421Y-79975184D01*
X84793506Y-80000536D01*
X84819161Y-80031116D01*
X84837856Y-80069579D01*
X84849936Y-80113792D01*
X84858362Y-80210390D01*
X84854210Y-80308576D01*
X84833083Y-80378674D01*
X84812844Y-80407002D01*
X84784235Y-80431919D01*
X84696063Y-80476615D01*
X84477832Y-80563565D01*
X84388944Y-80604729D01*
X84323959Y-80649050D01*
X84271152Y-80702262D01*
X84231635Y-80762501D01*
X84206150Y-80832876D01*
X84189625Y-80915275D01*
X84178390Y-81109937D01*
X84184917Y-81233436D01*
X84203669Y-81344043D01*
X84237378Y-81445675D01*
X84284880Y-81527470D01*
X84352280Y-81596960D01*
X84439242Y-81650812D01*
X84541068Y-81683648D01*
X84671883Y-81695631D01*
X84772885Y-81686381D01*
X84865323Y-81659239D01*
X84949252Y-81615372D01*
X85019563Y-81558244D01*
X85077129Y-81488848D01*
X85121778Y-81408401D01*
X85149995Y-81319935D01*
X85159636Y-81222044D01*
X85159636Y-81115554D01*
X84873994Y-81115554D01*
X84873994Y-81205314D01*
X84862423Y-81279807D01*
X84827710Y-81346730D01*
X84792150Y-81380258D01*
X84741938Y-81401739D01*
X84671883Y-81409745D01*
X84603347Y-81403820D01*
X84558066Y-81388740D01*
X84521898Y-81363138D01*
X84494929Y-81328534D01*
X84477358Y-81286512D01*
X84468306Y-81234623D01*
X84464032Y-81112745D01*
X84469650Y-80983907D01*
X84478593Y-80936399D01*
X84491998Y-80902575D01*
X84514682Y-80874698D01*
X84543777Y-80852260D01*
X84629140Y-80810129D01*
X84833327Y-80725987D01*
X84949470Y-80665968D01*
X85029561Y-80599198D01*
X85081112Y-80525708D01*
X85114672Y-80440291D01*
X85136254Y-80337283D01*
X85144004Y-80213199D01*
X85136198Y-80103219D01*
X85113230Y-80000341D01*
X85074175Y-79905330D01*
X85020906Y-79826685D01*
X84954785Y-79761666D01*
X84871185Y-79710303D01*
X84774520Y-79678317D01*
X84654297Y-79666828D01*
X84551322Y-79676894D01*
X84459758Y-79706151D01*
X84376927Y-79752047D01*
X84307228Y-79809832D01*
X84234661Y-79905535D01*
X84192520Y-80007226D01*
X84178390Y-80117944D01*
X84178390Y-80258140D01*
G37*
G36*
X82487008Y-79686978D02*
G01*
X82783763Y-81683907D01*
X83052553Y-81683907D01*
X83270906Y-80388199D01*
X83276523Y-80388199D01*
X83492190Y-81683907D01*
X83760979Y-81683907D01*
X84057734Y-79686978D01*
X83755362Y-79686978D01*
X83612602Y-80954720D01*
X83606984Y-80954720D01*
X83383013Y-79686978D01*
X83164538Y-79686978D01*
X82932141Y-80985495D01*
X82926523Y-80985495D01*
X82789381Y-79686978D01*
X82487008Y-79686978D01*
G37*
G36*
X82013788Y-81680000D02*
G01*
X82013788Y-79989351D01*
X82299064Y-80199277D01*
X82299064Y-79896905D01*
X82013788Y-79686978D01*
X81728146Y-79686978D01*
X81728146Y-81680000D01*
X82013788Y-81680000D01*
G37*
D10*
G36*
X182387431Y-88520000D02*
G01*
X182101789Y-88520000D01*
X182101789Y-87738422D01*
X181955488Y-87738422D01*
X181849521Y-87731584D01*
X181764545Y-87712821D01*
X181696713Y-87684078D01*
X181608132Y-87618940D01*
X181538932Y-87531915D01*
X181496983Y-87447930D01*
X181472864Y-87358869D01*
X181461604Y-87261505D01*
X181457355Y-87132700D01*
X181463532Y-87002030D01*
X181730907Y-87002030D01*
X181730907Y-87135509D01*
X181730907Y-87273140D01*
X181736993Y-87331700D01*
X181753743Y-87377065D01*
X181782659Y-87416824D01*
X181825184Y-87447407D01*
X181879311Y-87465537D01*
X181961960Y-87472686D01*
X182101789Y-87472686D01*
X182101789Y-86792714D01*
X181951824Y-86792714D01*
X181872522Y-86799890D01*
X181821521Y-86817993D01*
X181781969Y-86848808D01*
X181753621Y-86891022D01*
X181736843Y-86941403D01*
X181730907Y-87002030D01*
X181463532Y-87002030D01*
X181465362Y-86963328D01*
X181485565Y-86849378D01*
X181524980Y-86751118D01*
X181586681Y-86666563D01*
X181665126Y-86599481D01*
X181749591Y-86557752D01*
X181843637Y-86535106D01*
X181957564Y-86526978D01*
X182387431Y-86526978D01*
X182387431Y-88520000D01*
G37*
G36*
X180951283Y-88520000D02*
G01*
X180951283Y-86829351D01*
X181236559Y-87039277D01*
X181236559Y-86736905D01*
X180951283Y-86526978D01*
X180665641Y-86526978D01*
X180665641Y-88520000D01*
X180951283Y-88520000D01*
G37*
G36*
X152935622Y-86820923D02*
G01*
X152935622Y-85552936D01*
X153149579Y-85710381D01*
X153149579Y-85483601D01*
X152935622Y-85326156D01*
X152721390Y-85326156D01*
X152721390Y-86820923D01*
X152935622Y-86820923D01*
G37*
G36*
X152149045Y-85316589D02*
G01*
X152208023Y-85333117D01*
X152262496Y-85360240D01*
X152309963Y-85397231D01*
X152349404Y-85443139D01*
X152380397Y-85498164D01*
X152399777Y-85559826D01*
X152406592Y-85632620D01*
X152406592Y-86511162D01*
X152399781Y-86583888D01*
X152380397Y-86645617D01*
X152349409Y-86700565D01*
X152309963Y-86746459D01*
X152262496Y-86783450D01*
X152208023Y-86810573D01*
X152149045Y-86827101D01*
X152087122Y-86832646D01*
X152025279Y-86827103D01*
X151966314Y-86810573D01*
X151911841Y-86783450D01*
X151864373Y-86746459D01*
X151825000Y-86700572D01*
X151794031Y-86645617D01*
X151774509Y-86583877D01*
X151767653Y-86511162D01*
X151767653Y-85632620D01*
X151767662Y-85632528D01*
X151981884Y-85632528D01*
X151981884Y-86511070D01*
X151989422Y-86553811D01*
X152011376Y-86587823D01*
X152044552Y-86610452D01*
X152087031Y-86618231D01*
X152129683Y-86610447D01*
X152162960Y-86587823D01*
X152184843Y-86553819D01*
X152192360Y-86511070D01*
X152192360Y-85632528D01*
X152184844Y-85589874D01*
X152162960Y-85555958D01*
X152129675Y-85533263D01*
X152087031Y-85525458D01*
X152044560Y-85533258D01*
X152011376Y-85555958D01*
X151989421Y-85589882D01*
X151981884Y-85632528D01*
X151767662Y-85632528D01*
X151774514Y-85559836D01*
X151794031Y-85498164D01*
X151825005Y-85443132D01*
X151864373Y-85397231D01*
X151911841Y-85360240D01*
X151966314Y-85333117D01*
X152025279Y-85316587D01*
X152087122Y-85311044D01*
X152149045Y-85316589D01*
G37*
G36*
X151596194Y-86820923D02*
G01*
X151596194Y-85326156D01*
X151381963Y-85326156D01*
X151381963Y-86008418D01*
X151377749Y-86008418D01*
X151064874Y-85326156D01*
X150850643Y-85326156D01*
X151142544Y-85924521D01*
X150796055Y-86820923D01*
X151022834Y-86820923D01*
X151266466Y-86157528D01*
X151381963Y-86373775D01*
X151381963Y-86820923D01*
X151596194Y-86820923D01*
G37*
D14*
%TO.C,JP3*%
X82329971Y-90218423D02*
X82329971Y-88818423D01*
X83029970Y-88118423D02*
X83629972Y-88118423D01*
X83629972Y-90918423D02*
X83029970Y-90918423D01*
X84329971Y-88818423D02*
X84329971Y-90218423D01*
X82329971Y-88818423D02*
G75*
G02*
X83029970Y-88118423I700000J0D01*
G01*
X83029970Y-90918423D02*
G75*
G02*
X82329971Y-90218423I0J699999D01*
G01*
X83629972Y-88118423D02*
G75*
G02*
X84329971Y-88818423I-1J-700000D01*
G01*
X84329971Y-90218423D02*
G75*
G02*
X83629972Y-90918423I-699999J-1D01*
G01*
%TO.C,R3*%
X153615246Y-87405923D02*
X154124694Y-87405923D01*
X153615246Y-88450923D02*
X154124694Y-88450923D01*
D15*
%TO.C,J4*%
X86869970Y-76908423D02*
X95869970Y-76908423D01*
X86869970Y-91308422D02*
X86869970Y-76908423D01*
X88719970Y-91308422D02*
X86869970Y-91308422D01*
X95869970Y-76908423D02*
X95869970Y-85058422D01*
X95869970Y-90158421D02*
X95869970Y-91308422D01*
X95869970Y-91308422D02*
X93919970Y-91308422D01*
D16*
X91569971Y-92608423D02*
G75*
G02*
X91169969Y-92608423I-200001J0D01*
G01*
X91169969Y-92608423D02*
G75*
G02*
X91569971Y-92608423I200001J0D01*
G01*
D14*
%TO.C,JP4*%
X93389971Y-87908422D02*
X93389971Y-87308420D01*
X94089971Y-86608421D02*
X95489971Y-86608421D01*
X95489971Y-88608421D02*
X94089971Y-88608421D01*
X96189971Y-87308420D02*
X96189971Y-87908422D01*
X93389971Y-87308420D02*
G75*
G02*
X94089971Y-86608421I700000J-1D01*
G01*
X94089971Y-88608421D02*
G75*
G02*
X93389971Y-87908422I0J700000D01*
G01*
X95489971Y-86608421D02*
G75*
G02*
X96189971Y-87308420I1J-699999D01*
G01*
X96189971Y-87908422D02*
G75*
G02*
X95489971Y-88608421I-699999J0D01*
G01*
D15*
%TO.C,J1*%
X191608061Y-80147988D02*
X191608061Y-91147988D01*
X193308061Y-79347988D02*
X193308061Y-80147988D01*
X193308061Y-80147988D02*
X191608061Y-80147988D01*
X202308061Y-79347988D02*
X202308061Y-80147988D01*
X204008061Y-80147988D02*
X202308061Y-80147988D01*
X204008061Y-80147988D02*
X204008061Y-91147988D01*
X204008061Y-91147988D02*
X191608061Y-91147988D01*
D17*
X194738060Y-81177988D02*
G75*
G02*
X194398062Y-81177988I-169999J0D01*
G01*
X194398062Y-81177988D02*
G75*
G02*
X194738060Y-81177988I169999J0D01*
G01*
D13*
%TO.C,SW1*%
X83329971Y-78928423D02*
X80579971Y-78928422D01*
X83329971Y-78928423D02*
X86079971Y-78928422D01*
D14*
%TO.C,R4*%
X150437194Y-87405923D02*
X149927746Y-87405923D01*
X150437194Y-88450923D02*
X149927746Y-88450923D01*
%TD*%
M02*
